<?xml version="1.0" encoding="utf-8"?>
<!-- Generator: Adobe Illustrator 16.0.0, SVG Export Plug-In . SVG Version: 6.00 Build 0)  -->
<!DOCTYPE svg PUBLIC "-//W3C//DTD SVG 1.1//EN" "http://www.w3.org/Graphics/SVG/1.1/DTD/svg11.dtd">
<svg version="1.1" id="Capa_1" xmlns="http://www.w3.org/2000/svg" xmlns:xlink="http://www.w3.org/1999/xlink" x="0px" y="0px"
	 width="20px" height="20px" viewBox="0 0 20 20" enable-background="new 0 0 20 20" xml:space="preserve">
<g>
	<g>
		<g>
			<path fill="#FFFFFF" d="M8.867,6.526C8.904,6.6,8.94,6.673,8.976,6.728s0.092,0.11,0.128,0.165
				c0.055,0.055,0.11,0.11,0.183,0.165c0.055,0.037,0.128,0.091,0.219,0.11C9.58,7.203,9.653,7.221,9.744,7.239
				c0.091,0.019,0.165,0.019,0.238,0.019c0.073,0,0.165,0,0.237-0.019c0.073-0.018,0.146-0.036,0.201-0.073h0.019
				c0.073-0.037,0.146-0.073,0.219-0.128c0.055-0.037,0.109-0.092,0.165-0.146l0.018-0.018c0.055-0.055,0.091-0.11,0.128-0.165
				c0.037-0.055,0.073-0.11,0.092-0.183c0-0.018,0-0.018,0.018-0.037c0.037-0.073,0.055-0.165,0.073-0.237
				c0.018-0.073,0.018-0.165,0.018-0.238s0-0.165-0.018-0.238c-0.019-0.073-0.037-0.146-0.073-0.238
				c-0.055-0.128-0.128-0.237-0.219-0.329c-0.019-0.019-0.019-0.019-0.037-0.037c-0.055-0.055-0.11-0.092-0.183-0.146
				c-0.073-0.037-0.128-0.073-0.201-0.109c-0.073-0.037-0.146-0.055-0.22-0.073c-0.091-0.019-0.165-0.019-0.238-0.019
				c-0.073,0-0.164,0-0.237,0.019c-0.073,0.018-0.146,0.037-0.22,0.073H9.507C9.433,4.954,9.361,4.991,9.305,5.027
				C9.233,5.082,9.177,5.119,9.123,5.174c-0.055,0.055-0.11,0.109-0.146,0.165C8.94,5.393,8.904,5.466,8.867,5.539
				C8.83,5.612,8.812,5.686,8.794,5.759C8.775,5.85,8.775,5.923,8.775,5.997c0,0.073,0,0.165,0.019,0.237
				C8.812,6.38,8.848,6.454,8.867,6.526z"/>
			<path fill="#FFFFFF" d="M11.408,13.218h-0.42V8.739c0-0.256-0.201-0.476-0.476-0.476H8.593c-0.256,0-0.475,0.201-0.475,0.476
				v0.987c0,0.256,0.201,0.476,0.475,0.476h0.384v3.035H8.593c-0.256,0-0.475,0.201-0.475,0.475v0.987
				c0,0.256,0.201,0.476,0.475,0.476h2.815c0.256,0,0.475-0.201,0.475-0.476v-0.987C11.883,13.437,11.664,13.218,11.408,13.218z"/>
			<path fill="#FFFFFF" d="M10,0C4.479,0,0,4.479,0,10s4.479,10,10,10s10-4.479,10-10S15.521,0,10,0z M10,18.684
				c-4.79,0-8.684-3.894-8.684-8.684S5.211,1.316,10,1.316S18.684,5.21,18.684,10S14.79,18.684,10,18.684z"/>
		</g>
	</g>
</g>
</svg>
