<?xml version="1.0" encoding="utf-8"?>
<!-- Generator: Adobe Illustrator 22.1.0, SVG Export Plug-In . SVG Version: 6.00 Build 0)  -->
<svg version="1.1" id="Capa_1" xmlns="http://www.w3.org/2000/svg" xmlns:xlink="http://www.w3.org/1999/xlink" x="0px" y="0px"
	 width="16" height="16" viewBox="0 0 17 17" style="enable-background:new 0 0 17 17;" xml:space="preserve">
<style type="text/css">
	.st0{fill:none;}
	.st1{fill:#FFFFFF;}
</style>
<line class="st0" x1="-197.2" y1="-20.2" x2="-197.2" y2="9"/>
<g id="surface1">
	<path class="st1" d="M3.1,0.1c-1,0-1.9,0.8-1.9,1.9V5h1.2V1.9c0-0.3,0.2-0.6,0.6-0.6h12.1c0.3,0,0.6,0.2,0.6,0.6V14
		c0,0.3-0.2,0.6-0.6,0.6H3.1c-0.4,0-0.6-0.3-0.6-0.6v-3.1H1.2V14c0,1,0.8,1.9,1.9,1.9h12.1c1,0,1.9-0.8,1.9-1.9V1.9
		c0-1-0.8-1.9-1.9-1.9L3.1,0.1L3.1,0.1z M8.2,3.7L7.3,4.5L10,7.3H0v1.2h10l-2.8,2.8l0.9,0.9L12.4,8L8.2,3.7z"/>
</g>
</svg>
