<?xml version="1.0" encoding="utf-8"?>
<!-- Generator: Adobe Illustrator 16.0.0, SVG Export Plug-In . SVG Version: 6.00 Build 0)  -->
<!DOCTYPE svg PUBLIC "-//W3C//DTD SVG 1.1//EN" "http://www.w3.org/Graphics/SVG/1.1/DTD/svg11.dtd">
<svg version="1.1" id="Layer_1" xmlns="http://www.w3.org/2000/svg" xmlns:xlink="http://www.w3.org/1999/xlink" x="0px" y="0px"
	 width="20px" height="20px" viewBox="0 0 20 20" enable-background="new 0 0 20 20" xml:space="preserve">
<g>
	<g>
		<path fill="#FFFFFF" d="M1.171,18.78h17.658c0.376,0,0.671-0.295,0.671-0.672V3.135c0-0.377-0.294-0.671-0.671-0.671h-3.322V1.891
			c0-0.376-0.294-0.671-0.671-0.671s-0.671,0.295-0.671,0.671v0.573H5.95V1.891c0-0.376-0.294-0.671-0.671-0.671
			S4.608,1.515,4.608,1.891v0.573H1.171C0.795,2.464,0.5,2.758,0.5,3.135v14.99C0.5,18.485,0.811,18.78,1.171,18.78L1.171,18.78z
			 M1.842,3.806h2.766v0.36c0,0.376,0.294,0.671,0.671,0.671S5.95,4.542,5.95,4.166v-0.36h8.215v0.36
			c0,0.376,0.294,0.671,0.671,0.671s0.671-0.295,0.671-0.671v-0.36h2.667V5.54H1.842V3.806L1.842,3.806z M1.842,6.883h16.316v10.571
			H1.842V6.883L1.842,6.883z"/>
		<path fill="#FFFFFF" d="M14.836,9.959H5.181c-0.376,0-0.671,0.295-0.671,0.671c0,0.377,0.295,0.671,0.671,0.671h9.655
			c0.376,0,0.671-0.294,0.671-0.671C15.507,10.254,15.213,9.959,14.836,9.959z"/>
		<path fill="#FFFFFF" d="M10.009,13.199H5.181c-0.376,0-0.671,0.295-0.671,0.671c0,0.377,0.295,0.671,0.671,0.671h4.828
			c0.376,0,0.671-0.294,0.671-0.671C10.679,13.494,10.385,13.199,10.009,13.199z"/>
	</g>
</g>
</svg>
