<?xml version="1.0" encoding="utf-8"?>
<!-- Generator: Adobe Illustrator 16.0.0, SVG Export Plug-In . SVG Version: 6.00 Build 0)  -->
<!DOCTYPE svg PUBLIC "-//W3C//DTD SVG 1.1//EN" "http://www.w3.org/Graphics/SVG/1.1/DTD/svg11.dtd">
<svg version="1.1" id="Capa_1" xmlns="http://www.w3.org/2000/svg" xmlns:xlink="http://www.w3.org/1999/xlink" x="0px" y="0px"
	 width="30px" height="30px" viewBox="0 0 30 30" enable-background="new 0 0 30 30" xml:space="preserve">
<path fill="#0E9BAF" d="M22.953,7.778c0,0.909-0.662,1.462-1.145,1.867c-0.183,0.154-0.523,0.435-0.522,0.539
	c0.003,0.411-0.327,0.739-0.738,0.739c-0.002,0-0.004,0-0.006,0c-0.408,0-0.74-0.318-0.744-0.728
	c-0.006-0.805,0.581-1.287,1.054-1.685c0.371-0.311,0.614-0.529,0.614-0.73c0-0.405-0.33-0.735-0.736-0.735s-0.736,0.33-0.736,0.735
	c0,0.411-0.333,0.744-0.744,0.744c-0.411,0-0.744-0.333-0.744-0.744c0-1.226,0.998-2.223,2.224-2.223
	C21.956,5.558,22.953,6.553,22.953,7.778z M20.562,11.61c-0.411,0-0.728,0.333-0.728,0.743v0.006c0,0.411,0.317,0.741,0.728,0.741
	s0.744-0.336,0.744-0.747C21.306,11.943,20.973,11.61,20.562,11.61z M5.57,16.791c-0.411,0-0.744,0.333-0.744,0.744
	s0.333,0.744,0.744,0.744h0.062c0.411,0,0.744-0.333,0.744-0.744s-0.333-0.744-0.744-0.744H5.57z M8.155,16.791
	c-0.411,0-0.744,0.333-0.744,0.744s0.333,0.744,0.744,0.744h0.062c0.411,0,0.744-0.333,0.744-0.744s-0.333-0.744-0.744-0.744H8.155z
	 M30,4.911v8.372c0,1.982-1.589,3.591-3.572,3.591h-9.646c-0.188,0-0.344-0.001-0.474-0.004c-0.136-0.003-0.29-0.004-0.349,0.003
	c-0.063,0.041-0.215,0.181-0.362,0.316c-0.059,0.054-0.125,0.112-0.195,0.178l-2.729,2.487c-0.218,0.198-0.54,0.25-0.81,0.131
	s-0.459-0.386-0.459-0.681v-7.886H3.614c-1.162,0-2.125,0.953-2.125,2.114v8.372c0,1.162,0.963,2.076,2.125,2.076h10.774
	c0.186,0,0.359,0.085,0.496,0.21l2.224,2.05v-7.069c0-0.41,0.333-0.743,0.744-0.743c0.411,0,0.744,0.333,0.744,0.743v8.756
	c0,0.294-0.169,0.558-0.438,0.676c-0.096,0.043-0.193,0.06-0.295,0.06c-0.182,0-0.362-0.074-0.501-0.202L14.1,25.469H3.614
	C1.631,25.469,0,23.888,0,21.905v-8.372c0-1.981,1.631-3.602,3.613-3.602h7.792V4.911c0-1.982,1.644-3.574,3.626-3.574h11.397
	C28.411,1.337,30,2.929,30,4.911z M28.512,4.911c0-1.162-0.922-2.087-2.084-2.087H15.031c-1.162,0-2.138,0.925-2.138,2.087v5.771
	v6.937l1.496-1.352c0.069-0.063,0.146-0.121,0.203-0.173c0.683-0.63,0.858-0.73,1.749-0.712c0.122,0.003,0.266,0.004,0.442,0.004
	h9.646c1.162,0,2.084-0.941,2.084-2.104V4.911L28.512,4.911z"/>
</svg>
