<?xml version="1.0" encoding="utf-8"?>
<!-- Generator: Adobe Illustrator 16.0.0, SVG Export Plug-In . SVG Version: 6.00 Build 0)  -->
<!DOCTYPE svg PUBLIC "-//W3C//DTD SVG 1.1//EN" "http://www.w3.org/Graphics/SVG/1.1/DTD/svg11.dtd">
<svg version="1.1" id="Capa_1" xmlns="http://www.w3.org/2000/svg" xmlns:xlink="http://www.w3.org/1999/xlink" x="0px" y="0px"
	 width="16px" height="16px" viewBox="0 0 16 16" enable-background="new 0 0 16 16" xml:space="preserve">
<g>
	<g>
		<path fill="#FFFFFF" d="M8,0C3.589,0,0,3.589,0,8s3.589,8,8,8s8-3.589,8-8S12.411,0,8,0z M13.664,3.903
			c-0.862,0.342-1.748,0.613-2.657,0.791c-0.386-1.271-0.999-2.488-1.841-3.589C11.01,1.417,12.608,2.448,13.664,3.903z
			 M10.264,10.18c-1.502-0.206-3.027-0.206-4.529,0C5.427,8.746,5.426,7.262,5.733,5.827C6.479,5.929,7.233,6,8,6
			s1.52-0.071,2.266-0.173C10.573,7.262,10.572,8.746,10.264,10.18z M10.005,4.849c-1.331,0.172-2.68,0.172-4.011,0
			C6.404,3.563,7.074,2.344,8,1.264C8.926,2.344,9.595,3.563,10.005,4.849z M6.832,1.105C5.99,2.206,5.378,3.423,4.992,4.694
			C4.084,4.516,3.198,4.245,2.336,3.903C3.391,2.448,4.989,1.417,6.832,1.105z M1,8c0-1.166,0.291-2.264,0.797-3.232
			C2.753,5.161,3.734,5.47,4.743,5.673C4.422,7.21,4.422,8.797,4.744,10.335c-1.008,0.201-1.993,0.508-2.947,0.9
			C1.291,10.265,1,9.167,1,8z M2.336,12.097c0.862-0.342,1.748-0.613,2.656-0.791c0.386,1.271,0.999,2.488,1.841,3.589
			C4.989,14.583,3.391,13.552,2.336,12.097z M5.995,11.151c1.33-0.172,2.679-0.172,4.01,0c-0.41,1.286-1.08,2.505-2.005,3.585
			C7.074,13.656,6.405,12.437,5.995,11.151z M9.166,14.895c0.842-1.101,1.455-2.318,1.841-3.589c0.908,0.178,1.795,0.45,2.657,0.791
			C12.608,13.552,11.01,14.583,9.166,14.895z M11.255,10.333c0.322-1.537,0.323-3.124,0.001-4.661
			c1.009-0.203,1.991-0.511,2.947-0.905C14.709,5.736,15,6.834,15,8c0,1.167-0.291,2.265-0.797,3.233
			C13.249,10.842,12.264,10.535,11.255,10.333z"/>
	</g>
</g>
</svg>
