<?xml version="1.0" encoding="utf-8"?>
<!-- Generator: Adobe Illustrator 16.0.0, SVG Export Plug-In . SVG Version: 6.00 Build 0)  -->
<!DOCTYPE svg PUBLIC "-//W3C//DTD SVG 1.1//EN" "http://www.w3.org/Graphics/SVG/1.1/DTD/svg11.dtd">
<svg version="1.1" id="Capa_1" xmlns="http://www.w3.org/2000/svg" xmlns:xlink="http://www.w3.org/1999/xlink" x="0px" y="0px"
	 width="20px" height="25px" viewBox="0 0 20 25" enable-background="new 0 0 20 25" xml:space="preserve">
<g>
	<g>
		<path fill="#FFFFFF" d="M1.184,14.654v3.813c0,0.661,3.942,1.197,8.804,1.197c4.862,0,8.804-0.536,8.804-1.197v-3.808
			C19.481,14.518,20,13.908,20,13.176V9.173c0-0.811-0.637-1.472-1.437-1.512c-0.906-3.897-4.401-6.802-8.575-6.802l0,0
			c-4.174,0-7.669,2.905-8.575,6.803C0.624,7.715,0,8.371,0,9.173v4.003C0,13.899,0.507,14.503,1.184,14.654z M3.097,10.059
			c0-1.751,1.42-3.171,3.171-3.171h7.463c1.751,0,3.171,1.42,3.171,3.171v1.927c-0.621,0.688-1.242,1.375-1.863,2.062h-2.946
			c-0.189-0.279-0.51-0.463-0.873-0.463c-0.582,0-1.053,0.472-1.053,1.053c0,0.582,0.472,1.054,1.053,1.054
			c0.315,0,0.598-0.139,0.791-0.358h3.261c0.331,0,0.421-0.112,0.583-0.274l1.045-1.157c-0.036,1.72-1.441,3.103-3.17,3.103H6.269
			c-1.751,0-3.171-1.419-3.171-3.171V10.059L3.097,10.059z"/>
		<path fill="#FFFFFF" d="M19.39,19.643c-1.202,0.552-4.956,0.954-9.402,0.954c-4.445,0-8.2-0.402-9.401-0.954
			c-0.188-0.086-0.403,0.054-0.403,0.261v2.904c0,0.736,4.39,1.333,9.804,1.333c5.415,0,9.804-0.597,9.804-1.333v-2.904
			C19.792,19.696,19.578,19.557,19.39,19.643z"/>
	</g>
</g>
</svg>
