<?xml version="1.0" encoding="utf-8"?>
<!-- Generator: Adobe Illustrator 22.1.0, SVG Export Plug-In . SVG Version: 6.00 Build 0)  -->
<svg version="1.1" id="Capa_1" xmlns="http://www.w3.org/2000/svg" xmlns:xlink="http://www.w3.org/1999/xlink" x="0px" y="0px"
	 width="17" height="17" viewBox="0 0 22 22" style="enable-background:new 0 0 22 22;" xml:space="preserve">
<style type="text/css">
	.st0{fill:#FFFFFF;}
</style>
<g id="surface1">
	<path class="st0" d="M12.8,0.2c-3.1,0-5.7,2.5-5.7,5.7v1.9H5.2c-0.8,0-1.4,0.6-1.4,1.4v11.4c0,0.8,0.6,1.4,1.4,1.4h15.2
		c0.8,0,1.4-0.6,1.4-1.4V9.2c0-0.8-0.6-1.4-1.4-1.4h-1.9V5.9C18.5,2.8,15.9,0.2,12.8,0.2z M12.8,1.2c2.6,0,4.7,2.1,4.7,4.7v1.9H8
		V5.9C8,3.3,10.1,1.2,12.8,1.2z M5.2,8.7h15.2c0.3,0,0.5,0.2,0.5,0.5v11.4c0,0.3-0.2,0.5-0.5,0.5H5.2c-0.3,0-0.5-0.2-0.5-0.5V9.2
		C4.7,8.9,4.9,8.7,5.2,8.7z M12.8,11.1c-1.3,0-2.4,1.1-2.4,2.4h0.9c0-0.8,0.6-1.4,1.4-1.4s1.4,0.6,1.4,1.4c0,0.4-0.1,0.6-0.2,0.8
		c-0.1,0.2-0.3,0.3-0.5,0.4c-0.2,0.1-0.4,0.2-0.7,0.4c-0.2,0.2-0.5,0.5-0.5,0.8v0.9h0.9v-0.9c0,0,0,0,0.1-0.1
		c0.1-0.1,0.4-0.2,0.6-0.3c0.3-0.1,0.6-0.3,0.8-0.7s0.4-0.8,0.4-1.3C15.2,12.2,14.1,11.1,12.8,11.1z M12.3,17.3v0.9h0.9v-0.9H12.3z"
		/>
</g>
</svg>
