<?xml version="1.0" encoding="utf-8"?>
<!-- Generator: Adobe Illustrator 16.0.0, SVG Export Plug-In . SVG Version: 6.00 Build 0)  -->
<!DOCTYPE svg PUBLIC "-//W3C//DTD SVG 1.1//EN" "http://www.w3.org/Graphics/SVG/1.1/DTD/svg11.dtd">
<svg version="1.1" id="Capa_1" xmlns="http://www.w3.org/2000/svg" xmlns:xlink="http://www.w3.org/1999/xlink" x="0px" y="0px"
	 width="12px" height="22px" viewBox="0 0 12 22" enable-background="new 0 0 12 22" xml:space="preserve">
<g>
	<g>
		<path fill="#FFFFFF" d="M6.96,19.989c-0.117-0.007-0.234-0.021-0.351-0.045l-0.347-0.186c-1.717-0.775-1.392-1.902-0.978-3.342
			c0.097-0.333,0.196-0.682,0.264-1.034c0.339-2.263,0.461-4.68-0.544-6.026c-0.799-1.07-2.713-1.05-2.825-2.486
			C2.125,6.166,2.308,5.594,2.723,5.171C3.696,4.182,5.751,4.149,6.89,4.219c0.945,0.057,1.029,0.164,1.454,0.276
			c4.435,1.155,1.824,3.229,1.446,8.564C9.621,15.46,11.483,20.263,6.96,19.989z"/>
		<g>
			<path fill="#FFFFFF" d="M2.024,0C1.881,0,1.741,0.024,1.61,0.071C1.186,0.22,0.875,0.584,0.732,1.092
				c-0.129,0.466-0.1,1.005,0.082,1.521c0.327,0.924,1.052,1.545,1.803,1.545c0.143,0,0.282-0.023,0.415-0.071
				c0.41-0.145,0.717-0.495,0.863-0.985c0.145-0.474,0.12-1.025-0.068-1.556C3.5,0.622,2.775,0,2.024,0z"/>
			<path fill="#FFFFFF" d="M5.021,0.702c-0.511,0.119-0.79,0.732-0.636,1.398c0.129,0.572,0.569,1.002,1.021,1.002
				c0.056,0,0.113-0.006,0.159-0.018c0.202-0.046,0.38-0.177,0.501-0.369C6.239,2.439,6.29,2.063,6.203,1.685
				C6.053,1.036,5.561,0.599,5.021,0.702z"/>
			<path fill="#FFFFFF" d="M7.384,0.989c-0.451,0.001-0.813,0.43-0.847,0.996C6.52,2.256,6.583,2.518,6.714,2.722
				c0.138,0.214,0.342,0.346,0.583,0.36h0.02c0.43,0,0.793-0.439,0.828-1.001c0.015-0.272-0.049-0.534-0.179-0.731
				C7.831,1.135,7.625,1.004,7.384,0.989z"/>
			<path fill="#FFFFFF" d="M9.912,2.246C9.819,2.01,9.642,1.841,9.425,1.785C8.978,1.669,8.526,2.036,8.381,2.59
				C8.299,2.905,8.333,3.225,8.474,3.465c0.1,0.171,0.251,0.292,0.427,0.338c0.051,0.013,0.105,0.02,0.158,0.02
				c0.383,0,0.765-0.355,0.887-0.825C10.013,2.735,10.001,2.469,9.912,2.246z"/>
			<path fill="#FFFFFF" d="M11.285,3.39c-0.076-0.193-0.222-0.332-0.393-0.379l-0.145-0.019c-0.317,0-0.623,0.283-0.723,0.671
				c-0.057,0.213-0.048,0.431,0.025,0.611c0.077,0.194,0.223,0.333,0.414,0.384l0.122,0.014c0.321,0,0.627-0.283,0.727-0.671
				C11.367,3.787,11.358,3.574,11.285,3.39z"/>
		</g>
	</g>
</g>
</svg>
