<?xml version="1.0" encoding="utf-8"?>
<!-- Generator: Adobe Illustrator 16.0.0, SVG Export Plug-In . SVG Version: 6.00 Build 0)  -->
<!DOCTYPE svg PUBLIC "-//W3C//DTD SVG 1.1//EN" "http://www.w3.org/Graphics/SVG/1.1/DTD/svg11.dtd">
<svg version="1.1" id="Capa_1" xmlns="http://www.w3.org/2000/svg" xmlns:xlink="http://www.w3.org/1999/xlink" x="0px" y="0px"
	 width="21px" height="21px" viewBox="0 0 21 21" enable-background="new 0 0 21 21" xml:space="preserve">
<g>
	<path fill="#FFFFFF" d="M19.884,18.984l-4.861-4.861c1.304-1.5,2.093-3.456,2.093-5.593c0-4.707-3.828-8.53-8.529-8.53
		c-4.707,0-8.53,3.828-8.53,8.53s3.828,8.529,8.53,8.529c2.138,0,4.094-0.79,5.593-2.093l4.861,4.861
		c0.115,0.115,0.271,0.177,0.421,0.177s0.306-0.058,0.421-0.177C20.115,19.596,20.115,19.215,19.884,18.984z M1.25,8.53
		c0-4.045,3.291-7.332,7.332-7.332c4.045,0,7.332,3.291,7.332,7.332c0,4.041-3.287,7.336-7.332,7.336
		C4.541,15.866,1.25,12.575,1.25,8.53z"/>
</g>
</svg>
