<?xml version="1.0" encoding="utf-8"?>
<!-- Generator: Adobe Illustrator 16.0.0, SVG Export Plug-In . SVG Version: 6.00 Build 0)  -->
<!DOCTYPE svg PUBLIC "-//W3C//DTD SVG 1.1//EN" "http://www.w3.org/Graphics/SVG/1.1/DTD/svg11.dtd">
<svg version="1.1" id="Capa_1" xmlns="http://www.w3.org/2000/svg" xmlns:xlink="http://www.w3.org/1999/xlink" x="0px" y="0px"
	 width="22px" height="22px" viewBox="0 0 22 22" enable-background="new 0 0 22 22" xml:space="preserve">
<g>
	<g>
		<path fill="#FFFFFF" d="M21.122,6.853c-1.16-2.704-3.131-4.671-5.858-5.834c-1.363-0.581-2.791-0.878-4.282-0.878
			c-1.491,0-2.909,0.294-4.27,0.878c-2.704,1.16-4.684,3.125-5.846,5.834C0.284,8.209,0,9.631,0,11.123s0.284,2.925,0.866,4.282
			c1.162,2.708,3.142,4.686,5.846,5.846c1.361,0.584,2.778,0.878,4.27,0.878c1.491,0,2.919-0.297,4.282-0.878
			c2.727-1.163,4.698-3.142,5.858-5.846C21.706,14.043,22,12.614,22,11.123S21.706,8.214,21.122,6.853z M19.366,15.982
			c-0.863,1.48-2.046,2.655-3.536,3.524c-1.481,0.864-3.104,1.299-4.848,1.299c-1.311,0-2.562-0.252-3.753-0.77
			c-1.191-0.517-2.219-1.197-3.079-2.057c-0.86-0.86-1.545-1.898-2.057-3.091c-0.511-1.189-0.758-2.454-0.758-3.765
			c0-1.744,0.429-3.358,1.287-4.835c0.862-1.482,2.045-2.658,3.524-3.524c1.479-0.866,3.091-1.299,4.835-1.299
			s3.366,0.436,4.847,1.299c1.49,0.869,2.67,2.045,3.537,3.524s1.299,3.091,1.299,4.835S20.235,14.492,19.366,15.982z"/>
		<path fill="#FFFFFF" d="M11.68,11.026V4.795c0-0.373-0.325-0.673-0.698-0.673c-0.349,0-0.662,0.301-0.662,0.673v6.327
			c0,0.012,0.024,0.06,0.024,0.096c-0.024,0.217,0.037,0.397,0.181,0.542l3.597,3.596c0.241,0.241,0.686,0.241,0.926,0
			c0.276-0.276,0.258-0.678,0-0.938L11.68,11.026z"/>
	</g>
</g>
</svg>
