<?xml version="1.0" encoding="utf-8"?>
<!-- Generator: Adobe Illustrator 16.0.0, SVG Export Plug-In . SVG Version: 6.00 Build 0)  -->
<!DOCTYPE svg PUBLIC "-//W3C//DTD SVG 1.1//EN" "http://www.w3.org/Graphics/SVG/1.1/DTD/svg11.dtd">
<svg version="1.1" id="Capa_1" xmlns="http://www.w3.org/2000/svg" xmlns:xlink="http://www.w3.org/1999/xlink" x="0px" y="0px"
	 width="20px" height="17px" viewBox="0 0 20 17" enable-background="new 0 0 20 17" xml:space="preserve">
<g>
	<path fill="#FFFFFF" d="M19.694,8.806H0.307C0.137,8.806,0,8.668,0,8.5s0.137-0.307,0.307-0.307h19.387
		C19.863,8.193,20,8.331,20,8.5S19.863,8.806,19.694,8.806z"/>
	<path fill="#FFFFFF" d="M12.01,16.488c-0.078,0-0.157-0.03-0.217-0.089c-0.12-0.12-0.12-0.313,0-0.433l7.467-7.467l-7.467-7.464
		c-0.12-0.12-0.12-0.314,0-0.434c0.12-0.119,0.314-0.119,0.433,0l7.683,7.681C19.968,8.339,20,8.417,20,8.499
		s-0.033,0.159-0.09,0.217l-7.683,7.683C12.168,16.458,12.089,16.488,12.01,16.488z"/>
</g>
</svg>
