<?xml version="1.0" encoding="utf-8"?>
<!-- Generator: Adobe Illustrator 16.0.0, SVG Export Plug-In . SVG Version: 6.00 Build 0)  -->
<!DOCTYPE svg PUBLIC "-//W3C//DTD SVG 1.1//EN" "http://www.w3.org/Graphics/SVG/1.1/DTD/svg11.dtd">
<svg version="1.1" id="Capa_1" xmlns="http://www.w3.org/2000/svg" xmlns:xlink="http://www.w3.org/1999/xlink" x="0px" y="0px"
	 width="25px" height="25px" viewBox="0 0 25 25" enable-background="new 0 0 25 25" xml:space="preserve">
<g>
	<g>
		<path fill="#3183a2" d="M25,12.5C25,5.597,19.404,0,12.5,0S0,5.597,0,12.5S5.597,25,12.5,25S25,19.403,25,12.5z M1.136,12.5
			c0-6.276,5.087-11.364,11.364-11.364S23.864,6.224,23.864,12.5S18.777,23.864,12.5,23.864S1.136,18.776,1.136,12.5z"/>
		<path fill="#3183a2" d="M12.98,19.715V12.5h2.381l0.376-2.391H12.98V8.91c0-0.624,0.205-1.219,1.1-1.219h1.79V5.305h-2.541
			c-2.136,0-2.719,1.407-2.719,3.357v1.446H9.143V12.5h1.466v7.215H12.98L12.98,19.715z"/>
	</g>
</g>
</svg>
