<?xml version="1.0" encoding="utf-8"?>
<!-- Generator: Adobe Illustrator 16.0.0, SVG Export Plug-In . SVG Version: 6.00 Build 0)  -->
<!DOCTYPE svg PUBLIC "-//W3C//DTD SVG 1.1//EN" "http://www.w3.org/Graphics/SVG/1.1/DTD/svg11.dtd">
<svg version="1.1" id="Layer_1" xmlns="http://www.w3.org/2000/svg" xmlns:xlink="http://www.w3.org/1999/xlink" x="0px" y="0px"
	 width="25px" height="25px" viewBox="0 0 25 25" enable-background="new 0 0 25 25" xml:space="preserve">
<g>
	<g>
		<g>
			<path fill="#3183a2" d="M15.948,5H9.053C6.819,5,5,6.818,5,9.053v6.895C5,18.182,6.819,20,9.053,20h6.895
				C18.182,20,20,18.182,20,15.947V9.053C20,6.818,18.182,5,15.948,5z M18.788,15.947c0,1.566-1.274,2.841-2.841,2.841H9.053
				c-1.566,0-2.841-1.274-2.841-2.841V9.053c0-1.566,1.274-2.841,2.841-2.841h6.895c1.566,0,2.841,1.274,2.841,2.841V15.947z"/>
		</g>
	</g>
	<g>
		<g>
			<path fill="#3183a2" d="M15.857,11.977c-0.106-0.719-0.435-1.371-0.949-1.885s-1.166-0.842-1.885-0.949
				c-0.328-0.048-0.66-0.048-0.987,0c-0.889,0.132-1.673,0.602-2.208,1.323s-0.757,1.608-0.625,2.498
				c0.132,0.889,0.602,1.673,1.324,2.208c0.585,0.435,1.28,0.663,1.996,0.663c0.166,0,0.333-0.012,0.501-0.037
				c0.888-0.132,1.673-0.602,2.208-1.324C15.767,13.752,15.989,12.865,15.857,11.977z M12.845,14.599
				c-0.568,0.084-1.135-0.058-1.597-0.4c-0.461-0.342-0.762-0.844-0.847-1.413c-0.084-0.568,0.058-1.136,0.4-1.597
				c0.342-0.462,0.844-0.762,1.413-0.847c0.104-0.016,0.21-0.023,0.315-0.023s0.211,0.008,0.315,0.023
				c0.945,0.14,1.673,0.868,1.813,1.813C14.833,13.328,14.019,14.424,12.845,14.599z"/>
		</g>
	</g>
	<g>
		<g>
			<path fill="#3183a2" d="M16.72,8.28c-0.113-0.113-0.269-0.178-0.428-0.178c-0.16,0-0.316,0.065-0.429,0.178
				s-0.178,0.269-0.178,0.428c0,0.16,0.065,0.316,0.178,0.429s0.269,0.178,0.429,0.178c0.159,0,0.315-0.065,0.428-0.178
				s0.178-0.269,0.178-0.429C16.898,8.549,16.833,8.393,16.72,8.28z"/>
		</g>
	</g>
</g>
<path fill="#3183a2" d="M25,12.5C25,5.597,19.404,0,12.5,0S0,5.597,0,12.5S5.597,25,12.5,25S25,19.403,25,12.5z M1.136,12.5
	c0-6.276,5.087-11.364,11.364-11.364S23.864,6.224,23.864,12.5S18.777,23.864,12.5,23.864S1.136,18.776,1.136,12.5z"/>
</svg>
