<?xml version="1.0" encoding="utf-8"?>
<!-- Generator: Adobe Illustrator 15.1.0, SVG Export Plug-In . SVG Version: 6.00 Build 0)  -->
<!DOCTYPE svg PUBLIC "-//W3C//DTD SVG 1.1//EN" "http://www.w3.org/Graphics/SVG/1.1/DTD/svg11.dtd">
<svg version="1.1" id="Capa_1" xmlns="http://www.w3.org/2000/svg" xmlns:xlink="http://www.w3.org/1999/xlink" x="0px" y="0px"
	 width="17px" height="37px" viewBox="0 0 17 37" enable-background="new 0 0 17 37" xml:space="preserve">
<g>
	<path fill="#FFFFFF" d="M16.437,27.561c-0.111-0.264-0.313-0.396-0.604-0.396h-4.666V1.169c0-0.194-0.063-0.354-0.188-0.479
		c-0.125-0.125-0.284-0.188-0.479-0.188H6.5c-0.195,0-0.354,0.063-0.479,0.188C5.896,0.815,5.833,0.975,5.833,1.169v25.996H1.167
		c-0.278,0-0.479,0.132-0.604,0.396c-0.111,0.264-0.076,0.507,0.104,0.729l7.395,7.998c0.139,0.139,0.305,0.208,0.5,0.208
		c0.181,0,0.34-0.069,0.479-0.208l7.291-7.998C16.513,28.069,16.548,27.825,16.437,27.561z"/>
</g>
</svg>
