<?xml version="1.0" encoding="utf-8"?>
<!-- Generator: Adobe Illustrator 16.0.0, SVG Export Plug-In . SVG Version: 6.00 Build 0)  -->
<!DOCTYPE svg PUBLIC "-//W3C//DTD SVG 1.1//EN" "http://www.w3.org/Graphics/SVG/1.1/DTD/svg11.dtd">
<svg version="1.1" id="Capa_1" xmlns="http://www.w3.org/2000/svg" xmlns:xlink="http://www.w3.org/1999/xlink" x="0px" y="0px"
	 width="22px" height="13px" viewBox="0 0 22 13" enable-background="new 0 0 22 13" xml:space="preserve">
<path fill="#FFFFFF" d="M1.408,12.822h18.398c0.548,0,0.801-0.4,0.801-0.801c-0.021-0.569-0.421-0.864-0.927-0.864h-0.274
	c-0.485-0.063-0.717-0.274-0.801-0.527c-0.042-0.168-0.042-0.358,0.021-0.527c0.063-0.168,0.168-0.316,0.316-0.421
	c0.19-0.126,0.421-0.147,0.696,0.021c0.042,0.021,0.084,0.042,0.126,0.042c0.127,0,0.211-0.105,0.211-0.231
	c0-0.506-0.189-0.906-0.442-1.18c-0.169-0.169-0.358-0.295-0.569-0.358c-0.21-0.084-0.442-0.105-0.674-0.105
	c-0.611,0.021-1.307,0.295-1.875,0.843c-0.19,0.19-0.421,0.443-0.653,0.738c-0.611,0.738-1.391,1.644-2.023,1.728h-0.421
	c-0.485-0.063-0.716-0.274-0.801-0.527c-0.042-0.168-0.042-0.358,0.021-0.527c0.063-0.168,0.169-0.316,0.316-0.421
	c0.189-0.126,0.421-0.147,0.695,0.021c0.042,0.021,0.084,0.042,0.126,0.042c0.126,0,0.211-0.105,0.211-0.232
	c0-0.506-0.19-0.906-0.443-1.18c-0.168-0.169-0.358-0.295-0.569-0.358C12.662,7.911,12.43,7.89,12.198,7.89
	c-0.611,0.021-1.307,0.295-1.876,0.843c-0.189,0.189-0.421,0.442-0.653,0.737c-0.611,0.738-1.391,1.644-2.023,1.728H7.225
	c-0.485-0.063-0.717-0.274-0.801-0.527c-0.042-0.168-0.042-0.358,0.021-0.527c0.063-0.168,0.168-0.337,0.316-0.421
	C6.95,9.597,7.182,9.576,7.456,9.745c0.042,0.021,0.084,0.042,0.126,0.042c0.126,0,0.211-0.105,0.211-0.232
	c0-0.506-0.19-0.906-0.442-1.18C7.203,8.207,7.014,8.08,6.803,8.017c-0.21-0.084-0.442-0.105-0.674-0.105
	C5.518,7.932,4.822,8.207,4.253,8.754C4.063,8.944,3.832,9.197,3.6,9.492c-0.611,0.738-1.391,1.644-2.023,1.729H1.408
	c-0.211,0-0.421,0.084-0.569,0.231c-0.147,0.148-0.232,0.337-0.232,0.569c0,0.21,0.084,0.421,0.232,0.569S1.176,12.822,1.408,12.822
	z"/>
<g>
	<g>
		<path fill="#FFFFFF" d="M21.275,2.37l-2.247-2.247c-0.044-0.044-0.088-0.068-0.135-0.088c-0.088-0.047-0.223-0.047-0.314,0
			c-0.044,0.021-0.088,0.044-0.135,0.088L16.197,2.37c-0.156,0.158-0.156,0.428,0,0.584c0.091,0.091,0.182,0.114,0.293,0.114
			c0.112,0,0.203-0.047,0.291-0.114l1.551-1.549v4.515c0,0.249,0.179,0.428,0.405,0.428c0.223,0,0.405-0.179,0.405-0.405V1.405
			l1.549,1.549c0.091,0.091,0.182,0.114,0.293,0.114c0.112,0,0.203-0.047,0.291-0.114C21.433,2.798,21.433,2.528,21.275,2.37z"/>
	</g>
</g>
</svg>
