<?xml version="1.0" encoding="utf-8"?>
<!-- Generator: Adobe Illustrator 16.0.0, SVG Export Plug-In . SVG Version: 6.00 Build 0)  -->
<!DOCTYPE svg PUBLIC "-//W3C//DTD SVG 1.1//EN" "http://www.w3.org/Graphics/SVG/1.1/DTD/svg11.dtd">
<svg version="1.1" id="Capa_1" xmlns="http://www.w3.org/2000/svg" xmlns:xlink="http://www.w3.org/1999/xlink" x="0px" y="0px"
	 width="40px" height="27px" viewBox="0 0 40 27" enable-background="new 0 0 40 27" xml:space="preserve">
<g>
	<g>
		<g>
			<path fill="#FFFFFF" d="M19.854,11.654c-0.4,0-0.728,0.327-0.728,0.728c0,0.404,0.327,0.728,0.728,0.728
				c0.404,0,0.731-0.324,0.731-0.728C20.585,11.981,20.258,11.654,19.854,11.654z"/>
		</g>
	</g>
	<g>
		<g>
			<path fill="#FFFFFF" d="M38.322,21.243c-0.333-0.22-0.788-0.132-1.011,0.204c-0.188,0.283-0.546,0.453-0.957,0.453
				c-0.414,0-0.772-0.17-0.96-0.453c-0.461-0.693-1.274-1.104-2.173-1.104c-0.899,0-1.712,0.412-2.173,1.104
				c-0.19,0.29-0.502,0.453-0.849,0.453c-0.35,0-0.658-0.164-0.852-0.453c-0.461-0.693-1.23-1.104-2.062-1.104
				c-0.042,0-0.087,0.001-0.129,0.003c0.554-1.102,0.856-2.334,0.856-3.593c0-4.417-3.595-8.013-8.013-8.013
				s-8.009,3.596-8.009,8.013c0,1.702,0.546,3.357,1.549,4.732c-0.192,0.265-0.49,0.416-0.821,0.416
				c-0.35,0-0.658-0.164-0.853-0.453c-0.461-0.693-1.23-1.104-2.061-1.104s-1.604,0.412-2.064,1.104
				C7.552,21.73,7.193,21.9,6.783,21.9c-0.414,0-0.772-0.17-0.961-0.453c-0.461-0.693-1.274-1.104-2.173-1.104
				c-0.898,0-1.712,0.412-2.173,1.104c-0.223,0.333-0.132,0.785,0.205,1.008c0.333,0.224,0.785,0.132,1.008-0.201
				c0.192-0.286,0.55-0.457,0.96-0.457c0.411,0,0.769,0.171,0.961,0.457c0.46,0.689,1.271,1.104,2.173,1.104
				c0.898,0,1.708-0.415,2.169-1.104c0.194-0.29,0.502-0.457,0.852-0.457c0.347,0,0.658,0.167,0.849,0.457
				c0.461,0.689,1.234,1.104,2.065,1.104c0.831,0,1.6-0.415,2.061-1.104c0.233-0.345,0.617-0.498,0.989-0.447
				c0.296,0.039,0.548,0.198,0.712,0.447c0.461,0.689,1.233,1.104,2.064,1.104s1.601-0.415,2.061-1.104
				c0.194-0.29,0.502-0.457,0.853-0.457c0.346,0,0.658,0.167,0.849,0.457c0.436,0.656,1.132,1.053,1.913,1.097
				c0.019,0.001,0.035,0.001,0.051,0.005c0.001,0,0.006,0,0.007,0c0,0,0.001,0,0.001,0c0.006,0,0.016,0.001,0.025,0.001
				c0.006,0,0.015,0,0.021,0c0.853,0.015,1.635-0.394,2.107-1.104c0.194-0.29,0.502-0.457,0.852-0.457
				c0.347,0,0.658,0.167,0.849,0.457c0.461,0.689,1.234,1.104,2.064,1.104c0.831,0,1.601-0.415,2.061-1.104
				c0.192-0.287,0.55-0.457,0.961-0.457c0.41,0,0.769,0.17,0.96,0.457c0.461,0.689,1.271,1.104,2.173,1.104
				c0.898,0,1.708-0.415,2.169-1.104C38.747,21.921,38.656,21.466,38.322,21.243z M24.1,21.867c-0.236-0.064-0.439-0.209-0.581-0.42
				c-0.461-0.693-1.23-1.104-2.061-1.104s-1.604,0.412-2.064,1.104c-0.191,0.29-0.502,0.453-0.849,0.453
				c-0.35,0-0.658-0.164-0.852-0.453c-0.396-0.594-1.028-0.988-1.731-1.082c-0.449-0.062-0.898,0.003-1.305,0.175
				c-0.786-1.107-1.21-2.43-1.21-3.788c0-3.614,2.94-6.558,6.554-6.558s6.558,2.944,6.558,6.558
				C26.558,18.735,25.642,20.627,24.1,21.867z"/>
		</g>
	</g>
	<g>
		<g>
			<path fill="#FFFFFF" d="M38.322,24.887c-0.333-0.223-0.788-0.132-1.011,0.201c-0.188,0.286-0.546,0.453-0.957,0.453
				c-0.414,0-0.772-0.167-0.96-0.453c-0.461-0.69-1.274-1.105-2.173-1.105c-0.899,0-1.712,0.415-2.173,1.105
				c-0.19,0.29-0.502,0.453-0.849,0.453c-0.35,0-0.658-0.164-0.852-0.453c-0.461-0.69-1.23-1.105-2.062-1.105
				c-0.831,0-1.604,0.415-2.064,1.105c-0.19,0.29-0.502,0.453-0.849,0.453c-0.35,0-0.658-0.164-0.853-0.453
				c-0.461-0.69-1.23-1.105-2.061-1.105s-1.604,0.415-2.064,1.105c-0.191,0.29-0.502,0.453-0.849,0.453
				c-0.35,0-0.658-0.164-0.852-0.453c-0.461-0.69-1.23-1.105-2.062-1.105c-0.831,0-1.604,0.415-2.064,1.105
				c-0.19,0.29-0.502,0.453-0.849,0.453c-0.35,0-0.658-0.164-0.853-0.453c-0.461-0.69-1.23-1.105-2.061-1.105
				s-1.604,0.415-2.064,1.105c-0.188,0.286-0.547,0.453-0.957,0.453c-0.414,0-0.772-0.167-0.961-0.453
				c-0.461-0.69-1.274-1.105-2.173-1.105c-0.898,0-1.712,0.415-2.173,1.105c-0.223,0.333-0.132,0.788,0.205,1.011
				c0.333,0.224,0.785,0.132,1.008-0.205c0.192-0.283,0.55-0.453,0.96-0.453c0.411,0,0.769,0.17,0.961,0.453
				C5.071,26.588,5.881,27,6.783,27c0.898,0,1.708-0.412,2.169-1.105c0.194-0.289,0.502-0.453,0.852-0.453
				c0.347,0,0.658,0.164,0.849,0.453C11.114,26.588,11.887,27,12.718,27c0.831,0,1.6-0.412,2.061-1.105
				c0.194-0.289,0.502-0.453,0.852-0.453c0.347,0,0.658,0.164,0.849,0.453C16.941,26.588,17.714,27,18.545,27
				c0.831,0,1.601-0.412,2.061-1.105c0.194-0.289,0.502-0.453,0.853-0.453c0.347,0,0.658,0.164,0.849,0.453
				C22.768,26.588,23.541,27,24.372,27c0.831,0,1.6-0.412,2.061-1.105c0.194-0.289,0.502-0.453,0.852-0.453
				c0.347,0,0.658,0.164,0.849,0.453C28.595,26.588,29.368,27,30.199,27s1.601-0.412,2.061-1.105
				c0.192-0.283,0.55-0.453,0.961-0.453c0.41,0,0.769,0.17,0.96,0.453C34.642,26.588,35.452,27,36.354,27
				c0.898,0,1.708-0.412,2.169-1.105C38.747,25.562,38.656,25.11,38.322,24.887z"/>
		</g>
	</g>
	<g>
		<g>
			<path fill="#FFFFFF" d="M23.07,12.684c-0.319-0.241-0.777-0.177-1.019,0.143c-0.245,0.32-0.181,0.778,0.143,1.019
				c0.918,0.697,1.45,1.755,1.45,2.908c0,0.401,0.323,0.728,0.728,0.728c0.4,0,0.728-0.327,0.728-0.728
				C25.1,15.139,24.36,13.658,23.07,12.684z"/>
		</g>
	</g>
	<g>
		<g>
			<path fill="#FFFFFF" d="M20,0c-0.4,0-0.728,0.327-0.728,0.728V5.1c0,0.4,0.327,0.727,0.728,0.727
				c0.404,0,0.731-0.327,0.731-0.727V0.728C20.731,0.327,20.404,0,20,0z"/>
		</g>
	</g>
	<g>
		<g>
			<path fill="#FFFFFF" d="M8.346,16.022H3.978c-0.404,0-0.728,0.327-0.728,0.73c0,0.401,0.323,0.728,0.728,0.728h4.368
				c0.404,0,0.731-0.327,0.731-0.728C9.077,16.349,8.75,16.022,8.346,16.022z"/>
		</g>
	</g>
	<g>
		<g>
			<path fill="#FFFFFF" d="M36.026,16.022h-4.372c-0.4,0-0.728,0.327-0.728,0.73c0,0.401,0.327,0.728,0.728,0.728h4.372
				c0.4,0,0.727-0.327,0.727-0.728C36.753,16.349,36.426,16.022,36.026,16.022z"/>
		</g>
	</g>
	<g>
		<g>
			<path fill="#FFFFFF" d="M34.51,8.375c-0.2-0.347-0.646-0.466-0.997-0.266l-3.785,2.186c-0.347,0.2-0.466,0.646-0.266,0.993
				c0.201,0.352,0.647,0.469,0.993,0.27l3.789-2.186C34.591,9.171,34.71,8.725,34.51,8.375z"/>
		</g>
	</g>
	<g>
		<g>
			<path fill="#FFFFFF" d="M28.378,2.243c-0.351-0.2-0.797-0.081-0.997,0.266l-2.186,3.788c-0.2,0.347-0.081,0.793,0.269,0.994
				c0.346,0.2,0.792,0.082,0.993-0.266l2.186-3.785C28.844,2.89,28.725,2.443,28.378,2.243z"/>
		</g>
	</g>
	<g>
		<g>
			<path fill="#FFFFFF" d="M14.805,6.297l-2.186-3.788c-0.2-0.347-0.646-0.466-0.994-0.266c-0.347,0.2-0.466,0.646-0.266,0.997
				l2.186,3.785c0.201,0.348,0.647,0.466,0.993,0.266C14.886,7.09,15.005,6.645,14.805,6.297z"/>
		</g>
	</g>
	<g>
		<g>
			<path fill="#FFFFFF" d="M10.272,10.295L6.487,8.109c-0.347-0.2-0.793-0.081-0.993,0.266c-0.2,0.35-0.081,0.796,0.266,0.997
				l3.785,2.186c0.349,0.2,0.792,0.082,0.997-0.27C10.741,10.941,10.622,10.495,10.272,10.295z"/>
		</g>
	</g>
</g>
</svg>
