<?xml version="1.0" encoding="utf-8"?>
<!-- Generator: Adobe Illustrator 16.0.0, SVG Export Plug-In . SVG Version: 6.00 Build 0)  -->
<!DOCTYPE svg PUBLIC "-//W3C//DTD SVG 1.1//EN" "http://www.w3.org/Graphics/SVG/1.1/DTD/svg11.dtd">
<svg version="1.1" id="Capa_1" xmlns="http://www.w3.org/2000/svg" xmlns:xlink="http://www.w3.org/1999/xlink" x="0px" y="0px"
	 width="22px" height="20px" viewBox="0 0 22 20" enable-background="new 0 0 22 20" xml:space="preserve">
<g>
	<g>
		<g>
			<path fill="#FFFFFF" d="M20.415,9.072c-0.584-0.646-0.97-1.072-0.97-2.026c0-0.955,0.386-1.381,0.971-2.027
				c0.477-0.527,1.017-1.124,1.333-2.036c0.215-0.621-0.114-1.299-0.735-1.514c-0.62-0.215-1.299,0.114-1.514,0.735
				c-0.157,0.454-0.462,0.791-0.849,1.218c-0.706,0.781-1.585,1.752-1.585,3.624c0,1.871,0.879,2.842,1.585,3.623
				c0.584,0.646,0.97,1.072,0.97,2.026s-0.386,1.38-0.97,2.026c-0.515,0.57-1.157,1.279-1.439,2.393
				c-0.161,0.637,0.224,1.285,0.861,1.446c0.098,0.025,0.196,0.037,0.293,0.037c0.532,0,1.017-0.359,1.153-0.898
				c0.137-0.541,0.473-0.912,0.897-1.381C21.121,15.537,22,14.565,22,12.695C22,10.825,21.121,9.853,20.415,9.072z"/>
		</g>
	</g>
	<g>
		<g>
			<path fill="#FFFFFF" d="M11.883,9.072c-0.584-0.646-0.97-1.072-0.97-2.026c0-0.954,0.386-1.38,0.97-2.026
				c0.477-0.527,1.018-1.124,1.333-2.037c0.215-0.622-0.115-1.299-0.736-1.514c-0.62-0.215-1.299,0.115-1.514,0.736
				c-0.157,0.453-0.462,0.791-0.848,1.217c-0.707,0.78-1.586,1.752-1.586,3.623c0,1.871,0.879,2.842,1.585,3.623
				c0.584,0.646,0.97,1.072,0.97,2.026s-0.386,1.38-0.97,2.026C9.602,15.291,8.961,16,8.678,17.114
				c-0.161,0.637,0.225,1.285,0.862,1.446c0.098,0.025,0.196,0.037,0.293,0.037c0.532,0,1.017-0.359,1.153-0.898
				c0.137-0.541,0.472-0.912,0.896-1.38c0.707-0.781,1.586-1.753,1.586-3.623C13.468,10.825,12.589,9.853,11.883,9.072z"/>
		</g>
	</g>
	<g>
		<g>
			<path fill="#FFFFFF" d="M3.351,9.072C2.767,8.426,2.381,8,2.381,7.046s0.386-1.38,0.97-2.026
				c0.477-0.527,1.018-1.124,1.333-2.037C4.899,2.362,4.57,1.684,3.948,1.469C3.327,1.254,2.649,1.584,2.434,2.206
				C2.278,2.659,1.972,2.996,1.586,3.423C0.88,4.203,0,5.175,0,7.046s0.879,2.843,1.586,3.623c0.584,0.646,0.971,1.072,0.971,2.026
				s-0.386,1.38-0.97,2.026C1.071,15.291,0.43,16,0.147,17.114c-0.161,0.637,0.224,1.285,0.861,1.446
				c0.098,0.025,0.197,0.037,0.293,0.037c0.532,0,1.017-0.359,1.153-0.898c0.137-0.541,0.473-0.912,0.897-1.381
				c0.707-0.781,1.586-1.752,1.586-3.623C4.937,10.824,4.058,9.853,3.351,9.072z"/>
		</g>
	</g>
</g>
</svg>
