<?xml version="1.0" encoding="utf-8"?>
<!-- Generator: Adobe Illustrator 16.0.0, SVG Export Plug-In . SVG Version: 6.00 Build 0)  -->
<!DOCTYPE svg PUBLIC "-//W3C//DTD SVG 1.1//EN" "http://www.w3.org/Graphics/SVG/1.1/DTD/svg11.dtd">
<svg version="1.1" id="Layer_1" xmlns="http://www.w3.org/2000/svg" xmlns:xlink="http://www.w3.org/1999/xlink" x="0px" y="0px"
	 width="20px" height="18px" viewBox="0 0 20 18" enable-background="new 0 0 20 18" xml:space="preserve">
<path fill="#FFFFFF" d="M19.41,7.967l-0.895-0.895v-0.53c0-0.082-0.032-0.159-0.091-0.217l-0.894-0.895v-0.53
	c0-0.125-0.075-0.236-0.191-0.284c-0.115-0.048-0.247-0.021-0.335,0.066l-0.567,0.569c-1.083,0.025-2.19,0.347-3.264,0.662
	c-0.925,0.27-1.8,0.526-2.496,0.526c-1.014,0-1.936-0.063-2.75-0.119c-0.65-0.045-1.265-0.086-1.806-0.086
	c-0.318,0-1.158,0.126-2.054,0.606C2.995,7.416,2.222,8.298,1.831,9.394c-0.158,0.444-0.401,0.791-0.638,1.127
	C0.871,10.98,0.537,11.456,0.5,12.107c-0.004,0.098,0.036,0.191,0.111,0.254c0.056,0.046,0.125,0.072,0.198,0.072
	c0.022,0,0.047-0.004,0.071-0.01c0.019-0.005,0.107-0.025,0.246-0.069l-0.292,1.688c-0.011,0.064-0.002,0.132,0.028,0.189
	l0.328,0.658c0.052,0.104,0.159,0.169,0.276,0.169h0.656c0.171,0,0.308-0.137,0.308-0.308c0-0.169-0.137-0.309-0.308-0.309H1.655
	L1.539,14.21c0.383-0.524,0.943-1.291,1.105-1.504c1.289-0.552,1.932-1.177,2.205-1.51c0.194,0.172,0.372,0.303,0.504,0.394
	L4.79,12.995c-0.05,0.125-0.013,0.265,0.088,0.352l1.97,1.642c0.055,0.046,0.126,0.07,0.197,0.07h0.656
	c0.17,0,0.308-0.137,0.308-0.308c0-0.169-0.138-0.309-0.308-0.309H7.157L6.206,13.65c0.01-0.696,0.318-1.097,0.677-1.558
	c0.215-0.277,0.446-0.575,0.605-0.952c0.327,0.048,0.725,0.07,1.138,0.07c0.323,0,0.653-0.014,0.966-0.041l-0.548,2.193
	c-0.006,0.025-0.009,0.05-0.009,0.074v1.313c0,0.171,0.138,0.308,0.309,0.308H10c0.169,0,0.307-0.137,0.307-0.308
	c0-0.169-0.137-0.309-0.307-0.309H9.651v-0.642c0.046-0.08,0.224-0.26,0.369-0.406c0.413-0.416,0.968-0.977,1.212-1.687
	c0.23-0.077,0.64-0.219,1.131-0.498c-0.013,0.024-0.023,0.05-0.037,0.074c-0.065,0.127-0.036,0.282,0.072,0.374l3.385,2.951
	l0.195,0.307c0.056,0.089,0.154,0.143,0.26,0.143h0.656c0.17,0,0.307-0.137,0.307-0.308c0-0.169-0.137-0.309-0.307-0.309h-0.487
	l-2.134-3.351c0.035-0.124,0.091-0.317,0.143-0.512c0.051-0.191,0.092-0.347,0.118-0.462c0.012-0.057,0.024-0.109,0.034-0.16
	c0.783-0.185,1.923-0.543,2.827-1.19c0.142,0.07,0.298,0.15,0.463,0.237c0.103,0.054,0.214,0.08,0.327,0.08
	c0.134,0,0.271-0.039,0.388-0.118l0.79-0.526c0.076-0.051,0.126-0.134,0.136-0.226C19.507,8.124,19.475,8.033,19.41,7.967
	 M2.331,12.168c-0.083,0.035-0.083,0.035-0.323,0.359c-0.104,0.142-0.24,0.327-0.377,0.514l0.165-0.948
	c0.696-0.319,1.626-0.902,2.187-1.884c0.121,0.189,0.262,0.375,0.424,0.554C4.22,11.004,3.644,11.622,2.331,12.168 M14.617,12.777
	l-1.641-1.431c0.08-0.188,0.17-0.448,0.169-0.67c0.201-0.161,0.409-0.347,0.615-0.56c0.038-0.006,0.09-0.014,0.146-0.023
	c-0.063,0.25-0.166,0.629-0.263,0.96c-0.026,0.086-0.011,0.176,0.035,0.25L14.617,12.777z M18.231,8.456
	c-0.025,0.019-0.06,0.02-0.086,0.004c-0.452-0.236-1.045-0.535-1.307-0.612c-0.164-0.047-0.335,0.046-0.383,0.208
	C16.408,8.22,16.5,8.391,16.663,8.439c0.021,0.006,0.046,0.014,0.073,0.026c-1.354,0.821-3.143,1.054-3.162,1.056
	c-0.073,0.009-0.14,0.043-0.187,0.096c-0.984,1.054-1.995,1.39-2.376,1.518c-0.056,0.019-0.101,0.033-0.138,0.048
	c-0.092,0.034-0.159,0.112-0.186,0.206c-0.134,0.496-0.498,0.939-0.84,1.302l0.433-1.737c0.162-0.204,0.645-0.885,0.682-1.769
	c0.009-0.171-0.122-0.313-0.293-0.322c-0.17-0.006-0.312,0.126-0.321,0.294c-0.027,0.644-0.367,1.169-0.514,1.366
	c-0.697,0.092-1.57,0.098-2.182,0.02c0.018-0.122,0.028-0.25,0.028-0.389c0-0.828-0.687-1.781-0.715-1.821
	c-0.1-0.136-0.293-0.168-0.43-0.068C6.398,8.364,6.368,8.556,6.468,8.694c0.167,0.229,0.598,0.937,0.598,1.46
	c0,0.7-0.31,1.098-0.669,1.56c-0.303,0.392-0.641,0.826-0.761,1.463l-0.191-0.16l0.573-1.435c0.057-0.143,0-0.306-0.133-0.382
	c-0.018-0.01-1.814-1.059-1.814-2.687c0-0.169-0.138-0.308-0.308-0.308c-0.17,0-0.307,0.137-0.307,0.308
	c0,0.336,0.062,0.671,0.18,0.998c-0.492,1.243-1.721,1.881-2.411,2.151c0.107-0.268,0.281-0.516,0.473-0.787
	c0.247-0.353,0.528-0.752,0.714-1.273c0.804-2.261,3.169-2.75,3.711-2.75c0.519,0,1.096,0.04,1.764,0.085
	c0.823,0.057,1.755,0.12,2.791,0.12c0.783,0,1.699-0.268,2.67-0.551c0.856-0.25,1.736-0.507,2.584-0.601
	c0.003,0.074,0.034,0.145,0.088,0.201c0.061,0.06,0.139,0.09,0.219,0.09c0.078,0,0.156-0.03,0.218-0.09l0.328-0.329l0.141-0.141
	c0,0.001,0.001,0.001,0.001,0.003c0.003,0.014,0.008,0.028,0.015,0.041c0.001,0.003,0.001,0.005,0.004,0.008
	c0.012,0.026,0.027,0.053,0.05,0.075c0.001,0.002,0.003,0.004,0.005,0.007c0.003,0.002,0.004,0.005,0.006,0.007l0.895,0.895V7.2
	c0,0.082,0.033,0.16,0.091,0.217l0.719,0.72L18.231,8.456z"/>
</svg>
