<?xml version="1.0" encoding="utf-8"?>
<!-- Generator: Adobe Illustrator 16.0.0, SVG Export Plug-In . SVG Version: 6.00 Build 0)  -->
<!DOCTYPE svg PUBLIC "-//W3C//DTD SVG 1.1//EN" "http://www.w3.org/Graphics/SVG/1.1/DTD/svg11.dtd">
<svg version="1.1" id="Layer_1" xmlns="http://www.w3.org/2000/svg" xmlns:xlink="http://www.w3.org/1999/xlink" x="0px" y="0px"
	 width="18px" height="18px" viewBox="0 0 18 18" enable-background="new 0 0 18 18" xml:space="preserve">
<g>
	<path fill="#FFFFFF" d="M14.23,3.81h-0.701v-1c0-0.063-0.053-0.116-0.113-0.116h-2.872c-0.063,0-0.114,0.054-0.114,0.116v1H9.729
		v-1c0-0.45,0.367-0.816,0.815-0.816h2.872c0.447,0,0.814,0.366,0.814,0.816V3.81z"/>
	<path fill="#FFFFFF" d="M13.623,2.365h-0.701v-1c0-0.085-0.029-0.134-0.035-0.142l-1.777,0.025c0.02,0.013,0.004,0.054,0.004,0.116
		v1h-0.7v-1c0-0.457,0.29-0.815,0.657-0.815h1.895c0.369,0,0.658,0.358,0.658,0.815V2.365z"/>
	<path fill="#FFFFFF" d="M14.738,16.549H9.221c-0.6,0-1.088-0.488-1.088-1.089h0.699c0,0.215,0.175,0.389,0.389,0.389h5.518
		c0.213,0,0.389-0.174,0.389-0.389V6.183l-1.359-2.067h-3.434L8.832,6.191V9.43H8.133V5.965l1.843-2.549h4.169l1.682,2.558v9.486
		C15.826,16.061,15.338,16.549,14.738,16.549"/>
	<rect x="8.481" y="7.044" fill="#FFFFFF" width="6.995" height="0.7"/>
	<path fill="#FFFFFF" d="M15.307,3.482h-1.426v-0.7h1.426c0.23,0,0.418-0.188,0.418-0.417s-0.188-0.417-0.418-0.417h-2.035v-0.7
		h2.035c0.617,0,1.117,0.501,1.117,1.117C16.424,2.98,15.924,3.482,15.307,3.482"/>
	<path fill="#FFFFFF" d="M5.053,16.551c-0.172,0-0.364-0.039-0.578-0.133c-0.952-0.415-1.782-1.512-2.218-2.932
		c-0.421-1.371-0.365-2.676,0.151-3.494c0.869-1.375,2.581-0.977,3.499-0.516c0.565-0.251,2.385-0.934,3.502,0.14
		c0.773,0.741,0.755,2.629,0.338,4.11c-0.427,1.519-1.193,2.505-2.102,2.704c-0.365,0.081-0.693-0.164-0.982-0.378
		c-0.118-0.086-0.314-0.232-0.388-0.24c0.011,0.011-0.08,0.104-0.14,0.166C5.924,16.194,5.581,16.551,5.053,16.551 M4.203,9.738
		c-0.45,0-0.902,0.15-1.203,0.628c-0.403,0.638-0.431,1.754-0.075,2.914c0.372,1.21,1.073,2.166,1.831,2.497
		c0.404,0.176,0.585,0.014,0.876-0.286c0.173-0.178,0.367-0.378,0.646-0.378c0.292,0,0.551,0.191,0.802,0.378
		c0.12,0.089,0.343,0.254,0.422,0.255c0.621-0.137,1.226-0.983,1.572-2.209c0.4-1.421,0.333-2.953-0.15-3.417
		c-0.932-0.896-2.847,0.05-2.867,0.059L5.89,10.266l-0.165-0.094C5.675,10.145,4.941,9.738,4.203,9.738"/>
	<path fill="#FFFFFF" d="M5.618,10.079c-0.371-0.49-0.143-1.768-0.063-2.148l0.684,0.143c-0.14,0.681-0.171,1.436-0.063,1.584
		L5.618,10.079z"/>
	<polygon fill="#FFFFFF" points="5.499,4.722 5.651,3.838 5.01,3.213 5.896,3.084 6.291,2.28 6.688,3.084 7.574,3.213 6.933,3.838 
		7.085,4.721 6.292,4.304 	"/>
	<polygon fill="#FFFFFF" points="3.65,7.245 2.858,6.828 2.065,7.245 2.217,6.362 1.576,5.737 2.462,5.608 2.859,4.805 3.254,5.608 
		4.141,5.737 3.5,6.362 	"/>
</g>
</svg>
