<?xml version="1.0" encoding="utf-8"?>
<!-- Generator: Adobe Illustrator 16.0.0, SVG Export Plug-In . SVG Version: 6.00 Build 0)  -->
<!DOCTYPE svg PUBLIC "-//W3C//DTD SVG 1.1//EN" "http://www.w3.org/Graphics/SVG/1.1/DTD/svg11.dtd">
<svg version="1.1" id="Layer_1" xmlns="http://www.w3.org/2000/svg" xmlns:xlink="http://www.w3.org/1999/xlink" x="0px" y="0px"
	 width="18px" height="18px" viewBox="0 0 18 18" enable-background="new 0 0 18 18" xml:space="preserve">
<g>
	<path fill="#FFFFFF" d="M15.898,15.711V7.001c0-0.09-0.113-0.203-0.223-0.287l-2.277-1.652V3.238c0-0.179-0.15-0.301-0.301-0.301
		h-2.594L9.181,1.974c-0.09-0.061-0.24-0.061-0.333,0L7.526,2.937H4.93c-0.179,0-0.301,0.15-0.301,0.301v1.805L2.324,6.718
		C2.188,6.802,2.101,6.912,2.101,7.004v8.767c0,0.171,0.136,0.289,0.277,0.301h0.023h13.194
		C15.789,16.069,15.898,15.919,15.898,15.711 M15.326,7.542v7.627l-4.979-3.987L15.326,7.542z M15.104,7.014l-1.705,1.241V5.761
		L15.104,7.014z M9.001,2.542l0.529,0.391H8.469L9.001,2.542z M12.797,3.539v5.155l-3.795,2.767L5.206,8.694V3.539H12.797z
		 M2.676,7.542l4.979,3.64l-4.979,4.01V7.542z M4.632,8.278L2.885,7.004l1.747-1.27V8.278z M3.217,15.497l4.922-3.961l0.68,0.497
		c0.13,0.099,0.229,0.099,0.362,0l0.68-0.497l4.95,3.961H3.217z"/>
	<rect x="6.985" y="5.014" fill="#FFFFFF" width="4.064" height="0.573"/>
	<rect x="6.985" y="6.852" fill="#FFFFFF" width="4.064" height="0.573"/>
	<rect x="6.985" y="8.688" fill="#FFFFFF" width="4.064" height="0.573"/>
</g>
</svg>
