<?xml version="1.0" encoding="utf-8"?>
<!-- Generator: Adobe Illustrator 16.0.0, SVG Export Plug-In . SVG Version: 6.00 Build 0)  -->
<!DOCTYPE svg PUBLIC "-//W3C//DTD SVG 1.1//EN" "http://www.w3.org/Graphics/SVG/1.1/DTD/svg11.dtd">
<svg version="1.1" id="Layer_1" xmlns="http://www.w3.org/2000/svg" xmlns:xlink="http://www.w3.org/1999/xlink" x="0px" y="0px"
	 width="24px" height="19px" viewBox="0 0 24 19" enable-background="new 0 0 24 19" xml:space="preserve">
<g>
	<polygon fill="#EAD240" points="8.434,3.561 11.221,5.72 14.58,4.647 13.387,7.965 15.445,10.828 11.921,10.721 9.833,13.562 
		8.848,10.177 5.5,9.069 8.416,7.086 	"/>
	<polygon fill="#EAD240" points="3.241,11.918 4.089,13.639 5.989,13.914 4.615,15.254 4.939,17.146 3.241,16.252 1.542,17.146 
		1.866,15.254 0.492,13.914 2.39,13.639 	"/>
	<polygon fill="#EAD240" points="16.475,11.727 19.1,12.715 21.4,11.112 21.273,13.913 23.508,15.607 20.805,16.352 19.885,19 
		18.342,16.658 15.537,16.602 17.287,14.411 	"/>
	<polygon fill="#EAD240" points="19.086,0 19.879,1.609 21.656,1.868 20.371,3.12 20.674,4.889 19.086,4.054 17.496,4.889 
		17.801,3.12 16.516,1.868 18.291,1.609 	"/>
</g>
</svg>
