<?xml version="1.0" encoding="utf-8"?>
<!-- Generator: Adobe Illustrator 16.0.0, SVG Export Plug-In . SVG Version: 6.00 Build 0)  -->
<!DOCTYPE svg PUBLIC "-//W3C//DTD SVG 1.1//EN" "http://www.w3.org/Graphics/SVG/1.1/DTD/svg11.dtd">
<svg version="1.1" id="Layer_1" xmlns="http://www.w3.org/2000/svg" xmlns:xlink="http://www.w3.org/1999/xlink" x="0px" y="0px"
	 width="70px" height="70px" viewBox="0 0 70 70" enable-background="new 0 0 70 70" xml:space="preserve">
<g>
	<path fill="#FFFFFF" d="M57.627,12.372C51.584,6.328,43.548,3,35,3s-16.583,3.328-22.627,9.372S3,26.452,3,35
		c0,8.547,3.329,16.584,9.373,22.627C18.417,63.672,26.452,67,35,67s16.584-3.328,22.627-9.373C63.671,51.584,67,43.547,67,35
		C67,26.452,63.671,18.416,57.627,12.372 M49.997,16.754l1.407-5.845c5.602,3.827,9.806,9.554,11.678,16.246l-0.736,0.142
		c-1.101,0.211-1.986,1.051-2.256,2.139l-0.286,1.152c-0.003,0.013-0.005,0.021-0.026,0.028c-0.021,0.009-0.027,0.002-0.038-0.005
		l-1.708-1.281c-0.885-0.664-2.09-0.761-3.069-0.248l-2.131,1.115c-1.021,0.536-1.612,1.583-1.542,2.734
		c0.071,1.152,0.786,2.119,1.866,2.525l0.102,0.036c0.012,0.005,0.021,0.009,0.025,0.029s-0.001,0.028-0.009,0.037l-1.327,1.526
		c-0.014,0.016-0.037,0.019-0.054,0.008l-3.578-2.309c-0.82-0.529-1.843-0.609-2.734-0.213c-0.893,0.396-1.52,1.208-1.677,2.171
		l-0.276,1.687c-0.156,0.953,0.172,1.914,0.876,2.574l1.866,1.746c0.015,0.014,0.017,0.035,0.006,0.053l-3.041,4.608
		c-0.289,0.439-0.453,0.949-0.475,1.474l-0.264,6.6c0,0.01-0.005,0.02-0.013,0.027l-4.049,3.97c-0.013,0.013-0.034,0.015-0.05,0.006
		l-2.626-1.538c-0.01-0.006-0.018-0.016-0.02-0.027c0,0-1.273-5.779-1.321-5.908l-1.158-3.108c-0.387-1.039-1.351-1.771-2.454-1.867
		l-5.3-0.462c-0.014-0.001-0.025-0.008-0.032-0.02l-3.016-5.199c-0.005-0.008-0.007-0.018-0.005-0.027l0.758-5.042
		c0.001-0.01,0.008-0.02,0.017-0.026l4.629-3.493c0.012-0.009,0.027-0.011,0.041-0.005l4.486,1.871
		c0.255,0.106,0.524,0.176,0.799,0.205l6.213,0.676c0.709,0.078,1.415-0.109,1.993-0.523l4.115-2.951
		c1.11-0.795,1.512-2.275,0.955-3.521l-0.382-0.855c-0.443-0.99-1.393-1.645-2.477-1.703l-11.562-0.634
		c-0.006-0.001-0.013-0.002-0.018-0.005c-0.012-0.007-0.019-0.012-0.019-0.012c-0.006-0.014-0.002-0.047,0.005-0.055
		c0.002-0.002,0.009-0.006,0.023-0.01l3.471-0.936c0.459-0.123,0.884-0.361,1.229-0.688l4.244-4.006
		c0.007-0.005,0.016-0.009,0.024-0.01l6.388-0.659C48.703,18.823,49.712,17.942,49.997,16.754 M28.359,14.405l2.389-4.495
		c0.353-0.664,0.464-1.436,0.313-2.172l-0.324-1.581C32.129,5.952,33.552,5.844,35,5.844c1.46,0,2.896,0.11,4.299,0.318
		c0,0-0.342,0.374-0.4,0.397l-3.383,1.356c-0.483,0.194-0.918,0.506-1.256,0.902l-5.27,6.159c-0.072,0.083-0.178,0.134-0.286,0.139
		c-0.168,0.007-0.271-0.085-0.319-0.139C28.197,14.77,28.342,14.44,28.359,14.405 M15.928,12.965v4.268
		c0,1.191-0.597,2.29-1.597,2.938l-3.063,1.987c-0.709,0.461-1.312,1.048-1.787,1.747l-2.779,4.072
		C8.172,22.055,11.455,16.842,15.928,12.965 M17.787,54.948l-0.403,3.267c-4.559-3.468-8.071-8.244-9.967-13.766h1.811
		c0.223,0,0.427,0.112,0.547,0.299l3.659,5.701c0.165,0.256,0.361,0.49,0.586,0.694l3.56,3.247
		C17.734,54.531,17.813,54.74,17.787,54.948 M35,64.155c-5.47,0-10.592-1.515-14.971-4.146l0.581-4.713
		c0.138-1.123-0.279-2.248-1.114-3.009c0,0-3.638-3.327-3.669-3.375l-3.659-5.7c-0.646-1.008-1.745-1.607-2.94-1.607H6.6
		C6.105,39.482,5.845,37.271,5.845,35c0-0.244,0.003-0.49,0.009-0.733l5.977-8.759c0.264-0.387,0.595-0.711,0.987-0.965l3.061-1.986
		c1.813-1.174,2.894-3.165,2.894-5.324v-6.443c2.762-1.857,5.856-3.253,9.175-4.08l0.328,1.601c0.019,0.091,0.005,0.185-0.039,0.267
		l-2.388,4.495c-0.148,0.28-0.342,1.019-0.342,1.019c-0.194,0.981,0.068,1.979,0.719,2.739c0.621,0.724,1.511,1.132,2.459,1.132
		c0.045,0,1.422,0.067,2.468-1.135l5.27-6.158c0.041-0.05,0.095-0.088,0.154-0.111L39.957,9.2c0.479-0.192,0.913-0.503,1.251-0.896
		l1.277-1.484c2.247,0.598,4.389,1.456,6.389,2.543c-0.032,0.075-1.643,6.725-1.643,6.725c-0.004,0.018-0.019,0.03-0.035,0.031
		l-6.389,0.659c-0.628,0.063-1.227,0.338-1.685,0.771l-4.245,4.006c-0.005,0.005-0.011,0.009-0.018,0.01L31.39,22.5
		c-1.132,0.305-1.961,1.254-2.11,2.418c-0.15,1.162,0.41,2.291,1.429,2.873c0.388,0.221,0.829,0.353,1.275,0.377l11.561,0.633
		c0.016,0,0.029,0.01,0.035,0.023l0.382,0.855c0.008,0.018,0.002,0.039-0.014,0.051l-4.116,2.949
		c-0.009,0.007-0.02,0.01-0.028,0.009l-6.225-0.679l-4.485-1.871c-0.942-0.394-2.034-0.256-2.85,0.359l-4.63,3.493
		c-0.605,0.457-1.002,1.123-1.115,1.874l-0.758,5.042c-0.098,0.646,0.029,1.312,0.357,1.877l3.015,5.199
		c0.472,0.813,1.312,1.346,2.246,1.427l5.301,0.462c0.016,0.001,0.028,0.013,0.035,0.026l1.159,3.113l1.207,5.519
		c0.172,0.785,0.667,1.467,1.36,1.874l2.626,1.538c0.452,0.265,0.955,0.394,1.455,0.394c0.738,0,1.47-0.281,2.023-0.824l4.049-3.969
		c0.527-0.516,0.834-1.207,0.863-1.945L45.702,49c0-0.009,0.002-0.016,0.007-0.021l3.041-4.61c0.776-1.177,0.593-2.731-0.438-3.694
		l-1.866-1.746c-0.01-0.01-0.015-0.023-0.013-0.037l0.276-1.688c0.002-0.013,0.004-0.021,0.024-0.029
		c0.02-0.011,0.026-0.006,0.039,0.002l3.577,2.309c1.197,0.773,2.806,0.545,3.741-0.532l1.328-1.526
		c0.62-0.713,0.852-1.686,0.62-2.602c-0.232-0.916-0.898-1.661-1.784-1.992l-0.101-0.039c-0.013-0.005-0.02-0.009-0.02-0.009
		c-0.008-0.011-0.01-0.043-0.005-0.053c0.002-0.002,0.008-0.007,0.02-0.013l2.131-1.116c0.014-0.007,0.03-0.007,0.044,0.004
		l1.707,1.28c0.776,0.582,1.785,0.735,2.699,0.41c0.915-0.326,1.6-1.082,1.833-2.023l0.286-1.153
		c0.003-0.015,0.016-0.028,0.032-0.03l0.83-0.16c0.291,1.647,0.443,3.342,0.443,5.07C64.155,51.076,51.076,64.155,35,64.155"/>
</g>
</svg>
