<?xml version="1.0" encoding="utf-8"?>
<!-- Generator: Adobe Illustrator 16.0.0, SVG Export Plug-In . SVG Version: 6.00 Build 0)  -->
<!DOCTYPE svg PUBLIC "-//W3C//DTD SVG 1.1//EN" "http://www.w3.org/Graphics/SVG/1.1/DTD/svg11.dtd">
<svg version="1.1" id="Capa_1" xmlns="http://www.w3.org/2000/svg" xmlns:xlink="http://www.w3.org/1999/xlink" x="0px" y="0px"
	 width="20px" height="17px" viewBox="0 0 20 17" enable-background="new 0 0 20 17" xml:space="preserve">
<g>
	<g>
		<path fill="#FFFFFF" d="M19.357,1.599h-0.174c0.014-0.056,0.021-0.115,0.021-0.176V0.646c0-0.42-0.342-0.762-0.762-0.762h-0.446
			c-0.162,0-0.293,0.131-0.293,0.293s0.131,0.293,0.293,0.293h0.446c0.095,0,0.176,0.081,0.176,0.176v0.777
			c0,0.095-0.081,0.176-0.176,0.176h-2.259c-0.095,0-0.176-0.081-0.176-0.176V0.646c0-0.095,0.081-0.176,0.176-0.176h0.446
			c0.162,0,0.293-0.131,0.293-0.293s-0.131-0.293-0.293-0.293h-0.446c-0.42,0-0.762,0.342-0.762,0.762v0.777
			c0,0.061,0.008,0.12,0.021,0.176h-4.208c-0.36,0-0.652,0.293-0.652,0.653c0,0.36,0,6.791,0,7.032
			C9.605,8.952,8.594,8.799,7.612,8.799c-3.274,0-6.035,1.666-7.324,3.977c-0.836,1.499,0.245,3.34,1.957,3.34h4.683
			c0.162,0,0.293-0.131,0.293-0.293c0-0.162-0.131-0.293-0.293-0.293H2.246c-1.268,0-2.062-1.362-1.446-2.469
			c0.511-0.916,1.262-1.698,2.17-2.303v1.811c0,0.162,0.131,0.293,0.293,0.293c0.162,0,0.293-0.131,0.293-0.293v-2.165
			c0.497-0.271,1.03-0.492,1.589-0.659v2.824c0,0.162,0.131,0.293,0.293,0.293c0.162,0,0.293-0.131,0.293-0.293V9.592
			c0.515-0.115,1.047-0.183,1.588-0.202v3.178c0,0.162,0.131,0.293,0.293,0.293c0.162,0,0.293-0.131,0.293-0.293V9.391
			c0.542,0.019,1.074,0.087,1.589,0.202v2.977c0,0.162,0.131,0.293,0.293,0.293c0.162,0,0.293-0.131,0.293-0.293V9.745
			c0.559,0.167,1.092,0.388,1.588,0.659v2.165c0,0.162,0.131,0.293,0.293,0.293s0.293-0.131,0.293-0.293v-1.811
			c0.961,0.641,1.69,1.441,2.17,2.303c0.618,1.107-0.179,2.469-1.445,2.469H8.296c-0.162,0-0.293,0.131-0.293,0.293
			s0.131,0.293,0.293,0.293c0.681,0,10.745,0,11.057,0c0.357,0,0.647-0.291,0.647-0.647c0-0.402,0-12.065,0-13.226
			C20,1.888,19.711,1.599,19.357,1.599z M11.169,2.252c0-0.037,0.03-0.067,0.066-0.067c0.375,0,7.713,0,8.122,0
			c0.031,0,0.057,0.026,0.057,0.058v1.798l-8.245,4.191V2.252z M19.414,15.468c0,0.034-0.027,0.062-0.062,0.062h-4.859
			c0.371-0.341,0.634-0.822,0.709-1.347c0.107-0.751-0.159-1.293-0.571-1.9l4.782-2.431V15.468z M19.414,9.194l-5.136,2.611
			c-0.774-0.96-1.845-1.768-3.109-2.299V8.89l8.245-4.191V9.194z"/>
	</g>
</g>
</svg>
