<?xml version="1.0" encoding="utf-8"?>
<!-- Generator: Adobe Illustrator 16.0.0, SVG Export Plug-In . SVG Version: 6.00 Build 0)  -->
<!DOCTYPE svg PUBLIC "-//W3C//DTD SVG 1.1//EN" "http://www.w3.org/Graphics/SVG/1.1/DTD/svg11.dtd">
<svg version="1.1" id="Layer_1" xmlns="http://www.w3.org/2000/svg" xmlns:xlink="http://www.w3.org/1999/xlink" x="0px" y="0px"
	 width="70px" height="70px" viewBox="0 0 70 70" enable-background="new 0 0 70 70" xml:space="preserve">
<path fill="#FFFFFF" d="M34.618,3l-11.831,7.494c-1.684-1.125-2.794-3.041-2.794-5.213h-2.089c0,3.457-2.811,6.268-6.268,6.268
	v2.089c1.46,0,2.802,0.506,3.868,1.346l-13.27,8.53v12.914l6.268-3.97v8.34c0,2.879-2.343,5.224-5.224,5.224v2.088
	c2.88,0,5.224,2.344,5.224,5.224v14.624h8.356h16.714h27.159V32.458L67,36.428V23.509L34.618,3z M18.949,9.324
	c0.761,1.371,1.897,2.508,3.27,3.27c-1.372,0.762-2.509,1.896-3.27,3.269c-0.419-0.755-0.961-1.428-1.584-2.018l-0.026-0.04
	l-0.012,0.007c-0.499-0.467-1.046-0.884-1.648-1.218C17.051,11.832,18.188,10.696,18.949,9.324 M7.043,47.066
	c1.024-0.619,1.887-1.481,2.504-2.504c0.618,1.022,1.48,1.887,2.504,2.504c-1.023,0.616-1.886,1.479-2.504,2.502
	C8.93,48.545,8.067,47.683,7.043,47.066 M31.483,65.867H18.949l0,0V38.708h12.534V65.867z M58.644,65.867h-25.07V36.619H16.859
	v29.248h-6.268V53.332c0-2.879,2.342-5.223,5.224-5.223v-2.088c-2.88,0-5.224-2.345-5.224-5.225v-9.661l24.025-15.217l6.734,4.266
	c-1.709,1.757-4.095,2.854-6.734,2.854v2.09c5.184,0,9.401,4.217,9.401,9.401h2.09c0-3.547,1.977-6.64,4.885-8.241l7.65,4.846
	V65.867z M45.063,18.424c1.148,2.496,3.165,4.513,5.659,5.66c-2.495,1.149-4.511,3.164-5.659,5.661
	c-1.147-2.497-3.165-4.512-5.659-5.661C41.898,22.937,43.915,20.92,45.063,18.424 M64.911,32.632L64.911,32.632l-11.473-7.266
	c0.668-0.151,1.358-0.237,2.071-0.237v-2.09c-5.184,0-9.401-4.217-9.401-9.401h-2.09c0,1.791-0.512,3.46-1.384,4.886l-8.018-5.079
	L4.324,32.632v-7.978l12.601-8.099c0.617,0.971,0.979,2.118,0.979,3.35h2.089c0-3.456,2.812-6.267,6.268-6.267v-2.089
	c-0.368,0-0.728-0.038-1.079-0.1l9.437-5.975l30.293,19.185V32.632z"/>
</svg>
