<?xml version="1.0" encoding="utf-8"?>
<!-- Generator: Adobe Illustrator 16.0.0, SVG Export Plug-In . SVG Version: 6.00 Build 0)  -->
<!DOCTYPE svg PUBLIC "-//W3C//DTD SVG 1.1//EN" "http://www.w3.org/Graphics/SVG/1.1/DTD/svg11.dtd">
<svg version="1.1" id="Layer_1" xmlns="http://www.w3.org/2000/svg" xmlns:xlink="http://www.w3.org/1999/xlink" x="0px" y="0px"
	 width="70px" height="70px" viewBox="0 0 70 70" enable-background="new 0 0 70 70" xml:space="preserve">
<path fill="#FFFFFF" d="M56.657,46.277c0.599-9.172-2.032-18.285-4.363-24.347c-2.316-6.023-4.735-10.198-5.243-11.05
	c-0.158-0.674-0.798-2.652-2.981-3.591c-0.488-0.317-2.971-1.887-5.956-3.037c-4.643-1.788-8.085-1.662-10.232,0.377
	c-2.879,2.733-4.209,5.164-3.953,7.225c0.123,0.991,0.579,1.669,0.982,2.089c-0.023,0.211-0.02,0.452,0.033,0.718
	c0.228,1.166,1.28,2.298,3.129,3.366c3.766,2.176,6.648,0.8,8.556-0.111c0.181-0.087,0.356-0.17,0.526-0.248
	c0.285-0.131,0.411-0.072,0.465-0.048c0.315,0.146,0.616,0.68,0.771,1.093c-0.319,1.826-2.052,12.334-0.865,19.342
	c-3.233-1.072-6.211-0.797-8.422-0.226c-2.58,0.668-4.519,1.818-5.396,2.404c-1.799-0.734-3.969-0.881-6.353-0.436
	c-0.001-0.012-0.002-0.02-0.002-0.021c-0.048-0.522-0.487-0.923-1.012-0.923H12.9c-0.561,0-1.016,0.455-1.016,1.015v22.948
	c0,0.56,0.455,1.015,1.016,1.015c0.562,0,1.016-0.455,1.016-1.015V40.886h1.52c0.208,1.623,0.762,5.209,2.002,9.418
	c1.908,6.479,4.568,11.578,7.922,15.2H12.9c-0.561,0-1.016,0.455-1.016,1.017s0.455,1.015,1.016,1.015h14.969
	c0.425,0,0.805-0.263,0.952-0.662c0.147-0.397,0.032-0.844-0.29-1.123c-0.01-0.008-0.019-0.017-0.028-0.024
	c2.052-0.835,3.836-1.952,5.319-3.333c0.397,0.025,0.781,0.036,1.146,0.036c1.762,0,3.085-0.25,3.359-0.308
	c0.513-0.068,1.047-0.158,1.596-0.271c4.377-0.906,7.624-2.977,9.444-6.008c2.504,0.372,6.541-0.016,7.852-3.736
	C58.043,49.762,57.531,47.754,56.657,46.277 M55.303,51.432c-1.208,3.434-6.026,2.335-6.229,2.287
	c-0.456-0.11-0.93,0.107-1.143,0.527c-3.512,6.906-14.229,6.043-14.336,6.035c-0.111-0.012-0.223-0.002-0.329,0.022
	c-1.603-0.179-3.351-0.652-4.787-1.729c-0.448-0.336-1.085-0.246-1.422,0.203c-0.336,0.448-0.245,1.086,0.203,1.422
	c1.195,0.896,2.539,1.451,3.867,1.784c-1.231,0.892-2.649,1.623-4.235,2.181c-6.264-6.756-8.561-17.815-9.267-22.351
	c1.686-0.327,3.876-0.438,5.74,0.493c0.351,0.176,0.77,0.134,1.079-0.107c0.02-0.016,2.078-1.603,5.167-2.401
	c3.111-0.806,6.066-0.531,8.82,0.81c0.038,0.021,0.078,0.041,0.118,0.057c0.834,0.416,1.648,0.931,2.444,1.541
	c0.185,0.144,0.402,0.213,0.619,0.213c0.304,0,0.605-0.137,0.805-0.396c0.343-0.443,0.26-1.082-0.185-1.425
	c-0.814-0.626-1.627-1.144-2.432-1.565c-1.77-6.93,0.606-20.073,0.632-20.207c0.027-0.151,0.021-0.305-0.02-0.454
	c-0.055-0.198-0.573-1.956-1.935-2.59c-0.471-0.22-1.229-0.391-2.171,0.041c-0.18,0.083-0.365,0.171-0.556,0.262
	c-1.793,0.856-3.824,1.827-6.664,0.185c-1.97-1.137-2.202-1.937-2.157-2.118c0.15-0.226,0.217-0.497,0.157-0.764
	c-0.065-0.293-0.238-0.532-0.504-0.67c-0.074-0.049-0.568-0.402-0.646-1.153c-0.08-0.779,0.247-2.525,3.34-5.461
	c3.149-2.99,10.992,1.104,13.749,2.933c0.057,0.038,0.116,0.07,0.179,0.095c1.592,0.65,1.871,2.218,1.881,2.276
	c0.02,0.134,0.067,0.264,0.139,0.381c0.026,0.043,2.704,4.445,5.188,10.912c2.074,5.403,4.396,13.3,4.298,21.388
	c-0.048-0.035-0.095-0.067-0.14-0.098c-0.462-0.315-1.09-0.197-1.406,0.265c-0.316,0.46-0.2,1.092,0.26,1.409
	c0.059,0.041,0.727,0.519,1.309,1.367c0.025,0.047,0.056,0.092,0.089,0.133C55.461,48.156,55.945,49.605,55.303,51.432"/>
<path fill="#FFFFFF" d="M39.609,47.092c-5.535,5.461-15.107,3.385-15.203,3.363c-0.547-0.123-1.09,0.22-1.215,0.766
	c-0.124,0.548,0.219,1.092,0.766,1.217c0.186,0.041,2.163,0.473,4.861,0.473c3.636,0,8.582-0.785,12.218-4.372
	c0.399-0.395,0.403-1.037,0.011-1.437C40.651,46.701,40.009,46.697,39.609,47.092"/>
<path fill="#FFFFFF" d="M44.505,21.33c-0.521,0.208-0.774,0.799-0.566,1.32c0.03,0.076,3.021,7.701,1.396,16.63
	c-0.101,0.552,0.266,1.08,0.817,1.181c0.062,0.012,0.124,0.016,0.184,0.016c0.482,0,0.908-0.342,0.998-0.834
	c1.727-9.499-1.376-17.415-1.51-17.748C45.616,21.375,45.025,21.121,44.505,21.33"/>
</svg>
