<?xml version="1.0" standalone="no"?>
<!DOCTYPE svg PUBLIC "-//W3C//DTD SVG 1.1//EN" "http://www.w3.org/Graphics/SVG/1.1/DTD/svg11.dtd" >
<svg xmlns="http://www.w3.org/2000/svg" xmlns:xlink="http://www.w3.org/1999/xlink" version="1.1">
<metadata>
Created by FontForge 20170731 at Sat Mar  8 01:02:53 2014
 By Aleksey,,,
Copyright (c) 2013 Monotype Imaging Inc. All rights reserved.
</metadata>
<defs>
<font id="BurlingamePro-BoldItalic" horiz-adv-x="489" >
  <font-face 
    font-family="Burlingame Pro"
    font-weight="700"
    font-style="italic"
    font-stretch="normal"
    units-per-em="1000"
    panose-1="2 11 8 4 4 5 4 9 2 4"
    ascent="760"
    descent="-240"
    x-height="561"
    cap-height="750"
    bbox="-263 -275 1424 1006"
    underline-thickness="50"
    underline-position="-150"
    slope="-8"
    unicode-range="U+0020-FB04"
  />
<missing-glyph horiz-adv-x="345" 
 />
    <glyph glyph-name="IJ" unicode="IJ" horiz-adv-x="922" 
d="M29 0l158 750h161l-159 -750h-160zM511 -11q-27 0 -56 2.5t-56 6t-50.5 8.5t-40.5 10l15 127q29 -5 73.5 -11t92.5 -6q53 0 85 10.5t51 27.5q18 17 34 51.5t31 105.5l91 429h160l-94 -442q-20 -98 -46 -158t-66 -96q-38 -32 -90.5 -48.5t-133.5 -16.5z" />
    <glyph glyph-name="ij" unicode="ij" horiz-adv-x="635" 
d="M17 0l118 561h161l-119 -561h-160zM310 672q-12 -8 -31.5 -12t-41.5 -4q-26 0 -42 5.5t-24 14.5q-6 7 -8 19.5t0 28.5q2 27 12 48t27 32q20 13 67 13q23 0 39.5 -4t24.5 -13q8 -7 10.5 -20.5t1.5 -30.5q-3 -23 -11.5 -44.5t-23.5 -32.5zM482 -66q-23 -107 -81 -158
t-166 -51q-37 0 -68 4t-49 8l12 109q13 -2 36.5 -3.5t47.5 -1.5q48 0 72.5 21.5t35.5 75.5l131 623h162zM628 672q-12 -8 -31.5 -12t-41.5 -4q-26 0 -42 5.5t-24 14.5q-6 7 -8 19.5t0 28.5q2 27 12 48t27 32q20 13 67 13q23 0 39.5 -4t24.5 -13q8 -7 11 -20.5t1 -30.5
q-2 -23 -11 -44.5t-24 -32.5z" />
    <glyph glyph-name="napostrophe" unicode="&#x22;n" horiz-adv-x="817" 
d="M153 750h169l-173 -263h-137zM516 -1l69 326q9 40 9 67q0 21 -8 32q-9 11 -27 15t-39 4q-35 0 -65.5 -8.5t-53.5 -16.5l-89 -419h-162l119 561h128l9 -94h7l71 76q21 11 55.5 19t79.5 8q88 0 123 -45q10 -15 16 -34t6 -46q0 -21 -4 -47.5t-12 -65.5l-70 -332h-162z" />
    <glyph glyph-name="f_f" unicode="ff" horiz-adv-x="807" 
d="M430 444h-143l-95 -444h-161l94 444h-80l30 117h75l13 60q10 46 27.5 81.5t45 59.5t66.5 36t93 12q44 0 82 -4.5t60 -8.5l-25 -110q-17 2 -39.5 5.5t-50.5 3.5q-26 0 -43.5 -6t-28.5 -17t-17.5 -26.5t-10.5 -35.5l-11 -50h156zM834 444h-143l-95 -444h-161l94 444h-80
l30 117h75l13 60q10 46 27.5 81.5t45 59.5t66.5 36t93 12q44 0 82 -4.5t60 -8.5l-25 -110q-17 2 -39.5 5.5t-50.5 3.5q-26 0 -43.5 -6t-28.5 -17t-17.5 -26.5t-10.5 -35.5l-11 -50h156z" />
    <glyph glyph-name="f_f_i" unicode="ffi" horiz-adv-x="1125" 
d="M824 0l118 561h161l-119 -561h-160zM1117 672q-12 -8 -31.5 -12t-41.5 -4q-49 0 -66 20q-6 7 -8 19.5t0 28.5q2 27 12 48t27 32q20 13 67 13q23 0 39.5 -4t24.5 -13q8 -7 10.5 -20.5t1.5 -30.5q-3 -23 -11.5 -44.5t-23.5 -32.5zM430 444h-143l-95 -444h-161l94 444h-80
l30 117h75l13 60q10 46 27.5 81.5t45 59.5t66.5 36t93 12q44 0 82 -4.5t60 -8.5l-25 -110q-17 2 -39.5 5.5t-50.5 3.5q-26 0 -43.5 -6t-28.5 -17t-17.5 -26.5t-10.5 -35.5l-11 -50h156zM834 444h-143l-95 -444h-161l94 444h-80l30 117h75l13 60q10 46 27.5 81.5t45 59.5
t66.5 36t93 12q44 0 82 -4.5t60 -8.5l-25 -110q-17 2 -39.5 5.5t-50.5 3.5q-26 0 -43.5 -6t-28.5 -17t-17.5 -26.5t-10.5 -35.5l-11 -50h156z" />
    <glyph glyph-name="f_f_l" unicode="ffl" horiz-adv-x="1176" 
d="M1152 805l-130 -614q-6 -26 -6 -42q0 -22 11.5 -30t34.5 -8q18 0 36 2.5t32 4.5l-23 -109q-23 -5 -55.5 -11t-67.5 -6q-69 0 -101.5 27t-32.5 86q0 20 3.5 42t8.5 47l130 611h160zM430 444h-143l-95 -444h-161l94 444h-80l30 117h75l13 60q10 46 27.5 81.5t45 59.5
t66.5 36t93 12q44 0 82 -4.5t60 -8.5l-25 -110q-17 2 -39.5 5.5t-50.5 3.5q-26 0 -43.5 -6t-28.5 -17t-17.5 -26.5t-10.5 -35.5l-11 -50h156zM834 444h-143l-95 -444h-161l94 444h-80l30 117h75l13 60q10 46 27.5 81.5t45 59.5t66.5 36t93 12q44 0 82 -4.5t60 -8.5l-25 -110
q-17 2 -39.5 5.5t-50.5 3.5q-26 0 -43.5 -6t-28.5 -17t-17.5 -26.5t-10.5 -35.5l-11 -50h156z" />
    <glyph glyph-name="f_i" unicode="fi" horiz-adv-x="721" 
d="M421 0l118 561h161l-119 -561h-160zM714 672q-12 -8 -31.5 -12t-41.5 -4q-49 0 -66 20q-6 7 -8 19.5t0 28.5q2 27 12 48t27 32q20 13 67 13q23 0 39.5 -4t24.5 -13q8 -7 10.5 -20.5t1.5 -30.5q-3 -23 -11.5 -44.5t-23.5 -32.5zM430 444h-143l-95 -444h-161l94 444h-80
l30 117h75l13 60q10 46 27.5 81.5t45 59.5t66.5 36t93 12q44 0 82 -4.5t60 -8.5l-25 -110q-17 2 -39.5 5.5t-50.5 3.5q-26 0 -43.5 -6t-28.5 -17t-17.5 -26.5t-10.5 -35.5l-11 -50h156z" />
    <glyph glyph-name="f_l" unicode="fl" horiz-adv-x="772" 
d="M749 805l-130 -614q-6 -26 -6 -42q0 -22 11.5 -30t34.5 -8q18 0 36 2.5t32 4.5l-23 -109q-23 -5 -55.5 -11t-67.5 -6q-69 0 -101.5 27t-32.5 86q0 20 3.5 42t8.5 47l130 611h160zM430 444h-143l-95 -444h-161l94 444h-80l30 117h75l13 60q10 46 27.5 81.5t45 59.5
t66.5 36t93 12q44 0 82 -4.5t60 -8.5l-25 -110q-17 2 -39.5 5.5t-50.5 3.5q-26 0 -43.5 -6t-28.5 -17t-17.5 -26.5t-10.5 -35.5l-11 -50h156z" />
    <glyph glyph-name=".notdef" horiz-adv-x="345" 
 />
    <glyph glyph-name=".null" horiz-adv-x="0" 
 />
    <glyph glyph-name="nonmarkingreturn" horiz-adv-x="0" 
 />
    <glyph glyph-name="space" unicode=" " horiz-adv-x="257" 
 />
    <glyph glyph-name="exclam" unicode="!" horiz-adv-x="358" 
d="M94 240l93 510h165l-124 -510h-134zM188 5q-13 -10 -31 -13.5t-43 -3.5q-30 0 -47.5 5t-25.5 15q-5 6 -7.5 16t-2.5 21q0 31 10.5 58t29.5 40q12 8 30 11.5t41 3.5q54 0 70 -17q13 -15 13 -41q0 -27 -9.5 -54t-27.5 -41z" />
    <glyph glyph-name="quotedbl" unicode="&#x22;" horiz-adv-x="454" 
d="M143 750h140l-73 -270h-112zM350 750h139l-74 -270h-111z" />
    <glyph glyph-name="numbersign" unicode="#" horiz-adv-x="629" 
d="M136 568h111l51 182h83l-52 -182h104l51 182h82l-52 -182h111l-31 -107h-111l-48 -172h111l-32 -107h-110l-52 -182h-82l52 182h-103l-52 -182h-82l52 182h-112l32 107h111l48 172h-111zM250 289h103l48 172h-103z" />
    <glyph glyph-name="dollar" unicode="$" horiz-adv-x="666" 
d="M630 610q-35 5 -87 11.5t-110 7.5l-43 -201q29 -9 56.5 -18t50.5 -19t40.5 -21.5t25.5 -24.5q11 -16 16 -41t3 -57q-1 -29 -6.5 -58.5t-17 -56.5t-29.5 -49.5t-42 -37.5q-32 -20 -77.5 -30.5t-110.5 -12.5l-23 -112h-78l23 112q-29 1 -57.5 4.5t-54.5 8t-48 9.5t-37 11
l18 113q14 -3 35.5 -7t48.5 -8t57.5 -7t62.5 -4l42 201q-57 17 -102 37t-65 49q-11 17 -15.5 44t-2.5 55q2 67 27.5 116t62.5 76q25 19 73.5 32.5t112.5 16.5l20 88h78l-18 -87q29 -1 57 -4t53 -6.5t46 -7t36 -6.5zM353 627q-32 -3 -49.5 -8t-27.5 -13q-16 -12 -26 -40
t-10 -52q0 -17 11 -33q7 -8 24 -15.5t41 -15.5zM325 123q58 3 81 19q15 11 24 37t9 53q0 28 -12 40q-10 9 -26 14.5t-38 13.5z" />
    <glyph glyph-name="percent" unicode="%" horiz-adv-x="1007" 
d="M974 287q0 -35 -7 -73.5t-20 -73.5t-31.5 -64.5t-42.5 -47.5q-28 -22 -62 -30t-78 -8q-48 0 -80.5 14t-51.5 37q-13 16 -20 39.5t-7 58.5q0 37 6.5 74.5t19.5 71t31 61.5t41 46q27 22 61 30.5t80 8.5q54 0 86 -13t48 -33q12 -16 19.5 -40t7.5 -58zM801 97q10 9 20.5 29
t18.5 45.5t13 54t5 54.5q0 14 -2 23t-6 15q-14 19 -49 19q-17 0 -31 -3.5t-25 -12.5q-12 -10 -22.5 -30t-18 -45t-11.5 -51.5t-4 -50.5q0 -29 7 -39q15 -22 50 -22q17 0 30.5 3t24.5 11zM713 750h106l-497 -750h-107zM460 613q0 -35 -7 -73.5t-20 -73.5t-31.5 -64.5
t-42.5 -47.5q-28 -21 -62 -29t-78 -8q-48 0 -81 13.5t-51 36.5q-12 15 -19.5 39t-7.5 58q0 37 6.5 75t19.5 71.5t31 61.5t41 46q27 22 61 30.5t80 8.5q54 0 86 -12.5t48 -32.5q12 -16 19.5 -40.5t7.5 -58.5zM287 424q10 9 20.5 28.5t18.5 45t13 54.5t5 55q0 14 -2.5 22.5
t-5.5 14.5q-8 11 -20.5 15.5t-28.5 4.5q-35 0 -56 -17q-12 -10 -22.5 -30t-18 -45t-11.5 -52t-4 -51q0 -28 7 -38q15 -22 51 -22q17 0 30 3t24 12z" />
    <glyph glyph-name="ampersand" unicode="&#x26;" horiz-adv-x="881" 
d="M621 0l-60 124q-33 -36 -63 -61t-63.5 -41t-73.5 -23.5t-93 -7.5q-65 0 -109 13.5t-70 39.5q-21 22 -32 51.5t-11 68.5q0 51 18 101.5t56 83.5l109 42v8q-28 17 -46.5 45t-18.5 73q0 27 5.5 54.5t16.5 53.5t28 48t40 39q34 24 81 36t112 12q132 0 181 -52q36 -37 36 -97
q0 -51 -20 -92.5t-49 -69.5l-102 -38l-1 -8q47 -17 72 -35t40 -43l123 148h170l-231 -251l120 -222h-165zM502 222q-15 28 -27.5 45.5t-34.5 31.5t-59.5 27.5t-102.5 32.5q-37 -25 -61 -64.5t-24 -93.5q0 -38 20 -60q13 -14 37 -21t57 -7q31 0 55 6t46.5 18.5t44.5 33.5
t49 51zM444 433q31 29 53.5 67.5t22.5 83.5q0 28 -14 45q-20 23 -78 23q-56 0 -84 -24q-19 -17 -27.5 -44.5t-8.5 -53.5q0 -34 29.5 -56t106.5 -41z" />
    <glyph glyph-name="quotesingle" unicode="'" horiz-adv-x="295" 
d="M168 750h141l-74 -270h-113z" />
    <glyph glyph-name="parenleft" unicode="(" horiz-adv-x="380" 
d="M86 388q21 105 52.5 185t69.5 128q14 19 32 34.5t35.5 28.5t34 22l27.5 15h132q-18 -13 -38 -28t-40 -31.5t-38 -34t-31 -34.5q-32 -40 -60.5 -112.5t-53.5 -187.5q-14 -64 -20 -114t-6 -89q0 -33 4 -58.5t11 -43.5q14 -34 36.5 -67.5t48.5 -59.5h-118q-9 7 -21 20
t-24 29.5t-23 35t-18 38.5q-16 43 -16 116q0 91 24 208z" />
    <glyph glyph-name="parenright" unicode=")" horiz-adv-x="379" 
d="M326 354q-22 -105 -53.5 -185t-68.5 -128q-14 -19 -32 -34.5t-36 -28.5t-34 -22t-27 -15h-133q37 26 78.5 60t69.5 68q32 40 60.5 112.5t52.5 187.5q14 64 20 114t6 89q0 33 -4 58.5t-11 43.5q-13 34 -35.5 67.5t-48.5 59.5h117q9 -7 21 -20t24 -29.5t23 -35.5t18 -38
q8 -20 12 -50t4 -66q0 -45 -5.5 -97t-17.5 -111z" />
    <glyph glyph-name="asterisk" unicode="*" horiz-adv-x="544" 
d="M263 783h100l-1 -73l-37 -135l99 99l64 37l49 -87l-63 -35l-135 -35l135 -37l62 -36l-49 -86l-62 37l-99 99l36 -135v-74h-99l1 73l35 135l-97 -99l-63 -37l-50 87l64 35l135 36l-136 37l-63 36l50 86l62 -37l98 -97l-36 132v74z" />
    <glyph glyph-name="plus" unicode="+" horiz-adv-x="666" 
d="M60 400h211v215h123v-215h212v-123h-212v-215h-123v215h-211v123z" />
    <glyph glyph-name="comma" unicode="," horiz-adv-x="349" 
d="M87 140h174l-183 -263h-142z" />
    <glyph glyph-name="hyphen" unicode="-" horiz-adv-x="450" 
d="M87 383h310l-31 -146h-310z" />
    <glyph glyph-name="period" unicode="." horiz-adv-x="353" 
d="M186 5q-12 -9 -30.5 -12.5t-43.5 -3.5q-57 0 -72 20q-5 5 -8 15.5t-3 21.5q0 31 10.5 58t29.5 40q12 8 30.5 11.5t41.5 3.5q55 0 70 -18q12 -12 12 -40t-9.5 -55t-27.5 -41z" />
    <glyph glyph-name="slash" unicode="/" horiz-adv-x="484" 
d="M407 750h111l-429 -750h-111z" />
    <glyph glyph-name="zero" unicode="0" horiz-adv-x="666" 
d="M289 124q38 0 64 8.5t45 25.5q20 19 44.5 73t43.5 142q21 97 21 153q0 37 -10 57q-11 22 -37.5 32.5t-64.5 10.5q-32 0 -60.5 -8.5t-49.5 -29.5q-20 -20 -44.5 -75.5t-41.5 -136.5q-20 -92 -20 -148q0 -42 12 -64q13 -22 39.5 -31t58.5 -9zM415 761q85 -1 136 -23.5
t77 -60.5q15 -23 24 -56.5t9 -81.5q0 -71 -22 -174q-20 -103 -57.5 -183.5t-88.5 -124.5q-46 -41 -99 -54.5t-125 -13.5q-81 0 -131.5 24t-76.5 61q-17 23 -26 60.5t-9 91.5q0 33 4.5 72.5t14.5 85.5q22 111 60.5 190t88.5 120q42 35 96.5 51t124.5 16z" />
    <glyph glyph-name="one" unicode="1" horiz-adv-x="666" 
d="M29 0l26 123h184l104 494l-190 -29l27 126l349 57l-139 -648h166l-26 -123h-501z" />
    <glyph glyph-name="two" unicode="2" horiz-adv-x="666" 
d="M511 0h-526l21 100q15 46 34 79.5t49.5 63t77 57.5t118.5 63q64 32 99.5 51.5t55.5 38.5t30.5 47.5t10.5 60.5q0 26 -13 42q-23 24 -106 24q-29 0 -60 -3t-60 -7.5t-53 -9t-40 -8.5l27 128q19 5 46 11t58.5 11t65 8t66.5 3q75 0 124 -13.5t75 -42.5q17 -20 26 -48.5
t9 -60.5q0 -26 -5 -55.5t-15 -59t-24.5 -56t-33.5 -45.5q-15 -15 -33.5 -28t-44 -26.5t-59 -28.5t-77.5 -34q-53 -23 -88 -41.5t-56.5 -33.5t-31.5 -27.5t-14 -24.5h402z" />
    <glyph glyph-name="three" unicode="3" horiz-adv-x="666" 
d="M630 600q0 -49 -20.5 -97.5t-58.5 -82.5l-96 -35l-1 -8l87 -34q11 -14 18 -39.5t7 -56.5q0 -61 -23 -115t-70 -86q-79 -56 -235 -56q-33 0 -67.5 2.5t-65.5 7t-57.5 10t-42.5 11.5l22 120q15 -3 37 -7.5t48 -8t54.5 -6t57.5 -2.5q97 0 136 24q13 9 22.5 21.5t15.5 27.5
t9 30.5t3 29.5q0 17 -4 27.5t-15 19.5q-12 11 -42.5 15t-74.5 4h-140l27 125h113q51 0 85 5t55 17q13 8 22 19.5t15 25t8.5 27t2.5 25.5q0 18 -3.5 29t-11.5 19q-13 12 -39 17t-73 5q-26 0 -54 -2t-54.5 -5.5t-49.5 -8t-39 -8.5l26 123q39 11 102 20.5t130 9.5q79 0 125 -12
t71 -37q18 -17 28 -44t10 -66z" />
    <glyph glyph-name="four" unicode="4" horiz-adv-x="666" 
d="M450 0h-143l37 174h-354l25 129l355 447h239l-96 -452h139l-61 -124h-104zM370 298l68 319h-28l-237 -307l-2 -12h199z" />
    <glyph glyph-name="five" unicode="5" horiz-adv-x="666" 
d="M588 308q0 -35 -7 -72t-20.5 -71.5t-34.5 -64t-48 -50.5q-41 -30 -99.5 -44t-140.5 -14q-74 0 -130.5 9t-92.5 18l25 121q15 -3 36.5 -7t47 -7t54 -5t56.5 -2q50 0 82.5 6.5t53.5 20.5q13 9 23 23.5t17 31.5t10 36t3 36q0 15 -3.5 26t-13.5 19q-13 11 -37.5 15t-64.5 4
q-59 0 -113 -3.5t-89 -5.5l90 422h474l-37 -133h-328l-36 -164q21 2 54 4.5t64 2.5q60 0 100 -8.5t64 -30.5q41 -36 41 -113z" />
    <glyph glyph-name="six" unicode="6" horiz-adv-x="666" 
d="M645 644q-71 -2 -123.5 -8t-91 -15.5t-65.5 -22.5t-47 -29q-32 -26 -57.5 -72.5t-41.5 -105.5h8l72 57q22 7 52.5 12.5t65.5 5.5q56 0 93.5 -11.5t60.5 -33.5q21 -20 31.5 -51t10.5 -78q0 -32 -6.5 -67.5t-21 -70t-36 -64.5t-51.5 -51q-38 -26 -84.5 -37t-108.5 -11
q-138 0 -200 56q-32 29 -47.5 73t-15.5 110q0 56 10 117.5t31 120.5t54 111t80 89q32 26 70 44.5t86.5 30.5t109.5 19t139 9zM402 142q13 10 22.5 25t15.5 32.5t9 36.5t3 37q0 17 -3.5 29.5t-13.5 20.5q-12 14 -36 19.5t-60 5.5q-38 0 -73.5 -5t-55.5 -10q-11 -58 -11 -102
q0 -62 28 -89q26 -23 83 -23q29 0 52 5t40 18z" />
    <glyph glyph-name="seven" unicode="7" horiz-adv-x="666" 
d="M659 615l-424 -615h-185l429 598l3 15h-372l55 137h523z" />
    <glyph glyph-name="eight" unicode="8" horiz-adv-x="666" 
d="M390 641q-60 0 -91 -22q-20 -15 -29 -40.5t-9 -48.5q0 -21 8.5 -36.5t28 -27.5t52 -21.5t80.5 -17.5q28 30 49.5 64t21.5 75q0 28 -15 46q-26 29 -96 29zM260 340q-35 -27 -61 -63t-26 -83q0 -32 16 -51q12 -16 38 -24.5t68 -8.5q60 0 96 24q23 16 34 44t11 54
q0 22 -10 37.5t-31.5 27.5t-55 22t-79.5 21zM204 376l1 8l-68 40q-10 13 -19 38t-9 60q0 57 23 107t67 79q37 26 87 39t122 13q80 0 130.5 -15.5t77.5 -42.5q20 -20 29.5 -47.5t9.5 -58.5q0 -27 -7 -53.5t-18 -49t-26 -41t-31 -30.5l-88 -32l-2 -8l77 -37q14 -15 24.5 -40.5
t10.5 -63.5q0 -62 -25.5 -114.5t-76.5 -85.5q-74 -50 -217 -50q-83 0 -136.5 17t-83.5 49q-19 20 -29 49t-10 62q0 52 22 100t66 79z" />
    <glyph glyph-name="nine" unicode="9" horiz-adv-x="666" 
d="M283 608q-12 -10 -21 -25t-15 -32.5t-8.5 -36t-2.5 -34.5q0 -36 17 -55q14 -13 38.5 -17.5t59.5 -4.5q16 0 34 1.5t35 4t32.5 5.5t26.5 7q5 27 7.5 53t2.5 49q0 58 -23 82q-27 28 -88 28q-33 0 -55.5 -5.5t-39.5 -19.5zM371 182q16 13 31 32.5t28 43.5t23 51.5t17 56.5
h-9l-70 -62q-21 -8 -51 -13t-66 -5q-110 0 -157 50q-20 21 -30.5 50.5t-10.5 76.5q0 28 5 62t17 67t31.5 63t47.5 51q38 29 90.5 41.5t116.5 12.5q137 0 200 -56q62 -56 62 -181q0 -56 -10 -118t-31 -121t-54 -111.5t-78 -88.5q-32 -26 -70.5 -44.5t-87 -31t-110 -19.5
t-140.5 -9l-22 128q70 2 123 8t92 15.5t66 22t47 28.5z" />
    <glyph glyph-name="colon" unicode=":" horiz-adv-x="359" 
d="M284 424q-23 -17 -75 -17q-56 0 -71 20q-11 13 -11 38q0 30 10.5 57t29.5 40q12 8 30.5 12t40.5 4q55 0 70 -18q13 -15 13 -40q0 -29 -9.5 -55.5t-27.5 -40.5zM187 5q-13 -10 -31 -13.5t-43 -3.5q-30 0 -47.5 5t-25.5 15q-5 6 -7.5 16t-2.5 21q0 31 10.5 58t29.5 40
q12 8 30.5 11.5t41.5 3.5q26 0 43.5 -4t25.5 -13q13 -13 13 -41q0 -27 -9.5 -54t-27.5 -41z" />
    <glyph glyph-name="semicolon" unicode=";" horiz-adv-x="358" 
d="M81 140h173l-184 -263h-141zM279 424q-23 -17 -74 -17q-29 0 -46.5 5t-26.5 15q-10 13 -10 38q0 30 11 57t29 40q12 8 30.5 12t41.5 4q53 0 70 -18q12 -14 12 -40q0 -29 -9 -55.5t-28 -40.5z" />
    <glyph glyph-name="less" unicode="&#x3c;" horiz-adv-x="666" 
d="M606 655v-137l-401 -181l401 -178v-137l-546 256v120z" />
    <glyph glyph-name="equal" unicode="=" horiz-adv-x="666" 
d="M60 530h546v-123h-546v123zM60 270h546v-122h-546v122z" />
    <glyph glyph-name="greater" unicode="&#x3e;" horiz-adv-x="666" 
d="M60 22v137l399 180l-399 179v137l546 -257v-120z" />
    <glyph glyph-name="question" unicode="?" horiz-adv-x="542" 
d="M134 239l8 37q7 32 15 56t22 43.5t38.5 37t64.5 37.5q36 17 57.5 29.5t32.5 24.5q12 14 18 33t6 40q0 12 -3 20t-11 16q-11 9 -33 13.5t-60 4.5q-62 0 -114.5 -8.5t-83.5 -14.5l26 124q36 10 92 19t121 9q66 0 113 -10.5t73 -32.5q40 -34 40 -108q0 -22 -3.5 -46
t-10.5 -46.5t-17 -42t-23 -32.5q-23 -24 -58 -43.5t-88 -44.5q-25 -12 -40 -23t-24 -21.5t-13 -21.5t-6 -23l-5 -26h-134zM234 5q-12 -10 -30.5 -13.5t-43.5 -3.5q-29 0 -46.5 5t-25.5 15q-5 6 -7.5 16t-2.5 21q0 31 10.5 58t29.5 40q12 8 30 11.5t41 3.5q54 0 70 -17
q12 -14 12 -41t-9 -54t-28 -41z" />
    <glyph glyph-name="at" unicode="@" horiz-adv-x="947" 
d="M429 427q-11 -9 -21 -26.5t-17.5 -39.5t-11.5 -46.5t-4 -48.5q0 -21 3.5 -37.5t11.5 -24.5q17 -15 51 -15q29 0 51.5 7.5t42.5 15.5l36 230q-11 2 -27 4t-39 2q-26 0 -43 -4.5t-33 -16.5zM661 87q-34 0 -64.5 8.5t-46.5 23.5l-11 53h-5l-61 -68q-16 -7 -34.5 -11
t-48.5 -4t-55 8t-42 27q-17 18 -26 50t-9 76q0 39 6.5 77t19.5 71t31.5 60.5t42.5 45.5q26 19 61 27.5t77 8.5q38 0 73.5 -8t60.5 -16l40 19h26l-41 -251q-2 -18 -3.5 -32t-1.5 -24q0 -23 10.5 -32.5t35.5 -9.5q16 0 29.5 6t22.5 14q14 13 26.5 51t12.5 110
q0 62 -12.5 116.5t-44.5 88.5q-29 33 -90 50.5t-145 17.5t-139 -16.5t-93 -48.5q-16 -14 -32 -38.5t-28.5 -58.5t-20.5 -77t-8 -95q0 -97 19 -158.5t55 -99.5q34 -35 97.5 -52t152.5 -17q78 0 144.5 9t111.5 20v-96q-47 -15 -115 -27.5t-161 -12.5q-123 0 -200.5 28.5
t-120.5 71.5q-21 21 -39 49t-32 67t-22 90t-8 118t11 122.5t29 100.5t42 79t51 57q53 43 129.5 65.5t179.5 22.5q227 0 319 -94q42 -44 65.5 -111.5t23.5 -160.5q0 -78 -19.5 -139.5t-49.5 -90.5q-29 -29 -74.5 -44.5t-101.5 -15.5z" />
    <glyph glyph-name="A" unicode="A" horiz-adv-x="771" 
d="M521 0l-22 218h-261l-117 -218h-175l418 749l239 1l85 -750h-167zM465 605h-26l-135 -259h184z" />
    <glyph glyph-name="B" unicode="B" horiz-adv-x="722" 
d="M660 266q0 -28 -6.5 -60t-20 -63t-34 -58.5t-49.5 -46.5q-36 -23 -88.5 -30.5t-109.5 -7.5h-330l158 750h298q74 0 118 -8.5t65 -25.5q38 -30 38 -98q0 -51 -17 -97t-50 -78q-5 -3 -18 -9t-27.5 -12.5t-28.5 -12.5l-21 -9v-5q28 -8 55 -18t43 -30q25 -27 25 -81zM472 454
q14 7 24.5 20t17 29t10 33.5t3.5 33.5q0 28 -16 43q-9 8 -28.5 11t-42.5 3h-125l-39 -185h122q20 0 41 3t33 9zM447 143q23 16 36.5 48.5t13.5 64.5q0 33 -18 50q-12 11 -36.5 13t-49.5 2h-143l-41 -196h137q30 0 58 3.5t43 14.5z" />
    <glyph glyph-name="C" unicode="C" horiz-adv-x="691" 
d="M711 606q-35 6 -82.5 12t-102.5 6q-69 0 -108 -10.5t-67 -30.5q-30 -23 -53 -59.5t-38.5 -79.5t-23 -89t-7.5 -87q0 -32 6 -58.5t19 -41.5q36 -40 140 -40q63 0 120 9t100 18l-27 -129q-45 -14 -106.5 -25t-138.5 -11q-167 0 -231 82q-23 29 -35.5 73.5t-12.5 100.5
q0 64 12 129t35.5 124.5t58.5 109.5t82 83q50 35 115 51t146 16q71 0 126 -8.5t97 -19.5z" />
    <glyph glyph-name="D" unicode="D" horiz-adv-x="804" 
d="M453 750q60 0 104.5 -5t77.5 -14.5t55.5 -24t38.5 -32.5q20 -24 32 -65t12 -101q0 -59 -13 -124.5t-37 -126.5t-58 -112t-76 -81q-49 -35 -120 -49.5t-168 -14.5h-280l158 750h274zM311 615l-101 -478h96q75 0 117 7.5t68 27.5q27 20 49 59t37 84.5t23 91.5t8 81
q0 63 -22 88q-33 39 -159 39h-116z" />
    <glyph glyph-name="E" unicode="E" horiz-adv-x="639" 
d="M515 0h-499l159 750h517l-53 -135h-331l-36 -167h296l-52 -131h-271l-39 -180h368z" />
    <glyph glyph-name="F" unicode="F" horiz-adv-x="610" 
d="M16 0l159 750h511l-54 -134h-325l-39 -189h289l-54 -132h-264l-62 -295h-161z" />
    <glyph glyph-name="G" unicode="G" horiz-adv-x="772" 
d="M751 605q-37 6 -91.5 12t-115.5 6q-74 0 -118 -9.5t-72 -29.5q-32 -23 -56 -62t-39.5 -84.5t-23 -93t-7.5 -86.5q0 -71 27 -99q35 -39 130 -39q40 0 65.5 2t48.5 5l38 173h-160l47 121h293l-82 -385q-45 -15 -112 -30t-157 -15q-97 0 -157 20.5t-96 62.5q-22 26 -36 67.5
t-14 102.5q0 63 11.5 128t34.5 125t59 110.5t84 83.5q49 34 115 51t165 17q71 0 134 -8.5t106 -17.5z" />
    <glyph glyph-name="H" unicode="H" horiz-adv-x="807" 
d="M497 0l66 310h-315l-66 -310h-160l158 750h161l-64 -302h315l64 302h161l-159 -750h-161z" />
    <glyph glyph-name="I" unicode="I" horiz-adv-x="331" 
d="M22 0l158 750h161l-159 -750h-160z" />
    <glyph glyph-name="J" unicode="J" horiz-adv-x="590" 
d="M173 -11q-27 0 -56 2.5t-56 6t-50.5 8.5t-40.5 10l15 127q29 -5 73.5 -11t92.5 -6q53 0 85 10.5t51 27.5q18 17 34 51.5t31 105.5l91 429h160l-94 -442q-20 -98 -46 -158t-66 -96q-38 -32 -90.5 -48.5t-133.5 -16.5z" />
    <glyph glyph-name="K" unicode="K" horiz-adv-x="744" 
d="M672 0h-194l-171 353h-50l-75 -353h-160l159 750h160l-79 -372l356 372h215l-367 -364z" />
    <glyph glyph-name="L" unicode="L" horiz-adv-x="622" 
d="M213 137h360l-59 -137h-491l159 750h161z" />
    <glyph glyph-name="M" unicode="M" horiz-adv-x="1011" 
d="M709 0l128 604h-15l-270 -487h-189l-55 485h-14l-128 -602h-144l158 750h250l50 -485h16l259 485h264l-159 -750h-151z" />
    <glyph glyph-name="N" unicode="N" horiz-adv-x="870" 
d="M482 0l-169 602h-16l-128 -602h-145l158 750h244l164 -597h15l127 597h147l-159 -750h-238z" />
    <glyph glyph-name="O" unicode="O" horiz-adv-x="830" 
d="M376 127q48 -1 83 10t60 29q26 20 47.5 58.5t36.5 84.5t23.5 93.5t8.5 86.5q0 56 -20 84q-14 21 -47.5 34t-82.5 13q-48 0 -82 -9.5t-62 -31.5q-28 -23 -49.5 -61t-36 -82t-22 -90t-7.5 -85q0 -32 5 -53t16 -35q16 -22 50 -34t79 -12zM500 760q97 0 158 -22.5t93 -63.5
q48 -57 48 -170q0 -55 -11 -118t-33.5 -123.5t-56.5 -114t-79 -89.5q-25 -20 -56.5 -33.5t-65.5 -21.5t-67.5 -11.5t-63.5 -3.5q-53 0 -93.5 6.5t-70.5 17.5t-52 27t-37 34q-21 25 -35 66.5t-14 105.5q0 58 10.5 121t32.5 122.5t55.5 111t79.5 86.5q48 35 110 54t148 19z
" />
    <glyph glyph-name="P" unicode="P" horiz-adv-x="688" 
d="M239 261l-55 -261h-161l159 750h291q69 0 112.5 -11t66.5 -34q20 -20 32 -51t12 -77q0 -35 -6.5 -73t-20.5 -74t-36 -67.5t-52 -52.5q-21 -15 -43.5 -24.5t-52 -15t-67.5 -7.5t-89 -2h-90zM467 403q19 9 32 26.5t21 38.5t12 43t4 41q0 20 -4 32t-12 21q-10 11 -32.5 16
t-52.5 5h-119l-50 -237h98q38 0 64 3t39 11z" />
    <glyph glyph-name="Q" unicode="Q" horiz-adv-x="830" 
d="M500 760q97 0 157.5 -23t93.5 -63q48 -57 48 -170q0 -54 -11 -116.5t-33 -123.5t-56 -115t-80 -90q-30 -24 -69 -38.5t-81 -22.5v-4l74 -28l101 -172h-184l-94 196h-15q-97 0 -153 24.5t-85 59.5q-21 25 -35 66.5t-14 105.5q0 57 10.5 119.5t32.5 122.5t55.5 112t79.5 87
q48 35 110 54t148 19zM376 127q50 0 84.5 10.5t59.5 29.5q25 20 46.5 58t36.5 83.5t23.5 93t8.5 86.5q0 57 -20 85q-14 21 -47.5 34t-82.5 13q-48 0 -82 -9.5t-62 -31.5q-29 -23 -50.5 -61.5t-35.5 -83t-21.5 -90t-7.5 -83.5q0 -32 5 -53t16 -35q16 -22 50 -34t79 -12z" />
    <glyph glyph-name="R" unicode="R" horiz-adv-x="719" 
d="M700 602q0 -57 -20 -115.5t-60 -99.5q-11 -6 -27.5 -13.5t-36 -14.5t-39.5 -14t-37 -12v-5q18 -10 41 -25.5t32 -27.5q7 -11 17.5 -40t21.5 -67.5t22 -82.5t20 -85h-174q-21 109 -41 179t-39 86q-11 11 -39.5 14.5t-60.5 3.5h-38l-60 -283h-160l158 750h294
q72 0 115.5 -10t65.5 -28q21 -17 33 -44.5t12 -65.5zM465 430q16 8 28 22.5t20.5 32.5t13 37.5t4.5 39.5q0 29 -16 47q-9 10 -30.5 14t-51.5 4h-118l-46 -214h92q42 0 66 4.5t38 12.5z" />
    <glyph glyph-name="S" unicode="S" horiz-adv-x="640" 
d="M568 243q-1 -30 -7.5 -60t-18.5 -57t-29.5 -50t-39.5 -39q-36 -26 -92.5 -37.5t-132.5 -11.5q-38 0 -74.5 3t-69.5 8t-60.5 11t-46.5 12l19 125q16 -4 41 -8.5t54.5 -8.5t61 -7t61.5 -3q52 0 82.5 5.5t44.5 16.5q17 11 26 32t10 44q3 32 -13 48q-17 15 -52.5 29t-75 30.5
t-75.5 36t-54 45.5q-13 19 -18.5 46.5t-4.5 60.5q1 27 7 54.5t18 53.5t29.5 49t41.5 40q32 24 87.5 38.5t143.5 14.5q72 0 132 -8.5t95 -15.5l-21 -128q-38 5 -93 12t-117 7q-52 0 -80.5 -7t-42.5 -18q-15 -11 -23.5 -32t-9.5 -44q-2 -26 8 -40q12 -15 48.5 -30.5
t79.5 -32.5t82 -36.5t56 -42.5q11 -17 18 -43t5 -62z" />
    <glyph glyph-name="T" unicode="T" horiz-adv-x="652" 
d="M675 615h-212l-130 -615h-161l130 615h-225l52 135h595z" />
    <glyph glyph-name="U" unicode="U" horiz-adv-x="782" 
d="M792 750l-97 -456q-19 -91 -45 -147t-64 -89q-35 -31 -98.5 -51t-152.5 -20q-59 0 -101 7.5t-70.5 20.5t-46 28.5t-28.5 32.5q-12 19 -19 44t-7 59q0 26 3.5 58t13.5 77l92 436h161l-93 -439q-8 -35 -11.5 -61t-3.5 -43q0 -27 10 -41q11 -15 38 -26t78 -11q47 0 78 10
t49 26q16 13 30 43.5t28 92.5l96 449h160z" />
    <glyph glyph-name="V" unicode="V" horiz-adv-x="758" 
d="M426 0h-252l-68 750h170l41 -597h25l302 597h188z" />
    <glyph glyph-name="W" unicode="W" horiz-adv-x="1153" 
d="M879 0h-239l-1 596h-15l-268 -596h-243l1 750h163l-13 -596h21l267 596h229l-1 -596h20l249 596h175z" />
    <glyph glyph-name="X" unicode="X" horiz-adv-x="740" 
d="M350 300l-204 -300h-188l281 387l-105 363h174l73 -294h29l206 294h186l-277 -381l117 -369h-177l-85 300h-30z" />
    <glyph glyph-name="Y" unicode="Y" horiz-adv-x="709" 
d="M359 0h-166l52 245l-143 505h166l84 -344h12l234 344h193l-380 -505z" />
    <glyph glyph-name="Z" unicode="Z" horiz-adv-x="697" 
d="M703 598l-488 -448l-3 -14h418l-55 -136h-593l32 154l481 447l3 15h-357l52 134h542z" />
    <glyph glyph-name="bracketleft" unicode="[" horiz-adv-x="350" 
d="M191 847h239l-20 -94h-117l-161 -756h117l-20 -94h-238z" />
    <glyph glyph-name="backslash" unicode="\" horiz-adv-x="483" 
d="M429 0h-106l-255 750h107z" />
    <glyph glyph-name="bracketright" unicode="]" horiz-adv-x="350" 
d="M176 -97h-238l20 94h116l161 756h-117l20 94h239z" />
    <glyph glyph-name="asciicircum" unicode="^" horiz-adv-x="657" 
d="M622 288h-129l-166 327l-162 -327h-129l240 457h106z" />
    <glyph glyph-name="underscore" unicode="_" horiz-adv-x="557" 
d="M-55 -96h562l-4 -80h-563z" />
    <glyph glyph-name="grave" unicode="`" horiz-adv-x="380" 
d="M207 765l127 -142h-109l-170 142h152z" />
    <glyph glyph-name="a" unicode="a" horiz-adv-x="631" 
d="M372 0l-17 87h-7l-72 -77q-20 -9 -49.5 -14t-60.5 -5q-54 0 -83.5 11.5t-46.5 31.5q-11 14 -16.5 35.5t-5.5 46.5t5.5 52t16.5 51.5t28 45.5t40 33q42 22 117 32.5t184 17.5q8 30 8 52q0 19 -7 29q-8 14 -32.5 18t-59.5 4q-25 0 -52.5 -2t-54.5 -5t-51 -6.5t-42 -6.5
l27 112q42 11 103.5 21.5t132.5 10.5q69 0 110 -11.5t61 -34.5q15 -17 21.5 -39t6.5 -52q0 -49 -16 -122l-67 -316h-121zM386 252q-24 -1 -52.5 -2.5t-55 -4t-46.5 -6t-27 -8.5q-18 -14 -27.5 -39t-9.5 -48q0 -17 8 -28q7 -8 22.5 -11t38.5 -3q35 0 68.5 7.5t51.5 13.5z" />
    <glyph glyph-name="b" unicode="b" horiz-adv-x="686" 
d="M644 419q0 -45 -9 -98.5t-27.5 -105t-46 -96.5t-63.5 -72q-37 -27 -85 -41t-120 -14q-58 0 -109.5 10.5t-82.5 21.5l-55 -24h-31l171 804h161l-69 -328h7q2 2 15 14t28 26.5t27 26t13 11.5q19 9 49 15t68 6q41 0 73.5 -9t52.5 -32q33 -38 33 -115zM388 137
q19 14 35.5 43.5t27.5 65t17.5 71t6.5 61.5q0 38 -14 54q-10 11 -26 15t-42 4q-36 0 -69 -7.5t-57 -17.5l-66 -306q13 -2 35.5 -4.5t51.5 -2.5q32 0 56.5 5t43.5 19z" />
    <glyph glyph-name="c" unicode="c" horiz-adv-x="541" 
d="M398 451q-36 0 -64 -6t-49 -22q-19 -14 -34 -39.5t-25.5 -56t-16 -62t-5.5 -57.5q0 -45 22 -69q26 -23 88 -23q43 0 84 6.5t72 11.5l-29 -117q-37 -11 -80 -19t-100 -8q-59 0 -100 12t-69 39q-50 47 -50 142q0 47 9 97.5t27.5 97t45.5 86t63 63.5q38 26 83 37t99 11
q62 0 106 -7t71 -13l-16 -117q-26 4 -57.5 8.5t-74.5 4.5z" />
    <glyph glyph-name="d" unicode="d" horiz-adv-x="686" 
d="M553 809h161l-172 -809h-130l-8 91h-8q-2 -2 -15.5 -15t-28.5 -27.5t-28 -27t-14 -12.5q-17 -8 -45 -13t-65 -5q-39 0 -71 10.5t-55 35.5q-35 35 -35 121q0 48 9.5 101t28 103t46 92.5t63.5 69.5q37 26 82 36.5t96 10.5q35 0 72.5 -5t62.5 -11zM289 427
q-20 -14 -35.5 -42.5t-26.5 -63t-17 -69.5t-6 -63q0 -40 13 -54q19 -19 68 -19q36 0 69 9.5t57 19.5l66 301q-14 2 -35.5 4.5t-46.5 2.5q-36 0 -60.5 -5.5t-45.5 -20.5z" />
    <glyph glyph-name="e" unicode="e" horiz-adv-x="612" 
d="M40 188q0 49 9 98t26.5 93.5t43 81t58.5 60.5q38 29 86.5 42.5t114.5 13.5q111 0 161 -41t50 -115q0 -95 -68 -139.5t-203 -44.5q-31 0 -60 1.5t-52 4.5q-5 -28 -5 -47q0 -41 19 -59q14 -13 39 -18.5t60 -5.5q28 0 56.5 3t54.5 6.5t48 8t39 7.5l-36 -115q-42 -13 -95 -23
t-122 -10q-63 0 -105.5 14t-69.5 41q-23 23 -36 59t-13 84zM357 467q-46 0 -76 -24q-36 -29 -55 -100q17 -2 43 -3t50 -1q52 1 82.5 19t30.5 54q0 23 -16.5 39t-58.5 16z" />
    <glyph glyph-name="f" unicode="f" horiz-adv-x="404" 
d="M430 444h-143l-95 -444h-161l94 444h-80l30 117h75l13 60q10 46 27.5 81.5t45 59.5t66.5 36t93 12q44 0 82 -4.5t60 -8.5l-25 -110q-17 2 -39.5 5.5t-50.5 3.5q-26 0 -43.5 -6t-28.5 -17t-17.5 -26.5t-10.5 -35.5l-11 -50h156z" />
    <glyph glyph-name="g" unicode="g" horiz-adv-x="681" 
d="M554 74q-23 -110 -54 -176t-76 -105q-41 -35 -98.5 -50.5t-139.5 -15.5q-32 0 -63.5 3t-60.5 8t-53.5 11t-41.5 11l18 122q16 -3 39.5 -7t50.5 -7.5t56.5 -6t57.5 -2.5q42 0 79 6.5t58 24.5q19 15 33.5 55t30.5 108l7 34h-6q-1 -1 -14 -13t-28 -25.5t-28 -24.5l-13 -11
q-18 -8 -47 -13.5t-67 -5.5t-68.5 9.5t-53.5 33.5q-17 17 -26.5 47t-9.5 75q0 47 9 100t27.5 102.5t46.5 92t66 68.5t85.5 38t105.5 12q29 0 57.5 -3t53.5 -7t46 -9.5t36 -9.5l58 21h32zM473 446q-14 2 -35.5 4t-50.5 2q-32 0 -55.5 -5t-44.5 -20q-22 -16 -38 -45t-27 -63
t-16.5 -68.5t-5.5 -60.5q0 -41 15 -56q18 -20 69 -20q36 0 68 8.5t56 18.5z" />
    <glyph glyph-name="h" unicode="h" horiz-adv-x="682" 
d="M379 0l68 319q5 23 8 41t3 30q0 23 -9 34q-9 12 -27 15t-41 3q-37 0 -66 -7.5t-51 -15.5l-89 -419h-161l172 804h160l-73 -337h8l71 74q19 11 53 19t79 8q89 0 121 -44q11 -14 16.5 -33.5t5.5 -47.5q0 -42 -15 -108l-70 -335h-163z" />
    <glyph glyph-name="i" unicode="i" horiz-adv-x="318" 
d="M17 0l118 561h161l-119 -561h-160zM310 672q-12 -8 -31.5 -12t-41.5 -4q-26 0 -42 5.5t-24 14.5q-6 7 -8 19.5t0 28.5q2 27 12 48t27 32q20 13 67 13q23 0 39.5 -4t24.5 -13q8 -7 10.5 -20.5t1.5 -30.5q-3 -23 -11.5 -44.5t-23.5 -32.5z" />
    <glyph glyph-name="j" unicode="j" horiz-adv-x="318" 
d="M164 -66q-23 -107 -81 -158t-166 -51q-37 0 -68 4t-49 8l12 109q13 -2 36.5 -3.5t47.5 -1.5q48 0 72.5 21.5t35.5 75.5l131 623h162zM310 672q-12 -8 -31.5 -12t-41.5 -4q-26 0 -42 5.5t-24 14.5q-6 7 -8 19.5t0 28.5q2 27 12 48t27 32q20 13 67 13q23 0 39.5 -4
t24.5 -13q8 -7 11 -20.5t1 -30.5q-2 -23 -11 -44.5t-24 -32.5z" />
    <glyph glyph-name="k" unicode="k" horiz-adv-x="626" 
d="M566 0h-185l-108 258h-41l-55 -258h-161l171 804h161l-110 -514l247 271h200l-267 -267z" />
    <glyph glyph-name="l" unicode="l" horiz-adv-x="369" 
d="M345 805l-130 -614q-6 -26 -6 -42q0 -22 11.5 -30t34.5 -8q18 0 36 2.5t32 4.5l-23 -109q-23 -5 -55.5 -11t-67.5 -6q-69 0 -101.5 27t-32.5 86q0 20 3.5 42t8.5 47l130 611h160z" />
    <glyph glyph-name="m" unicode="m" horiz-adv-x="1016" 
d="M366 0l69 325q9 40 9 66q0 22 -7 32q-9 12 -26 15.5t-34 3.5q-33 0 -60.5 -7.5t-49.5 -16.5l-88 -418h-162l119 561h128l9 -94h8l68 75q20 10 50 18t75 8q57 0 93 -23t47 -78h8l72 75q20 10 50.5 18t75.5 8q42 0 73 -11t48 -34q11 -15 16.5 -33.5t5.5 -46.5
q0 -40 -15 -113l-71 -330h-162l69 325q5 20 7.5 37t2.5 29q0 21 -8 32q-9 12 -26 15.5t-34 3.5q-28 0 -57 -7t-53 -16l-88 -419h-162z" />
    <glyph glyph-name="n" unicode="n" horiz-adv-x="684" 
d="M383 0l69 326q9 40 9 67q0 21 -8 32q-9 11 -27 15t-39 4q-35 0 -65.5 -8.5t-53.5 -16.5l-89 -419h-162l119 561h128l9 -94h7l71 76q21 11 55.5 19t79.5 8q88 0 123 -45q10 -15 16 -34t6 -46q0 -21 -4 -47.5t-12 -65.5l-70 -332h-162z" />
    <glyph glyph-name="o" unicode="o" horiz-adv-x="669" 
d="M628 380q0 -44 -9 -92t-26.5 -94t-43 -85t-59.5 -65q-40 -29 -91 -42t-123 -13q-78 0 -125 19t-71 48q-17 21 -27 53t-10 79q0 40 7.5 86t24 91t41.5 85t61 67q38 29 89.5 44t123.5 14q78 0 125.5 -18t69.5 -44q19 -20 31 -53t12 -80zM392 138q17 13 31 40t24.5 59
t16.5 65.5t6 60.5q0 22 -3.5 36t-10.5 24q-23 28 -82 28q-35 0 -58.5 -8t-39.5 -20q-18 -15 -32.5 -41.5t-24.5 -58t-15.5 -64t-5.5 -58.5q0 -20 3 -35.5t10 -24.5q12 -15 33 -22.5t54 -7.5q29 0 53 6.5t41 20.5z" />
    <glyph glyph-name="p" unicode="p" horiz-adv-x="683" 
d="M123 -270h-161l176 831h130l6 -92h8q2 2 15 14.5t28 27t27.5 26.5t13.5 14q19 8 47 13.5t66 5.5q42 0 74.5 -11t52.5 -33q34 -37 34 -124q0 -47 -8.5 -99.5t-26.5 -102.5t-46 -93t-66 -70q-36 -26 -81 -36.5t-96 -10.5q-35 0 -72.5 5t-62.5 11zM390 133q20 14 36 41.5
t27 60.5t17 67.5t6 62.5q0 42 -15 59q-9 11 -26.5 16t-47.5 5q-33 0 -63 -7.5t-54 -17.5l-67 -306q14 -2 35.5 -4.5t47.5 -2.5q36 0 60 6t44 20z" />
    <glyph glyph-name="q" unicode="q" horiz-adv-x="687" 
d="M40 153q0 46 9 100t27.5 105.5t47 95t66.5 70.5q38 26 85 37.5t106 11.5q60 0 113 -9.5t85 -20.5l52 22h34l-174 -816h-161l72 339h-8q-2 -2 -15 -14t-28 -26t-27.5 -25.5t-13.5 -11.5q-18 -8 -46 -13.5t-60 -5.5q-43 0 -76 10t-55 33q-33 37 -33 118zM292 428
q-21 -15 -37 -45.5t-27.5 -66t-17 -70t-5.5 -58.5q0 -38 14 -53q9 -11 26 -15t42 -4q35 0 69 9t57 18l66 304q-14 2 -36 4.5t-52 2.5q-32 0 -55.5 -6t-43.5 -20z" />
    <glyph glyph-name="r" unicode="r" horiz-adv-x="470" 
d="M258 561l12 -93h8l66 78q20 11 47 17.5t61 6.5q16 0 29.5 -1t27.5 -3l-28 -148q-17 4 -40.5 9t-58.5 5q-68 0 -119 -28l-85 -404h-161l119 561h122z" />
    <glyph glyph-name="s" unicode="s" horiz-adv-x="523" 
d="M449 196q0 -21 -4.5 -44.5t-14 -46.5t-24.5 -43.5t-36 -34.5q-29 -18 -72 -26.5t-110 -8.5q-59 0 -108.5 8t-81.5 16l11 112q27 -6 74.5 -14t99.5 -8q35 0 54.5 4t29.5 11q11 6 17 20.5t6 29.5q0 8 -1 14t-6 11q-9 9 -33.5 18.5t-54 20t-57 23t-42.5 28.5q-25 28 -25 79
q0 22 5 46.5t15.5 48t26.5 44.5t39 36q31 20 73 27t98 7q61 0 109.5 -7t76.5 -12l-20 -110q-30 5 -74.5 9.5t-90.5 4.5q-33 0 -53 -3.5t-31 -13.5q-9 -8 -15 -23t-6 -30q0 -6 1.5 -12t6.5 -12q11 -12 37 -21.5t55 -19.5t56 -20.5t41 -24.5q28 -30 28 -83z" />
    <glyph glyph-name="t" unicode="t" horiz-adv-x="448" 
d="M442 443h-157l-51 -238q-3 -14 -5 -27t-2 -24q0 -24 14 -32.5t45 -8.5q25 0 55 3.5t47 6.5l-31 -113q-28 -7 -64 -13t-82 -6q-81 0 -116.5 28t-35.5 88q0 35 9 76l55 260h-79l32 117h72l20 93l167 29l-26 -122h176z" />
    <glyph glyph-name="u" unicode="u" horiz-adv-x="686" 
d="M296 561l-68 -324q-5 -21 -7.5 -38t-2.5 -30q0 -20 8 -31q10 -12 27.5 -15.5t39.5 -3.5q35 0 65.5 7.5t53.5 16.5l89 418h161l-119 -561h-128l-8 95h-7l-72 -78q-20 -9 -52.5 -16.5t-77.5 -7.5t-77 11.5t-49 34.5q-11 15 -16.5 34.5t-5.5 46.5q0 40 13 102l72 339h161z
" />
    <glyph glyph-name="v" unicode="v" horiz-adv-x="622" 
d="M357 0h-237l-56 561h160l30 -421h22l209 421h179z" />
    <glyph glyph-name="w" unicode="w" horiz-adv-x="965" 
d="M734 0h-218l-10 422h-11l-197 -422h-224l1 561h153l-11 -421h16l197 421h207l6 -421h15l175 421h166z" />
    <glyph glyph-name="x" unicode="x" horiz-adv-x="618" 
d="M281 216l-154 -216h-186l229 295l-91 266h164l61 -207h24l148 207h179l-216 -283l102 -278h-168l-68 216h-24z" />
    <glyph glyph-name="y" unicode="y" horiz-adv-x="622" 
d="M203 -272h-167l156 272h-74l-60 561h162l30 -421h21l217 421h177z" />
    <glyph glyph-name="z" unicode="z" horiz-adv-x="561" 
d="M538 421l-328 -283l-3 -15h298l-51 -123h-475l27 130l334 294l3 15h-260l51 122h432z" />
    <glyph glyph-name="braceleft" unicode="{" horiz-adv-x="435" 
d="M60 439q48 4 76.5 17.5t42.5 34.5q11 17 19.5 43t17 54.5t18.5 57.5t25 52q13 19 30 35.5t35 29.5t35 22.5t28 15.5h135q-38 -26 -78.5 -60t-66.5 -70q-16 -23 -28 -54.5t-22.5 -63t-21.5 -59.5t-25 -45q-7 -9 -20 -18t-29.5 -17.5t-34.5 -15.5t-35 -11l-1 -7
q38 -14 65.5 -39.5t27.5 -62.5q0 -17 -2 -39t-4 -45.5t-4 -46t-2 -40.5q0 -46 27.5 -87t67.5 -79h-123q-38 26 -62 66.5t-24 88.5q0 21 2 44.5t5 46.5t5 43.5t2 35.5q0 32 -28 52t-72 26z" />
    <glyph glyph-name="bar" unicode="|" horiz-adv-x="253" 
d="M94 853h66v-1126h-66v1126z" />
    <glyph glyph-name="braceright" unicode="}" horiz-adv-x="435" 
d="M392 303q-48 -4 -76.5 -17.5t-42.5 -34.5q-12 -17 -20 -43t-16.5 -54.5t-18.5 -57.5t-25 -52q-13 -20 -30.5 -36t-35.5 -29t-35 -22.5t-28 -15.5h-133q38 26 78.5 60t65.5 70q16 23 28 54t23 62.5t22 60t25 45.5q7 9 20 18t29 17.5t34 15.5t35 11l1 7q-38 14 -65 39.5
t-27 62.5q0 17 2 39t4 45.5t4 46t2 40.5q0 46 -28 87t-67 79h123q38 -26 61.5 -66.5t23.5 -88.5q0 -21 -2 -44.5t-5 -46.5t-5 -43.5t-2 -35.5q0 -32 28 -52t73 -26z" />
    <glyph glyph-name="asciitilde" unicode="~" horiz-adv-x="666" 
d="M447 231q-41 0 -73 14t-59.5 31.5t-52.5 31.5t-51 14q-34 0 -73 -27t-82 -62v128q15 15 34.5 30t41.5 26t45 18t46 7q39 0 71 -14t59 -31t50.5 -31t47.5 -14q42 0 81 27t77 61v-130q-37 -35 -78.5 -57t-83.5 -22z" />
    <glyph glyph-name="uni00A0" unicode="&#xa0;" horiz-adv-x="266" 
 />
    <glyph glyph-name="exclamdown" unicode="&#xa1;" horiz-adv-x="358" 
d="M247 324l-94 -511h-164l123 511h135zM155 560q14 9 32 12t41 3q59 0 74 -21q9 -14 9 -36q0 -33 -11.5 -60t-28.5 -38q-22 -15 -72 -15q-54 0 -70 17q-12 13 -12 41q0 31 11 58.5t27 38.5z" />
    <glyph glyph-name="cent" unicode="&#xa2;" horiz-adv-x="666" 
d="M272 0l19 90q-53 2 -90.5 13t-63.5 36q-24 23 -37 59.5t-13 88.5q0 45 9 95t27 96t45.5 85.5t63.5 63.5q38 25 83 35.5t100 12.5l16 75h70l-17 -78q36 -3 65 -8t48 -10l-16 -116q-25 4 -54 8t-69 5l-70 -335q38 2 71.5 7t61.5 10l-30 -115q-29 -9 -60.5 -16t-69.5 -10
l-19 -92h-70zM388 550q-21 -3 -38.5 -8.5t-31.5 -16.5q-19 -14 -34 -40.5t-25.5 -57.5t-16 -63t-5.5 -58q0 -23 5.5 -41t16.5 -28q19 -18 58 -21z" />
    <glyph glyph-name="sterling" unicode="&#xa3;" horiz-adv-x="683" 
d="M-9 0l46 132h89l39 185h-100l42 86h76l27 123q13 57 32 101t48 70q32 30 78.5 45.5t119.5 15.5q71 0 120 -9t80 -17l-23 -121q-23 7 -64.5 14t-87.5 7q-40 0 -67.5 -7t-44.5 -24q-16 -15 -25.5 -38.5t-17.5 -61.5l-21 -98h199l-42 -86h-174l-24 -109l-93 -66l-2 -10h404
l-45 -132h-569z" />
    <glyph glyph-name="currency" unicode="&#xa4;" horiz-adv-x="666" 
d="M138 618l79 -79q26 15 56 23.5t62 8.5q33 0 62.5 -8.5t55.5 -23.5l80 79l79 -79l-80 -81q34 -51 34 -117q0 -65 -34 -118l80 -79l-79 -80l-80 80q-53 -33 -118 -33t-118 33l-79 -80l-79 80l79 79q-15 26 -24 56t-9 62t9 62t24 56l-79 80zM214 341q0 -25 9.5 -47t26 -38.5
t38.5 -26t47 -9.5t47.5 9.5t39 26t26 38.5t9.5 47t-9.5 47t-26 38.5t-39 26t-47.5 9.5t-47 -9.5t-38.5 -26t-26 -38.5t-9.5 -47z" />
    <glyph glyph-name="yen" unicode="&#xa5;" horiz-adv-x="714" 
d="M455 329h187l-37 -70h-187l-17 -80h210l-37 -70h-188l-23 -109h-155l22 109h-204l36 70h183l16 80h-204l37 70h162l-129 421h161l82 -312h15l213 312h183z" />
    <glyph glyph-name="brokenbar" unicode="&#xa6;" horiz-adv-x="254" 
d="M95 178h63v-301h-63v301zM95 728h63v-301h-63v301z" />
    <glyph glyph-name="section" unicode="&#xa7;" horiz-adv-x="629" 
d="M488 55q-9 -43 -25.5 -74t-47 -51.5t-79 -30t-123.5 -9.5q-55 0 -107.5 6t-88.5 15l22 105q28 -5 71.5 -9t91.5 -4q34 0 57 3.5t37 10t21.5 17.5t10.5 26q2 4 2 8v8q0 5 -1.5 10.5t-6.5 8.5q-7 4 -21 9t-31.5 9.5t-37 9t-36.5 8.5q-63 13 -93.5 29.5t-43.5 34.5
q-8 9 -12 23t-4 36q0 13 2.5 32.5t6.5 37.5q13 59 44.5 90t90.5 46q-12 8 -23 24q-5 10 -8.5 23t-3.5 32q0 11 1.5 26.5t6.5 29.5q8 39 24.5 68.5t46 49t75.5 29.5t113 10q62 0 108.5 -5.5t80.5 -11.5l-23 -106q-36 5 -74 8t-77 3q-34 0 -56 -4t-34.5 -11t-18.5 -17.5
t-9 -23.5q-2 -5 -2 -9v-8q0 -10 7 -16q11 -8 45 -16.5t83 -18.5q64 -13 93 -29t41 -31q8 -9 12.5 -23.5t4.5 -37.5q0 -12 -2.5 -31t-6.5 -36q-14 -64 -46 -94.5t-84 -44.5q6 -5 11.5 -9t10.5 -11q6 -8 10 -21t4 -34q0 -11 -2.5 -28t-6.5 -31zM342 415q-20 4 -31 5.5t-19 1.5
q-39 0 -61 -24.5t-33 -72.5q-2 -11 -3 -19t-1 -13q0 -18 11 -29q8 -8 34 -15.5t64 -15.5q10 -2 21.5 -4.5t22.5 -2.5q74 0 96 97q2 8 3 16t1 13q0 22 -20 34q-11 8 -33 15t-52 14z" />
    <glyph glyph-name="dieresis" unicode="&#xa8;" horiz-adv-x="378" 
d="M152 629q-38 0 -51 15q-7 8 -7 27q0 17 7.5 36.5t23.5 29.5q17 10 51 10q35 0 47 -12q9 -9 9 -27t-7 -37t-21 -30q-8 -6 -22.5 -9t-29.5 -3zM369 629q-39 0 -51 15q-7 8 -7 25q0 19 7.5 38.5t23.5 29.5q17 10 52 10t46 -12q5 -5 7 -12t2 -15q0 -17 -6.5 -36.5
t-21.5 -30.5q-8 -6 -22 -9t-30 -3z" />
    <glyph glyph-name="copyright" unicode="&#xa9;" horiz-adv-x="825" 
d="M467 516q-41 0 -67.5 -8t-42 -25t-21.5 -44.5t-6 -67.5q0 -39 5.5 -65.5t20.5 -42t40.5 -22.5t65.5 -7q35 0 64.5 4.5t49.5 9.5v-88q-25 -8 -62 -16.5t-91 -8.5q-59 0 -99.5 15.5t-65.5 44.5t-36 71.5t-11 96.5q0 129 53.5 191t175.5 62q44 0 77 -6t59 -12v-92
q-20 3 -45.5 6.5t-63.5 3.5zM403 43q78 0 129.5 16t89.5 48q19 18 36.5 45t30.5 62t20.5 76t7.5 87q0 94 -20 157.5t-53 99.5q-32 34 -88 52.5t-128 18.5t-126 -17.5t-94 -50.5q-16 -14 -32.5 -39t-30.5 -59t-23 -77t-9 -93q0 -90 21.5 -154.5t56.5 -99.5q31 -32 81.5 -52
t130.5 -20zM429 760q96 0 158.5 -25t99.5 -61q17 -17 33.5 -43t29 -62t20.5 -82.5t8 -104.5q0 -112 -34 -192t-83 -125q-40 -37 -106 -57.5t-154 -20.5q-49 0 -87.5 6.5t-69 18.5t-54 28t-42.5 35q-17 17 -34.5 43t-31 61.5t-22 80.5t-8.5 101q0 60 9.5 109.5t26 89t38.5 69
t46 49.5q42 35 104.5 58.5t152.5 23.5z" />
    <glyph glyph-name="ordfeminine" unicode="&#xaa;" horiz-adv-x="452" 
d="M311 380l-6 54q-4 -5 -12 -12t-15.5 -14.5t-13.5 -13t-7 -5.5q-12 -5 -39 -10.5t-52 -5.5q-48 0 -71.5 18.5t-23.5 60.5q0 12 2.5 27t8.5 30.5t15 29.5t22 23q11 8 26 14t39.5 11.5t62 10.5t92.5 10q2 11 3 19t1 16q0 6 -1.5 11.5t-8 9t-19.5 5.5t-35 2q-35 0 -71.5 -4
t-68.5 -8l15 73q32 8 78 15.5t88 7.5t70 -6.5t44.5 -19t23.5 -30t7 -39.5q0 -19 -8 -57l-47 -223h-99zM325 543q-17 -1 -36 -2.5t-36.5 -4.5t-30.5 -6t-19 -7q-6 -3 -10.5 -17.5t-4.5 -31.5q0 -5 0.5 -10t3.5 -7q4 -5 15 -7t26 -2q23 0 44.5 3.5t31.5 6.5z" />
    <glyph glyph-name="guillemotleft" unicode="&#xab;" horiz-adv-x="593" 
d="M213 31l-188 212l18 82l277 208l-31 -142l-136 -100l-5 -24l93 -105zM472 31l-188 212l18 82l277 208l-31 -142l-136 -100l-5 -24l93 -105z" />
    <glyph glyph-name="logicalnot" unicode="&#xac;" horiz-adv-x="664" 
d="M605 149h-121v227h-425v121h546v-348z" />
    <glyph glyph-name="uni00AD" unicode="&#xad;" horiz-adv-x="449" 
d="M102 383h310l-31 -146h-310z" />
    <glyph glyph-name="registered" unicode="&#xae;" horiz-adv-x="826" 
d="M405 42q78 0 129.5 16.5t89.5 48.5q19 17 36.5 44.5t31 62t21 76t7.5 87.5q0 94 -20.5 157.5t-53.5 99.5q-32 34 -87.5 53t-128.5 19t-126.5 -18t-93.5 -51q-16 -14 -33 -39t-31 -59t-23 -77t-9 -93q0 -90 22 -154.5t57 -100.5q31 -32 81.5 -52t130.5 -20zM431 760
q97 0 159.5 -25t98.5 -60q18 -18 34 -44t29 -62t20.5 -82.5t7.5 -104.5q0 -112 -34 -192t-83 -125q-39 -37 -105.5 -57.5t-153.5 -20.5q-49 0 -87.5 6.5t-69.5 18.5t-54.5 28t-42.5 35q-17 17 -34.5 43t-31 61.5t-22 80.5t-8.5 101q0 60 9.5 109.5t26 89t38.5 69t46 49.5
q42 34 104.5 58t152.5 24zM439 606q42 0 73.5 -4.5t50.5 -17.5q20 -13 32.5 -39t12.5 -68q0 -36 -13.5 -66t-33.5 -44q-5 -2 -24 -8t-42 -12v-2q6 -2 14 -5t16 -7t14.5 -7.5t9.5 -6.5q18 -17 41 -66t50 -109h-126l-40 101q-12 25 -20.5 40t-18.5 23t-24.5 10t-36.5 2h-18
v-176h-115v462h198zM356 397h44q14 0 28.5 0.5t23.5 3.5q17 6 26 23.5t9 41.5q0 41 -17 52q-9 5 -24 7.5t-33 2.5h-57v-131z" />
    <glyph glyph-name="macron" unicode="&#xaf;" horiz-adv-x="378" 
d="M119 726h309l-20 -90h-309z" />
    <glyph glyph-name="degree" unicode="&#xb0;" horiz-adv-x="429" 
d="M83 582q0 37 14 69.5t38.5 56.5t57 38t69.5 14t69.5 -14t57 -38t38.5 -56.5t14 -69.5q0 -38 -14 -70.5t-38.5 -57t-57 -38.5t-69.5 -14t-69.5 14t-57 38.5t-38.5 57t-14 70.5zM144 582q0 -25 9.5 -46.5t25.5 -37.5t37.5 -25.5t45.5 -9.5q25 0 46.5 9.5t37.5 25.5t25 37.5
t9 46.5q0 24 -9 45.5t-25 37.5t-37.5 25t-46.5 9q-24 0 -45.5 -9t-37.5 -25t-25.5 -37.5t-9.5 -45.5z" />
    <glyph glyph-name="plusminus" unicode="&#xb1;" horiz-adv-x="666" 
d="M60 493h212v181h121v-181h213v-120h-213v-181h-121v181h-212v120zM606 0h-546v121h546v-121z" />
    <glyph glyph-name="twosuperior" unicode="&#xb2;" 
d="M432 394h-366l8 43q9 34 22 60t35 48t54.5 41.5t79.5 40.5q49 22 73 33.5t35 22.5t17.5 28t6.5 33q0 21 -16.5 30.5t-60.5 9.5q-42 0 -80.5 -5t-68.5 -10l18 85q16 4 36.5 8t42.5 7t44.5 5t42.5 2q90 0 129 -24.5t39 -83.5q0 -11 -3 -27.5t-9 -35.5t-16 -37t-24 -32
q-24 -22 -60.5 -38.5t-90.5 -36.5q-32 -12 -52.5 -22.5t-33.5 -19.5t-19.5 -17t-9.5 -16h267z" />
    <glyph glyph-name="threesuperior" unicode="&#xb3;" 
d="M506 737q-6 -20 -19 -40t-29 -34l-61 -23l54 -20q10 -9 15.5 -27.5t5.5 -38.5q0 -22 -4 -39q-8 -34 -24 -58.5t-44 -40t-68.5 -22.5t-98.5 -7q-52 0 -90.5 7t-61.5 14l15 83q29 -5 63.5 -10.5t73.5 -5.5q30 0 50 3t33 9.5t20 16t11 22.5q3 12 3 23q0 28 -26.5 35t-71.5 7
h-86l19 84h85q48 0 74.5 10.5t34.5 40.5q2 5 2 11v11q0 21 -17.5 30t-57.5 9t-77 -4.5t-60 -9.5l18 82q26 7 69 14t87 7q90 0 129 -24.5t39 -73.5q0 -10 -1 -20t-4 -21z" />
    <glyph glyph-name="acute" unicode="&#xb4;" horiz-adv-x="378" 
d="M293 765h161l-212 -143h-116z" />
    <glyph glyph-name="mu" unicode="&#xb5;" horiz-adv-x="686" 
d="M234 -6q-43 0 -60 25l-61 -290h-161l177 832h161l-71 -334q-3 -17 -5 -30.5t-2 -24.5q0 -20 11 -36q8 -11 25 -14.5t36 -3.5q40 0 71 10t61 23l88 410h162l-120 -561h-124l-10 97h-6l-59 -73q-20 -11 -51 -20.5t-62 -9.5z" />
    <glyph glyph-name="paragraph" unicode="&#xb6;" horiz-adv-x="634" 
d="M546 666q-20 4 -39 5.5t-44 3.5l-166 -785h-78l86 403q-49 -13 -101 -13q-45 0 -70.5 11.5t-39.5 30.5q-13 17 -19 46t-3 71q1 38 10 77.5t24.5 74.5t36 64.5t46.5 47.5q29 22 79 35.5t139 13.5q28 0 64 -2.5t73.5 -7t73.5 -10.5t64 -13l-16 -74q-9 2 -21.5 4.5
t-23.5 4.5l-163 -764h-77z" />
    <glyph glyph-name="periodcentered" unicode="&#xb7;" horiz-adv-x="337" 
d="M229 241q-12 -9 -30.5 -12.5t-43.5 -3.5q-57 0 -72 20q-5 5 -8 15.5t-3 21.5q0 31 10.5 58t29.5 40q12 8 30.5 11.5t41.5 3.5q55 0 70 -18q12 -12 12 -40t-9.5 -55t-27.5 -41z" />
    <glyph glyph-name="cedilla" unicode="&#xb8;" horiz-adv-x="378" 
d="M97 0h56l-20 -48q58 -2 77 -21q13 -12 13 -44q0 -33 -13 -61.5t-33 -40.5q-38 -24 -118 -24q-32 0 -58.5 5t-43.5 12l10 65q20 -5 43.5 -9t52.5 -4q23 0 35.5 2.5t17.5 6.5q6 4 10.5 14t4.5 21q0 9 -5 16q-5 4 -14.5 6t-32.5 2h-28z" />
    <glyph glyph-name="onesuperior" unicode="&#xb9;" 
d="M90 394l19 87h125l61 296q-8 -1 -26 -3.5t-38 -5.5t-38.5 -5.5t-25.5 -3.5l19 88l247 37l-86 -403h113l-18 -87h-352z" />
    <glyph glyph-name="ordmasculine" unicode="&#xba;" horiz-adv-x="473" 
d="M495 627q0 -32 -6.5 -64t-18 -61t-28.5 -52.5t-38 -38.5q-57 -39 -151 -39q-57 0 -89.5 13t-49.5 33q-12 14 -19.5 36t-7.5 51t5.5 59t16.5 58.5t28 52.5t40 41q27 19 63.5 29.5t87.5 10.5q56 0 90 -13t51 -33q11 -14 18.5 -34t7.5 -49zM328 475q10 8 19 23.5t16 35
t10.5 41t3.5 41.5q0 13 -2.5 21t-6.5 13q-14 18 -54 18q-20 0 -35.5 -5t-26.5 -13q-12 -10 -21 -26.5t-14.5 -35t-8.5 -38.5t-3 -37q0 -26 7 -37q7 -8 19.5 -13t32.5 -5q21 0 37 4.5t27 12.5z" />
    <glyph glyph-name="guillemotright" unicode="&#xbb;" horiz-adv-x="593" 
d="M109 533l188 -211l-17 -83l-278 -208l30 143l136 99l6 24l-94 106zM370 533l188 -211l-17 -83l-278 -208l30 143l136 99l6 24l-94 106z" />
    <glyph glyph-name="onequarter" unicode="&#xbc;" horiz-adv-x="1170" 
d="M973 0h-105l22 110h-237l18 86l239 281h164l-59 -279h96l-43 -88h-71zM949 385h-13l-153 -182l-1 -5h127zM60 274l19 87h125l61 296q-8 -1 -26 -3.5t-38 -5.5t-38.5 -5.5t-25.5 -3.5l19 88l247 37l-86 -403h113l-18 -87h-352zM865 750h99l-641 -750h-100z" />
    <glyph glyph-name="onehalf" unicode="&#xbd;" horiz-adv-x="1176" 
d="M1025 0h-366l9 43q9 34 22 60t34.5 48t54 41.5t79.5 40.5q50 22 74 33.5t35 22.5q10 11 16.5 28t6.5 33q0 21 -16.5 30.5t-60.5 9.5q-42 0 -80 -5t-68 -10l17 85q16 4 37 8t43 7t44 5t42 2q91 0 130 -24.5t39 -83.5q0 -11 -3 -27.5t-9 -35.5t-16 -37t-25 -32
q-24 -22 -60.5 -38.5t-90.5 -36.5q-31 -12 -52 -22.5t-33.5 -19.5t-19 -17t-9.5 -16h267zM60 274l19 87h125l61 296q-8 -1 -26 -3.5t-38 -5.5t-38.5 -5.5t-25.5 -3.5l19 88l247 37l-86 -403h113l-18 -87h-352zM870 750h99l-641 -750h-100z" />
    <glyph glyph-name="threequarters" unicode="&#xbe;" horiz-adv-x="1165" 
d="M476 617q-6 -20 -19 -40t-29 -34l-61 -23l54 -20q10 -9 15.5 -27.5t5.5 -38.5q0 -22 -4 -39q-8 -34 -24 -58.5t-44 -40t-68.5 -22.5t-98.5 -7q-52 0 -90.5 7t-61.5 14l15 83q29 -5 63.5 -10.5t73.5 -5.5q30 0 50 3t33 9.5t20 16t11 22.5q3 12 3 23q0 28 -26.5 35t-71.5 7
h-86l19 84h85q48 0 74.5 10.5t34.5 40.5q2 5 2 11v11q0 21 -17.5 30t-57.5 9t-77 -4.5t-60 -9.5l18 82q26 7 69 14t87 7q90 0 129 -24.5t39 -73.5q0 -10 -1 -20t-4 -21zM967 0h-105l22 110h-237l18 86l239 281h164l-59 -279h96l-43 -88h-71zM943 385h-13l-153 -182l-1 -5
h127zM866 750h99l-641 -750h-100z" />
    <glyph glyph-name="questiondown" unicode="&#xbf;" horiz-adv-x="542" 
d="M418 325l-8 -36q-8 -33 -15.5 -57t-22 -43.5t-39 -37t-64.5 -36.5q-35 -17 -56.5 -30t-32.5 -25q-12 -14 -18.5 -33.5t-6.5 -40.5q0 -23 15 -35q18 -17 93 -17q61 0 113.5 7.5t83.5 13.5l-26 -122q-36 -11 -91.5 -20t-120.5 -9q-136 0 -186 44q-40 33 -40 107
q0 22 3.5 46t10.5 46.5t17 42t23 32.5q23 23 57.5 43t87.5 45q25 12 40.5 22.5t24.5 21t13 21.5t6 23l5 27h134zM318 559q11 9 29.5 12.5t44.5 3.5q56 0 72 -19q10 -13 10 -38q0 -30 -10.5 -57t-29.5 -40q-12 -9 -30.5 -12.5t-40.5 -3.5q-55 0 -70 18q-13 15 -13 40
q0 29 9.5 55.5t28.5 40.5z" />
    <glyph glyph-name="Agrave" unicode="&#xc0;" horiz-adv-x="771" 
d="M521 0l-22 218h-261l-117 -218h-175l418 749l239 1l85 -750h-167zM465 605h-26l-135 -259h184zM449 955l127 -142h-109l-170 142h152z" />
    <glyph glyph-name="Aacute" unicode="&#xc1;" horiz-adv-x="771" 
d="M521 0l-22 218h-261l-117 -218h-175l418 749l239 1l85 -750h-167zM465 605h-26l-135 -259h184zM567 955h161l-212 -143h-116z" />
    <glyph glyph-name="Acircumflex" unicode="&#xc2;" horiz-adv-x="771" 
d="M521 0l-22 218h-261l-117 -218h-175l418 749l239 1l85 -750h-167zM465 605h-26l-135 -259h184zM668 811h-99l-67 71l-99 -71h-109l160 136h112z" />
    <glyph glyph-name="Atilde" unicode="&#xc3;" horiz-adv-x="771" 
d="M521 0l-22 218h-261l-117 -218h-175l418 749l239 1l85 -750h-167zM465 605h-26l-135 -259h184zM306 823q13 55 43 88.5t82 33.5q25 0 43.5 -8.5t34 -19t29.5 -19t29 -8.5q37 0 50 49h67q-14 -63 -47 -93t-78 -30q-25 0 -43.5 8.5t-34 19t-29.5 19t-30 8.5
q-21 0 -32.5 -13t-16.5 -35h-67z" />
    <glyph glyph-name="Adieresis" unicode="&#xc4;" horiz-adv-x="771" 
d="M521 0l-22 218h-261l-117 -218h-175l418 749l239 1l85 -750h-167zM465 605h-26l-135 -259h184zM375 818q-38 0 -51 15q-7 8 -7 27q0 17 7.5 36.5t23.5 29.5q17 10 51 10q35 0 47 -12q9 -9 9 -27t-7 -37t-21 -30q-8 -6 -22.5 -9t-29.5 -3zM592 818q-39 0 -51 15
q-7 8 -7 25q0 19 7.5 38.5t23.5 29.5q17 10 52 10t46 -12q5 -5 7 -12t2 -15q0 -17 -6.5 -36.5t-21.5 -30.5q-8 -6 -22 -9t-30 -3z" />
    <glyph glyph-name="Aring" unicode="&#xc5;" horiz-adv-x="771" 
d="M521 0l-22 218h-261l-117 -218h-175l418 749l239 1l85 -750h-167zM465 605h-26l-135 -259h184zM484 808q-40 0 -65.5 17t-25.5 54q0 26 9 54.5t32 45.5q17 14 39 19.5t51 5.5q42 0 65.5 -17t23.5 -52q0 -24 -9 -54t-32 -48q-15 -12 -36 -18.5t-52 -6.5zM493 858
q26 0 38 12q9 9 14 24.5t5 31.5q0 26 -37 26q-28 0 -39 -11q-8 -9 -13 -23.5t-5 -29.5t8 -22.5t29 -7.5z" />
    <glyph glyph-name="AE" unicode="&#xc6;" horiz-adv-x="1061" 
d="M1114 750l-52 -135h-332l-35 -167h295l-52 -131h-271l-38 -180h368l-59 -137h-497l46 218h-219l-151 -218h-180l531 750h646zM571 613h-37l-182 -267h162z" />
    <glyph glyph-name="Ccedilla" unicode="&#xc7;" horiz-adv-x="691" 
d="M315 -9q-147 6 -204 81q-23 29 -35.5 73.5t-12.5 100.5q0 64 12 129t35.5 124.5t58.5 109.5t82 83q50 35 115 51t146 16q71 0 126 -8.5t97 -19.5l-24 -125q-35 6 -82.5 12t-102.5 6q-69 0 -108 -10.5t-67 -30.5q-30 -23 -53 -59.5t-38.5 -79.5t-23 -89t-7.5 -87
q0 -32 6 -58.5t19 -41.5q36 -40 140 -40q63 0 120 9t100 18l-27 -129q-41 -13 -95 -23t-121 -12l-16 -39q58 -2 77 -21q13 -12 13 -44q0 -33 -13 -61.5t-33 -40.5q-38 -24 -118 -24q-32 0 -58.5 5t-43.5 12l10 65q20 -5 43.5 -9t52.5 -4q23 0 35.5 2.5t17.5 6.5q6 4 10.5 14
t4.5 21q0 9 -5 16q-5 4 -14.5 6t-32.5 2h-28z" />
    <glyph glyph-name="Egrave" unicode="&#xc8;" horiz-adv-x="639" 
d="M515 0h-499l159 750h517l-53 -135h-331l-36 -167h296l-52 -131h-271l-39 -180h368zM393 955l127 -142h-109l-170 142h152z" />
    <glyph glyph-name="Eacute" unicode="&#xc9;" horiz-adv-x="639" 
d="M515 0h-499l159 750h517l-53 -135h-331l-36 -167h296l-52 -131h-271l-39 -180h368zM489 955h161l-212 -143h-116z" />
    <glyph glyph-name="Ecircumflex" unicode="&#xca;" horiz-adv-x="639" 
d="M515 0h-499l159 750h517l-53 -135h-331l-36 -167h296l-52 -131h-271l-39 -180h368zM630 811h-99l-67 71l-99 -71h-109l160 136h112z" />
    <glyph glyph-name="Edieresis" unicode="&#xcb;" horiz-adv-x="639" 
d="M515 0h-499l159 750h517l-53 -135h-331l-36 -167h296l-52 -131h-271l-39 -180h368zM329 818q-38 0 -51 15q-7 8 -7 27q0 17 7.5 36.5t23.5 29.5q17 10 51 10q35 0 47 -12q9 -9 9 -27t-7 -37t-21 -30q-8 -6 -22.5 -9t-29.5 -3zM546 818q-39 0 -51 15q-7 8 -7 25
q0 19 7.5 38.5t23.5 29.5q17 10 52 10t46 -12q5 -5 7 -12t2 -15q0 -17 -6.5 -36.5t-21.5 -30.5q-8 -6 -22 -9t-30 -3z" />
    <glyph glyph-name="Igrave" unicode="&#xcc;" horiz-adv-x="331" 
d="M22 0l158 750h161l-159 -750h-160zM229 955l127 -142h-109l-170 142h152z" />
    <glyph glyph-name="Iacute" unicode="&#xcd;" horiz-adv-x="331" 
d="M22 0l158 750h161l-159 -750h-160zM350 955h161l-212 -143h-116z" />
    <glyph glyph-name="Icircumflex" unicode="&#xce;" horiz-adv-x="331" 
d="M22 0l158 750h161l-159 -750h-160zM455 811h-99l-67 71l-99 -71h-109l160 136h112z" />
    <glyph glyph-name="Idieresis" unicode="&#xcf;" horiz-adv-x="331" 
d="M22 0l158 750h161l-159 -750h-160zM161 818q-38 0 -51 15q-7 8 -7 27q0 17 7.5 36.5t23.5 29.5q17 10 51 10q35 0 47 -12q9 -9 9 -27t-7 -37t-21 -30q-8 -6 -22.5 -9t-29.5 -3zM378 818q-39 0 -51 15q-7 8 -7 25q0 19 7.5 38.5t23.5 29.5q17 10 52 10t46 -12q5 -5 7 -12
t2 -15q0 -17 -6.5 -36.5t-21.5 -30.5q-8 -6 -22 -9t-30 -3z" />
    <glyph glyph-name="Eth" unicode="&#xd0;" horiz-adv-x="803" 
d="M453 750q60 0 104.5 -5t77.5 -14.5t55.5 -24t38.5 -32.5q20 -24 32 -65t12 -101q0 -59 -13 -124.5t-37 -126.5t-58 -112t-76 -81q-49 -35 -120 -49.5t-168 -14.5h-280l69 327h-81l35 95h65l70 328h274zM270 422h174l-35 -95h-159l-40 -190h96q75 0 117 7.5t68 27.5
q27 20 49 59t37 84.5t23 91.5t8 81q0 63 -22 88q-33 39 -159 39h-116z" />
    <glyph glyph-name="Ntilde" unicode="&#xd1;" horiz-adv-x="870" 
d="M482 0l-169 602h-16l-128 -602h-145l158 750h244l164 -597h15l127 597h147l-159 -750h-238zM358 824q13 55 43 88.5t82 33.5q25 0 43.5 -8.5t34 -19t29.5 -19t29 -8.5q37 0 50 49h67q-14 -63 -47 -93t-78 -30q-25 0 -43.5 8.5t-34 19t-29.5 19t-30 8.5q-21 0 -32.5 -13
t-16.5 -35h-67z" />
    <glyph glyph-name="Ograve" unicode="&#xd2;" horiz-adv-x="830" 
d="M376 127q48 -1 83 10t60 29q26 20 47.5 58.5t36.5 84.5t23.5 93.5t8.5 86.5q0 56 -20 84q-14 21 -47.5 34t-82.5 13q-48 0 -82 -9.5t-62 -31.5q-28 -23 -49.5 -61t-36 -82t-22 -90t-7.5 -85q0 -32 5 -53t16 -35q16 -22 50 -34t79 -12zM500 760q97 0 158 -22.5t93 -63.5
q48 -57 48 -170q0 -55 -11 -118t-33.5 -123.5t-56.5 -114t-79 -89.5q-25 -20 -56.5 -33.5t-65.5 -21.5t-67.5 -11.5t-63.5 -3.5q-53 0 -93.5 6.5t-70.5 17.5t-52 27t-37 34q-21 25 -35 66.5t-14 105.5q0 58 10.5 121t32.5 122.5t55.5 111t79.5 86.5q48 35 110 54t148 19z
M493 955l127 -142h-109l-170 142h152z" />
    <glyph glyph-name="Oacute" unicode="&#xd3;" horiz-adv-x="830" 
d="M376 127q48 -1 83 10t60 29q26 20 47.5 58.5t36.5 84.5t23.5 93.5t8.5 86.5q0 56 -20 84q-14 21 -47.5 34t-82.5 13q-48 0 -82 -9.5t-62 -31.5q-28 -23 -49.5 -61t-36 -82t-22 -90t-7.5 -85q0 -32 5 -53t16 -35q16 -22 50 -34t79 -12zM500 760q97 0 158 -22.5t93 -63.5
q48 -57 48 -170q0 -55 -11 -118t-33.5 -123.5t-56.5 -114t-79 -89.5q-25 -20 -56.5 -33.5t-65.5 -21.5t-67.5 -11.5t-63.5 -3.5q-53 0 -93.5 6.5t-70.5 17.5t-52 27t-37 34q-21 25 -35 66.5t-14 105.5q0 58 10.5 121t32.5 122.5t55.5 111t79.5 86.5q48 35 110 54t148 19z
M586 955h161l-212 -143h-116z" />
    <glyph glyph-name="Ocircumflex" unicode="&#xd4;" horiz-adv-x="830" 
d="M376 127q48 -1 83 10t60 29q26 20 47.5 58.5t36.5 84.5t23.5 93.5t8.5 86.5q0 56 -20 84q-14 21 -47.5 34t-82.5 13q-48 0 -82 -9.5t-62 -31.5q-28 -23 -49.5 -61t-36 -82t-22 -90t-7.5 -85q0 -32 5 -53t16 -35q16 -22 50 -34t79 -12zM500 760q97 0 158 -22.5t93 -63.5
q48 -57 48 -170q0 -55 -11 -118t-33.5 -123.5t-56.5 -114t-79 -89.5q-25 -20 -56.5 -33.5t-65.5 -21.5t-67.5 -11.5t-63.5 -3.5q-53 0 -93.5 6.5t-70.5 17.5t-52 27t-37 34q-21 25 -35 66.5t-14 105.5q0 58 10.5 121t32.5 122.5t55.5 111t79.5 86.5q48 35 110 54t148 19z
M707 811h-99l-67 71l-99 -71h-109l160 136h112z" />
    <glyph glyph-name="Otilde" unicode="&#xd5;" horiz-adv-x="830" 
d="M376 127q48 -1 83 10t60 29q26 20 47.5 58.5t36.5 84.5t23.5 93.5t8.5 86.5q0 56 -20 84q-14 21 -47.5 34t-82.5 13q-48 0 -82 -9.5t-62 -31.5q-28 -23 -49.5 -61t-36 -82t-22 -90t-7.5 -85q0 -32 5 -53t16 -35q16 -22 50 -34t79 -12zM500 760q97 0 158 -22.5t93 -63.5
q48 -57 48 -170q0 -55 -11 -118t-33.5 -123.5t-56.5 -114t-79 -89.5q-25 -20 -56.5 -33.5t-65.5 -21.5t-67.5 -11.5t-63.5 -3.5q-53 0 -93.5 6.5t-70.5 17.5t-52 27t-37 34q-21 25 -35 66.5t-14 105.5q0 58 10.5 121t32.5 122.5t55.5 111t79.5 86.5q48 35 110 54t148 19z
M329 824q13 55 43 88.5t82 33.5q25 0 43.5 -8.5t34 -19t29.5 -19t29 -8.5q37 0 50 49h67q-14 -63 -47 -93t-78 -30q-25 0 -43.5 8.5t-34 19t-29.5 19t-30 8.5q-21 0 -32.5 -13t-16.5 -35h-67z" />
    <glyph glyph-name="Odieresis" unicode="&#xd6;" horiz-adv-x="830" 
d="M376 127q48 -1 83 10t60 29q26 20 47.5 58.5t36.5 84.5t23.5 93.5t8.5 86.5q0 56 -20 84q-14 21 -47.5 34t-82.5 13q-48 0 -82 -9.5t-62 -31.5q-28 -23 -49.5 -61t-36 -82t-22 -90t-7.5 -85q0 -32 5 -53t16 -35q16 -22 50 -34t79 -12zM500 760q97 0 158 -22.5t93 -63.5
q48 -57 48 -170q0 -55 -11 -118t-33.5 -123.5t-56.5 -114t-79 -89.5q-25 -20 -56.5 -33.5t-65.5 -21.5t-67.5 -11.5t-63.5 -3.5q-53 0 -93.5 6.5t-70.5 17.5t-52 27t-37 34q-21 25 -35 66.5t-14 105.5q0 58 10.5 121t32.5 122.5t55.5 111t79.5 86.5q48 35 110 54t148 19z
M404 818q-38 0 -51 15q-7 8 -7 27q0 17 7.5 36.5t23.5 29.5q17 10 51 10q35 0 47 -12q9 -9 9 -27t-7 -37t-21 -30q-8 -6 -22.5 -9t-29.5 -3zM621 818q-39 0 -51 15q-7 8 -7 25q0 19 7.5 38.5t23.5 29.5q17 10 52 10t46 -12q5 -5 7 -12t2 -15q0 -17 -6.5 -36.5t-21.5 -30.5
q-8 -6 -22 -9t-30 -3z" />
    <glyph glyph-name="multiply" unicode="&#xd7;" horiz-adv-x="666" 
d="M155 602l177 -178l178 178l86 -86l-178 -178l178 -176l-86 -86l-178 177l-177 -177l-85 86l177 176l-177 178z" />
    <glyph glyph-name="Oslash" unicode="&#xd8;" horiz-adv-x="830" 
d="M-5 -3l101 101q-15 25 -23.5 61.5t-8.5 89.5q0 57 10.5 119.5t32.5 121.5t55.5 110.5t79.5 86.5q48 35 110.5 54t147.5 19q74 0 126 -13.5t87 -37.5l47 45h104l-100 -98q15 -26 25 -64.5t10 -89.5q0 -56 -11 -118.5t-33.5 -122.5t-56.5 -113t-79 -89q-25 -20 -56.5 -33.5
t-65.5 -21.5t-67.5 -11.5t-63.5 -3.5q-83 0 -136 14.5t-85 40.5l-47 -47h-103zM375 125q50 -1 85 10t59 28q26 20 47.5 58t37 82.5t24 89.5t8.5 79q0 29 -6 50l-370 -365q19 -17 49.5 -24.5t65.5 -7.5zM225 278q0 -28 6 -47l366 363q-18 14 -47 21t-65 7q-47 0 -80.5 -8.5
t-62.5 -30.5q-28 -22 -49.5 -58t-36.5 -78.5t-23 -86.5t-8 -82z" />
    <glyph glyph-name="Ugrave" unicode="&#xd9;" horiz-adv-x="782" 
d="M792 750l-97 -456q-19 -91 -45 -147t-64 -89q-35 -31 -98.5 -51t-152.5 -20q-59 0 -101 7.5t-70.5 20.5t-46 28.5t-28.5 32.5q-12 19 -19 44t-7 59q0 26 3.5 58t13.5 77l92 436h161l-93 -439q-8 -35 -11.5 -61t-3.5 -43q0 -27 10 -41q11 -15 38 -26t78 -11q47 0 78 10
t49 26q16 13 30 43.5t28 92.5l96 449h160zM437 955l127 -142h-109l-170 142h152z" />
    <glyph glyph-name="Uacute" unicode="&#xda;" horiz-adv-x="782" 
d="M792 750l-97 -456q-19 -91 -45 -147t-64 -89q-35 -31 -98.5 -51t-152.5 -20q-59 0 -101 7.5t-70.5 20.5t-46 28.5t-28.5 32.5q-12 19 -19 44t-7 59q0 26 3.5 58t13.5 77l92 436h161l-93 -439q-8 -35 -11.5 -61t-3.5 -43q0 -27 10 -41q11 -15 38 -26t78 -11q47 0 78 10
t49 26q16 13 30 43.5t28 92.5l96 449h160zM575 955h161l-212 -143h-116z" />
    <glyph glyph-name="Ucircumflex" unicode="&#xdb;" horiz-adv-x="782" 
d="M792 750l-97 -456q-19 -91 -45 -147t-64 -89q-35 -31 -98.5 -51t-152.5 -20q-59 0 -101 7.5t-70.5 20.5t-46 28.5t-28.5 32.5q-12 19 -19 44t-7 59q0 26 3.5 58t13.5 77l92 436h161l-93 -439q-8 -35 -11.5 -61t-3.5 -43q0 -27 10 -41q11 -15 38 -26t78 -11q47 0 78 10
t49 26q16 13 30 43.5t28 92.5l96 449h160zM672 811h-99l-67 71l-99 -71h-109l160 136h112z" />
    <glyph glyph-name="Udieresis" unicode="&#xdc;" horiz-adv-x="782" 
d="M792 750l-97 -456q-19 -91 -45 -147t-64 -89q-35 -31 -98.5 -51t-152.5 -20q-59 0 -101 7.5t-70.5 20.5t-46 28.5t-28.5 32.5q-12 19 -19 44t-7 59q0 26 3.5 58t13.5 77l92 436h161l-93 -439q-8 -35 -11.5 -61t-3.5 -43q0 -27 10 -41q11 -15 38 -26t78 -11q47 0 78 10
t49 26q16 13 30 43.5t28 92.5l96 449h160zM382 818q-38 0 -51 15q-7 8 -7 27q0 17 7.5 36.5t23.5 29.5q17 10 51 10q35 0 47 -12q9 -9 9 -27t-7 -37t-21 -30q-8 -6 -22.5 -9t-29.5 -3zM599 818q-39 0 -51 15q-7 8 -7 25q0 19 7.5 38.5t23.5 29.5q17 10 52 10t46 -12
q5 -5 7 -12t2 -15q0 -17 -6.5 -36.5t-21.5 -30.5q-8 -6 -22 -9t-30 -3z" />
    <glyph glyph-name="Yacute" unicode="&#xdd;" horiz-adv-x="709" 
d="M359 0h-166l52 245l-143 505h166l84 -344h12l234 344h193l-380 -505zM512 955h161l-212 -143h-116z" />
    <glyph glyph-name="Thorn" unicode="&#xde;" horiz-adv-x="688" 
d="M214 144l-30 -144h-161l159 750h162l-25 -118h129q69 0 113 -10.5t67 -33.5q20 -20 31.5 -51.5t11.5 -77.5q0 -35 -6.5 -72.5t-20.5 -73.5t-36 -67.5t-52 -52.5q-21 -15 -43.5 -24.5t-52 -15t-67.5 -7.5t-89 -2h-90zM442 285q19 9 32 27t21 39t12 43.5t4 41.5
q0 18 -4 30.5t-12 21.5q-10 11 -32.5 15.5t-52.5 4.5h-118l-51 -237h98q77 0 103 14z" />
    <glyph glyph-name="germandbls" unicode="&#xdf;" horiz-adv-x="761" 
d="M610 461q-54 0 -78 -11t-32 -37q-2 -5 -3 -11.5t-1 -11.5q0 -8 1.5 -14.5t7.5 -11.5q8 -8 25 -15.5t49 -17.5q44 -14 69.5 -27.5t37.5 -28.5q15 -22 15 -59q0 -25 -7 -56q-10 -45 -26.5 -76t-45.5 -51q-28 -21 -74 -31t-115 -10q-50 0 -95 6t-77 16l21 104q22 -5 62 -9.5
t78 -4.5q37 0 59 4.5t35 16.5q14 13 20 36q2 6 2 11v10q0 16 -6 23q-8 10 -25 17.5t-45 15.5q-48 14 -73.5 30.5t-36.5 38.5q-11 19 -11 52q0 13 2 27.5t6 31.5q7 36 19.5 62t31.5 43t45.5 25t63.5 8h19q2 6 4.5 15t5.5 19q1 8 2 16.5t1 15.5q0 36 -23.5 51t-71.5 15
q-34 0 -58 -6t-41 -22.5t-29 -44.5t-21 -72l-114 -543h-160l113 534q15 73 37 124t58.5 83.5t91.5 47t137 14.5q66 0 112 -10.5t74.5 -31.5t41 -51.5t12.5 -70.5q0 -18 -2 -35.5t-7 -37.5q-6 -29 -15.5 -55.5t-20.5 -49.5h-45z" />
    <glyph glyph-name="agrave" unicode="&#xe0;" horiz-adv-x="631" 
d="M372 0l-17 87h-7l-72 -77q-20 -9 -49.5 -14t-60.5 -5q-54 0 -83.5 11.5t-46.5 31.5q-11 14 -16.5 35.5t-5.5 46.5t5.5 52t16.5 51.5t28 45.5t40 33q42 22 117 32.5t184 17.5q8 30 8 52q0 19 -7 29q-8 14 -32.5 18t-59.5 4q-25 0 -52.5 -2t-54.5 -5t-51 -6.5t-42 -6.5
l27 112q42 11 103.5 21.5t132.5 10.5q69 0 110 -11.5t61 -34.5q15 -17 21.5 -39t6.5 -52q0 -49 -16 -122l-67 -316h-121zM386 252q-24 -1 -52.5 -2.5t-55 -4t-46.5 -6t-27 -8.5q-18 -14 -27.5 -39t-9.5 -48q0 -17 8 -28q7 -8 22.5 -11t38.5 -3q35 0 68.5 7.5t51.5 13.5z
M345 765l127 -142h-109l-170 142h152z" />
    <glyph glyph-name="aacute" unicode="&#xe1;" horiz-adv-x="631" 
d="M372 0l-17 87h-7l-72 -77q-20 -9 -49.5 -14t-60.5 -5q-54 0 -83.5 11.5t-46.5 31.5q-11 14 -16.5 35.5t-5.5 46.5t5.5 52t16.5 51.5t28 45.5t40 33q42 22 117 32.5t184 17.5q8 30 8 52q0 19 -7 29q-8 14 -32.5 18t-59.5 4q-25 0 -52.5 -2t-54.5 -5t-51 -6.5t-42 -6.5
l27 112q42 11 103.5 21.5t132.5 10.5q69 0 110 -11.5t61 -34.5q15 -17 21.5 -39t6.5 -52q0 -49 -16 -122l-67 -316h-121zM386 252q-24 -1 -52.5 -2.5t-55 -4t-46.5 -6t-27 -8.5q-18 -14 -27.5 -39t-9.5 -48q0 -17 8 -28q7 -8 22.5 -11t38.5 -3q35 0 68.5 7.5t51.5 13.5z
M436 765h161l-212 -143h-116z" />
    <glyph glyph-name="acircumflex" unicode="&#xe2;" horiz-adv-x="631" 
d="M372 0l-17 87h-7l-72 -77q-20 -9 -49.5 -14t-60.5 -5q-54 0 -83.5 11.5t-46.5 31.5q-11 14 -16.5 35.5t-5.5 46.5t5.5 52t16.5 51.5t28 45.5t40 33q42 22 117 32.5t184 17.5q8 30 8 52q0 19 -7 29q-8 14 -32.5 18t-59.5 4q-25 0 -52.5 -2t-54.5 -5t-51 -6.5t-42 -6.5
l27 112q42 11 103.5 21.5t132.5 10.5q69 0 110 -11.5t61 -34.5q15 -17 21.5 -39t6.5 -52q0 -49 -16 -122l-67 -316h-121zM386 252q-24 -1 -52.5 -2.5t-55 -4t-46.5 -6t-27 -8.5q-18 -14 -27.5 -39t-9.5 -48q0 -17 8 -28q7 -8 22.5 -11t38.5 -3q35 0 68.5 7.5t51.5 13.5z
M560 622h-99l-67 71l-99 -71h-109l160 136h112z" />
    <glyph glyph-name="atilde" unicode="&#xe3;" horiz-adv-x="631" 
d="M372 0l-17 87h-7l-72 -77q-20 -9 -49.5 -14t-60.5 -5q-54 0 -83.5 11.5t-46.5 31.5q-11 14 -16.5 35.5t-5.5 46.5t5.5 52t16.5 51.5t28 45.5t40 33q42 22 117 32.5t184 17.5q8 30 8 52q0 19 -7 29q-8 14 -32.5 18t-59.5 4q-25 0 -52.5 -2t-54.5 -5t-51 -6.5t-42 -6.5
l27 112q42 11 103.5 21.5t132.5 10.5q69 0 110 -11.5t61 -34.5q15 -17 21.5 -39t6.5 -52q0 -49 -16 -122l-67 -316h-121zM386 252q-24 -1 -52.5 -2.5t-55 -4t-46.5 -6t-27 -8.5q-18 -14 -27.5 -39t-9.5 -48q0 -17 8 -28q7 -8 22.5 -11t38.5 -3q35 0 68.5 7.5t51.5 13.5z
M194 635q13 55 43 88.5t82 33.5q25 0 43.5 -8.5t34 -19t29.5 -19t29 -8.5q37 0 50 49h67q-14 -63 -47 -93t-78 -30q-25 0 -43.5 8.5t-34 19t-29.5 19t-30 8.5q-21 0 -32.5 -13t-16.5 -35h-67z" />
    <glyph glyph-name="adieresis" unicode="&#xe4;" horiz-adv-x="631" 
d="M372 0l-17 87h-7l-72 -77q-20 -9 -49.5 -14t-60.5 -5q-54 0 -83.5 11.5t-46.5 31.5q-11 14 -16.5 35.5t-5.5 46.5t5.5 52t16.5 51.5t28 45.5t40 33q42 22 117 32.5t184 17.5q8 30 8 52q0 19 -7 29q-8 14 -32.5 18t-59.5 4q-25 0 -52.5 -2t-54.5 -5t-51 -6.5t-42 -6.5
l27 112q42 11 103.5 21.5t132.5 10.5q69 0 110 -11.5t61 -34.5q15 -17 21.5 -39t6.5 -52q0 -49 -16 -122l-67 -316h-121zM386 252q-24 -1 -52.5 -2.5t-55 -4t-46.5 -6t-27 -8.5q-18 -14 -27.5 -39t-9.5 -48q0 -17 8 -28q7 -8 22.5 -11t38.5 -3q35 0 68.5 7.5t51.5 13.5z
M264 629q-38 0 -51 15q-7 8 -7 27q0 17 7.5 36.5t23.5 29.5q17 10 51 10q35 0 47 -12q9 -9 9 -27t-7 -37t-21 -30q-8 -6 -22.5 -9t-29.5 -3zM481 629q-39 0 -51 15q-7 8 -7 25q0 19 7.5 38.5t23.5 29.5q17 10 52 10t46 -12q5 -5 7 -12t2 -15q0 -17 -6.5 -36.5t-21.5 -30.5
q-8 -6 -22 -9t-30 -3z" />
    <glyph glyph-name="aring" unicode="&#xe5;" horiz-adv-x="631" 
d="M372 0l-17 87h-7l-72 -77q-20 -9 -49.5 -14t-60.5 -5q-54 0 -83.5 11.5t-46.5 31.5q-11 14 -16.5 35.5t-5.5 46.5t5.5 52t16.5 51.5t28 45.5t40 33q42 22 117 32.5t184 17.5q8 30 8 52q0 19 -7 29q-8 14 -32.5 18t-59.5 4q-25 0 -52.5 -2t-54.5 -5t-51 -6.5t-42 -6.5
l27 112q42 11 103.5 21.5t132.5 10.5q69 0 110 -11.5t61 -34.5q15 -17 21.5 -39t6.5 -52q0 -49 -16 -122l-67 -316h-121zM386 252q-24 -1 -52.5 -2.5t-55 -4t-46.5 -6t-27 -8.5q-18 -14 -27.5 -39t-9.5 -48q0 -17 8 -28q7 -8 22.5 -11t38.5 -3q35 0 68.5 7.5t51.5 13.5z
M376 615q-40 0 -65.5 17t-25.5 54q0 26 9 54.5t32 45.5q17 14 39 19.5t51 5.5q42 0 65.5 -17t23.5 -52q0 -24 -9 -54t-32 -48q-15 -12 -36 -18.5t-52 -6.5zM385 665q26 0 38 12q9 9 14 24.5t5 31.5q0 26 -37 26q-28 0 -39 -11q-8 -9 -13 -23.5t-5 -29.5t8 -22.5t29 -7.5z
" />
    <glyph glyph-name="ae" unicode="&#xe6;" horiz-adv-x="938" 
d="M816 23q-42 -13 -94 -23t-118 -10q-81 0 -132.5 24t-75.5 75h-7l-69 -74q-20 -10 -59 -17t-86 -7q-58 0 -90 11.5t-49 31.5q-11 15 -16.5 36t-5.5 46t5 52t16 51.5t27.5 45.5t39.5 33q42 23 117.5 32t184.5 14q4 14 6.5 28.5t2.5 25.5q0 35 -27.5 44.5t-71.5 9.5
q-25 0 -52.5 -2t-54.5 -5.5t-51 -7t-42 -6.5l27 112q42 11 101 21.5t125 10.5t103.5 -15t57.5 -42q29 25 76.5 42t113.5 17q110 0 158 -42t48 -114q0 -47 -17 -80t-49.5 -53.5t-80.5 -30t-109 -9.5h-127q-2 -13 -3.5 -27t-1.5 -25q0 -40 20 -59q25 -24 99 -24q28 0 56.5 3
t54 6.5t48 8t38.5 7.5zM384 248q-24 0 -52 -1t-54 -3t-46 -5.5t-27 -8.5q-18 -13 -27.5 -38t-9.5 -48q0 -17 8 -28q7 -8 22.5 -11t39.5 -3q18 0 38 2.5t39.5 6t37.5 8.5t32 10q-6 24 -6 55q1 17 2 33.5t3 30.5zM767 413q0 23 -16 38.5t-58 15.5q-47 0 -77 -24
q-39 -29 -56 -99h96q53 0 82 15.5t29 53.5z" />
    <glyph glyph-name="ccedilla" unicode="&#xe7;" horiz-adv-x="541" 
d="M217 -8q-41 4 -71.5 15.5t-52.5 33.5q-50 47 -50 142q0 47 9 97.5t27.5 97t45.5 86t63 63.5q38 26 83 37t99 11q62 0 106 -7t71 -13l-16 -117q-26 4 -57.5 8.5t-74.5 4.5q-36 0 -64 -6t-49 -22q-19 -14 -34 -39.5t-25.5 -56t-16 -62t-5.5 -57.5q0 -45 22 -69
q26 -23 88 -23q43 0 84 6.5t72 11.5l-29 -117q-35 -11 -75.5 -18.5t-93.5 -8.5l-16 -38q58 -2 77 -21q13 -12 13 -44q0 -33 -13 -61.5t-33 -40.5q-38 -24 -118 -24q-32 0 -58.5 5t-43.5 12l10 65q20 -5 43.5 -9t52.5 -4q23 0 35.5 2.5t17.5 6.5q6 4 10.5 14t4.5 21
q0 9 -5 16q-5 4 -14.5 6t-32.5 2h-28z" />
    <glyph glyph-name="egrave" unicode="&#xe8;" horiz-adv-x="612" 
d="M40 188q0 49 9 98t26.5 93.5t43 81t58.5 60.5q38 29 86.5 42.5t114.5 13.5q111 0 161 -41t50 -115q0 -95 -68 -139.5t-203 -44.5q-31 0 -60 1.5t-52 4.5q-5 -28 -5 -47q0 -41 19 -59q14 -13 39 -18.5t60 -5.5q28 0 56.5 3t54.5 6.5t48 8t39 7.5l-36 -115q-42 -13 -95 -23
t-122 -10q-63 0 -105.5 14t-69.5 41q-23 23 -36 59t-13 84zM357 467q-46 0 -76 -24q-36 -29 -55 -100q17 -2 43 -3t50 -1q52 1 82.5 19t30.5 54q0 23 -16.5 39t-58.5 16zM342 765l127 -142h-109l-170 142h152z" />
    <glyph glyph-name="eacute" unicode="&#xe9;" horiz-adv-x="612" 
d="M40 188q0 49 9 98t26.5 93.5t43 81t58.5 60.5q38 29 86.5 42.5t114.5 13.5q111 0 161 -41t50 -115q0 -95 -68 -139.5t-203 -44.5q-31 0 -60 1.5t-52 4.5q-5 -28 -5 -47q0 -41 19 -59q14 -13 39 -18.5t60 -5.5q28 0 56.5 3t54.5 6.5t48 8t39 7.5l-36 -115q-42 -13 -95 -23
t-122 -10q-63 0 -105.5 14t-69.5 41q-23 23 -36 59t-13 84zM357 467q-46 0 -76 -24q-36 -29 -55 -100q17 -2 43 -3t50 -1q52 1 82.5 19t30.5 54q0 23 -16.5 39t-58.5 16zM436 765h161l-212 -143h-116z" />
    <glyph glyph-name="ecircumflex" unicode="&#xea;" horiz-adv-x="612" 
d="M40 188q0 49 9 98t26.5 93.5t43 81t58.5 60.5q38 29 86.5 42.5t114.5 13.5q111 0 161 -41t50 -115q0 -95 -68 -139.5t-203 -44.5q-31 0 -60 1.5t-52 4.5q-5 -28 -5 -47q0 -41 19 -59q14 -13 39 -18.5t60 -5.5q28 0 56.5 3t54.5 6.5t48 8t39 7.5l-36 -115q-42 -13 -95 -23
t-122 -10q-63 0 -105.5 14t-69.5 41q-23 23 -36 59t-13 84zM357 467q-46 0 -76 -24q-36 -29 -55 -100q17 -2 43 -3t50 -1q52 1 82.5 19t30.5 54q0 23 -16.5 39t-58.5 16zM569 622h-99l-67 71l-99 -71h-109l160 136h112z" />
    <glyph glyph-name="edieresis" unicode="&#xeb;" horiz-adv-x="612" 
d="M40 188q0 49 9 98t26.5 93.5t43 81t58.5 60.5q38 29 86.5 42.5t114.5 13.5q111 0 161 -41t50 -115q0 -95 -68 -139.5t-203 -44.5q-31 0 -60 1.5t-52 4.5q-5 -28 -5 -47q0 -41 19 -59q14 -13 39 -18.5t60 -5.5q28 0 56.5 3t54.5 6.5t48 8t39 7.5l-36 -115q-42 -13 -95 -23
t-122 -10q-63 0 -105.5 14t-69.5 41q-23 23 -36 59t-13 84zM357 467q-46 0 -76 -24q-36 -29 -55 -100q17 -2 43 -3t50 -1q52 1 82.5 19t30.5 54q0 23 -16.5 39t-58.5 16zM268 629q-38 0 -51 15q-7 8 -7 27q0 17 7.5 36.5t23.5 29.5q17 10 51 10q35 0 47 -12q9 -9 9 -27
t-7 -37t-21 -30q-8 -6 -22.5 -9t-29.5 -3zM485 629q-39 0 -51 15q-7 8 -7 25q0 19 7.5 38.5t23.5 29.5q17 10 52 10t46 -12q5 -5 7 -12t2 -15q0 -17 -6.5 -36.5t-21.5 -30.5q-8 -6 -22 -9t-30 -3z" />
    <glyph glyph-name="igrave" unicode="&#xec;" horiz-adv-x="312" 
d="M15 0l119 561h162l-119 -561h-162zM180 765l127 -142h-109l-170 142h152z" />
    <glyph glyph-name="iacute" unicode="&#xed;" horiz-adv-x="312" 
d="M15 0l119 561h162l-119 -561h-162zM299 765h161l-212 -143h-116z" />
    <glyph glyph-name="icircumflex" unicode="&#xee;" horiz-adv-x="312" 
d="M15 0l119 561h162l-119 -561h-162zM406 622h-99l-67 71l-99 -71h-109l160 136h112z" />
    <glyph glyph-name="idieresis" unicode="&#xef;" horiz-adv-x="312" 
d="M15 0l119 561h162l-119 -561h-162zM117 629q-38 0 -51 15q-7 8 -7 27q0 17 7.5 36.5t23.5 29.5q17 10 51 10q35 0 47 -12q9 -9 9 -27t-7 -37t-21 -30q-8 -6 -22.5 -9t-29.5 -3zM334 629q-39 0 -51 15q-7 8 -7 25q0 19 7.5 38.5t23.5 29.5q17 10 52 10t46 -12q5 -5 7 -12
t2 -15q0 -17 -6.5 -36.5t-21.5 -30.5q-8 -6 -22 -9t-30 -3z" />
    <glyph glyph-name="eth" unicode="&#xf0;" horiz-adv-x="668" 
d="M371 676q-34 15 -79 22.5t-99 9.5l64 101q79 -3 141 -17t107 -40l128 70l29 -62l-99 -54q36 -38 57.5 -97.5t21.5 -133.5q0 -41 -4 -86t-15 -92q-20 -92 -56 -157.5t-75 -94.5q-40 -30 -87.5 -43t-123.5 -13q-45 0 -78.5 5t-57.5 14t-40.5 20.5t-28.5 24.5
q-37 43 -37 125q0 19 2.5 40t7.5 47q14 66 45.5 119t73.5 82q38 26 89.5 36t102.5 10q49 0 80 -7t51 -14q-1 45 -14.5 81.5t-39.5 61.5l-152 -82l-30 63zM458 262q7 26 12.5 59t7.5 62q-15 9 -46.5 16t-64.5 7q-62 0 -96 -26q-10 -8 -19.5 -21.5t-18 -30.5t-15.5 -36
t-11 -37q-4 -19 -5.5 -35t-1.5 -28q0 -20 3 -34.5t11 -22.5q9 -13 30 -20.5t53 -7.5t55.5 7t37.5 18q18 14 36 44.5t32 85.5z" />
    <glyph glyph-name="ntilde" unicode="&#xf1;" horiz-adv-x="684" 
d="M383 0l69 326q9 40 9 67q0 21 -8 32q-9 11 -27 15t-39 4q-35 0 -65.5 -8.5t-53.5 -16.5l-89 -419h-162l119 561h128l9 -94h7l71 76q21 11 55.5 19t79.5 8q88 0 123 -45q10 -15 16 -34t6 -46q0 -21 -4 -47.5t-12 -65.5l-70 -332h-162zM228 635q13 55 43 88.5t82 33.5
q25 0 43.5 -8.5t34 -19t29.5 -19t29 -8.5q37 0 50 49h67q-14 -63 -47 -93t-78 -30q-25 0 -43.5 8.5t-34 19t-29.5 19t-30 8.5q-21 0 -32.5 -13t-16.5 -35h-67z" />
    <glyph glyph-name="ograve" unicode="&#xf2;" horiz-adv-x="669" 
d="M628 380q0 -44 -9 -92t-26.5 -94t-43 -85t-59.5 -65q-40 -29 -91 -42t-123 -13q-78 0 -125 19t-71 48q-17 21 -27 53t-10 79q0 40 7.5 86t24 91t41.5 85t61 67q38 29 89.5 44t123.5 14q78 0 125.5 -18t69.5 -44q19 -20 31 -53t12 -80zM392 138q17 13 31 40t24.5 59
t16.5 65.5t6 60.5q0 22 -3.5 36t-10.5 24q-23 28 -82 28q-35 0 -58.5 -8t-39.5 -20q-18 -15 -32.5 -41.5t-24.5 -58t-15.5 -64t-5.5 -58.5q0 -20 3 -35.5t10 -24.5q12 -15 33 -22.5t54 -7.5q29 0 53 6.5t41 20.5zM361 765l127 -142h-109l-170 142h152z" />
    <glyph glyph-name="oacute" unicode="&#xf3;" horiz-adv-x="669" 
d="M628 380q0 -44 -9 -92t-26.5 -94t-43 -85t-59.5 -65q-40 -29 -91 -42t-123 -13q-78 0 -125 19t-71 48q-17 21 -27 53t-10 79q0 40 7.5 86t24 91t41.5 85t61 67q38 29 89.5 44t123.5 14q78 0 125.5 -18t69.5 -44q19 -20 31 -53t12 -80zM392 138q17 13 31 40t24.5 59
t16.5 65.5t6 60.5q0 22 -3.5 36t-10.5 24q-23 28 -82 28q-35 0 -58.5 -8t-39.5 -20q-18 -15 -32.5 -41.5t-24.5 -58t-15.5 -64t-5.5 -58.5q0 -20 3 -35.5t10 -24.5q12 -15 33 -22.5t54 -7.5q29 0 53 6.5t41 20.5zM461 765h161l-212 -143h-116z" />
    <glyph glyph-name="ocircumflex" unicode="&#xf4;" horiz-adv-x="669" 
d="M628 380q0 -44 -9 -92t-26.5 -94t-43 -85t-59.5 -65q-40 -29 -91 -42t-123 -13q-78 0 -125 19t-71 48q-17 21 -27 53t-10 79q0 40 7.5 86t24 91t41.5 85t61 67q38 29 89.5 44t123.5 14q78 0 125.5 -18t69.5 -44q19 -20 31 -53t12 -80zM392 138q17 13 31 40t24.5 59
t16.5 65.5t6 60.5q0 22 -3.5 36t-10.5 24q-23 28 -82 28q-35 0 -58.5 -8t-39.5 -20q-18 -15 -32.5 -41.5t-24.5 -58t-15.5 -64t-5.5 -58.5q0 -20 3 -35.5t10 -24.5q12 -15 33 -22.5t54 -7.5q29 0 53 6.5t41 20.5zM582 622h-99l-67 71l-99 -71h-109l160 136h112z" />
    <glyph glyph-name="otilde" unicode="&#xf5;" horiz-adv-x="669" 
d="M628 380q0 -44 -9 -92t-26.5 -94t-43 -85t-59.5 -65q-40 -29 -91 -42t-123 -13q-78 0 -125 19t-71 48q-17 21 -27 53t-10 79q0 40 7.5 86t24 91t41.5 85t61 67q38 29 89.5 44t123.5 14q78 0 125.5 -18t69.5 -44q19 -20 31 -53t12 -80zM392 138q17 13 31 40t24.5 59
t16.5 65.5t6 60.5q0 22 -3.5 36t-10.5 24q-23 28 -82 28q-35 0 -58.5 -8t-39.5 -20q-18 -15 -32.5 -41.5t-24.5 -58t-15.5 -64t-5.5 -58.5q0 -20 3 -35.5t10 -24.5q12 -15 33 -22.5t54 -7.5q29 0 53 6.5t41 20.5zM213 635q13 55 43 88.5t82 33.5q25 0 43.5 -8.5t34 -19
t29.5 -19t29 -8.5q37 0 50 49h67q-14 -63 -47 -93t-78 -30q-25 0 -43.5 8.5t-34 19t-29.5 19t-30 8.5q-21 0 -32.5 -13t-16.5 -35h-67z" />
    <glyph glyph-name="odieresis" unicode="&#xf6;" horiz-adv-x="669" 
d="M628 380q0 -44 -9 -92t-26.5 -94t-43 -85t-59.5 -65q-40 -29 -91 -42t-123 -13q-78 0 -125 19t-71 48q-17 21 -27 53t-10 79q0 40 7.5 86t24 91t41.5 85t61 67q38 29 89.5 44t123.5 14q78 0 125.5 -18t69.5 -44q19 -20 31 -53t12 -80zM392 138q17 13 31 40t24.5 59
t16.5 65.5t6 60.5q0 22 -3.5 36t-10.5 24q-23 28 -82 28q-35 0 -58.5 -8t-39.5 -20q-18 -15 -32.5 -41.5t-24.5 -58t-15.5 -64t-5.5 -58.5q0 -20 3 -35.5t10 -24.5q12 -15 33 -22.5t54 -7.5q29 0 53 6.5t41 20.5zM290 629q-38 0 -51 15q-7 8 -7 27q0 17 7.5 36.5t23.5 29.5
q17 10 51 10q35 0 47 -12q9 -9 9 -27t-7 -37t-21 -30q-8 -6 -22.5 -9t-29.5 -3zM507 629q-39 0 -51 15q-7 8 -7 25q0 19 7.5 38.5t23.5 29.5q17 10 52 10t46 -12q5 -5 7 -12t2 -15q0 -17 -6.5 -36.5t-21.5 -30.5q-8 -6 -22 -9t-30 -3z" />
    <glyph glyph-name="divide" unicode="&#xf7;" horiz-adv-x="666" 
d="M402 558q0 -18 -4.5 -33t-12.5 -23q-8 -7 -23 -9.5t-32 -2.5q-39 0 -55 15q-6 7 -10 20t-4 32q0 21 6 35.5t15 20.5q7 5 19.5 8t31.5 3q37 0 52 -12q8 -6 12.5 -21t4.5 -33zM402 122q0 -18 -4.5 -33t-12.5 -23q-8 -7 -23 -10t-32 -3q-38 0 -55 16q-6 7 -10 19.5t-4 31.5
q0 22 6 36.5t15 20.5q7 5 19.5 8t31.5 3q37 0 52 -12q8 -6 12.5 -21t4.5 -33zM606 279h-546v120h546v-120z" />
    <glyph glyph-name="oslash" unicode="&#xf8;" horiz-adv-x="669" 
d="M72 67q-14 23 -21.5 52t-7.5 71q0 41 8 87.5t24.5 90.5t41.5 83t60 66q38 29 88 44t125 14q51 0 90.5 -8.5t65.5 -22.5l29 27h95l-74 -73q14 -20 23 -50t9 -68q0 -44 -9 -92t-26 -93.5t-43 -85t-60 -65.5q-40 -29 -91.5 -42.5t-122.5 -12.5q-54 0 -91.5 8.5t-63.5 22.5
l-28 -28h-96zM396 134q15 12 29 36.5t24.5 53.5t17 59.5t8.5 55.5q0 20 -3 37l-250 -253q25 -16 75 -16q31 0 56.5 6.5t42.5 20.5zM195 225q-1 -9 -0.5 -18t1.5 -17l248 251q-26 14 -69 14q-36 0 -61 -8t-42 -21q-17 -14 -30.5 -37.5t-23.5 -51.5t-16 -57.5t-7 -54.5z" />
    <glyph glyph-name="ugrave" unicode="&#xf9;" horiz-adv-x="686" 
d="M296 561l-68 -324q-5 -21 -7.5 -38t-2.5 -30q0 -20 8 -31q10 -12 27.5 -15.5t39.5 -3.5q35 0 65.5 7.5t53.5 16.5l89 418h161l-119 -561h-128l-8 95h-7l-72 -78q-20 -9 -52.5 -16.5t-77.5 -7.5t-77 11.5t-49 34.5q-11 15 -16.5 34.5t-5.5 46.5q0 40 13 102l72 339h161z
M364 765l127 -142h-109l-170 142h152z" />
    <glyph glyph-name="uacute" unicode="&#xfa;" horiz-adv-x="686" 
d="M296 561l-68 -324q-5 -21 -7.5 -38t-2.5 -30q0 -20 8 -31q10 -12 27.5 -15.5t39.5 -3.5q35 0 65.5 7.5t53.5 16.5l89 418h161l-119 -561h-128l-8 95h-7l-72 -78q-20 -9 -52.5 -16.5t-77.5 -7.5t-77 11.5t-49 34.5q-11 15 -16.5 34.5t-5.5 46.5q0 40 13 102l72 339h161z
M491 765h161l-212 -143h-116z" />
    <glyph glyph-name="ucircumflex" unicode="&#xfb;" horiz-adv-x="686" 
d="M296 561l-68 -324q-5 -21 -7.5 -38t-2.5 -30q0 -20 8 -31q10 -12 27.5 -15.5t39.5 -3.5q35 0 65.5 7.5t53.5 16.5l89 418h161l-119 -561h-128l-8 95h-7l-72 -78q-20 -9 -52.5 -16.5t-77.5 -7.5t-77 11.5t-49 34.5q-11 15 -16.5 34.5t-5.5 46.5q0 40 13 102l72 339h161z
M587 622h-99l-67 71l-99 -71h-109l160 136h112z" />
    <glyph glyph-name="udieresis" unicode="&#xfc;" horiz-adv-x="686" 
d="M296 561l-68 -324q-5 -21 -7.5 -38t-2.5 -30q0 -20 8 -31q10 -12 27.5 -15.5t39.5 -3.5q35 0 65.5 7.5t53.5 16.5l89 418h161l-119 -561h-128l-8 95h-7l-72 -78q-20 -9 -52.5 -16.5t-77.5 -7.5t-77 11.5t-49 34.5q-11 15 -16.5 34.5t-5.5 46.5q0 40 13 102l72 339h161z
M301 629q-38 0 -51 15q-7 8 -7 27q0 17 7.5 36.5t23.5 29.5q17 10 51 10q35 0 47 -12q9 -9 9 -27t-7 -37t-21 -30q-8 -6 -22.5 -9t-29.5 -3zM518 629q-39 0 -51 15q-7 8 -7 25q0 19 7.5 38.5t23.5 29.5q17 10 52 10t46 -12q5 -5 7 -12t2 -15q0 -17 -6.5 -36.5t-21.5 -30.5
q-8 -6 -22 -9t-30 -3z" />
    <glyph glyph-name="yacute" unicode="&#xfd;" horiz-adv-x="622" 
d="M203 -272h-167l156 272h-74l-60 561h162l30 -421h21l217 421h177zM440 765h161l-212 -143h-116z" />
    <glyph glyph-name="thorn" unicode="&#xfe;" horiz-adv-x="683" 
d="M123 -270h-161l228 1074h161l-72 -335h7q2 3 14.5 15.5t27 26.5t26.5 26l14 14q19 8 46 14t65 6q85 0 127 -45q34 -36 34 -124q0 -47 -8.5 -99.5t-26.5 -102.5t-46 -93t-66 -70q-36 -26 -81 -36.5t-96 -10.5q-35 0 -72.5 5t-62.5 11zM390 133q20 14 36 41.5t27 60.5
t17 67.5t6 62.5q0 42 -15 59q-9 11 -26.5 16t-47.5 5q-33 0 -63 -7.5t-55 -17.5l-66 -306q14 -2 35.5 -4.5t47.5 -2.5q36 0 60 6t44 20z" />
    <glyph glyph-name="ydieresis" unicode="&#xff;" horiz-adv-x="622" 
d="M203 -272h-167l156 272h-74l-60 561h162l30 -421h21l217 421h177zM245 629q-38 0 -51 15q-7 8 -7 27q0 17 7.5 36.5t23.5 29.5q17 10 51 10q35 0 47 -12q9 -9 9 -27t-7 -37t-21 -30q-8 -6 -22.5 -9t-29.5 -3zM462 629q-39 0 -51 15q-7 8 -7 25q0 19 7.5 38.5t23.5 29.5
q17 10 52 10t46 -12q5 -5 7 -12t2 -15q0 -17 -6.5 -36.5t-21.5 -30.5q-8 -6 -22 -9t-30 -3z" />
    <glyph glyph-name="Amacron" unicode="&#x100;" horiz-adv-x="771" 
d="M521 0l-22 218h-261l-117 -218h-175l418 749l239 1l85 -750h-167zM465 605h-26l-135 -259h184zM354 915h309l-20 -90h-309z" />
    <glyph glyph-name="amacron" unicode="&#x101;" horiz-adv-x="631" 
d="M372 0l-17 87h-7l-72 -77q-20 -9 -49.5 -14t-60.5 -5q-54 0 -83.5 11.5t-46.5 31.5q-11 14 -16.5 35.5t-5.5 46.5t5.5 52t16.5 51.5t28 45.5t40 33q42 22 117 32.5t184 17.5q8 30 8 52q0 19 -7 29q-8 14 -32.5 18t-59.5 4q-25 0 -52.5 -2t-54.5 -5t-51 -6.5t-42 -6.5
l27 112q42 11 103.5 21.5t132.5 10.5q69 0 110 -11.5t61 -34.5q15 -17 21.5 -39t6.5 -52q0 -49 -16 -122l-67 -316h-121zM386 252q-24 -1 -52.5 -2.5t-55 -4t-46.5 -6t-27 -8.5q-18 -14 -27.5 -39t-9.5 -48q0 -17 8 -28q7 -8 22.5 -11t38.5 -3q35 0 68.5 7.5t51.5 13.5z
M250 726h309l-20 -90h-309z" />
    <glyph glyph-name="Abreve" unicode="&#x102;" horiz-adv-x="771" 
d="M521 0l-22 218h-261l-117 -218h-175l418 749l239 1l85 -750h-167zM465 605h-26l-135 -259h184zM428 954q-2 -7 -3 -13t-1 -11q0 -24 20 -35.5t50 -11.5q45 0 66.5 18t26.5 53h85q-3 -30 -14.5 -56t-33.5 -45.5t-55.5 -31t-81.5 -11.5q-68 0 -106.5 27t-38.5 81
q0 7 1 17.5t3 18.5h82z" />
    <glyph glyph-name="abreve" unicode="&#x103;" horiz-adv-x="631" 
d="M372 0l-17 87h-7l-72 -77q-20 -9 -49.5 -14t-60.5 -5q-54 0 -83.5 11.5t-46.5 31.5q-11 14 -16.5 35.5t-5.5 46.5t5.5 52t16.5 51.5t28 45.5t40 33q42 22 117 32.5t184 17.5q8 30 8 52q0 19 -7 29q-8 14 -32.5 18t-59.5 4q-25 0 -52.5 -2t-54.5 -5t-51 -6.5t-42 -6.5
l27 112q42 11 103.5 21.5t132.5 10.5q69 0 110 -11.5t61 -34.5q15 -17 21.5 -39t6.5 -52q0 -49 -16 -122l-67 -316h-121zM386 252q-24 -1 -52.5 -2.5t-55 -4t-46.5 -6t-27 -8.5q-18 -14 -27.5 -39t-9.5 -48q0 -17 8 -28q7 -8 22.5 -11t38.5 -3q35 0 68.5 7.5t51.5 13.5z
M318 764q-2 -7 -3 -13t-1 -11q0 -24 20 -35.5t50 -11.5q45 0 66.5 18t26.5 53h85q-3 -30 -14.5 -56t-33.5 -45.5t-55.5 -31t-81.5 -11.5q-68 0 -106.5 27t-38.5 81q0 7 1 17.5t3 18.5h82z" />
    <glyph glyph-name="Aogonek" unicode="&#x104;" horiz-adv-x="771" 
d="M465 605h-26l-135 -259h184zM499 218h-261l-117 -218h-175l418 749l239 1l85 -750h-81l-58 -36q-26 -17 -44.5 -30.5t-25.5 -21.5q-12 -14 -12 -38q0 -14 5 -19q9 -9 43 -9q22 0 39.5 1.5t29.5 3.5l-11 -65q-12 -3 -34.5 -6.5t-49.5 -3.5q-37 0 -57.5 5t-31.5 16
q-16 14 -16 51q0 24 7.5 46.5t21.5 37.5q13 13 42.5 31.5t65.5 36.5z" />
    <glyph glyph-name="aogonek" unicode="&#x105;" horiz-adv-x="631" 
d="M386 252q-24 -1 -52.5 -2.5t-55 -4t-46.5 -6t-27 -8.5q-18 -14 -27.5 -39t-9.5 -48q0 -17 8 -28q7 -8 22.5 -11t38.5 -3q35 0 68.5 7.5t51.5 13.5zM457 0l-57 -36q-26 -17 -45 -30.5t-25 -21.5q-5 -6 -9 -16.5t-4 -21.5q0 -14 5 -19q9 -9 44 -9q22 0 39 1.5t30 3.5
l-11 -65q-12 -3 -35 -6.5t-49 -3.5q-37 0 -57.5 5t-31.5 16q-8 7 -12.5 19t-4.5 32q0 24 8 46.5t22 37.5q13 13 42 31.5t66 36.5l-17 87h-7q-2 -2 -13 -14t-24.5 -26t-24 -25.5l-10.5 -11.5q-20 -9 -49.5 -14t-60.5 -5q-54 0 -83.5 11.5t-46.5 31.5q-11 14 -16.5 35.5
t-5.5 46.5t5.5 52t16.5 51.5t28 45.5t40 33q42 22 117 32.5t184 17.5q8 30 8 52q0 19 -7 29q-8 14 -32.5 18t-59.5 4q-25 0 -52.5 -2t-54.5 -5t-51 -6.5t-42 -6.5l27 112q42 11 103.5 21.5t132.5 10.5q69 0 110 -11.5t61 -34.5q15 -17 21.5 -39t6.5 -52q0 -49 -16 -122
l-67 -316h-36z" />
    <glyph glyph-name="Cacute" unicode="&#x106;" horiz-adv-x="691" 
d="M711 606q-35 6 -82.5 12t-102.5 6q-69 0 -108 -10.5t-67 -30.5q-30 -23 -53 -59.5t-38.5 -79.5t-23 -89t-7.5 -87q0 -32 6 -58.5t19 -41.5q36 -40 140 -40q63 0 120 9t100 18l-27 -129q-45 -14 -106.5 -25t-138.5 -11q-167 0 -231 82q-23 29 -35.5 73.5t-12.5 100.5
q0 64 12 129t35.5 124.5t58.5 109.5t82 83q50 35 115 51t146 16q71 0 126 -8.5t97 -19.5zM553 955h161l-212 -143h-116z" />
    <glyph glyph-name="cacute" unicode="&#x107;" horiz-adv-x="541" 
d="M398 451q-36 0 -64 -6t-49 -22q-19 -14 -34 -39.5t-25.5 -56t-16 -62t-5.5 -57.5q0 -45 22 -69q26 -23 88 -23q43 0 84 6.5t72 11.5l-29 -117q-37 -11 -80 -19t-100 -8q-59 0 -100 12t-69 39q-50 47 -50 142q0 47 9 97.5t27.5 97t45.5 86t63 63.5q38 26 83 37t99 11
q62 0 106 -7t71 -13l-16 -117q-26 4 -57.5 8.5t-74.5 4.5zM411 765h161l-212 -143h-116z" />
    <glyph glyph-name="Ccircumflex" unicode="&#x108;" horiz-adv-x="691" 
d="M711 606q-35 6 -82.5 12t-102.5 6q-69 0 -108 -10.5t-67 -30.5q-30 -23 -53 -59.5t-38.5 -79.5t-23 -89t-7.5 -87q0 -32 6 -58.5t19 -41.5q36 -40 140 -40q63 0 120 9t100 18l-27 -129q-45 -14 -106.5 -25t-138.5 -11q-167 0 -231 82q-23 29 -35.5 73.5t-12.5 100.5
q0 64 12 129t35.5 124.5t58.5 109.5t82 83q50 35 115 51t146 16q71 0 126 -8.5t97 -19.5zM677 811h-99l-67 71l-99 -71h-109l160 136h112z" />
    <glyph glyph-name="ccircumflex" unicode="&#x109;" horiz-adv-x="541" 
d="M398 451q-36 0 -64 -6t-49 -22q-19 -14 -34 -39.5t-25.5 -56t-16 -62t-5.5 -57.5q0 -45 22 -69q26 -23 88 -23q43 0 84 6.5t72 11.5l-29 -117q-37 -11 -80 -19t-100 -8q-59 0 -100 12t-69 39q-50 47 -50 142q0 47 9 97.5t27.5 97t45.5 86t63 63.5q38 26 83 37t99 11
q62 0 106 -7t71 -13l-16 -117q-26 4 -57.5 8.5t-74.5 4.5zM557 622h-99l-67 71l-99 -71h-109l160 136h112z" />
    <glyph glyph-name="Cdotaccent" unicode="&#x10a;" horiz-adv-x="691" 
d="M711 606q-35 6 -82.5 12t-102.5 6q-69 0 -108 -10.5t-67 -30.5q-30 -23 -53 -59.5t-38.5 -79.5t-23 -89t-7.5 -87q0 -32 6 -58.5t19 -41.5q36 -40 140 -40q63 0 120 9t100 18l-27 -129q-45 -14 -106.5 -25t-138.5 -11q-167 0 -231 82q-23 29 -35.5 73.5t-12.5 100.5
q0 64 12 129t35.5 124.5t58.5 109.5t82 83q50 35 115 51t146 16q71 0 126 -8.5t97 -19.5zM501 821q-45 0 -58 18q-9 10 -9 31q0 24 9 47.5t27 34.5q16 12 59 12t57 -15q11 -13 11 -36t-8 -45t-24 -33q-11 -8 -27.5 -11t-36.5 -3z" />
    <glyph glyph-name="cdotaccent" unicode="&#x10b;" horiz-adv-x="541" 
d="M398 451q-36 0 -64 -6t-49 -22q-19 -14 -34 -39.5t-25.5 -56t-16 -62t-5.5 -57.5q0 -45 22 -69q26 -23 88 -23q43 0 84 6.5t72 11.5l-29 -117q-37 -11 -80 -19t-100 -8q-59 0 -100 12t-69 39q-50 47 -50 142q0 47 9 97.5t27.5 97t45.5 86t63 63.5q38 26 83 37t99 11
q62 0 106 -7t71 -13l-16 -117q-26 4 -57.5 8.5t-74.5 4.5zM381 632q-45 0 -58 18q-9 10 -9 31q0 24 9 47.5t27 34.5q16 12 59 12t57 -15q11 -13 11 -36t-8 -45t-24 -33q-11 -8 -27.5 -11t-36.5 -3z" />
    <glyph glyph-name="Ccaron" unicode="&#x10c;" horiz-adv-x="691" 
d="M711 606q-35 6 -82.5 12t-102.5 6q-69 0 -108 -10.5t-67 -30.5q-30 -23 -53 -59.5t-38.5 -79.5t-23 -89t-7.5 -87q0 -32 6 -58.5t19 -41.5q36 -40 140 -40q63 0 120 9t100 18l-27 -129q-45 -14 -106.5 -25t-138.5 -11q-167 0 -231 82q-23 29 -35.5 73.5t-12.5 100.5
q0 64 12 129t35.5 124.5t58.5 109.5t82 83q50 35 115 51t146 16q71 0 126 -8.5t97 -19.5zM334 947h98l69 -70l98 70h109l-160 -136h-112z" />
    <glyph glyph-name="ccaron" unicode="&#x10d;" horiz-adv-x="541" 
d="M398 451q-36 0 -64 -6t-49 -22q-19 -14 -34 -39.5t-25.5 -56t-16 -62t-5.5 -57.5q0 -45 22 -69q26 -23 88 -23q43 0 84 6.5t72 11.5l-29 -117q-37 -11 -80 -19t-100 -8q-59 0 -100 12t-69 39q-50 47 -50 142q0 47 9 97.5t27.5 97t45.5 86t63 63.5q38 26 83 37t99 11
q62 0 106 -7t71 -13l-16 -117q-26 4 -57.5 8.5t-74.5 4.5zM205 758h98l69 -70l98 70h109l-160 -136h-112z" />
    <glyph glyph-name="Dcaron" unicode="&#x10e;" horiz-adv-x="804" 
d="M453 750q60 0 104.5 -5t77.5 -14.5t55.5 -24t38.5 -32.5q20 -24 32 -65t12 -101q0 -59 -13 -124.5t-37 -126.5t-58 -112t-76 -81q-49 -35 -120 -49.5t-168 -14.5h-280l158 750h274zM311 615l-101 -478h96q75 0 117 7.5t68 27.5q27 20 49 59t37 84.5t23 91.5t8 81
q0 63 -22 88q-33 39 -159 39h-116zM321 947h98l69 -70l98 70h109l-160 -136h-112z" />
    <glyph glyph-name="dcaron" unicode="&#x10f;" horiz-adv-x="686" 
d="M553 809h161l-172 -809h-130l-8 91h-8q-2 -2 -15.5 -15t-28.5 -27.5t-28 -27t-14 -12.5q-17 -8 -45 -13t-65 -5q-39 0 -71 10.5t-55 35.5q-35 35 -35 121q0 48 9.5 101t28 103t46 92.5t63.5 69.5q37 26 82 36.5t96 10.5q35 0 72.5 -5t62.5 -11zM289 427
q-20 -14 -35.5 -42.5t-26.5 -63t-17 -69.5t-6 -63q0 -40 13 -54q19 -19 68 -19q36 0 69 9.5t57 19.5l66 301q-14 2 -35.5 4.5t-46.5 2.5q-36 0 -60.5 -5.5t-45.5 -20.5zM824 808h126l-114 -248h-102z" />
    <glyph glyph-name="Dcroat" unicode="&#x110;" horiz-adv-x="803" 
d="M453 750q60 0 104.5 -5t77.5 -14.5t55.5 -24t38.5 -32.5q20 -24 32 -65t12 -101q0 -59 -13 -124.5t-37 -126.5t-58 -112t-76 -81q-49 -35 -120 -49.5t-168 -14.5h-280l69 327h-81l35 95h65l70 328h274zM270 422h174l-35 -95h-159l-40 -190h96q75 0 117 7.5t68 27.5
q27 20 49 59t37 84.5t23 91.5t8 81q0 63 -22 88q-33 39 -159 39h-116z" />
    <glyph glyph-name="dcroat" unicode="&#x111;" horiz-adv-x="686" 
d="M357 734h179l20 89h161l-19 -89h80l-22 -102h-80l-134 -632h-131l-7 92h-8q-2 -2 -15.5 -15t-28.5 -28t-28 -27.5t-14 -12.5q-18 -8 -47 -13.5t-67 -5.5q-37 0 -68.5 10.5t-54.5 34.5q-17 17 -26 46.5t-9 74.5q0 48 9 99t27 99t45 89t64 68q37 26 82 36t96 10
q35 0 71.5 -5t62.5 -10l20 90h-180zM287 416q-20 -14 -35.5 -40.5t-26 -59t-16.5 -66t-6 -61.5q0 -38 14 -54q19 -19 67 -19q36 0 70 9.5t57 19.5l63 290q-15 2 -36 4.5t-47 2.5q-35 0 -59.5 -5.5t-44.5 -20.5z" />
    <glyph glyph-name="Emacron" unicode="&#x112;" horiz-adv-x="639" 
d="M515 0h-499l159 750h517l-53 -135h-331l-36 -167h296l-52 -131h-271l-39 -180h368zM302 915h309l-20 -90h-309z" />
    <glyph glyph-name="emacron" unicode="&#x113;" horiz-adv-x="612" 
d="M40 188q0 49 9 98t26.5 93.5t43 81t58.5 60.5q38 29 86.5 42.5t114.5 13.5q111 0 161 -41t50 -115q0 -95 -68 -139.5t-203 -44.5q-31 0 -60 1.5t-52 4.5q-5 -28 -5 -47q0 -41 19 -59q14 -13 39 -18.5t60 -5.5q28 0 56.5 3t54.5 6.5t48 8t39 7.5l-36 -115q-42 -13 -95 -23
t-122 -10q-63 0 -105.5 14t-69.5 41q-23 23 -36 59t-13 84zM357 467q-46 0 -76 -24q-36 -29 -55 -100q17 -2 43 -3t50 -1q52 1 82.5 19t30.5 54q0 23 -16.5 39t-58.5 16zM240 726h309l-20 -90h-309z" />
    <glyph glyph-name="Ebreve" unicode="&#x114;" horiz-adv-x="639" 
d="M515 0h-499l159 750h517l-53 -135h-331l-36 -167h296l-52 -131h-271l-39 -180h368zM369 954q-2 -7 -3 -13t-1 -11q0 -24 20 -35.5t50 -11.5q45 0 66.5 18t26.5 53h85q-3 -30 -14.5 -56t-33.5 -45.5t-55.5 -31t-81.5 -11.5q-68 0 -106.5 27t-38.5 81q0 7 1 17.5t3 18.5h82
z" />
    <glyph glyph-name="ebreve" unicode="&#x115;" horiz-adv-x="612" 
d="M40 188q0 49 9 98t26.5 93.5t43 81t58.5 60.5q38 29 86.5 42.5t114.5 13.5q111 0 161 -41t50 -115q0 -95 -68 -139.5t-203 -44.5q-31 0 -60 1.5t-52 4.5q-5 -28 -5 -47q0 -41 19 -59q14 -13 39 -18.5t60 -5.5q28 0 56.5 3t54.5 6.5t48 8t39 7.5l-36 -115q-42 -13 -95 -23
t-122 -10q-63 0 -105.5 14t-69.5 41q-23 23 -36 59t-13 84zM357 467q-46 0 -76 -24q-36 -29 -55 -100q17 -2 43 -3t50 -1q52 1 82.5 19t30.5 54q0 23 -16.5 39t-58.5 16zM304 764q-2 -7 -3 -13t-1 -11q0 -24 20 -35.5t50 -11.5q45 0 66.5 18t26.5 53h85q-3 -30 -14.5 -56
t-33.5 -45.5t-55.5 -31t-81.5 -11.5q-68 0 -106.5 27t-38.5 81q0 7 1 17.5t3 18.5h82z" />
    <glyph glyph-name="Edotaccent" unicode="&#x116;" horiz-adv-x="639" 
d="M515 0h-499l159 750h517l-53 -135h-331l-36 -167h296l-52 -131h-271l-39 -180h368zM435 821q-45 0 -58 18q-9 10 -9 31q0 24 9 47.5t27 34.5q16 12 59 12t57 -15q11 -13 11 -36t-8 -45t-24 -33q-11 -8 -27.5 -11t-36.5 -3z" />
    <glyph glyph-name="edotaccent" unicode="&#x117;" horiz-adv-x="612" 
d="M40 188q0 49 9 98t26.5 93.5t43 81t58.5 60.5q38 29 86.5 42.5t114.5 13.5q111 0 161 -41t50 -115q0 -95 -68 -139.5t-203 -44.5q-31 0 -60 1.5t-52 4.5q-5 -28 -5 -47q0 -41 19 -59q14 -13 39 -18.5t60 -5.5q28 0 56.5 3t54.5 6.5t48 8t39 7.5l-36 -115q-42 -13 -95 -23
t-122 -10q-63 0 -105.5 14t-69.5 41q-23 23 -36 59t-13 84zM357 467q-46 0 -76 -24q-36 -29 -55 -100q17 -2 43 -3t50 -1q52 1 82.5 19t30.5 54q0 23 -16.5 39t-58.5 16zM374 632q-45 0 -58 18q-9 10 -9 31q0 24 9 47.5t27 34.5q16 12 59 12t57 -15q11 -13 11 -36t-8 -45
t-24 -33q-11 -8 -27.5 -11t-36.5 -3z" />
    <glyph glyph-name="Eogonek" unicode="&#x118;" horiz-adv-x="639" 
d="M16 0l159 750h517l-53 -135h-331l-36 -167h296l-52 -131h-271l-39 -180h368l-59 -137h-47l-57 -36q-26 -17 -45 -30.5t-26 -21.5q-12 -14 -12 -38q0 -14 5 -19q9 -9 43 -9q22 0 39.5 1.5t29.5 3.5l-10 -65q-13 -3 -35.5 -6.5t-49.5 -3.5q-36 0 -57 5t-32 16
q-16 14 -16 51q0 24 7.5 46.5t21.5 37.5q13 13 42.5 31.5t65.5 36.5h-366z" />
    <glyph glyph-name="eogonek" unicode="&#x119;" horiz-adv-x="612" 
d="M357 467q-46 0 -76 -24q-36 -29 -55 -100q17 -2 43 -3t50 -1q52 1 82.5 19t30.5 54q0 23 -16.5 39t-58.5 16zM410 -214q-13 -3 -35.5 -6.5t-48.5 -3.5q-37 0 -57.5 5t-31.5 16q-17 14 -17 51q0 24 8 46.5t22 37.5q11 12 37.5 29t60.5 34q-20 -2 -41 -3.5t-43 -1.5
q-63 0 -105.5 14t-69.5 41q-23 23 -36 59t-13 84q0 49 9 98t26.5 93.5t43 81t58.5 60.5q38 29 86.5 42.5t114.5 13.5q111 0 161 -41t50 -115q0 -95 -68 -139.5t-203 -44.5q-31 0 -60 1.5t-52 4.5q-5 -28 -5 -47q0 -41 19 -59q14 -13 39 -18.5t60 -5.5q28 0 56.5 3t54.5 6.5
t48 8t39 7.5l-36 -115q-10 -3 -19.5 -6t-20.5 -6l-54 -37q-26 -19 -45.5 -36.5t-25.5 -25.5q-5 -7 -9 -17t-4 -21q0 -14 5 -19q9 -9 43 -9q22 0 39.5 1.5t30.5 3.5z" />
    <glyph glyph-name="Ecaron" unicode="&#x11a;" horiz-adv-x="639" 
d="M515 0h-499l159 750h517l-53 -135h-331l-36 -167h296l-52 -131h-271l-39 -180h368zM276 947h98l69 -70l98 70h109l-160 -136h-112z" />
    <glyph glyph-name="ecaron" unicode="&#x11b;" horiz-adv-x="612" 
d="M40 188q0 49 9 98t26.5 93.5t43 81t58.5 60.5q38 29 86.5 42.5t114.5 13.5q111 0 161 -41t50 -115q0 -95 -68 -139.5t-203 -44.5q-31 0 -60 1.5t-52 4.5q-5 -28 -5 -47q0 -41 19 -59q14 -13 39 -18.5t60 -5.5q28 0 56.5 3t54.5 6.5t48 8t39 7.5l-36 -115q-42 -13 -95 -23
t-122 -10q-63 0 -105.5 14t-69.5 41q-23 23 -36 59t-13 84zM357 467q-46 0 -76 -24q-36 -29 -55 -100q17 -2 43 -3t50 -1q52 1 82.5 19t30.5 54q0 23 -16.5 39t-58.5 16zM217 758h98l69 -70l98 70h109l-160 -136h-112z" />
    <glyph glyph-name="Gcircumflex" unicode="&#x11c;" horiz-adv-x="772" 
d="M751 605q-37 6 -91.5 12t-115.5 6q-74 0 -118 -9.5t-72 -29.5q-32 -23 -56 -62t-39.5 -84.5t-23 -93t-7.5 -86.5q0 -71 27 -99q35 -39 130 -39q40 0 65.5 2t48.5 5l38 173h-160l47 121h293l-82 -385q-45 -15 -112 -30t-157 -15q-97 0 -157 20.5t-96 62.5q-22 26 -36 67.5
t-14 102.5q0 63 11.5 128t34.5 125t59 110.5t84 83.5q49 34 115 51t165 17q71 0 134 -8.5t106 -17.5zM690 811h-99l-67 71l-99 -71h-109l160 136h112z" />
    <glyph glyph-name="gcircumflex" unicode="&#x11d;" horiz-adv-x="681" 
d="M554 74q-23 -110 -54 -176t-76 -105q-41 -35 -98.5 -50.5t-139.5 -15.5q-32 0 -63.5 3t-60.5 8t-53.5 11t-41.5 11l18 122q16 -3 39.5 -7t50.5 -7.5t56.5 -6t57.5 -2.5q42 0 79 6.5t58 24.5q19 15 33.5 55t30.5 108l7 34h-6q-1 -1 -14 -13t-28 -25.5t-28 -24.5l-13 -11
q-18 -8 -47 -13.5t-67 -5.5t-68.5 9.5t-53.5 33.5q-17 17 -26.5 47t-9.5 75q0 47 9 100t27.5 102.5t46.5 92t66 68.5t85.5 38t105.5 12q29 0 57.5 -3t53.5 -7t46 -9.5t36 -9.5l58 21h32zM473 446q-14 2 -35.5 4t-50.5 2q-32 0 -55.5 -5t-44.5 -20q-22 -16 -38 -45t-27 -63
t-16.5 -68.5t-5.5 -60.5q0 -41 15 -56q18 -20 69 -20q36 0 68 8.5t56 18.5zM587 622h-99l-67 71l-99 -71h-109l160 136h112z" />
    <glyph glyph-name="Gbreve" unicode="&#x11e;" horiz-adv-x="772" 
d="M751 605q-37 6 -91.5 12t-115.5 6q-74 0 -118 -9.5t-72 -29.5q-32 -23 -56 -62t-39.5 -84.5t-23 -93t-7.5 -86.5q0 -71 27 -99q35 -39 130 -39q40 0 65.5 2t48.5 5l38 173h-160l47 121h293l-82 -385q-45 -15 -112 -30t-157 -15q-97 0 -157 20.5t-96 62.5q-22 26 -36 67.5
t-14 102.5q0 63 11.5 128t34.5 125t59 110.5t84 83.5q49 34 115 51t165 17q71 0 134 -8.5t106 -17.5zM445 954q-2 -7 -3 -13t-1 -11q0 -24 20 -35.5t50 -11.5q45 0 66.5 18t26.5 53h85q-3 -30 -14.5 -56t-33.5 -45.5t-55.5 -31t-81.5 -11.5q-68 0 -106.5 27t-38.5 81
q0 7 1 17.5t3 18.5h82z" />
    <glyph glyph-name="gbreve" unicode="&#x11f;" horiz-adv-x="681" 
d="M554 74q-23 -110 -54 -176t-76 -105q-41 -35 -98.5 -50.5t-139.5 -15.5q-32 0 -63.5 3t-60.5 8t-53.5 11t-41.5 11l18 122q16 -3 39.5 -7t50.5 -7.5t56.5 -6t57.5 -2.5q42 0 79 6.5t58 24.5q19 15 33.5 55t30.5 108l7 34h-6q-1 -1 -14 -13t-28 -25.5t-28 -24.5l-13 -11
q-18 -8 -47 -13.5t-67 -5.5t-68.5 9.5t-53.5 33.5q-17 17 -26.5 47t-9.5 75q0 47 9 100t27.5 102.5t46.5 92t66 68.5t85.5 38t105.5 12q29 0 57.5 -3t53.5 -7t46 -9.5t36 -9.5l58 21h32zM473 446q-14 2 -35.5 4t-50.5 2q-32 0 -55.5 -5t-44.5 -20q-22 -16 -38 -45t-27 -63
t-16.5 -68.5t-5.5 -60.5q0 -41 15 -56q18 -20 69 -20q36 0 68 8.5t56 18.5zM346 764q-2 -7 -3 -13t-1 -11q0 -24 20 -35.5t50 -11.5q45 0 66.5 18t26.5 53h85q-3 -30 -14.5 -56t-33.5 -45.5t-55.5 -31t-81.5 -11.5q-68 0 -106.5 27t-38.5 81q0 7 1 17.5t3 18.5h82z" />
    <glyph glyph-name="Gdotaccent" unicode="&#x120;" horiz-adv-x="772" 
d="M751 605q-37 6 -91.5 12t-115.5 6q-74 0 -118 -9.5t-72 -29.5q-32 -23 -56 -62t-39.5 -84.5t-23 -93t-7.5 -86.5q0 -71 27 -99q35 -39 130 -39q40 0 65.5 2t48.5 5l38 173h-160l47 121h293l-82 -385q-45 -15 -112 -30t-157 -15q-97 0 -157 20.5t-96 62.5q-22 26 -36 67.5
t-14 102.5q0 63 11.5 128t34.5 125t59 110.5t84 83.5q49 34 115 51t165 17q71 0 134 -8.5t106 -17.5zM514 821q-45 0 -58 18q-9 10 -9 31q0 24 9 47.5t27 34.5q16 12 59 12t57 -15q11 -13 11 -36t-8 -45t-24 -33q-11 -8 -27.5 -11t-36.5 -3z" />
    <glyph glyph-name="gdotaccent" unicode="&#x121;" horiz-adv-x="681" 
d="M554 74q-23 -110 -54 -176t-76 -105q-41 -35 -98.5 -50.5t-139.5 -15.5q-32 0 -63.5 3t-60.5 8t-53.5 11t-41.5 11l18 122q16 -3 39.5 -7t50.5 -7.5t56.5 -6t57.5 -2.5q42 0 79 6.5t58 24.5q19 15 33.5 55t30.5 108l7 34h-6q-1 -1 -14 -13t-28 -25.5t-28 -24.5l-13 -11
q-18 -8 -47 -13.5t-67 -5.5t-68.5 9.5t-53.5 33.5q-17 17 -26.5 47t-9.5 75q0 47 9 100t27.5 102.5t46.5 92t66 68.5t85.5 38t105.5 12q29 0 57.5 -3t53.5 -7t46 -9.5t36 -9.5l58 21h32zM473 446q-14 2 -35.5 4t-50.5 2q-32 0 -55.5 -5t-44.5 -20q-22 -16 -38 -45t-27 -63
t-16.5 -68.5t-5.5 -60.5q0 -41 15 -56q18 -20 69 -20q36 0 68 8.5t56 18.5zM413 632q-45 0 -58 18q-9 10 -9 31q0 24 9 47.5t27 34.5q16 12 59 12t57 -15q11 -13 11 -36t-8 -45t-24 -33q-11 -8 -27.5 -11t-36.5 -3z" />
    <glyph glyph-name="Gcommaaccent" unicode="&#x122;" horiz-adv-x="772" 
d="M751 605q-37 6 -91.5 12t-115.5 6q-74 0 -118 -9.5t-72 -29.5q-32 -23 -56 -62t-39.5 -84.5t-23 -93t-7.5 -86.5q0 -71 27 -99q35 -39 130 -39q40 0 65.5 2t48.5 5l38 173h-160l47 121h293l-82 -385q-45 -15 -112 -30t-157 -15q-97 0 -157 20.5t-96 62.5q-22 26 -36 67.5
t-14 102.5q0 63 11.5 128t34.5 125t59 110.5t84 83.5q49 34 115 51t165 17q71 0 134 -8.5t106 -17.5zM290 -82h145l-129 -155h-115z" />
    <glyph glyph-name="gcommaaccent" unicode="&#x123;" horiz-adv-x="681" 
d="M554 74q-23 -110 -54 -176t-76 -105q-41 -35 -98.5 -50.5t-139.5 -15.5q-32 0 -63.5 3t-60.5 8t-53.5 11t-41.5 11l18 122q16 -3 39.5 -7t50.5 -7.5t56.5 -6t57.5 -2.5q42 0 79 6.5t58 24.5q19 15 33.5 55t30.5 108l7 34h-6q-1 -1 -14 -13t-28 -25.5t-28 -24.5l-13 -11
q-18 -8 -47 -13.5t-67 -5.5t-68.5 9.5t-53.5 33.5q-17 17 -26.5 47t-9.5 75q0 47 9 100t27.5 102.5t46.5 92t66 68.5t85.5 38t105.5 12q29 0 57.5 -3t53.5 -7t46 -9.5t36 -9.5l58 21h32zM473 446q-14 2 -35.5 4t-50.5 2q-32 0 -55.5 -5t-44.5 -20q-22 -16 -38 -45t-27 -63
t-16.5 -68.5t-5.5 -60.5q0 -41 15 -56q18 -20 69 -20q36 0 68 8.5t56 18.5zM458 632h-146l130 155h116z" />
    <glyph glyph-name="Hcircumflex" unicode="&#x124;" horiz-adv-x="807" 
d="M497 0l66 310h-315l-66 -310h-160l158 750h161l-64 -302h315l64 302h161l-159 -750h-161zM692 811h-99l-67 71l-99 -71h-109l160 136h112z" />
    <glyph glyph-name="hcircumflex" unicode="&#x125;" horiz-adv-x="682" 
d="M379 0l68 319q5 23 8 41t3 30q0 23 -9 34q-9 12 -27 15t-41 3q-37 0 -66 -7.5t-51 -15.5l-89 -419h-161l172 804h160l-73 -337h8l71 74q19 11 53 19t79 8q89 0 121 -44q11 -14 16.5 -33.5t5.5 -47.5q0 -42 -15 -108l-70 -335h-163zM452 853h-99l-67 71l-99 -71h-109
l160 136h112z" />
    <glyph glyph-name="Hbar" unicode="&#x126;" horiz-adv-x="806" 
d="M65 643h78l22 107h161l-22 -107h314l23 107h161l-23 -107h78l-20 -96h-78l-116 -547h-161l65 306h-315l-65 -306h-160l115 547h-77zM575 438l23 109h-315l-23 -109h315z" />
    <glyph glyph-name="hbar" unicode="&#x127;" horiz-adv-x="671" 
d="M88 734h83l15 70h160l-15 -70h179l-23 -102h-179l-38 -179h8l70 76q20 9 53.5 17t77.5 8t75.5 -10.5t47.5 -33.5q11 -15 16.5 -34t5.5 -46q0 -21 -3.5 -46.5t-10.5 -57.5l-68 -326h-163l65 306q5 23 8 41.5t3 30.5q0 21 -8 32q-9 12 -27.5 15.5t-41.5 3.5q-37 0 -66.5 -8
t-50.5 -17l-86 -404h-161l134 632h-82z" />
    <glyph glyph-name="Itilde" unicode="&#x128;" horiz-adv-x="331" 
d="M22 0l158 750h161l-159 -750h-160zM93 824q13 55 43 88.5t82 33.5q25 0 43.5 -8.5t34 -19t29.5 -19t29 -8.5q37 0 50 49h67q-14 -63 -47 -93t-78 -30q-25 0 -43.5 8.5t-34 19t-29.5 19t-30 8.5q-21 0 -32.5 -13t-16.5 -35h-67z" />
    <glyph glyph-name="itilde" unicode="&#x129;" horiz-adv-x="312" 
d="M15 0l119 561h162l-119 -561h-162zM50 635q13 55 43 88.5t82 33.5q25 0 43.5 -8.5t34 -19t29.5 -19t29 -8.5q37 0 50 49h67q-14 -63 -47 -93t-78 -30q-25 0 -43.5 8.5t-34 19t-29.5 19t-30 8.5q-21 0 -32.5 -13t-16.5 -35h-67z" />
    <glyph glyph-name="Imacron" unicode="&#x12a;" horiz-adv-x="331" 
d="M22 0l158 750h161l-159 -750h-160zM138 915h309l-20 -90h-309z" />
    <glyph glyph-name="imacron" unicode="&#x12b;" horiz-adv-x="312" 
d="M15 0l119 561h162l-119 -561h-162zM92 726h309l-20 -90h-309z" />
    <glyph glyph-name="Ibreve" unicode="&#x12c;" horiz-adv-x="331" 
d="M22 0l158 750h161l-159 -750h-160zM212 954q-2 -7 -3 -13t-1 -11q0 -24 20 -35.5t50 -11.5q45 0 66.5 18t26.5 53h85q-3 -30 -14.5 -56t-33.5 -45.5t-55.5 -31t-81.5 -11.5q-68 0 -106.5 27t-38.5 81q0 7 1 17.5t3 18.5h82z" />
    <glyph glyph-name="ibreve" unicode="&#x12d;" horiz-adv-x="312" 
d="M15 0l119 561h162l-119 -561h-162zM166 764q-2 -7 -3 -13t-1 -11q0 -24 20 -35.5t50 -11.5q45 0 66.5 18t26.5 53h85q-3 -30 -14.5 -56t-33.5 -45.5t-55.5 -31t-81.5 -11.5q-68 0 -106.5 27t-38.5 81q0 7 1 17.5t3 18.5h82z" />
    <glyph glyph-name="Iogonek" unicode="&#x12e;" horiz-adv-x="331" 
d="M22 0l158 750h161l-159 -750h-14l-43 -32q-50 -36 -62 -53q-5 -7 -9 -18.5t-4 -22.5q0 -14 5 -19q9 -9 43 -9q22 0 39.5 1.5t29.5 3.5l-11 -65q-12 -3 -34.5 -6.5t-49.5 -3.5q-37 0 -57.5 5t-31.5 16q-16 14 -16 51q0 24 8 48t22 39q13 13 38.5 32t51.5 33h-65z" />
    <glyph glyph-name="iogonek" unicode="&#x12f;" horiz-adv-x="318" 
d="M345 749q-3 -23 -11.5 -44.5t-23.5 -32.5q-12 -8 -31.5 -12t-41.5 -4q-26 0 -42 5.5t-24 14.5q-6 7 -8 19.5t0 28.5q2 27 12 48t27 32q20 13 67 13q23 0 39.5 -4t24.5 -13q8 -7 10.5 -20.5t1.5 -30.5zM17 0l118 561h161l-119 -561h-13l-36 -25q-29 -21 -47 -37t-24 -24
q-12 -15 -12 -40q0 -14 5 -19q9 -9 43 -9q22 0 39.5 1.5t29.5 3.5l-10 -65q-13 -3 -35.5 -6.5t-49.5 -3.5q-36 0 -56.5 5t-31.5 16q-17 14 -17 51q0 24 8 46.5t22 37.5q12 14 37 32.5t53 35.5h-65z" />
    <glyph glyph-name="Idotaccent" unicode="&#x130;" horiz-adv-x="331" 
d="M22 0l158 750h161l-159 -750h-160zM274 821q-45 0 -58 18q-9 10 -9 31q0 24 9 47.5t27 34.5q16 12 59 12t57 -15q11 -13 11 -36t-8 -45t-24 -33q-11 -8 -27.5 -11t-36.5 -3z" />
    <glyph glyph-name="dotlessi" unicode="&#x131;" horiz-adv-x="312" 
d="M15 0l119 561h162l-119 -561h-162z" />
    <glyph glyph-name="Jcircumflex" unicode="&#x134;" horiz-adv-x="590" 
d="M173 -11q-27 0 -56 2.5t-56 6t-50.5 8.5t-40.5 10l15 127q29 -5 73.5 -11t92.5 -6q53 0 85 10.5t51 27.5q18 17 34 51.5t31 105.5l91 429h160l-94 -442q-20 -98 -46 -158t-66 -96q-38 -32 -90.5 -48.5t-133.5 -16.5zM705 811h-99l-67 71l-99 -71h-109l160 136h112z" />
    <glyph glyph-name="jcircumflex" unicode="&#x135;" horiz-adv-x="318" 
d="M164 -66q-23 -107 -81 -158t-166 -51q-37 0 -68 4t-49 8l12 109q13 -2 36.5 -3.5t47.5 -1.5q48 0 72.5 21.5t35.5 75.5l131 623h162zM414 622h-99l-67 71l-99 -71h-109l160 136h112z" />
    <glyph glyph-name="Kcommaaccent" unicode="&#x136;" horiz-adv-x="744" 
d="M672 0h-194l-171 353h-50l-75 -353h-160l159 750h160l-79 -372l356 372h215l-367 -364zM254 -82h145l-129 -155h-115z" />
    <glyph glyph-name="kcommaaccent" unicode="&#x137;" horiz-adv-x="626" 
d="M566 0h-185l-108 258h-41l-55 -258h-161l171 804h161l-110 -514l247 271h200l-267 -267zM206 -82h145l-129 -155h-115z" />
    <glyph glyph-name="kgreenlandic" unicode="&#x138;" horiz-adv-x="626" 
d="M567 0h-184l-109 258h-41l-56 -258h-160l119 561h161l-58 -271l248 271h199l-268 -267z" />
    <glyph glyph-name="Lacute" unicode="&#x139;" horiz-adv-x="622" 
d="M213 137h360l-59 -137h-491l159 750h161zM362 955h161l-212 -143h-116z" />
    <glyph glyph-name="lacute" unicode="&#x13a;" horiz-adv-x="369" 
d="M345 805l-130 -614q-6 -26 -6 -42q0 -22 11.5 -30t34.5 -8q18 0 36 2.5t32 4.5l-23 -109q-23 -5 -55.5 -11t-67.5 -6q-69 0 -101.5 27t-32.5 86q0 20 3.5 42t8.5 47l130 611h160zM355 1000h161l-212 -143h-116z" />
    <glyph glyph-name="Lcommaaccent" unicode="&#x13b;" horiz-adv-x="622" 
d="M213 137h360l-59 -137h-491l159 750h161zM213 -82h145l-129 -155h-115z" />
    <glyph glyph-name="lcommaaccent" unicode="&#x13c;" horiz-adv-x="369" 
d="M345 805l-130 -614q-6 -26 -6 -42q0 -22 11.5 -30t34.5 -8q18 0 36 2.5t32 4.5l-23 -109q-23 -5 -55.5 -11t-67.5 -6q-69 0 -101.5 27t-32.5 86q0 20 3.5 42t8.5 47l130 611h160zM88 -82h145l-129 -155h-115z" />
    <glyph glyph-name="Lcaron" unicode="&#x13d;" horiz-adv-x="622" 
d="M213 137h360l-59 -137h-491l159 750h161zM522 750h126l-114 -248h-102z" />
    <glyph glyph-name="lcaron" unicode="&#x13e;" horiz-adv-x="369" 
d="M345 805l-130 -614q-6 -26 -6 -42q0 -22 11.5 -30t34.5 -8q18 0 36 2.5t32 4.5l-23 -109q-23 -5 -55.5 -11t-67.5 -6q-69 0 -101.5 27t-32.5 86q0 20 3.5 42t8.5 47l130 611h160zM463 809h126l-114 -248h-102z" />
    <glyph glyph-name="Ldot" unicode="&#x13f;" horiz-adv-x="622" 
d="M213 137h360l-59 -137h-491l159 750h161zM563 355q-12 -9 -30.5 -12.5t-43.5 -3.5q-57 0 -72 20q-5 5 -8 15.5t-3 21.5q0 31 10.5 58t29.5 40q12 8 30.5 11.5t41.5 3.5q55 0 70 -18q12 -12 12 -40t-9.5 -55t-27.5 -41z" />
    <glyph glyph-name="ldot" unicode="&#x140;" horiz-adv-x="424" 
d="M345 805l-130 -614q-6 -26 -6 -42q0 -22 11.5 -30t34.5 -8q18 0 36 2.5t32 4.5l-23 -109q-23 -5 -55.5 -11t-67.5 -6q-69 0 -101.5 27t-32.5 86q0 20 3.5 42t8.5 47l130 611h160zM375 348q-45 0 -58 18q-9 10 -9 31q0 24 9 47.5t27 34.5q16 12 59 12t57 -15
q11 -13 11 -36t-8 -45t-24 -33q-11 -8 -27.5 -11t-36.5 -3z" />
    <glyph glyph-name="Lslash" unicode="&#x141;" horiz-adv-x="622" 
d="M439 433l-190 -92l-43 -204h360l-59 -137h-491l55 258l-97 -48l28 132l97 48l75 360h162l-59 -276l189 92z" />
    <glyph glyph-name="lslash" unicode="&#x142;" horiz-adv-x="370" 
d="M346 805l-63 -298l128 56l-26 -129l-130 -56l-39 -182q-3 -13 -5 -26t-2 -21q0 -22 11.5 -30t33.5 -8q20 0 37.5 2t32.5 4l-23 -108q-23 -5 -57.5 -11t-69.5 -6q-68 0 -99.5 28t-31.5 85q0 17 2.5 36.5t7.5 42.5l26 122l-90 -40l26 128l91 41l79 370h161z" />
    <glyph glyph-name="Nacute" unicode="&#x143;" horiz-adv-x="870" 
d="M482 0l-169 602h-16l-128 -602h-145l158 750h244l164 -597h15l127 597h147l-159 -750h-238zM595 955h161l-212 -143h-116z" />
    <glyph glyph-name="nacute" unicode="&#x144;" horiz-adv-x="684" 
d="M383 0l69 326q9 40 9 67q0 21 -8 32q-9 11 -27 15t-39 4q-35 0 -65.5 -8.5t-53.5 -16.5l-89 -419h-162l119 561h128l9 -94h7l71 76q21 11 55.5 19t79.5 8q88 0 123 -45q10 -15 16 -34t6 -46q0 -21 -4 -47.5t-12 -65.5l-70 -332h-162zM443 765h161l-212 -143h-116z" />
    <glyph glyph-name="Ncommaaccent" unicode="&#x145;" horiz-adv-x="870" 
d="M482 0l-169 602h-16l-128 -602h-145l158 750h244l164 -597h15l127 597h147l-159 -750h-238zM312 -82h145l-129 -155h-115z" />
    <glyph glyph-name="ncommaaccent" unicode="&#x146;" horiz-adv-x="684" 
d="M383 0l69 326q9 40 9 67q0 21 -8 32q-9 11 -27 15t-39 4q-35 0 -65.5 -8.5t-53.5 -16.5l-89 -419h-162l119 561h128l9 -94h7l71 76q21 11 55.5 19t79.5 8q88 0 123 -45q10 -15 16 -34t6 -46q0 -21 -4 -47.5t-12 -65.5l-70 -332h-162zM220 -82h145l-129 -155h-115z" />
    <glyph glyph-name="Ncaron" unicode="&#x147;" horiz-adv-x="870" 
d="M482 0l-169 602h-16l-128 -602h-145l158 750h244l164 -597h15l127 597h147l-159 -750h-238zM379 947h98l69 -70l98 70h109l-160 -136h-112z" />
    <glyph glyph-name="ncaron" unicode="&#x148;" horiz-adv-x="684" 
d="M383 0l69 326q9 40 9 67q0 21 -8 32q-9 11 -27 15t-39 4q-35 0 -65.5 -8.5t-53.5 -16.5l-89 -419h-162l119 561h128l9 -94h7l71 76q21 11 55.5 19t79.5 8q88 0 123 -45q10 -15 16 -34t6 -46q0 -21 -4 -47.5t-12 -65.5l-70 -332h-162zM229 758h98l69 -70l98 70h109
l-160 -136h-112z" />
    <glyph glyph-name="Eng" unicode="&#x14a;" horiz-adv-x="872" 
d="M396 -250q-28 0 -57 2.5t-56 6t-50 8t-39 8.5l14 129q29 -5 77 -11t95 -6q55 0 90 10.5t54 27.5q11 11 22.5 28.5t21.5 46.5h-88l-167 602h-17l-128 -602h-145l158 750h245l164 -597h14l127 597h148l-145 -682q-21 -97 -46 -157t-67 -95q-37 -33 -90 -49.5t-135 -16.5z
" />
    <glyph glyph-name="eng" unicode="&#x14b;" horiz-adv-x="684" 
d="M530 -67q-23 -107 -81 -157.5t-166 -50.5q-37 0 -67.5 4t-50.5 8l12 109q13 -2 36.5 -3.5t48.5 -1.5q48 0 72.5 21.5t35.5 75.5l82 387q9 42 9 66q0 22 -7 32q-9 12 -27 15.5t-40 3.5q-35 0 -66 -7.5t-54 -16.5l-88 -418h-162l119 561h129l8 -94h8l71 76q20 9 54.5 17
t79.5 8q89 0 123 -44q10 -15 16 -34t6 -47q0 -20 -3.5 -46t-10.5 -58z" />
    <glyph glyph-name="Omacron" unicode="&#x14c;" horiz-adv-x="830" 
d="M376 127q48 -1 83 10t60 29q26 20 47.5 58.5t36.5 84.5t23.5 93.5t8.5 86.5q0 56 -20 84q-14 21 -47.5 34t-82.5 13q-48 0 -82 -9.5t-62 -31.5q-28 -23 -49.5 -61t-36 -82t-22 -90t-7.5 -85q0 -32 5 -53t16 -35q16 -22 50 -34t79 -12zM500 760q97 0 158 -22.5t93 -63.5
q48 -57 48 -170q0 -55 -11 -118t-33.5 -123.5t-56.5 -114t-79 -89.5q-25 -20 -56.5 -33.5t-65.5 -21.5t-67.5 -11.5t-63.5 -3.5q-53 0 -93.5 6.5t-70.5 17.5t-52 27t-37 34q-21 25 -35 66.5t-14 105.5q0 58 10.5 121t32.5 122.5t55.5 111t79.5 86.5q48 35 110 54t148 19z
M384 915h309l-20 -90h-309z" />
    <glyph glyph-name="omacron" unicode="&#x14d;" horiz-adv-x="669" 
d="M628 380q0 -44 -9 -92t-26.5 -94t-43 -85t-59.5 -65q-40 -29 -91 -42t-123 -13q-78 0 -125 19t-71 48q-17 21 -27 53t-10 79q0 40 7.5 86t24 91t41.5 85t61 67q38 29 89.5 44t123.5 14q78 0 125.5 -18t69.5 -44q19 -20 31 -53t12 -80zM392 138q17 13 31 40t24.5 59
t16.5 65.5t6 60.5q0 22 -3.5 36t-10.5 24q-23 28 -82 28q-35 0 -58.5 -8t-39.5 -20q-18 -15 -32.5 -41.5t-24.5 -58t-15.5 -64t-5.5 -58.5q0 -20 3 -35.5t10 -24.5q12 -15 33 -22.5t54 -7.5q29 0 53 6.5t41 20.5zM261 726h309l-20 -90h-309z" />
    <glyph glyph-name="Obreve" unicode="&#x14e;" horiz-adv-x="830" 
d="M376 127q48 -1 83 10t60 29q26 20 47.5 58.5t36.5 84.5t23.5 93.5t8.5 86.5q0 56 -20 84q-14 21 -47.5 34t-82.5 13q-48 0 -82 -9.5t-62 -31.5q-28 -23 -49.5 -61t-36 -82t-22 -90t-7.5 -85q0 -32 5 -53t16 -35q16 -22 50 -34t79 -12zM500 760q97 0 158 -22.5t93 -63.5
q48 -57 48 -170q0 -55 -11 -118t-33.5 -123.5t-56.5 -114t-79 -89.5q-25 -20 -56.5 -33.5t-65.5 -21.5t-67.5 -11.5t-63.5 -3.5q-53 0 -93.5 6.5t-70.5 17.5t-52 27t-37 34q-21 25 -35 66.5t-14 105.5q0 58 10.5 121t32.5 122.5t55.5 111t79.5 86.5q48 35 110 54t148 19z
M445 954q-2 -7 -3 -13t-1 -11q0 -24 20 -35.5t50 -11.5q45 0 66.5 18t26.5 53h85q-3 -30 -14.5 -56t-33.5 -45.5t-55.5 -31t-81.5 -11.5q-68 0 -106.5 27t-38.5 81q0 7 1 17.5t3 18.5h82z" />
    <glyph glyph-name="obreve" unicode="&#x14f;" horiz-adv-x="669" 
d="M628 380q0 -44 -9 -92t-26.5 -94t-43 -85t-59.5 -65q-40 -29 -91 -42t-123 -13q-78 0 -125 19t-71 48q-17 21 -27 53t-10 79q0 40 7.5 86t24 91t41.5 85t61 67q38 29 89.5 44t123.5 14q78 0 125.5 -18t69.5 -44q19 -20 31 -53t12 -80zM392 138q17 13 31 40t24.5 59
t16.5 65.5t6 60.5q0 22 -3.5 36t-10.5 24q-23 28 -82 28q-35 0 -58.5 -8t-39.5 -20q-18 -15 -32.5 -41.5t-24.5 -58t-15.5 -64t-5.5 -58.5q0 -20 3 -35.5t10 -24.5q12 -15 33 -22.5t54 -7.5q29 0 53 6.5t41 20.5zM334 764q-2 -7 -3 -13t-1 -11q0 -24 20 -35.5t50 -11.5
q45 0 66.5 18t26.5 53h85q-3 -30 -14.5 -56t-33.5 -45.5t-55.5 -31t-81.5 -11.5q-68 0 -106.5 27t-38.5 81q0 7 1 17.5t3 18.5h82z" />
    <glyph glyph-name="Ohungarumlaut" unicode="&#x150;" horiz-adv-x="830" 
d="M376 127q48 -1 83 10t60 29q26 20 47.5 58.5t36.5 84.5t23.5 93.5t8.5 86.5q0 56 -20 84q-14 21 -47.5 34t-82.5 13q-48 0 -82 -9.5t-62 -31.5q-28 -23 -49.5 -61t-36 -82t-22 -90t-7.5 -85q0 -32 5 -53t16 -35q16 -22 50 -34t79 -12zM500 760q97 0 158 -22.5t93 -63.5
q48 -57 48 -170q0 -55 -11 -118t-33.5 -123.5t-56.5 -114t-79 -89.5q-25 -20 -56.5 -33.5t-65.5 -21.5t-67.5 -11.5t-63.5 -3.5q-53 0 -93.5 6.5t-70.5 17.5t-52 27t-37 34q-21 25 -35 66.5t-14 105.5q0 58 10.5 121t32.5 122.5t55.5 111t79.5 86.5q48 35 110 54t148 19z
M444 949h137l-161 -137h-99zM649 949h138l-162 -137h-99z" />
    <glyph glyph-name="ohungarumlaut" unicode="&#x151;" horiz-adv-x="669" 
d="M628 380q0 -44 -9 -92t-26.5 -94t-43 -85t-59.5 -65q-40 -29 -91 -42t-123 -13q-78 0 -125 19t-71 48q-17 21 -27 53t-10 79q0 40 7.5 86t24 91t41.5 85t61 67q38 29 89.5 44t123.5 14q78 0 125.5 -18t69.5 -44q19 -20 31 -53t12 -80zM392 138q17 13 31 40t24.5 59
t16.5 65.5t6 60.5q0 22 -3.5 36t-10.5 24q-23 28 -82 28q-35 0 -58.5 -8t-39.5 -20q-18 -15 -32.5 -41.5t-24.5 -58t-15.5 -64t-5.5 -58.5q0 -20 3 -35.5t10 -24.5q12 -15 33 -22.5t54 -7.5q29 0 53 6.5t41 20.5zM326 760h137l-161 -137h-99zM531 760h138l-162 -137h-99z
" />
    <glyph glyph-name="OE" unicode="&#x152;" horiz-adv-x="1111" 
d="M377 127q53 0 87 6t60 17l95 447q-22 11 -57 17t-74 6q-51 0 -87 -11t-59 -28q-29 -22 -50.5 -60.5t-36 -83.5t-22 -92t-7.5 -86q0 -60 21 -86q15 -21 48.5 -33.5t81.5 -12.5zM328 -10q-75 0 -128.5 21t-86.5 60q-23 27 -36 69t-13 106q0 58 10.5 121t32.5 122.5
t55.5 111t79.5 86.5q46 34 108 53.5t142 19.5q34 0 65.5 -4t55.5 -13l21 -40h8l10 47h512l-54 -135h-330l-36 -167h296l-53 -131h-270l-39 -180h368l-59 -137h-494l10 50h-8l-41 -42q-29 -9 -62 -13.5t-64 -4.5z" />
    <glyph glyph-name="oe" unicode="&#x153;" horiz-adv-x="1012" 
d="M532 540q29 -21 43 -51q12 15 26.5 27t31.5 23q63 37 158 37q59 0 100 -11t66.5 -31t37 -48.5t11.5 -63.5q0 -54 -21 -89.5t-57 -56t-84.5 -29t-102.5 -8.5q-35 0 -69 1.5t-58 4.5q-6 -29 -6 -52q0 -20 4.5 -34.5t15.5 -25.5q25 -27 107 -27q26 0 54 3t54 7t49 8.5
t39 7.5l-36 -112q-39 -11 -93.5 -20.5t-130.5 -9.5q-51 0 -85 10t-57 30q-23 17 -34 45q-11 -13 -25.5 -25.5t-29.5 -22.5q-63 -38 -168 -38q-76 1 -120.5 18.5t-68.5 46.5q-19 23 -29 57.5t-10 93.5q0 43 8.5 88t25.5 86.5t41 77t56 59.5q75 59 209 59q55 0 91 -10t57 -25z
M392 138q17 14 31.5 40.5t25 58t16 63.5t5.5 58q0 47 -12 66q-21 29 -84 29q-31 0 -54.5 -7.5t-40.5 -20.5q-16 -13 -30.5 -37.5t-25 -55.5t-17 -65.5t-6.5 -66.5q0 -18 2.5 -32t10.5 -25q10 -16 29.5 -24.5t54.5 -8.5q32 0 56 7.5t39 20.5zM771 468q-57 0 -87 -29
q-33 -30 -51 -100q19 -2 47.5 -3t44.5 0q60 -1 92 17.5t32 58.5q0 56 -78 56z" />
    <glyph glyph-name="Racute" unicode="&#x154;" horiz-adv-x="719" 
d="M700 602q0 -57 -20 -115.5t-60 -99.5q-11 -6 -27.5 -13.5t-36 -14.5t-39.5 -14t-37 -12v-5q18 -10 41 -25.5t32 -27.5q7 -11 17.5 -40t21.5 -67.5t22 -82.5t20 -85h-174q-21 109 -41 179t-39 86q-11 11 -39.5 14.5t-60.5 3.5h-38l-60 -283h-160l158 750h294
q72 0 115.5 -10t65.5 -28q21 -17 33 -44.5t12 -65.5zM465 430q16 8 28 22.5t20.5 32.5t13 37.5t4.5 39.5q0 29 -16 47q-9 10 -30.5 14t-51.5 4h-118l-46 -214h92q42 0 66 4.5t38 12.5zM517 957h161l-212 -143h-116z" />
    <glyph glyph-name="racute" unicode="&#x155;" horiz-adv-x="470" 
d="M258 561l12 -93h8l66 78q20 11 47 17.5t61 6.5q16 0 29.5 -1t27.5 -3l-28 -148q-17 4 -40.5 9t-58.5 5q-68 0 -119 -28l-85 -404h-161l119 561h122zM369 765h161l-212 -143h-116z" />
    <glyph glyph-name="Rcommaaccent" unicode="&#x156;" horiz-adv-x="719" 
d="M700 602q0 -57 -20 -115.5t-60 -99.5q-11 -6 -27.5 -13.5t-36 -14.5t-39.5 -14t-37 -12v-5q18 -10 41 -25.5t32 -27.5q7 -11 17.5 -40t21.5 -67.5t22 -82.5t20 -85h-174q-21 109 -41 179t-39 86q-11 11 -39.5 14.5t-60.5 3.5h-38l-60 -283h-160l158 750h294
q72 0 115.5 -10t65.5 -28q21 -17 33 -44.5t12 -65.5zM465 430q16 8 28 22.5t20.5 32.5t13 37.5t4.5 39.5q0 29 -16 47q-9 10 -30.5 14t-51.5 4h-118l-46 -214h92q42 0 66 4.5t38 12.5zM250 -82h145l-129 -155h-115z" />
    <glyph glyph-name="rcommaaccent" unicode="&#x157;" horiz-adv-x="470" 
d="M258 561l12 -93h8l66 78q20 11 47 17.5t61 6.5q16 0 29.5 -1t27.5 -3l-28 -148q-17 4 -40.5 9t-58.5 5q-68 0 -119 -28l-85 -404h-161l119 561h122zM57 -82h145l-129 -155h-115z" />
    <glyph glyph-name="Rcaron" unicode="&#x158;" horiz-adv-x="719" 
d="M700 602q0 -57 -20 -115.5t-60 -99.5q-11 -6 -27.5 -13.5t-36 -14.5t-39.5 -14t-37 -12v-5q18 -10 41 -25.5t32 -27.5q7 -11 17.5 -40t21.5 -67.5t22 -82.5t20 -85h-174q-21 109 -41 179t-39 86q-11 11 -39.5 14.5t-60.5 3.5h-38l-60 -283h-160l158 750h294
q72 0 115.5 -10t65.5 -28q21 -17 33 -44.5t12 -65.5zM465 430q16 8 28 22.5t20.5 32.5t13 37.5t4.5 39.5q0 29 -16 47q-9 10 -30.5 14t-51.5 4h-118l-46 -214h92q42 0 66 4.5t38 12.5zM280 950h98l69 -70l98 70h109l-160 -136h-112z" />
    <glyph glyph-name="rcaron" unicode="&#x159;" horiz-adv-x="470" 
d="M258 561l12 -93h8l66 78q20 11 47 17.5t61 6.5q16 0 29.5 -1t27.5 -3l-28 -148q-17 4 -40.5 9t-58.5 5q-68 0 -119 -28l-85 -404h-161l119 561h122zM161 758h98l69 -70l98 70h109l-160 -136h-112z" />
    <glyph glyph-name="Sacute" unicode="&#x15a;" horiz-adv-x="640" 
d="M568 243q-1 -30 -7.5 -60t-18.5 -57t-29.5 -50t-39.5 -39q-36 -26 -92.5 -37.5t-132.5 -11.5q-38 0 -74.5 3t-69.5 8t-60.5 11t-46.5 12l19 125q16 -4 41 -8.5t54.5 -8.5t61 -7t61.5 -3q52 0 82.5 5.5t44.5 16.5q17 11 26 32t10 44q3 32 -13 48q-17 15 -52.5 29t-75 30.5
t-75.5 36t-54 45.5q-13 19 -18.5 46.5t-4.5 60.5q1 27 7 54.5t18 53.5t29.5 49t41.5 40q32 24 87.5 38.5t143.5 14.5q72 0 132 -8.5t95 -15.5l-21 -128q-38 5 -93 12t-117 7q-52 0 -80.5 -7t-42.5 -18q-15 -11 -23.5 -32t-9.5 -44q-2 -26 8 -40q12 -15 48.5 -30.5
t79.5 -32.5t82 -36.5t56 -42.5q11 -17 18 -43t5 -62zM480 957h161l-212 -143h-116z" />
    <glyph glyph-name="sacute" unicode="&#x15b;" horiz-adv-x="523" 
d="M449 196q0 -21 -4.5 -44.5t-14 -46.5t-24.5 -43.5t-36 -34.5q-29 -18 -72 -26.5t-110 -8.5q-59 0 -108.5 8t-81.5 16l11 112q27 -6 74.5 -14t99.5 -8q35 0 54.5 4t29.5 11q11 6 17 20.5t6 29.5q0 8 -1 14t-6 11q-9 9 -33.5 18.5t-54 20t-57 23t-42.5 28.5q-25 28 -25 79
q0 22 5 46.5t15.5 48t26.5 44.5t39 36q31 20 73 27t98 7q61 0 109.5 -7t76.5 -12l-20 -110q-30 5 -74.5 9.5t-90.5 4.5q-33 0 -53 -3.5t-31 -13.5q-9 -8 -15 -23t-6 -30q0 -6 1.5 -12t6.5 -12q11 -12 37 -21.5t55 -19.5t56 -20.5t41 -24.5q28 -30 28 -83zM378 765h161
l-212 -143h-116z" />
    <glyph glyph-name="Scircumflex" unicode="&#x15c;" horiz-adv-x="640" 
d="M568 243q-1 -30 -7.5 -60t-18.5 -57t-29.5 -50t-39.5 -39q-36 -26 -92.5 -37.5t-132.5 -11.5q-38 0 -74.5 3t-69.5 8t-60.5 11t-46.5 12l19 125q16 -4 41 -8.5t54.5 -8.5t61 -7t61.5 -3q52 0 82.5 5.5t44.5 16.5q17 11 26 32t10 44q3 32 -13 48q-17 15 -52.5 29t-75 30.5
t-75.5 36t-54 45.5q-13 19 -18.5 46.5t-4.5 60.5q1 27 7 54.5t18 53.5t29.5 49t41.5 40q32 24 87.5 38.5t143.5 14.5q72 0 132 -8.5t95 -15.5l-21 -128q-38 5 -93 12t-117 7q-52 0 -80.5 -7t-42.5 -18q-15 -11 -23.5 -32t-9.5 -44q-2 -26 8 -40q12 -15 48.5 -30.5
t79.5 -32.5t82 -36.5t56 -42.5q11 -17 18 -43t5 -62zM595 811h-99l-67 71l-99 -71h-109l160 136h112z" />
    <glyph glyph-name="scircumflex" unicode="&#x15d;" horiz-adv-x="523" 
d="M449 196q0 -21 -4.5 -44.5t-14 -46.5t-24.5 -43.5t-36 -34.5q-29 -18 -72 -26.5t-110 -8.5q-59 0 -108.5 8t-81.5 16l11 112q27 -6 74.5 -14t99.5 -8q35 0 54.5 4t29.5 11q11 6 17 20.5t6 29.5q0 8 -1 14t-6 11q-9 9 -33.5 18.5t-54 20t-57 23t-42.5 28.5q-25 28 -25 79
q0 22 5 46.5t15.5 48t26.5 44.5t39 36q31 20 73 27t98 7q61 0 109.5 -7t76.5 -12l-20 -110q-30 5 -74.5 9.5t-90.5 4.5q-33 0 -53 -3.5t-31 -13.5q-9 -8 -15 -23t-6 -30q0 -6 1.5 -12t6.5 -12q11 -12 37 -21.5t55 -19.5t56 -20.5t41 -24.5q28 -30 28 -83zM513 622h-99
l-67 71l-99 -71h-109l160 136h112z" />
    <glyph glyph-name="Scedilla" unicode="&#x15e;" horiz-adv-x="640" 
d="M220 -11q-69 2 -129 12t-94 21l19 125q16 -4 41 -8.5t54.5 -8.5t61 -7t61.5 -3q52 0 82.5 5.5t44.5 16.5q17 11 26 32t10 44q3 32 -13 48q-17 15 -52.5 29t-75 30.5t-75.5 36t-54 45.5q-13 19 -18.5 46.5t-4.5 60.5q1 27 7 54.5t18 53.5t29.5 49t41.5 40q32 24 87.5 38.5
t143.5 14.5q72 0 132 -8.5t95 -15.5l-21 -128q-38 5 -93 12t-117 7q-52 0 -80.5 -7t-42.5 -18q-15 -11 -23.5 -32t-9.5 -44q-2 -26 8 -40q12 -15 48.5 -30.5t79.5 -32.5t82 -36.5t56 -42.5q11 -17 18 -43t5 -62q-1 -30 -7.5 -60t-18.5 -57t-29.5 -50t-39.5 -39
q-64 -45 -197 -48l-15 -37q58 -2 77 -21q13 -12 13 -44q0 -33 -13 -61.5t-33 -40.5q-38 -24 -118 -24q-32 0 -58.5 5t-43.5 12l10 65q20 -5 43.5 -9t52.5 -4q23 0 35.5 2.5t17.5 6.5q6 4 10.5 14t4.5 21q0 9 -5 16q-5 4 -14.5 6t-32.5 2h-28z" />
    <glyph glyph-name="scedilla" unicode="&#x15f;" horiz-adv-x="523" 
d="M164 -7q-51 2 -94 9t-72 14l11 112q27 -6 74.5 -14t99.5 -8q35 0 54.5 4t29.5 11q11 6 17 20.5t6 29.5q0 8 -1 14t-6 11q-9 9 -33.5 18.5t-54 20t-57 23t-42.5 28.5q-25 28 -25 79q0 22 5 46.5t15.5 48t26.5 44.5t39 36q31 20 73 27t98 7q61 0 109.5 -7t76.5 -12
l-20 -110q-30 5 -74.5 9.5t-90.5 4.5q-33 0 -53 -3.5t-31 -13.5q-9 -8 -15 -23t-6 -30q0 -6 1.5 -12t6.5 -12q11 -12 37 -21.5t55 -19.5t56 -20.5t41 -24.5q28 -30 28 -83q0 -21 -4.5 -44.5t-14 -46.5t-24.5 -43.5t-36 -34.5q-25 -16 -60.5 -24t-88.5 -10l-17 -41
q58 -2 77 -21q13 -12 13 -44q0 -33 -13 -61.5t-33 -40.5q-38 -24 -118 -24q-32 0 -58.5 5t-43.5 12l10 65q20 -5 43.5 -9t52.5 -4q23 0 35.5 2.5t17.5 6.5q6 4 10.5 14t4.5 21q0 9 -5 16q-5 4 -14.5 6t-32.5 2h-28z" />
    <glyph glyph-name="Scaron" unicode="&#x160;" horiz-adv-x="640" 
d="M568 243q-1 -30 -7.5 -60t-18.5 -57t-29.5 -50t-39.5 -39q-36 -26 -92.5 -37.5t-132.5 -11.5q-38 0 -74.5 3t-69.5 8t-60.5 11t-46.5 12l19 125q16 -4 41 -8.5t54.5 -8.5t61 -7t61.5 -3q52 0 82.5 5.5t44.5 16.5q17 11 26 32t10 44q3 32 -13 48q-17 15 -52.5 29t-75 30.5
t-75.5 36t-54 45.5q-13 19 -18.5 46.5t-4.5 60.5q1 27 7 54.5t18 53.5t29.5 49t41.5 40q32 24 87.5 38.5t143.5 14.5q72 0 132 -8.5t95 -15.5l-21 -128q-38 5 -93 12t-117 7q-52 0 -80.5 -7t-42.5 -18q-15 -11 -23.5 -32t-9.5 -44q-2 -26 8 -40q12 -15 48.5 -30.5
t79.5 -32.5t82 -36.5t56 -42.5q11 -17 18 -43t5 -62zM271 947h98l69 -70l98 70h109l-160 -136h-112z" />
    <glyph glyph-name="scaron" unicode="&#x161;" horiz-adv-x="523" 
d="M449 196q0 -21 -4.5 -44.5t-14 -46.5t-24.5 -43.5t-36 -34.5q-29 -18 -72 -26.5t-110 -8.5q-59 0 -108.5 8t-81.5 16l11 112q27 -6 74.5 -14t99.5 -8q35 0 54.5 4t29.5 11q11 6 17 20.5t6 29.5q0 8 -1 14t-6 11q-9 9 -33.5 18.5t-54 20t-57 23t-42.5 28.5q-25 28 -25 79
q0 22 5 46.5t15.5 48t26.5 44.5t39 36q31 20 73 27t98 7q61 0 109.5 -7t76.5 -12l-20 -110q-30 5 -74.5 9.5t-90.5 4.5q-33 0 -53 -3.5t-31 -13.5q-9 -8 -15 -23t-6 -30q0 -6 1.5 -12t6.5 -12q11 -12 37 -21.5t55 -19.5t56 -20.5t41 -24.5q28 -30 28 -83zM167 758h98l69 -70
l98 70h109l-160 -136h-112z" />
    <glyph glyph-name="uni0162" unicode="&#x162;" horiz-adv-x="652" 
d="M675 615h-212l-130 -615h-161l130 615h-225l52 135h595zM179 -81h145l-129 -155h-115z" />
    <glyph glyph-name="uni0163" unicode="&#x163;" horiz-adv-x="448" 
d="M442 443h-157l-51 -238q-3 -14 -5 -27t-2 -24q0 -24 14 -32.5t45 -8.5q25 0 55 3.5t47 6.5l-31 -113q-28 -7 -64 -13t-82 -6q-81 0 -116.5 28t-35.5 88q0 35 9 76l55 260h-79l32 117h72l20 93l167 29l-26 -122h176zM123 -82h145l-129 -155h-115z" />
    <glyph glyph-name="Tcaron" unicode="&#x164;" horiz-adv-x="652" 
d="M675 615h-212l-130 -615h-161l130 615h-225l52 135h595zM252 947h98l69 -70l98 70h109l-160 -136h-112z" />
    <glyph glyph-name="tcaron" unicode="&#x165;" horiz-adv-x="448" 
d="M442 443h-157l-51 -238q-3 -14 -5 -27t-2 -24q0 -24 14 -32.5t45 -8.5q25 0 55 3.5t47 6.5l-31 -113q-28 -7 -64 -13t-82 -6q-81 0 -116.5 28t-35.5 88q0 35 9 76l55 260h-79l32 117h72l20 93l167 29l-26 -122h176zM488 883h126l-114 -248h-102z" />
    <glyph glyph-name="Tbar" unicode="&#x166;" horiz-adv-x="638" 
d="M69 376h168l51 239h-226l54 135h596l-52 -135h-211l-50 -239h181l-21 -99h-181l-59 -277h-161l58 277h-169z" />
    <glyph glyph-name="tbar" unicode="&#x167;" horiz-adv-x="448" 
d="M25 336h75l23 108h-79l32 117h72l20 92l167 30l-26 -122h176l-43 -117h-157l-24 -108h165l-21 -95h-164l-8 -42q-3 -12 -5 -24t-2 -21q0 -23 14.5 -31.5t46.5 -8.5q26 0 55.5 3.5t45.5 6.5l-32 -114q-28 -6 -64 -12.5t-81 -6.5q-81 0 -116.5 28t-35.5 88q0 37 9 76l11 58
h-75z" />
    <glyph glyph-name="Utilde" unicode="&#x168;" horiz-adv-x="782" 
d="M792 750l-97 -456q-19 -91 -45 -147t-64 -89q-35 -31 -98.5 -51t-152.5 -20q-59 0 -101 7.5t-70.5 20.5t-46 28.5t-28.5 32.5q-12 19 -19 44t-7 59q0 26 3.5 58t13.5 77l92 436h161l-93 -439q-8 -35 -11.5 -61t-3.5 -43q0 -27 10 -41q11 -15 38 -26t78 -11q47 0 78 10
t49 26q16 13 30 43.5t28 92.5l96 449h160zM302 824q13 55 43 88.5t82 33.5q25 0 43.5 -8.5t34 -19t29.5 -19t29 -8.5q37 0 50 49h67q-14 -63 -47 -93t-78 -30q-25 0 -43.5 8.5t-34 19t-29.5 19t-30 8.5q-21 0 -32.5 -13t-16.5 -35h-67z" />
    <glyph glyph-name="utilde" unicode="&#x169;" horiz-adv-x="686" 
d="M296 561l-68 -324q-5 -21 -7.5 -38t-2.5 -30q0 -20 8 -31q10 -12 27.5 -15.5t39.5 -3.5q35 0 65.5 7.5t53.5 16.5l89 418h161l-119 -561h-128l-8 95h-7l-72 -78q-20 -9 -52.5 -16.5t-77.5 -7.5t-77 11.5t-49 34.5q-11 15 -16.5 34.5t-5.5 46.5q0 40 13 102l72 339h161z
M228 635q13 55 43 88.5t82 33.5q25 0 43.5 -8.5t34 -19t29.5 -19t29 -8.5q37 0 50 49h67q-14 -63 -47 -93t-78 -30q-25 0 -43.5 8.5t-34 19t-29.5 19t-30 8.5q-21 0 -32.5 -13t-16.5 -35h-67z" />
    <glyph glyph-name="Umacron" unicode="&#x16a;" horiz-adv-x="782" 
d="M792 750l-97 -456q-19 -91 -45 -147t-64 -89q-35 -31 -98.5 -51t-152.5 -20q-59 0 -101 7.5t-70.5 20.5t-46 28.5t-28.5 32.5q-12 19 -19 44t-7 59q0 26 3.5 58t13.5 77l92 436h161l-93 -439q-8 -35 -11.5 -61t-3.5 -43q0 -27 10 -41q11 -15 38 -26t78 -11q47 0 78 10
t49 26q16 13 30 43.5t28 92.5l96 449h160zM358 915h309l-20 -90h-309z" />
    <glyph glyph-name="umacron" unicode="&#x16b;" horiz-adv-x="686" 
d="M296 561l-68 -324q-5 -21 -7.5 -38t-2.5 -30q0 -20 8 -31q10 -12 27.5 -15.5t39.5 -3.5q35 0 65.5 7.5t53.5 16.5l89 418h161l-119 -561h-128l-8 95h-7l-72 -78q-20 -9 -52.5 -16.5t-77.5 -7.5t-77 11.5t-49 34.5q-11 15 -16.5 34.5t-5.5 46.5q0 40 13 102l72 339h161z
M276 726h309l-20 -90h-309z" />
    <glyph glyph-name="Ubreve" unicode="&#x16c;" horiz-adv-x="782" 
d="M792 750l-97 -456q-19 -91 -45 -147t-64 -89q-35 -31 -98.5 -51t-152.5 -20q-59 0 -101 7.5t-70.5 20.5t-46 28.5t-28.5 32.5q-12 19 -19 44t-7 59q0 26 3.5 58t13.5 77l92 436h161l-93 -439q-8 -35 -11.5 -61t-3.5 -43q0 -27 10 -41q11 -15 38 -26t78 -11q47 0 78 10
t49 26q16 13 30 43.5t28 92.5l96 449h160zM427 954q-2 -7 -3 -13t-1 -11q0 -24 20 -35.5t50 -11.5q45 0 66.5 18t26.5 53h85q-3 -30 -14.5 -56t-33.5 -45.5t-55.5 -31t-81.5 -11.5q-68 0 -106.5 27t-38.5 81q0 7 1 17.5t3 18.5h82z" />
    <glyph glyph-name="ubreve" unicode="&#x16d;" horiz-adv-x="686" 
d="M296 561l-68 -324q-5 -21 -7.5 -38t-2.5 -30q0 -20 8 -31q10 -12 27.5 -15.5t39.5 -3.5q35 0 65.5 7.5t53.5 16.5l89 418h161l-119 -561h-128l-8 95h-7l-72 -78q-20 -9 -52.5 -16.5t-77.5 -7.5t-77 11.5t-49 34.5q-11 15 -16.5 34.5t-5.5 46.5q0 40 13 102l72 339h161z
M349 764q-2 -7 -3 -13t-1 -11q0 -24 20 -35.5t50 -11.5q45 0 66.5 18t26.5 53h85q-3 -30 -14.5 -56t-33.5 -45.5t-55.5 -31t-81.5 -11.5q-68 0 -106.5 27t-38.5 81q0 7 1 17.5t3 18.5h82z" />
    <glyph glyph-name="Uring" unicode="&#x16e;" horiz-adv-x="782" 
d="M792 750l-97 -456q-19 -91 -45 -147t-64 -89q-35 -31 -98.5 -51t-152.5 -20q-59 0 -101 7.5t-70.5 20.5t-46 28.5t-28.5 32.5q-12 19 -19 44t-7 59q0 26 3.5 58t13.5 77l92 436h161l-93 -439q-8 -35 -11.5 -61t-3.5 -43q0 -27 10 -41q11 -15 38 -26t78 -11q47 0 78 10
t49 26q16 13 30 43.5t28 92.5l96 449h160zM486 805q-40 0 -65.5 17t-25.5 54q0 26 9 54.5t32 45.5q17 14 39 19.5t51 5.5q42 0 65.5 -17t23.5 -52q0 -24 -9 -54t-32 -48q-15 -12 -36 -18.5t-52 -6.5zM495 855q26 0 38 12q9 9 14 24.5t5 31.5q0 26 -37 26q-28 0 -39 -11
q-8 -9 -13 -23.5t-5 -29.5t8 -22.5t29 -7.5z" />
    <glyph glyph-name="uring" unicode="&#x16f;" horiz-adv-x="686" 
d="M296 561l-68 -324q-5 -21 -7.5 -38t-2.5 -30q0 -20 8 -31q10 -12 27.5 -15.5t39.5 -3.5q35 0 65.5 7.5t53.5 16.5l89 418h161l-119 -561h-128l-8 95h-7l-72 -78q-20 -9 -52.5 -16.5t-77.5 -7.5t-77 11.5t-49 34.5q-11 15 -16.5 34.5t-5.5 46.5q0 40 13 102l72 339h161z
M403 615q-40 0 -65.5 17t-25.5 54q0 26 9 54.5t32 45.5q17 14 39 19.5t51 5.5q42 0 65.5 -17t23.5 -52q0 -24 -9 -54t-32 -48q-15 -12 -36 -18.5t-52 -6.5zM412 665q26 0 38 12q9 9 14 24.5t5 31.5q0 26 -37 26q-28 0 -39 -11q-8 -9 -13 -23.5t-5 -29.5t8 -22.5t29 -7.5z
" />
    <glyph glyph-name="Uhungarumlaut" unicode="&#x170;" horiz-adv-x="782" 
d="M792 750l-97 -456q-19 -91 -45 -147t-64 -89q-35 -31 -98.5 -51t-152.5 -20q-59 0 -101 7.5t-70.5 20.5t-46 28.5t-28.5 32.5q-12 19 -19 44t-7 59q0 26 3.5 58t13.5 77l92 436h161l-93 -439q-8 -35 -11.5 -61t-3.5 -43q0 -27 10 -41q11 -15 38 -26t78 -11q47 0 78 10
t49 26q16 13 30 43.5t28 92.5l96 449h160zM431 949h137l-161 -137h-99zM636 949h138l-162 -137h-99z" />
    <glyph glyph-name="uhungarumlaut" unicode="&#x171;" horiz-adv-x="686" 
d="M296 561l-68 -324q-5 -21 -7.5 -38t-2.5 -30q0 -20 8 -31q10 -12 27.5 -15.5t39.5 -3.5q35 0 65.5 7.5t53.5 16.5l89 418h161l-119 -561h-128l-8 95h-7l-72 -78q-20 -9 -52.5 -16.5t-77.5 -7.5t-77 11.5t-49 34.5q-11 15 -16.5 34.5t-5.5 46.5q0 40 13 102l72 339h161z
M357 760h137l-161 -137h-99zM562 760h138l-162 -137h-99z" />
    <glyph glyph-name="Uogonek" unicode="&#x172;" horiz-adv-x="782" 
d="M399 -224q-36 0 -57 5t-32 16q-16 14 -16 51q0 24 7.5 46.5t21.5 37.5q12 11 36.5 27.5t56.5 32.5q-19 -2 -39 -3.5t-42 -1.5q-59 0 -101 7.5t-70.5 20.5t-46 28.5t-28.5 32.5q-12 19 -19 44t-7 59q0 26 3.5 58t13.5 77l92 436h161l-93 -439q-8 -35 -11.5 -61t-3.5 -43
q0 -27 10 -41q11 -15 38 -26t78 -11q47 0 78 10t49 26q16 13 30 43.5t28 92.5l96 449h160l-97 -456q-19 -91 -45 -147t-64 -89q-16 -14 -30.5 -25.5t-29.5 -21.5t-31 -20t-34 -22q-29 -18 -47 -33t-25 -24q-5 -7 -8.5 -17t-3.5 -21q0 -14 5 -19q9 -9 43 -9q22 0 39.5 1.5
t29.5 3.5l-11 -65q-12 -3 -34.5 -6.5t-49.5 -3.5z" />
    <glyph glyph-name="uogonek" unicode="&#x173;" horiz-adv-x="686" 
d="M407 95h-7l-72 -78q-20 -9 -52.5 -16.5t-77.5 -7.5t-77 11.5t-49 34.5q-11 15 -16.5 34.5t-5.5 46.5q0 40 13 102l72 339h161l-68 -324q-5 -21 -7.5 -38t-2.5 -30q0 -20 8 -31q10 -12 27.5 -15.5t39.5 -3.5q35 0 65.5 7.5t53.5 16.5l89 418h161l-119 -561h-42l-57 -36
q-26 -17 -45 -30.5t-25 -21.5q-5 -6 -9 -16.5t-4 -21.5q0 -14 5 -19q9 -9 43 -9q22 0 39.5 1.5t30.5 3.5l-11 -65q-13 -3 -35.5 -6.5t-48.5 -3.5q-37 0 -57.5 5t-31.5 16q-17 14 -17 51q0 24 8 46.5t22 37.5q12 13 41.5 31.5t65.5 36.5z" />
    <glyph glyph-name="Wcircumflex" unicode="&#x174;" horiz-adv-x="1153" 
d="M879 0h-239l-1 596h-15l-268 -596h-243l1 750h163l-13 -596h21l267 596h229l-1 -596h20l249 596h175zM846 811h-99l-67 71l-99 -71h-109l160 136h112z" />
    <glyph glyph-name="wcircumflex" unicode="&#x175;" horiz-adv-x="965" 
d="M734 0h-218l-10 422h-11l-197 -422h-224l1 561h153l-11 -421h16l197 421h207l6 -421h15l175 421h166zM717 622h-99l-67 71l-99 -71h-109l160 136h112z" />
    <glyph glyph-name="Ycircumflex" unicode="&#x176;" horiz-adv-x="709" 
d="M359 0h-166l52 245l-143 505h166l84 -344h12l234 344h193l-380 -505zM612 811h-99l-67 71l-99 -71h-109l160 136h112z" />
    <glyph glyph-name="ycircumflex" unicode="&#x177;" horiz-adv-x="622" 
d="M203 -272h-167l156 272h-74l-60 561h162l30 -421h21l217 421h177zM540 622h-99l-67 71l-99 -71h-109l160 136h112z" />
    <glyph glyph-name="Ydieresis" unicode="&#x178;" horiz-adv-x="709" 
d="M359 0h-166l52 245l-143 505h166l84 -344h12l234 344h193l-380 -505zM316 818q-38 0 -51 15q-7 8 -7 27q0 17 7.5 36.5t23.5 29.5q17 10 51 10q35 0 47 -12q9 -9 9 -27t-7 -37t-21 -30q-8 -6 -22.5 -9t-29.5 -3zM533 818q-39 0 -51 15q-7 8 -7 25q0 19 7.5 38.5
t23.5 29.5q17 10 52 10t46 -12q5 -5 7 -12t2 -15q0 -17 -6.5 -36.5t-21.5 -30.5q-8 -6 -22 -9t-30 -3z" />
    <glyph glyph-name="Zacute" unicode="&#x179;" horiz-adv-x="697" 
d="M703 598l-488 -448l-3 -14h418l-55 -136h-593l32 154l481 447l3 15h-357l52 134h542zM514 955h161l-212 -143h-116z" />
    <glyph glyph-name="zacute" unicode="&#x17a;" horiz-adv-x="561" 
d="M538 421l-328 -283l-3 -15h298l-51 -123h-475l27 130l334 294l3 15h-260l51 122h432zM422 765h161l-212 -143h-116z" />
    <glyph glyph-name="Zdotaccent" unicode="&#x17b;" horiz-adv-x="697" 
d="M703 598l-488 -448l-3 -14h418l-55 -136h-593l32 154l481 447l3 15h-357l52 134h542zM456 821q-45 0 -58 18q-9 10 -9 31q0 24 9 47.5t27 34.5q16 12 59 12t57 -15q11 -13 11 -36t-8 -45t-24 -33q-11 -8 -27.5 -11t-36.5 -3z" />
    <glyph glyph-name="zdotaccent" unicode="&#x17c;" horiz-adv-x="561" 
d="M538 421l-328 -283l-3 -15h298l-51 -123h-475l27 130l334 294l3 15h-260l51 122h432zM353 632q-45 0 -58 18q-9 10 -9 31q0 24 9 47.5t27 34.5q16 12 59 12t57 -15q11 -13 11 -36t-8 -45t-24 -33q-11 -8 -27.5 -11t-36.5 -3z" />
    <glyph glyph-name="Zcaron" unicode="&#x17d;" horiz-adv-x="697" 
d="M703 598l-488 -448l-3 -14h418l-55 -136h-593l32 154l481 447l3 15h-357l52 134h542zM292 947h98l69 -70l98 70h109l-160 -136h-112z" />
    <glyph glyph-name="zcaron" unicode="&#x17e;" horiz-adv-x="561" 
d="M538 421l-328 -283l-3 -15h298l-51 -123h-475l27 130l334 294l3 15h-260l51 122h432zM197 758h98l69 -70l98 70h109l-160 -136h-112z" />
    <glyph glyph-name="florin" unicode="&#x192;" horiz-adv-x="659" 
d="M444 442h145l-37 -117h-143l-67 -229q-17 -57 -37 -96.5t-48 -64t-66.5 -35t-90.5 -10.5q-49 0 -84.5 5t-53.5 7l23 108q16 -2 37 -4.5t47 -2.5q51 0 73.5 22t37.5 73l67 227h-137l34 117h137l34 112q18 61 39 101t48.5 63.5t65 32.5t88.5 9q50 0 85.5 -5t52.5 -8
l-22 -108q-16 2 -37.5 4.5t-46.5 2.5q-26 0 -44 -5t-30.5 -16.5t-21.5 -29.5t-16 -43z" />
    <glyph glyph-name="Scommaaccent" unicode="&#x218;" horiz-adv-x="640" 
d="M568 243q-1 -30 -7.5 -60t-18.5 -57t-29.5 -50t-39.5 -39q-36 -26 -92.5 -37.5t-132.5 -11.5q-38 0 -74.5 3t-69.5 8t-60.5 11t-46.5 12l19 125q16 -4 41 -8.5t54.5 -8.5t61 -7t61.5 -3q52 0 82.5 5.5t44.5 16.5q17 11 26 32t10 44q3 32 -13 48q-17 15 -52.5 29t-75 30.5
t-75.5 36t-54 45.5q-13 19 -18.5 46.5t-4.5 60.5q1 27 7 54.5t18 53.5t29.5 49t41.5 40q32 24 87.5 38.5t143.5 14.5q72 0 132 -8.5t95 -15.5l-21 -128q-38 5 -93 12t-117 7q-52 0 -80.5 -7t-42.5 -18q-15 -11 -23.5 -32t-9.5 -44q-2 -26 8 -40q12 -15 48.5 -30.5
t79.5 -32.5t82 -36.5t56 -42.5q11 -17 18 -43t5 -62zM190 -82h145l-129 -155h-115z" />
    <glyph glyph-name="scommaaccent" unicode="&#x219;" horiz-adv-x="523" 
d="M449 196q0 -21 -4.5 -44.5t-14 -46.5t-24.5 -43.5t-36 -34.5q-29 -18 -72 -26.5t-110 -8.5q-59 0 -108.5 8t-81.5 16l11 112q27 -6 74.5 -14t99.5 -8q35 0 54.5 4t29.5 11q11 6 17 20.5t6 29.5q0 8 -1 14t-6 11q-9 9 -33.5 18.5t-54 20t-57 23t-42.5 28.5q-25 28 -25 79
q0 22 5 46.5t15.5 48t26.5 44.5t39 36q31 20 73 27t98 7q61 0 109.5 -7t76.5 -12l-20 -110q-30 5 -74.5 9.5t-90.5 4.5q-33 0 -53 -3.5t-31 -13.5q-9 -8 -15 -23t-6 -30q0 -6 1.5 -12t6.5 -12q11 -12 37 -21.5t55 -19.5t56 -20.5t41 -24.5q28 -30 28 -83zM133 -82h145
l-129 -155h-115z" />
    <glyph glyph-name="uni021A" unicode="&#x21a;" horiz-adv-x="652" 
d="M675 615h-212l-130 -615h-161l130 615h-225l52 135h595zM179 -81h145l-129 -155h-115z" />
    <glyph glyph-name="uni021B" unicode="&#x21b;" horiz-adv-x="448" 
d="M442 443h-157l-51 -238q-3 -14 -5 -27t-2 -24q0 -24 14 -32.5t45 -8.5q25 0 55 3.5t47 6.5l-31 -113q-28 -7 -64 -13t-82 -6q-81 0 -116.5 28t-35.5 88q0 35 9 76l55 260h-79l32 117h72l20 93l167 29l-26 -122h176zM123 -82h145l-129 -155h-115z" />
    <glyph glyph-name="dotlessj" unicode="&#x237;" horiz-adv-x="318" 
d="M164 -66q-23 -107 -81 -158t-166 -51q-37 0 -68 4t-49 8l12 109q13 -2 36.5 -3.5t47.5 -1.5q48 0 72.5 21.5t35.5 75.5l131 623h162z" />
    <glyph glyph-name="circumflex" unicode="&#x2c6;" horiz-adv-x="378" 
d="M438 622h-99l-67 71l-99 -71h-109l160 136h112z" />
    <glyph glyph-name="caron" unicode="&#x2c7;" horiz-adv-x="378" 
d="M93 758h98l69 -70l98 70h109l-160 -136h-112z" />
    <glyph glyph-name="uni02C9" unicode="&#x2c9;" horiz-adv-x="378" 
d="M122 734h309l-20 -90h-309z" />
    <glyph glyph-name="breve" unicode="&#x2d8;" horiz-adv-x="415" 
d="M196 764q-2 -7 -3 -13t-1 -11q0 -24 20 -35.5t50 -11.5q45 0 66.5 18t26.5 53h85q-3 -30 -14.5 -56t-33.5 -45.5t-55.5 -31t-81.5 -11.5q-68 0 -106.5 27t-38.5 81q0 7 1 17.5t3 18.5h82z" />
    <glyph glyph-name="dotaccent" unicode="&#x2d9;" horiz-adv-x="379" 
d="M247 632q-45 0 -58 18q-9 10 -9 31q0 24 9 47.5t27 34.5q16 12 59 12t57 -15q11 -13 11 -36t-8 -45t-24 -33q-11 -8 -27.5 -11t-36.5 -3z" />
    <glyph glyph-name="ring" unicode="&#x2da;" horiz-adv-x="378" 
d="M260 615q-40 0 -65.5 17t-25.5 54q0 26 9 54.5t32 45.5q17 14 39 19.5t51 5.5q42 0 65.5 -17t23.5 -52q0 -24 -9 -54t-32 -48q-15 -12 -36 -18.5t-52 -6.5zM269 665q26 0 38 12q9 9 14 24.5t5 31.5q0 26 -37 26q-28 0 -39 -11q-8 -9 -13 -23.5t-5 -29.5t8 -22.5t29 -7.5z
" />
    <glyph glyph-name="ogonek" unicode="&#x2db;" horiz-adv-x="322" 
d="M150 -36q-26 -17 -45 -30.5t-26 -21.5q-12 -14 -12 -38q0 -14 5 -19q9 -9 43 -9q22 0 39.5 1.5t30.5 3.5l-11 -65q-13 -3 -35.5 -6.5t-49.5 -3.5q-36 0 -56.5 5t-31.5 16q-17 14 -17 51q0 24 8 46.5t22 37.5q12 13 41.5 31.5t65.5 36.5h86z" />
    <glyph glyph-name="tilde" unicode="&#x2dc;" horiz-adv-x="378" 
d="M72 635q13 55 43 88.5t82 33.5q25 0 43.5 -8.5t34 -19t29.5 -19t29 -8.5q37 0 50 49h67q-14 -63 -47 -93t-78 -30q-25 0 -43.5 8.5t-34 19t-29.5 19t-30 8.5q-21 0 -32.5 -13t-16.5 -35h-67z" />
    <glyph glyph-name="hungarumlaut" unicode="&#x2dd;" horiz-adv-x="503" 
d="M203 760h137l-161 -137h-99zM408 760h138l-162 -137h-99z" />
    <glyph glyph-name="uni0394" unicode="&#x394;" horiz-adv-x="749" 
d="M346 750h251l65 -652l-20 -98h-677l20 98zM186 140h305l-37 463h-24z" />
    <glyph glyph-name="uni03A9" unicode="&#x3a9;" horiz-adv-x="805" 
d="M675 0h-321l48 229q35 4 68 13t58 26q26 18 50 59t37 103q10 47 10 89.5t-23 66.5q-31 34 -132 34q-52 0 -87.5 -8t-61.5 -26q-26 -17 -50.5 -57.5t-37.5 -100.5q-5 -23 -8 -46t-2.5 -43t5 -37t14.5 -29q8 -11 20.5 -18.5t27 -13t29 -8.5t26.5 -4l-48 -229h-322l54 146
h188l3 14q-26 8 -55.5 22.5t-48.5 35.5q-37 39 -43 105.5t13 144.5q17 75 55 136t92 97q47 32 108.5 45.5t146.5 13.5q106 0 166.5 -21t89.5 -53q36 -38 43 -104t-12 -153q-17 -78 -51 -134.5t-86 -88.5q-30 -19 -68 -29.5t-73 -16.5l-3 -14h232z" />
    <glyph glyph-name="uni03BC" unicode="&#x3bc;" horiz-adv-x="686" 
d="M234 -6q-43 0 -60 25l-61 -290h-161l177 832h161l-71 -334q-3 -17 -5 -30.5t-2 -24.5q0 -20 11 -36q8 -11 25 -14.5t36 -3.5q40 0 71 10t61 23l88 410h162l-120 -561h-124l-10 97h-6l-59 -73q-20 -11 -51 -20.5t-62 -9.5z" />
    <glyph glyph-name="pi" unicode="&#x3c0;" horiz-adv-x="690" 
d="M158 444h-111l42 117h638l-42 -117h-104l-46 -218q-5 -24 -8.5 -42t-3.5 -29q0 -23 10.5 -32t31.5 -9q18 0 31.5 1.5t24.5 3.5l-29 -112q-20 -6 -47.5 -10.5t-59.5 -4.5q-63 0 -96.5 26.5t-33.5 86.5q0 23 5.5 50t10.5 56l50 233h-115l-131 -444h-153z" />
    <glyph glyph-name="Wgrave" unicode="&#x1e80;" horiz-adv-x="1153" 
d="M879 0h-239l-1 596h-15l-268 -596h-243l1 750h163l-13 -596h21l267 596h229l-1 -596h20l249 596h175zM631 955l127 -142h-109l-170 142h152z" />
    <glyph glyph-name="wgrave" unicode="&#x1e81;" horiz-adv-x="965" 
d="M734 0h-218l-10 422h-11l-197 -422h-224l1 561h153l-11 -421h16l197 421h207l6 -421h15l175 421h166zM495 765l127 -142h-109l-170 142h152z" />
    <glyph glyph-name="Wacute" unicode="&#x1e82;" horiz-adv-x="1153" 
d="M879 0h-239l-1 596h-15l-268 -596h-243l1 750h163l-13 -596h21l267 596h229l-1 -596h20l249 596h175zM744 955h161l-212 -143h-116z" />
    <glyph glyph-name="wacute" unicode="&#x1e83;" horiz-adv-x="965" 
d="M734 0h-218l-10 422h-11l-197 -422h-224l1 561h153l-11 -421h16l197 421h207l6 -421h15l175 421h166zM617 765h161l-212 -143h-116z" />
    <glyph glyph-name="Wdieresis" unicode="&#x1e84;" horiz-adv-x="1153" 
d="M879 0h-239l-1 596h-15l-268 -596h-243l1 750h163l-13 -596h21l267 596h229l-1 -596h20l249 596h175zM561 818q-38 0 -51 15q-7 8 -7 27q0 17 7.5 36.5t23.5 29.5q17 10 51 10q35 0 47 -12q9 -9 9 -27t-7 -37t-21 -30q-8 -6 -22.5 -9t-29.5 -3zM778 818q-39 0 -51 15
q-7 8 -7 25q0 19 7.5 38.5t23.5 29.5q17 10 52 10t46 -12q5 -5 7 -12t2 -15q0 -17 -6.5 -36.5t-21.5 -30.5q-8 -6 -22 -9t-30 -3z" />
    <glyph glyph-name="wdieresis" unicode="&#x1e85;" horiz-adv-x="965" 
d="M734 0h-218l-10 422h-11l-197 -422h-224l1 561h153l-11 -421h16l197 421h207l6 -421h15l175 421h166zM436 629q-38 0 -51 15q-7 8 -7 27q0 17 7.5 36.5t23.5 29.5q17 10 51 10q35 0 47 -12q9 -9 9 -27t-7 -37t-21 -30q-8 -6 -22.5 -9t-29.5 -3zM653 629q-39 0 -51 15
q-7 8 -7 25q0 19 7.5 38.5t23.5 29.5q17 10 52 10t46 -12q5 -5 7 -12t2 -15q0 -17 -6.5 -36.5t-21.5 -30.5q-8 -6 -22 -9t-30 -3z" />
    <glyph glyph-name="Ygrave" unicode="&#x1ef2;" horiz-adv-x="709" 
d="M359 0h-166l52 245l-143 505h166l84 -344h12l234 344h193l-380 -505zM380 955l127 -142h-109l-170 142h152z" />
    <glyph glyph-name="ygrave" unicode="&#x1ef3;" horiz-adv-x="622" 
d="M203 -272h-167l156 272h-74l-60 561h162l30 -421h21l217 421h177zM298 765l127 -142h-109l-170 142h152z" />
    <glyph glyph-name="endash" unicode="&#x2013;" horiz-adv-x="626" 
d="M540 237h-486l31 146h486z" />
    <glyph glyph-name="emdash" unicode="&#x2014;" horiz-adv-x="890" 
d="M804 237h-750l31 146h750z" />
    <glyph glyph-name="quoteleft" unicode="&#x2018;" horiz-adv-x="333" 
d="M234 487h-168l173 263h137z" />
    <glyph glyph-name="quoteright" unicode="&#x2019;" horiz-adv-x="333" 
d="M219 750h169l-173 -263h-137z" />
    <glyph glyph-name="quotesinglbase" unicode="&#x201a;" horiz-adv-x="333" 
d="M79 140h169l-173 -263h-137z" />
    <glyph glyph-name="quotedblleft" unicode="&#x201c;" horiz-adv-x="585" 
d="M487 487h-168l172 263h137zM233 487h-167l173 263h136z" />
    <glyph glyph-name="quotedblright" unicode="&#x201d;" horiz-adv-x="585" 
d="M474 750h170l-173 -263h-138zM221 750h169l-173 -263h-137z" />
    <glyph glyph-name="quotedblbase" unicode="&#x201e;" horiz-adv-x="585" 
d="M79 140h169l-173 -263h-137zM332 140h170l-174 -263h-137z" />
    <glyph glyph-name="dagger" unicode="&#x2020;" horiz-adv-x="645" 
d="M608 402h-185l-103 -485l-163 -27l110 512h-211l54 128h183l47 220h157l-47 -220h212z" />
    <glyph glyph-name="daggerdbl" unicode="&#x2021;" horiz-adv-x="645" 
d="M615 451h-185l-48 -224h213l-55 -127h-185l-39 -183l-161 -27l44 210h-211l54 127h184l48 224h-211l54 128h184l37 171h155l-36 -171h213z" />
    <glyph glyph-name="bullet" unicode="&#x2022;" horiz-adv-x="525" 
d="M131 311q0 27 10 51.5t28 42.5t42 28.5t52 10.5q27 0 51.5 -10.5t42.5 -28.5t28.5 -42.5t10.5 -51.5t-10.5 -51t-28.5 -42t-42.5 -28.5t-51.5 -10.5q-28 0 -52 10.5t-42 28.5t-28 42t-10 51z" />
    <glyph glyph-name="ellipsis" unicode="&#x2026;" horiz-adv-x="1046" 
d="M186 5q-12 -9 -30.5 -12.5t-43.5 -3.5q-57 0 -72 20q-5 5 -8 15.5t-3 21.5q0 31 10.5 58t29.5 40q12 8 30.5 11.5t41.5 3.5q55 0 70 -18q12 -12 12 -40t-9.5 -55t-27.5 -41zM532 5q-12 -9 -30.5 -12.5t-43.5 -3.5q-57 0 -72 20q-5 5 -8 15.5t-3 21.5q0 31 10.5 58
t29.5 40q12 8 30.5 11.5t41.5 3.5q55 0 70 -18q12 -12 12 -40t-9.5 -55t-27.5 -41zM879 5q-12 -9 -30.5 -12.5t-43.5 -3.5q-57 0 -72 20q-5 5 -8 15.5t-3 21.5q0 31 10.5 58t29.5 40q12 8 30.5 11.5t41.5 3.5q55 0 70 -18q12 -12 12 -40t-9.5 -55t-27.5 -41z" />
    <glyph glyph-name="perthousand" unicode="&#x2030;" horiz-adv-x="1452" 
d="M1424 287q0 -35 -7 -73.5t-20 -73.5t-31.5 -64.5t-41.5 -47.5q-29 -22 -63 -30t-78 -8q-48 0 -81 14t-51 37q-12 16 -19.5 39.5t-7.5 58.5q0 37 6.5 74.5t19.5 71t31 61.5t41 46q27 22 61 30.5t81 8.5q54 0 85.5 -13t47.5 -33q12 -16 19.5 -40t7.5 -58zM1251 97
q10 9 20.5 29t18.5 45.5t13 54t5 54.5q0 14 -2 23t-6 15q-14 19 -49 19q-17 0 -31 -3.5t-25 -12.5q-12 -10 -22 -30t-17.5 -45t-12 -51.5t-4.5 -50.5q0 -29 7 -39q15 -22 50 -22q17 0 30.5 3t24.5 11zM718 750h106l-497 -750h-107zM465 613q0 -35 -7 -73.5t-20 -73.5
t-31.5 -64.5t-42.5 -47.5q-28 -21 -62 -29t-78 -8q-48 0 -81 13.5t-51 36.5q-12 15 -19.5 39t-7.5 58q0 37 6.5 75t19.5 71.5t31 61.5t41 46q28 22 61.5 30.5t80.5 8.5q54 0 85.5 -12.5t47.5 -32.5q12 -16 19.5 -40.5t7.5 -58.5zM292 424q10 9 20.5 28.5t18.5 45t13 54.5
t5 55q0 14 -2 22.5t-6 14.5q-14 20 -49 20t-56 -17q-12 -10 -22.5 -30t-18 -45t-11.5 -52t-4 -51q0 -28 7 -38q15 -22 51 -22q17 0 30 3t24 12zM979 287q0 -35 -7 -73.5t-20 -73.5t-31.5 -64.5t-41.5 -47.5q-29 -22 -63 -30t-78 -8q-48 0 -80.5 14t-51.5 37
q-12 16 -19.5 39.5t-7.5 58.5q0 37 6.5 74.5t19.5 71t31 61.5t41 46q27 22 61.5 30.5t80.5 8.5q54 0 85.5 -13t47.5 -33q27 -33 27 -98zM807 97q10 9 20 29t18.5 45.5t13.5 54t5 54.5q0 14 -2.5 23t-6.5 15q-14 19 -49 19q-17 0 -31 -3.5t-25 -12.5q-12 -10 -22 -30
t-17.5 -45t-12 -51.5t-4.5 -50.5q0 -29 7 -39q15 -22 50 -22q17 0 30.5 3t25.5 11z" />
    <glyph glyph-name="guilsinglleft" unicode="&#x2039;" horiz-adv-x="331" 
d="M213 31l-188 212l18 82l277 208l-31 -142l-136 -100l-5 -24l93 -105z" />
    <glyph glyph-name="guilsinglright" unicode="&#x203a;" horiz-adv-x="331" 
d="M113 533l188 -211l-17 -83l-278 -208l30 143l136 99l6 24l-94 106z" />
    <glyph glyph-name="fraction" unicode="&#x2044;" horiz-adv-x="183" 
d="M379 750h99l-641 -750h-100z" />
    <glyph glyph-name="zero.superior" unicode="&#x2070;" 
d="M363 878q63 0 100 -16t54 -39q10 -15 16.5 -39t6.5 -58q0 -35 -6.5 -76.5t-19.5 -82.5t-33.5 -77t-48.5 -60q-29 -25 -69 -34t-85 -9q-62 0 -98 16t-53 40q-12 16 -19 42.5t-7 64.5q0 36 6 76.5t19 78.5t32.5 71.5t46.5 56.5q29 23 67 34.5t91 10.5zM290 484q25 0 42.5 6
t28.5 16q12 12 23.5 37t20.5 55.5t14 62.5t5 58q0 23 -7 37q-7 13 -24.5 19t-41.5 6q-23 0 -42 -5.5t-32 -17.5q-13 -14 -24 -38t-19.5 -53t-13 -59.5t-4.5 -56.5q0 -30 8 -43q18 -24 66 -24z" />
    <glyph glyph-name="four.superior" unicode="&#x2074;" 
d="M387 394h-105l23 110h-238l18 86l239 281h164l-58 -279h95l-43 -88h-71zM363 779h-13l-153 -182l-1 -5h127z" />
    <glyph glyph-name="five.superior" unicode="&#x2075;" 
d="M472 526q-9 -35 -24.5 -60.5t-42.5 -42.5t-67 -25.5t-98 -8.5q-51 0 -90 6t-64 13l16 83q23 -5 58.5 -10t74.5 -5q31 0 52 3.5t34.5 10.5t20.5 18t11 26q2 8 4 15.5t2 15.5q0 22 -18.5 31t-71.5 9q-35 0 -71 -2.5t-59 -4.5l58 272h331l-31 -93h-215l-19 -93
q14 2 34.5 3.5t45.5 1.5q75 0 107 -24t32 -75q0 -13 -2.5 -30t-7.5 -34z" />
    <glyph glyph-name="six.superior" unicode="&#x2076;" 
d="M371 538q4 15 4 32q0 23 -14.5 33.5t-52.5 10.5q-23 0 -46 -3.5t-40 -8.5q-3 -15 -5 -28t-2 -27q0 -32 14.5 -51.5t50.5 -19.5q40 0 61.5 15.5t29.5 46.5zM515 797q-48 -1 -84 -4.5t-62.5 -10t-44.5 -14.5t-31 -18q-22 -18 -39 -46.5t-27 -64.5l53 39q16 6 38 10t51 4
q66 0 97 -27t31 -78q0 -27 -7 -54q-17 -71 -68 -108t-151 -37q-49 0 -82.5 11.5t-54 32t-29.5 50t-9 65.5q0 34 6.5 71t21 72.5t37.5 68t55 57.5q40 32 105.5 49t175.5 19z" />
    <glyph glyph-name="seven.superior" unicode="&#x2077;" 
d="M396 767l1 7h-251l38 96h364l-19 -95l-281 -381h-139z" />
    <glyph glyph-name="eight.superior" unicode="&#x2078;" 
d="M214 631l-47 29q-7 9 -13.5 26t-6.5 40q0 76 53 114t153 38q34 0 66 -4.5t56.5 -16.5t39 -32.5t14.5 -51.5q0 -32 -15 -61t-37 -46l-63 -20l53 -27q9 -11 17 -28t8 -43q0 -45 -17 -76t-46 -49.5t-69 -27t-86 -8.5q-38 0 -72 6t-59.5 19.5t-40 36t-14.5 54.5q0 33 15 62
t44 48zM342 794q-47 0 -64.5 -16t-17.5 -45q0 -24 29 -38t87 -27q16 17 27.5 37t11.5 43q0 27 -22.5 36.5t-50.5 9.5zM253 610q-20 -16 -34.5 -37.5t-14.5 -48.5q0 -15 7 -25t18.5 -15.5t26 -8t29.5 -2.5q17 0 33.5 3.5t29 11t20 20t7.5 31.5q0 28 -33.5 42.5t-88.5 28.5z
" />
    <glyph glyph-name="nine.superior" unicode="&#x2079;" 
d="M248 728q-4 -16 -4 -35q0 -23 14.5 -33.5t51.5 -10.5q24 0 47 4t40 9q6 27 6 55q0 33 -14 52t-50 19q-40 0 -61.5 -15t-29.5 -45zM104 467q48 0 84 4t62 10t44 14.5t31 18.5q48 36 66 112l-51 -41q-17 -5 -39 -9t-50 -4q-66 0 -97.5 27.5t-31.5 78.5q0 13 2 27t5 28
q17 70 68 106t149 36q49 0 83 -11t55 -31.5t30 -50t9 -65.5q0 -35 -6.5 -72t-21 -72.5t-37.5 -68t-55 -57.5q-20 -16 -46 -28t-59.5 -20.5t-77 -13.5t-98.5 -6z" />
    <glyph glyph-name="zero.inferior" unicode="&#x2080;" 
d="M248 364q63 0 100 -16t54 -39q10 -15 16.5 -39t6.5 -58q0 -35 -6.5 -76.5t-19.5 -82.5t-33.5 -77t-48.5 -60q-29 -25 -69 -34t-85 -9q-62 0 -98 16t-53 40q-12 16 -19 42.5t-7 64.5q0 36 6 76.5t19 78.5t32.5 71.5t46.5 56.5q29 23 67 34.5t91 10.5zM175 -30q25 0 42.5 6
t28.5 16q12 12 23.5 37t20.5 55.5t14 62.5t5 58q0 23 -7 37q-7 13 -24.5 19t-41.5 6q-23 0 -42 -5.5t-32 -17.5q-13 -14 -24 -38t-19.5 -53t-13 -59.5t-4.5 -56.5q0 -30 8 -43q18 -24 66 -24z" />
    <glyph glyph-name="one.inferior" unicode="&#x2081;" 
d="M-19 -119l19 87h125l61 296q-8 -1 -26 -3.5t-38 -5.5t-38.5 -5.5t-25.5 -3.5l19 88l247 37l-86 -403h113l-18 -87h-352z" />
    <glyph glyph-name="two.inferior" unicode="&#x2082;" 
d="M325 -119h-366l8 43q9 34 22 60t35 48t54.5 41.5t79.5 40.5q49 22 73 33.5t35 22.5t17.5 28t6.5 33q0 21 -16.5 30.5t-60.5 9.5q-42 0 -80.5 -5t-68.5 -10l18 85q16 4 36.5 8t42.5 7t44.5 5t42.5 2q90 0 129 -24.5t39 -83.5q0 -11 -3 -27.5t-9 -35.5t-16 -37t-24 -32
q-24 -22 -60.5 -38.5t-90.5 -36.5q-32 -12 -52.5 -22.5t-33.5 -19.5t-19.5 -17t-9.5 -16h267z" />
    <glyph glyph-name="three.inferior" unicode="&#x2083;" 
d="M397 224q-6 -20 -19 -40t-29 -34l-61 -23l54 -20q10 -9 15.5 -27.5t5.5 -38.5q0 -22 -4 -39q-8 -34 -24 -58.5t-44 -40t-68.5 -22.5t-98.5 -7q-52 0 -90.5 7t-61.5 14l15 83q29 -5 63.5 -10.5t73.5 -5.5q30 0 50 3t33 9.5t20 16t11 22.5q3 12 3 23q0 28 -26.5 35t-71.5 7
h-86l19 84h85q48 0 74.5 10.5t34.5 40.5q2 5 2 11v11q0 21 -17.5 30t-57.5 9t-77 -4.5t-60 -9.5l18 82q26 7 69 14t87 7q90 0 129 -24.5t39 -73.5q0 -10 -1 -20t-4 -21z" />
    <glyph glyph-name="four.inferior" unicode="&#x2084;" 
d="M280 -119h-105l23 110h-238l18 86l239 281h164l-58 -279h95l-43 -88h-71zM256 266h-13l-153 -182l-1 -5h127z" />
    <glyph glyph-name="five.inferior" unicode="&#x2085;" 
d="M364 13q-9 -35 -24.5 -60.5t-42.5 -42.5t-67 -25.5t-98 -8.5q-51 0 -90 6t-64 13l16 83q23 -5 58.5 -10t74.5 -5q31 0 52 3.5t34.5 10.5t20.5 18t11 26q2 8 4 15.5t2 15.5q0 22 -18.5 31t-71.5 9q-35 0 -71 -2.5t-59 -4.5l58 272h331l-31 -93h-215l-19 -93q14 2 34.5 3.5
t45.5 1.5q75 0 107 -24t32 -75q0 -13 -2.5 -30t-7.5 -34z" />
    <glyph glyph-name="six.inferior" unicode="&#x2086;" 
d="M263 25q4 15 4 32q0 23 -14.5 33.5t-52.5 10.5q-23 0 -46 -3.5t-40 -8.5q-3 -15 -5 -28t-2 -27q0 -32 14.5 -51.5t50.5 -19.5q40 0 61.5 15.5t29.5 46.5zM407 284q-48 -1 -84 -4.5t-62.5 -10t-44.5 -14.5t-31 -18q-22 -18 -39 -46.5t-27 -64.5l53 39q16 6 38 10t51 4
q66 0 97 -27t31 -78q0 -27 -7 -54q-17 -71 -68 -108t-151 -37q-49 0 -82.5 11.5t-54 32t-29.5 50t-9 65.5q0 34 6.5 71t21 72.5t37.5 68t55 57.5q40 32 105.5 49t175.5 19z" />
    <glyph glyph-name="seven.inferior" unicode="&#x2087;" 
d="M287 254l1 7h-251l38 96h364l-19 -95l-281 -381h-139z" />
    <glyph glyph-name="eight.inferior" unicode="&#x2088;" 
d="M106 118l-47 29q-7 9 -13.5 26t-6.5 40q0 76 53 114t153 38q34 0 66 -4.5t56.5 -16.5t39 -32.5t14.5 -51.5q0 -32 -15 -61t-37 -46l-63 -20l53 -27q9 -11 17 -28t8 -43q0 -45 -17 -76t-46 -49.5t-69 -27t-86 -8.5q-38 0 -72 6t-59.5 19.5t-40 36t-14.5 54.5q0 33 15 62
t44 48zM234 281q-47 0 -64.5 -16t-17.5 -45q0 -24 29 -38t87 -27q16 17 27.5 37t11.5 43q0 27 -22.5 36.5t-50.5 9.5zM145 97q-20 -16 -34.5 -37.5t-14.5 -48.5q0 -15 7 -25t18.5 -15.5t26 -8t29.5 -2.5q17 0 33.5 3.5t29 11t20 20t7.5 31.5q0 28 -33.5 42.5t-88.5 28.5z
" />
    <glyph glyph-name="nine.inferior" unicode="&#x2089;" 
d="M140 215q-4 -16 -4 -35q0 -23 14.5 -33.5t51.5 -10.5q24 0 47 4t40 9q6 27 6 55q0 33 -14 52t-50 19q-40 0 -61.5 -15t-29.5 -45zM-4 -46q48 0 84 4t62 10t44 14.5t31 18.5q48 36 66 112l-51 -41q-17 -5 -39 -9t-50 -4q-66 0 -97.5 27.5t-31.5 78.5q0 13 2 27t5 28
q17 70 68 106t149 36q49 0 83 -11t55 -31.5t30 -50t9 -65.5q0 -35 -6.5 -72t-21 -72.5t-37.5 -68t-55 -57.5q-20 -16 -46 -28t-59.5 -20.5t-77 -13.5t-98.5 -6z" />
    <glyph glyph-name="Euro" unicode="&#x20ac;" horiz-adv-x="666" 
d="M352 -10q-78 0 -125 21.5t-73 57.5q-20 26 -30 65.5t-10 87.5v22t1 22h-106l35 70h77q3 17 6.5 35.5t9.5 44.5h-99l34 70h85q22 69 54 121t70 83q40 33 100 51t137 18q63 0 108.5 -8t80.5 -16l-24 -122l-76 9.5t-104 5.5q-89 0 -129 -41q-33 -30 -59 -101h276l-35 -70
h-262q-5 -16 -8.5 -33.5t-8.5 -46.5h242l-34 -70h-217q0 -8 -0.5 -17t-0.5 -17q0 -18 4 -38.5t12 -33.5q28 -39 107 -39q56 0 106 6.5t89 12.5l-27 -115q-38 -12 -87.5 -23.5t-118.5 -11.5z" />
    <glyph glyph-name="uni20B9" unicode="&#x20b9;" horiz-adv-x="666" 
d="M99 553h269q0 22 -9.5 37t-18.5 22q-29 22 -109 22h-126l36 116h570l-36 -116h-208l-1 -6q20 -8 35.5 -28.5t20.5 -46.5h147l-36 -116h-122q-10 -28 -27.5 -54.5t-36.5 -41.5q-20 -14 -55 -26.5t-68 -24.5l-1 -6q9 -4 20 -10.5t22 -14t20 -15t14 -14.5q7 -10 17.5 -31.5
t22.5 -51.5t25.5 -67.5t25.5 -79.5h-180q-15 51 -27.5 89t-23.5 64.5t-21 43t-20 24.5q-11 11 -41 15t-68 4h-84l36 117h115q48 0 75 3.5t45 12.5q11 5 28 21.5t25 42.5h-286z" />
    <glyph glyph-name="uni20BA" unicode="&#x20ba;" horiz-adv-x="666" 
d="M-7 262l93 47l24 109l-94 -47l22 106l94 48l48 225h158l-30 -142l176 87l-23 -108l-176 -87l-23 -109l176 89l-23 -108l-175 -88l-32 -147q22 -3 41 -3q88 0 156.5 52t110.5 167l140 -52q-32 -83 -72.5 -142t-95 -97t-124.5 -56t-160 -18q-51 0 -99 5t-82 13l41 196
l-93 -47z" />
    <glyph glyph-name="afii61289" unicode="&#x2113;" horiz-adv-x="438" 
d="M137 242l-57 -63l-33 38l90 100v260q0 39 11 67.5t29.5 47t43.5 27.5t52 9q57 0 84.5 -33t27.5 -87q0 -67 -36 -127.5t-93 -122.5l-45 -50v-177q0 -43 17.5 -59t45.5 -16q25 0 47.5 12t39.5 26l33 -51q-20 -17 -52.5 -35.5t-82.5 -18.5q-57 0 -89.5 33t-32.5 91v129z
M211 397l22 27q14 17 28 36.5t25.5 40t18.5 42.5t7 44q0 31 -8.5 52t-36.5 21q-11 0 -21.5 -4t-18 -14.5t-12 -30.5t-4.5 -51v-163z" />
    <glyph glyph-name="trademark" unicode="&#x2122;" horiz-adv-x="897" 
d="M790 400v230h-9l-82 -210h-74l-80 210h-10v-230h-93v350h139l76 -199h12l76 199h138v-350h-93zM396 669h-116v-269h-94v269h-129l20 81h336z" />
    <glyph glyph-name="Omega" unicode="&#x2126;" horiz-adv-x="805" 
d="M675 0h-321l48 229q35 4 68 13t58 26q26 18 50 59t37 103q10 47 10 89.5t-23 66.5q-31 34 -132 34q-52 0 -87.5 -8t-61.5 -26q-26 -17 -50.5 -57.5t-37.5 -100.5q-5 -23 -8 -46t-2.5 -43t5 -37t14.5 -29q8 -11 20.5 -18.5t27 -13t29 -8.5t26.5 -4l-48 -229h-322l54 146
h188l3 14q-26 8 -55.5 22.5t-48.5 35.5q-37 39 -43 105.5t13 144.5q17 75 55 136t92 97q47 32 108.5 45.5t146.5 13.5q106 0 166.5 -21t89.5 -53q36 -38 43 -104t-12 -153q-17 -78 -51 -134.5t-86 -88.5q-30 -19 -68 -29.5t-73 -16.5l-3 -14h232z" />
    <glyph glyph-name="estimated" unicode="&#x212e;" horiz-adv-x="651" 
d="M167 284v-196q65 -63 155 -63q72 0 122.5 34t86.5 95q10 -5 18.5 -11t17.5 -11q-22 -33 -46.5 -59.5t-54 -45.5t-65 -29t-79.5 -10q-64 0 -115 23t-87 63.5t-55.5 94t-19.5 115.5q0 61 19 115t55 94.5t87 63.5t116 23q66 0 118 -23t87.5 -63t55 -94t21.5 -116h-437z
M479 478q-65 65 -157 65q-94 0 -155 -64v-158h312v157z" />
    <glyph glyph-name="partialdiff" unicode="&#x2202;" horiz-adv-x="566" 
d="M517 484q0 -39 -6.5 -89t-18.5 -101q-37 -149 -107.5 -226.5t-164.5 -77.5q-84 0 -127.5 48t-43.5 144q0 65 18 124.5t51 104.5t80.5 71.5t106.5 26.5q38 0 66 -13.5t47 -38.5q1 7 1 15.5v19.5q0 75 -28 112.5t-82 37.5q-23 0 -48 -7.5t-51 -22.5l-29 76q24 15 61 27.5
t76 12.5q92 0 145.5 -61.5t53.5 -182.5zM405 360q-10 26 -34.5 46t-65.5 20q-45 0 -76 -26t-50 -64t-27.5 -80.5t-8.5 -76.5q0 -56 22.5 -81.5t55.5 -25.5q59 0 107.5 69.5t76.5 218.5z" />
    <glyph glyph-name="Delta" unicode="&#x2206;" horiz-adv-x="749" 
d="M346 750h251l65 -652l-20 -98h-677l20 98zM186 140h305l-37 463h-24z" />
    <glyph glyph-name="product" unicode="&#x220f;" horiz-adv-x="797" 
d="M568 -230v816h-339v-816h-132v930h603v-930h-132z" />
    <glyph glyph-name="summation" unicode="&#x2211;" horiz-adv-x="650" 
d="M43 -230v106l339 363l-317 350v111h538v-114h-385l321 -345l-340 -358h420v-113h-576z" />
    <glyph glyph-name="minus" unicode="&#x2212;" horiz-adv-x="666" 
d="M61 400h538v-123h-538v123z" />
    <glyph glyph-name="uni2215" unicode="&#x2215;" horiz-adv-x="183" 
d="M379 750h99l-641 -750h-100z" />
    <glyph glyph-name="uni2219" unicode="&#x2219;" horiz-adv-x="337" 
d="M233 246q-12 -9 -30.5 -12.5t-43.5 -3.5q-57 0 -72 20q-5 5 -8 15.5t-3 21.5q0 31 10.5 58t29.5 40q12 8 30.5 11.5t41.5 3.5q55 0 70 -18q12 -12 12 -40t-9.5 -55t-27.5 -41z" />
    <glyph glyph-name="radical" unicode="&#x221a;" horiz-adv-x="607" 
d="M18 341l176 65l92 -255l196 589l106 -27l-248 -713h-111l-99 280l-80 -31z" />
    <glyph glyph-name="infinity" unicode="&#x221e;" horiz-adv-x="674" 
d="M354 231q-34 -44 -74 -71t-92 -27q-35 0 -64 11.5t-50 32t-33 49.5t-12 64q0 36 11.5 65t32.5 50t49.5 32.5t62.5 11.5q31 0 56 -8.5t45.5 -22t37.5 -31t31 -36.5h2q12 18 28.5 35.5t37 31.5t46 22.5t55.5 8.5q34 0 63 -11t50 -31.5t33 -49t12 -63.5q0 -34 -11.5 -63.5
t-31.5 -51t-48.5 -34t-62.5 -12.5q-57 0 -100 27t-72 71h-2zM401 292q21 -39 53 -60t63 -21q40 0 58.5 24.5t18.5 56.5t-19 55.5t-58 23.5q-35 0 -64.5 -21.5t-51.5 -57.5zM308 292q-10 17 -24 31.5t-29.5 25t-32 16.5t-31.5 6q-39 0 -57.5 -24t-18.5 -57q0 -35 21.5 -57
t54.5 -22q35 0 66.5 24.5t50.5 56.5z" />
    <glyph glyph-name="integral" unicode="&#x222b;" horiz-adv-x="419" 
d="M362 682q-6 3 -18 5.5t-24 2.5q-78 0 -78 -97v-653q0 -75 -32 -120t-104 -45q-17 0 -37 3t-31 8q5 15 8.5 27.5t7.5 27.5q9 -3 19 -5.5t24 -2.5q40 0 59.5 24.5t19.5 71.5v655q0 74 31.5 119.5t105.5 45.5q20 0 39 -4t28 -9q-5 -15 -9 -27.5t-9 -26.5z" />
    <glyph glyph-name="approxequal" unicode="&#x2248;" horiz-adv-x="666" 
d="M447 359q-41 0 -73 14t-59.5 31.5t-52.5 31.5t-51 14q-34 0 -73 -27t-82 -62v128q15 15 34.5 30t41.5 26t45 18t46 7q39 0 71 -14t59 -31t50.5 -31t47.5 -14q42 0 81 27t77 61v-130q-37 -35 -78.5 -57t-83.5 -22zM447 104q-41 0 -73 14t-59.5 31.5t-52.5 31.5t-51 14
q-34 0 -73 -27t-82 -62v128q15 15 34.5 30t41.5 26t45 18t46 7q39 0 71 -14t59 -31t50.5 -31t47.5 -14q42 0 81 27t77 61v-130q-37 -35 -78.5 -57t-83.5 -22z" />
    <glyph glyph-name="notequal" unicode="&#x2260;" horiz-adv-x="666" 
d="M60 530h315l52 93h122l-51 -93h108v-123h-176l-77 -137h253v-122h-321l-52 -95h-124l53 95h-102v122h170l76 137h-246v123z" />
    <glyph glyph-name="lessequal" unicode="&#x2264;" horiz-adv-x="666" 
d="M606 772v-136l-401 -174l401 -172v-137l-546 250v120zM606 0h-546v123h546v-123z" />
    <glyph glyph-name="greaterequal" unicode="&#x2265;" horiz-adv-x="666" 
d="M606 523v-120l-546 -250v137l399 172l-399 174v136zM60 123h546v-123h-546v123z" />
    <glyph glyph-name="lozenge" unicode="&#x25ca;" horiz-adv-x="534" 
d="M247 728h42l180 -365l-180 -363h-43l-180 363zM128 364l136 -290h4l139 289l-139 288h-4z" />
    <glyph glyph-name="uniF8FF" unicode="&#xf8ff;" horiz-adv-x="512" 
d="M222 117v67h56v-67h-56zM225 234l-2 17q0 56 13 81q7 13 18 27.5t28 31.5q16 15 26 26.5t15 21t7 18t2 17.5q0 36 -22.5 60.5t-53.5 24.5t-53.5 -22t-28.5 -73l-50 8q7 72 44 104.5t91 32.5t89 -35.5t35 -95.5q0 -32 -12.5 -58.5t-50.5 -61.5q-37 -33 -43 -52
q-6 -20 -6 -72h-46zM462 50v617h-412v-617h412zM512 718v-718h-512v718h512z" />
    <glyph glyph-name="fi" unicode="&#xfb01;" horiz-adv-x="721" 
d="M421 0l118 561h161l-119 -561h-160zM714 672q-12 -8 -31.5 -12t-41.5 -4q-49 0 -66 20q-6 7 -8 19.5t0 28.5q2 27 12 48t27 32q20 13 67 13q23 0 39.5 -4t24.5 -13q8 -7 10.5 -20.5t1.5 -30.5q-3 -23 -11.5 -44.5t-23.5 -32.5zM430 444h-143l-95 -444h-161l94 444h-80
l30 117h75l13 60q10 46 27.5 81.5t45 59.5t66.5 36t93 12q44 0 82 -4.5t60 -8.5l-25 -110q-17 2 -39.5 5.5t-50.5 3.5q-26 0 -43.5 -6t-28.5 -17t-17.5 -26.5t-10.5 -35.5l-11 -50h156z" />
    <glyph glyph-name="fl" unicode="&#xfb02;" horiz-adv-x="772" 
d="M749 805l-130 -614q-6 -26 -6 -42q0 -22 11.5 -30t34.5 -8q18 0 36 2.5t32 4.5l-23 -109q-23 -5 -55.5 -11t-67.5 -6q-69 0 -101.5 27t-32.5 86q0 20 3.5 42t8.5 47l130 611h160zM430 444h-143l-95 -444h-161l94 444h-80l30 117h75l13 60q10 46 27.5 81.5t45 59.5
t66.5 36t93 12q44 0 82 -4.5t60 -8.5l-25 -110q-17 2 -39.5 5.5t-50.5 3.5q-26 0 -43.5 -6t-28.5 -17t-17.5 -26.5t-10.5 -35.5l-11 -50h156z" />
    <glyph glyph-name="commaaccent" horiz-adv-x="278" 
d="M40 -82h145l-129 -155h-115z" />
    <glyph glyph-name="zero.denominator" 
d="M277 485q63 0 100 -16t54 -39q10 -15 16.5 -39t6.5 -58q0 -35 -6.5 -76.5t-19.5 -82.5t-33.5 -77t-48.5 -60q-29 -25 -69 -34t-85 -9q-62 0 -98 16t-53 40q-12 16 -19 42.5t-7 64.5q0 36 6 76.5t19 78.5t32.5 71.5t46.5 56.5q29 23 67 34.5t91 10.5zM204 91q25 0 42.5 6
t28.5 16q12 12 23.5 37t20.5 55.5t14 62.5t5 58q0 23 -7 37q-7 13 -24.5 19t-41.5 6q-23 0 -42 -5.5t-32 -17.5q-13 -14 -24 -38t-19.5 -53t-13 -59.5t-4.5 -56.5q0 -30 8 -43q18 -24 66 -24z" />
    <glyph glyph-name="one.denominator" 
d="M11 0l19 87h125l61 296q-8 -1 -26 -3.5t-38 -5.5t-38.5 -5.5t-25.5 -3.5l19 88l247 37l-86 -403h113l-18 -87h-352z" />
    <glyph glyph-name="two.denominator" 
d="M355 1h-366l8 43q9 34 22 60t35 48t54.5 41.5t79.5 40.5q49 22 73 33.5t35 22.5t17.5 28t6.5 33q0 21 -16.5 30.5t-60.5 9.5q-42 0 -80.5 -5t-68.5 -10l18 85q16 4 36.5 8t42.5 7t44.5 5t42.5 2q90 0 129 -24.5t39 -83.5q0 -11 -3 -27.5t-9 -35.5t-16 -37t-24 -32
q-24 -22 -60.5 -38.5t-90.5 -36.5q-32 -12 -52.5 -22.5t-33.5 -19.5t-19.5 -17t-9.5 -16h267z" />
    <glyph glyph-name="three.denominator" 
d="M428 344q-6 -20 -19 -40t-29 -34l-61 -23l54 -20q10 -9 15.5 -27.5t5.5 -38.5q0 -22 -4 -39q-8 -34 -24 -58.5t-44 -40t-68.5 -22.5t-98.5 -7q-52 0 -90.5 7t-61.5 14l15 83q29 -5 63.5 -10.5t73.5 -5.5q30 0 50 3t33 9.5t20 16t11 22.5q3 12 3 23q0 28 -26.5 35t-71.5 7
h-86l19 84h85q48 0 74.5 10.5t34.5 40.5q2 5 2 11v11q0 21 -17.5 30t-57.5 9t-77 -4.5t-60 -9.5l18 82q26 7 69 14t87 7q90 0 129 -24.5t39 -73.5q0 -10 -1 -20t-4 -21z" />
    <glyph glyph-name="four.denominator" 
d="M310 1h-105l23 110h-238l18 86l239 281h164l-58 -279h95l-43 -88h-71zM286 386h-13l-153 -182l-1 -5h127z" />
    <glyph glyph-name="five.denominator" 
d="M393 133q-9 -35 -24.5 -60.5t-42.5 -42.5t-67 -25.5t-98 -8.5q-51 0 -90 6t-64 13l16 83q23 -5 58.5 -10t74.5 -5q31 0 52 3.5t34.5 10.5t20.5 18t11 26q2 8 4 15.5t2 15.5q0 22 -18.5 31t-71.5 9q-35 0 -71 -2.5t-59 -4.5l58 272h331l-31 -93h-215l-19 -93
q14 2 34.5 3.5t45.5 1.5q75 0 107 -24t32 -75q0 -13 -2.5 -30t-7.5 -34z" />
    <glyph glyph-name="six.denominator" 
d="M292 145q4 15 4 32q0 23 -14.5 33.5t-52.5 10.5q-23 0 -46 -3.5t-40 -8.5q-3 -15 -5 -28t-2 -27q0 -32 14.5 -51.5t50.5 -19.5q40 0 61.5 15.5t29.5 46.5zM436 404q-48 -1 -84 -4.5t-62.5 -10t-44.5 -14.5t-31 -18q-22 -18 -39 -46.5t-27 -64.5l53 39q16 6 38 10t51 4
q66 0 97 -27t31 -78q0 -27 -7 -54q-17 -71 -68 -108t-151 -37q-49 0 -82.5 11.5t-54 32t-29.5 50t-9 65.5q0 34 6.5 71t21 72.5t37.5 68t55 57.5q40 32 105.5 49t175.5 19z" />
    <glyph glyph-name="seven.denominator" 
d="M318 375l1 7h-251l38 96h364l-19 -95l-281 -381h-139z" />
    <glyph glyph-name="eight.denominator" 
d="M134 238l-47 29q-7 9 -13.5 26t-6.5 40q0 76 53 114t153 38q34 0 66 -4.5t56.5 -16.5t39 -32.5t14.5 -51.5q0 -32 -15 -61t-37 -46l-63 -20l53 -27q9 -11 17 -28t8 -43q0 -45 -17 -76t-46 -49.5t-69 -27t-86 -8.5q-38 0 -72 6t-59.5 19.5t-40 36t-14.5 54.5q0 33 15 62
t44 48zM262 401q-47 0 -64.5 -16t-17.5 -45q0 -24 29 -38t87 -27q16 17 27.5 37t11.5 43q0 27 -22.5 36.5t-50.5 9.5zM173 217q-20 -16 -34.5 -37.5t-14.5 -48.5q0 -15 7 -25t18.5 -15.5t26 -8t29.5 -2.5q17 0 33.5 3.5t29 11t20 20t7.5 31.5q0 28 -33.5 42.5t-88.5 28.5z
" />
    <glyph glyph-name="nine.denominator" 
d="M170 335q-4 -16 -4 -35q0 -23 14.5 -33.5t51.5 -10.5q24 0 47 4t40 9q6 27 6 55q0 33 -14 52t-50 19q-40 0 -61.5 -15t-29.5 -45zM26 74q48 0 84 4t62 10t44 14.5t31 18.5q48 36 66 112l-51 -41q-17 -5 -39 -9t-50 -4q-66 0 -97.5 27.5t-31.5 78.5q0 13 2 27t5 28
q17 70 68 106t149 36q49 0 83 -11t55 -31.5t30 -50t9 -65.5q0 -35 -6.5 -72t-21 -72.5t-37.5 -68t-55 -57.5q-20 -16 -46 -28t-59.5 -20.5t-77 -13.5t-98.5 -6z" />
    <glyph glyph-name="zero.numerator" 
d="M334 760q63 0 100 -16t54 -39q10 -15 16.5 -39t6.5 -58q0 -35 -6.5 -76.5t-19.5 -82.5t-33.5 -77t-48.5 -60q-29 -25 -69 -34t-85 -9q-62 0 -98 16t-53 40q-12 16 -19 42.5t-7 64.5q0 36 6 76.5t19 78.5t32.5 71.5t46.5 56.5q29 23 67 34.5t91 10.5zM261 366q25 0 42.5 6
t28.5 16q12 12 23.5 37t20.5 55.5t14 62.5t5 58q0 23 -7 37q-7 13 -24.5 19t-41.5 6q-23 0 -42 -5.5t-32 -17.5q-13 -14 -24 -38t-19.5 -53t-13 -59.5t-4.5 -56.5q0 -30 8 -43q18 -24 66 -24z" />
    <glyph glyph-name="one.numerator" 
d="M61 275l19 87h125l61 296q-8 -1 -26 -3.5t-38 -5.5t-38.5 -5.5t-25.5 -3.5l19 88l247 37l-86 -403h113l-18 -87h-352z" />
    <glyph glyph-name="two.numerator" 
d="M404 276h-366l8 43q9 34 22 60t35 48t54.5 41.5t79.5 40.5q49 22 73 33.5t35 22.5t17.5 28t6.5 33q0 21 -16.5 30.5t-60.5 9.5q-42 0 -80.5 -5t-68.5 -10l18 85q16 4 36.5 8t42.5 7t44.5 5t42.5 2q90 0 129 -24.5t39 -83.5q0 -11 -3 -27.5t-9 -35.5t-16 -37t-24 -32
q-24 -22 -60.5 -38.5t-90.5 -36.5q-32 -12 -52.5 -22.5t-33.5 -19.5t-19.5 -17t-9.5 -16h267z" />
    <glyph glyph-name="three.numerator" 
d="M477 618q-6 -20 -19 -40t-29 -34l-61 -23l54 -20q10 -9 15.5 -27.5t5.5 -38.5q0 -22 -4 -39q-8 -34 -24 -58.5t-44 -40t-68.5 -22.5t-98.5 -7q-52 0 -90.5 7t-61.5 14l15 83q29 -5 63.5 -10.5t73.5 -5.5q30 0 50 3t33 9.5t20 16t11 22.5q3 12 3 23q0 28 -26.5 35t-71.5 7
h-86l19 84h85q48 0 74.5 10.5t34.5 40.5q2 5 2 11v11q0 21 -17.5 30t-57.5 9t-77 -4.5t-60 -9.5l18 82q26 7 69 14t87 7q90 0 129 -24.5t39 -73.5q0 -10 -1 -20t-4 -21z" />
    <glyph glyph-name="four.numerator" 
d="M358 275h-105l23 110h-238l18 86l239 281h164l-58 -279h95l-43 -88h-71zM334 660h-13l-153 -182l-1 -5h127z" />
    <glyph glyph-name="five.numerator" 
d="M443 407q-9 -35 -24.5 -60.5t-42.5 -42.5t-67 -25.5t-98 -8.5q-51 0 -90 6t-64 13l16 83q23 -5 58.5 -10t74.5 -5q31 0 52 3.5t34.5 10.5t20.5 18t11 26q2 8 4 15.5t2 15.5q0 22 -18.5 31t-71.5 9q-35 0 -71 -2.5t-59 -4.5l58 272h331l-31 -93h-215l-19 -93
q14 2 34.5 3.5t45.5 1.5q75 0 107 -24t32 -75q0 -13 -2.5 -30t-7.5 -34z" />
    <glyph glyph-name="six.numerator" 
d="M342 418q4 15 4 32q0 23 -14.5 33.5t-52.5 10.5q-23 0 -46 -3.5t-40 -8.5q-3 -15 -5 -28t-2 -27q0 -32 14.5 -51.5t50.5 -19.5q40 0 61.5 15.5t29.5 46.5zM486 677q-48 -1 -84 -4.5t-62.5 -10t-44.5 -14.5t-31 -18q-22 -18 -39 -46.5t-27 -64.5l53 39q16 6 38 10t51 4
q66 0 97 -27t31 -78q0 -27 -7 -54q-17 -71 -68 -108t-151 -37q-49 0 -82.5 11.5t-54 32t-29.5 50t-9 65.5q0 34 6.5 71t21 72.5t37.5 68t55 57.5q40 32 105.5 49t175.5 19z" />
    <glyph glyph-name="seven.numerator" 
d="M367 648l1 7h-251l38 96h364l-19 -95l-281 -381h-139z" />
    <glyph glyph-name="eight.numerator" 
d="M185 512l-47 29q-7 9 -13.5 26t-6.5 40q0 76 53 114t153 38q34 0 66 -4.5t56.5 -16.5t39 -32.5t14.5 -51.5q0 -32 -15 -61t-37 -46l-63 -20l53 -27q9 -11 17 -28t8 -43q0 -45 -17 -76t-46 -49.5t-69 -27t-86 -8.5q-38 0 -72 6t-59.5 19.5t-40 36t-14.5 54.5q0 33 15 62
t44 48zM313 675q-47 0 -64.5 -16t-17.5 -45q0 -24 29 -38t87 -27q16 17 27.5 37t11.5 43q0 27 -22.5 36.5t-50.5 9.5zM224 491q-20 -16 -34.5 -37.5t-14.5 -48.5q0 -15 7 -25t18.5 -15.5t26 -8t29.5 -2.5q17 0 33.5 3.5t29 11t20 20t7.5 31.5q0 28 -33.5 42.5t-88.5 28.5z
" />
    <glyph glyph-name="nine.numerator" 
d="M219 609q-4 -16 -4 -35q0 -23 14.5 -33.5t51.5 -10.5q24 0 47 4t40 9q6 27 6 55q0 33 -14 52t-50 19q-40 0 -61.5 -15t-29.5 -45zM75 348q48 0 84 4t62 10t44 14.5t31 18.5q48 36 66 112l-51 -41q-17 -5 -39 -9t-50 -4q-66 0 -97.5 27.5t-31.5 78.5q0 13 2 27t5 28
q17 70 68 106t149 36q49 0 83 -11t55 -31.5t30 -50t9 -65.5q0 -35 -6.5 -72t-21 -72.5t-37.5 -68t-55 -57.5q-20 -16 -46 -28t-59.5 -20.5t-77 -13.5t-98.5 -6z" />
    <glyph glyph-name="acute.cap" horiz-adv-x="378" 
d="M321 956h161l-212 -143h-116z" />
    <glyph glyph-name="breve.cap" horiz-adv-x="415" 
d="M175 955q-2 -7 -3 -13t-1 -11q0 -24 20 -35.5t50 -11.5q45 0 66.5 18t26.5 53h85q-3 -30 -14.5 -56t-33.5 -45.5t-55.5 -31t-81.5 -11.5q-68 0 -106.5 27t-38.5 81q0 7 1 17.5t3 18.5h82z" />
    <glyph glyph-name="caron.alt" horiz-adv-x="248" 
d="M111 750h126l-114 -248h-102z" />
    <glyph glyph-name="caron.cap" horiz-adv-x="378" 
d="M96 944h98l69 -70l98 70h109l-160 -136h-112z" />
    <glyph glyph-name="circumflex.cap" horiz-adv-x="378" 
d="M441 808h-99l-67 71l-99 -71h-109l160 136h112z" />
    <glyph glyph-name="commaaccent.alt" horiz-adv-x="269" 
d="M170 632h-146l130 155h116z" />
    <glyph glyph-name="dieresis.cap" horiz-adv-x="378" 
d="M152 811q-38 0 -51 15q-7 8 -7 27q0 17 7.5 36.5t23.5 29.5q17 10 51 10q35 0 47 -12q9 -9 9 -27t-7 -37t-21 -30q-8 -6 -22.5 -9t-29.5 -3zM369 811q-39 0 -51 15q-7 8 -7 25q0 19 7.5 38.5t23.5 29.5q17 10 52 10t46 -12q5 -5 7 -12t2 -15q0 -17 -6.5 -36.5
t-21.5 -30.5q-8 -6 -22 -9t-30 -3z" />
    <glyph glyph-name="dotaccent.cap" horiz-adv-x="378" 
d="M228 810q-45 0 -58 18q-9 10 -9 31q0 24 9 47.5t27 34.5q16 12 59 12t57 -15q11 -13 11 -36t-8 -45t-24 -33q-11 -8 -27.5 -11t-36.5 -3z" />
    <glyph glyph-name="grave.cap" horiz-adv-x="380" 
d="M207 955l127 -142h-109l-170 142h152z" />
    <glyph glyph-name="hungarumlaut.cap" horiz-adv-x="503" 
d="M182 947h137l-161 -137h-99zM387 947h138l-162 -137h-99z" />
    <glyph glyph-name="macron.cap" horiz-adv-x="378" 
d="M122 909h309l-20 -90h-309z" />
    <glyph glyph-name="ring.cap" horiz-adv-x="378" 
d="M255 810q-40 0 -65.5 17t-25.5 54q0 26 9 54.5t32 45.5q17 14 39 19.5t51 5.5q42 0 65.5 -17t23.5 -52q0 -24 -9 -54t-32 -48q-15 -12 -36 -18.5t-52 -6.5zM264 860q26 0 38 12q9 9 14 24.5t5 31.5q0 26 -37 26q-28 0 -39 -11q-8 -9 -13 -23.5t-5 -29.5t8 -22.5t29 -7.5z
" />
    <glyph glyph-name="tilde.cap" horiz-adv-x="378" 
d="M83 816q13 55 43 88.5t82 33.5q25 0 43.5 -8.5t34 -19t29.5 -19t29 -8.5q37 0 50 49h67q-14 -63 -47 -93t-78 -30q-25 0 -43.5 8.5t-34 19t-29.5 19t-30 8.5q-21 0 -32.5 -13t-16.5 -35h-67z" />
    <glyph glyph-name="cent.alt" horiz-adv-x="666" 
d="M581 538q-27 3 -58 7.5t-73 4.5q-38 0 -66 -6.5t-48 -20.5t-35 -39.5t-25.5 -55.5t-16 -61.5t-5.5 -57.5q0 -48 22 -70q14 -13 35.5 -18t51.5 -5q44 0 85.5 6.5t72.5 11.5l-30 -116q-29 -9 -61 -16t-70 -10l-18 -92h-70l19 90q-106 3 -155 51q-23 23 -36.5 59t-13.5 90
q0 44 9 93t27.5 95t45.5 85.5t63 63.5q38 25 83.5 35.5t100.5 12.5l16 75h70l-17 -78q35 -3 64 -8t49 -10z" />
    <glyph glyph-name="oslash.alt" horiz-adv-x="669" 
d="M628 380q0 -45 -9 -93.5t-26.5 -94t-43 -84.5t-59.5 -64q-40 -29 -91.5 -42t-122.5 -13q-54 0 -91.5 8.5t-63.5 22.5l-29 -28h-95l75 75q-14 22 -21.5 51t-7.5 71t8 88.5t24.5 90.5t42 83t59.5 66q38 29 88.5 43.5t125.5 14.5q51 0 90.5 -8.5t65.5 -22.5l28 27h95
l-73 -73q14 -20 22.5 -50t8.5 -68zM392 138q16 13 30.5 39t25 57.5t16.5 65.5t6 63q0 22 -4 36t-11 24q-22 28 -81 28q-35 0 -58.5 -8t-39.5 -20q-18 -15 -32.5 -41.5t-24.5 -58t-15.5 -64t-5.5 -58.5q0 -20 3 -35.5t10 -24.5q12 -15 33 -22.5t54 -7.5q29 0 53 6.5t41 20.5z
" />
    </font>
</defs>
</svg>
