<?xml version="1.0" standalone="no"?>
<!DOCTYPE svg PUBLIC "-//W3C//DTD SVG 1.1//EN" "http://www.w3.org/Graphics/SVG/1.1/DTD/svg11.dtd" >
<svg xmlns="http://www.w3.org/2000/svg" xmlns:xlink="http://www.w3.org/1999/xlink" version="1.1">
<metadata>
Created by FontForge 20170731 at Sat Mar  8 01:02:06 2014
 By Aleksey,,,
Copyright (c) 2013 Monotype Imaging Inc. All rights reserved.
</metadata>
<defs>
<font id="BurlingamePro-LightItalic" horiz-adv-x="489" >
  <font-face 
    font-family="Burlingame Pro Light"
    font-weight="300"
    font-style="italic"
    font-stretch="normal"
    units-per-em="1000"
    panose-1="2 11 3 4 4 5 4 9 2 4"
    ascent="760"
    descent="-240"
    x-height="561"
    cap-height="750"
    bbox="-246 -275 1362 1002"
    underline-thickness="50"
    underline-position="-150"
    slope="-8"
    unicode-range="U+0020-FB04"
  />
<missing-glyph horiz-adv-x="432" 
 />
    <glyph glyph-name="IJ" unicode="IJ" horiz-adv-x="854" 
d="M52 0l159 750h58l-159 -750h-58zM424 -12q-57 0 -101.5 6.5t-66.5 11.5l5 53q12 -3 30 -6t39.5 -5.5t44.5 -4t45 -1.5q123 0 177 48q14 12 26.5 29.5t24.5 43t23 61t21 83.5l94 443h58l-95 -449q-11 -52 -23 -92t-26 -70.5t-30.5 -53t-35.5 -38.5q-33 -28 -84.5 -43.5
t-125.5 -15.5z" />
    <glyph glyph-name="ij" unicode="ij" horiz-adv-x="539" 
d="M51 0l119 561h58l-119 -561h-58zM260 720q-11 -8 -32 -8q-20 0 -28 8q-4 4 -4.5 10t0.5 13q1 14 6 24t11 14q8 7 30 7q21 0 28 -8q4 -4 4.5 -10t-0.5 -14q-2 -26 -15 -36zM364 -82q-10 -47 -24 -82.5t-37 -60.5t-57.5 -37.5t-85.5 -12.5q-31 0 -58 3t-37 5l2 45
q18 -2 39.5 -4t50.5 -2q36 0 60.5 8t41.5 26t28 47t20 71l136 637h58zM531 720q-11 -8 -32 -8q-11 0 -17.5 2.5t-10.5 5.5q-6 7 -4 23q3 29 17 38q8 7 30 7q21 0 28 -8q4 -4 4.5 -10t-0.5 -14q-2 -26 -15 -36z" />
    <glyph glyph-name="napostrophe" unicode="&#x22;n" horiz-adv-x="702" 
d="M242 750h67l-179 -256h-55zM486 0l74 344q5 25 8 45t3 37q0 37 -18 61q-13 17 -37.5 23.5t-58.5 6.5q-60 0 -110 -15.5t-99 -39.5l-99 -462h-58l119 561h40v-76h5l38 39q26 12 75 28t112 16q45 0 77 -10.5t51 -34.5q23 -30 23 -82q0 -20 -4 -45.5t-9 -54.5l-73 -341h-59z
" />
    <glyph glyph-name="f_f" unicode="ff" horiz-adv-x="837" 
d="M451 512h-198l-109 -512h-59l109 512h-118l19 49h109l12 57q12 56 30 93t43.5 59.5t59.5 32t79 9.5q36 0 66 -3.5t47 -5.5l-8 -46q-19 2 -44 4.5t-60 2.5q-38 0 -63.5 -9t-43 -28t-28.5 -47.5t-20 -68.5l-11 -50h207zM870 512h-198l-109 -512h-59l109 512h-118l19 49h109
l12 57q12 56 30 93t43.5 59.5t59.5 32t79 9.5q36 0 66 -3.5t47 -5.5l-8 -46q-19 2 -44 4.5t-60 2.5q-38 0 -63.5 -9t-43 -28t-28.5 -47.5t-20 -68.5l-11 -50h207z" />
    <glyph glyph-name="f_f_i" unicode="ffi" horiz-adv-x="1109" 
d="M888 0l119 561h58l-119 -561h-58zM1097 720q-11 -8 -32 -8q-20 0 -28 8q-4 4 -4.5 10t0.5 13q1 14 6 24t11 14q8 7 30 7q21 0 28 -8q4 -4 4.5 -10t-0.5 -14q-2 -26 -15 -36zM451 512h-198l-109 -512h-59l109 512h-118l19 49h109l12 57q12 56 30 93t43.5 59.5t59.5 32
t79 9.5q36 0 66 -3.5t47 -5.5l-8 -46q-19 2 -44 4.5t-60 2.5q-38 0 -63.5 -9t-43 -28t-28.5 -47.5t-20 -68.5l-11 -50h207zM870 512h-198l-109 -512h-59l109 512h-118l19 49h109l12 57q12 56 30 93t43.5 59.5t59.5 32t79 9.5q36 0 66 -3.5t47 -5.5l-8 -46q-19 2 -44 4.5
t-60 2.5q-38 0 -63.5 -9t-43 -28t-28.5 -47.5t-20 -68.5l-11 -50h207z" />
    <glyph glyph-name="f_f_l" unicode="ffl" horiz-adv-x="1170" 
d="M1113 810l-140 -657q-5 -19 -6.5 -32t-1.5 -22q0 -56 60 -56q27 0 47 3t37 7l-10 -47q-19 -5 -42.5 -8.5t-49.5 -3.5q-46 0 -73.5 20.5t-27.5 72.5q0 24 9 71l140 652h58zM451 512h-198l-109 -512h-59l109 512h-118l19 49h109l12 57q12 56 30 93t43.5 59.5t59.5 32
t79 9.5q36 0 66 -3.5t47 -5.5l-8 -46q-19 2 -44 4.5t-60 2.5q-38 0 -63.5 -9t-43 -28t-28.5 -47.5t-20 -68.5l-11 -50h207zM870 512h-198l-109 -512h-59l109 512h-118l19 49h109l12 57q12 56 30 93t43.5 59.5t59.5 32t79 9.5q36 0 66 -3.5t47 -5.5l-8 -46q-19 2 -44 4.5
t-60 2.5q-38 0 -63.5 -9t-43 -28t-28.5 -47.5t-20 -68.5l-11 -50h207z" />
    <glyph glyph-name="f_i" unicode="fi" horiz-adv-x="690" 
d="M470 0l119 561h58l-119 -561h-58zM679 720q-11 -8 -32 -8q-20 0 -28 8q-4 4 -4.5 10t0.5 13q1 14 6 24t11 14q8 7 30 7q21 0 28 -8q4 -4 4.5 -10t-0.5 -14q-2 -26 -15 -36zM451 512h-198l-109 -512h-59l109 512h-118l19 49h109l12 57q12 56 30 93t43.5 59.5t59.5 32
t79 9.5q36 0 66 -3.5t47 -5.5l-8 -46q-19 2 -44 4.5t-60 2.5q-38 0 -63.5 -9t-43 -28t-28.5 -47.5t-20 -68.5l-11 -50h207z" />
    <glyph glyph-name="f_l" unicode="fl" horiz-adv-x="752" 
d="M695 810l-140 -657q-5 -19 -6.5 -32t-1.5 -22q0 -56 60 -56q27 0 47 3t37 7l-10 -47q-19 -5 -42.5 -8.5t-49.5 -3.5q-46 0 -73.5 20.5t-27.5 72.5q0 24 9 71l140 652h58zM451 512h-198l-109 -512h-59l109 512h-118l19 49h109l12 57q12 56 30 93t43.5 59.5t59.5 32t79 9.5
q36 0 66 -3.5t47 -5.5l-8 -46q-19 2 -44 4.5t-60 2.5q-38 0 -63.5 -9t-43 -28t-28.5 -47.5t-20 -68.5l-11 -50h207z" />
    <glyph glyph-name=".notdef" horiz-adv-x="432" 
 />
    <glyph glyph-name=".null" horiz-adv-x="0" 
 />
    <glyph glyph-name="nonmarkingreturn" horiz-adv-x="0" 
 />
    <glyph glyph-name="space" unicode=" " horiz-adv-x="224" 
 />
    <glyph glyph-name="exclam" unicode="!" horiz-adv-x="278" 
d="M91 189l114 561h59l-124 -561h-49zM106 3q-9 -8 -32 -8q-22 0 -30 8q-3 4 -4 8.5t-1 9.5q0 14 4.5 26.5t12.5 17.5q10 7 31 7q24 0 30 -8t6 -19q0 -14 -4.5 -25.5t-12.5 -16.5z" />
    <glyph glyph-name="quotedbl" unicode="&#x22;" horiz-adv-x="407" 
d="M174 750h58l-64 -256h-43zM338 750h57l-63 -256h-43z" />
    <glyph glyph-name="numbersign" unicode="#" horiz-adv-x="613" 
d="M148 527h117l67 223h42l-68 -223h140l67 223h42l-68 -223h117l-14 -45h-116l-65 -214h116l-14 -45h-116l-68 -223h-40l67 223h-140l-67 -223h-42l68 223h-116l13 45h117l65 214h-116zM228 268h139l66 214h-140z" />
    <glyph glyph-name="dollar" unicode="$" horiz-adv-x="691" 
d="M637 683q-38 5 -84 10t-109 5l-64 -305q30 -9 59 -19t53 -20.5t41.5 -21.5t24.5 -22q13 -25 12 -60q0 -27 -5 -56t-15 -56t-26 -50.5t-38 -39.5q-29 -22 -78 -32t-112 -13l-23 -113h-42l24 112q-72 1 -127.5 9t-90.5 17l8 49q40 -8 91.5 -16t129.5 -8l62 298
q-30 9 -59.5 19t-54.5 21.5t-43 23.5t-27 26q-8 11 -10.5 28t-1.5 36q0 54 20.5 107.5t62.5 86.5q25 20 75.5 33t122.5 15l19 90h42l-19 -89q60 -1 109 -6t83 -11zM403 698q-57 -2 -98 -13t-59 -27q-14 -12 -25 -30t-18.5 -38t-11 -41t-3.5 -40q0 -22 8 -38q5 -9 18.5 -17.5
t33 -16.5t43 -16.5t49.5 -15.5zM307 54q58 3 95 13t51 22q15 11 25.5 28.5t18 38t10.5 42.5t3 43q0 26 -8 39q-13 18 -50.5 32t-84.5 28z" />
    <glyph glyph-name="percent" unicode="%" horiz-adv-x="982" 
d="M936 295q0 -31 -5.5 -67.5t-17.5 -72.5t-30 -68t-43 -54q-47 -41 -132 -41q-48 0 -78.5 15t-44.5 36q-21 27 -21 87q0 37 6.5 75t18.5 73.5t30 65t41 48.5q24 20 56 29.5t78 9.5q42 0 73.5 -12t46.5 -33q22 -30 22 -91zM810 66q17 14 31 41t24.5 58.5t16 64.5t5.5 60
q0 38 -13 61q-10 18 -33.5 27t-53.5 9q-32 0 -54.5 -6.5t-42.5 -23.5q-17 -15 -31 -40.5t-24 -56t-16 -63t-6 -61.5q0 -20 3 -35.5t10 -26.5q10 -17 31 -27t56 -10q32 0 54.5 6t42.5 23zM744 750h53l-524 -750h-53zM453 621q0 -36 -7 -74t-19.5 -73.5t-30.5 -65.5t-39 -49
q-49 -40 -132 -40q-48 0 -78.5 14.5t-45.5 34.5q-9 14 -15 35t-6 53q0 35 6 73t18.5 73t30.5 65t42 50t55.5 30.5t77.5 10.5q42 0 74 -12t47 -34q10 -14 16 -37.5t6 -53.5zM326 392q17 14 31 40t24.5 57.5t16 64.5t5.5 62q0 20 -3 35.5t-10 26.5q-10 17 -33.5 26t-53.5 9
q-31 0 -53.5 -6.5t-43.5 -24.5q-15 -13 -29 -37.5t-24.5 -55t-17 -64t-6.5 -63.5q0 -39 13 -62q11 -17 32 -27t56 -10q32 0 54 6t42 23z" />
    <glyph glyph-name="ampersand" unicode="&#x26;" horiz-adv-x="870" 
d="M713 0l-90 186q-37 -45 -69.5 -81t-70 -61.5t-85 -39.5t-114.5 -14q-127 0 -184 54q-25 23 -36 53.5t-11 67.5q0 67 25.5 120t77.5 98l87 38v5q-24 17 -43 44.5t-19 72.5q0 51 20 98t63 76q30 21 73.5 32.5t104.5 11.5q73 0 118 -15.5t68 -42.5q28 -35 28 -90
q0 -57 -24.5 -105.5t-66.5 -86.5l-67 -29l-1 -5q27 -9 47.5 -19.5t37.5 -23.5t31 -30t26 -41l154 198h67l-196 -244l111 -227h-62zM599 230q-20 37 -38.5 60t-52.5 40.5t-91 33.5t-153 39q-32 -17 -60 -39.5t-48.5 -51t-32.5 -62.5t-12 -75q0 -58 35 -92q46 -43 146 -43
q56 0 96 11t73 34t65 59t73 86zM469 401q26 16 49.5 37t41.5 47t29 56.5t11 64.5q0 38 -21 65q-34 42 -145 42q-48 0 -80.5 -8.5t-54.5 -23.5q-31 -22 -47 -58t-16 -75q0 -35 14.5 -57.5t44 -38.5t73 -27.5t101.5 -23.5z" />
    <glyph glyph-name="quotesingle" unicode="'" horiz-adv-x="258" 
d="M181 750h58l-63 -256h-44z" />
    <glyph glyph-name="parenleft" unicode="(" horiz-adv-x="307" 
d="M82 380q21 104 51 184t68 128q13 17 30.5 34t35 31t34 25.5t27.5 18.5h67q-40 -26 -81 -60t-67 -67q-32 -39 -61.5 -112t-53.5 -189q-14 -64 -20 -114.5t-6 -91.5q0 -32 4 -57t10 -42q12 -34 38 -67.5t53 -59.5h-57q-8 7 -19.5 19t-23.5 27t-22.5 32t-16.5 35
q-8 21 -12 49.5t-4 64.5q0 44 6.5 96t19.5 116z" />
    <glyph glyph-name="parenright" unicode=")" horiz-adv-x="307" 
d="M255 361q-22 -103 -51 -183t-67 -128q-14 -17 -31 -34t-34.5 -31t-34 -25.5t-27.5 -18.5h-67q40 26 81 60t67 67q32 40 61 112.5t53 188.5q27 127 27 206q0 32 -4 57t-10 42q-12 34 -38 67.5t-54 59.5h58q8 -7 19.5 -19t23.5 -27t22.5 -33t16.5 -36q8 -20 12 -46.5
t4 -62.5q0 -44 -6.5 -98.5t-20.5 -117.5z" />
    <glyph glyph-name="asterisk" unicode="*" horiz-adv-x="535" 
d="M273 780h46l-1 -114l-12 -94l75 57l99 58l24 -40l-100 -57l-87 -37l87 -36l99 -57l-22 -40l-99 58l-76 56l13 -93l-1 -114h-46l1 115l12 93l-76 -57l-98 -58l-23 41l99 57l87 35l-87 37l-99 58l22 39l99 -57l76 -56l-12 92v114z" />
    <glyph glyph-name="plus" unicode="+" horiz-adv-x="691" 
d="M78 364h242v248h51v-248h242v-51h-242v-247h-51v247h-242v51z" />
    <glyph glyph-name="comma" unicode="," horiz-adv-x="255" 
d="M89 127h66l-168 -244h-55z" />
    <glyph glyph-name="hyphen" unicode="-" horiz-adv-x="413" 
d="M82 342h261l-11 -55h-261z" />
    <glyph glyph-name="period" unicode="." horiz-adv-x="232" 
d="M99 3q-11 -8 -32 -8q-23 0 -30 9q-3 3 -4 7.5t-1 9.5q0 32 17 44q11 8 32 8q22 0 30 -9q5 -6 5 -18q0 -31 -17 -43z" />
    <glyph glyph-name="slash" unicode="/" horiz-adv-x="456" 
d="M465 750h57l-513 -750h-56z" />
    <glyph glyph-name="zero" unicode="0" horiz-adv-x="691" 
d="M291 43q55 0 99 13t80 44q39 35 72 106t53 167q20 94 20 160q0 36 -7 64t-18 47q-20 32 -62 47.5t-103 15.5q-55 0 -98.5 -13t-81.5 -48q-30 -27 -65 -92.5t-60 -182.5q-10 -40 -14 -77.5t-4 -70.5q0 -35 6 -64.5t18 -49.5q20 -32 61 -49t104 -17zM432 760
q84 0 133.5 -22.5t73.5 -56.5q15 -21 24.5 -54.5t9.5 -82.5q0 -36 -5.5 -81t-16.5 -99q-23 -107 -59.5 -185t-89.5 -124q-45 -38 -96 -52.5t-122 -14.5q-81 0 -131 23.5t-76 61.5q-15 23 -24 58t-9 85q0 33 4 74.5t15 90.5q26 118 63 193.5t85 114.5q42 35 95 53t126 18z
" />
    <glyph glyph-name="one" unicode="1" horiz-adv-x="691" 
d="M50 0l11 51h219l138 655l-228 -39l13 54l287 49l-153 -719h202l-11 -51h-478z" />
    <glyph glyph-name="two" unicode="2" horiz-adv-x="691" 
d="M526 0h-516l13 62q12 41 32.5 76t55.5 66.5t86 61.5t125 63q46 21 81 37t61 29.5t44 25.5t30 25q29 31 42.5 72.5t13.5 86.5q0 37 -15 58q-15 22 -52.5 33.5t-106.5 11.5q-36 0 -70.5 -4t-65.5 -9t-57 -11t-43 -10l11 53q46 12 108.5 22.5t128.5 10.5q81 0 128.5 -14
t70.5 -46q13 -17 18.5 -39t5.5 -47q0 -26 -4.5 -54t-13.5 -55t-22.5 -51t-31.5 -41q-16 -16 -36.5 -30t-49 -29t-67 -32.5t-90.5 -40.5q-75 -33 -123 -62t-76.5 -56.5t-42 -54t-19.5 -54.5h473z" />
    <glyph glyph-name="three" unicode="3" horiz-adv-x="691" 
d="M615 618q0 -54 -22.5 -109t-67.5 -92l-84 -34l-1 -5l71 -32q15 -14 25 -42t10 -64q0 -27 -5 -55.5t-16.5 -55.5t-28.5 -50t-41 -39q-37 -26 -92 -38t-136 -12q-66 0 -117 8t-85 17l8 50q34 -7 86.5 -15t108.5 -8q69 0 114.5 9t74.5 29q38 26 54.5 71.5t16.5 88.5
q0 55 -33 81q-40 33 -159 33h-126l11 52h113q57 0 104 7.5t80 30.5q37 26 56.5 70.5t19.5 91.5q0 20 -5.5 38t-17.5 30q-17 17 -49.5 25.5t-92.5 8.5q-59 0 -115 -8.5t-97 -17.5l11 51q43 10 100 18.5t116 8.5q66 0 108 -10.5t66 -33.5q37 -35 37 -98z" />
    <glyph glyph-name="four" unicode="4" horiz-adv-x="691" 
d="M420 0h-56l45 213h-385l14 65l424 472h117l-104 -487h168l-27 -50h-151zM419 263l94 438h-30l-381 -426l-3 -12h320z" />
    <glyph glyph-name="five" unicode="5" horiz-adv-x="691" 
d="M570 287q0 -72 -25 -135.5t-72 -101.5q-38 -29 -95.5 -44.5t-145.5 -15.5q-63 0 -117 6.5t-90 13.5l9 52q34 -6 89 -13t113 -7q71 0 119 10.5t79 36.5q38 32 57 85t19 105q0 57 -36 81q-20 14 -53 18.5t-81 4.5q-27 0 -58 -2t-60 -5t-55 -6.5t-43 -6.5l82 387h444
l-11 -51h-391l-60 -280q44 7 87.5 11.5t81.5 4.5q56 0 96 -7t64 -24q27 -19 40 -47t13 -70z" />
    <glyph glyph-name="six" unicode="6" horiz-adv-x="691" 
d="M656 712q-141 -1 -231.5 -29t-141.5 -74q-43 -39 -78.5 -100.5t-54.5 -141.5h6l38 36q35 11 87.5 22.5t117.5 11.5q61 0 101 -11t66 -32q21 -18 33.5 -48t12.5 -68q0 -33 -6 -67t-19 -65.5t-34 -59t-51 -48.5q-36 -24 -81 -36t-112 -12q-64 0 -111.5 18t-76.5 51
q-23 27 -35.5 66t-12.5 93t9.5 113t30.5 116t53.5 109t77.5 92q61 54 159 84.5t243 32.5zM475 84q41 31 58.5 81.5t17.5 103.5q0 26 -8 47t-23 34q-19 18 -52 26.5t-91 8.5q-61 0 -122.5 -12.5t-109.5 -29.5q-8 -38 -10.5 -69t-2.5 -52q0 -44 9.5 -74t26.5 -51
q20 -26 58.5 -40.5t87.5 -14.5q56 0 93.5 9.5t67.5 32.5z" />
    <glyph glyph-name="seven" unicode="7" horiz-adv-x="691" 
d="M669 675l-494 -675h-70l504 683l2 14h-451l25 53h499z" />
    <glyph glyph-name="eight" unicode="8" horiz-adv-x="693" 
d="M427 711q-58 0 -97 -13t-65 -40q-26 -26 -38.5 -64t-12.5 -70q0 -38 15.5 -60.5t46.5 -35.5t77.5 -19.5t107.5 -11.5q60 34 96.5 81.5t36.5 116.5q0 45 -25 73q-19 20 -53.5 31.5t-88.5 11.5zM261 372q-29 -15 -56 -34.5t-47 -44.5t-32 -55.5t-12 -69.5q0 -21 5.5 -41
t16.5 -34q20 -25 60 -39t106 -14q63 0 106 13t71 38t43.5 64.5t15.5 81.5q0 39 -18.5 62t-54 37t-87 21t-117.5 15zM233 388v5l-51 39q-11 13 -18 35t-7 54q0 45 16.5 93t51.5 80q35 33 85.5 50t124.5 17q70 0 114 -15t69 -42q17 -19 26 -43t9 -56q0 -58 -23 -106t-62 -84
l-75 -34v-5l67 -32q16 -15 27 -41t11 -64q0 -52 -20.5 -103t-64.5 -86q-72 -60 -219 -60q-78 0 -128.5 17t-78.5 50q-17 20 -25 46t-8 55q0 58 23.5 107.5t76.5 93.5z" />
    <glyph glyph-name="nine" unicode="9" horiz-adv-x="693" 
d="M220 654q-16 -15 -27 -35t-18.5 -42.5t-11 -45.5t-3.5 -44q0 -28 7 -48t18 -33q20 -20 53 -30.5t89 -10.5q67 0 129 12.5t110 31.5q8 36 11 67.5t3 57.5q0 43 -10.5 76.5t-33.5 55.5q-43 43 -146 43q-110 0 -170 -55zM429 141q43 39 79 101.5t54 143.5h-5l-39 -39
q-35 -12 -89.5 -22.5t-119.5 -10.5q-68 0 -108 14t-65 41q-16 17 -25.5 45t-9.5 69q0 23 4 50t13 55t24 54t37 47q35 35 88.5 53t128.5 18q66 0 110 -13.5t74 -41.5q58 -56 58 -166q0 -54 -10 -114.5t-31 -119t-53 -111.5t-77 -93q-61 -54 -158.5 -83.5t-243.5 -32.5l-10 54
q142 2 232.5 29t141.5 73z" />
    <glyph glyph-name="colon" unicode=":" horiz-adv-x="234" 
d="M217 504q-10 -7 -32 -7t-30 8q-5 5 -5 18q0 14 4.5 26.5t12.5 17.5q5 4 13.5 5.5t17.5 1.5q24 0 30 -8t6 -19q0 -29 -17 -43zM100 3q-9 -8 -33 -8q-22 0 -30 8q-5 8 -5 18q0 14 5 26.5t13 17.5q10 7 31 7q22 0 30 -8q5 -6 5 -19q0 -14 -4.5 -25.5t-11.5 -16.5z" />
    <glyph glyph-name="semicolon" unicode=";" horiz-adv-x="233" 
d="M86 127h66l-169 -244h-54zM215 504q-8 -7 -32 -7q-22 0 -30 8q-5 5 -5 18q0 14 5 26.5t13 17.5q5 4 13 5.5t18 1.5q22 0 30 -8q5 -6 5 -19q0 -29 -17 -43z" />
    <glyph glyph-name="less" unicode="&#x3c;" horiz-adv-x="691" 
d="M613 632v-55l-475 -239l475 -238v-55l-535 270v47z" />
    <glyph glyph-name="equal" unicode="=" horiz-adv-x="691" 
d="M78 477h535v-50h-535v50zM78 252h535v-51h-535v51z" />
    <glyph glyph-name="greater" unicode="&#x3e;" horiz-adv-x="691" 
d="M78 45v55l475 239l-475 238v55l535 -270v-47z" />
    <glyph glyph-name="question" unicode="?" horiz-adv-x="587" 
d="M190 203l4 21q7 33 15.5 57.5t24 44t41 36t66.5 34.5q45 19 75.5 34.5t49.5 37.5q22 24 33 61.5t11 72.5q0 49 -29 74q-41 32 -144 32q-33 0 -65.5 -3.5t-62 -8.5t-54.5 -10.5t-42 -9.5l11 54q41 10 98 20t129 10q67 0 110 -11.5t68 -32.5q22 -19 31.5 -45.5t9.5 -59.5
q0 -21 -3 -44.5t-10 -47t-18.5 -45t-27.5 -38.5q-26 -27 -63.5 -45.5t-88.5 -40.5q-28 -12 -46 -23t-29.5 -24t-18 -28.5t-10.5 -36.5l-8 -35h-57zM213 3q-6 -5 -15 -6.5t-17 -1.5q-24 0 -30 9q-4 5 -4 15q0 14 5 28t15 19q5 2 12 4t17 2q20 0 29 -7q5 -7 5 -17
q0 -14 -5 -27t-12 -18z" />
    <glyph glyph-name="at" unicode="@" horiz-adv-x="973" 
d="M404 466q-19 -15 -33 -38.5t-23.5 -51.5t-14.5 -59t-5 -62q0 -38 6.5 -61t18.5 -35q13 -13 33.5 -19.5t44.5 -6.5q50 0 86.5 13t62.5 26l53 316q-21 2 -49 6.5t-63 4.5q-77 0 -117 -33zM688 90q-42 0 -62.5 9t-31.5 20l-10 37h-3l-33 -37q-18 -8 -52.5 -18.5t-79.5 -10.5
q-32 0 -58.5 9t-43.5 27t-26.5 46.5t-9.5 76.5q0 37 6 73t17.5 68.5t29 60t40.5 46.5q24 20 60 32t88 12q40 0 71.5 -5.5t59.5 -12.5l20 13h18l-48 -303q-3 -18 -5 -31.5t-2 -26.5q0 -40 65 -40q29 0 56.5 8t45.5 27q20 20 35 73.5t15 134.5q0 75 -17 136t-52 102
q-34 41 -108 61.5t-171 20.5q-96 0 -161 -20t-109 -59q-19 -17 -37.5 -45t-33.5 -68t-24 -91t-9 -113q0 -57 5.5 -102.5t16.5 -81.5t27 -64.5t37 -50.5q33 -33 102.5 -58.5t172.5 -25.5q85 0 149 10t114 23v-44q-44 -13 -111 -24t-158 -11q-119 0 -194 28.5t-116 72.5
q-20 21 -37 48.5t-30 66t-20.5 89.5t-7.5 118q0 133 35.5 224t89.5 136q53 44 129 65.5t173 21.5q109 0 189.5 -23t125.5 -73q81 -89 81 -270q0 -77 -16.5 -139.5t-47.5 -94.5q-25 -26 -64.5 -39.5t-84.5 -13.5z" />
    <glyph glyph-name="A" unicode="A" horiz-adv-x="763" 
d="M597 0l-40 256h-366l-155 -256h-66l458 750h110l120 -750h-61zM488 695h-31l-236 -388h328z" />
    <glyph glyph-name="B" unicode="B" horiz-adv-x="699" 
d="M622 261q0 -30 -6.5 -63t-20 -63t-33.5 -56t-47 -42q-32 -20 -74 -28.5t-104 -8.5h-288l159 750h254q60 0 96 -7.5t55 -23.5q17 -14 28 -38t11 -59q0 -54 -20.5 -106.5t-61.5 -88.5q-2 -1 -12 -5.5t-21.5 -9.5t-22 -9t-12.5 -5v-4q29 -5 52 -14.5t38 -25.5
q11 -12 20.5 -34t9.5 -59zM492 430q24 11 42.5 30.5t30.5 44t18.5 51.5t6.5 54q0 23 -7.5 40t-18.5 27q-14 11 -42.5 17t-87.5 6h-179l-59 -284h170q91 0 126 14zM480 80q20 13 35 33t25.5 43.5t16 49.5t5.5 50q0 50 -27 76q-16 14 -52.5 23t-102.5 9h-196l-65 -312h213
q54 0 89.5 7t58.5 21z" />
    <glyph glyph-name="C" unicode="C" horiz-adv-x="719" 
d="M723 689q-35 5 -83 10.5t-117 5.5q-81 0 -132.5 -15t-87.5 -39q-35 -24 -65 -69t-52.5 -101.5t-35 -119.5t-12.5 -123q0 -90 36 -133q23 -28 70 -43.5t125 -15.5q66 0 124 8.5t100 15.5l-12 -52q-46 -11 -103.5 -19.5t-123.5 -8.5q-48 0 -84.5 5t-64 14.5t-47.5 24
t-35 32.5q-21 26 -33.5 66.5t-12.5 97.5q0 58 12 124.5t35 130t58 118t82 89.5q44 32 107 50t151 18q65 0 121.5 -7t88.5 -12z" />
    <glyph glyph-name="D" unicode="D" horiz-adv-x="803" 
d="M453 750q56 0 97 -5t71 -14t50 -22t35 -29q19 -23 30 -59t11 -93q0 -53 -11 -118.5t-33.5 -130.5t-57 -122t-81.5 -92q-44 -32 -111 -48.5t-180 -16.5h-225l159 750h246zM255 697l-137 -643h156q99 0 158.5 13.5t94.5 39.5q40 29 69.5 79.5t49.5 109t30 117.5t10 106
q0 40 -8 71.5t-25 51.5q-23 27 -73.5 41t-142.5 14h-182z" />
    <glyph glyph-name="E" unicode="E" horiz-adv-x="637" 
d="M510 0h-461l159 750h457l-24 -53h-386l-61 -288h339l-23 -52h-327l-65 -305h419z" />
    <glyph glyph-name="F" unicode="F" horiz-adv-x="594" 
d="M49 0l159 750h457l-23 -52h-387l-66 -312h339l-23 -52h-327l-71 -334h-58z" />
    <glyph glyph-name="G" unicode="G" horiz-adv-x="780" 
d="M747 687q-40 5 -92.5 11.5t-124.5 6.5q-41 0 -74 -4t-59 -11t-47 -17t-39 -22q-39 -27 -70.5 -74.5t-53 -104.5t-33 -119t-11.5 -117q0 -42 9.5 -76.5t26.5 -55.5q23 -28 68.5 -43.5t121.5 -15.5q64 0 111.5 7t83.5 14l57 269h-225l24 50h271l-76 -358q-51 -14 -117 -25
t-135 -11q-49 0 -86 5t-65 15t-48 24t-36 32q-19 23 -32.5 62t-13.5 99t12 127.5t35.5 130.5t59 117t83.5 88q22 16 47 28.5t56.5 21.5t70.5 14t89 5q69 0 125 -7t96 -14z" />
    <glyph glyph-name="H" unicode="H" horiz-adv-x="807" 
d="M570 0l76 353h-464l-75 -353h-57l159 750h57l-72 -343h464l71 343h59l-159 -750h-59z" />
    <glyph glyph-name="I" unicode="I" horiz-adv-x="285" 
d="M50 0l159 750h58l-159 -750h-58z" />
    <glyph glyph-name="J" unicode="J" horiz-adv-x="569" 
d="M136 -12q-57 0 -101.5 6.5t-66.5 11.5l5 53q12 -3 30 -6t39.5 -5.5t44.5 -4t45 -1.5q123 0 177 48q14 12 26.5 29.5t24.5 43t23 61t21 83.5l94 443h58l-95 -449q-11 -52 -23 -92t-26 -70.5t-30.5 -53t-35.5 -38.5q-33 -28 -84.5 -43.5t-125.5 -15.5z" />
    <glyph glyph-name="K" unicode="K" horiz-adv-x="666" 
d="M565 0h-76l-267 350h-41l-74 -350h-57l159 750h57l-82 -389l456 389h83l-447 -376z" />
    <glyph glyph-name="L" unicode="L" horiz-adv-x="595" 
d="M121 52h399l-25 -52h-445l159 750h58z" />
    <glyph glyph-name="M" unicode="M" horiz-adv-x="994" 
d="M758 0l147 695h-16l-402 -604h-82l-136 604h-17l-146 -695h-56l160 750h104l134 -602h16l400 602h110l-159 -750h-57z" />
    <glyph glyph-name="N" unicode="N" horiz-adv-x="833" 
d="M557 0l-286 694h-18l-147 -694h-56l159 750h100l284 -689h19l146 689h57l-159 -750h-99z" />
    <glyph glyph-name="O" unicode="O" horiz-adv-x="842" 
d="M363 44q75 0 123.5 15.5t81.5 41.5q40 31 70 82.5t49.5 110t29 117.5t9.5 106q0 44 -8.5 75.5t-23.5 51.5q-22 30 -69.5 47t-115.5 17q-73 0 -125 -17.5t-85 -44.5q-38 -30 -67 -79.5t-48.5 -107.5t-29.5 -117t-10 -108q0 -77 30 -121q23 -33 71.5 -51t117.5 -18z
M512 761q50 0 87.5 -6t65 -17t46.5 -25.5t32 -31.5q18 -23 31 -60.5t13 -95.5q0 -54 -11 -120.5t-33.5 -132t-57 -122.5t-80.5 -92q-45 -34 -106.5 -51t-146.5 -17q-96 0 -149.5 25t-79.5 63q-16 22 -27.5 58.5t-11.5 90.5q0 55 10.5 121t32.5 130t56 120t81 91
q45 33 104 52.5t144 19.5z" />
    <glyph glyph-name="P" unicode="P" horiz-adv-x="661" 
d="M174 306l-64 -306h-61l159 750h260q60 0 96 -10t56 -30q19 -18 29.5 -45.5t10.5 -70.5q0 -38 -8 -74.5t-24 -69.5t-38.5 -60t-50.5 -45q-38 -24 -90 -31.5t-134 -7.5h-141zM501 385q24 14 42.5 36.5t31 49.5t18.5 57t6 60q0 58 -26 82q-30 30 -119 30h-196l-72 -341h140
q66 0 108.5 6t66.5 20z" />
    <glyph glyph-name="Q" unicode="Q" horiz-adv-x="842" 
d="M512 761q50 0 87.5 -6t65 -17t46.5 -25.5t32 -31.5q18 -23 31 -60.5t13 -95.5q0 -54 -11 -120t-33.5 -131.5t-56.5 -122.5t-81 -93q-31 -24 -70.5 -39.5t-93.5 -22.5v-3l44 -27l100 -172h-71l-107 198q-14 -1 -27 -1.5t-28 -0.5q-96 0 -149.5 25t-79.5 63
q-16 22 -27.5 58.5t-11.5 90.5t10.5 120t32.5 130t56 120.5t81 91.5q45 33 104 52.5t144 19.5zM363 44q75 0 123.5 15.5t81.5 41.5q40 31 70 82.5t49.5 110t29 117.5t9.5 106q0 44 -8.5 75.5t-23.5 51.5q-22 30 -69.5 47t-115.5 17q-73 0 -125 -17.5t-85 -44.5
q-38 -30 -67 -80t-48.5 -107.5t-29.5 -116.5t-10 -108q0 -77 30 -121q23 -33 71.5 -51t117.5 -18z" />
    <glyph glyph-name="R" unicode="R" horiz-adv-x="693" 
d="M660 606q0 -29 -6 -60t-18.5 -60.5t-32 -56t-45.5 -46.5q-14 -8 -41.5 -16.5t-59.5 -18.5v-3q14 -7 29.5 -18t20.5 -20q15 -26 35.5 -104t49.5 -203h-63q-17 74 -29.5 128.5t-24 92.5t-22.5 60.5t-23 31.5q-14 9 -47.5 11.5t-76.5 2.5h-129l-69 -327h-58l159 750h219
q43 0 75 -3t55.5 -8.5t39 -14t26.5 -18.5q16 -14 26 -38.5t10 -61.5zM480 397q28 10 50 31t37 48t22.5 58.5t7.5 61.5q0 26 -6.5 43t-16.5 27q-7 7 -18.5 13t-30 10.5t-45 6.5t-64.5 2h-160l-67 -317h157q48 0 81 4.5t53 11.5z" />
    <glyph glyph-name="S" unicode="S" horiz-adv-x="643" 
d="M547 235q0 -27 -5 -55t-15 -54.5t-26 -50t-38 -40.5q-35 -26 -91.5 -36t-125.5 -10q-74 0 -136 8t-100 17l8 53q44 -8 98 -16t133 -8q71 0 113.5 10.5t62.5 25.5q15 12 26 28.5t18.5 36t11.5 41t4 41.5q0 33 -12 51q-11 14 -36.5 26.5t-59 24.5t-71 24t-71.5 25.5t-61 29
t-39 34.5q-8 13 -12 31t-5 38q0 26 4.5 53.5t14 53.5t25 49.5t38.5 41.5q31 25 84 39t132 14q72 0 127.5 -6t90.5 -11l-8 -52q-38 5 -92.5 10.5t-123.5 5.5q-67 0 -109.5 -11t-63.5 -30q-29 -26 -43 -67t-14 -80q0 -31 10 -47q8 -14 32.5 -26.5t58.5 -25t72 -25t73 -25.5
t62.5 -28t40.5 -31q10 -14 14.5 -34t3.5 -43z" />
    <glyph glyph-name="T" unicode="T" horiz-adv-x="651" 
d="M689 698h-266l-148 -698h-59l148 698h-270l25 52h592z" />
    <glyph glyph-name="U" unicode="U" horiz-adv-x="787" 
d="M766 750l-99 -464q-11 -50 -22.5 -87.5t-25 -66t-29.5 -48.5t-35 -36q-16 -13 -35.5 -24t-45.5 -19.5t-60.5 -13t-80.5 -4.5q-49 0 -85.5 7t-62.5 19t-43.5 27.5t-27.5 31.5q-11 17 -18.5 41.5t-7.5 56.5q0 26 4 57t15 81l94 442h57l-94 -445q-11 -47 -14 -75t-3 -52
q0 -47 19 -73q16 -24 57 -44t116 -20q36 0 63.5 3t48.5 9t37.5 15t30.5 21q15 12 27 28t23 39.5t21 55.5t19 76l99 462h58z" />
    <glyph glyph-name="V" unicode="V" horiz-adv-x="750" 
d="M343 0h-106l-114 750h60l102 -692h29l410 692h69z" />
    <glyph glyph-name="W" unicode="W" horiz-adv-x="1134" 
d="M802 0h-105l-45 692h-18l-368 -692h-105l-17 750h58l13 -692h22l369 692h97l46 -692h23l331 692h63z" />
    <glyph glyph-name="X" unicode="X" horiz-adv-x="725" 
d="M335 350l-285 -350h-71l311 381l-133 369h63l122 -346h61l282 346h70l-306 -376l141 -374h-64l-130 350h-61z" />
    <glyph glyph-name="Y" unicode="Y" horiz-adv-x="686" 
d="M292 0h-58l59 279l-174 471h61l148 -404h11l328 404h74l-389 -472z" />
    <glyph glyph-name="Z" unicode="Z" horiz-adv-x="696" 
d="M701 673l-637 -609l-2 -12h532l-23 -52h-590l16 74l637 612l3 12h-474l22 52h532z" />
    <glyph glyph-name="bracketleft" unicode="[" horiz-adv-x="366" 
d="M223 840h206l-9 -43h-157l-178 -844h157l-10 -43h-206z" />
    <glyph glyph-name="backslash" unicode="\" horiz-adv-x="456" 
d="M357 0h-48l-204 750h48z" />
    <glyph glyph-name="bracketright" unicode="]" horiz-adv-x="366" 
d="M159 -90h-206l9 43h156l179 844h-156l8 43h207z" />
    <glyph glyph-name="asciicircum" unicode="^" horiz-adv-x="681" 
d="M616 288h-55l-217 403l-216 -403h-56l250 457h45z" />
    <glyph glyph-name="underscore" unicode="_" horiz-adv-x="555" 
d="M-39 -114h556l-4 -44h-555z" />
    <glyph glyph-name="grave" unicode="`" horiz-adv-x="370" 
d="M159 758l128 -130h-53l-144 130h69z" />
    <glyph glyph-name="a" unicode="a" horiz-adv-x="612" 
d="M417 0l-3 70h-4l-37 -42q-16 -9 -61 -23.5t-111 -14.5q-56 0 -89.5 11.5t-49.5 34.5q-8 13 -13 31t-5 41q0 52 19.5 96.5t53.5 64.5q38 23 126 36.5t224 25.5q8 37 11.5 62t3.5 45q0 34 -14 51q-11 15 -38.5 23t-78.5 8q-26 0 -54 -2.5t-54 -6t-48 -7t-37 -6.5l13 49
q32 8 84.5 16t112.5 8q61 0 96 -10t52 -29q14 -15 19 -34t5 -45q0 -25 -4.5 -56.5t-14.5 -79.5l-67 -317h-37zM457 284q-49 -3 -99.5 -8t-93.5 -11.5t-74 -14t-42 -16.5q-23 -20 -35 -53t-12 -65q0 -14 3 -26t9 -20q9 -13 35 -22t68 -9q34 0 65 5.5t56.5 13t45.5 16.5t32 15
z" />
    <glyph glyph-name="b" unicode="b" horiz-adv-x="676" 
d="M607 401q0 -44 -8.5 -94.5t-26 -99t-43.5 -91t-60 -69.5q-32 -25 -82 -38.5t-119 -13.5q-51 0 -95 6.5t-80 16.5l-32 -18h-11l172 810h58l-67 -314h5l41 41q17 8 61 21t107 13q51 0 85 -10t56 -32q18 -18 28.5 -49.5t10.5 -78.5zM430 84q26 20 47.5 55.5t37 77.5t24 87.5
t8.5 84.5q0 38 -8.5 62.5t-22.5 38.5q-31 31 -112 31q-59 0 -105.5 -13.5t-89.5 -31.5l-89 -418q29 -5 68 -9.5t82 -4.5q107 0 160 40z" />
    <glyph glyph-name="c" unicode="c" horiz-adv-x="577" 
d="M398 525q-50 0 -87 -11t-66 -33q-31 -23 -53 -59.5t-36 -78t-20.5 -83t-6.5 -75.5q0 -72 29 -104q18 -21 49 -30.5t73 -9.5q58 0 105 9.5t78 16.5l-12 -50q-31 -10 -76 -19.5t-105 -9.5q-112 0 -160 55q-40 44 -40 133q0 47 9 97t26.5 96.5t43.5 86t59 65.5
q36 27 82.5 41t106.5 14q52 0 96 -5.5t70 -10.5l-8 -50q-27 4 -65.5 9.5t-91.5 5.5z" />
    <glyph glyph-name="d" unicode="d" horiz-adv-x="666" 
d="M615 817h58l-174 -817h-42l1 68h-4l-6.5 -7t-14 -14.5l-14 -14l-6.5 -6.5q-8 -4 -23 -10t-37 -12t-51 -10t-63 -4q-46 0 -77.5 10.5t-53.5 33.5q-19 19 -29.5 49.5t-10.5 80.5q0 47 10 98.5t28.5 100t44.5 89t59 66.5t78 39.5t103 13.5q51 0 91.5 -6.5t75.5 -14.5z
M247 478q-29 -23 -51.5 -60t-37.5 -80t-23 -87t-8 -79q0 -36 8.5 -60.5t22.5 -38.5q15 -15 42 -23t61 -8q33 0 61 4t52 10.5t45 15t42 17.5l89 417q-28 5 -65 10.5t-85 5.5q-53 0 -88.5 -10.5t-64.5 -33.5z" />
    <glyph glyph-name="e" unicode="e" horiz-adv-x="609" 
d="M69 178q0 51 9.5 102t27.5 97t42.5 83t54.5 60q35 26 79.5 39.5t101.5 13.5q50 0 85 -10.5t56.5 -29t31.5 -44t10 -55.5q0 -48 -18.5 -79.5t-53.5 -49.5t-85 -25.5t-113 -7.5q-20 0 -42 0.5t-43.5 1.5t-40.5 2t-33 2q-11 -58 -11 -96q0 -29 5.5 -53.5t18.5 -40.5
q17 -24 51 -35t82 -11q30 0 58 3.5t53.5 8t46.5 10t36 10.5l-16 -51q-30 -11 -81 -22.5t-111 -11.5q-62 0 -102.5 15.5t-63.5 45.5q-35 44 -35 128zM379 525q-46 0 -81 -11t-61 -32q-29 -25 -51 -65t-38 -94q13 -1 36 -2t47.5 -1.5t46.5 -1t33 -0.5q45 0 81.5 4.5t62 17.5
t39.5 35t14 55q0 45 -30.5 70t-98.5 25z" />
    <glyph glyph-name="f" unicode="f" horiz-adv-x="419" 
d="M451 512h-198l-109 -512h-59l109 512h-118l19 49h109l12 57q12 56 30 93t43.5 59.5t59.5 32t79 9.5q36 0 66 -3.5t47 -5.5l-8 -46q-19 2 -44 4.5t-60 2.5q-38 0 -63.5 -9t-43 -28t-28.5 -47.5t-20 -68.5l-11 -50h207z" />
    <glyph glyph-name="g" unicode="g" horiz-adv-x="671" 
d="M506 30q-12 -57 -25 -98.5t-27.5 -71.5t-30 -49.5t-32.5 -33.5q-31 -23 -77 -37t-121 -14q-28 0 -57 2.5t-56 5.5t-49.5 7t-36.5 7l8 51q27 -5 79.5 -12t110.5 -7q63 0 101.5 9.5t62.5 27.5q26 21 49.5 71t43.5 147l7 31h-3l-6.5 -6t-14 -13.5l-14 -14t-7.5 -6.5
q-16 -9 -62 -22t-109 -13q-51 0 -82.5 11.5t-51.5 31.5q-20 18 -30.5 49t-10.5 76t9 96t26.5 99.5t43.5 90.5t61 70q31 24 79.5 38.5t114.5 14.5q52 0 98.5 -7.5t80.5 -15.5l31 17h11zM549 505q-29 4 -64.5 8t-84.5 4q-54 0 -91 -9t-66 -31q-29 -23 -51.5 -61t-37.5 -81
t-22.5 -87t-7.5 -80q0 -35 7.5 -58.5t21.5 -35.5q18 -16 45 -23.5t59 -7.5q54 0 107 14t98 35z" />
    <glyph glyph-name="h" unicode="h" horiz-adv-x="662" 
d="M445 0l74 341q5 26 8 47t3 38q0 39 -18 61q-13 17 -37.5 23.5t-59.5 6.5q-60 0 -109.5 -16t-98.5 -40l-99 -461h-58l173 810h58l-70 -325h5l38 39q12 6 31 13.5t43 14.5t52 11.5t59 4.5q45 0 77.5 -10.5t50.5 -34.5q23 -30 23 -82q0 -20 -3.5 -45.5t-9.5 -54.5l-73 -341
h-59z" />
    <glyph glyph-name="i" unicode="i" horiz-adv-x="271" 
d="M51 0l119 561h58l-119 -561h-58zM260 720q-11 -8 -32 -8q-20 0 -28 8q-4 4 -4.5 10t0.5 13q1 14 6 24t11 14q8 7 30 7q21 0 28 -8q4 -4 4.5 -10t-0.5 -14q-2 -26 -15 -36z" />
    <glyph glyph-name="j" unicode="j" horiz-adv-x="268" 
d="M93 -82q-10 -47 -24 -82.5t-37 -60.5t-57.5 -37.5t-85.5 -12.5q-31 0 -58 3t-37 5l2 45q18 -2 39.5 -4t50.5 -2q36 0 60.5 8t41.5 26t28 47t20 71l136 637h58zM260 720q-11 -8 -32 -8q-11 0 -17.5 2.5t-10.5 5.5q-6 7 -4 23q3 29 17 38q8 7 30 7q21 0 28 -8q4 -4 4.5 -10
t-0.5 -14q-2 -26 -15 -36z" />
    <glyph glyph-name="k" unicode="k" horiz-adv-x="570" 
d="M491 0h-74l-213 279h-37l-59 -279h-57l173 810h57l-111 -520l350 271h87l-348 -263z" />
    <glyph glyph-name="l" unicode="l" horiz-adv-x="334" 
d="M276 810l-140 -657q-5 -19 -6.5 -32t-1.5 -22q0 -56 60 -56q27 0 47 3t37 7l-10 -47q-19 -5 -42.5 -8.5t-49.5 -3.5q-46 0 -73.5 20.5t-27.5 72.5q0 24 9 71l140 652h58z" />
    <glyph glyph-name="m" unicode="m" horiz-adv-x="1018" 
d="M426 0l73 342q6 30 10 51.5t4 38.5q0 32 -17 54q-14 18 -40.5 24.5t-49.5 6.5q-31 0 -57.5 -4.5t-51 -12.5t-47 -18.5t-45.5 -21.5l-96 -460h-59l119 561h41l-2 -77h5l39 41q29 14 74.5 28.5t102.5 14.5t93 -21t50 -68h6l37 42q28 16 75 31.5t106 15.5q50 0 80 -12
t46 -34q24 -30 24 -83q0 -20 -4 -45.5t-11 -59.5l-71 -334h-58l71 333q6 31 9 53t3 40q0 40 -18 62q-13 15 -38.5 22t-57.5 7q-54 0 -100 -16.5t-89 -38.5l-98 -462h-58z" />
    <glyph glyph-name="n" unicode="n" horiz-adv-x="662" 
d="M446 0l74 344q5 25 8 45t3 37q0 37 -18 61q-13 17 -37.5 23.5t-58.5 6.5q-60 0 -110 -15.5t-99 -39.5l-99 -462h-58l119 561h40v-76h5l38 39q26 12 75 28t112 16q45 0 77 -10.5t51 -34.5q23 -30 23 -82q0 -20 -4 -45.5t-9 -54.5l-73 -341h-59z" />
    <glyph glyph-name="o" unicode="o" horiz-adv-x="675" 
d="M606 390q0 -45 -8.5 -94t-24.5 -95t-40.5 -85.5t-55.5 -66.5q-34 -29 -80.5 -45t-117.5 -16q-73 0 -114.5 19.5t-63.5 50.5q-14 19 -23 49t-9 74q0 46 8.5 94.5t25.5 93.5t42 83.5t58 64.5q35 26 81 42t112 16q65 0 107.5 -15.5t63.5 -41.5q18 -22 28.5 -52.5t10.5 -75.5
zM434 81q27 21 48 55.5t36 76t23 85.5t8 85q0 35 -8 59.5t-21 38.5q-16 19 -46 31t-83 12q-51 0 -88 -13t-60 -31q-25 -18 -46 -50t-36.5 -72t-24.5 -84.5t-9 -87.5q0 -31 6 -56t17 -40q16 -22 47 -37.5t90 -15.5q47 0 84 11.5t63 32.5z" />
    <glyph glyph-name="p" unicode="p" horiz-adv-x="672" 
d="M51 -274h-58l178 836h42l-2 -69h4l9.5 9.5l13.5 13.5t13 12.5t8 6.5q16 9 60.5 23t107.5 14q51 0 83.5 -10.5t52.5 -31.5q19 -20 29 -51t10 -84q0 -42 -9 -92.5t-26.5 -99t-43.5 -91t-61 -69.5q-66 -51 -183 -51q-49 0 -90 6.5t-76 14.5zM424 81q26 19 48 54.5t37.5 78
t24.5 88t9 85.5q0 38 -8 62.5t-22 39.5q-14 17 -40.5 24.5t-69.5 7.5q-58 0 -107 -15t-87 -35l-87 -415q27 -5 64.5 -9.5t83.5 -4.5q52 0 88.5 8.5t65.5 30.5z" />
    <glyph glyph-name="q" unicode="q" horiz-adv-x="671" 
d="M69 160q0 44 9 95t26.5 100.5t44 92.5t61.5 70q33 26 81 40.5t105 14.5q52 0 98 -8.5t81 -16.5l34 19h13l-172 -811h-58l66 311h-4l-40 -43q-8 -4 -23.5 -9.5t-37 -11t-49.5 -9.5t-61 -4q-93 0 -136 46q-17 18 -27.5 48t-10.5 76zM249 480q-27 -20 -49 -55t-37.5 -77.5
t-24.5 -89t-9 -88.5q0 -35 7.5 -58.5t20.5 -37.5q31 -33 104 -33q63 0 111.5 13.5t89.5 33.5l88 420q-28 5 -66 10.5t-85 5.5q-51 0 -86 -10.5t-64 -33.5z" />
    <glyph glyph-name="r" unicode="r" horiz-adv-x="430" 
d="M207 561v-76h6l34 40q27 17 66 30.5t87 13.5q24 0 41 -1.5t31 -3.5l-10 -57q-14 3 -34 5.5t-46 2.5q-53 0 -97 -18t-79 -41l-97 -456h-58l119 561h37z" />
    <glyph glyph-name="s" unicode="s" horiz-adv-x="514" 
d="M430 181q1 -43 -16 -85.5t-53 -67.5q-29 -19 -71.5 -26.5t-101.5 -7.5q-48 0 -94 5.5t-76 12.5l2 51q32 -7 77.5 -13.5t93.5 -6.5q53 0 84.5 6t50.5 19q20 13 32.5 41t12.5 63q0 12 -3.5 25t-14.5 21q-15 13 -45.5 23t-64.5 20.5t-65.5 22.5t-49.5 29q-25 24 -25 68
q0 49 19.5 92.5t51.5 66.5q29 20 69.5 28t94.5 8q50 0 91 -5.5t65 -9.5l-8 -48q-29 5 -68.5 9.5t-82.5 4.5q-51 0 -80.5 -6.5t-49.5 -21.5q-22 -17 -33.5 -46.5t-11.5 -63.5q0 -28 16 -43q15 -13 46 -24t65 -21t65.5 -21t46.5 -24q16 -14 23 -32t8 -43z" />
    <glyph glyph-name="t" unicode="t" horiz-adv-x="440" 
d="M446 512h-198l-75 -351q-5 -20 -7 -33.5t-2 -24.5q0 -35 20 -46.5t54 -11.5q38 0 70.5 6.5t50.5 11.5l-13 -50q-21 -6 -54.5 -12.5t-73.5 -6.5q-60 0 -88 24.5t-28 72.5q0 14 3 32t8 38l76 351h-116l18 49h108l25 117l62 15l-27 -132h208z" />
    <glyph glyph-name="u" unicode="u" horiz-adv-x="662" 
d="M216 561l-74 -344q-5 -25 -8 -45t-3 -37q0 -40 18 -61q14 -15 38 -22t57 -7q61 0 111 15t99 39l99 462h58l-119 -561h-40v76h-5l-38 -39q-25 -12 -73 -28t-114 -16q-45 0 -77 10.5t-51 34.5q-23 30 -23 82q0 20 4 45.5t10 54.5l72 341h59z" />
    <glyph glyph-name="v" unicode="v" horiz-adv-x="594" 
d="M277 0h-102l-93 561h60l80 -510h24l306 510h66z" />
    <glyph glyph-name="w" unicode="w" horiz-adv-x="962" 
d="M672 0h-97l-46 508h-22l-273 -508h-101l-27 561h56l22 -508h22l274 508h98l44 -508h22l256 508h61z" />
    <glyph glyph-name="x" unicode="x" horiz-adv-x="575" 
d="M260 257l-214 -257h-71l241 285l-112 276h63l98 -251h45l217 251h69l-241 -279l117 -282h-62l-106 257h-44z" />
    <glyph glyph-name="y" unicode="y" horiz-adv-x="594" 
d="M108 -275h-63l168 275h-39l-95 561h59l83 -510h23l306 510h67z" />
    <glyph glyph-name="z" unicode="z" horiz-adv-x="547" 
d="M543 489l-468 -425l-3 -13h392l-26 -51h-446l14 69l470 430l3 11h-351l24 51h406z" />
    <glyph glyph-name="braceleft" unicode="{" horiz-adv-x="350" 
d="M34 407q48 8 76.5 23.5t39.5 32.5q12 18 21 47t18 62t20 66t27 59q11 18 27.5 34.5t34 29.5t34.5 23.5t29 16.5h65q-46 -27 -83.5 -55.5t-60.5 -62.5q-16 -26 -27.5 -61.5t-22 -71t-21 -66t-23.5 -46.5q-14 -16 -38.5 -29.5t-56.5 -21.5l-1 -5q31 -12 53 -32t22 -55
q0 -20 -3 -45.5t-6 -53t-6 -54t-3 -47.5q0 -25 8.5 -47t22 -40.5t30 -35t32.5 -31.5h-57q-37 29 -60.5 65.5t-23.5 84.5q0 23 3 50.5t6.5 54.5t6.5 51.5t3 42.5q0 19 -9 32.5t-22.5 23t-30.5 14.5t-32 8z" />
    <glyph glyph-name="bar" unicode="|" horiz-adv-x="224" 
d="M95 853h39v-1126h-39v1126z" />
    <glyph glyph-name="braceright" unicode="}" horiz-adv-x="350" 
d="M331 335q-48 -8 -76.5 -23.5t-39.5 -32.5q-12 -18 -21 -47t-18 -62t-20 -66t-27 -59q-11 -18 -27.5 -34.5t-34.5 -29.5t-34.5 -23.5t-28.5 -16.5h-65q46 27 83.5 55.5t59.5 62.5q16 25 28 61t22.5 71.5t20.5 66t24 46.5q13 16 38 29.5t57 21.5l1 5q-31 12 -53 32t-22 55
q0 19 3 45t6 53.5t6 54t3 47.5q0 25 -8.5 47t-22 40.5t-30 35t-32.5 31.5h57q37 -29 60 -65.5t23 -84.5q0 -23 -3 -50.5t-6 -54.5t-6 -51.5t-3 -42.5q0 -19 9 -32.5t22.5 -23t30.5 -14.5t32 -8z" />
    <glyph glyph-name="asciitilde" unicode="~" horiz-adv-x="691" 
d="M460 269q-37 0 -67 14t-56.5 30.5t-52.5 30.5t-54 14q-18 0 -37 -7.5t-38.5 -19.5t-39 -27.5t-37.5 -32.5v59q15 15 34 29t39.5 25t41.5 17.5t42 6.5q36 0 64.5 -14t55 -31t52 -31t54.5 -14q20 0 41 8t40.5 20.5t37.5 28t33 30.5v-60q-37 -34 -76 -55t-77 -21z" />
    <glyph glyph-name="uni00A0" unicode="&#xa0;" horiz-adv-x="224" 
 />
    <glyph glyph-name="exclamdown" unicode="&#xa1;" horiz-adv-x="278" 
d="M176 373l-114 -561h-60l125 561h49zM160 560q10 7 33 7q22 0 30 -8q5 -8 5 -18q0 -14 -5 -26.5t-13 -17.5q-10 -7 -31 -7q-22 0 -30 8q-5 6 -5 19q0 14 4.5 25.5t11.5 17.5z" />
    <glyph glyph-name="cent" unicode="&#xa2;" horiz-adv-x="691" 
d="M286 0l20 96q-104 2 -151 57q-37 43 -37 126q0 43 9 90.5t26 92t41 82.5t55 62q35 29 79.5 43t98.5 16l18 85h38l-18 -86q44 -2 80.5 -7t59.5 -10l-8 -50q-26 5 -60.5 10t-82.5 7l-98 -465q48 3 87.5 11.5t66.5 15.5l-12 -50q-27 -9 -65.5 -17.5t-87.5 -12.5l-20 -96h-39
zM415 613q-39 -3 -71 -14t-57 -31q-27 -20 -47.5 -54t-35 -74t-22 -80.5t-7.5 -73.5q0 -64 27 -95q17 -23 46.5 -33t68.5 -10z" />
    <glyph glyph-name="sterling" unicode="&#xa3;" horiz-adv-x="696" 
d="M13 0l14 54h108l61 281h-101l24 46h87l24 111q17 77 37 127.5t52 79.5q31 28 74 44t117 16q59 0 101.5 -6.5t74.5 -14.5l-8 -50q-30 8 -71.5 14.5t-92.5 6.5q-58 0 -94.5 -11t-62.5 -37q-13 -14 -22.5 -30t-18 -38t-16.5 -52t-17 -71l-20 -89h251l-23 -46h-238l-53 -242
l-41 -34v-5h435l-14 -54h-567z" />
    <glyph glyph-name="currency" unicode="&#xa4;" horiz-adv-x="691" 
d="M132 591l79 -78q28 21 63 34t74 13q38 0 73 -12.5t63 -34.5l80 78l34 -35l-80 -79q23 -28 36 -63t13 -73q0 -39 -12.5 -74t-35.5 -64l79 -77l-34 -35l-80 78q-27 -23 -62 -35t-74 -12q-81 0 -137 47l-79 -78l-34 35l78 77q-22 29 -35 63.5t-13 74.5q0 80 48 137l-78 78z
M177 341q0 -36 13.5 -67t36.5 -54.5t54 -36.5t67 -13q35 0 66 13t54 36.5t36.5 54.5t13.5 67q0 35 -13.5 66t-36.5 54t-54 36.5t-66 13.5q-36 0 -67 -13.5t-54 -36.5t-36.5 -54t-13.5 -66z" />
    <glyph glyph-name="yen" unicode="&#xa5;" horiz-adv-x="700" 
d="M375 290h244l-20 -40h-239l-21 -101h250l-20 -40h-239l-23 -109h-58l23 109h-247l20 40h236l20 101h-246l19 40h230l-167 460h60l145 -407h10l331 407h71z" />
    <glyph glyph-name="brokenbar" unicode="&#xa6;" horiz-adv-x="225" 
d="M93 178h38v-301h-38v301zM93 728h38v-301h-38v301z" />
    <glyph glyph-name="section" unicode="&#xa7;" horiz-adv-x="563" 
d="M415 35q-7 -33 -21.5 -60t-41.5 -45.5t-70.5 -29t-108.5 -10.5q-42 0 -89 4.5t-77 12.5l11 48q29 -5 70.5 -10t88.5 -5q48 0 80 6.5t52.5 19.5t31.5 32t16 45q2 6 2 12v11q0 8 -1.5 16.5t-6.5 14.5q-10 15 -45 25.5t-84 21.5q-68 14 -104.5 32t-54.5 46q-15 20 -15 53
q0 16 2 34.5t7 41.5q11 52 45 90.5t97 55.5q-23 10 -35 27q-12 18 -12 48q0 17 5 35q8 36 24 63t43 45.5t67.5 27.5t97.5 9q46 0 86.5 -5.5t66.5 -11.5l-10 -46q-32 5 -68 10t-78 5q-45 0 -76 -7t-50.5 -20t-30.5 -32.5t-16 -43.5q-1 -5 -1.5 -10.5t-0.5 -10.5q0 -20 9 -30
q11 -13 45.5 -23t91.5 -22q70 -14 103 -31t47 -36q8 -11 12.5 -26.5t4.5 -35.5q0 -28 -6 -65q-15 -70 -53.5 -107t-91.5 -51q25 -12 35 -25q12 -20 12 -50q0 -11 -1.5 -21.5t-3.5 -21.5zM322 462q-32 8 -45.5 10t-24.5 2q-27 0 -50.5 -10.5t-41.5 -28t-30 -40t-17 -47.5
q-4 -21 -5.5 -36t-1.5 -26q0 -15 4.5 -24.5t9.5 -16.5q6 -8 15.5 -15.5t25.5 -15t39 -14.5t55 -14q8 -1 25 -5t34 -4q27 0 51.5 10t43.5 28t32.5 42t19.5 51q4 17 5 31.5t1 25.5q0 13 -4 23.5t-10 18.5q-11 17 -41.5 29.5t-89.5 25.5z" />
    <glyph glyph-name="dieresis" unicode="&#xa8;" horiz-adv-x="370" 
d="M169 649q-19 0 -25 7q-4 5 -4 15q0 12 4 22t12 15q4 2 10.5 4t15.5 2q18 0 25 -7q4 -5 4 -15q0 -25 -15 -37q-8 -6 -27 -6zM343 649q-19 0 -25 7q-5 7 -5 15q0 12 4.5 22t12.5 15q4 2 10.5 4t15.5 2q20 0 24 -7q5 -5 5 -15q0 -11 -4 -21.5t-11 -15.5q-8 -6 -27 -6z" />
    <glyph glyph-name="copyright" unicode="&#xa9;" horiz-adv-x="803" 
d="M436 564q-88 0 -130.5 -45t-42.5 -150q0 -97 39.5 -140t128.5 -43q48 0 80.5 7t56.5 12v-42q-25 -8 -61 -15.5t-87 -7.5q-103 0 -155 53.5t-52 168.5q0 67 15 114t43.5 77t70 43.5t93.5 13.5q43 0 76.5 -5.5t57.5 -11.5v-43q-23 5 -55.5 9.5t-77.5 4.5zM398 27
q83 0 137.5 16.5t93.5 50.5q44 37 73 111t29 171q0 102 -21.5 168.5t-57.5 103.5q-34 36 -93 55.5t-135 19.5q-78 0 -135 -18.5t-97 -53.5q-18 -16 -36.5 -42.5t-33 -62.5t-24 -81t-9.5 -97q0 -94 23.5 -160t61.5 -106q31 -32 85.5 -53.5t138.5 -21.5zM423 761
q96 0 157 -24.5t97 -59.5q18 -18 34.5 -44t29.5 -62t20.5 -83t7.5 -107q0 -115 -33.5 -193t-81.5 -123q-40 -35 -105 -56t-153 -21q-95 0 -152.5 25t-95.5 62q-17 16 -34.5 41.5t-31.5 61t-22.5 80.5t-8.5 102q0 60 9.5 109.5t26 89t37.5 69.5t45 50q41 35 102.5 59
t151.5 24z" />
    <glyph glyph-name="ordfeminine" unicode="&#xaa;" horiz-adv-x="431" 
d="M333 385l-4 44q-2 -2 -5.5 -6t-8 -8.5l-8 -8l-3.5 -3.5q-19 -9 -52.5 -16t-65.5 -7q-59 0 -81 19.5t-22 57.5q0 10 2 23t7 26.5t13 26t19 20.5q24 17 81 28t159 21q4 20 6 33.5t2 24.5t-2 20.5t-10.5 16t-25 10.5t-44.5 4q-34 0 -72.5 -5.5t-60.5 -10.5l9 39q11 3 27 6
t34.5 6t38 4.5t37.5 1.5q69 0 93.5 -20.5t24.5 -63.5q0 -8 -2 -24t-6 -39l-47 -220h-33zM355 564q-84 -4 -133.5 -14.5t-65.5 -21.5q-7 -5 -15.5 -24t-8.5 -45q0 -7 1 -13.5t5 -11.5q6 -7 22 -11.5t41 -4.5q45 0 79 9t51 17z" />
    <glyph glyph-name="guillemotleft" unicode="&#xab;" horiz-adv-x="501" 
d="M194 46l-156 207l10 47l246 219l-14 -68l-187 -169l-4 -19l117 -156zM429 46l-156 207l10 47l246 219l-14 -68l-187 -169l-4 -19l117 -156z" />
    <glyph glyph-name="logicalnot" unicode="&#xac;" horiz-adv-x="691" 
d="M613 150h-49v264h-486v49h535v-313z" />
    <glyph glyph-name="uni00AD" unicode="&#xad;" horiz-adv-x="413" 
d="M85 342h261l-11 -55h-261z" />
    <glyph glyph-name="registered" unicode="&#xae;" horiz-adv-x="804" 
d="M399 27q83 0 137.5 16.5t93.5 50.5q44 37 73.5 111t29.5 171q0 102 -22 168.5t-58 103.5q-34 36 -93 55.5t-135 19.5q-78 0 -135 -18.5t-97 -53.5q-18 -16 -36.5 -42.5t-33.5 -62.5t-24.5 -81t-9.5 -97q0 -94 24 -160t62 -107q31 -32 85 -53t139 -21zM424 761
q48 0 86.5 -6.5t70 -18t55.5 -27t42 -32.5q18 -18 35 -44t29.5 -62t20 -83t7.5 -107q0 -115 -33.5 -193t-81.5 -123q-40 -35 -105 -56t-153 -21q-48 0 -85.5 6.5t-67.5 18.5t-53.5 28t-42.5 34q-17 16 -34 41.5t-31 61t-22.5 80.5t-8.5 102q0 60 9.5 109.5t26 89.5t37.5 70
t45 50q42 34 103 58t151 24zM419 601q41 0 71.5 -5t50.5 -18t31 -37t11 -63q0 -32 -12.5 -60t-31.5 -42q-5 -3 -23 -10t-41 -14v-1q11 -5 24.5 -11t18.5 -11q18 -16 43.5 -65t60.5 -115h-57l-60 114q-13 24 -24 38.5t-23.5 22t-30 9.5t-44.5 2h-83v-186h-49v452h168z
M300 376h90q26 0 48.5 2t36.5 7q25 8 40.5 32.5t15.5 57.5q0 49 -25 67q-13 10 -37 14t-59 4h-110v-184z" />
    <glyph glyph-name="macron" unicode="&#xaf;" horiz-adv-x="370" 
d="M133 693h253l-10 -42h-253z" />
    <glyph glyph-name="degree" unicode="&#xb0;" horiz-adv-x="418" 
d="M63 593q0 34 13 64.5t35.5 53t52.5 35.5t65 13t65.5 -13t53 -35.5t35.5 -53t13 -64.5q0 -35 -13 -65.5t-35.5 -53t-53 -35.5t-65.5 -13t-65 13t-52.5 35.5t-35.5 53t-13 65.5zM101 593q0 -27 10 -50.5t27.5 -41t40.5 -27.5t50 -10t50.5 10t41 27.5t27.5 41t10 50.5
t-10 50t-27.5 40.5t-41 27.5t-50.5 10t-50 -10t-40.5 -27.5t-27.5 -40.5t-10 -50z" />
    <glyph glyph-name="plusminus" unicode="&#xb1;" horiz-adv-x="691" 
d="M78 436h243v228h49v-228h243v-50h-243v-229h-49v229h-243v50zM613 0h-535v50h535v-50z" />
    <glyph glyph-name="twosuperior" unicode="&#xb2;" 
d="M435 399h-349l7 39q7 28 21 52t38 45t58.5 39.5t84.5 37.5q63 24 93.5 39.5t44.5 31.5q18 17 26.5 45.5t8.5 49.5q0 29 -25 44.5t-90 15.5q-23 0 -46 -2t-44.5 -5t-39.5 -6.5t-31 -6.5l10 41q33 8 77.5 14.5t85.5 6.5q87 0 121.5 -24t34.5 -74q0 -25 -11 -61t-36 -61
q-11 -11 -24 -20.5t-32 -19.5t-45.5 -21.5t-63.5 -25.5q-47 -18 -77 -34.5t-48 -32t-26.5 -31.5t-12.5 -32h312z" />
    <glyph glyph-name="threesuperior" unicode="&#xb3;" 
d="M493 741q-8 -30 -24 -50.5t-28 -29.5l-51 -20l43 -19q23 -21 23 -67q0 -8 -1.5 -22t-5.5 -28q-7 -28 -21 -49t-38.5 -35.5t-60.5 -21.5t-86 -7q-45 0 -82 5.5t-61 10.5l9 43q25 -5 60.5 -10.5t73.5 -5.5q77 0 111.5 18.5t45.5 56.5q3 11 4.5 23t1.5 20q0 40 -32 52.5
t-93 12.5h-85l8 42h81q34 0 60.5 3.5t45 12.5t31 25t18.5 41q3 9 4 19t1 17q0 28 -22.5 44t-81.5 16q-41 0 -78 -5.5t-65 -10.5l9 40q29 7 70 12.5t77 5.5q42 0 69.5 -7t44 -19.5t23.5 -29.5t7 -37q0 -10 -1 -22.5t-4 -23.5z" />
    <glyph glyph-name="acute" unicode="&#xb4;" horiz-adv-x="370" 
d="M363 759h81l-196 -134h-61z" />
    <glyph glyph-name="mu" unicode="&#xb5;" horiz-adv-x="659" 
d="M229 -7q-94 0 -122 63l-72 -329h-58l179 834h59l-77 -358q-4 -20 -5.5 -36.5t-1.5 -30.5q0 -39 18 -60q15 -18 42 -24.5t53 -6.5q65 0 115 17.5t98 42.5l97 456h59l-121 -561h-41l2 78h-3l-38 -40q-10 -6 -28.5 -14t-42.5 -14.5t-53 -11.5t-59 -5z" />
    <glyph glyph-name="paragraph" unicode="&#xb6;" horiz-adv-x="562" 
d="M500 700q-17 2 -36.5 4t-41.5 4l-174 -819h-41l101 474q-22 -5 -44.5 -8t-51.5 -3q-37 0 -60.5 10t-36.5 26q-12 15 -17 37t-3 56q0 31 7 64.5t19.5 64.5t31 57t42.5 44t64 29.5t103 11.5q58 0 119.5 -7.5t109.5 -19.5l-9 -41q-8 2 -20 4.5t-21 4.5l-172 -804h-40z" />
    <glyph glyph-name="periodcentered" unicode="&#xb7;" horiz-adv-x="225" 
d="M140 303q-11 -8 -32 -8q-23 0 -30 9q-3 3 -4 7.5t-1 9.5q0 32 17 44q11 8 32 8q22 0 30 -9q5 -6 5 -18q0 -31 -17 -43z" />
    <glyph glyph-name="cedilla" unicode="&#xb8;" horiz-adv-x="370" 
d="M114 0h34l-22 -53q29 -1 48 -5t30 -15q15 -15 15 -47q0 -28 -11 -50t-28 -34q-31 -21 -97 -21q-33 0 -56.5 4t-39.5 9l5 36q19 -5 39 -9t51 -4t46.5 4t23.5 9q9 6 16.5 20.5t7.5 31.5t-8 25q-6 6 -21.5 10t-47.5 4h-21z" />
    <glyph glyph-name="onesuperior" unicode="&#xb9;" 
d="M108 399l9 43h147l83 395q-1 0 -12.5 -2t-28 -4.5t-35.5 -5.5t-35.5 -5.5t-28 -4.5t-12.5 -2l9 42l203 32l-94 -445h132l-9 -43h-328z" />
    <glyph glyph-name="ordmasculine" unicode="&#xba;" horiz-adv-x="464" 
d="M475 628q0 -25 -5 -54.5t-15.5 -58.5t-26.5 -54.5t-37 -43.5q-25 -20 -58 -31t-82 -11q-48 0 -77 12t-45 34q-10 14 -16 34.5t-6 46.5q0 28 5 58t16 58.5t28 53t40 42.5q23 17 57 27.5t74 10.5q51 0 79 -12t42 -29q12 -13 19.5 -33t7.5 -50zM354 444q16 12 28.5 32.5
t21.5 45.5t14 52.5t5 51.5q0 21 -5 34.5t-12 21.5q-11 12 -30 19.5t-54 7.5q-32 0 -54.5 -8t-37.5 -18q-18 -13 -31.5 -33t-23 -43.5t-14 -49t-4.5 -49.5q0 -17 3.5 -32.5t9.5 -25.5q10 -13 29 -23t54 -10t60 7.5t41 19.5z" />
    <glyph glyph-name="guillemotright" unicode="&#xbb;" horiz-adv-x="501" 
d="M105 519l156 -207l-10 -47l-246 -219l13 68l187 169l4 19l-117 156zM339 519l156 -207l-10 -47l-246 -219l13 68l187 169l4 19l-117 156z" />
    <glyph glyph-name="onequarter" unicode="&#xbc;" horiz-adv-x="1142" 
d="M921 0h-46l28 131h-257l11 49l282 295h83l-64 -301h114l-22 -43h-101zM967 433h-15l-242 -254l-1 -5h203zM78 275l9 43h147l83 395q-1 0 -12.5 -2t-28 -4.5t-35.5 -5.5t-35.5 -5.5t-28 -4.5t-12.5 -2l9 42l203 32l-94 -445h132l-9 -43h-328zM882 750h53l-652 -750h-53z
" />
    <glyph glyph-name="onehalf" unicode="&#xbd;" horiz-adv-x="1151" 
d="M1007 0h-349l6 39q8 28 22 52t38 45t58.5 39.5t84.5 37.5q63 24 93.5 39.5t44.5 31.5q18 17 26.5 45.5t8.5 49.5q0 29 -25 44.5t-91 15.5q-45 0 -89.5 -7.5t-70.5 -12.5l10 41q33 8 77.5 14.5t85.5 6.5q87 0 121.5 -24t34.5 -74q0 -25 -11.5 -61t-36.5 -61
q-11 -11 -23.5 -20.5t-31.5 -19.5t-45.5 -21.5t-63.5 -25.5q-47 -18 -77 -34.5t-48 -32t-26.5 -31.5t-13.5 -32h313zM78 275l9 43h147l83 395q-1 0 -12.5 -2t-28 -4.5t-35.5 -5.5t-35.5 -5.5t-28 -4.5t-12.5 -2l9 42l203 32l-94 -445h132l-9 -43h-328zM882 750h53l-652 -750
h-53z" />
    <glyph glyph-name="threequarters" unicode="&#xbe;" horiz-adv-x="1145" 
d="M463 617q-8 -30 -24 -50.5t-28 -29.5l-51 -20l43 -19q23 -21 23 -67q0 -8 -1.5 -22t-5.5 -28q-7 -28 -21 -49t-38.5 -35.5t-60.5 -21.5t-86 -7q-45 0 -82 5.5t-61 10.5l9 43q25 -5 60.5 -10.5t73.5 -5.5q77 0 111.5 18.5t45.5 56.5q3 11 4.5 23t1.5 20q0 40 -32 52.5
t-93 12.5h-85l8 42h81q34 0 60.5 3.5t45 12.5t31 25t18.5 41q3 9 4 19t1 17q0 28 -22.5 44t-81.5 16q-41 0 -78 -5.5t-65 -10.5l9 40q29 7 70 12.5t77 5.5q42 0 69.5 -7t44 -19.5t23.5 -29.5t7 -37q0 -10 -1 -22.5t-4 -23.5zM924 0h-46l28 131h-257l11 49l282 295h83
l-64 -301h114l-22 -43h-101zM970 433h-15l-242 -254l-1 -5h203zM886 750h53l-652 -750h-53z" />
    <glyph glyph-name="questiondown" unicode="&#xbf;" horiz-adv-x="587" 
d="M430 369l-4 -21q-7 -34 -15.5 -58.5t-24 -44t-41 -36t-66.5 -33.5q-45 -20 -75.5 -35.5t-49.5 -36.5q-23 -24 -33.5 -62t-10.5 -73q0 -24 6.5 -42t22.5 -32q40 -31 144 -31q33 0 65.5 3.5t62 8t54.5 10t42 10.5l-11 -54q-41 -11 -98 -21t-129 -10q-68 0 -110.5 11.5
t-67.5 33.5q-22 18 -31.5 45t-9.5 59q0 21 3 44.5t10 47t18.5 45t27.5 38.5q26 27 63.5 46t88.5 40q27 12 45 23.5t29.5 24.5t18 28.5t11.5 35.5l7 36h58zM406 569q13 7 33 7q24 0 29 -9q5 -5 5 -15q0 -14 -5.5 -27.5t-14.5 -18.5q-11 -7 -29 -7q-21 0 -29 8q-5 5 -5 16
q0 14 4.5 27.5t11.5 18.5z" />
    <glyph glyph-name="Agrave" unicode="&#xc0;" horiz-adv-x="763" 
d="M597 0l-40 256h-366l-155 -256h-66l458 750h110l120 -750h-61zM488 695h-31l-236 -388h328zM409 947l128 -130h-53l-144 130h69z" />
    <glyph glyph-name="Aacute" unicode="&#xc1;" horiz-adv-x="763" 
d="M597 0l-40 256h-366l-155 -256h-66l458 750h110l120 -750h-61zM488 695h-31l-236 -388h328zM621 948h81l-196 -134h-61z" />
    <glyph glyph-name="Acircumflex" unicode="&#xc2;" horiz-adv-x="763" 
d="M597 0l-40 256h-366l-155 -256h-66l458 750h110l120 -750h-61zM488 695h-31l-236 -388h328zM639 824h-50l-77 88l-118 -88h-57l155 123h46z" />
    <glyph glyph-name="Atilde" unicode="&#xc3;" horiz-adv-x="763" 
d="M597 0l-40 256h-366l-155 -256h-66l458 750h110l120 -750h-61zM488 695h-31l-236 -388h328zM332 833q11 44 37 68t63 24q23 0 40 -10t31.5 -21.5t28 -21.5t30.5 -10q20 0 33.5 13t24.5 43h39q-13 -48 -38.5 -70.5t-61.5 -22.5q-24 0 -41 10t-31.5 21.5t-28.5 21.5t-30 10
q-40 0 -58 -55h-38z" />
    <glyph glyph-name="Adieresis" unicode="&#xc4;" horiz-adv-x="763" 
d="M597 0l-40 256h-366l-155 -256h-66l458 750h110l120 -750h-61zM488 695h-31l-236 -388h328zM400 838q-19 0 -25 7q-4 5 -4 15q0 12 4 22t12 15q4 2 10.5 4t15.5 2q18 0 25 -7q4 -5 4 -15q0 -25 -15 -37q-8 -6 -27 -6zM574 838q-19 0 -25 7q-5 7 -5 15q0 12 4.5 22
t12.5 15q4 2 10.5 4t15.5 2q20 0 24 -7q5 -5 5 -15q0 -11 -4 -21.5t-11 -15.5q-8 -6 -27 -6z" />
    <glyph glyph-name="Aring" unicode="&#xc5;" horiz-adv-x="763" 
d="M597 0l-40 256h-366l-155 -256h-66l458 750h110l120 -750h-61zM488 695h-31l-236 -388h328zM492 807q-39 0 -55.5 16.5t-16.5 46.5q0 18 6.5 43t25.5 41q25 23 69 23q42 0 57.5 -16.5t15.5 -42.5q0 -20 -7.5 -46t-24.5 -42q-12 -11 -29.5 -17t-40.5 -6zM496 836
q31 0 48 18q8 11 13 28t5 34q0 15 -9.5 23.5t-33.5 8.5q-34 0 -48 -17q-8 -11 -13.5 -27t-5.5 -34q0 -16 9 -25t35 -9z" />
    <glyph glyph-name="AE" unicode="&#xc6;" horiz-adv-x="988" 
d="M1016 750l-25 -53h-385l-62 -288h339l-23 -52h-326l-65 -305h417l-26 -52h-461l53 254h-272l-182 -254h-68l542 750h544zM547 697h-51l-280 -392h248z" />
    <glyph glyph-name="Ccedilla" unicode="&#xc7;" horiz-adv-x="719" 
d="M323 -9q-82 3 -127.5 22t-72.5 53q-21 26 -33.5 66.5t-12.5 97.5q0 58 12 124.5t35 130t58 118t82 89.5q44 32 107 50t151 18q65 0 121.5 -7t88.5 -12l-9 -52q-35 5 -83 10.5t-117 5.5q-81 0 -132.5 -15t-87.5 -39q-35 -24 -65 -69t-52.5 -101.5t-35 -119.5t-12.5 -123
q0 -90 36 -133q23 -28 70 -43.5t125 -15.5q66 0 124 8.5t100 15.5l-12 -52q-46 -11 -102.5 -19t-121.5 -9l-18 -43q29 -1 48 -5t30 -15q15 -15 15 -47q0 -28 -11 -50t-28 -34q-31 -21 -97 -21q-33 0 -56.5 4t-39.5 9l5 36q19 -5 39 -9t51 -4t46.5 4t23.5 9q9 6 16.5 20.5
t7.5 31.5t-8 25q-6 6 -21.5 10t-47.5 4h-21z" />
    <glyph glyph-name="Egrave" unicode="&#xc8;" horiz-adv-x="637" 
d="M510 0h-461l159 750h457l-24 -53h-386l-61 -288h339l-23 -52h-327l-65 -305h419zM364 947l128 -130h-53l-144 130h69z" />
    <glyph glyph-name="Eacute" unicode="&#xc9;" horiz-adv-x="637" 
d="M510 0h-461l159 750h457l-24 -53h-386l-61 -288h339l-23 -52h-327l-65 -305h419zM536 948h81l-196 -134h-61z" />
    <glyph glyph-name="Ecircumflex" unicode="&#xca;" horiz-adv-x="637" 
d="M510 0h-461l159 750h457l-24 -53h-386l-61 -288h339l-23 -52h-327l-65 -305h419zM591 824h-50l-77 88l-118 -88h-57l155 123h46z" />
    <glyph glyph-name="Edieresis" unicode="&#xcb;" horiz-adv-x="637" 
d="M510 0h-461l159 750h457l-24 -53h-386l-61 -288h339l-23 -52h-327l-65 -305h419zM356 838q-19 0 -25 7q-4 5 -4 15q0 12 4 22t12 15q4 2 10.5 4t15.5 2q18 0 25 -7q4 -5 4 -15q0 -25 -15 -37q-8 -6 -27 -6zM530 838q-19 0 -25 7q-5 7 -5 15q0 12 4.5 22t12.5 15
q4 2 10.5 4t15.5 2q20 0 24 -7q5 -5 5 -15q0 -11 -4 -21.5t-11 -15.5q-8 -6 -27 -6z" />
    <glyph glyph-name="Igrave" unicode="&#xcc;" horiz-adv-x="285" 
d="M50 0l159 750h58l-159 -750h-58zM164 947l128 -130h-53l-144 130h69z" />
    <glyph glyph-name="Iacute" unicode="&#xcd;" horiz-adv-x="285" 
d="M50 0l159 750h58l-159 -750h-58zM370 948h81l-196 -134h-61z" />
    <glyph glyph-name="Icircumflex" unicode="&#xce;" horiz-adv-x="285" 
d="M50 0l159 750h58l-159 -750h-58zM399 824h-50l-77 88l-118 -88h-57l155 123h46z" />
    <glyph glyph-name="Idieresis" unicode="&#xcf;" horiz-adv-x="285" 
d="M50 0l159 750h58l-159 -750h-58zM168 838q-19 0 -25 7q-4 5 -4 15q0 12 4 22t12 15q4 2 10.5 4t15.5 2q18 0 25 -7q4 -5 4 -15q0 -25 -15 -37q-8 -6 -27 -6zM342 838q-19 0 -25 7q-5 7 -5 15q0 12 4.5 22t12.5 15q4 2 10.5 4t15.5 2q20 0 24 -7q5 -5 5 -15
q0 -11 -4 -21.5t-11 -15.5q-8 -6 -27 -6z" />
    <glyph glyph-name="Eth" unicode="&#xd0;" horiz-adv-x="803" 
d="M453 750q56 0 97 -5t71 -14t50 -22t35 -29q19 -23 30 -59t11 -93q0 -53 -11 -118.5t-33.5 -130.5t-57 -122t-81.5 -92q-44 -32 -111 -48.5t-180 -16.5h-225l75 358h-110l14 44h106l74 348h246zM191 402h225l-13 -44h-220l-65 -304h156q99 0 158.5 13.5t94.5 39.5
q40 29 69.5 79.5t49.5 109t30 117.5t10 106q0 40 -8 71.5t-25 51.5q-23 27 -73.5 41t-142.5 14h-182z" />
    <glyph glyph-name="Ntilde" unicode="&#xd1;" horiz-adv-x="833" 
d="M557 0l-286 694h-18l-147 -694h-56l159 750h100l284 -689h19l146 689h57l-159 -750h-99zM373 833q11 44 37 68t63 24q23 0 40 -10t31.5 -21.5t28 -21.5t30.5 -10q20 0 33.5 13t24.5 43h39q-13 -48 -38.5 -70.5t-61.5 -22.5q-24 0 -41 10t-31.5 21.5t-28.5 21.5t-30 10
q-40 0 -58 -55h-38z" />
    <glyph glyph-name="Ograve" unicode="&#xd2;" horiz-adv-x="842" 
d="M363 44q75 0 123.5 15.5t81.5 41.5q40 31 70 82.5t49.5 110t29 117.5t9.5 106q0 44 -8.5 75.5t-23.5 51.5q-22 30 -69.5 47t-115.5 17q-73 0 -125 -17.5t-85 -44.5q-38 -30 -67 -79.5t-48.5 -107.5t-29.5 -117t-10 -108q0 -77 30 -121q23 -33 71.5 -51t117.5 -18z
M512 761q50 0 87.5 -6t65 -17t46.5 -25.5t32 -31.5q18 -23 31 -60.5t13 -95.5q0 -54 -11 -120.5t-33.5 -132t-57 -122.5t-80.5 -92q-45 -34 -106.5 -51t-146.5 -17q-96 0 -149.5 25t-79.5 63q-16 22 -27.5 58.5t-11.5 90.5q0 55 10.5 121t32.5 130t56 120t81 91
q45 33 104 52.5t144 19.5zM461 947l128 -130h-53l-144 130h69z" />
    <glyph glyph-name="Oacute" unicode="&#xd3;" horiz-adv-x="842" 
d="M363 44q75 0 123.5 15.5t81.5 41.5q40 31 70 82.5t49.5 110t29 117.5t9.5 106q0 44 -8.5 75.5t-23.5 51.5q-22 30 -69.5 47t-115.5 17q-73 0 -125 -17.5t-85 -44.5q-38 -30 -67 -79.5t-48.5 -107.5t-29.5 -117t-10 -108q0 -77 30 -121q23 -33 71.5 -51t117.5 -18z
M512 761q50 0 87.5 -6t65 -17t46.5 -25.5t32 -31.5q18 -23 31 -60.5t13 -95.5q0 -54 -11 -120.5t-33.5 -132t-57 -122.5t-80.5 -92q-45 -34 -106.5 -51t-146.5 -17q-96 0 -149.5 25t-79.5 63q-16 22 -27.5 58.5t-11.5 90.5q0 55 10.5 121t32.5 130t56 120t81 91
q45 33 104 52.5t144 19.5zM625 948h81l-196 -134h-61z" />
    <glyph glyph-name="Ocircumflex" unicode="&#xd4;" horiz-adv-x="842" 
d="M363 44q75 0 123.5 15.5t81.5 41.5q40 31 70 82.5t49.5 110t29 117.5t9.5 106q0 44 -8.5 75.5t-23.5 51.5q-22 30 -69.5 47t-115.5 17q-73 0 -125 -17.5t-85 -44.5q-38 -30 -67 -79.5t-48.5 -107.5t-29.5 -117t-10 -108q0 -77 30 -121q23 -33 71.5 -51t117.5 -18z
M512 761q50 0 87.5 -6t65 -17t46.5 -25.5t32 -31.5q18 -23 31 -60.5t13 -95.5q0 -54 -11 -120.5t-33.5 -132t-57 -122.5t-80.5 -92q-45 -34 -106.5 -51t-146.5 -17q-96 0 -149.5 25t-79.5 63q-16 22 -27.5 58.5t-11.5 90.5q0 55 10.5 121t32.5 130t56 120t81 91
q45 33 104 52.5t144 19.5zM677 824h-50l-77 88l-118 -88h-57l155 123h46z" />
    <glyph glyph-name="Otilde" unicode="&#xd5;" horiz-adv-x="842" 
d="M363 44q75 0 123.5 15.5t81.5 41.5q40 31 70 82.5t49.5 110t29 117.5t9.5 106q0 44 -8.5 75.5t-23.5 51.5q-22 30 -69.5 47t-115.5 17q-73 0 -125 -17.5t-85 -44.5q-38 -30 -67 -79.5t-48.5 -107.5t-29.5 -117t-10 -108q0 -77 30 -121q23 -33 71.5 -51t117.5 -18z
M512 761q50 0 87.5 -6t65 -17t46.5 -25.5t32 -31.5q18 -23 31 -60.5t13 -95.5q0 -54 -11 -120.5t-33.5 -132t-57 -122.5t-80.5 -92q-45 -34 -106.5 -51t-146.5 -17q-96 0 -149.5 25t-79.5 63q-16 22 -27.5 58.5t-11.5 90.5q0 55 10.5 121t32.5 130t56 120t81 91
q45 33 104 52.5t144 19.5zM359 833q11 44 37 68t63 24q23 0 40 -10t31.5 -21.5t28 -21.5t30.5 -10q20 0 33.5 13t24.5 43h39q-13 -48 -38.5 -70.5t-61.5 -22.5q-24 0 -41 10t-31.5 21.5t-28.5 21.5t-30 10q-40 0 -58 -55h-38z" />
    <glyph glyph-name="Odieresis" unicode="&#xd6;" horiz-adv-x="842" 
d="M363 44q75 0 123.5 15.5t81.5 41.5q40 31 70 82.5t49.5 110t29 117.5t9.5 106q0 44 -8.5 75.5t-23.5 51.5q-22 30 -69.5 47t-115.5 17q-73 0 -125 -17.5t-85 -44.5q-38 -30 -67 -79.5t-48.5 -107.5t-29.5 -117t-10 -108q0 -77 30 -121q23 -33 71.5 -51t117.5 -18z
M512 761q50 0 87.5 -6t65 -17t46.5 -25.5t32 -31.5q18 -23 31 -60.5t13 -95.5q0 -54 -11 -120.5t-33.5 -132t-57 -122.5t-80.5 -92q-45 -34 -106.5 -51t-146.5 -17q-96 0 -149.5 25t-79.5 63q-16 22 -27.5 58.5t-11.5 90.5q0 55 10.5 121t32.5 130t56 120t81 91
q45 33 104 52.5t144 19.5zM432 838q-19 0 -25 7q-4 5 -4 15q0 12 4 22t12 15q4 2 10.5 4t15.5 2q18 0 25 -7q4 -5 4 -15q0 -25 -15 -37q-8 -6 -27 -6zM606 838q-19 0 -25 7q-5 7 -5 15q0 12 4.5 22t12.5 15q4 2 10.5 4t15.5 2q20 0 24 -7q5 -5 5 -15q0 -11 -4 -21.5
t-11 -15.5q-8 -6 -27 -6z" />
    <glyph glyph-name="multiply" unicode="&#xd7;" horiz-adv-x="691" 
d="M135 585l210 -211l211 211l36 -36l-212 -211l212 -210l-36 -36l-211 211l-210 -211l-36 36l211 210l-211 211z" />
    <glyph glyph-name="Oslash" unicode="&#xd8;" horiz-adv-x="842" 
d="M19 -1l95 93q-13 22 -21.5 55.5t-8.5 80.5q0 55 10.5 120.5t32.5 129.5t56 120t81 91q45 33 104 52.5t144 19.5q45 0 80 -5.5t61.5 -14.5t45 -21.5t32.5 -26.5l60 58h59l-93 -90q13 -23 21.5 -56.5t8.5 -80.5q0 -54 -11 -120.5t-33.5 -131.5t-57 -122t-80.5 -92
q-45 -34 -106.5 -51t-146.5 -17q-84 0 -134.5 19t-79.5 49l-61 -59h-58zM363 44q75 0 123.5 15.5t81.5 41.5q40 31 70 82.5t49.5 109.5t29 116.5t9.5 104.5q0 60 -17 100l-526 -512q26 -29 71.5 -43.5t108.5 -14.5zM144 235q0 -30 4.5 -53.5t12.5 -42.5l527 511
q-24 28 -70 43t-109 15q-73 0 -125 -17.5t-85 -44.5q-38 -30 -67 -79.5t-48.5 -107t-29.5 -117t-10 -107.5z" />
    <glyph glyph-name="Ugrave" unicode="&#xd9;" horiz-adv-x="787" 
d="M766 750l-99 -464q-11 -50 -22.5 -87.5t-25 -66t-29.5 -48.5t-35 -36q-16 -13 -35.5 -24t-45.5 -19.5t-60.5 -13t-80.5 -4.5q-49 0 -85.5 7t-62.5 19t-43.5 27.5t-27.5 31.5q-11 17 -18.5 41.5t-7.5 56.5q0 26 4 57t15 81l94 442h57l-94 -445q-11 -47 -14 -75t-3 -52
q0 -47 19 -73q16 -24 57 -44t116 -20q36 0 63.5 3t48.5 9t37.5 15t30.5 21q15 12 27 28t23 39.5t21 55.5t19 76l99 462h58zM410 947l128 -130h-53l-144 130h69z" />
    <glyph glyph-name="Uacute" unicode="&#xda;" horiz-adv-x="787" 
d="M766 750l-99 -464q-11 -50 -22.5 -87.5t-25 -66t-29.5 -48.5t-35 -36q-16 -13 -35.5 -24t-45.5 -19.5t-60.5 -13t-80.5 -4.5q-49 0 -85.5 7t-62.5 19t-43.5 27.5t-27.5 31.5q-11 17 -18.5 41.5t-7.5 56.5q0 26 4 57t15 81l94 442h57l-94 -445q-11 -47 -14 -75t-3 -52
q0 -47 19 -73q16 -24 57 -44t116 -20q36 0 63.5 3t48.5 9t37.5 15t30.5 21q15 12 27 28t23 39.5t21 55.5t19 76l99 462h58zM607 948h81l-196 -134h-61z" />
    <glyph glyph-name="Ucircumflex" unicode="&#xdb;" horiz-adv-x="787" 
d="M766 750l-99 -464q-11 -50 -22.5 -87.5t-25 -66t-29.5 -48.5t-35 -36q-16 -13 -35.5 -24t-45.5 -19.5t-60.5 -13t-80.5 -4.5q-49 0 -85.5 7t-62.5 19t-43.5 27.5t-27.5 31.5q-11 17 -18.5 41.5t-7.5 56.5q0 26 4 57t15 81l94 442h57l-94 -445q-11 -47 -14 -75t-3 -52
q0 -47 19 -73q16 -24 57 -44t116 -20q36 0 63.5 3t48.5 9t37.5 15t30.5 21q15 12 27 28t23 39.5t21 55.5t19 76l99 462h58zM639 824h-50l-77 88l-118 -88h-57l155 123h46z" />
    <glyph glyph-name="Udieresis" unicode="&#xdc;" horiz-adv-x="787" 
d="M766 750l-99 -464q-11 -50 -22.5 -87.5t-25 -66t-29.5 -48.5t-35 -36q-16 -13 -35.5 -24t-45.5 -19.5t-60.5 -13t-80.5 -4.5q-49 0 -85.5 7t-62.5 19t-43.5 27.5t-27.5 31.5q-11 17 -18.5 41.5t-7.5 56.5q0 26 4 57t15 81l94 442h57l-94 -445q-11 -47 -14 -75t-3 -52
q0 -47 19 -73q16 -24 57 -44t116 -20q36 0 63.5 3t48.5 9t37.5 15t30.5 21q15 12 27 28t23 39.5t21 55.5t19 76l99 462h58zM399 838q-19 0 -25 7q-4 5 -4 15q0 12 4 22t12 15q4 2 10.5 4t15.5 2q18 0 25 -7q4 -5 4 -15q0 -25 -15 -37q-8 -6 -27 -6zM573 838q-19 0 -25 7
q-5 7 -5 15q0 12 4.5 22t12.5 15q4 2 10.5 4t15.5 2q20 0 24 -7q5 -5 5 -15q0 -11 -4 -21.5t-11 -15.5q-8 -6 -27 -6z" />
    <glyph glyph-name="Yacute" unicode="&#xdd;" horiz-adv-x="686" 
d="M292 0h-58l59 279l-174 471h61l148 -404h11l328 404h74l-389 -472zM536 948h81l-196 -134h-61z" />
    <glyph glyph-name="Thorn" unicode="&#xde;" horiz-adv-x="661" 
d="M145 165l-34 -165h-61l159 750h60l-30 -141h200q50 0 88 -8t64 -31q20 -19 30 -47t10 -70q0 -34 -7 -70t-22 -69.5t-38 -62t-54 -47.5q-18 -11 -37.5 -18.5t-45.5 -12t-60.5 -6.5t-80.5 -2h-141zM472 245q25 14 43.5 36.5t30.5 49.5t18 57t6 59q0 59 -26 83
q-17 17 -47 23t-72 6h-196l-72 -341h140q74 0 114.5 6.5t60.5 20.5z" />
    <glyph glyph-name="germandbls" unicode="&#xdf;" horiz-adv-x="690" 
d="M522 526q-39 0 -65 -5t-43 -16.5t-26 -29t-14 -42.5q-2 -10 -3 -17t-1 -13q0 -23 9 -35q8 -13 29.5 -23.5t70.5 -24.5q51 -14 78 -29t38 -32q14 -23 14 -55q0 -11 -1.5 -26.5t-5.5 -29.5q-8 -35 -19.5 -59t-33.5 -44q-25 -25 -70 -38.5t-117 -13.5q-45 0 -86 6t-70 14
l10 48q27 -7 69.5 -12.5t79.5 -5.5q53 0 87.5 8t57.5 31q14 14 22 32t13 41q3 10 4 19t1 16q0 25 -8 37q-10 15 -33 26.5t-65 23.5q-50 14 -78 28t-42 37q-7 9 -9.5 22t-2.5 26q0 11 1 25.5t5 29.5q9 35 23 59t37.5 38.5t57 21t80.5 6.5h40q5 11 10.5 26t10.5 34q2 9 4 21.5
t2 22.5q0 19 -6 35.5t-21.5 28.5t-42 18.5t-66.5 6.5q-45 0 -79.5 -8t-61 -30t-45 -60.5t-31.5 -99.5l-119 -565h-58l121 572q13 65 35 110t55 73.5t79.5 41.5t109.5 13q52 0 88 -9t58.5 -26t32 -41t9.5 -54q0 -13 -2 -26.5t-5 -27.5q-8 -31 -18 -55.5t-19 -44.5h-75z" />
    <glyph glyph-name="agrave" unicode="&#xe0;" horiz-adv-x="612" 
d="M417 0l-3 70h-4l-37 -42q-16 -9 -61 -23.5t-111 -14.5q-56 0 -89.5 11.5t-49.5 34.5q-8 13 -13 31t-5 41q0 52 19.5 96.5t53.5 64.5q38 23 126 36.5t224 25.5q8 37 11.5 62t3.5 45q0 34 -14 51q-11 15 -38.5 23t-78.5 8q-26 0 -54 -2.5t-54 -6t-48 -7t-37 -6.5l13 49
q32 8 84.5 16t112.5 8q61 0 96 -10t52 -29q14 -15 19 -34t5 -45q0 -25 -4.5 -56.5t-14.5 -79.5l-67 -317h-37zM457 284q-49 -3 -99.5 -8t-93.5 -11.5t-74 -14t-42 -16.5q-23 -20 -35 -53t-12 -65q0 -14 3 -26t9 -20q9 -13 35 -22t68 -9q34 0 65 5.5t56.5 13t45.5 16.5t32 15
zM296 758l128 -130h-53l-144 130h69z" />
    <glyph glyph-name="aacute" unicode="&#xe1;" horiz-adv-x="612" 
d="M417 0l-3 70h-4l-37 -42q-16 -9 -61 -23.5t-111 -14.5q-56 0 -89.5 11.5t-49.5 34.5q-8 13 -13 31t-5 41q0 52 19.5 96.5t53.5 64.5q38 23 126 36.5t224 25.5q8 37 11.5 62t3.5 45q0 34 -14 51q-11 15 -38.5 23t-78.5 8q-26 0 -54 -2.5t-54 -6t-48 -7t-37 -6.5l13 49
q32 8 84.5 16t112.5 8q61 0 96 -10t52 -29q14 -15 19 -34t5 -45q0 -25 -4.5 -56.5t-14.5 -79.5l-67 -317h-37zM457 284q-49 -3 -99.5 -8t-93.5 -11.5t-74 -14t-42 -16.5q-23 -20 -35 -53t-12 -65q0 -14 3 -26t9 -20q9 -13 35 -22t68 -9q34 0 65 5.5t56.5 13t45.5 16.5t32 15
zM477 759h81l-196 -134h-61z" />
    <glyph glyph-name="acircumflex" unicode="&#xe2;" horiz-adv-x="612" 
d="M417 0l-3 70h-4l-37 -42q-16 -9 -61 -23.5t-111 -14.5q-56 0 -89.5 11.5t-49.5 34.5q-8 13 -13 31t-5 41q0 52 19.5 96.5t53.5 64.5q38 23 126 36.5t224 25.5q8 37 11.5 62t3.5 45q0 34 -14 51q-11 15 -38.5 23t-78.5 8q-26 0 -54 -2.5t-54 -6t-48 -7t-37 -6.5l13 49
q32 8 84.5 16t112.5 8q61 0 96 -10t52 -29q14 -15 19 -34t5 -45q0 -25 -4.5 -56.5t-14.5 -79.5l-67 -317h-37zM457 284q-49 -3 -99.5 -8t-93.5 -11.5t-74 -14t-42 -16.5q-23 -20 -35 -53t-12 -65q0 -14 3 -26t9 -20q9 -13 35 -22t68 -9q34 0 65 5.5t56.5 13t45.5 16.5t32 15
zM520 635h-50l-77 88l-118 -88h-57l155 123h46z" />
    <glyph glyph-name="atilde" unicode="&#xe3;" horiz-adv-x="612" 
d="M417 0l-3 70h-4l-37 -42q-16 -9 -61 -23.5t-111 -14.5q-56 0 -89.5 11.5t-49.5 34.5q-8 13 -13 31t-5 41q0 52 19.5 96.5t53.5 64.5q38 23 126 36.5t224 25.5q8 37 11.5 62t3.5 45q0 34 -14 51q-11 15 -38.5 23t-78.5 8q-26 0 -54 -2.5t-54 -6t-48 -7t-37 -6.5l13 49
q32 8 84.5 16t112.5 8q61 0 96 -10t52 -29q14 -15 19 -34t5 -45q0 -25 -4.5 -56.5t-14.5 -79.5l-67 -317h-37zM457 284q-49 -3 -99.5 -8t-93.5 -11.5t-74 -14t-42 -16.5q-23 -20 -35 -53t-12 -65q0 -14 3 -26t9 -20q9 -13 35 -22t68 -9q34 0 65 5.5t56.5 13t45.5 16.5t32 15
zM217 644q11 44 37 68t63 24q23 0 40 -10t31.5 -21.5t28 -21.5t30.5 -10q20 0 33.5 13t24.5 43h39q-13 -48 -38.5 -70.5t-61.5 -22.5q-24 0 -41 10t-31.5 21.5t-28.5 21.5t-30 10q-40 0 -58 -55h-38z" />
    <glyph glyph-name="adieresis" unicode="&#xe4;" horiz-adv-x="612" 
d="M417 0l-3 70h-4l-37 -42q-16 -9 -61 -23.5t-111 -14.5q-56 0 -89.5 11.5t-49.5 34.5q-8 13 -13 31t-5 41q0 52 19.5 96.5t53.5 64.5q38 23 126 36.5t224 25.5q8 37 11.5 62t3.5 45q0 34 -14 51q-11 15 -38.5 23t-78.5 8q-26 0 -54 -2.5t-54 -6t-48 -7t-37 -6.5l13 49
q32 8 84.5 16t112.5 8q61 0 96 -10t52 -29q14 -15 19 -34t5 -45q0 -25 -4.5 -56.5t-14.5 -79.5l-67 -317h-37zM457 284q-49 -3 -99.5 -8t-93.5 -11.5t-74 -14t-42 -16.5q-23 -20 -35 -53t-12 -65q0 -14 3 -26t9 -20q9 -13 35 -22t68 -9q34 0 65 5.5t56.5 13t45.5 16.5t32 15
zM292 649q-19 0 -25 7q-4 5 -4 15q0 12 4 22t12 15q4 2 10.5 4t15.5 2q18 0 25 -7q4 -5 4 -15q0 -25 -15 -37q-8 -6 -27 -6zM466 649q-19 0 -25 7q-5 7 -5 15q0 12 4.5 22t12.5 15q4 2 10.5 4t15.5 2q20 0 24 -7q5 -5 5 -15q0 -11 -4 -21.5t-11 -15.5q-8 -6 -27 -6z" />
    <glyph glyph-name="aring" unicode="&#xe5;" horiz-adv-x="612" 
d="M417 0l-3 70h-4l-37 -42q-16 -9 -61 -23.5t-111 -14.5q-56 0 -89.5 11.5t-49.5 34.5q-8 13 -13 31t-5 41q0 52 19.5 96.5t53.5 64.5q38 23 126 36.5t224 25.5q8 37 11.5 62t3.5 45q0 34 -14 51q-11 15 -38.5 23t-78.5 8q-26 0 -54 -2.5t-54 -6t-48 -7t-37 -6.5l13 49
q32 8 84.5 16t112.5 8q61 0 96 -10t52 -29q14 -15 19 -34t5 -45q0 -25 -4.5 -56.5t-14.5 -79.5l-67 -317h-37zM457 284q-49 -3 -99.5 -8t-93.5 -11.5t-74 -14t-42 -16.5q-23 -20 -35 -53t-12 -65q0 -14 3 -26t9 -20q9 -13 35 -22t68 -9q34 0 65 5.5t56.5 13t45.5 16.5t32 15
zM374 616q-39 0 -55.5 16.5t-16.5 46.5q0 18 6.5 43t25.5 41q25 23 69 23q42 0 57.5 -16.5t15.5 -42.5q0 -20 -7.5 -46t-24.5 -42q-12 -11 -29.5 -17t-40.5 -6zM378 645q31 0 48 18q8 11 13 28t5 34q0 15 -9.5 23.5t-33.5 8.5q-34 0 -48 -17q-8 -11 -13.5 -27t-5.5 -34
q0 -16 9 -25t35 -9z" />
    <glyph glyph-name="ae" unicode="&#xe6;" horiz-adv-x="978" 
d="M835 21q-31 -11 -81.5 -21.5t-110.5 -10.5q-30 0 -58.5 4.5t-52.5 15.5t-43 30t-30 48h-5l-34 -43q-20 -12 -45 -22t-53.5 -17t-58.5 -11t-58 -4q-59 0 -93 12t-50 34q-8 11 -13 28.5t-5 40.5q0 25 5 50t14.5 47.5t22.5 40t30 27.5q38 23 127 35.5t223 18.5q8 36 12 60
t4 47q0 30 -10 47.5t-27 27t-40 12t-50 2.5t-56 -2.5t-55 -6t-48 -7t-37 -6.5l12 49q15 3 38.5 7.5t51 8t57 6t56.5 2.5q80 0 116 -26t41 -80q29 45 84 76.5t141 31.5q99 0 141 -37.5t42 -101.5q0 -53 -23.5 -84t-62 -47.5t-87 -21t-98.5 -4.5h-156q-5 -27 -7.5 -51
t-2.5 -47q0 -27 5.5 -50t18.5 -40q17 -23 50 -35t81 -12q60 0 111.5 11.5t81.5 19.5zM455 277q-53 -2 -103.5 -5.5t-92.5 -9t-71.5 -13t-40.5 -16.5q-23 -20 -33.5 -54t-10.5 -65q0 -28 11 -44q10 -14 34 -22t62 -8q67 0 125.5 17t117.5 48q-5 15 -6.5 33.5t-1.5 32.5
q0 29 2.5 54t7.5 52zM880 433q0 44 -32 67.5t-100 23.5q-88 0 -141 -43q-15 -12 -28 -26t-23.5 -32.5t-18.5 -42.5t-15 -56h159q46 0 83 4.5t63 16.5t39.5 33t13.5 55z" />
    <glyph glyph-name="ccedilla" unicode="&#xe7;" horiz-adv-x="577" 
d="M245 -11q-93 4 -135 54q-40 44 -40 133q0 47 9 97t26.5 96.5t43.5 86t59 65.5q36 27 82.5 41t106.5 14q52 0 96 -5.5t70 -10.5l-8 -50q-27 4 -65.5 9.5t-91.5 5.5q-50 0 -87 -11t-66 -33q-31 -23 -53 -59.5t-36 -78t-20.5 -83t-6.5 -75.5q0 -72 29 -104q18 -21 49 -30.5
t73 -9.5q58 0 105 9.5t78 16.5l-12 -50q-30 -10 -73 -19t-99 -10l-17 -41q29 -1 48 -5t30 -15q15 -15 15 -47q0 -28 -11 -50t-28 -34q-31 -21 -97 -21q-33 0 -56.5 4t-39.5 9l5 36q19 -5 39 -9t51 -4t46.5 4t23.5 9q9 6 16.5 20.5t7.5 31.5t-8 25q-6 6 -21.5 10t-47.5 4h-21
z" />
    <glyph glyph-name="egrave" unicode="&#xe8;" horiz-adv-x="609" 
d="M69 178q0 51 9.5 102t27.5 97t42.5 83t54.5 60q35 26 79.5 39.5t101.5 13.5q50 0 85 -10.5t56.5 -29t31.5 -44t10 -55.5q0 -48 -18.5 -79.5t-53.5 -49.5t-85 -25.5t-113 -7.5q-20 0 -42 0.5t-43.5 1.5t-40.5 2t-33 2q-11 -58 -11 -96q0 -29 5.5 -53.5t18.5 -40.5
q17 -24 51 -35t82 -11q30 0 58 3.5t53.5 8t46.5 10t36 10.5l-16 -51q-30 -11 -81 -22.5t-111 -11.5q-62 0 -102.5 15.5t-63.5 45.5q-35 44 -35 128zM379 525q-46 0 -81 -11t-61 -32q-29 -25 -51 -65t-38 -94q13 -1 36 -2t47.5 -1.5t46.5 -1t33 -0.5q45 0 81.5 4.5t62 17.5
t39.5 35t14 55q0 45 -30.5 70t-98.5 25zM320 758l128 -130h-53l-144 130h69z" />
    <glyph glyph-name="eacute" unicode="&#xe9;" horiz-adv-x="609" 
d="M69 178q0 51 9.5 102t27.5 97t42.5 83t54.5 60q35 26 79.5 39.5t101.5 13.5q50 0 85 -10.5t56.5 -29t31.5 -44t10 -55.5q0 -48 -18.5 -79.5t-53.5 -49.5t-85 -25.5t-113 -7.5q-20 0 -42 0.5t-43.5 1.5t-40.5 2t-33 2q-11 -58 -11 -96q0 -29 5.5 -53.5t18.5 -40.5
q17 -24 51 -35t82 -11q30 0 58 3.5t53.5 8t46.5 10t36 10.5l-16 -51q-30 -11 -81 -22.5t-111 -11.5q-62 0 -102.5 15.5t-63.5 45.5q-35 44 -35 128zM379 525q-46 0 -81 -11t-61 -32q-29 -25 -51 -65t-38 -94q13 -1 36 -2t47.5 -1.5t46.5 -1t33 -0.5q45 0 81.5 4.5t62 17.5
t39.5 35t14 55q0 45 -30.5 70t-98.5 25zM475 759h81l-196 -134h-61z" />
    <glyph glyph-name="ecircumflex" unicode="&#xea;" horiz-adv-x="609" 
d="M69 178q0 51 9.5 102t27.5 97t42.5 83t54.5 60q35 26 79.5 39.5t101.5 13.5q50 0 85 -10.5t56.5 -29t31.5 -44t10 -55.5q0 -48 -18.5 -79.5t-53.5 -49.5t-85 -25.5t-113 -7.5q-20 0 -42 0.5t-43.5 1.5t-40.5 2t-33 2q-11 -58 -11 -96q0 -29 5.5 -53.5t18.5 -40.5
q17 -24 51 -35t82 -11q30 0 58 3.5t53.5 8t46.5 10t36 10.5l-16 -51q-30 -11 -81 -22.5t-111 -11.5q-62 0 -102.5 15.5t-63.5 45.5q-35 44 -35 128zM379 525q-46 0 -81 -11t-61 -32q-29 -25 -51 -65t-38 -94q13 -1 36 -2t47.5 -1.5t46.5 -1t33 -0.5q45 0 81.5 4.5t62 17.5
t39.5 35t14 55q0 45 -30.5 70t-98.5 25zM531 635h-50l-77 88l-118 -88h-57l155 123h46z" />
    <glyph glyph-name="edieresis" unicode="&#xeb;" horiz-adv-x="609" 
d="M69 178q0 51 9.5 102t27.5 97t42.5 83t54.5 60q35 26 79.5 39.5t101.5 13.5q50 0 85 -10.5t56.5 -29t31.5 -44t10 -55.5q0 -48 -18.5 -79.5t-53.5 -49.5t-85 -25.5t-113 -7.5q-20 0 -42 0.5t-43.5 1.5t-40.5 2t-33 2q-11 -58 -11 -96q0 -29 5.5 -53.5t18.5 -40.5
q17 -24 51 -35t82 -11q30 0 58 3.5t53.5 8t46.5 10t36 10.5l-16 -51q-30 -11 -81 -22.5t-111 -11.5q-62 0 -102.5 15.5t-63.5 45.5q-35 44 -35 128zM379 525q-46 0 -81 -11t-61 -32q-29 -25 -51 -65t-38 -94q13 -1 36 -2t47.5 -1.5t46.5 -1t33 -0.5q45 0 81.5 4.5t62 17.5
t39.5 35t14 55q0 45 -30.5 70t-98.5 25zM297 649q-19 0 -25 7q-4 5 -4 15q0 12 4 22t12 15q4 2 10.5 4t15.5 2q18 0 25 -7q4 -5 4 -15q0 -25 -15 -37q-8 -6 -27 -6zM471 649q-19 0 -25 7q-5 7 -5 15q0 12 4.5 22t12.5 15q4 2 10.5 4t15.5 2q20 0 24 -7q5 -5 5 -15
q0 -11 -4 -21.5t-11 -15.5q-8 -6 -27 -6z" />
    <glyph glyph-name="igrave" unicode="&#xec;" horiz-adv-x="269" 
d="M51 0l119 561h58l-119 -561h-58zM129 758l128 -130h-53l-144 130h69z" />
    <glyph glyph-name="iacute" unicode="&#xed;" horiz-adv-x="269" 
d="M51 0l119 561h58l-119 -561h-58zM331 759h81l-196 -134h-61z" />
    <glyph glyph-name="icircumflex" unicode="&#xee;" horiz-adv-x="269" 
d="M51 0l119 561h58l-119 -561h-58zM360 635h-50l-77 88l-118 -88h-57l155 123h46z" />
    <glyph glyph-name="idieresis" unicode="&#xef;" horiz-adv-x="269" 
d="M51 0l119 561h58l-119 -561h-58zM129 649q-19 0 -25 7q-4 5 -4 15q0 12 4 22t12 15q4 2 10.5 4t15.5 2q18 0 25 -7q4 -5 4 -15q0 -25 -15 -37q-8 -6 -27 -6zM303 649q-19 0 -25 7q-5 7 -5 15q0 12 4.5 22t12.5 15q4 2 10.5 4t15.5 2q20 0 24 -7q5 -5 5 -15
q0 -11 -4 -21.5t-11 -15.5q-8 -6 -27 -6z" />
    <glyph glyph-name="eth" unicode="&#xf0;" horiz-adv-x="669" 
d="M456 709q-37 26 -91 40.5t-126 14.5l28 46q81 -4 140 -20.5t101 -51.5l139 72l14 -35l-122 -64q32 -37 52 -97t20 -141q0 -42 -4 -87t-15 -97q-20 -91 -54.5 -152t-72.5 -92q-35 -28 -80.5 -42.5t-118.5 -14.5t-113.5 19t-62.5 47q-14 20 -22.5 49t-8.5 69q0 38 9 88
q16 75 48 130t76 87q34 26 84 40.5t113 14.5q54 0 94 -10t71 -27q-3 58 -18.5 106.5t-46.5 82.5l-168 -88l-15 34zM532 283q17 85 20 161q-25 17 -70 28.5t-96 11.5q-53 0 -93 -12.5t-63 -29.5q-32 -23 -60 -68.5t-43 -114.5q-9 -41 -9 -80q0 -29 5.5 -53.5t16.5 -38.5
q17 -21 48.5 -35.5t91.5 -14.5q47 0 83 11.5t62 31.5q32 25 61 72.5t46 130.5z" />
    <glyph glyph-name="ntilde" unicode="&#xf1;" horiz-adv-x="662" 
d="M446 0l74 344q5 25 8 45t3 37q0 37 -18 61q-13 17 -37.5 23.5t-58.5 6.5q-60 0 -110 -15.5t-99 -39.5l-99 -462h-58l119 561h40v-76h5l38 39q26 12 75 28t112 16q45 0 77 -10.5t51 -34.5q23 -30 23 -82q0 -20 -4 -45.5t-9 -54.5l-73 -341h-59zM247 644q11 44 37 68t63 24
q23 0 40 -10t31.5 -21.5t28 -21.5t30.5 -10q20 0 33.5 13t24.5 43h39q-13 -48 -38.5 -70.5t-61.5 -22.5q-24 0 -41 10t-31.5 21.5t-28.5 21.5t-30 10q-40 0 -58 -55h-38z" />
    <glyph glyph-name="ograve" unicode="&#xf2;" horiz-adv-x="675" 
d="M606 390q0 -45 -8.5 -94t-24.5 -95t-40.5 -85.5t-55.5 -66.5q-34 -29 -80.5 -45t-117.5 -16q-73 0 -114.5 19.5t-63.5 50.5q-14 19 -23 49t-9 74q0 46 8.5 94.5t25.5 93.5t42 83.5t58 64.5q35 26 81 42t112 16q65 0 107.5 -15.5t63.5 -41.5q18 -22 28.5 -52.5t10.5 -75.5
zM434 81q27 21 48 55.5t36 76t23 85.5t8 85q0 35 -8 59.5t-21 38.5q-16 19 -46 31t-83 12q-51 0 -88 -13t-60 -31q-25 -18 -46 -50t-36.5 -72t-24.5 -84.5t-9 -87.5q0 -31 6 -56t17 -40q16 -22 47 -37.5t90 -15.5q47 0 84 11.5t63 32.5zM338 758l128 -130h-53l-144 130h69z
" />
    <glyph glyph-name="oacute" unicode="&#xf3;" horiz-adv-x="675" 
d="M606 390q0 -45 -8.5 -94t-24.5 -95t-40.5 -85.5t-55.5 -66.5q-34 -29 -80.5 -45t-117.5 -16q-73 0 -114.5 19.5t-63.5 50.5q-14 19 -23 49t-9 74q0 46 8.5 94.5t25.5 93.5t42 83.5t58 64.5q35 26 81 42t112 16q65 0 107.5 -15.5t63.5 -41.5q18 -22 28.5 -52.5t10.5 -75.5
zM434 81q27 21 48 55.5t36 76t23 85.5t8 85q0 35 -8 59.5t-21 38.5q-16 19 -46 31t-83 12q-51 0 -88 -13t-60 -31q-25 -18 -46 -50t-36.5 -72t-24.5 -84.5t-9 -87.5q0 -31 6 -56t17 -40q16 -22 47 -37.5t90 -15.5q47 0 84 11.5t63 32.5zM515 759h81l-196 -134h-61z" />
    <glyph glyph-name="ocircumflex" unicode="&#xf4;" horiz-adv-x="675" 
d="M606 390q0 -45 -8.5 -94t-24.5 -95t-40.5 -85.5t-55.5 -66.5q-34 -29 -80.5 -45t-117.5 -16q-73 0 -114.5 19.5t-63.5 50.5q-14 19 -23 49t-9 74q0 46 8.5 94.5t25.5 93.5t42 83.5t58 64.5q35 26 81 42t112 16q65 0 107.5 -15.5t63.5 -41.5q18 -22 28.5 -52.5t10.5 -75.5
zM434 81q27 21 48 55.5t36 76t23 85.5t8 85q0 35 -8 59.5t-21 38.5q-16 19 -46 31t-83 12q-51 0 -88 -13t-60 -31q-25 -18 -46 -50t-36.5 -72t-24.5 -84.5t-9 -87.5q0 -31 6 -56t17 -40q16 -22 47 -37.5t90 -15.5q47 0 84 11.5t63 32.5zM556 635h-50l-77 88l-118 -88h-57
l155 123h46z" />
    <glyph glyph-name="otilde" unicode="&#xf5;" horiz-adv-x="675" 
d="M606 390q0 -45 -8.5 -94t-24.5 -95t-40.5 -85.5t-55.5 -66.5q-34 -29 -80.5 -45t-117.5 -16q-73 0 -114.5 19.5t-63.5 50.5q-14 19 -23 49t-9 74q0 46 8.5 94.5t25.5 93.5t42 83.5t58 64.5q35 26 81 42t112 16q65 0 107.5 -15.5t63.5 -41.5q18 -22 28.5 -52.5t10.5 -75.5
zM434 81q27 21 48 55.5t36 76t23 85.5t8 85q0 35 -8 59.5t-21 38.5q-16 19 -46 31t-83 12q-51 0 -88 -13t-60 -31q-25 -18 -46 -50t-36.5 -72t-24.5 -84.5t-9 -87.5q0 -31 6 -56t17 -40q16 -22 47 -37.5t90 -15.5q47 0 84 11.5t63 32.5zM248 644q11 44 37 68t63 24
q23 0 40 -10t31.5 -21.5t28 -21.5t30.5 -10q20 0 33.5 13t24.5 43h39q-13 -48 -38.5 -70.5t-61.5 -22.5q-24 0 -41 10t-31.5 21.5t-28.5 21.5t-30 10q-40 0 -58 -55h-38z" />
    <glyph glyph-name="odieresis" unicode="&#xf6;" horiz-adv-x="675" 
d="M606 390q0 -45 -8.5 -94t-24.5 -95t-40.5 -85.5t-55.5 -66.5q-34 -29 -80.5 -45t-117.5 -16q-73 0 -114.5 19.5t-63.5 50.5q-14 19 -23 49t-9 74q0 46 8.5 94.5t25.5 93.5t42 83.5t58 64.5q35 26 81 42t112 16q65 0 107.5 -15.5t63.5 -41.5q18 -22 28.5 -52.5t10.5 -75.5
zM434 81q27 21 48 55.5t36 76t23 85.5t8 85q0 35 -8 59.5t-21 38.5q-16 19 -46 31t-83 12q-51 0 -88 -13t-60 -31q-25 -18 -46 -50t-36.5 -72t-24.5 -84.5t-9 -87.5q0 -31 6 -56t17 -40q16 -22 47 -37.5t90 -15.5q47 0 84 11.5t63 32.5zM314 649q-19 0 -25 7q-4 5 -4 15
q0 12 4 22t12 15q4 2 10.5 4t15.5 2q18 0 25 -7q4 -5 4 -15q0 -25 -15 -37q-8 -6 -27 -6zM488 649q-19 0 -25 7q-5 7 -5 15q0 12 4.5 22t12.5 15q4 2 10.5 4t15.5 2q20 0 24 -7q5 -5 5 -15q0 -11 -4 -21.5t-11 -15.5q-8 -6 -27 -6z" />
    <glyph glyph-name="divide" unicode="&#xf7;" horiz-adv-x="691" 
d="M382 554q0 -10 -2 -18t-7 -13q-5 -4 -12.5 -5t-15.5 -1q-23 0 -30 7q-8 8 -8 29q0 24 12 30q4 2 10.5 4t15.5 2q22 0 28 -6q5 -4 7 -12t2 -17zM382 125q0 -11 -2 -18.5t-7 -11.5q-5 -5 -12.5 -6t-15.5 -1q-12 0 -18.5 1t-11.5 6q-8 9 -8 30q0 23 12 29q4 2 10.5 4t15.5 2
q20 0 28 -6q9 -8 9 -29zM613 314h-535v49h535v-49z" />
    <glyph glyph-name="oslash" unicode="&#xf8;" horiz-adv-x="675" 
d="M92 72q-11 20 -17 47t-6 63q0 46 8.5 94.5t25.5 93t42 83t58 64.5q35 26 81 42t112 16q57 0 96.5 -13t63.5 -36l41 39h55l-70 -69q11 -18 17.5 -44.5t6.5 -61.5q0 -45 -8.5 -94t-24.5 -95t-40.5 -85.5t-55.5 -66.5q-34 -29 -80.5 -45t-117.5 -16q-63 0 -101.5 15
t-61.5 38l-45 -44h-55zM435 81q26 21 47.5 55.5t36.5 75.5t23 85t8 83q0 23 -4 41t-9 30l-380 -369q16 -18 45.5 -31.5t84.5 -13.5q47 0 84.5 11.5t63.5 32.5zM126 188q0 -40 11 -70l379 367q-20 18 -48.5 28.5t-76.5 10.5q-51 0 -88 -13t-61 -31t-45.5 -50t-37 -71.5
t-24.5 -84t-9 -86.5z" />
    <glyph glyph-name="ugrave" unicode="&#xf9;" horiz-adv-x="662" 
d="M216 561l-74 -344q-5 -25 -8 -45t-3 -37q0 -40 18 -61q14 -15 38 -22t57 -7q61 0 111 15t99 39l99 462h58l-119 -561h-40v76h-5l-38 -39q-25 -12 -73 -28t-114 -16q-45 0 -77 10.5t-51 34.5q-23 30 -23 82q0 20 4 45.5t10 54.5l72 341h59zM328 758l128 -130h-53l-144 130
h69z" />
    <glyph glyph-name="uacute" unicode="&#xfa;" horiz-adv-x="662" 
d="M216 561l-74 -344q-5 -25 -8 -45t-3 -37q0 -40 18 -61q14 -15 38 -22t57 -7q61 0 111 15t99 39l99 462h58l-119 -561h-40v76h-5l-38 -39q-25 -12 -73 -28t-114 -16q-45 0 -77 10.5t-51 34.5q-23 30 -23 82q0 20 4 45.5t10 54.5l72 341h59zM522 759h81l-196 -134h-61z" />
    <glyph glyph-name="ucircumflex" unicode="&#xfb;" horiz-adv-x="662" 
d="M216 561l-74 -344q-5 -25 -8 -45t-3 -37q0 -40 18 -61q14 -15 38 -22t57 -7q61 0 111 15t99 39l99 462h58l-119 -561h-40v76h-5l-38 -39q-25 -12 -73 -28t-114 -16q-45 0 -77 10.5t-51 34.5q-23 30 -23 82q0 20 4 45.5t10 54.5l72 341h59zM546 635h-50l-77 88l-118 -88
h-57l155 123h46z" />
    <glyph glyph-name="udieresis" unicode="&#xfc;" horiz-adv-x="662" 
d="M216 561l-74 -344q-5 -25 -8 -45t-3 -37q0 -40 18 -61q14 -15 38 -22t57 -7q61 0 111 15t99 39l99 462h58l-119 -561h-40v76h-5l-38 -39q-25 -12 -73 -28t-114 -16q-45 0 -77 10.5t-51 34.5q-23 30 -23 82q0 20 4 45.5t10 54.5l72 341h59zM314 649q-19 0 -25 7
q-4 5 -4 15q0 12 4 22t12 15q4 2 10.5 4t15.5 2q18 0 25 -7q4 -5 4 -15q0 -25 -15 -37q-8 -6 -27 -6zM488 649q-19 0 -25 7q-5 7 -5 15q0 12 4.5 22t12.5 15q4 2 10.5 4t15.5 2q20 0 24 -7q5 -5 5 -15q0 -11 -4 -21.5t-11 -15.5q-8 -6 -27 -6z" />
    <glyph glyph-name="yacute" unicode="&#xfd;" horiz-adv-x="594" 
d="M108 -275h-63l168 275h-39l-95 561h59l83 -510h23l306 510h67zM460 759h81l-196 -134h-61z" />
    <glyph glyph-name="thorn" unicode="&#xfe;" horiz-adv-x="672" 
d="M51 -274h-58l231 1084h59l-70 -317h4q3 3 9 9.5t13 13.5l12.5 12.5t7.5 6.5q16 9 60.5 23t107.5 14q51 0 83.5 -10.5t52.5 -31.5q19 -20 29 -51t10 -84q0 -42 -9 -92.5t-26.5 -99t-43.5 -91t-61 -69.5q-66 -51 -183 -51q-49 0 -90.5 6.5t-75.5 14.5zM424 81
q26 19 48 54.5t37.5 78t24.5 88t9 85.5q0 38 -8 62.5t-22 39.5q-14 17 -40.5 24.5t-69.5 7.5q-58 0 -107 -15t-87 -35l-87 -415q27 -5 64.5 -9.5t83.5 -4.5q52 0 88.5 8.5t65.5 30.5z" />
    <glyph glyph-name="ydieresis" unicode="&#xff;" horiz-adv-x="594" 
d="M108 -275h-63l168 275h-39l-95 561h59l83 -510h23l306 510h67zM258 649q-19 0 -25 7q-4 5 -4 15q0 12 4 22t12 15q4 2 10.5 4t15.5 2q18 0 25 -7q4 -5 4 -15q0 -25 -15 -37q-8 -6 -27 -6zM432 649q-19 0 -25 7q-5 7 -5 15q0 12 4.5 22t12.5 15q4 2 10.5 4t15.5 2
q20 0 24 -7q5 -5 5 -15q0 -11 -4 -21.5t-11 -15.5q-8 -6 -27 -6z" />
    <glyph glyph-name="Amacron" unicode="&#x100;" horiz-adv-x="763" 
d="M597 0l-40 256h-366l-155 -256h-66l458 750h110l120 -750h-61zM488 695h-31l-236 -388h328zM376 882h253l-10 -42h-253z" />
    <glyph glyph-name="amacron" unicode="&#x101;" horiz-adv-x="612" 
d="M417 0l-3 70h-4l-37 -42q-16 -9 -61 -23.5t-111 -14.5q-56 0 -89.5 11.5t-49.5 34.5q-8 13 -13 31t-5 41q0 52 19.5 96.5t53.5 64.5q38 23 126 36.5t224 25.5q8 37 11.5 62t3.5 45q0 34 -14 51q-11 15 -38.5 23t-78.5 8q-26 0 -54 -2.5t-54 -6t-48 -7t-37 -6.5l13 49
q32 8 84.5 16t112.5 8q61 0 96 -10t52 -29q14 -15 19 -34t5 -45q0 -25 -4.5 -56.5t-14.5 -79.5l-67 -317h-37zM457 284q-49 -3 -99.5 -8t-93.5 -11.5t-74 -14t-42 -16.5q-23 -20 -35 -53t-12 -65q0 -14 3 -26t9 -20q9 -13 35 -22t68 -9q34 0 65 5.5t56.5 13t45.5 16.5t32 15
zM264 693h253l-10 -42h-253z" />
    <glyph glyph-name="Abreve" unicode="&#x102;" horiz-adv-x="763" 
d="M597 0l-40 256h-366l-155 -256h-66l458 750h110l120 -750h-61zM488 695h-31l-236 -388h328zM406 957q-2 -7 -3 -14.5t-1 -15.5q0 -29 19.5 -46t70.5 -17q58 0 84 23.5t31 69.5h40q-3 -25 -11.5 -48t-26.5 -41t-47.5 -28.5t-73.5 -10.5q-60 0 -92.5 22.5t-32.5 72.5
q0 7 1 16t3 17h39z" />
    <glyph glyph-name="abreve" unicode="&#x103;" horiz-adv-x="612" 
d="M417 0l-3 70h-4l-37 -42q-16 -9 -61 -23.5t-111 -14.5q-56 0 -89.5 11.5t-49.5 34.5q-8 13 -13 31t-5 41q0 52 19.5 96.5t53.5 64.5q38 23 126 36.5t224 25.5q8 37 11.5 62t3.5 45q0 34 -14 51q-11 15 -38.5 23t-78.5 8q-26 0 -54 -2.5t-54 -6t-48 -7t-37 -6.5l13 49
q32 8 84.5 16t112.5 8q61 0 96 -10t52 -29q14 -15 19 -34t5 -45q0 -25 -4.5 -56.5t-14.5 -79.5l-67 -317h-37zM457 284q-49 -3 -99.5 -8t-93.5 -11.5t-74 -14t-42 -16.5q-23 -20 -35 -53t-12 -65q0 -14 3 -26t9 -20q9 -13 35 -22t68 -9q34 0 65 5.5t56.5 13t45.5 16.5t32 15
zM298 768q-2 -7 -3 -14.5t-1 -15.5q0 -29 19.5 -46t70.5 -17q58 0 84 23.5t31 69.5h40q-3 -25 -11.5 -48t-26.5 -41t-47.5 -28.5t-73.5 -10.5q-60 0 -92.5 22.5t-32.5 72.5q0 7 1 16t3 17h39z" />
    <glyph glyph-name="Aogonek" unicode="&#x104;" horiz-adv-x="763" 
d="M488 695h-31l-236 -388h328zM557 256h-366l-155 -256h-66l458 750h110l120 -750h-17l-59 -37q-31 -20 -48 -33t-25 -21q-5 -7 -10 -20t-5 -33q0 -9 2 -17.5t7 -13.5q12 -12 53 -12q29 0 50 3l35 5l-2 -34q-12 -3 -35.5 -6.5t-53.5 -3.5q-38 0 -55.5 6t-25.5 15
q-7 7 -11 18.5t-4 30.5q0 31 7.5 50t19.5 31q14 14 46 33t70 39z" />
    <glyph glyph-name="aogonek" unicode="&#x105;" horiz-adv-x="612" 
d="M457 284q-49 -3 -99.5 -8t-93.5 -11.5t-74 -14t-42 -16.5q-23 -20 -35 -53t-12 -65q0 -14 3 -26t9 -20q9 -13 35 -22t68 -9q34 0 65 5.5t56.5 13t45.5 16.5t32 15zM450 0l-51 -34q-61 -42 -72 -56q-6 -8 -11.5 -22t-5.5 -33q0 -20 9 -30q6 -6 18 -9t33 -3q29 0 51 3t36 5
l-7 -34q-11 -3 -33.5 -6.5t-52.5 -3.5q-38 0 -54.5 6t-24.5 15q-7 7 -11 18t-4 30q0 31 9 50t21 32q6 7 19 16t29.5 19.5t34 21.5t34.5 21l-3 64h-4l-37 -42q-16 -9 -61 -23.5t-111 -14.5q-56 0 -89.5 11.5t-49.5 34.5q-8 13 -13 31t-5 41q0 52 19.5 96.5t53.5 64.5
q38 23 126 36.5t224 25.5q8 37 11.5 62t3.5 45q0 34 -14 51q-11 15 -38.5 23t-78.5 8q-26 0 -54 -2.5t-54 -6t-48 -7t-37 -6.5l13 49q32 8 84.5 16t112.5 8q61 0 96 -10t52 -29q14 -15 19 -34t5 -45q0 -25 -4.5 -56.5t-14.5 -79.5l-67 -317h-4z" />
    <glyph glyph-name="Cacute" unicode="&#x106;" horiz-adv-x="719" 
d="M723 689q-35 5 -83 10.5t-117 5.5q-81 0 -132.5 -15t-87.5 -39q-35 -24 -65 -69t-52.5 -101.5t-35 -119.5t-12.5 -123q0 -90 36 -133q23 -28 70 -43.5t125 -15.5q66 0 124 8.5t100 15.5l-12 -52q-46 -11 -103.5 -19.5t-123.5 -8.5q-48 0 -84.5 5t-64 14.5t-47.5 24
t-35 32.5q-21 26 -33.5 66.5t-12.5 97.5q0 58 12 124.5t35 130t58 118t82 89.5q44 32 107 50t151 18q65 0 121.5 -7t88.5 -12zM614 948h81l-196 -134h-61z" />
    <glyph glyph-name="cacute" unicode="&#x107;" horiz-adv-x="577" 
d="M398 525q-50 0 -87 -11t-66 -33q-31 -23 -53 -59.5t-36 -78t-20.5 -83t-6.5 -75.5q0 -72 29 -104q18 -21 49 -30.5t73 -9.5q58 0 105 9.5t78 16.5l-12 -50q-31 -10 -76 -19.5t-105 -9.5q-112 0 -160 55q-40 44 -40 133q0 47 9 97t26.5 96.5t43.5 86t59 65.5
q36 27 82.5 41t106.5 14q52 0 96 -5.5t70 -10.5l-8 -50q-27 4 -65.5 9.5t-91.5 5.5zM478 759h81l-196 -134h-61z" />
    <glyph glyph-name="Ccircumflex" unicode="&#x108;" horiz-adv-x="719" 
d="M723 689q-35 5 -83 10.5t-117 5.5q-81 0 -132.5 -15t-87.5 -39q-35 -24 -65 -69t-52.5 -101.5t-35 -119.5t-12.5 -123q0 -90 36 -133q23 -28 70 -43.5t125 -15.5q66 0 124 8.5t100 15.5l-12 -52q-46 -11 -103.5 -19.5t-123.5 -8.5q-48 0 -84.5 5t-64 14.5t-47.5 24
t-35 32.5q-21 26 -33.5 66.5t-12.5 97.5q0 58 12 124.5t35 130t58 118t82 89.5q44 32 107 50t151 18q65 0 121.5 -7t88.5 -12zM655 824h-50l-77 88l-118 -88h-57l155 123h46z" />
    <glyph glyph-name="ccircumflex" unicode="&#x109;" horiz-adv-x="577" 
d="M398 525q-50 0 -87 -11t-66 -33q-31 -23 -53 -59.5t-36 -78t-20.5 -83t-6.5 -75.5q0 -72 29 -104q18 -21 49 -30.5t73 -9.5q58 0 105 9.5t78 16.5l-12 -50q-31 -10 -76 -19.5t-105 -9.5q-112 0 -160 55q-40 44 -40 133q0 47 9 97t26.5 96.5t43.5 86t59 65.5
q36 27 82.5 41t106.5 14q52 0 96 -5.5t70 -10.5l-8 -50q-27 4 -65.5 9.5t-91.5 5.5zM547 635h-50l-77 88l-118 -88h-57l155 123h46z" />
    <glyph glyph-name="Cdotaccent" unicode="&#x10a;" horiz-adv-x="719" 
d="M723 689q-35 5 -83 10.5t-117 5.5q-81 0 -132.5 -15t-87.5 -39q-35 -24 -65 -69t-52.5 -101.5t-35 -119.5t-12.5 -123q0 -90 36 -133q23 -28 70 -43.5t125 -15.5q66 0 124 8.5t100 15.5l-12 -52q-46 -11 -103.5 -19.5t-123.5 -8.5q-48 0 -84.5 5t-64 14.5t-47.5 24
t-35 32.5q-21 26 -33.5 66.5t-12.5 97.5q0 58 12 124.5t35 130t58 118t82 89.5q44 32 107 50t151 18q65 0 121.5 -7t88.5 -12zM516 828q-20 0 -26 8q-5 7 -5 17q0 29 17 41q10 7 29 7q20 0 26 -8q5 -6 5 -18q0 -28 -15 -40q-12 -7 -31 -7z" />
    <glyph glyph-name="cdotaccent" unicode="&#x10b;" horiz-adv-x="577" 
d="M398 525q-50 0 -87 -11t-66 -33q-31 -23 -53 -59.5t-36 -78t-20.5 -83t-6.5 -75.5q0 -72 29 -104q18 -21 49 -30.5t73 -9.5q58 0 105 9.5t78 16.5l-12 -50q-31 -10 -76 -19.5t-105 -9.5q-112 0 -160 55q-40 44 -40 133q0 47 9 97t26.5 96.5t43.5 86t59 65.5
q36 27 82.5 41t106.5 14q52 0 96 -5.5t70 -10.5l-8 -50q-27 4 -65.5 9.5t-91.5 5.5zM412 639q-20 0 -26 8q-5 7 -5 17q0 29 17 41q10 7 29 7q20 0 26 -8q5 -6 5 -18q0 -28 -15 -40q-12 -7 -31 -7z" />
    <glyph glyph-name="Ccaron" unicode="&#x10c;" horiz-adv-x="719" 
d="M723 689q-35 5 -83 10.5t-117 5.5q-81 0 -132.5 -15t-87.5 -39q-35 -24 -65 -69t-52.5 -101.5t-35 -119.5t-12.5 -123q0 -90 36 -133q23 -28 70 -43.5t125 -15.5q66 0 124 8.5t100 15.5l-12 -52q-46 -11 -103.5 -19.5t-123.5 -8.5q-48 0 -84.5 5t-64 14.5t-47.5 24
t-35 32.5q-21 26 -33.5 66.5t-12.5 97.5q0 58 12 124.5t35 130t58 118t82 89.5q44 32 107 50t151 18q65 0 121.5 -7t88.5 -12zM385 947h50l77 -88l118 88h57l-155 -123h-46z" />
    <glyph glyph-name="ccaron" unicode="&#x10d;" horiz-adv-x="577" 
d="M398 525q-50 0 -87 -11t-66 -33q-31 -23 -53 -59.5t-36 -78t-20.5 -83t-6.5 -75.5q0 -72 29 -104q18 -21 49 -30.5t73 -9.5q58 0 105 9.5t78 16.5l-12 -50q-31 -10 -76 -19.5t-105 -9.5q-112 0 -160 55q-40 44 -40 133q0 47 9 97t26.5 96.5t43.5 86t59 65.5
q36 27 82.5 41t106.5 14q52 0 96 -5.5t70 -10.5l-8 -50q-27 4 -65.5 9.5t-91.5 5.5zM273 758h50l77 -88l118 88h57l-155 -123h-46z" />
    <glyph glyph-name="Dcaron" unicode="&#x10e;" horiz-adv-x="803" 
d="M453 750q56 0 97 -5t71 -14t50 -22t35 -29q19 -23 30 -59t11 -93q0 -53 -11 -118.5t-33.5 -130.5t-57 -122t-81.5 -92q-44 -32 -111 -48.5t-180 -16.5h-225l159 750h246zM255 697l-137 -643h156q99 0 158.5 13.5t94.5 39.5q40 29 69.5 79.5t49.5 109t30 117.5t10 106
q0 40 -8 71.5t-25 51.5q-23 27 -73.5 41t-142.5 14h-182zM364 947h50l77 -88l118 88h57l-155 -123h-46z" />
    <glyph glyph-name="dcaron" unicode="&#x10f;" horiz-adv-x="666" 
d="M615 817h58l-174 -817h-42l1 68h-4l-6.5 -7t-14 -14.5l-14 -14l-6.5 -6.5q-8 -4 -23 -10t-37 -12t-51 -10t-63 -4q-46 0 -77.5 10.5t-53.5 33.5q-19 19 -29.5 49.5t-10.5 80.5q0 47 10 98.5t28.5 100t44.5 89t59 66.5t78 39.5t103 13.5q51 0 91.5 -6.5t75.5 -14.5z
M247 478q-29 -23 -51.5 -60t-37.5 -80t-23 -87t-8 -79q0 -36 8.5 -60.5t22.5 -38.5q15 -15 42 -23t61 -8q33 0 61 4t52 10.5t45 15t42 17.5l89 417q-28 5 -65 10.5t-85 5.5q-53 0 -88.5 -10.5t-64.5 -33.5zM803 816h52l-106 -231h-43z" />
    <glyph glyph-name="Dcroat" unicode="&#x110;" horiz-adv-x="803" 
d="M453 750q56 0 97 -5t71 -14t50 -22t35 -29q19 -23 30 -59t11 -93q0 -53 -11 -118.5t-33.5 -130.5t-57 -122t-81.5 -92q-44 -32 -111 -48.5t-180 -16.5h-225l75 358h-110l14 44h106l74 348h246zM191 402h225l-13 -44h-220l-65 -304h156q99 0 158.5 13.5t94.5 39.5
q40 29 69.5 79.5t49.5 109t30 117.5t10 106q0 40 -8 71.5t-25 51.5q-23 27 -73.5 41t-142.5 14h-182z" />
    <glyph glyph-name="dcroat" unicode="&#x111;" horiz-adv-x="666" 
d="M395 719h199l22 103h58l-22 -103h90l-10 -47h-90l-143 -672h-42l1 68h-4l-6.5 -7t-14 -14.5l-14 -14l-6.5 -6.5q-8 -4 -23 -10t-37 -12t-51 -10t-63 -4q-46 0 -77.5 10.5t-53.5 33.5q-19 19 -29.5 49.5t-10.5 80.5q0 47 10 98.5t28.5 100t44.5 89t59 66.5t78 39.5
t103 13.5q51 0 91.5 -6.5t75.5 -14.5l26 122h-199zM247 478q-29 -23 -51.5 -60t-37.5 -80t-23 -87t-8 -79q0 -36 8.5 -60.5t22.5 -38.5q15 -15 42 -23t61 -8q33 0 61 4t52 10.5t45 15t42 17.5l89 417q-28 5 -65 10.5t-85 5.5q-53 0 -88.5 -10.5t-64.5 -33.5z" />
    <glyph glyph-name="Emacron" unicode="&#x112;" horiz-adv-x="637" 
d="M510 0h-461l159 750h457l-24 -53h-386l-61 -288h339l-23 -52h-327l-65 -305h419zM328 882h253l-10 -42h-253z" />
    <glyph glyph-name="emacron" unicode="&#x113;" horiz-adv-x="609" 
d="M69 178q0 51 9.5 102t27.5 97t42.5 83t54.5 60q35 26 79.5 39.5t101.5 13.5q50 0 85 -10.5t56.5 -29t31.5 -44t10 -55.5q0 -48 -18.5 -79.5t-53.5 -49.5t-85 -25.5t-113 -7.5q-20 0 -42 0.5t-43.5 1.5t-40.5 2t-33 2q-11 -58 -11 -96q0 -29 5.5 -53.5t18.5 -40.5
q17 -24 51 -35t82 -11q30 0 58 3.5t53.5 8t46.5 10t36 10.5l-16 -51q-30 -11 -81 -22.5t-111 -11.5q-62 0 -102.5 15.5t-63.5 45.5q-35 44 -35 128zM379 525q-46 0 -81 -11t-61 -32q-29 -25 -51 -65t-38 -94q13 -1 36 -2t47.5 -1.5t46.5 -1t33 -0.5q45 0 81.5 4.5t62 17.5
t39.5 35t14 55q0 45 -30.5 70t-98.5 25zM270 693h253l-10 -42h-253z" />
    <glyph glyph-name="Ebreve" unicode="&#x114;" horiz-adv-x="637" 
d="M510 0h-461l159 750h457l-24 -53h-386l-61 -288h339l-23 -52h-327l-65 -305h419zM356 957q-2 -7 -3 -14.5t-1 -15.5q0 -29 19.5 -46t70.5 -17q58 0 84 23.5t31 69.5h40q-3 -25 -11.5 -48t-26.5 -41t-47.5 -28.5t-73.5 -10.5q-60 0 -92.5 22.5t-32.5 72.5q0 7 1 16t3 17
h39z" />
    <glyph glyph-name="ebreve" unicode="&#x115;" horiz-adv-x="609" 
d="M69 178q0 51 9.5 102t27.5 97t42.5 83t54.5 60q35 26 79.5 39.5t101.5 13.5q50 0 85 -10.5t56.5 -29t31.5 -44t10 -55.5q0 -48 -18.5 -79.5t-53.5 -49.5t-85 -25.5t-113 -7.5q-20 0 -42 0.5t-43.5 1.5t-40.5 2t-33 2q-11 -58 -11 -96q0 -29 5.5 -53.5t18.5 -40.5
q17 -24 51 -35t82 -11q30 0 58 3.5t53.5 8t46.5 10t36 10.5l-16 -51q-30 -11 -81 -22.5t-111 -11.5q-62 0 -102.5 15.5t-63.5 45.5q-35 44 -35 128zM379 525q-46 0 -81 -11t-61 -32q-29 -25 -51 -65t-38 -94q13 -1 36 -2t47.5 -1.5t46.5 -1t33 -0.5q45 0 81.5 4.5t62 17.5
t39.5 35t14 55q0 45 -30.5 70t-98.5 25zM296 768q-2 -7 -3 -14.5t-1 -15.5q0 -29 19.5 -46t70.5 -17q58 0 84 23.5t31 69.5h40q-3 -25 -11.5 -48t-26.5 -41t-47.5 -28.5t-73.5 -10.5q-60 0 -92.5 22.5t-32.5 72.5q0 7 1 16t3 17h39z" />
    <glyph glyph-name="Edotaccent" unicode="&#x116;" horiz-adv-x="637" 
d="M510 0h-461l159 750h457l-24 -53h-386l-61 -288h339l-23 -52h-327l-65 -305h419zM450 828q-20 0 -26 8q-5 7 -5 17q0 29 17 41q10 7 29 7q20 0 26 -8q5 -6 5 -18q0 -28 -15 -40q-12 -7 -31 -7z" />
    <glyph glyph-name="edotaccent" unicode="&#x117;" horiz-adv-x="609" 
d="M69 178q0 51 9.5 102t27.5 97t42.5 83t54.5 60q35 26 79.5 39.5t101.5 13.5q50 0 85 -10.5t56.5 -29t31.5 -44t10 -55.5q0 -48 -18.5 -79.5t-53.5 -49.5t-85 -25.5t-113 -7.5q-20 0 -42 0.5t-43.5 1.5t-40.5 2t-33 2q-11 -58 -11 -96q0 -29 5.5 -53.5t18.5 -40.5
q17 -24 51 -35t82 -11q30 0 58 3.5t53.5 8t46.5 10t36 10.5l-16 -51q-30 -11 -81 -22.5t-111 -11.5q-62 0 -102.5 15.5t-63.5 45.5q-35 44 -35 128zM379 525q-46 0 -81 -11t-61 -32q-29 -25 -51 -65t-38 -94q13 -1 36 -2t47.5 -1.5t46.5 -1t33 -0.5q45 0 81.5 4.5t62 17.5
t39.5 35t14 55q0 45 -30.5 70t-98.5 25zM391 639q-20 0 -26 8q-5 7 -5 17q0 29 17 41q10 7 29 7q20 0 26 -8q5 -6 5 -18q0 -28 -15 -40q-12 -7 -31 -7z" />
    <glyph glyph-name="Eogonek" unicode="&#x118;" horiz-adv-x="637" 
d="M49 0l159 750h457l-24 -53h-386l-61 -288h339l-23 -52h-327l-65 -305h419l-27 -52h-48l-73 -42q-32 -18 -47.5 -29.5t-22.5 -19.5q-6 -8 -11 -20.5t-5 -32.5q0 -9 2 -17.5t7 -13.5q6 -6 18 -9t33 -3q29 0 51 3t36 5l-7 -34q-11 -3 -33.5 -6.5t-52.5 -3.5q-38 0 -54.5 6
t-24.5 15q-7 7 -11 18.5t-4 30.5q0 31 8 49.5t21 31.5q13 14 46 33t72 39h-361z" />
    <glyph glyph-name="eogonek" unicode="&#x119;" horiz-adv-x="609" 
d="M379 525q-46 0 -81 -11t-61 -32q-29 -25 -51 -65t-38 -94q13 -1 36 -2t47.5 -1.5t46.5 -1t33 -0.5q45 0 81.5 4.5t62 17.5t39.5 35t14 55q0 45 -30.5 70t-98.5 25zM397 -213q-12 -3 -34 -6.5t-52 -3.5q-38 0 -54.5 6t-24.5 15q-7 7 -11 18.5t-4 30.5q0 31 8 49.5t21 31.5
q11 12 40 30.5t64 36.5q-38 -6 -80 -6q-62 0 -102.5 15.5t-63.5 45.5q-35 44 -35 128q0 51 9.5 102t27.5 97t42.5 83t54.5 60q35 26 79.5 39.5t101.5 13.5q50 0 85 -10.5t56.5 -29t31.5 -44t10 -55.5q0 -48 -18.5 -79.5t-53.5 -49.5t-85 -25.5t-113 -7.5q-20 0 -42 0.5
t-43.5 1.5t-40.5 2t-33 2q-11 -58 -11 -96q0 -29 5.5 -53.5t18.5 -40.5q17 -24 51 -35t82 -11q30 0 58 3.5t53.5 8t46.5 10t36 10.5l-16 -51q-20 -8 -49 -15l-55 -35q-36 -23 -57 -39.5t-28 -24.5q-6 -8 -11 -20.5t-5 -32.5q0 -9 2 -17.5t7 -13.5q6 -6 18 -9t33 -3
q29 0 51 3t36 5z" />
    <glyph glyph-name="Ecaron" unicode="&#x11a;" horiz-adv-x="637" 
d="M510 0h-461l159 750h457l-24 -53h-386l-61 -288h339l-23 -52h-327l-65 -305h419zM317 947h50l77 -88l118 88h57l-155 -123h-46z" />
    <glyph glyph-name="ecaron" unicode="&#x11b;" horiz-adv-x="609" 
d="M69 178q0 51 9.5 102t27.5 97t42.5 83t54.5 60q35 26 79.5 39.5t101.5 13.5q50 0 85 -10.5t56.5 -29t31.5 -44t10 -55.5q0 -48 -18.5 -79.5t-53.5 -49.5t-85 -25.5t-113 -7.5q-20 0 -42 0.5t-43.5 1.5t-40.5 2t-33 2q-11 -58 -11 -96q0 -29 5.5 -53.5t18.5 -40.5
q17 -24 51 -35t82 -11q30 0 58 3.5t53.5 8t46.5 10t36 10.5l-16 -51q-30 -11 -81 -22.5t-111 -11.5q-62 0 -102.5 15.5t-63.5 45.5q-35 44 -35 128zM379 525q-46 0 -81 -11t-61 -32q-29 -25 -51 -65t-38 -94q13 -1 36 -2t47.5 -1.5t46.5 -1t33 -0.5q45 0 81.5 4.5t62 17.5
t39.5 35t14 55q0 45 -30.5 70t-98.5 25zM260 758h50l77 -88l118 88h57l-155 -123h-46z" />
    <glyph glyph-name="Gcircumflex" unicode="&#x11c;" horiz-adv-x="780" 
d="M747 687q-40 5 -92.5 11.5t-124.5 6.5q-41 0 -74 -4t-59 -11t-47 -17t-39 -22q-39 -27 -70.5 -74.5t-53 -104.5t-33 -119t-11.5 -117q0 -42 9.5 -76.5t26.5 -55.5q23 -28 68.5 -43.5t121.5 -15.5q64 0 111.5 7t83.5 14l57 269h-225l24 50h271l-76 -358q-51 -14 -117 -25
t-135 -11q-49 0 -86 5t-65 15t-48 24t-36 32q-19 23 -32.5 62t-13.5 99t12 127.5t35.5 130.5t59 117t83.5 88q22 16 47 28.5t56.5 21.5t70.5 14t89 5q69 0 125 -7t96 -14zM658 824h-50l-77 88l-118 -88h-57l155 123h46z" />
    <glyph glyph-name="gcircumflex" unicode="&#x11d;" horiz-adv-x="671" 
d="M506 30q-12 -57 -25 -98.5t-27.5 -71.5t-30 -49.5t-32.5 -33.5q-31 -23 -77 -37t-121 -14q-28 0 -57 2.5t-56 5.5t-49.5 7t-36.5 7l8 51q27 -5 79.5 -12t110.5 -7q63 0 101.5 9.5t62.5 27.5q26 21 49.5 71t43.5 147l7 31h-3l-6.5 -6t-14 -13.5l-14 -14t-7.5 -6.5
q-16 -9 -62 -22t-109 -13q-51 0 -82.5 11.5t-51.5 31.5q-20 18 -30.5 49t-10.5 76t9 96t26.5 99.5t43.5 90.5t61 70q31 24 79.5 38.5t114.5 14.5q52 0 98.5 -7.5t80.5 -15.5l31 17h11zM549 505q-29 4 -64.5 8t-84.5 4q-54 0 -91 -9t-66 -31q-29 -23 -51.5 -61t-37.5 -81
t-22.5 -87t-7.5 -80q0 -35 7.5 -58.5t21.5 -35.5q18 -16 45 -23.5t59 -7.5q54 0 107 14t98 35zM557 635h-50l-77 88l-118 -88h-57l155 123h46z" />
    <glyph glyph-name="Gbreve" unicode="&#x11e;" horiz-adv-x="780" 
d="M747 687q-40 5 -92.5 11.5t-124.5 6.5q-41 0 -74 -4t-59 -11t-47 -17t-39 -22q-39 -27 -70.5 -74.5t-53 -104.5t-33 -119t-11.5 -117q0 -42 9.5 -76.5t26.5 -55.5q23 -28 68.5 -43.5t121.5 -15.5q64 0 111.5 7t83.5 14l57 269h-225l24 50h271l-76 -358q-51 -14 -117 -25
t-135 -11q-49 0 -86 5t-65 15t-48 24t-36 32q-19 23 -32.5 62t-13.5 99t12 127.5t35.5 130.5t59 117t83.5 88q22 16 47 28.5t56.5 21.5t70.5 14t89 5q69 0 125 -7t96 -14zM435 957q-2 -7 -3 -14.5t-1 -15.5q0 -29 19.5 -46t70.5 -17q58 0 84 23.5t31 69.5h40
q-3 -25 -11.5 -48t-26.5 -41t-47.5 -28.5t-73.5 -10.5q-60 0 -92.5 22.5t-32.5 72.5q0 7 1 16t3 17h39z" />
    <glyph glyph-name="gbreve" unicode="&#x11f;" horiz-adv-x="671" 
d="M506 30q-12 -57 -25 -98.5t-27.5 -71.5t-30 -49.5t-32.5 -33.5q-31 -23 -77 -37t-121 -14q-28 0 -57 2.5t-56 5.5t-49.5 7t-36.5 7l8 51q27 -5 79.5 -12t110.5 -7q63 0 101.5 9.5t62.5 27.5q26 21 49.5 71t43.5 147l7 31h-3l-6.5 -6t-14 -13.5l-14 -14t-7.5 -6.5
q-16 -9 -62 -22t-109 -13q-51 0 -82.5 11.5t-51.5 31.5q-20 18 -30.5 49t-10.5 76t9 96t26.5 99.5t43.5 90.5t61 70q31 24 79.5 38.5t114.5 14.5q52 0 98.5 -7.5t80.5 -15.5l31 17h11zM549 505q-29 4 -64.5 8t-84.5 4q-54 0 -91 -9t-66 -31q-29 -23 -51.5 -61t-37.5 -81
t-22.5 -87t-7.5 -80q0 -35 7.5 -58.5t21.5 -35.5q18 -16 45 -23.5t59 -7.5q54 0 107 14t98 35zM325 768q-2 -7 -3 -14.5t-1 -15.5q0 -29 19.5 -46t70.5 -17q58 0 84 23.5t31 69.5h40q-3 -25 -11.5 -48t-26.5 -41t-47.5 -28.5t-73.5 -10.5q-60 0 -92.5 22.5t-32.5 72.5
q0 7 1 16t3 17h39z" />
    <glyph glyph-name="Gdotaccent" unicode="&#x120;" horiz-adv-x="780" 
d="M747 687q-40 5 -92.5 11.5t-124.5 6.5q-41 0 -74 -4t-59 -11t-47 -17t-39 -22q-39 -27 -70.5 -74.5t-53 -104.5t-33 -119t-11.5 -117q0 -42 9.5 -76.5t26.5 -55.5q23 -28 68.5 -43.5t121.5 -15.5q64 0 111.5 7t83.5 14l57 269h-225l24 50h271l-76 -358q-51 -14 -117 -25
t-135 -11q-49 0 -86 5t-65 15t-48 24t-36 32q-19 23 -32.5 62t-13.5 99t12 127.5t35.5 130.5t59 117t83.5 88q22 16 47 28.5t56.5 21.5t70.5 14t89 5q69 0 125 -7t96 -14zM522 828q-20 0 -26 8q-5 7 -5 17q0 29 17 41q10 7 29 7q20 0 26 -8q5 -6 5 -18q0 -28 -15 -40
q-12 -7 -31 -7z" />
    <glyph glyph-name="gdotaccent" unicode="&#x121;" horiz-adv-x="671" 
d="M506 30q-12 -57 -25 -98.5t-27.5 -71.5t-30 -49.5t-32.5 -33.5q-31 -23 -77 -37t-121 -14q-28 0 -57 2.5t-56 5.5t-49.5 7t-36.5 7l8 51q27 -5 79.5 -12t110.5 -7q63 0 101.5 9.5t62.5 27.5q26 21 49.5 71t43.5 147l7 31h-3l-6.5 -6t-14 -13.5l-14 -14t-7.5 -6.5
q-16 -9 -62 -22t-109 -13q-51 0 -82.5 11.5t-51.5 31.5q-20 18 -30.5 49t-10.5 76t9 96t26.5 99.5t43.5 90.5t61 70q31 24 79.5 38.5t114.5 14.5q52 0 98.5 -7.5t80.5 -15.5l31 17h11zM549 505q-29 4 -64.5 8t-84.5 4q-54 0 -91 -9t-66 -31q-29 -23 -51.5 -61t-37.5 -81
t-22.5 -87t-7.5 -80q0 -35 7.5 -58.5t21.5 -35.5q18 -16 45 -23.5t59 -7.5q54 0 107 14t98 35zM420 639q-20 0 -26 8q-5 7 -5 17q0 29 17 41q10 7 29 7q20 0 26 -8q5 -6 5 -18q0 -28 -15 -40q-12 -7 -31 -7z" />
    <glyph glyph-name="Gcommaaccent" unicode="&#x122;" horiz-adv-x="780" 
d="M747 687q-40 5 -92.5 11.5t-124.5 6.5q-41 0 -74 -4t-59 -11t-47 -17t-39 -22q-39 -27 -70.5 -74.5t-53 -104.5t-33 -119t-11.5 -117q0 -42 9.5 -76.5t26.5 -55.5q23 -28 68.5 -43.5t121.5 -15.5q64 0 111.5 7t83.5 14l57 269h-225l24 50h271l-76 -358q-51 -14 -117 -25
t-135 -11q-49 0 -86 5t-65 15t-48 24t-36 32q-19 23 -32.5 62t-13.5 99t12 127.5t35.5 130.5t59 117t83.5 88q22 16 47 28.5t56.5 21.5t70.5 14t89 5q69 0 125 -7t96 -14zM336 -87h59l-98 -133h-47z" />
    <glyph glyph-name="gcommaaccent" unicode="&#x123;" horiz-adv-x="671" 
d="M506 30q-12 -57 -25 -98.5t-27.5 -71.5t-30 -49.5t-32.5 -33.5q-31 -23 -77 -37t-121 -14q-28 0 -57 2.5t-56 5.5t-49.5 7t-36.5 7l8 51q27 -5 79.5 -12t110.5 -7q63 0 101.5 9.5t62.5 27.5q26 21 49.5 71t43.5 147l7 31h-3l-6.5 -6t-14 -13.5l-14 -14t-7.5 -6.5
q-16 -9 -62 -22t-109 -13q-51 0 -82.5 11.5t-51.5 31.5q-20 18 -30.5 49t-10.5 76t9 96t26.5 99.5t43.5 90.5t61 70q31 24 79.5 38.5t114.5 14.5q52 0 98.5 -7.5t80.5 -15.5l31 17h11zM549 505q-29 4 -64.5 8t-84.5 4q-54 0 -91 -9t-66 -31q-29 -23 -51.5 -61t-37.5 -81
t-22.5 -87t-7.5 -80q0 -35 7.5 -58.5t21.5 -35.5q18 -16 45 -23.5t59 -7.5q54 0 107 14t98 35zM430 635h-59l98 133h47z" />
    <glyph glyph-name="Hcircumflex" unicode="&#x124;" horiz-adv-x="807" 
d="M570 0l76 353h-464l-75 -353h-57l159 750h57l-72 -343h464l71 343h59l-159 -750h-59zM657 824h-50l-77 88l-118 -88h-57l155 123h46z" />
    <glyph glyph-name="hcircumflex" unicode="&#x125;" horiz-adv-x="662" 
d="M445 0l74 341q5 26 8 47t3 38q0 39 -18 61q-13 17 -37.5 23.5t-59.5 6.5q-60 0 -109.5 -16t-98.5 -40l-99 -461h-58l173 810h58l-70 -325h5l38 39q12 6 31 13.5t43 14.5t52 11.5t59 4.5q45 0 77.5 -10.5t50.5 -34.5q23 -30 23 -82q0 -20 -3.5 -45.5t-9.5 -54.5l-73 -341
h-59zM404 859h-50l-77 88l-118 -88h-57l155 123h46z" />
    <glyph glyph-name="Hbar" unicode="&#x126;" horiz-adv-x="807" 
d="M68 604h106l30 146h58l-30 -146h463l30 146h59l-31 -146h110l-10 -45h-110l-118 -559h-59l76 353h-464l-75 -353h-57l118 559h-106zM653 407l32 152h-463l-32 -152h463z" />
    <glyph glyph-name="hbar" unicode="&#x127;" horiz-adv-x="658" 
d="M114 719h90l19 91h58l-20 -91h200l-10 -47h-200l-40 -187h5l38 39q12 6 31 13.5t43 14.5t52 11.5t59 4.5q45 0 77.5 -10.5t50.5 -34.5q23 -30 23 -82q0 -20 -3.5 -45.5t-9.5 -54.5l-73 -341h-59l73 341q12 52 12 85q0 39 -18 61q-13 17 -37.5 23.5t-59.5 6.5
q-60 0 -109.5 -16t-98.5 -40l-99 -461h-58l144 672h-90z" />
    <glyph glyph-name="Itilde" unicode="&#x128;" horiz-adv-x="285" 
d="M50 0l159 750h58l-159 -750h-58zM92 833q11 44 37 68t63 24q23 0 40 -10t31.5 -21.5t28 -21.5t30.5 -10q20 0 33.5 13t24.5 43h39q-13 -48 -38.5 -70.5t-61.5 -22.5q-24 0 -41 10t-31.5 21.5t-28.5 21.5t-30 10q-40 0 -58 -55h-38z" />
    <glyph glyph-name="itilde" unicode="&#x129;" horiz-adv-x="269" 
d="M51 0l119 561h58l-119 -561h-58zM60 644q11 44 37 68t63 24q23 0 40 -10t31.5 -21.5t28 -21.5t30.5 -10q20 0 33.5 13t24.5 43h39q-13 -48 -38.5 -70.5t-61.5 -22.5q-24 0 -41 10t-31.5 21.5t-28.5 21.5t-30 10q-40 0 -58 -55h-38z" />
    <glyph glyph-name="Imacron" unicode="&#x12a;" horiz-adv-x="285" 
d="M50 0l159 750h58l-159 -750h-58zM139 882h253l-10 -42h-253z" />
    <glyph glyph-name="imacron" unicode="&#x12b;" horiz-adv-x="269" 
d="M51 0l119 561h58l-119 -561h-58zM97 693h253l-10 -42h-253z" />
    <glyph glyph-name="Ibreve" unicode="&#x12c;" horiz-adv-x="285" 
d="M50 0l159 750h58l-159 -750h-58zM169 957q-2 -7 -3 -14.5t-1 -15.5q0 -29 19.5 -46t70.5 -17q58 0 84 23.5t31 69.5h40q-3 -25 -11.5 -48t-26.5 -41t-47.5 -28.5t-73.5 -10.5q-60 0 -92.5 22.5t-32.5 72.5q0 7 1 16t3 17h39z" />
    <glyph glyph-name="ibreve" unicode="&#x12d;" horiz-adv-x="269" 
d="M51 0l119 561h58l-119 -561h-58zM129 768q-2 -7 -3 -14.5t-1 -15.5q0 -29 19.5 -46t70.5 -17q58 0 84 23.5t31 69.5h40q-3 -25 -11.5 -48t-26.5 -41t-47.5 -28.5t-73.5 -10.5q-60 0 -92.5 22.5t-32.5 72.5q0 7 1 16t3 17h39z" />
    <glyph glyph-name="Iogonek" unicode="&#x12e;" horiz-adv-x="285" 
d="M50 0l159 750h58l-159 -750h-4l-33 -27q-27 -22 -43.5 -38.5t-22.5 -24.5t-10.5 -21t-4.5 -33q0 -9 2 -17.5t7 -13.5q6 -6 17.5 -9t33.5 -3q29 0 50.5 3t35.5 5l-6 -34q-12 -3 -34 -6.5t-52 -3.5q-38 0 -54.5 6t-24.5 15q-16 14 -16 49q0 31 8 49.5t20 32.5q6 7 16.5 16
t22.5 19t24.5 19.5t22.5 16.5h-13z" />
    <glyph glyph-name="iogonek" unicode="&#x12f;" horiz-adv-x="271" 
d="M275 756q-2 -26 -15 -36q-11 -8 -32 -8q-11 0 -17.5 2.5t-10.5 5.5q-6 7 -4 23q1 14 6 24t11 14q8 7 30 7q21 0 28 -8q4 -4 4.5 -10t-0.5 -14zM51 0l119 561h58l-119 -561h-5l-26 -21q-22 -17 -44.5 -36.5t-30.5 -30.5q-7 -9 -11.5 -22.5t-4.5 -33.5q0 -9 2 -17.5
t7 -13.5q6 -6 17.5 -9t33.5 -3q29 0 51 3t36 5l-7 -34q-12 -3 -34 -6.5t-52 -3.5q-38 0 -54.5 6t-24.5 15q-7 7 -11 18.5t-4 30.5q0 31 8 49.5t20 32.5t35.5 31.5t55.5 39.5h-15z" />
    <glyph glyph-name="Idotaccent" unicode="&#x130;" horiz-adv-x="285" 
d="M50 0l159 750h58l-159 -750h-58zM254 828q-20 0 -26 8q-5 7 -5 17q0 29 17 41q10 7 29 7q20 0 26 -8q5 -6 5 -18q0 -28 -15 -40q-12 -7 -31 -7z" />
    <glyph glyph-name="dotlessi" unicode="&#x131;" horiz-adv-x="269" 
d="M51 0l119 561h58l-119 -561h-58z" />
    <glyph glyph-name="Jcircumflex" unicode="&#x134;" horiz-adv-x="569" 
d="M136 -12q-57 0 -101.5 6.5t-66.5 11.5l5 53q12 -3 30 -6t39.5 -5.5t44.5 -4t45 -1.5q123 0 177 48q14 12 26.5 29.5t24.5 43t23 61t21 83.5l94 443h58l-95 -449q-11 -52 -23 -92t-26 -70.5t-30.5 -53t-35.5 -38.5q-33 -28 -84.5 -43.5t-125.5 -15.5zM684 824h-50l-77 88
l-118 -88h-57l155 123h46z" />
    <glyph glyph-name="jcircumflex" unicode="&#x135;" horiz-adv-x="268" 
d="M93 -82q-10 -47 -24 -82.5t-37 -60.5t-57.5 -37.5t-85.5 -12.5q-31 0 -58 3t-37 5l2 45q18 -2 39.5 -4t50.5 -2q36 0 60.5 8t41.5 26t28 47t20 71l136 637h58zM359 635h-50l-77 88l-118 -88h-57l155 123h46z" />
    <glyph glyph-name="Kcommaaccent" unicode="&#x136;" horiz-adv-x="666" 
d="M565 0h-76l-267 350h-41l-74 -350h-57l159 750h57l-82 -389l456 389h83l-447 -376zM256 -87h59l-98 -133h-47z" />
    <glyph glyph-name="kcommaaccent" unicode="&#x137;" horiz-adv-x="570" 
d="M491 0h-74l-213 279h-37l-59 -279h-57l173 810h57l-111 -520l350 271h87l-348 -263zM224 -87h59l-98 -133h-47z" />
    <glyph glyph-name="kgreenlandic" unicode="&#x138;" horiz-adv-x="570" 
d="M491 0h-74l-212 279h-37l-60 -279h-57l120 561h58l-58 -271l350 271h87l-349 -263z" />
    <glyph glyph-name="Lacute" unicode="&#x139;" horiz-adv-x="595" 
d="M121 52h399l-25 -52h-445l159 750h58zM387 948h81l-196 -134h-61z" />
    <glyph glyph-name="lacute" unicode="&#x13a;" horiz-adv-x="334" 
d="M276 810l-140 -657q-5 -19 -6.5 -32t-1.5 -22q0 -56 60 -56q27 0 47 3t37 7l-10 -47q-19 -5 -42.5 -8.5t-49.5 -3.5q-46 0 -73.5 20.5t-27.5 72.5q0 24 9 71l140 652h58zM389 1002h81l-196 -134h-61z" />
    <glyph glyph-name="Lcommaaccent" unicode="&#x13b;" horiz-adv-x="595" 
d="M121 52h399l-25 -52h-445l159 750h58zM259 -87h59l-98 -133h-47z" />
    <glyph glyph-name="lcommaaccent" unicode="&#x13c;" horiz-adv-x="334" 
d="M276 810l-140 -657q-5 -19 -6.5 -32t-1.5 -22q0 -56 60 -56q27 0 47 3t37 7l-10 -47q-19 -5 -42.5 -8.5t-49.5 -3.5q-46 0 -73.5 20.5t-27.5 72.5q0 24 9 71l140 652h58zM117 -87h59l-98 -133h-47z" />
    <glyph glyph-name="Lcaron" unicode="&#x13d;" horiz-adv-x="595" 
d="M121 52h399l-25 -52h-445l159 750h58zM535 750h52l-106 -231h-43z" />
    <glyph glyph-name="lcaron" unicode="&#x13e;" horiz-adv-x="334" 
d="M276 810l-140 -657q-5 -19 -6.5 -32t-1.5 -22q0 -56 60 -56q27 0 47 3t37 7l-10 -47q-19 -5 -42.5 -8.5t-49.5 -3.5q-46 0 -73.5 20.5t-27.5 72.5q0 24 9 71l140 652h58zM406 812h52l-106 -231h-43z" />
    <glyph glyph-name="Ldot" unicode="&#x13f;" horiz-adv-x="595" 
d="M121 52h399l-25 -52h-445l159 750h58zM505 376q-11 -8 -32 -8q-23 0 -30 9q-3 3 -4 7.5t-1 9.5q0 32 17 44q11 8 32 8q22 0 30 -9q5 -6 5 -18q0 -31 -17 -43z" />
    <glyph glyph-name="ldot" unicode="&#x140;" horiz-adv-x="339" 
d="M276 810l-140 -657q-5 -19 -6.5 -32t-1.5 -22q0 -56 60 -56q27 0 47 3t37 7l-10 -47q-19 -5 -42.5 -8.5t-49.5 -3.5q-46 0 -73.5 20.5t-27.5 72.5q0 24 9 71l140 652h58zM306 368q-20 0 -26 8q-5 7 -5 17q0 29 17 41q10 7 29 7q20 0 26 -8q5 -6 5 -18q0 -28 -15 -40
q-12 -7 -31 -7z" />
    <glyph glyph-name="Lslash" unicode="&#x141;" horiz-adv-x="595" 
d="M398 468l-229 -134l-59 -280h403l-28 -54h-444l62 295l-114 -67l10 59l117 68l84 395h57l-75 -356l226 132z" />
    <glyph glyph-name="lslash" unicode="&#x142;" horiz-adv-x="333" 
d="M276 810l-79 -374l151 88l-10 -57l-155 -90l-50 -236q-3 -14 -4 -24.5t-1 -18.5q0 -54 63 -54q24 0 44 3t37 6l-11 -49q-19 -3 -42.5 -6.5t-42.5 -3.5q-51 0 -79.5 20.5t-28.5 71.5q0 12 2 27t6 34l41 192l-111 -65l9 58l114 68l89 410h58z" />
    <glyph glyph-name="Nacute" unicode="&#x143;" horiz-adv-x="833" 
d="M557 0l-286 694h-18l-147 -694h-56l159 750h100l284 -689h19l146 689h57l-159 -750h-99zM639 948h81l-196 -134h-61z" />
    <glyph glyph-name="nacute" unicode="&#x144;" horiz-adv-x="662" 
d="M446 0l74 344q5 25 8 45t3 37q0 37 -18 61q-13 17 -37.5 23.5t-58.5 6.5q-60 0 -110 -15.5t-99 -39.5l-99 -462h-58l119 561h40v-76h5l38 39q26 12 75 28t112 16q45 0 77 -10.5t51 -34.5q23 -30 23 -82q0 -20 -4 -45.5t-9 -54.5l-73 -341h-59zM499 759h81l-196 -134h-61z
" />
    <glyph glyph-name="Ncommaaccent" unicode="&#x145;" horiz-adv-x="833" 
d="M557 0l-286 694h-18l-147 -694h-56l159 750h100l284 -689h19l146 689h57l-159 -750h-99zM328 -87h59l-98 -133h-47z" />
    <glyph glyph-name="ncommaaccent" unicode="&#x146;" horiz-adv-x="662" 
d="M446 0l74 344q5 25 8 45t3 37q0 37 -18 61q-13 17 -37.5 23.5t-58.5 6.5q-60 0 -110 -15.5t-99 -39.5l-99 -462h-58l119 561h40v-76h5l38 39q26 12 75 28t112 16q45 0 77 -10.5t51 -34.5q23 -30 23 -82q0 -20 -4 -45.5t-9 -54.5l-73 -341h-59zM255 -87h59l-98 -133h-47z
" />
    <glyph glyph-name="Ncaron" unicode="&#x147;" horiz-adv-x="833" 
d="M557 0l-286 694h-18l-147 -694h-56l159 750h100l284 -689h19l146 689h57l-159 -750h-99zM405 947h50l77 -88l118 88h57l-155 -123h-46z" />
    <glyph glyph-name="ncaron" unicode="&#x148;" horiz-adv-x="662" 
d="M446 0l74 344q5 25 8 45t3 37q0 37 -18 61q-13 17 -37.5 23.5t-58.5 6.5q-60 0 -110 -15.5t-99 -39.5l-99 -462h-58l119 561h40v-76h5l38 39q26 12 75 28t112 16q45 0 77 -10.5t51 -34.5q23 -30 23 -82q0 -20 -4 -45.5t-9 -54.5l-73 -341h-59zM269 758h50l77 -88l118 88
h57l-155 -123h-46z" />
    <glyph glyph-name="Eng" unicode="&#x14a;" horiz-adv-x="834" 
d="M348 -227q-57 0 -101.5 6t-66.5 12l5 52q25 -5 70 -11t90 -6q63 0 107 12.5t71 36.5q21 19 39.5 48t33.5 77h-39l-287 694h-17l-147 -694h-56l159 750h100l284 -689h18l147 689h57l-147 -688q-19 -88 -44.5 -142t-64.5 -86q-32 -29 -84.5 -45t-126.5 -16z" />
    <glyph glyph-name="eng" unicode="&#x14b;" horiz-adv-x="662" 
d="M487 -82q-10 -47 -24 -82.5t-37 -60.5t-57.5 -37.5t-85.5 -12.5q-32 0 -58.5 3t-37.5 5l3 45q18 -2 39.5 -4t50.5 -2q36 0 60.5 8t41.5 26t28 47t20 71l90 420q5 25 8 45t3 37q0 37 -18 61q-13 17 -37.5 23.5t-58.5 6.5q-60 0 -110 -15.5t-99 -39.5l-99 -462h-58l119 561
h40v-76h5l38 39q26 12 75 28t112 16q45 0 77 -10.5t51 -34.5q23 -30 23 -82q0 -20 -4 -45.5t-9 -54.5z" />
    <glyph glyph-name="Omacron" unicode="&#x14c;" horiz-adv-x="842" 
d="M363 44q75 0 123.5 15.5t81.5 41.5q40 31 70 82.5t49.5 110t29 117.5t9.5 106q0 44 -8.5 75.5t-23.5 51.5q-22 30 -69.5 47t-115.5 17q-73 0 -125 -17.5t-85 -44.5q-38 -30 -67 -79.5t-48.5 -107.5t-29.5 -117t-10 -108q0 -77 30 -121q23 -33 71.5 -51t117.5 -18z
M512 761q50 0 87.5 -6t65 -17t46.5 -25.5t32 -31.5q18 -23 31 -60.5t13 -95.5q0 -54 -11 -120.5t-33.5 -132t-57 -122.5t-80.5 -92q-45 -34 -106.5 -51t-146.5 -17q-96 0 -149.5 25t-79.5 63q-16 22 -27.5 58.5t-11.5 90.5q0 55 10.5 121t32.5 130t56 120t81 91
q45 33 104 52.5t144 19.5zM408 882h253l-10 -42h-253z" />
    <glyph glyph-name="omacron" unicode="&#x14d;" horiz-adv-x="675" 
d="M606 390q0 -45 -8.5 -94t-24.5 -95t-40.5 -85.5t-55.5 -66.5q-34 -29 -80.5 -45t-117.5 -16q-73 0 -114.5 19.5t-63.5 50.5q-14 19 -23 49t-9 74q0 46 8.5 94.5t25.5 93.5t42 83.5t58 64.5q35 26 81 42t112 16q65 0 107.5 -15.5t63.5 -41.5q18 -22 28.5 -52.5t10.5 -75.5
zM434 81q27 21 48 55.5t36 76t23 85.5t8 85q0 35 -8 59.5t-21 38.5q-16 19 -46 31t-83 12q-51 0 -88 -13t-60 -31q-25 -18 -46 -50t-36.5 -72t-24.5 -84.5t-9 -87.5q0 -31 6 -56t17 -40q16 -22 47 -37.5t90 -15.5q47 0 84 11.5t63 32.5zM289 693h253l-10 -42h-253z" />
    <glyph glyph-name="Obreve" unicode="&#x14e;" horiz-adv-x="842" 
d="M363 44q75 0 123.5 15.5t81.5 41.5q40 31 70 82.5t49.5 110t29 117.5t9.5 106q0 44 -8.5 75.5t-23.5 51.5q-22 30 -69.5 47t-115.5 17q-73 0 -125 -17.5t-85 -44.5q-38 -30 -67 -79.5t-48.5 -107.5t-29.5 -117t-10 -108q0 -77 30 -121q23 -33 71.5 -51t117.5 -18z
M512 761q50 0 87.5 -6t65 -17t46.5 -25.5t32 -31.5q18 -23 31 -60.5t13 -95.5q0 -54 -11 -120.5t-33.5 -132t-57 -122.5t-80.5 -92q-45 -34 -106.5 -51t-146.5 -17q-96 0 -149.5 25t-79.5 63q-16 22 -27.5 58.5t-11.5 90.5q0 55 10.5 121t32.5 130t56 120t81 91
q45 33 104 52.5t144 19.5zM435 957q-2 -7 -3 -14.5t-1 -15.5q0 -29 19.5 -46t70.5 -17q58 0 84 23.5t31 69.5h40q-3 -25 -11.5 -48t-26.5 -41t-47.5 -28.5t-73.5 -10.5q-60 0 -92.5 22.5t-32.5 72.5q0 7 1 16t3 17h39z" />
    <glyph glyph-name="obreve" unicode="&#x14f;" horiz-adv-x="675" 
d="M606 390q0 -45 -8.5 -94t-24.5 -95t-40.5 -85.5t-55.5 -66.5q-34 -29 -80.5 -45t-117.5 -16q-73 0 -114.5 19.5t-63.5 50.5q-14 19 -23 49t-9 74q0 46 8.5 94.5t25.5 93.5t42 83.5t58 64.5q35 26 81 42t112 16q65 0 107.5 -15.5t63.5 -41.5q18 -22 28.5 -52.5t10.5 -75.5
zM434 81q27 21 48 55.5t36 76t23 85.5t8 85q0 35 -8 59.5t-21 38.5q-16 19 -46 31t-83 12q-51 0 -88 -13t-60 -31q-25 -18 -46 -50t-36.5 -72t-24.5 -84.5t-9 -87.5q0 -31 6 -56t17 -40q16 -22 47 -37.5t90 -15.5q47 0 84 11.5t63 32.5zM324 768q-2 -7 -3 -14.5t-1 -15.5
q0 -29 19.5 -46t70.5 -17q58 0 84 23.5t31 69.5h40q-3 -25 -11.5 -48t-26.5 -41t-47.5 -28.5t-73.5 -10.5q-60 0 -92.5 22.5t-32.5 72.5q0 7 1 16t3 17h39z" />
    <glyph glyph-name="Ohungarumlaut" unicode="&#x150;" horiz-adv-x="842" 
d="M363 44q75 0 123.5 15.5t81.5 41.5q40 31 70 82.5t49.5 110t29 117.5t9.5 106q0 44 -8.5 75.5t-23.5 51.5q-22 30 -69.5 47t-115.5 17q-73 0 -125 -17.5t-85 -44.5q-38 -30 -67 -79.5t-48.5 -107.5t-29.5 -117t-10 -108q0 -77 30 -121q23 -33 71.5 -51t117.5 -18z
M512 761q50 0 87.5 -6t65 -17t46.5 -25.5t32 -31.5q18 -23 31 -60.5t13 -95.5q0 -54 -11 -120.5t-33.5 -132t-57 -122.5t-80.5 -92q-45 -34 -106.5 -51t-146.5 -17q-96 0 -149.5 25t-79.5 63q-16 22 -27.5 58.5t-11.5 90.5q0 55 10.5 121t32.5 130t56 120t81 91
q45 33 104 52.5t144 19.5zM540 945h68l-165 -128h-53zM686 945h69l-165 -128h-53z" />
    <glyph glyph-name="ohungarumlaut" unicode="&#x151;" horiz-adv-x="675" 
d="M606 390q0 -45 -8.5 -94t-24.5 -95t-40.5 -85.5t-55.5 -66.5q-34 -29 -80.5 -45t-117.5 -16q-73 0 -114.5 19.5t-63.5 50.5q-14 19 -23 49t-9 74q0 46 8.5 94.5t25.5 93.5t42 83.5t58 64.5q35 26 81 42t112 16q65 0 107.5 -15.5t63.5 -41.5q18 -22 28.5 -52.5t10.5 -75.5
zM434 81q27 21 48 55.5t36 76t23 85.5t8 85q0 35 -8 59.5t-21 38.5q-16 19 -46 31t-83 12q-51 0 -88 -13t-60 -31q-25 -18 -46 -50t-36.5 -72t-24.5 -84.5t-9 -87.5q0 -31 6 -56t17 -40q16 -22 47 -37.5t90 -15.5q47 0 84 11.5t63 32.5zM423 756h68l-165 -128h-53zM569 756
h69l-165 -128h-53z" />
    <glyph glyph-name="OE" unicode="&#x152;" horiz-adv-x="1127" 
d="M358 44q65 0 110 8t86 21l128 605q-39 16 -84 22t-91 6q-72 0 -124 -17t-84 -43q-38 -30 -66.5 -79.5t-48 -107t-29.5 -116.5t-10 -108q0 -41 8.5 -72.5t22.5 -51.5q23 -32 69.5 -49.5t112.5 -17.5zM348 -10q-91 0 -144.5 24t-80.5 62q-17 24 -28 59.5t-11 91.5
q0 55 10.5 121t32.5 130t56 119.5t81 90.5q44 33 105 52.5t146 19.5q48 0 85.5 -6t66.5 -16l16 -32h5l9 44h457l-24 -53h-386l-60 -287h339l-25 -53h-326l-64 -303h418l-27 -54h-461l10 44h-5l-30 -32q-34 -10 -75.5 -16t-89.5 -6z" />
    <glyph glyph-name="oe" unicode="&#x153;" horiz-adv-x="1059" 
d="M559 520q28 -34 35 -84q14 23 31 45t37 38q33 25 76.5 39t99.5 14q50 0 84.5 -9.5t56.5 -27.5t31.5 -43.5t9.5 -56.5q0 -54 -24 -86.5t-62.5 -50t-86 -22.5t-95.5 -5q-20 0 -42 0.5t-43.5 1.5t-41 2t-33.5 2q-5 -27 -8.5 -51.5t-3.5 -47.5q0 -26 5 -49t18 -40
q17 -24 52.5 -36.5t84.5 -12.5q29 0 57.5 3.5t53.5 8.5t46 10.5t36 10.5l-17 -52q-30 -11 -81 -21.5t-113 -10.5q-60 0 -98.5 15t-61.5 44q-13 15 -20.5 35.5t-10.5 43.5q-12 -23 -28.5 -44t-34.5 -36q-34 -29 -77.5 -43.5t-112.5 -14.5q-72 0 -112.5 18.5t-63.5 48.5
q-14 18 -22.5 49t-9.5 77q0 47 8.5 95.5t25.5 93t42 82t57 63.5q35 28 83.5 43.5t114.5 15.5q63 0 100.5 -15.5t57.5 -39.5zM434 82q27 21 48.5 56.5t36.5 77.5t22.5 87t7.5 85q-1 33 -8 55t-19 38q-16 19 -46.5 31t-84.5 12q-51 0 -87 -12.5t-59 -30.5q-25 -18 -46.5 -50.5
t-37 -73t-24.5 -86t-9 -89.5q1 -29 7 -52.5t16 -38.5q16 -23 46 -38t91 -15q47 0 83.5 11.5t62.5 32.5zM827 523q-42 0 -76.5 -10t-61.5 -33q-30 -24 -51 -62.5t-36 -94.5q13 -1 36 -2.5t47 -2t45.5 -1t31.5 -0.5q47 0 84 5.5t63 18.5t39.5 35t13.5 56q0 45 -32.5 68
t-102.5 23z" />
    <glyph glyph-name="Racute" unicode="&#x154;" horiz-adv-x="693" 
d="M660 606q0 -29 -6 -60t-18.5 -60.5t-32 -56t-45.5 -46.5q-14 -8 -41.5 -16.5t-59.5 -18.5v-3q14 -7 29.5 -18t20.5 -20q15 -26 35.5 -104t49.5 -203h-63q-17 74 -29.5 128.5t-24 92.5t-22.5 60.5t-23 31.5q-14 9 -47.5 11.5t-76.5 2.5h-129l-69 -327h-58l159 750h219
q43 0 75 -3t55.5 -8.5t39 -14t26.5 -18.5q16 -14 26 -38.5t10 -61.5zM480 397q28 10 50 31t37 48t22.5 58.5t7.5 61.5q0 26 -6.5 43t-16.5 27q-7 7 -18.5 13t-30 10.5t-45 6.5t-64.5 2h-160l-67 -317h157q48 0 81 4.5t53 11.5zM550 948h81l-196 -134h-61z" />
    <glyph glyph-name="racute" unicode="&#x155;" horiz-adv-x="430" 
d="M207 561v-76h6l34 40q27 17 66 30.5t87 13.5q24 0 41 -1.5t31 -3.5l-10 -57q-14 3 -34 5.5t-46 2.5q-53 0 -97 -18t-79 -41l-97 -456h-58l119 561h37zM403 759h81l-196 -134h-61z" />
    <glyph glyph-name="Rcommaaccent" unicode="&#x156;" horiz-adv-x="693" 
d="M660 606q0 -29 -6 -60t-18.5 -60.5t-32 -56t-45.5 -46.5q-14 -8 -41.5 -16.5t-59.5 -18.5v-3q14 -7 29.5 -18t20.5 -20q15 -26 35.5 -104t49.5 -203h-63q-17 74 -29.5 128.5t-24 92.5t-22.5 60.5t-23 31.5q-14 9 -47.5 11.5t-76.5 2.5h-129l-69 -327h-58l159 750h219
q43 0 75 -3t55.5 -8.5t39 -14t26.5 -18.5q16 -14 26 -38.5t10 -61.5zM480 397q28 10 50 31t37 48t22.5 58.5t7.5 61.5q0 26 -6.5 43t-16.5 27q-7 7 -18.5 13t-30 10.5t-45 6.5t-64.5 2h-160l-67 -317h157q48 0 81 4.5t53 11.5zM282 -87h59l-98 -133h-47z" />
    <glyph glyph-name="rcommaaccent" unicode="&#x157;" horiz-adv-x="430" 
d="M207 561v-76h6l34 40q27 17 66 30.5t87 13.5q24 0 41 -1.5t31 -3.5l-10 -57q-14 3 -34 5.5t-46 2.5q-53 0 -97 -18t-79 -41l-97 -456h-58l119 561h37zM76 -87h59l-98 -133h-47z" />
    <glyph glyph-name="Rcaron" unicode="&#x158;" horiz-adv-x="693" 
d="M660 606q0 -29 -6 -60t-18.5 -60.5t-32 -56t-45.5 -46.5q-14 -8 -41.5 -16.5t-59.5 -18.5v-3q14 -7 29.5 -18t20.5 -20q15 -26 35.5 -104t49.5 -203h-63q-17 74 -29.5 128.5t-24 92.5t-22.5 60.5t-23 31.5q-14 9 -47.5 11.5t-76.5 2.5h-129l-69 -327h-58l159 750h219
q43 0 75 -3t55.5 -8.5t39 -14t26.5 -18.5q16 -14 26 -38.5t10 -61.5zM480 397q28 10 50 31t37 48t22.5 58.5t7.5 61.5q0 26 -6.5 43t-16.5 27q-7 7 -18.5 13t-30 10.5t-45 6.5t-64.5 2h-160l-67 -317h157q48 0 81 4.5t53 11.5zM309 947h50l77 -88l118 88h57l-155 -123h-46z
" />
    <glyph glyph-name="rcaron" unicode="&#x159;" horiz-adv-x="430" 
d="M207 561v-76h6l34 40q27 17 66 30.5t87 13.5q24 0 41 -1.5t31 -3.5l-10 -57q-14 3 -34 5.5t-46 2.5q-53 0 -97 -18t-79 -41l-97 -456h-58l119 561h37zM193 758h50l77 -88l118 88h57l-155 -123h-46z" />
    <glyph glyph-name="Sacute" unicode="&#x15a;" horiz-adv-x="643" 
d="M547 235q0 -27 -5 -55t-15 -54.5t-26 -50t-38 -40.5q-35 -26 -91.5 -36t-125.5 -10q-74 0 -136 8t-100 17l8 53q44 -8 98 -16t133 -8q71 0 113.5 10.5t62.5 25.5q15 12 26 28.5t18.5 36t11.5 41t4 41.5q0 33 -12 51q-11 14 -36.5 26.5t-59 24.5t-71 24t-71.5 25.5t-61 29
t-39 34.5q-8 13 -12 31t-5 38q0 26 4.5 53.5t14 53.5t25 49.5t38.5 41.5q31 25 84 39t132 14q72 0 127.5 -6t90.5 -11l-8 -52q-38 5 -92.5 10.5t-123.5 5.5q-67 0 -109.5 -11t-63.5 -30q-29 -26 -43 -67t-14 -80q0 -31 10 -47q8 -14 32.5 -26.5t58.5 -25t72 -25t73 -25.5
t62.5 -28t40.5 -31q10 -14 14.5 -34t3.5 -43zM518 948h81l-196 -134h-61z" />
    <glyph glyph-name="sacute" unicode="&#x15b;" horiz-adv-x="514" 
d="M430 181q1 -43 -16 -85.5t-53 -67.5q-29 -19 -71.5 -26.5t-101.5 -7.5q-48 0 -94 5.5t-76 12.5l2 51q32 -7 77.5 -13.5t93.5 -6.5q53 0 84.5 6t50.5 19q20 13 32.5 41t12.5 63q0 12 -3.5 25t-14.5 21q-15 13 -45.5 23t-64.5 20.5t-65.5 22.5t-49.5 29q-25 24 -25 68
q0 49 19.5 92.5t51.5 66.5q29 20 69.5 28t94.5 8q50 0 91 -5.5t65 -9.5l-8 -48q-29 5 -68.5 9.5t-82.5 4.5q-51 0 -80.5 -6.5t-49.5 -21.5q-22 -17 -33.5 -46.5t-11.5 -63.5q0 -28 16 -43q15 -13 46 -24t65 -21t65.5 -21t46.5 -24q16 -14 23 -32t8 -43zM413 759h81
l-196 -134h-61z" />
    <glyph glyph-name="Scircumflex" unicode="&#x15c;" horiz-adv-x="643" 
d="M547 235q0 -27 -5 -55t-15 -54.5t-26 -50t-38 -40.5q-35 -26 -91.5 -36t-125.5 -10q-74 0 -136 8t-100 17l8 53q44 -8 98 -16t133 -8q71 0 113.5 10.5t62.5 25.5q15 12 26 28.5t18.5 36t11.5 41t4 41.5q0 33 -12 51q-11 14 -36.5 26.5t-59 24.5t-71 24t-71.5 25.5t-61 29
t-39 34.5q-8 13 -12 31t-5 38q0 26 4.5 53.5t14 53.5t25 49.5t38.5 41.5q31 25 84 39t132 14q72 0 127.5 -6t90.5 -11l-8 -52q-38 5 -92.5 10.5t-123.5 5.5q-67 0 -109.5 -11t-63.5 -30q-29 -26 -43 -67t-14 -80q0 -31 10 -47q8 -14 32.5 -26.5t58.5 -25t72 -25t73 -25.5
t62.5 -28t40.5 -31q10 -14 14.5 -34t3.5 -43zM562 824h-50l-77 88l-118 -88h-57l155 123h46z" />
    <glyph glyph-name="scircumflex" unicode="&#x15d;" horiz-adv-x="514" 
d="M430 181q1 -43 -16 -85.5t-53 -67.5q-29 -19 -71.5 -26.5t-101.5 -7.5q-48 0 -94 5.5t-76 12.5l2 51q32 -7 77.5 -13.5t93.5 -6.5q53 0 84.5 6t50.5 19q20 13 32.5 41t12.5 63q0 12 -3.5 25t-14.5 21q-15 13 -45.5 23t-64.5 20.5t-65.5 22.5t-49.5 29q-25 24 -25 68
q0 49 19.5 92.5t51.5 66.5q29 20 69.5 28t94.5 8q50 0 91 -5.5t65 -9.5l-8 -48q-29 5 -68.5 9.5t-82.5 4.5q-51 0 -80.5 -6.5t-49.5 -21.5q-22 -17 -33.5 -46.5t-11.5 -63.5q0 -28 16 -43q15 -13 46 -24t65 -21t65.5 -21t46.5 -24q16 -14 23 -32t8 -43zM476 635h-50l-77 88
l-118 -88h-57l155 123h46z" />
    <glyph glyph-name="Scedilla" unicode="&#x15e;" horiz-adv-x="643" 
d="M234 -11q-70 1 -129 8.5t-95 16.5l8 53q44 -8 98 -16t133 -8q71 0 113.5 10.5t62.5 25.5q15 12 26 28.5t18.5 36t11.5 41t4 41.5q0 33 -12 51q-11 14 -36.5 26.5t-59 24.5t-71 24t-71.5 25.5t-61 29t-39 34.5q-8 13 -12 31t-5 38q0 26 4.5 53.5t14 53.5t25 49.5
t38.5 41.5q31 25 84 39t132 14q72 0 127.5 -6t90.5 -11l-8 -52q-38 5 -92.5 10.5t-123.5 5.5q-67 0 -109.5 -11t-63.5 -30q-29 -26 -43 -67t-14 -80q0 -31 10 -47q8 -14 32.5 -26.5t58.5 -25t72 -25t73 -25.5t62.5 -28t40.5 -31q10 -14 14.5 -34t3.5 -43q0 -27 -5 -55
t-15 -54.5t-26 -50t-38 -40.5q-32 -23 -82.5 -33.5t-112.5 -12.5l-17 -42q29 -1 48 -5t30 -15q15 -15 15 -47q0 -28 -11 -50t-28 -34q-31 -21 -97 -21q-33 0 -56.5 4t-39.5 9l5 36q19 -5 39 -9t51 -4t46.5 4t23.5 9q9 6 16.5 20.5t7.5 31.5t-8 25q-6 6 -21.5 10t-47.5 4h-21
z" />
    <glyph glyph-name="scedilla" unicode="&#x15f;" horiz-adv-x="514" 
d="M177 -6q-45 1 -88 6t-71 12l2 51q32 -7 77.5 -13.5t93.5 -6.5q53 0 84.5 6t50.5 19q20 13 32.5 41t12.5 63q0 12 -3.5 25t-14.5 21q-15 13 -45.5 23t-64.5 20.5t-65.5 22.5t-49.5 29q-25 24 -25 68q0 49 19.5 92.5t51.5 66.5q29 20 69.5 28t94.5 8q50 0 91 -5.5t65 -9.5
l-8 -48q-29 5 -68.5 9.5t-82.5 4.5q-51 0 -80.5 -6.5t-49.5 -21.5q-22 -17 -33.5 -46.5t-11.5 -63.5q0 -28 16 -43q15 -13 46 -24t65 -21t65.5 -21t46.5 -24q16 -14 23 -32t8 -43q1 -43 -16 -85.5t-53 -67.5q-26 -17 -63 -24.5t-87 -9.5l-19 -47q29 -1 48 -5t30 -15
q15 -15 15 -47q0 -28 -11 -50t-28 -34q-31 -21 -97 -21q-33 0 -56.5 4t-39.5 9l5 36q19 -5 39 -9t51 -4t46.5 4t23.5 9q9 6 16.5 20.5t7.5 31.5t-8 25q-6 6 -21.5 10t-47.5 4h-21z" />
    <glyph glyph-name="Scaron" unicode="&#x160;" horiz-adv-x="643" 
d="M547 235q0 -27 -5 -55t-15 -54.5t-26 -50t-38 -40.5q-35 -26 -91.5 -36t-125.5 -10q-74 0 -136 8t-100 17l8 53q44 -8 98 -16t133 -8q71 0 113.5 10.5t62.5 25.5q15 12 26 28.5t18.5 36t11.5 41t4 41.5q0 33 -12 51q-11 14 -36.5 26.5t-59 24.5t-71 24t-71.5 25.5t-61 29
t-39 34.5q-8 13 -12 31t-5 38q0 26 4.5 53.5t14 53.5t25 49.5t38.5 41.5q31 25 84 39t132 14q72 0 127.5 -6t90.5 -11l-8 -52q-38 5 -92.5 10.5t-123.5 5.5q-67 0 -109.5 -11t-63.5 -30q-29 -26 -43 -67t-14 -80q0 -31 10 -47q8 -14 32.5 -26.5t58.5 -25t72 -25t73 -25.5
t62.5 -28t40.5 -31q10 -14 14.5 -34t3.5 -43zM300 947h50l77 -88l118 88h57l-155 -123h-46z" />
    <glyph glyph-name="scaron" unicode="&#x161;" horiz-adv-x="514" 
d="M430 181q1 -43 -16 -85.5t-53 -67.5q-29 -19 -71.5 -26.5t-101.5 -7.5q-48 0 -94 5.5t-76 12.5l2 51q32 -7 77.5 -13.5t93.5 -6.5q53 0 84.5 6t50.5 19q20 13 32.5 41t12.5 63q0 12 -3.5 25t-14.5 21q-15 13 -45.5 23t-64.5 20.5t-65.5 22.5t-49.5 29q-25 24 -25 68
q0 49 19.5 92.5t51.5 66.5q29 20 69.5 28t94.5 8q50 0 91 -5.5t65 -9.5l-8 -48q-29 5 -68.5 9.5t-82.5 4.5q-51 0 -80.5 -6.5t-49.5 -21.5q-22 -17 -33.5 -46.5t-11.5 -63.5q0 -28 16 -43q15 -13 46 -24t65 -21t65.5 -21t46.5 -24q16 -14 23 -32t8 -43zM206 758h50l77 -88
l118 88h57l-155 -123h-46z" />
    <glyph glyph-name="uni0162" unicode="&#x162;" horiz-adv-x="651" 
d="M689 698h-266l-148 -698h-59l148 698h-270l25 52h592zM217 -87h59l-98 -133h-47z" />
    <glyph glyph-name="uni0163" unicode="&#x163;" horiz-adv-x="440" 
d="M446 512h-198l-75 -351q-5 -20 -7 -33.5t-2 -24.5q0 -35 20 -46.5t54 -11.5q38 0 70.5 6.5t50.5 11.5l-13 -50q-21 -6 -54.5 -12.5t-73.5 -6.5q-60 0 -88 24.5t-28 72.5q0 14 3 32t8 38l76 351h-116l18 49h108l25 117l62 15l-27 -132h208zM168 -87h59l-98 -133h-47z" />
    <glyph glyph-name="Tcaron" unicode="&#x164;" horiz-adv-x="651" 
d="M689 698h-266l-148 -698h-59l148 698h-270l25 52h592zM289 947h50l77 -88l118 88h57l-155 -123h-46z" />
    <glyph glyph-name="tcaron" unicode="&#x165;" horiz-adv-x="440" 
d="M446 512h-198l-75 -351q-5 -20 -7 -33.5t-2 -24.5q0 -35 20 -46.5t54 -11.5q38 0 70.5 6.5t50.5 11.5l-13 -50q-21 -6 -54.5 -12.5t-73.5 -6.5q-60 0 -88 24.5t-28 72.5q0 14 3 32t8 38l76 351h-116l18 49h108l25 117l62 15l-27 -132h208zM480 878h52l-106 -231h-43z" />
    <glyph glyph-name="Tbar" unicode="&#x166;" horiz-adv-x="649" 
d="M121 381h175l67 315h-270l24 54h592l-22 -54h-266l-66 -315h179l-10 -46h-180l-71 -335h-59l72 335h-175z" />
    <glyph glyph-name="tbar" unicode="&#x167;" horiz-adv-x="440" 
d="M40 321h107l42 191h-116l18 49h108l25 117l62 15l-27 -132h208l-21 -49h-198l-41 -191h203l-11 -46h-202l-24 -114q-5 -20 -7 -33.5t-2 -24.5q0 -35 20 -46.5t54 -11.5q38 0 70.5 6.5t50.5 11.5l-13 -50q-21 -6 -54.5 -12.5t-73.5 -6.5q-60 0 -88 24.5t-28 72.5
q0 14 3 32t8 38l24 114h-108z" />
    <glyph glyph-name="Utilde" unicode="&#x168;" horiz-adv-x="787" 
d="M766 750l-99 -464q-11 -50 -22.5 -87.5t-25 -66t-29.5 -48.5t-35 -36q-16 -13 -35.5 -24t-45.5 -19.5t-60.5 -13t-80.5 -4.5q-49 0 -85.5 7t-62.5 19t-43.5 27.5t-27.5 31.5q-11 17 -18.5 41.5t-7.5 56.5q0 26 4 57t15 81l94 442h57l-94 -445q-11 -47 -14 -75t-3 -52
q0 -47 19 -73q16 -24 57 -44t116 -20q36 0 63.5 3t48.5 9t37.5 15t30.5 21q15 12 27 28t23 39.5t21 55.5t19 76l99 462h58zM332 833q11 44 37 68t63 24q23 0 40 -10t31.5 -21.5t28 -21.5t30.5 -10q20 0 33.5 13t24.5 43h39q-13 -48 -38.5 -70.5t-61.5 -22.5q-24 0 -41 10
t-31.5 21.5t-28.5 21.5t-30 10q-40 0 -58 -55h-38z" />
    <glyph glyph-name="utilde" unicode="&#x169;" horiz-adv-x="662" 
d="M216 561l-74 -344q-5 -25 -8 -45t-3 -37q0 -40 18 -61q14 -15 38 -22t57 -7q61 0 111 15t99 39l99 462h58l-119 -561h-40v76h-5l-38 -39q-25 -12 -73 -28t-114 -16q-45 0 -77 10.5t-51 34.5q-23 30 -23 82q0 20 4 45.5t10 54.5l72 341h59zM237 644q11 44 37 68t63 24
q23 0 40 -10t31.5 -21.5t28 -21.5t30.5 -10q20 0 33.5 13t24.5 43h39q-13 -48 -38.5 -70.5t-61.5 -22.5q-24 0 -41 10t-31.5 21.5t-28.5 21.5t-30 10q-40 0 -58 -55h-38z" />
    <glyph glyph-name="Umacron" unicode="&#x16a;" horiz-adv-x="787" 
d="M766 750l-99 -464q-11 -50 -22.5 -87.5t-25 -66t-29.5 -48.5t-35 -36q-16 -13 -35.5 -24t-45.5 -19.5t-60.5 -13t-80.5 -4.5q-49 0 -85.5 7t-62.5 19t-43.5 27.5t-27.5 31.5q-11 17 -18.5 41.5t-7.5 56.5q0 26 4 57t15 81l94 442h57l-94 -445q-11 -47 -14 -75t-3 -52
q0 -47 19 -73q16 -24 57 -44t116 -20q36 0 63.5 3t48.5 9t37.5 15t30.5 21q15 12 27 28t23 39.5t21 55.5t19 76l99 462h58zM375 882h253l-10 -42h-253z" />
    <glyph glyph-name="umacron" unicode="&#x16b;" horiz-adv-x="662" 
d="M216 561l-74 -344q-5 -25 -8 -45t-3 -37q0 -40 18 -61q14 -15 38 -22t57 -7q61 0 111 15t99 39l99 462h58l-119 -561h-40v76h-5l-38 -39q-25 -12 -73 -28t-114 -16q-45 0 -77 10.5t-51 34.5q-23 30 -23 82q0 20 4 45.5t10 54.5l72 341h59zM283 693h253l-10 -42h-253z" />
    <glyph glyph-name="Ubreve" unicode="&#x16c;" horiz-adv-x="787" 
d="M766 750l-99 -464q-11 -50 -22.5 -87.5t-25 -66t-29.5 -48.5t-35 -36q-16 -13 -35.5 -24t-45.5 -19.5t-60.5 -13t-80.5 -4.5q-49 0 -85.5 7t-62.5 19t-43.5 27.5t-27.5 31.5q-11 17 -18.5 41.5t-7.5 56.5q0 26 4 57t15 81l94 442h57l-94 -445q-11 -47 -14 -75t-3 -52
q0 -47 19 -73q16 -24 57 -44t116 -20q36 0 63.5 3t48.5 9t37.5 15t30.5 21q15 12 27 28t23 39.5t21 55.5t19 76l99 462h58zM409 957q-2 -7 -3 -14.5t-1 -15.5q0 -29 19.5 -46t70.5 -17q58 0 84 23.5t31 69.5h40q-3 -25 -11.5 -48t-26.5 -41t-47.5 -28.5t-73.5 -10.5
q-60 0 -92.5 22.5t-32.5 72.5q0 7 1 16t3 17h39z" />
    <glyph glyph-name="ubreve" unicode="&#x16d;" horiz-adv-x="662" 
d="M216 561l-74 -344q-5 -25 -8 -45t-3 -37q0 -40 18 -61q14 -15 38 -22t57 -7q61 0 111 15t99 39l99 462h58l-119 -561h-40v76h-5l-38 -39q-25 -12 -73 -28t-114 -16q-45 0 -77 10.5t-51 34.5q-23 30 -23 82q0 20 4 45.5t10 54.5l72 341h59zM314 768q-2 -7 -3 -14.5
t-1 -15.5q0 -29 19.5 -46t70.5 -17q58 0 84 23.5t31 69.5h40q-3 -25 -11.5 -48t-26.5 -41t-47.5 -28.5t-73.5 -10.5q-60 0 -92.5 22.5t-32.5 72.5q0 7 1 16t3 17h39z" />
    <glyph glyph-name="Uring" unicode="&#x16e;" horiz-adv-x="787" 
d="M766 750l-99 -464q-11 -50 -22.5 -87.5t-25 -66t-29.5 -48.5t-35 -36q-16 -13 -35.5 -24t-45.5 -19.5t-60.5 -13t-80.5 -4.5q-49 0 -85.5 7t-62.5 19t-43.5 27.5t-27.5 31.5q-11 17 -18.5 41.5t-7.5 56.5q0 26 4 57t15 81l94 442h57l-94 -445q-11 -47 -14 -75t-3 -52
q0 -47 19 -73q16 -24 57 -44t116 -20q36 0 63.5 3t48.5 9t37.5 15t30.5 21q15 12 27 28t23 39.5t21 55.5t19 76l99 462h58zM490 806q-39 0 -55.5 16.5t-16.5 46.5q0 18 6.5 43t25.5 41q25 23 69 23q42 0 57.5 -16.5t15.5 -42.5q0 -20 -7.5 -46t-24.5 -42q-12 -11 -29.5 -17
t-40.5 -6zM494 835q31 0 48 18q8 11 13 28t5 34q0 15 -9.5 23.5t-33.5 8.5q-34 0 -48 -17q-8 -11 -13.5 -27t-5.5 -34q0 -16 9 -25t35 -9z" />
    <glyph glyph-name="uring" unicode="&#x16f;" horiz-adv-x="662" 
d="M216 561l-74 -344q-5 -25 -8 -45t-3 -37q0 -40 18 -61q14 -15 38 -22t57 -7q61 0 111 15t99 39l99 462h58l-119 -561h-40v76h-5l-38 -39q-25 -12 -73 -28t-114 -16q-45 0 -77 10.5t-51 34.5q-23 30 -23 82q0 20 4 45.5t10 54.5l72 341h59zM392 616q-39 0 -55.5 16.5
t-16.5 46.5q0 18 6.5 43t25.5 41q25 23 69 23q42 0 57.5 -16.5t15.5 -42.5q0 -20 -7.5 -46t-24.5 -42q-12 -11 -29.5 -17t-40.5 -6zM396 645q31 0 48 18q8 11 13 28t5 34q0 15 -9.5 23.5t-33.5 8.5q-34 0 -48 -17q-8 -11 -13.5 -27t-5.5 -34q0 -16 9 -25t35 -9z" />
    <glyph glyph-name="Uhungarumlaut" unicode="&#x170;" horiz-adv-x="787" 
d="M766 750l-99 -464q-11 -50 -22.5 -87.5t-25 -66t-29.5 -48.5t-35 -36q-16 -13 -35.5 -24t-45.5 -19.5t-60.5 -13t-80.5 -4.5q-49 0 -85.5 7t-62.5 19t-43.5 27.5t-27.5 31.5q-11 17 -18.5 41.5t-7.5 56.5q0 26 4 57t15 81l94 442h57l-94 -445q-11 -47 -14 -75t-3 -52
q0 -47 19 -73q16 -24 57 -44t116 -20q36 0 63.5 3t48.5 9t37.5 15t30.5 21q15 12 27 28t23 39.5t21 55.5t19 76l99 462h58zM524 945h68l-165 -128h-53zM670 945h69l-165 -128h-53z" />
    <glyph glyph-name="uhungarumlaut" unicode="&#x171;" horiz-adv-x="662" 
d="M216 561l-74 -344q-5 -25 -8 -45t-3 -37q0 -40 18 -61q14 -15 38 -22t57 -7q61 0 111 15t99 39l99 462h58l-119 -561h-40v76h-5l-38 -39q-25 -12 -73 -28t-114 -16q-45 0 -77 10.5t-51 34.5q-23 30 -23 82q0 20 4 45.5t10 54.5l72 341h59zM428 756h68l-165 -128h-53z
M574 756h69l-165 -128h-53z" />
    <glyph glyph-name="Uogonek" unicode="&#x172;" horiz-adv-x="787" 
d="M393 -223q-38 0 -54.5 6t-24.5 15q-16 14 -16 49q0 31 8.5 49.5t20.5 31.5q11 11 38 29t60 36q-38 -6 -92 -6q-49 0 -85.5 7t-62.5 19t-43.5 27.5t-27.5 31.5q-11 17 -18.5 41.5t-7.5 56.5q0 26 4 57t15 81l94 442h57l-94 -445q-11 -47 -14 -75t-3 -52q0 -47 19 -73
q16 -24 57 -44t116 -20q36 0 63.5 3t48.5 9t37.5 15t30.5 21q15 12 27 28t23 39.5t21 55.5t19 76l99 462h58l-99 -464q-11 -50 -23 -88t-25.5 -66t-29 -48.5t-34.5 -35.5q-29 -23 -59 -41t-68 -41q-32 -20 -49 -34.5t-24 -22.5t-11.5 -20.5t-4.5 -32.5q0 -9 1.5 -17.5
t6.5 -13.5q7 -6 18.5 -9t33.5 -3q28 0 50 3t36 5l-6 -34q-12 -3 -34.5 -6.5t-51.5 -3.5z" />
    <glyph glyph-name="uogonek" unicode="&#x173;" horiz-adv-x="662" 
d="M452 76h-5l-38 -39q-25 -12 -73 -28t-114 -16q-45 0 -77 10.5t-51 34.5q-23 30 -23 82q0 20 4 45.5t10 54.5l72 341h59l-74 -344q-5 -25 -8 -45t-3 -37q0 -40 18 -61q14 -15 38 -22t57 -7q61 0 111 15t99 39l99 462h58l-119 -561h-8l-50 -31q-32 -21 -51.5 -36.5
t-26.5 -23.5q-6 -8 -10.5 -21t-4.5 -32q0 -22 9 -31q6 -6 17.5 -9t33.5 -3q29 0 51 3t36 5l-7 -34q-12 -3 -34 -6.5t-52 -3.5q-38 0 -54.5 6t-24.5 15q-7 7 -11 18t-4 30q0 32 8 50t21 32q12 13 46 34t75 44z" />
    <glyph glyph-name="Wcircumflex" unicode="&#x174;" horiz-adv-x="1134" 
d="M802 0h-105l-45 692h-18l-368 -692h-105l-17 750h58l13 -692h22l369 692h97l46 -692h23l331 692h63zM808 824h-50l-77 88l-118 -88h-57l155 123h46z" />
    <glyph glyph-name="wcircumflex" unicode="&#x175;" horiz-adv-x="962" 
d="M672 0h-97l-46 508h-22l-273 -508h-101l-27 561h56l22 -508h22l274 508h98l44 -508h22l256 508h61zM687 635h-50l-77 88l-118 -88h-57l155 123h46z" />
    <glyph glyph-name="Ycircumflex" unicode="&#x176;" horiz-adv-x="686" 
d="M292 0h-58l59 279l-174 471h61l148 -404h11l328 404h74l-389 -472zM574 824h-50l-77 88l-118 -88h-57l155 123h46z" />
    <glyph glyph-name="ycircumflex" unicode="&#x177;" horiz-adv-x="594" 
d="M108 -275h-63l168 275h-39l-95 561h59l83 -510h23l306 510h67zM499 635h-50l-77 88l-118 -88h-57l155 123h46z" />
    <glyph glyph-name="Ydieresis" unicode="&#x178;" horiz-adv-x="686" 
d="M292 0h-58l59 279l-174 471h61l148 -404h11l328 404h74l-389 -472zM331 838q-19 0 -25 7q-4 5 -4 15q0 12 4 22t12 15q4 2 10.5 4t15.5 2q18 0 25 -7q4 -5 4 -15q0 -25 -15 -37q-8 -6 -27 -6zM505 838q-19 0 -25 7q-5 7 -5 15q0 12 4.5 22t12.5 15q4 2 10.5 4t15.5 2
q20 0 24 -7q5 -5 5 -15q0 -11 -4 -21.5t-11 -15.5q-8 -6 -27 -6z" />
    <glyph glyph-name="Zacute" unicode="&#x179;" horiz-adv-x="696" 
d="M701 673l-637 -609l-2 -12h532l-23 -52h-590l16 74l637 612l3 12h-474l22 52h532zM538 948h81l-196 -134h-61z" />
    <glyph glyph-name="zacute" unicode="&#x17a;" horiz-adv-x="547" 
d="M543 489l-468 -425l-3 -13h392l-26 -51h-446l14 69l470 430l3 11h-351l24 51h406zM449 759h81l-196 -134h-61z" />
    <glyph glyph-name="Zdotaccent" unicode="&#x17b;" horiz-adv-x="696" 
d="M701 673l-637 -609l-2 -12h532l-23 -52h-590l16 74l637 612l3 12h-474l22 52h532zM452 828q-20 0 -26 8q-5 7 -5 17q0 29 17 41q10 7 29 7q20 0 26 -8q5 -6 5 -18q0 -28 -15 -40q-12 -7 -31 -7z" />
    <glyph glyph-name="zdotaccent" unicode="&#x17c;" horiz-adv-x="547" 
d="M543 489l-468 -425l-3 -13h392l-26 -51h-446l14 69l470 430l3 11h-351l24 51h406zM360 639q-20 0 -26 8q-5 7 -5 17q0 29 17 41q10 7 29 7q20 0 26 -8q5 -6 5 -18q0 -28 -15 -40q-12 -7 -31 -7z" />
    <glyph glyph-name="Zcaron" unicode="&#x17d;" horiz-adv-x="696" 
d="M701 673l-637 -609l-2 -12h532l-23 -52h-590l16 74l637 612l3 12h-474l22 52h532zM320 947h50l77 -88l118 88h57l-155 -123h-46z" />
    <glyph glyph-name="zcaron" unicode="&#x17e;" horiz-adv-x="547" 
d="M543 489l-468 -425l-3 -13h392l-26 -51h-446l14 69l470 430l3 11h-351l24 51h406zM229 758h50l77 -88l118 88h57l-155 -123h-46z" />
    <glyph glyph-name="florin" unicode="&#x192;" horiz-adv-x="690" 
d="M388 438h172l-19 -48h-168l-92 -304q-17 -57 -36.5 -95t-45 -60.5t-59.5 -31.5t-82 -9q-36 0 -65 3.5t-40 4.5l10 45q15 -2 38 -4.5t56 -2.5q40 0 66.5 9t44.5 28t31 48.5t25 70.5l91 298h-167l17 48h165l37 126q16 56 35 94t44.5 60.5t60 32t81.5 9.5q37 0 65.5 -3.5
t39.5 -4.5l-9 -46q-16 2 -39 4.5t-55 2.5q-36 0 -61 -8t-44 -26t-33 -47.5t-27 -72.5z" />
    <glyph glyph-name="Scommaaccent" unicode="&#x218;" horiz-adv-x="643" 
d="M547 235q0 -27 -5 -55t-15 -54.5t-26 -50t-38 -40.5q-35 -26 -91.5 -36t-125.5 -10q-74 0 -136 8t-100 17l8 53q44 -8 98 -16t133 -8q71 0 113.5 10.5t62.5 25.5q15 12 26 28.5t18.5 36t11.5 41t4 41.5q0 33 -12 51q-11 14 -36.5 26.5t-59 24.5t-71 24t-71.5 25.5t-61 29
t-39 34.5q-8 13 -12 31t-5 38q0 26 4.5 53.5t14 53.5t25 49.5t38.5 41.5q31 25 84 39t132 14q72 0 127.5 -6t90.5 -11l-8 -52q-38 5 -92.5 10.5t-123.5 5.5q-67 0 -109.5 -11t-63.5 -30q-29 -26 -43 -67t-14 -80q0 -31 10 -47q8 -14 32.5 -26.5t58.5 -25t72 -25t73 -25.5
t62.5 -28t40.5 -31q10 -14 14.5 -34t3.5 -43zM239 -87h59l-98 -133h-47z" />
    <glyph glyph-name="scommaaccent" unicode="&#x219;" horiz-adv-x="514" 
d="M430 181q1 -43 -16 -85.5t-53 -67.5q-29 -19 -71.5 -26.5t-101.5 -7.5q-48 0 -94 5.5t-76 12.5l2 51q32 -7 77.5 -13.5t93.5 -6.5q53 0 84.5 6t50.5 19q20 13 32.5 41t12.5 63q0 12 -3.5 25t-14.5 21q-15 13 -45.5 23t-64.5 20.5t-65.5 22.5t-49.5 29q-25 24 -25 68
q0 49 19.5 92.5t51.5 66.5q29 20 69.5 28t94.5 8q50 0 91 -5.5t65 -9.5l-8 -48q-29 5 -68.5 9.5t-82.5 4.5q-51 0 -80.5 -6.5t-49.5 -21.5q-22 -17 -33.5 -46.5t-11.5 -63.5q0 -28 16 -43q15 -13 46 -24t65 -21t65.5 -21t46.5 -24q16 -14 23 -32t8 -43zM184 -87h59l-98 -133
h-47z" />
    <glyph glyph-name="uni021A" unicode="&#x21a;" horiz-adv-x="651" 
d="M689 698h-266l-148 -698h-59l148 698h-270l25 52h592zM216 -87h59l-98 -133h-47z" />
    <glyph glyph-name="uni021B" unicode="&#x21b;" horiz-adv-x="440" 
d="M446 512h-198l-75 -351q-5 -20 -7 -33.5t-2 -24.5q0 -35 20 -46.5t54 -11.5q38 0 70.5 6.5t50.5 11.5l-13 -50q-21 -6 -54.5 -12.5t-73.5 -6.5q-60 0 -88 24.5t-28 72.5q0 14 3 32t8 38l76 351h-116l18 49h108l25 117l62 15l-27 -132h208zM168 -87h59l-98 -133h-47z" />
    <glyph glyph-name="dotlessj" unicode="&#x237;" horiz-adv-x="268" 
d="M93 -82q-10 -47 -24 -82.5t-37 -60.5t-57.5 -37.5t-85.5 -12.5q-31 0 -58 3t-37 5l2 45q18 -2 39.5 -4t50.5 -2q36 0 60.5 8t41.5 26t28 47t20 71l136 637h58z" />
    <glyph glyph-name="circumflex" unicode="&#x2c6;" horiz-adv-x="370" 
d="M401 635h-50l-77 88l-118 -88h-57l155 123h46z" />
    <glyph glyph-name="caron" unicode="&#x2c7;" horiz-adv-x="370" 
d="M125 758h50l77 -88l118 88h57l-155 -123h-46z" />
    <glyph glyph-name="uni02C9" unicode="&#x2c9;" horiz-adv-x="370" 
d="M134 693h253l-10 -42h-253z" />
    <glyph glyph-name="breve" unicode="&#x2d8;" horiz-adv-x="391" 
d="M130 768q-2 -7 -3 -14.5t-1 -15.5q0 -29 19.5 -46t70.5 -17q58 0 84 23.5t31 69.5h40q-3 -25 -11.5 -48t-26.5 -41t-47.5 -28.5t-73.5 -10.5q-60 0 -92.5 22.5t-32.5 72.5q0 7 1 16t3 17h39z" />
    <glyph glyph-name="dotaccent" unicode="&#x2d9;" horiz-adv-x="370" 
d="M256 639q-20 0 -26 8q-5 7 -5 17q0 29 17 41q10 7 29 7q20 0 26 -8q5 -6 5 -18q0 -28 -15 -40q-12 -7 -31 -7z" />
    <glyph glyph-name="ring" unicode="&#x2da;" horiz-adv-x="370" 
d="M253 616q-39 0 -55.5 16.5t-16.5 46.5q0 18 6.5 43t25.5 41q25 23 69 23q42 0 57.5 -16.5t15.5 -42.5q0 -20 -7.5 -46t-24.5 -42q-12 -11 -29.5 -17t-40.5 -6zM257 645q31 0 48 18q8 11 13 28t5 34q0 15 -9.5 23.5t-33.5 8.5q-34 0 -48 -17q-8 -11 -13.5 -27t-5.5 -34
q0 -16 9 -25t35 -9z" />
    <glyph glyph-name="ogonek" unicode="&#x2db;" horiz-adv-x="324" 
d="M159 -42q-32 -18 -47.5 -29.5t-22.5 -19.5q-6 -8 -11 -20.5t-5 -32.5q0 -9 2 -17.5t7 -13.5q6 -6 18 -9t33 -3q29 0 51 3t36 5l-7 -34q-11 -3 -33.5 -6.5t-52.5 -3.5q-38 0 -54.5 6t-24.5 15q-7 7 -11 18.5t-4 30.5q0 31 8 49.5t21 31.5q13 14 46 33t72 39h52z" />
    <glyph glyph-name="tilde" unicode="&#x2dc;" horiz-adv-x="370" 
d="M103 644q11 44 37 68t63 24q23 0 40 -10t31.5 -21.5t28 -21.5t30.5 -10q20 0 33.5 13t24.5 43h39q-13 -48 -38.5 -70.5t-61.5 -22.5q-24 0 -41 10t-31.5 21.5t-28.5 21.5t-30 10q-40 0 -58 -55h-38z" />
    <glyph glyph-name="hungarumlaut" unicode="&#x2dd;" horiz-adv-x="472" 
d="M295 756h68l-165 -128h-53zM441 756h69l-165 -128h-53z" />
    <glyph glyph-name="uni0394" unicode="&#x394;" horiz-adv-x="744" 
d="M409 750h110l107 -698l-10 -52h-637l10 52zM61 57h503l-95 635h-29z" />
    <glyph glyph-name="uni03A9" unicode="&#x3a9;" horiz-adv-x="833" 
d="M681 0h-294l22 107q51 7 97 20.5t78 39.5q42 32 76 92.5t54 152.5q17 81 13.5 140t-29.5 93q-23 30 -70 46t-121 16q-76 0 -124.5 -14.5t-81.5 -39.5q-45 -34 -80.5 -99t-53.5 -147q-20 -89 -13.5 -142.5t31.5 -87.5q21 -29 59.5 -46t88.5 -25l-22 -106h-295l25 54h234
l3 15q-41 8 -77.5 26.5t-62.5 49.5q-13 15 -23.5 40t-15.5 59.5t-2.5 78t14.5 97.5q20 87 58.5 160t95.5 115q44 32 102 49t142 17q52 0 91 -6.5t67.5 -17.5t47.5 -25.5t33 -30.5q30 -35 39 -102.5t-15 -177.5q-23 -103 -62.5 -170.5t-89.5 -102.5q-38 -27 -83 -39t-89 -20
l-3 -15h262z" />
    <glyph glyph-name="uni03BC" unicode="&#x3bc;" horiz-adv-x="659" 
d="M229 -7q-94 0 -122 63l-72 -329h-58l179 834h59l-77 -358q-4 -20 -5.5 -36.5t-1.5 -30.5q0 -39 18 -60q15 -18 42 -24.5t53 -6.5q65 0 115 17.5t98 42.5l97 456h59l-121 -561h-41l2 78h-3l-38 -40q-10 -6 -28.5 -14t-42.5 -14.5t-53 -11.5t-59 -5z" />
    <glyph glyph-name="pi" unicode="&#x3c0;" horiz-adv-x="683" 
d="M215 512h-138l19 49h604l-21 -49h-134l-70 -343q-5 -23 -8 -41.5t-3 -33.5q0 -48 52 -48q24 0 43.5 3.5t31.5 7.5l-13 -52q-15 -5 -36.5 -8t-45.5 -3q-93 0 -93 89q0 20 3.5 40t8.5 46l72 343h-216l-155 -512h-58z" />
    <glyph glyph-name="Wgrave" unicode="&#x1e80;" horiz-adv-x="1134" 
d="M802 0h-105l-45 692h-18l-368 -692h-105l-17 750h58l13 -692h22l369 692h97l46 -692h23l331 692h63zM577 947l128 -130h-53l-144 130h69z" />
    <glyph glyph-name="wgrave" unicode="&#x1e81;" horiz-adv-x="962" 
d="M672 0h-97l-46 508h-22l-273 -508h-101l-27 561h56l22 -508h22l274 508h98l44 -508h22l256 508h61zM454 758l128 -130h-53l-144 130h69z" />
    <glyph glyph-name="Wacute" unicode="&#x1e82;" horiz-adv-x="1134" 
d="M802 0h-105l-45 692h-18l-368 -692h-105l-17 750h58l13 -692h22l369 692h97l46 -692h23l331 692h63zM791 948h81l-196 -134h-61z" />
    <glyph glyph-name="wacute" unicode="&#x1e83;" horiz-adv-x="962" 
d="M672 0h-97l-46 508h-22l-273 -508h-101l-27 561h56l22 -508h22l274 508h98l44 -508h22l256 508h61zM665 759h81l-196 -134h-61z" />
    <glyph glyph-name="Wdieresis" unicode="&#x1e84;" horiz-adv-x="1134" 
d="M802 0h-105l-45 692h-18l-368 -692h-105l-17 750h58l13 -692h22l369 692h97l46 -692h23l331 692h63zM579 838q-19 0 -25 7q-4 5 -4 15q0 12 4 22t12 15q4 2 10.5 4t15.5 2q18 0 25 -7q4 -5 4 -15q0 -25 -15 -37q-8 -6 -27 -6zM753 838q-19 0 -25 7q-5 7 -5 15
q0 12 4.5 22t12.5 15q4 2 10.5 4t15.5 2q20 0 24 -7q5 -5 5 -15q0 -11 -4 -21.5t-11 -15.5q-8 -6 -27 -6z" />
    <glyph glyph-name="wdieresis" unicode="&#x1e85;" horiz-adv-x="962" 
d="M672 0h-97l-46 508h-22l-273 -508h-101l-27 561h56l22 -508h22l274 508h98l44 -508h22l256 508h61zM459 649q-19 0 -25 7q-4 5 -4 15q0 12 4 22t12 15q4 2 10.5 4t15.5 2q18 0 25 -7q4 -5 4 -15q0 -25 -15 -37q-8 -6 -27 -6zM633 649q-19 0 -25 7q-5 7 -5 15q0 12 4.5 22
t12.5 15q4 2 10.5 4t15.5 2q20 0 24 -7q5 -5 5 -15q0 -11 -4 -21.5t-11 -15.5q-8 -6 -27 -6z" />
    <glyph glyph-name="Ygrave" unicode="&#x1ef2;" horiz-adv-x="686" 
d="M292 0h-58l59 279l-174 471h61l148 -404h11l328 404h74l-389 -472zM335 947l128 -130h-53l-144 130h69z" />
    <glyph glyph-name="ygrave" unicode="&#x1ef3;" horiz-adv-x="594" 
d="M108 -275h-63l168 275h-39l-95 561h59l83 -510h23l306 510h67zM266 758l128 -130h-53l-144 130h69z" />
    <glyph glyph-name="endash" unicode="&#x2013;" horiz-adv-x="617" 
d="M532 287h-463l12 55h464z" />
    <glyph glyph-name="emdash" unicode="&#x2014;" horiz-adv-x="805" 
d="M721 287h-652l12 55h652z" />
    <glyph glyph-name="quoteleft" unicode="&#x2018;" horiz-adv-x="267" 
d="M124 494h-66l178 256h55z" />
    <glyph glyph-name="quoteright" unicode="&#x2019;" horiz-adv-x="267" 
d="M263 750h67l-179 -256h-55z" />
    <glyph glyph-name="quotesinglbase" unicode="&#x201a;" horiz-adv-x="267" 
d="M99 139h67l-179 -256h-55z" />
    <glyph glyph-name="quotedblleft" unicode="&#x201c;" horiz-adv-x="442" 
d="M302 494h-66l178 256h56zM124 494h-66l179 256h55z" />
    <glyph glyph-name="quotedblright" unicode="&#x201d;" horiz-adv-x="442" 
d="M432 750h67l-178 -256h-56zM255 750h67l-179 -256h-55z" />
    <glyph glyph-name="quotedblbase" unicode="&#x201e;" horiz-adv-x="442" 
d="M97 139h67l-178 -256h-56zM274 139h68l-179 -256h-56z" />
    <glyph glyph-name="dagger" unicode="&#x2020;" horiz-adv-x="564" 
d="M550 479h-204l-123 -575l-59 -14l126 589h-215l24 51h201l47 220h56l-47 -220h217z" />
    <glyph glyph-name="daggerdbl" unicode="&#x2021;" horiz-adv-x="564" 
d="M552 492h-205l-64 -304h217l-24 -52h-204l-50 -232l-59 -14l53 246h-215l25 52h201l65 304h-215l24 51h201l44 207h56l-44 -207h217z" />
    <glyph glyph-name="bullet" unicode="&#x2022;" horiz-adv-x="467" 
d="M128 311q0 45 30.5 75.5t75.5 30.5q22 0 41 -8.5t33.5 -22.5t23 -33.5t8.5 -41.5t-8.5 -41t-23 -33.5t-33.5 -22.5t-41 -8q-45 0 -75.5 30t-30.5 75z" />
    <glyph glyph-name="ellipsis" unicode="&#x2026;" horiz-adv-x="687" 
d="M99 3q-11 -8 -32 -8q-23 0 -30 9q-3 3 -4 7.5t-1 9.5q0 32 17 44q11 8 32 8q22 0 30 -9q5 -6 5 -18q0 -31 -17 -43zM326 3q-11 -8 -32 -8q-23 0 -30 9q-3 3 -4 7.5t-1 9.5q0 32 17 44q11 8 32 8q22 0 30 -9q5 -6 5 -18q0 -31 -17 -43zM554 3q-11 -8 -32 -8q-23 0 -30 9
q-3 3 -4 7.5t-1 9.5q0 32 17 44q11 8 32 8q22 0 30 -9q5 -6 5 -18q0 -31 -17 -43z" />
    <glyph glyph-name="perthousand" unicode="&#x2030;" horiz-adv-x="1422" 
d="M1362 295q0 -31 -5.5 -67.5t-17 -72.5t-29.5 -68t-43 -54q-48 -41 -132 -41q-48 0 -78.5 15t-45.5 36q-21 27 -21 87q0 37 6.5 75t19 73.5t30.5 65t41 48.5q24 20 55.5 29.5t77.5 9.5q42 0 74 -12t46 -33q22 -30 22 -91zM1236 66q17 14 31 41t24.5 58.5t16 64.5t5.5 60
q0 19 -3 34.5t-10 26.5q-10 18 -33.5 27t-53.5 9q-31 0 -54 -6.5t-43 -23.5q-17 -15 -31 -40.5t-24 -56t-16 -63t-6 -61.5q0 -39 13 -62q11 -17 32 -27t56 -10q32 0 54 6t42 23zM744 750h53l-524 -750h-53zM453 621q0 -36 -7 -74t-19.5 -73.5t-30.5 -65.5t-39 -49
q-49 -40 -132 -40q-48 0 -78.5 14.5t-45.5 34.5q-9 14 -15 35t-6 53q0 35 6 73t18.5 73t30.5 65t42 50t55.5 30.5t77.5 10.5q42 0 74 -12t47 -34q10 -14 16 -37.5t6 -53.5zM326 392q17 14 31 40t24.5 57.5t16 64.5t5.5 62q0 20 -3 35.5t-10 26.5q-10 17 -33.5 26t-53.5 9
q-31 0 -53.5 -6.5t-43.5 -24.5q-15 -13 -29 -37.5t-24.5 -55t-17 -64t-6.5 -63.5q0 -39 13 -62q11 -17 32 -27t56 -10q32 0 54 6t42 23zM936 295q0 -31 -5.5 -67.5t-17.5 -72.5t-30 -68t-43 -54q-47 -41 -132 -41q-48 0 -78.5 15t-44.5 36q-21 27 -21 87q0 37 6.5 75
t18.5 73.5t30 65t41 48.5q24 20 56 29.5t78 9.5q42 0 73.5 -12t46.5 -33q22 -30 22 -91zM810 66q17 14 31 41t24.5 58.5t16 64.5t5.5 60q0 38 -13 61q-10 18 -33.5 27t-53.5 9q-32 0 -54.5 -6.5t-42.5 -23.5q-17 -15 -31 -40.5t-24 -56t-16 -63t-6 -61.5q0 -20 3 -35.5
t10 -26.5q10 -17 31 -27t56 -10q32 0 54.5 6t42.5 23z" />
    <glyph glyph-name="guilsinglleft" unicode="&#x2039;" horiz-adv-x="309" 
d="M194 46l-156 207l10 47l246 219l-14 -68l-187 -169l-4 -19l117 -156z" />
    <glyph glyph-name="guilsinglright" unicode="&#x203a;" horiz-adv-x="309" 
d="M106 519l156 -207l-10 -47l-246 -219l13 68l187 169l4 19l-117 156z" />
    <glyph glyph-name="fraction" unicode="&#x2044;" horiz-adv-x="181" 
d="M406 750h53l-652 -750h-53z" />
    <glyph glyph-name="zero.superior" unicode="&#x2070;" 
d="M367 881q57 0 91.5 -15t51.5 -38q11 -14 18.5 -38t7.5 -62q0 -36 -7 -77.5t-21 -82t-34.5 -76t-47.5 -58.5q-28 -23 -64 -32.5t-86 -9.5q-56 0 -88 15.5t-50 39.5q-12 16 -19.5 41t-7.5 65q0 33 6.5 72.5t20 78.5t34 73.5t48.5 57.5q27 23 61 34.5t86 11.5zM283 436
q40 0 64.5 7t47.5 25q20 16 36.5 46.5t28.5 66.5t19 74t7 70q0 47 -18 73q-12 17 -38.5 27.5t-67.5 10.5q-33 0 -61.5 -8t-51.5 -27q-20 -17 -36.5 -46t-28.5 -63t-18.5 -70.5t-6.5 -67.5q0 -25 5.5 -44t13.5 -33q12 -18 37.5 -29.5t67.5 -11.5z" />
    <glyph glyph-name="four.superior" unicode="&#x2074;" 
d="M371 399h-47l28 131h-256l10 49l282 295h83l-64 -301h114l-22 -43h-101zM416 832h-14l-243 -254l-1 -5h203z" />
    <glyph glyph-name="five.superior" unicode="&#x2075;" 
d="M465 525q-10 -36 -25 -61.5t-40 -41t-62.5 -22.5t-92.5 -7q-39 0 -77 4.5t-64 9.5l6 42q29 -5 65 -9.5t75 -4.5q43 0 72 5.5t47.5 17t28.5 29.5t17 42q3 13 5 24.5t2 25.5q0 32 -24.5 45.5t-85.5 13.5q-18 0 -38.5 -1.5t-40.5 -3.5t-38 -4.5t-31 -4.5l53 250h305l-10 -44
h-258l-35 -162q19 3 48.5 6.5t62.5 3.5q80 0 111.5 -23t31.5 -69q0 -14 -2 -30.5t-6 -30.5z" />
    <glyph glyph-name="six.superior" unicode="&#x2076;" 
d="M436 529q3 11 4 22.5t1 21.5q0 33 -24 50t-85 17q-42 0 -81.5 -9t-71.5 -20q-3 -19 -5 -36t-2 -34q0 -52 27 -80t90 -28q68 0 101 23t46 73zM519 842q-97 -1 -158 -18t-94 -46q-28 -24 -50.5 -63.5t-33.5 -85.5l35 28q24 9 58 16t73 7q81 0 112 -27t31 -74
q0 -11 -1.5 -26t-4.5 -28q-15 -66 -62 -99t-141 -33q-83 0 -122 36.5t-39 112.5q0 32 6.5 68.5t21 72.5t36 69t51.5 58q42 35 107.5 53t164.5 20z" />
    <glyph glyph-name="seven.superior" unicode="&#x2077;" 
d="M469 822l1 8h-297l20 44h339l-10 -57l-325 -418h-58z" />
    <glyph glyph-name="eight.superior" unicode="&#x2078;" 
d="M229 647l-35 23q-7 9 -14 25.5t-7 42.5q0 70 46.5 106.5t134.5 36.5q89 0 125.5 -29.5t36.5 -80.5q0 -35 -16.5 -64.5t-42.5 -46.5l-46 -17l40 -21q11 -10 20.5 -28t9.5 -47q0 -71 -50 -113t-155 -42q-78 0 -122.5 28.5t-44.5 88.5q0 34 16.5 66.5t50.5 55.5zM351 841
q-71 0 -100 -27.5t-29 -72.5q0 -22 9 -36t29 -23t51 -14.5t76 -11.5q32 16 55.5 43t23.5 65q0 36 -26 56.5t-89 20.5zM250 633q-41 -18 -66 -46.5t-25 -70.5q0 -39 29 -61t98 -22q72 0 109 28.5t37 81.5q0 24 -11 39.5t-33.5 25t-57 15t-80.5 10.5z" />
    <glyph glyph-name="nine.superior" unicode="&#x2079;" 
d="M203 750q-3 -13 -4 -22.5t-1 -21.5q0 -17 5 -30.5t18 -23.5t35 -15t56 -5q37 0 75.5 8.5t70.5 19.5q4 19 6 37t2 29q0 56 -26 84.5t-92 28.5t-99.5 -21t-45.5 -68zM118 432q97 1 158 17.5t95 45.5q27 24 49 62t34 84l-34 -28q-24 -8 -55.5 -14.5t-70.5 -6.5
q-42 0 -70.5 8.5t-45.5 22.5t-24.5 33.5t-7.5 42.5q0 14 1.5 28.5t6.5 30.5q7 27 21 49.5t37 38.5t56.5 25t80.5 9q48 0 80 -10.5t51.5 -30t27.5 -47.5t8 -63q0 -30 -6.5 -66t-21 -72t-36 -69.5t-51.5 -58.5q-43 -35 -108.5 -53.5t-164.5 -20.5z" />
    <glyph glyph-name="zero.inferior" unicode="&#x2080;" 
d="M245 363q57 0 91.5 -15t51.5 -38q11 -14 18.5 -38t7.5 -62q0 -36 -7 -77.5t-21 -82t-34.5 -76t-47.5 -58.5q-28 -23 -64 -32.5t-86 -9.5q-56 0 -88 15.5t-50 39.5q-12 16 -19.5 41t-7.5 65q0 33 6.5 72.5t20 78.5t34 73.5t48.5 57.5q27 23 61 34.5t86 11.5zM161 -82
q40 0 64.5 7t47.5 25q20 16 36.5 46.5t28.5 66.5t19 74t7 70q0 47 -18 73q-12 17 -38.5 27.5t-67.5 10.5q-33 0 -61.5 -8t-51.5 -27q-20 -17 -36.5 -46t-28.5 -63t-18.5 -70.5t-6.5 -67.5q0 -25 5.5 -44t13.5 -33q12 -18 37.5 -29.5t67.5 -11.5z" />
    <glyph glyph-name="one.inferior" unicode="&#x2081;" 
d="M-9 -119l9 43h147l83 395q-1 0 -12.5 -2t-28 -4.5t-35.5 -5.5t-35.5 -5.5t-28 -4.5t-12.5 -2l9 42l203 32l-94 -445h132l-9 -43h-328z" />
    <glyph glyph-name="two.inferior" unicode="&#x2082;" 
d="M317 -119h-349l7 39q7 28 21 52t38 45t58.5 39.5t84.5 37.5q63 24 93.5 39.5t44.5 31.5q18 17 26.5 45.5t8.5 49.5q0 29 -25 44.5t-90 15.5q-23 0 -46 -2t-44.5 -5t-39.5 -6.5t-31 -6.5l10 41q33 8 77.5 14.5t85.5 6.5q87 0 121.5 -24t34.5 -74q0 -25 -11 -61t-36 -61
q-11 -11 -24 -20.5t-32 -19.5t-45.5 -21.5t-63.5 -25.5q-47 -18 -77 -34.5t-48 -32t-26.5 -31.5t-12.5 -32h312z" />
    <glyph glyph-name="three.inferior" unicode="&#x2083;" 
d="M374 223q-8 -30 -24 -50.5t-28 -29.5l-51 -20l43 -19q23 -21 23 -67q0 -8 -1.5 -22t-5.5 -28q-7 -28 -21 -49t-38.5 -35.5t-60.5 -21.5t-86 -7q-45 0 -82 5.5t-61 10.5l9 43q25 -5 60.5 -10.5t73.5 -5.5q77 0 111.5 18.5t45.5 56.5q3 11 4.5 23t1.5 20q0 40 -32 52.5
t-93 12.5h-85l8 42h81q34 0 60.5 3.5t45 12.5t31 25t18.5 41q3 9 4 19t1 17q0 28 -22.5 44t-81.5 16q-41 0 -78 -5.5t-65 -10.5l9 40q29 7 70 12.5t77 5.5q42 0 69.5 -7t44 -19.5t23.5 -29.5t7 -37q0 -10 -1 -22.5t-4 -23.5z" />
    <glyph glyph-name="four.inferior" unicode="&#x2084;" 
d="M254 -119h-47l28 131h-256l10 49l282 295h83l-64 -301h114l-22 -43h-101zM299 314h-14l-243 -254l-1 -5h203z" />
    <glyph glyph-name="five.inferior" unicode="&#x2085;" 
d="M347 7q-10 -36 -25 -61.5t-40 -41t-62.5 -22.5t-92.5 -7q-39 0 -77 4.5t-64 9.5l6 42q29 -5 65 -9.5t75 -4.5q43 0 72 5.5t47.5 17t28.5 29.5t17 42q3 13 5 24.5t2 25.5q0 32 -24.5 45.5t-85.5 13.5q-18 0 -38.5 -1.5t-40.5 -3.5t-38 -4.5t-31 -4.5l53 250h305l-10 -44
h-258l-35 -162q19 3 48.5 6.5t62.5 3.5q80 0 111.5 -23t31.5 -69q0 -14 -2 -30.5t-6 -30.5z" />
    <glyph glyph-name="six.inferior" unicode="&#x2086;" 
d="M318 11q3 11 4 22.5t1 21.5q0 33 -24 50t-85 17q-42 0 -81.5 -9t-71.5 -20q-3 -19 -5 -36t-2 -34q0 -52 27 -80t90 -28q68 0 101 23t46 73zM401 324q-97 -1 -158 -18t-94 -46q-28 -24 -50.5 -63.5t-33.5 -85.5l35 28q24 9 58 16t73 7q81 0 112 -27t31 -74q0 -11 -1.5 -26
t-4.5 -28q-15 -66 -62 -99t-141 -33q-83 0 -122 36.5t-39 112.5q0 32 6.5 68.5t21 72.5t36 69t51.5 58q42 35 107.5 53t164.5 20z" />
    <glyph glyph-name="seven.inferior" unicode="&#x2087;" 
d="M350 304l1 8h-297l20 44h339l-10 -57l-325 -418h-58z" />
    <glyph glyph-name="eight.inferior" unicode="&#x2088;" 
d="M112 130l-35 23q-7 9 -14 25.5t-7 42.5q0 70 46.5 106.5t134.5 36.5q89 0 125.5 -29.5t36.5 -80.5q0 -35 -16.5 -64.5t-42.5 -46.5l-46 -17l40 -21q11 -10 20.5 -28t9.5 -47q0 -71 -50 -113t-155 -42q-78 0 -122.5 28.5t-44.5 88.5q0 34 16.5 66.5t50.5 55.5zM234 324
q-71 0 -100 -27.5t-29 -72.5q0 -22 9 -36t29 -23t51 -14.5t76 -11.5q32 16 55.5 43t23.5 65q0 36 -26 56.5t-89 20.5zM133 116q-41 -18 -66 -46.5t-25 -70.5q0 -39 29 -61t98 -22q72 0 109 28.5t37 81.5q0 24 -11 39.5t-33.5 25t-57 15t-80.5 10.5z" />
    <glyph glyph-name="nine.inferior" unicode="&#x2089;" 
d="M85 232q-3 -13 -4 -22.5t-1 -21.5q0 -17 5 -30.5t18 -23.5t35 -15t56 -5q37 0 75.5 8.5t70.5 19.5q4 19 6 37t2 29q0 56 -26 84.5t-92 28.5t-99.5 -21t-45.5 -68zM0 -86q97 1 158 17.5t95 45.5q27 24 49 62t34 84l-34 -28q-24 -8 -55.5 -14.5t-70.5 -6.5q-42 0 -70.5 8.5
t-45.5 22.5t-24.5 33.5t-7.5 42.5q0 14 1.5 28.5t6.5 30.5q7 27 21 49.5t37 38.5t56.5 25t80.5 9q48 0 80 -10.5t51.5 -30t27.5 -47.5t8 -63q0 -30 -6.5 -66t-21 -72t-36 -69.5t-51.5 -58.5q-43 -35 -108.5 -53.5t-164.5 -20.5z" />
    <glyph glyph-name="Euro" unicode="&#x20ac;" horiz-adv-x="691" 
d="M374 -10q-80 0 -126 22t-72 58q-17 24 -26.5 60t-9.5 86q0 15 1 33t3 35h-114l21 40h97q2 14 7 41t15 68h-109l23 40h98q47 151 125 215q42 33 98.5 52.5t135.5 19.5q63 0 111.5 -7t74.5 -12l-9 -50q-29 5 -77 11t-105 6q-58 0 -107 -14t-85 -46q-26 -22 -53 -64
t-49 -111h321l-21 -40h-312q-8 -23 -13.5 -53t-10.5 -56h288l-20 -40h-272q-2 -15 -3 -28.5t-1 -30.5q0 -37 6.5 -67t18.5 -49q20 -31 58.5 -48.5t103.5 -17.5t113.5 7t87.5 14l-12 -47q-38 -11 -87.5 -19t-112.5 -8z" />
    <glyph glyph-name="uni20B9" unicode="&#x20b9;" horiz-adv-x="691" 
d="M129 548h329q6 39 -3 69t-26 47q-8 7 -18.5 13.5t-26 11.5t-36.5 7.5t-51 2.5h-143l17 51h537l-15 -51h-236v-4q29 -17 48.5 -55.5t12.5 -91.5h149l-16 -51h-141q-16 -56 -44 -92.5t-59 -57.5q-12 -8 -41.5 -18.5t-57.5 -18.5l-1 -4q13 -8 24.5 -16.5t20.5 -19.5
q7 -9 19 -34t27.5 -61.5t32.5 -81.5t34 -93h-68q-23 64 -41 112t-33 81t-27.5 53t-23.5 29q-11 10 -36 15t-69 5h-104l18 51h135q44 0 71 4t48 12q35 14 67 47t46 88h-336z" />
    <glyph glyph-name="uni20BA" unicode="&#x20ba;" horiz-adv-x="691" 
d="M39 236l110 60l26 122l-110 -60l12 55l110 59l59 278h56l-51 -245l229 126l-11 -54l-230 -126l-26 -122l229 124l-11 -54l-229 -125l-48 -221q10 -2 26 -4t37 -2q129 0 220.5 71.5t126.5 211.5l55 -13q-18 -69 -50.5 -128.5t-82.5 -103t-118.5 -68.5t-158.5 -25
q-31 0 -66.5 3.5t-55.5 8.5l50 237l-110 -60z" />
    <glyph glyph-name="afii61289" unicode="&#x2113;" horiz-adv-x="438" 
d="M137 242l-57 -63l-33 38l90 100v260q0 39 11 67.5t29.5 47t43.5 27.5t52 9q57 0 84.5 -33t27.5 -87q0 -67 -36 -127.5t-93 -122.5l-45 -50v-177q0 -43 17.5 -59t45.5 -16q25 0 47.5 12t39.5 26l33 -51q-20 -17 -52.5 -35.5t-82.5 -18.5q-57 0 -89.5 33t-32.5 91v129z
M211 397l22 27q14 17 28 36.5t25.5 40t18.5 42.5t7 44q0 31 -8.5 52t-36.5 21q-11 0 -21.5 -4t-18 -14.5t-12 -30.5t-4.5 -51v-163z" />
    <glyph glyph-name="trademark" unicode="&#x2122;" horiz-adv-x="939" 
d="M832 400v301h-14l-111 -255h-62l-109 255h-14v-301h-45v350h86l107 -253h14l110 253h83v-350h-45zM407 708h-135v-308h-45v308h-141l14 42h317z" />
    <glyph glyph-name="Omega" unicode="&#x2126;" horiz-adv-x="833" 
d="M681 0h-294l22 107q51 7 97 20.5t78 39.5q42 32 76 92.5t54 152.5q17 81 13.5 140t-29.5 93q-23 30 -70 46t-121 16q-76 0 -124.5 -14.5t-81.5 -39.5q-45 -34 -80.5 -99t-53.5 -147q-20 -89 -13.5 -142.5t31.5 -87.5q21 -29 59.5 -46t88.5 -25l-22 -106h-295l25 54h234
l3 15q-41 8 -77.5 26.5t-62.5 49.5q-13 15 -23.5 40t-15.5 59.5t-2.5 78t14.5 97.5q20 87 58.5 160t95.5 115q44 32 102 49t142 17q52 0 91 -6.5t67.5 -17.5t47.5 -25.5t33 -30.5q30 -35 39 -102.5t-15 -177.5q-23 -103 -62.5 -170.5t-89.5 -102.5q-38 -27 -83 -39t-89 -20
l-3 -15h262z" />
    <glyph glyph-name="estimated" unicode="&#x212e;" horiz-adv-x="646" 
d="M167 284v-196q65 -63 155 -63q72 0 122.5 34t86.5 95q10 -5 18.5 -11t17.5 -11q-22 -33 -46.5 -59.5t-54 -45.5t-65 -29t-79.5 -10q-64 0 -115 23t-87 63.5t-55.5 94t-19.5 115.5q0 61 19 115t55 94.5t87 63.5t116 23q66 0 118 -23t87.5 -63t55 -94t21.5 -116h-437z
M479 478q-65 65 -157 65q-94 0 -155 -64v-158h312v157z" />
    <glyph glyph-name="partialdiff" unicode="&#x2202;" horiz-adv-x="554" 
d="M502 489q0 -42 -6 -92.5t-19 -101.5q-38 -154 -105 -230t-159 -76q-79 0 -121 46.5t-42 139.5q0 72 20 131.5t54 102t80 66.5t98 24q48 0 80 -20.5t48 -46.5q2 14 3 29.5t1 29.5q0 90 -36 132.5t-94 42.5q-51 0 -95 -27l-21 55q20 13 53.5 23t71.5 10q89 0 139 -60
t50 -178zM419 355q-10 35 -42 61t-77 26q-44 0 -78 -25t-57 -64t-35 -87t-12 -94q0 -66 27.5 -96t68.5 -30q68 0 122.5 77t82.5 232z" />
    <glyph glyph-name="Delta" unicode="&#x2206;" horiz-adv-x="744" 
d="M409 750h110l107 -698l-10 -52h-637l10 52zM61 57h503l-95 635h-29z" />
    <glyph glyph-name="product" unicode="&#x220f;" horiz-adv-x="700" 
d="M559 -230v878h-419v-878h-57v930h533v-930h-57z" />
    <glyph glyph-name="summation" unicode="&#x2211;" horiz-adv-x="611" 
d="M32 -230v46l376 423l-354 409v52h501v-52h-431l355 -408l-374 -419h474v-51h-547z" />
    <glyph glyph-name="minus" unicode="&#x2212;" horiz-adv-x="691" 
d="M78 367h532v-51h-532v51z" />
    <glyph glyph-name="uni2215" unicode="&#x2215;" horiz-adv-x="181" 
d="M406 750h53l-652 -750h-53z" />
    <glyph glyph-name="uni2219" unicode="&#x2219;" horiz-adv-x="227" 
d="M135 301q-11 -8 -32 -8q-23 0 -30 9q-3 3 -4 7.5t-1 9.5q0 32 17 44q11 8 32 8q22 0 30 -9q5 -6 5 -18q0 -31 -17 -43z" />
    <glyph glyph-name="radical" unicode="&#x221a;" horiz-adv-x="505" 
d="M25 285l129 57l83 -259l193 657l46 -12l-216 -728h-47l-89 281l-81 -37z" />
    <glyph glyph-name="infinity" unicode="&#x221e;" horiz-adv-x="736" 
d="M370 238q-29 -44 -71.5 -74.5t-94.5 -30.5q-35 0 -64 11.5t-50 32t-33 49.5t-12 64q0 36 11.5 65t32.5 50t49.5 32.5t62.5 11.5q31 0 57 -9.5t47 -24.5t37.5 -33.5t28.5 -37.5h2q11 18 27 36.5t37 33.5t47 25t56 10q34 0 63 -11t50 -31.5t33 -49t12 -63.5
q0 -34 -11.5 -63.5t-31.5 -51t-48.5 -34t-62.5 -12.5q-57 0 -101.5 30.5t-70.5 74.5h-2zM401 292q27 -50 63.5 -77.5t76.5 -27.5q51 0 75 32t24 74t-24 72t-75 30q-45 0 -78 -28t-62 -75zM341 292q-26 45 -63.5 74t-76.5 29q-50 0 -74 -31.5t-24 -73.5q0 -46 27.5 -74.5
t70.5 -28.5q22 0 42.5 8.5t38 23t32.5 33.5t27 40z" />
    <glyph glyph-name="integral" unicode="&#x222b;" horiz-adv-x="467" 
d="M381 682q-6 3 -18 5.5t-24 2.5q-78 0 -78 -97v-653q0 -75 -32 -120t-104 -45q-17 0 -37 3t-31 8q5 15 8.5 27.5t7.5 27.5q9 -3 19 -5.5t24 -2.5q40 0 59.5 24.5t19.5 71.5v655q0 74 31.5 119.5t105.5 45.5q20 0 39 -4t28 -9q-5 -15 -9 -27.5t-9 -26.5z" />
    <glyph glyph-name="approxequal" unicode="&#x2248;" horiz-adv-x="691" 
d="M460 377q-37 0 -67 14t-56.5 30.5t-52.5 30.5t-54 14q-18 0 -37 -7.5t-38.5 -19.5t-39 -27.5t-37.5 -32.5v59q15 15 34 29t39.5 25t41.5 17.5t42 6.5q36 0 64.5 -14t55 -31t52 -31t54.5 -14q20 0 41 8t40.5 20.5t37.5 28t33 30.5v-60q-37 -34 -76 -55t-77 -21zM460 156
q-37 0 -67 14t-56.5 30.5t-52.5 30.5t-54 14q-18 0 -37 -7.5t-38.5 -19.5t-39 -27.5t-37.5 -32.5v59q15 15 34 29t39.5 25t41.5 17.5t42 6.5q36 0 64.5 -14t55 -31t52 -31t54.5 -14q20 0 41 8t40.5 20.5t37.5 28t33 30.5v-60q-37 -34 -76 -55t-77 -21z" />
    <glyph glyph-name="notequal" unicode="&#x2260;" horiz-adv-x="691" 
d="M78 478h319l73 124h54l-72 -124h161v-51h-191l-103 -175h294v-51h-323l-74 -127h-55l75 127h-158v51h187l102 175h-289v51z" />
    <glyph glyph-name="lessequal" unicode="&#x2264;" horiz-adv-x="691" 
d="M613 699v-56l-475 -234l475 -232v-56l-535 265v48zM613 0h-535v51h535v-51z" />
    <glyph glyph-name="greaterequal" unicode="&#x2265;" horiz-adv-x="690" 
d="M613 434v-48l-535 -265v56l475 232l-475 234v56zM78 51h535v-51h-535v51z" />
    <glyph glyph-name="lozenge" unicode="&#x25ca;" horiz-adv-x="540" 
d="M250 728h42l180 -365l-180 -363h-43l-180 363zM131 364l136 -290h4l139 289l-139 288h-4z" />
    <glyph glyph-name="uniF8FF" unicode="&#xf8ff;" horiz-adv-x="512" 
d="M222 117v67h56v-67h-56zM225 234l-2 17q0 56 13 81q7 13 18 27.5t28 31.5q16 15 26 26.5t15 21t7 18t2 17.5q0 36 -22.5 60.5t-53.5 24.5t-53.5 -22t-28.5 -73l-50 8q7 72 44 104.5t91 32.5t89 -35.5t35 -95.5q0 -32 -12.5 -58.5t-50.5 -61.5q-37 -33 -43 -52
q-6 -20 -6 -72h-46zM462 50v617h-412v-617h412zM512 718v-718h-512v718h512z" />
    <glyph glyph-name="fi" unicode="&#xfb01;" horiz-adv-x="690" 
d="M470 0l119 561h58l-119 -561h-58zM679 720q-11 -8 -32 -8q-20 0 -28 8q-4 4 -4.5 10t0.5 13q1 14 6 24t11 14q8 7 30 7q21 0 28 -8q4 -4 4.5 -10t-0.5 -14q-2 -26 -15 -36zM451 512h-198l-109 -512h-59l109 512h-118l19 49h109l12 57q12 56 30 93t43.5 59.5t59.5 32
t79 9.5q36 0 66 -3.5t47 -5.5l-8 -46q-19 2 -44 4.5t-60 2.5q-38 0 -63.5 -9t-43 -28t-28.5 -47.5t-20 -68.5l-11 -50h207z" />
    <glyph glyph-name="fl" unicode="&#xfb02;" horiz-adv-x="752" 
d="M695 810l-140 -657q-5 -19 -6.5 -32t-1.5 -22q0 -56 60 -56q27 0 47 3t37 7l-10 -47q-19 -5 -42.5 -8.5t-49.5 -3.5q-46 0 -73.5 20.5t-27.5 72.5q0 24 9 71l140 652h58zM451 512h-198l-109 -512h-59l109 512h-118l19 49h109l12 57q12 56 30 93t43.5 59.5t59.5 32t79 9.5
q36 0 66 -3.5t47 -5.5l-8 -46q-19 2 -44 4.5t-60 2.5q-38 0 -63.5 -9t-43 -28t-28.5 -47.5t-20 -68.5l-11 -50h207z" />
    <glyph glyph-name="commaaccent" horiz-adv-x="223" 
d="M98 -87h59l-98 -133h-47z" />
    <glyph glyph-name="zero.denominator" 
d="M276 483q57 0 91.5 -15t51.5 -38q11 -14 18.5 -38t7.5 -62q0 -36 -7 -77.5t-21 -82t-34.5 -76t-47.5 -58.5q-28 -23 -64 -32.5t-86 -9.5q-56 0 -88 15.5t-50 39.5q-12 16 -19.5 41t-7.5 65q0 33 6.5 72.5t20 78.5t34 73.5t48.5 57.5q27 23 61 34.5t86 11.5zM192 38
q40 0 64.5 7t47.5 25q20 16 36.5 46.5t28.5 66.5t19 74t7 70q0 47 -18 73q-12 17 -38.5 27.5t-67.5 10.5q-33 0 -61.5 -8t-51.5 -27q-20 -17 -36.5 -46t-28.5 -63t-18.5 -70.5t-6.5 -67.5q0 -25 5.5 -44t13.5 -33q12 -18 37.5 -29.5t67.5 -11.5z" />
    <glyph glyph-name="one.denominator" 
d="M20 1l9 43h147l83 395q-1 0 -12.5 -2t-28 -4.5t-35.5 -5.5t-35.5 -5.5t-28 -4.5t-12.5 -2l9 42l203 32l-94 -445h132l-9 -43h-328z" />
    <glyph glyph-name="two.denominator" 
d="M347 1h-349l7 39q7 28 21 52t38 45t58.5 39.5t84.5 37.5q63 24 93.5 39.5t44.5 31.5q18 17 26.5 45.5t8.5 49.5q0 29 -25 44.5t-90 15.5q-23 0 -46 -2t-44.5 -5t-39.5 -6.5t-31 -6.5l10 41q33 8 77.5 14.5t85.5 6.5q87 0 121.5 -24t34.5 -74q0 -25 -11 -61t-36 -61
q-11 -11 -24 -20.5t-32 -19.5t-45.5 -21.5t-63.5 -25.5q-47 -18 -77 -34.5t-48 -32t-26.5 -31.5t-12.5 -32h312z" />
    <glyph glyph-name="three.denominator" 
d="M404 343q-8 -30 -24 -50.5t-28 -29.5l-51 -20l43 -19q23 -21 23 -67q0 -8 -1.5 -22t-5.5 -28q-7 -28 -21 -49t-38.5 -35.5t-60.5 -21.5t-86 -7q-45 0 -82 5.5t-61 10.5l9 43q25 -5 60.5 -10.5t73.5 -5.5q77 0 111.5 18.5t45.5 56.5q3 11 4.5 23t1.5 20q0 40 -32 52.5
t-93 12.5h-85l8 42h81q34 0 60.5 3.5t45 12.5t31 25t18.5 41q3 9 4 19t1 17q0 28 -22.5 44t-81.5 16q-41 0 -78 -5.5t-65 -10.5l9 40q29 7 70 12.5t77 5.5q42 0 69.5 -7t44 -19.5t23.5 -29.5t7 -37q0 -10 -1 -22.5t-4 -23.5z" />
    <glyph glyph-name="four.denominator" 
d="M283 1h-47l28 131h-256l10 49l282 295h83l-64 -301h114l-22 -43h-101zM328 434h-14l-243 -254l-1 -5h203z" />
    <glyph glyph-name="five.denominator" 
d="M376 127q-10 -36 -25 -61.5t-40 -41t-62.5 -22.5t-92.5 -7q-39 0 -77 4.5t-64 9.5l6 42q29 -5 65 -9.5t75 -4.5q43 0 72 5.5t47.5 17t28.5 29.5t17 42q3 13 5 24.5t2 25.5q0 32 -24.5 45.5t-85.5 13.5q-18 0 -38.5 -1.5t-40.5 -3.5t-38 -4.5t-31 -4.5l53 250h305l-10 -44
h-258l-35 -162q19 3 48.5 6.5t62.5 3.5q80 0 111.5 -23t31.5 -69q0 -14 -2 -30.5t-6 -30.5z" />
    <glyph glyph-name="six.denominator" 
d="M348 131q3 11 4 22.5t1 21.5q0 33 -24 50t-85 17q-42 0 -81.5 -9t-71.5 -20q-3 -19 -5 -36t-2 -34q0 -52 27 -80t90 -28q68 0 101 23t46 73zM431 444q-97 -1 -158 -18t-94 -46q-28 -24 -50.5 -63.5t-33.5 -85.5l35 28q24 9 58 16t73 7q81 0 112 -27t31 -74
q0 -11 -1.5 -26t-4.5 -28q-15 -66 -62 -99t-141 -33q-83 0 -122 36.5t-39 112.5q0 32 6.5 68.5t21 72.5t36 69t51.5 58q42 35 107.5 53t164.5 20z" />
    <glyph glyph-name="seven.denominator" 
d="M380 424l1 8h-297l20 44h339l-10 -57l-325 -418h-58z" />
    <glyph glyph-name="eight.denominator" 
d="M141 249l-35 23q-7 9 -14 25.5t-7 42.5q0 70 46.5 106.5t134.5 36.5q89 0 125.5 -29.5t36.5 -80.5q0 -35 -16.5 -64.5t-42.5 -46.5l-46 -17l40 -21q11 -10 20.5 -28t9.5 -47q0 -71 -50 -113t-155 -42q-78 0 -122.5 28.5t-44.5 88.5q0 34 16.5 66.5t50.5 55.5zM263 443
q-71 0 -100 -27.5t-29 -72.5q0 -22 9 -36t29 -23t51 -14.5t76 -11.5q32 16 55.5 43t23.5 65q0 36 -26 56.5t-89 20.5zM162 235q-41 -18 -66 -46.5t-25 -70.5q0 -39 29 -61t98 -22q72 0 109 28.5t37 81.5q0 24 -11 39.5t-33.5 25t-57 15t-80.5 10.5z" />
    <glyph glyph-name="nine.denominator" 
d="M115 352q-3 -13 -4 -22.5t-1 -21.5q0 -17 5 -30.5t18 -23.5t35 -15t56 -5q37 0 75.5 8.5t70.5 19.5q4 19 6 37t2 29q0 56 -26 84.5t-92 28.5t-99.5 -21t-45.5 -68zM30 34q97 1 158 17.5t95 45.5q27 24 49 62t34 84l-34 -28q-24 -8 -55.5 -14.5t-70.5 -6.5
q-42 0 -70.5 8.5t-45.5 22.5t-24.5 33.5t-7.5 42.5q0 14 1.5 28.5t6.5 30.5q7 27 21 49.5t37 38.5t56.5 25t80.5 9q48 0 80 -10.5t51.5 -30t27.5 -47.5t8 -63q0 -30 -6.5 -66t-21 -72t-36 -69.5t-51.5 -58.5q-43 -35 -108.5 -53.5t-164.5 -20.5z" />
    <glyph glyph-name="zero.numerator" 
d="M338 758q57 0 91.5 -15t51.5 -38q11 -14 18.5 -38t7.5 -62q0 -36 -7 -77.5t-21 -82t-34.5 -76t-47.5 -58.5q-28 -23 -64 -32.5t-86 -9.5q-56 0 -88 15.5t-50 39.5q-12 16 -19.5 41t-7.5 65q0 33 6.5 72.5t20 78.5t34 73.5t48.5 57.5q27 23 61 34.5t86 11.5zM254 313
q40 0 64.5 7t47.5 25q20 16 36.5 46.5t28.5 66.5t19 74t7 70q0 47 -18 73q-12 17 -38.5 27.5t-67.5 10.5q-33 0 -61.5 -8t-51.5 -27q-20 -17 -36.5 -46t-28.5 -63t-18.5 -70.5t-6.5 -67.5q0 -25 5.5 -44t13.5 -33q12 -18 37.5 -29.5t67.5 -11.5z" />
    <glyph glyph-name="one.numerator" 
d="M79 276l9 43h147l83 395q-1 0 -12.5 -2t-28 -4.5t-35.5 -5.5t-35.5 -5.5t-28 -4.5t-12.5 -2l9 42l203 32l-94 -445h132l-9 -43h-328z" />
    <glyph glyph-name="two.numerator" 
d="M406 276h-349l7 39q7 28 21 52t38 45t58.5 39.5t84.5 37.5q63 24 93.5 39.5t44.5 31.5q18 17 26.5 45.5t8.5 49.5q0 29 -25 44.5t-90 15.5q-23 0 -46 -2t-44.5 -5t-39.5 -6.5t-31 -6.5l10 41q33 8 77.5 14.5t85.5 6.5q87 0 121.5 -24t34.5 -74q0 -25 -11 -61t-36 -61
q-11 -11 -24 -20.5t-32 -19.5t-45.5 -21.5t-63.5 -25.5q-47 -18 -77 -34.5t-48 -32t-26.5 -31.5t-12.5 -32h312z" />
    <glyph glyph-name="three.numerator" 
d="M464 618q-8 -30 -24 -50.5t-28 -29.5l-51 -20l43 -19q23 -21 23 -67q0 -8 -1.5 -22t-5.5 -28q-7 -28 -21 -49t-38.5 -35.5t-60.5 -21.5t-86 -7q-45 0 -82 5.5t-61 10.5l9 43q25 -5 60.5 -10.5t73.5 -5.5q77 0 111.5 18.5t45.5 56.5q3 11 4.5 23t1.5 20q0 40 -32 52.5
t-93 12.5h-85l8 42h81q34 0 60.5 3.5t45 12.5t31 25t18.5 41q3 9 4 19t1 17q0 28 -22.5 44t-81.5 16q-41 0 -78 -5.5t-65 -10.5l9 40q29 7 70 12.5t77 5.5q42 0 69.5 -7t44 -19.5t23.5 -29.5t7 -37q0 -10 -1 -22.5t-4 -23.5z" />
    <glyph glyph-name="four.numerator" 
d="M342 276h-47l28 131h-256l10 49l282 295h83l-64 -301h114l-22 -43h-101zM387 709h-14l-243 -254l-1 -5h203z" />
    <glyph glyph-name="five.numerator" 
d="M436 402q-10 -36 -25 -61.5t-40 -41t-62.5 -22.5t-92.5 -7q-39 0 -77 4.5t-64 9.5l6 42q29 -5 65 -9.5t75 -4.5q43 0 72 5.5t47.5 17t28.5 29.5t17 42q3 13 5 24.5t2 25.5q0 32 -24.5 45.5t-85.5 13.5q-18 0 -38.5 -1.5t-40.5 -3.5t-38 -4.5t-31 -4.5l53 250h305l-10 -44
h-258l-35 -162q19 3 48.5 6.5t62.5 3.5q80 0 111.5 -23t31.5 -69q0 -14 -2 -30.5t-6 -30.5z" />
    <glyph glyph-name="six.numerator" 
d="M407 406q3 11 4 22.5t1 21.5q0 33 -24 50t-85 17q-42 0 -81.5 -9t-71.5 -20q-3 -19 -5 -36t-2 -34q0 -52 27 -80t90 -28q68 0 101 23t46 73zM490 719q-97 -1 -158 -18t-94 -46q-28 -24 -50.5 -63.5t-33.5 -85.5l35 28q24 9 58 16t73 7q81 0 112 -27t31 -74
q0 -11 -1.5 -26t-4.5 -28q-15 -66 -62 -99t-141 -33q-83 0 -122 36.5t-39 112.5q0 32 6.5 68.5t21 72.5t36 69t51.5 58q42 35 107.5 53t164.5 20z" />
    <glyph glyph-name="seven.numerator" 
d="M440 699l1 8h-297l20 44h339l-10 -57l-325 -418h-58z" />
    <glyph glyph-name="eight.numerator" 
d="M201 524l-35 23q-7 9 -14 25.5t-7 42.5q0 70 46.5 106.5t134.5 36.5q89 0 125.5 -29.5t36.5 -80.5q0 -35 -16.5 -64.5t-42.5 -46.5l-46 -17l40 -21q11 -10 20.5 -28t9.5 -47q0 -71 -50 -113t-155 -42q-78 0 -122.5 28.5t-44.5 88.5q0 34 16.5 66.5t50.5 55.5zM323 718
q-71 0 -100 -27.5t-29 -72.5q0 -22 9 -36t29 -23t51 -14.5t76 -11.5q32 16 55.5 43t23.5 65q0 36 -26 56.5t-89 20.5zM222 510q-41 -18 -66 -46.5t-25 -70.5q0 -39 29 -61t98 -22q72 0 109 28.5t37 81.5q0 24 -11 39.5t-33.5 25t-57 15t-80.5 10.5z" />
    <glyph glyph-name="nine.numerator" 
d="M174 627q-3 -13 -4 -22.5t-1 -21.5q0 -17 5 -30.5t18 -23.5t35 -15t56 -5q37 0 75.5 8.5t70.5 19.5q4 19 6 37t2 29q0 56 -26 84.5t-92 28.5t-99.5 -21t-45.5 -68zM89 309q97 1 158 17.5t95 45.5q27 24 49 62t34 84l-34 -28q-24 -8 -55.5 -14.5t-70.5 -6.5
q-42 0 -70.5 8.5t-45.5 22.5t-24.5 33.5t-7.5 42.5q0 14 1.5 28.5t6.5 30.5q7 27 21 49.5t37 38.5t56.5 25t80.5 9q48 0 80 -10.5t51.5 -30t27.5 -47.5t8 -63q0 -30 -6.5 -66t-21 -72t-36 -69.5t-51.5 -58.5q-43 -35 -108.5 -53.5t-164.5 -20.5z" />
    <glyph glyph-name="acute.cap" horiz-adv-x="370" 
d="M353 947h81l-196 -134h-61z" />
    <glyph glyph-name="breve.cap" horiz-adv-x="391" 
d="M124 957q-2 -7 -3 -14.5t-1 -15.5q0 -29 19.5 -46t70.5 -17q58 0 84 23.5t31 69.5h40q-3 -25 -11.5 -48t-26.5 -41t-47.5 -28.5t-73.5 -10.5q-60 0 -92.5 22.5t-32.5 72.5q0 7 1 16t3 17h39z" />
    <glyph glyph-name="caron.alt" horiz-adv-x="190" 
d="M133 750h52l-106 -231h-43z" />
    <glyph glyph-name="caron.cap" horiz-adv-x="370" 
d="M136 946h50l77 -88l118 88h57l-155 -123h-46z" />
    <glyph glyph-name="circumflex.cap" horiz-adv-x="370" 
d="M402 823h-50l-77 88l-118 -88h-57l155 123h46z" />
    <glyph glyph-name="commaaccent.alt" horiz-adv-x="236" 
d="M150 635h-59l98 133h47z" />
    <glyph glyph-name="dieresis.cap" horiz-adv-x="370" 
d="M162 835q-19 0 -25 7q-4 5 -4 15q0 12 4 22t12 15q4 2 10.5 4t15.5 2q18 0 25 -7q4 -5 4 -15q0 -25 -15 -37q-8 -6 -27 -6zM336 835q-19 0 -25 7q-5 7 -5 15q0 12 4.5 22t12.5 15q4 2 10.5 4t15.5 2q20 0 24 -7q5 -5 5 -15q0 -11 -4 -21.5t-11 -15.5q-8 -6 -27 -6z" />
    <glyph glyph-name="dotaccent.cap" horiz-adv-x="370" 
d="M254 825q-20 0 -26 8q-5 7 -5 17q0 29 17 41q10 7 29 7q20 0 26 -8q5 -6 5 -18q0 -28 -15 -40q-12 -7 -31 -7z" />
    <glyph glyph-name="grave.cap" horiz-adv-x="370" 
d="M159 946l128 -130h-53l-144 130h69z" />
    <glyph glyph-name="hungarumlaut.cap" horiz-adv-x="472" 
d="M295 944h68l-165 -128h-53zM441 944h69l-165 -128h-53z" />
    <glyph glyph-name="macron.cap" horiz-adv-x="370" 
d="M144 880h253l-10 -42h-253z" />
    <glyph glyph-name="ring.cap" horiz-adv-x="370" 
d="M249 807q-39 0 -55.5 16.5t-16.5 46.5q0 18 6.5 43t25.5 41q25 23 69 23q42 0 57.5 -16.5t15.5 -42.5q0 -20 -7.5 -46t-24.5 -42q-12 -11 -29.5 -17t-40.5 -6zM253 836q31 0 48 18q8 11 13 28t5 34q0 15 -9.5 23.5t-33.5 8.5q-34 0 -48 -17q-8 -11 -13.5 -27t-5.5 -34
q0 -16 9 -25t35 -9z" />
    <glyph glyph-name="tilde.cap" horiz-adv-x="370" 
d="M89 831q11 44 37 68t63 24q23 0 40 -10t31.5 -21.5t28 -21.5t30.5 -10q20 0 33.5 13t24.5 43h39q-13 -48 -38.5 -70.5t-61.5 -22.5q-24 0 -41 10t-31.5 21.5t-28.5 21.5t-30 10q-40 0 -58 -55h-38z" />
    <glyph glyph-name="cent.alt" horiz-adv-x="691" 
d="M597 599q-26 5 -65.5 10t-90.5 5q-48 0 -84 -11.5t-65 -31.5q-30 -23 -51 -57.5t-35 -74t-20.5 -80t-6.5 -75.5q0 -63 27 -96q18 -20 50.5 -30.5t71.5 -10.5q57 0 104 10.5t78 17.5l-12 -50q-27 -8 -67.5 -17t-85.5 -12l-20 -96h-40l20 96q-104 2 -149 57q-37 41 -37 126
q0 44 9 91.5t26 92t41 82t55 61.5q35 29 79 43t97 16l18 85h40l-19 -86q45 -2 81.5 -7t59.5 -10z" />
    <glyph glyph-name="oslash.alt" horiz-adv-x="675" 
d="M606 390q0 -46 -8.5 -95.5t-24.5 -95t-40.5 -85t-55.5 -65.5q-34 -29 -80.5 -45t-117.5 -16q-63 0 -101.5 15t-61.5 38l-46 -44h-54l76 75q-11 20 -17 46.5t-6 62.5q0 46 8.5 94.5t25.5 93.5t42 83.5t58 64.5q35 26 81 42t112 16q57 0 96.5 -13t63.5 -36l41 39h55
l-70 -69q11 -18 17.5 -44.5t6.5 -61.5zM434 81q26 21 47.5 55.5t36.5 75.5t23 85.5t8 85.5q0 35 -8 59.5t-21 38.5q-16 19 -46 31t-83 12q-51 0 -88 -13t-60 -31q-25 -18 -46 -50t-36.5 -72t-24.5 -84.5t-9 -87.5q0 -31 6 -56t17 -40q16 -22 47 -37.5t90 -15.5q47 0 84 11.5
t63 32.5z" />
    </font>
</defs>
</svg>
