<?xml version="1.0" standalone="no"?>
<!DOCTYPE svg PUBLIC "-//W3C//DTD SVG 1.1//EN" "http://www.w3.org/Graphics/SVG/1.1/DTD/svg11.dtd" >
<svg xmlns="http://www.w3.org/2000/svg" xmlns:xlink="http://www.w3.org/1999/xlink" version="1.1">
<metadata>
Created by FontForge 20170731 at Sat Mar  8 01:02:29 2014
 By Aleksey,,,
Copyright (c) 2013 Monotype Imaging Inc. All rights reserved.
</metadata>
<defs>
<font id="BurlingamePro-MediumItalic" horiz-adv-x="492" >
  <font-face 
    font-family="Burlingame Pro Medium"
    font-weight="450"
    font-style="italic"
    font-stretch="normal"
    units-per-em="1000"
    panose-1="2 11 6 4 4 5 4 9 2 4"
    ascent="760"
    descent="-240"
    x-height="561"
    cap-height="750"
    bbox="-258 -275 1400 1002"
    underline-thickness="50"
    underline-position="-150"
    slope="-8"
    unicode-range="U+0020-FB04"
  />
<missing-glyph horiz-adv-x="319" 
 />
    <glyph glyph-name="IJ" unicode="IJ" horiz-adv-x="894" 
d="M43 0l159 750h105l-159 -750h-105zM474 -11q-52 0 -106 8t-88 17l9 90q15 -3 34.5 -6.5t43 -6.5t48.5 -5t51 -2q57 0 95 12.5t62 33.5q11 10 21.5 25.5t20.5 37.5t19.5 52.5t18.5 71.5l92 433h105l-95 -446q-11 -50 -22.5 -89.5t-25 -69.5t-30 -53t-35.5 -40
q-17 -14 -37.5 -26t-47 -20t-59 -12.5t-74.5 -4.5z" />
    <glyph glyph-name="ij" unicode="ij" horiz-adv-x="584" 
d="M33 0l119 561h107l-119 -561h-107zM282 695q-9 -7 -23 -9.5t-30 -2.5q-33 0 -45 14q-5 6 -6 17.5t1 25.5q6 40 27 55q16 11 48 11q34 0 44 -13q7 -6 8.5 -18.5t-0.5 -26.5q-3 -17 -9 -31t-15 -22zM416 -81q-10 -47 -27 -83.5t-43.5 -61t-64 -37t-88.5 -12.5q-34 0 -62 4
l-42 6l3 77q14 -2 39 -4t52 -2q58 0 85.5 27t41.5 90l134 638h108zM574 695q-9 -7 -23 -9.5t-30 -2.5q-33 0 -45 14q-5 6 -6 17.5t1 25.5q6 40 27 55q16 11 48 11q34 0 44 -13q7 -6 8.5 -18.5t-0.5 -26.5q-5 -37 -24 -53z" />
    <glyph glyph-name="napostrophe" unicode="&#x22;n" horiz-adv-x="763" 
d="M506 0l71 334q11 49 11 76q0 28 -12 45q-12 15 -34.5 20t-50.5 5q-48 0 -87.5 -10.5t-71.5 -24.5l-95 -445h-107l119 561h83l3 -83h7l60 60q21 11 59.5 21t89.5 10q92 0 126 -46q11 -15 17 -34.5t6 -46.5q0 -22 -4 -48.5t-11 -59.5l-71 -334h-108zM177 750h123l-160 -256
h-100z" />
    <glyph glyph-name="f_i" unicode="fi" horiz-adv-x="695" 
d="M436 0l119 561h107l-119 -561h-107zM685 695q-9 -7 -23 -9.5t-30 -2.5q-33 0 -45 14q-5 6 -6 17.5t1 25.5q6 40 27 55q16 11 48 11q34 0 44 -13q7 -6 8.5 -18.5t-0.5 -26.5q-3 -17 -9 -31t-15 -22zM435 480h-168l-103 -480h-107l101 480h-98l21 81h95l15 69q10 45 27 80
t43 58t63 35t87 12q37 0 72.5 -4t56.5 -7l-19 -78q-17 2 -41.5 5.5t-57.5 3.5t-54.5 -8t-35.5 -23t-22 -36.5t-14 -48.5l-13 -58h179z" />
    <glyph glyph-name="f_l" unicode="fl" horiz-adv-x="747" 
d="M714 811l-137 -641q-6 -30 -6 -48q0 -26 13.5 -36t39.5 -10q21 0 40 2.5t34 5.5l-17 -79q-21 -5 -49 -9t-52 -4q-59 0 -89 24.5t-30 80.5q0 15 2.5 34t7.5 41l136 639h107zM435 480h-168l-103 -480h-107l101 480h-98l21 81h95l15 69q10 45 27 80t43 58t63 35t87 12
q37 0 72.5 -4t56.5 -7l-19 -78q-17 2 -41.5 5.5t-57.5 3.5t-54.5 -8t-35.5 -23t-22 -36.5t-14 -48.5l-13 -58h179z" />
    <glyph glyph-name="f_f" unicode="ff" horiz-adv-x="806" 
d="M435 480h-168l-103 -480h-107l101 480h-98l21 81h95l15 69q10 45 27 80t43 58t63 35t87 12q37 0 72.5 -4t56.5 -7l-19 -78q-17 2 -41.5 5.5t-57.5 3.5t-54.5 -8t-35.5 -23t-22 -36.5t-14 -48.5l-13 -58h179zM838 480h-168l-103 -480h-107l101 480h-98l21 81h95l15 69
q10 45 27 80t43 58t63 35t87 12q37 0 72.5 -4t56.5 -7l-19 -78q-17 2 -41.5 5.5t-57.5 3.5t-54.5 -8t-35.5 -23t-22 -36.5t-14 -48.5l-13 -58h179z" />
    <glyph glyph-name="f_f_i" unicode="ffi" horiz-adv-x="1099" 
d="M839 0l119 561h107l-119 -561h-107zM1088 695q-9 -7 -23 -9.5t-30 -2.5q-33 0 -45 14q-5 6 -6 17.5t1 25.5q6 40 27 55q16 11 48 11q34 0 44 -13q7 -6 8.5 -18.5t-0.5 -26.5q-3 -17 -9 -31t-15 -22zM435 480h-168l-103 -480h-107l101 480h-98l21 81h95l15 69q10 45 27 80
t43 58t63 35t87 12q37 0 72.5 -4t56.5 -7l-19 -78q-17 2 -41.5 5.5t-57.5 3.5t-54.5 -8t-35.5 -23t-22 -36.5t-14 -48.5l-13 -58h179zM838 480h-168l-103 -480h-107l101 480h-98l21 81h95l15 69q10 45 27 80t43 58t63 35t87 12q37 0 72.5 -4t56.5 -7l-19 -78
q-17 2 -41.5 5.5t-57.5 3.5t-54.5 -8t-35.5 -23t-22 -36.5t-14 -48.5l-13 -58h179z" />
    <glyph glyph-name="f_f_l" unicode="ffl" horiz-adv-x="1150" 
d="M1117 811l-137 -641q-6 -30 -6 -48q0 -26 13.5 -36t39.5 -10q21 0 40 2.5t34 5.5l-17 -79q-21 -5 -49 -9t-52 -4q-59 0 -89 24.5t-30 80.5q0 15 2.5 34t7.5 41l136 639h107zM435 480h-168l-103 -480h-107l101 480h-98l21 81h95l15 69q10 45 27 80t43 58t63 35t87 12
q37 0 72.5 -4t56.5 -7l-19 -78q-17 2 -41.5 5.5t-57.5 3.5t-54.5 -8t-35.5 -23t-22 -36.5t-14 -48.5l-13 -58h179zM838 480h-168l-103 -480h-107l101 480h-98l21 81h95l15 69q10 45 27 80t43 58t63 35t87 12q37 0 72.5 -4t56.5 -7l-19 -78q-17 2 -41.5 5.5t-57.5 3.5
t-54.5 -8t-35.5 -23t-22 -36.5t-14 -48.5l-13 -58h179z" />
    <glyph glyph-name=".notdef" horiz-adv-x="319" 
 />
    <glyph glyph-name=".null" horiz-adv-x="0" 
 />
    <glyph glyph-name="nonmarkingreturn" horiz-adv-x="0" 
 />
    <glyph glyph-name="space" unicode=" " horiz-adv-x="267" 
 />
    <glyph glyph-name="exclam" unicode="!" horiz-adv-x="324" 
d="M94 216l103 534h111l-123 -534h-91zM150 4q-10 -8 -23 -10t-31 -2q-40 0 -52 14q-8 11 -8 28q0 22 7.5 42.5t20.5 29.5q10 7 23.5 9.5t28.5 2.5q39 0 51 -13q4 -5 6.5 -13t2.5 -17q0 -22 -7 -41.5t-19 -29.5z" />
    <glyph glyph-name="quotedbl" unicode="&#x22;" horiz-adv-x="417" 
d="M151 750h104l-69 -256h-79zM337 750h102l-69 -256h-78z" />
    <glyph glyph-name="numbersign" unicode="#" horiz-adv-x="623" 
d="M139 550h113l57 200h64l-58 -200h121l58 200h64l-59 -200h113l-23 -78h-112l-56 -194h112l-23 -78h-112l-59 -200h-62l58 200h-122l-58 -200h-63l58 200h-113l23 78h113l56 194h-112zM236 278h121l57 194h-121z" />
    <glyph glyph-name="dollar" unicode="$" horiz-adv-x="667" 
d="M627 645q-38 6 -88 12.5t-107 7.5l-53 -254q28 -9 56.5 -19t52.5 -21t41.5 -22.5t25.5 -24.5q8 -14 12 -35.5t2 -50.5q-2 -57 -22 -109t-65 -84q-58 -42 -191 -45l-22 -110h-65l22 109q-60 2 -115 11.5t-87 20.5l13 84q32 -7 85 -16t123 -11l52 249q-27 8 -54 17.5
t-50 20.5t-41 23.5t-27 27.5q-11 17 -14 41t-1 48q2 53 23 103.5t64 82.5q25 20 74 33.5t115 16.5l19 86h65l-18 -85q60 -2 110.5 -9t80.5 -13zM367 662q-43 -2 -69.5 -10t-39.5 -19q-23 -17 -35 -51.5t-12 -65.5q0 -21 10 -37q8 -13 35 -24.5t62 -22.5zM310 89q43 2 70 9.5
t40 16.5q21 17 32.5 49.5t11.5 67.5q0 30 -13 43q-11 13 -36 22t-57 20z" />
    <glyph glyph-name="percent" unicode="%" horiz-adv-x="996" 
d="M959 291q0 -35 -7 -73t-19.5 -73.5t-31 -65.5t-41.5 -49q-27 -21 -60 -30t-78 -9q-46 0 -78 14t-49 37q-11 14 -17 36.5t-6 54.5q0 38 7 77t20 73.5t31.5 63t41.5 46.5q26 20 58.5 28.5t77.5 8.5q48 0 79 -12t47 -32q25 -31 25 -95zM807 80q13 11 25.5 34t22 51.5t15 60
t5.5 59.5q0 32 -11 48q-8 14 -25.5 20.5t-40.5 6.5t-41.5 -4.5t-33.5 -17.5q-15 -12 -27.5 -34.5t-21.5 -50.5t-14 -57.5t-5 -56.5q0 -32 10 -49q18 -29 67 -29q23 0 41 3.5t34 15.5zM717 750h82l-491 -750h-83zM452 618q0 -36 -7 -75t-20 -74.5t-31.5 -64.5t-40.5 -47
q-27 -21 -60 -30t-78 -9q-46 0 -78 14t-49 37q-10 14 -16.5 36t-6.5 54q0 38 7 76.5t20 73.5t31.5 63.5t41.5 46.5q26 21 58.5 29.5t77.5 8.5q48 0 79 -12t47 -32q25 -31 25 -95zM300 408q13 10 25.5 33t22 51.5t15 60t5.5 59.5q0 32 -11 48q-8 14 -26 20.5t-40 6.5
q-23 0 -41 -5t-34 -18q-14 -11 -26.5 -33.5t-21.5 -50t-14.5 -58t-5.5 -57.5q0 -32 10 -49q19 -28 68 -28q23 0 40.5 4t33.5 16z" />
    <glyph glyph-name="ampersand" unicode="&#x26;" horiz-adv-x="873" 
d="M653 0l-69 149q-35 -40 -66.5 -70t-66.5 -49.5t-77 -29t-98 -9.5q-126 0 -179 55q-43 43 -43 118q0 57 20 109.5t62 89.5l100 41v7q-26 17 -44 44.5t-18 71.5q0 52 21 103.5t66 83.5q62 46 184 46q133 0 181 -56q29 -36 29 -92q0 -52 -21 -97t-55 -78l-87 -37v-6
q27 -9 46 -18.5t33.5 -20.5t25.5 -24.5t20 -30.5l135 172h120l-213 -249l111 -223h-117zM545 223q-17 33 -32.5 54t-42.5 36.5t-73 30t-124 35.5q-51 -29 -84 -77t-33 -114q0 -48 27 -76q33 -34 115 -34q41 0 72 7.5t58.5 24.5t55 44.5t61.5 68.5zM451 417q42 32 73 77
t31 102q0 34 -16 53q-27 33 -108 33q-38 0 -64.5 -8t-44.5 -22q-25 -20 -36.5 -53t-11.5 -65q0 -23 9.5 -40.5t30.5 -31t55 -24.5t82 -21z" />
    <glyph glyph-name="quotesingle" unicode="'" horiz-adv-x="287" 
d="M180 750h105l-69 -256h-81z" />
    <glyph glyph-name="parenleft" unicode="(" horiz-adv-x="349" 
d="M86 383q22 107 52.5 186.5t68.5 127.5q14 18 32 34.5t35.5 30t34 23.5t27.5 16h97q-18 -13 -38.5 -28t-40 -31.5t-37 -34t-30.5 -34.5q-32 -39 -61.5 -111t-53.5 -188q-14 -64 -20 -114.5t-6 -90.5q0 -34 4 -60t11 -43q13 -35 36.5 -67.5t49.5 -57.5h-86q-9 6 -21 18.5
t-24 28t-22.5 34t-16.5 36.5q-16 43 -16 115q0 44 6.5 97t18.5 113z" />
    <glyph glyph-name="parenright" unicode=")" horiz-adv-x="349" 
d="M292 358q-22 -106 -52.5 -185.5t-68.5 -127.5q-14 -18 -31.5 -34.5t-35.5 -30t-34.5 -23.5t-27.5 -16h-98q38 26 79 59.5t69 68.5q32 39 60.5 111t52.5 188q14 64 20 114.5t6 90.5q0 34 -4 60t-10 43q-13 35 -36.5 67.5t-49.5 57.5h86q9 -6 20.5 -18.5t23.5 -28t23 -34
t17 -37.5q16 -39 16 -113q0 -45 -6 -98t-19 -114z" />
    <glyph glyph-name="asterisk" unicode="*" horiz-adv-x="542" 
d="M270 781h74l-1 -90l-25 -118l90 81l79 45l37 -64l-79 -44l-114 -38l114 -37l78 -46l-37 -63l-77 46l-90 78l25 -117l-1 -90h-73v91l24 116l-88 -78l-79 -47l-36 65l78 44l114 37l-114 39l-78 45l36 63l78 -45l90 -79l-25 116v90z" />
    <glyph glyph-name="plus" unicode="+" horiz-adv-x="667" 
d="M62 382h228v233h86v-233h229v-87h-229v-233h-86v233h-228v87z" />
    <glyph glyph-name="comma" unicode="," horiz-adv-x="313" 
d="M90 132h123l-163 -248h-98z" />
    <glyph glyph-name="hyphen" unicode="-" horiz-adv-x="423" 
d="M81 361h281l-20 -98h-281z" />
    <glyph glyph-name="period" unicode="." horiz-adv-x="306" 
d="M149 4q-16 -12 -54 -12q-40 0 -52 15q-8 10 -8 28q0 22 7.5 42t20.5 30q10 7 23.5 9.5t29.5 2.5q39 0 50 -14q9 -9 9 -30q0 -22 -7 -41.5t-19 -29.5z" />
    <glyph glyph-name="slash" unicode="/" horiz-adv-x="476" 
d="M419 750h84l-433 -750h-84z" />
    <glyph glyph-name="zero" unicode="0" horiz-adv-x="667" 
d="M283 83q92 0 143 45q29 26 58.5 89t49.5 158q11 49 16 88.5t5 70.5q0 52 -16 80q-17 28 -51 41t-85 13q-42 0 -78.5 -10.5t-65.5 -38.5q-26 -24 -56 -86t-50 -159q-20 -91 -20 -150q0 -28 5 -49.5t13 -35.5q17 -29 51.5 -42.5t80.5 -13.5zM416 761q84 0 134.5 -22.5
t76.5 -60.5q14 -20 23 -52.5t9 -80.5q0 -36 -5.5 -81.5t-18.5 -100.5q-21 -104 -57.5 -183t-90.5 -125q-23 -20 -46.5 -32.5t-49.5 -20t-56 -10.5t-65 -3q-80 0 -131 24.5t-77 62.5q-14 21 -23 56t-9 85q0 35 4.5 76.5t15.5 92.5q25 115 63 191t86 115q84 69 217 69z" />
    <glyph glyph-name="one" unicode="1" horiz-adv-x="667" 
d="M36 0l19 86h200l121 576l-208 -35l20 89l316 55l-146 -685h182l-18 -86h-486z" />
    <glyph glyph-name="two" unicode="2" horiz-adv-x="667" 
d="M506 0h-516l19 93q14 39 33 70.5t51 60t80.5 57.5t120.5 63q38 19 67 33t51 26t38 23t28 22q25 24 37 59.5t12 74.5q0 33 -14 50t-46.5 25.5t-86.5 8.5q-30 0 -62 -3t-61.5 -7.5t-55 -10t-42.5 -9.5l20 91q21 6 47.5 11.5t56.5 10.5t61.5 8t62.5 3q76 0 124.5 -13
t74.5 -44q16 -18 23.5 -44t7.5 -57q0 -24 -4.5 -53t-14 -57.5t-23.5 -54t-32 -44.5q-15 -15 -35 -28.5t-46 -27.5t-60 -30t-79 -36q-66 -30 -109 -54t-69 -45t-38.5 -39.5t-17.5 -36.5h438z" />
    <glyph glyph-name="three" unicode="3" horiz-adv-x="667" 
d="M614 604q0 -51 -21.5 -101t-60.5 -85l-94 -34l-1 -7l82 -32q13 -15 21.5 -42t8.5 -61q0 -58 -23.5 -114t-71.5 -87q-74 -50 -226 -50q-30 0 -61.5 2t-60.5 6t-54 9t-41 10l17 85q32 -7 85.5 -15t109.5 -8q59 0 98 8t63 23q16 10 28 26.5t19.5 35t11 38t3.5 36.5
q0 23 -6 38t-20 26q-17 14 -52 19.5t-85 5.5h-136l19 90h110q56 0 97 5.5t69 22.5q16 10 28 25t20 32t11.5 35t3.5 34q0 41 -19 61q-15 14 -45 20.5t-83 6.5q-28 0 -57.5 -2.5t-57 -6t-51.5 -8.5t-42 -9l20 89q19 5 44.5 10t54 9t59 6.5t60.5 2.5q74 0 119 -11.5t69 -34.5
q19 -18 28.5 -44t9.5 -65z" />
    <glyph glyph-name="four" unicode="4" horiz-adv-x="667" 
d="M429 0h-98l40 192h-371l19 91l391 467h178l-101 -475h151l-45 -83h-123zM388 275l83 386h-30l-312 -376l-1 -10h260z" />
    <glyph glyph-name="five" unicode="5" horiz-adv-x="667" 
d="M571 299q0 -33 -6.5 -69t-19.5 -70t-33 -63.5t-47 -49.5q-39 -29 -98 -42.5t-142 -13.5q-63 0 -117.5 7.5t-90.5 15.5l18 86q16 -3 38.5 -6.5t49 -6.5t54.5 -5t56 -2q60 0 99 8t64 26q17 12 29.5 31t20.5 41.5t12 46t4 45.5q0 43 -24 60q-16 13 -44.5 17.5t-73.5 4.5
q-60 0 -117 -5t-93 -8l86 403h455l-20 -91h-364l-48 -222q32 4 70 7t71 3q60 0 100.5 -7t64.5 -27q22 -17 34 -44.5t12 -69.5z" />
    <glyph glyph-name="six" unicode="6" horiz-adv-x="667" 
d="M640 678q-73 -2 -128 -9t-97 -18t-72 -26.5t-52 -34.5q-38 -32 -68 -86.5t-47 -120.5h7l57 45q27 9 66.5 17t87.5 8q60 0 99.5 -12t64.5 -33q21 -20 32.5 -50.5t11.5 -76.5q0 -30 -6 -63.5t-18.5 -66t-33.5 -62t-51 -50.5q-36 -25 -80.5 -36.5t-108.5 -11.5
q-133 0 -192 58q-29 28 -44 70.5t-15 105.5q0 54 9.5 114t29.5 118.5t52.5 111t79.5 91.5q30 26 68 45.5t86.5 32.5t109 20.5t135.5 9.5zM431 110q17 12 29 30t20 39t11.5 44t3.5 45q0 21 -5.5 38t-17.5 28q-30 31 -124 31q-53 0 -100.5 -8t-79.5 -18q-6 -31 -8.5 -59
t-2.5 -51q0 -79 36 -114q17 -17 46.5 -26t68.5 -9q41 0 70.5 6.5t52.5 23.5z" />
    <glyph glyph-name="seven" unicode="7" horiz-adv-x="667" 
d="M655 648l-457 -648h-124l463 643l3 14h-412l41 93h507z" />
    <glyph glyph-name="eight" unicode="8" horiz-adv-x="668" 
d="M402 676q-44 0 -74.5 -8.5t-50.5 -25.5q-24 -20 -34.5 -52.5t-10.5 -59.5q0 -29 11.5 -48.5t36.5 -33t64.5 -22.5t96.5 -17q42 34 71 75t29 95q0 37 -20 60q-32 37 -119 37zM258 358q-24 -15 -46 -33t-38.5 -40t-26 -47.5t-9.5 -56.5q0 -19 4.5 -35.5t15.5 -28.5
q16 -20 49 -31.5t87 -11.5q86 0 132 34q28 21 41 56t13 68q0 30 -14 49.5t-41.5 33t-69.5 23t-97 20.5zM215 385v7l-60 39q-10 13 -17.5 36.5t-7.5 56.5q0 53 20.5 103t62.5 80q35 26 82.5 39.5t116.5 13.5q74 0 121 -15t73 -42q39 -41 39 -106q0 -27 -6.5 -54t-18 -51
t-26 -44t-30.5 -34l-82 -34l-1 -7l72 -34q14 -15 23.5 -41t9.5 -62q0 -57 -24 -109t-71 -85q-70 -51 -211 -51q-78 0 -130 16.5t-81 48.5q-18 20 -27 48t-9 61q0 54 22.5 104.5t69.5 85.5z" />
    <glyph glyph-name="nine" unicode="9" horiz-adv-x="668" 
d="M246 634q-15 -12 -25 -29.5t-17 -37.5t-10 -41t-3 -40q0 -45 21 -68q17 -17 48 -24t77 -7q24 0 49 2.5t49.5 6.5t46 9.5t38.5 11.5q5 30 8 57.5t3 52.5q0 73 -33 108q-36 37 -121 37q-89 0 -131 -38zM398 161q19 16 36.5 39t32.5 51t26.5 59t18.5 64h-7l-55 -51
q-27 -9 -67 -16t-88 -7q-63 0 -104.5 14t-66.5 41q-18 20 -27.5 48.5t-9.5 74.5q0 25 5 56t16 61.5t28.5 59t43.5 48.5q36 30 87 43.5t117 13.5q134 0 193 -58q57 -56 57 -171q0 -54 -9.5 -115t-30 -120t-53 -112t-77.5 -92q-30 -26 -68.5 -45.5t-87 -33t-109 -21
t-135.5 -9.5l-18 90q73 2 128.5 9t97.5 18t72.5 26.5t53.5 34.5z" />
    <glyph glyph-name="colon" unicode=":" horiz-adv-x="312" 
d="M257 462q-16 -12 -54 -12q-40 0 -51 14q-8 9 -8 28q0 23 7 43t21 29q9 7 23 9.5t28 2.5q41 0 51 -13q10 -12 10 -30q0 -22 -7.5 -41.5t-19.5 -29.5zM150 4q-10 -8 -23 -10t-31 -2q-40 0 -52 14q-8 11 -8 28q0 22 7.5 42.5t20.5 29.5q10 7 23.5 9.5t29.5 2.5q38 0 50 -13
q9 -11 9 -30q0 -22 -7 -41.5t-19 -29.5z" />
    <glyph glyph-name="semicolon" unicode=";" horiz-adv-x="308" 
d="M81 132h122l-162 -248h-99zM252 462q-16 -12 -54 -12t-52 14q-8 11 -8 28q0 23 8 43t21 29q9 7 22.5 9.5t29.5 2.5q40 0 50 -13q9 -11 9 -30q0 -22 -6.5 -41.5t-19.5 -29.5z" />
    <glyph glyph-name="less" unicode="&#x3c;" horiz-adv-x="667" 
d="M605 645v-95l-443 -213l443 -210v-95l-543 265v83z" />
    <glyph glyph-name="equal" unicode="=" horiz-adv-x="667" 
d="M62 500h543v-87h-543v87zM62 264h543v-86h-543v86z" />
    <glyph glyph-name="greater" unicode="&#x3e;" horiz-adv-x="667" 
d="M62 32v95l443 213l-443 210v95l543 -265v-83z" />
    <glyph glyph-name="question" unicode="?" horiz-adv-x="549" 
d="M150 221l7 32q7 32 15 55.5t23 43.5t41 38t70 39q41 19 66 33.5t39 30.5q16 19 23.5 45.5t7.5 53.5q0 35 -21 52q-30 24 -113 24q-66 0 -122 -10t-88 -17l19 90q38 10 94.5 19.5t120.5 9.5q133 0 181 -45q20 -17 28.5 -43.5t8.5 -61.5q0 -43 -13 -88.5t-38 -73.5
q-23 -26 -59 -46.5t-93 -46.5q-26 -12 -42.5 -24t-26.5 -24t-14.5 -25t-7.5 -28l-6 -33h-100zM216 4q-9 -8 -23 -10t-31 -2q-40 0 -51 14q-8 11 -8 27q0 23 7.5 43.5t21.5 29.5q9 7 22.5 9.5t28.5 2.5q40 0 50 -13q9 -9 9 -30t-7 -41t-19 -30z" />
    <glyph glyph-name="at" unicode="@" horiz-adv-x="957" 
d="M418 448q-15 -12 -27.5 -32.5t-21.5 -46t-13.5 -54.5t-4.5 -57q0 -58 20 -78t65 -20q38 0 67 10t52 20l45 277q-15 2 -36.5 4.5t-50.5 2.5q-32 0 -54.5 -5.5t-40.5 -20.5zM670 89q-37 0 -62.5 8.5t-39.5 22.5l-10 44h-4l-54 -55q-17 -7 -41 -13t-59 -6q-31 0 -56 8.5
t-42 26.5t-26 48.5t-9 74.5q0 37 6.5 74.5t18.5 71t30.5 61t42.5 46.5q25 20 59 29.5t83 9.5q41 0 74 -6.5t59 -14.5l35 16h18l-43 -266q-3 -20 -5 -35.5t-2 -28.5q0 -23 13 -33t42 -10q21 0 40 7t31 19q16 15 30 61.5t14 123.5q0 69 -15 127t-48 95q-32 36 -97 55t-154 19
q-88 0 -147 -17.5t-100 -52.5q-18 -16 -35 -42.5t-30.5 -63.5t-22 -84.5t-8.5 -104.5q0 -106 20.5 -172t59.5 -108q35 -35 101 -55t160 -20q79 0 143.5 10t111.5 21v-69q-46 -14 -113 -26t-155 -12q-123 0 -198 27.5t-117 71.5q-20 21 -37.5 49t-31 67t-21.5 90t-8 118
t10 123t27.5 101.5t41 79.5t50.5 57q52 42 126.5 64t174.5 22q222 0 311 -94q42 -43 65 -111t23 -162q0 -77 -18.5 -138t-47.5 -92q-28 -28 -73 -42.5t-91 -14.5z" />
    <glyph glyph-name="A" unicode="A" horiz-adv-x="756" 
d="M549 0l-30 239h-310l-137 -239h-117l435 749l170 1l101 -750h-112zM468 647h-30l-180 -318h250z" />
    <glyph glyph-name="B" unicode="B" horiz-adv-x="701" 
d="M630 266q0 -31 -6.5 -63.5t-19.5 -63t-34 -57t-49 -44.5q-34 -21 -81.5 -29.5t-106.5 -8.5h-298l159 750h273q57 0 96.5 -7.5t59.5 -24.5q18 -14 28.5 -39t10.5 -60q0 -47 -16.5 -95t-51.5 -84q-6 -3 -17.5 -8t-24.5 -11t-25.5 -11.5t-19.5 -8.5v-4q30 -6 55 -16t42 -30
q11 -12 18.5 -33t7.5 -52zM478 444q18 9 32 26t23.5 37.5t14 42.5t4.5 43q0 36 -21 55q-22 18 -97 18h-152l-50 -235h146q31 0 57.5 3t42.5 10zM458 113q32 21 49 62.5t17 83.5q0 41 -24 63q-14 13 -46 17.5t-69 4.5h-171l-54 -254h173q40 0 73.5 5.5t51.5 17.5z" />
    <glyph glyph-name="C" unicode="C" horiz-adv-x="699" 
d="M712 645q-36 7 -84 13.5t-108 6.5q-37 0 -65.5 -3.5t-52 -9.5t-42 -14.5t-34.5 -19.5q-35 -25 -62 -66t-46 -90t-28.5 -102.5t-9.5 -102.5q0 -40 7.5 -71t24.5 -50q43 -49 167 -49q63 0 119.5 8.5t101.5 18.5l-20 -92q-48 -13 -107 -22.5t-129 -9.5q-85 0 -139.5 19.5
t-86.5 61.5q-23 29 -35.5 74t-12.5 99q0 61 11.5 125.5t35.5 125t59.5 112t83.5 86.5q47 33 110 49.5t140 16.5q67 0 123.5 -8.5t95.5 -17.5z" />
    <glyph glyph-name="D" unicode="D" horiz-adv-x="801" 
d="M441 750q61 0 105 -5t76 -14t54 -22.5t37 -31.5q19 -23 30.5 -62.5t11.5 -97.5q0 -56 -12 -121.5t-36 -128.5t-58.5 -116.5t-79.5 -86.5q-46 -32 -112.5 -48t-172.5 -16h-249l159 750h247zM280 657l-119 -561h116q48 0 83.5 2.5t62.5 7.5t47 13t36 20q33 25 58.5 69.5
t43.5 96t27 104.5t9 95q0 36 -6.5 63t-20.5 43q-21 24 -67.5 35.5t-126.5 11.5h-143z" />
    <glyph glyph-name="E" unicode="E" horiz-adv-x="632" 
d="M509 0h-474l159 750h481l-37 -93h-357l-48 -228h314l-38 -91h-295l-52 -244h390z" />
    <glyph glyph-name="F" unicode="F" horiz-adv-x="603" 
d="M35 0l159 750h479l-38 -92h-355l-51 -247h312l-38 -93h-294l-68 -318h-106z" />
    <glyph glyph-name="G" unicode="G" horiz-adv-x="775" 
d="M748 644q-37 6 -92.5 13t-120.5 7q-76 0 -122.5 -11.5t-79.5 -33.5q-38 -26 -65.5 -69t-46.5 -94t-28 -104.5t-9 -99.5q0 -41 8 -72t25 -49q22 -25 62.5 -36.5t99.5 -11.5q51 0 86 4t66 9l48 221h-191l36 86h278l-79 -369q-51 -17 -114 -30.5t-147 -13.5
q-93 0 -149.5 20.5t-91.5 61.5q-21 25 -35 66t-14 100q0 60 11.5 125t35 126.5t60 114.5t86.5 88q23 16 49.5 28.5t59 21t72.5 13t90 4.5q66 0 124 -8.5t100 -16.5z" />
    <glyph glyph-name="H" unicode="H" horiz-adv-x="803" 
d="M532 0l70 332h-390l-71 -332h-105l159 750h105l-68 -323h391l68 323h106l-159 -750h-106z" />
    <glyph glyph-name="I" unicode="I" horiz-adv-x="306" 
d="M36 0l159 750h105l-159 -750h-105z" />
    <glyph glyph-name="J" unicode="J" horiz-adv-x="588" 
d="M161 -11q-52 0 -106 8t-88 17l9 90q15 -3 34.5 -6.5t43 -6.5t48.5 -5t51 -2q57 0 95 12.5t62 33.5q11 10 21.5 25.5t20.5 37.5t19.5 52.5t18.5 71.5l92 433h105l-95 -446q-11 -50 -22.5 -89.5t-25 -69.5t-30 -53t-35.5 -40q-17 -14 -37.5 -26t-47 -20t-59 -12.5
t-74.5 -4.5z" />
    <glyph glyph-name="K" unicode="K" horiz-adv-x="696" 
d="M613 0h-132l-213 349h-53l-74 -349h-105l159 750h105l-80 -380l402 380h147l-401 -365z" />
    <glyph glyph-name="L" unicode="L" horiz-adv-x="609" 
d="M164 94h381l-42 -94h-466l159 750h106z" />
    <glyph glyph-name="M" unicode="M" horiz-adv-x="993" 
d="M722 0l138 647h-17l-331 -522h-124l-101 521h-17l-137 -646h-97l159 750h172l97 -517h16l323 517h181l-159 -750h-103z" />
    <glyph glyph-name="N" unicode="N" horiz-adv-x="847" 
d="M528 0l-239 643h-18l-136 -643h-97l158 750h158l237 -636h16l135 636h99l-159 -750h-154z" />
    <glyph glyph-name="O" unicode="O" horiz-adv-x="835" 
d="M366 85q60 -1 102.5 12t72.5 35q33 26 59 71.5t44 98t27 106t9 95.5q0 70 -25 104q-17 26 -59 41.5t-101 15.5t-101 -12.5t-75 -37.5q-34 -27 -59.5 -71t-43 -94.5t-26 -103.5t-8.5 -98q0 -36 6.5 -61.5t18.5 -42.5q20 -29 62.5 -43.5t96.5 -14.5zM504 760
q96 0 153.5 -22.5t88.5 -61.5q20 -24 32 -63.5t12 -96.5q0 -54 -11 -118.5t-33.5 -127.5t-57 -118.5t-80.5 -92.5q-25 -20 -56 -33.5t-64 -21.5t-66 -11.5t-62 -3.5q-52 0 -91.5 6.5t-68.5 18t-49.5 27.5t-34.5 35q-18 23 -30.5 61.5t-12.5 96.5q0 55 10 119.5t32 126
t56 116t82 90.5q47 35 108 54.5t143 19.5z" />
    <glyph glyph-name="P" unicode="P" horiz-adv-x="673" 
d="M203 283l-60 -283h-106l159 750h273q60 0 100 -9.5t63 -31.5q19 -20 30.5 -50t11.5 -75q0 -33 -6.5 -68.5t-20.5 -69.5t-36 -64t-52 -51q-21 -15 -43 -24t-50.5 -14.5t-67 -7.5t-90.5 -2h-105zM479 393q23 12 39.5 33t27 45.5t15.5 51.5t5 51t-5.5 39.5t-14.5 26.5
q-13 14 -39 19.5t-61 5.5h-161l-62 -290h123q48 0 82 4t51 14z" />
    <glyph glyph-name="Q" unicode="Q" horiz-adv-x="835" 
d="M504 760q96 0 153.5 -22.5t88.5 -61.5q20 -24 32 -63.5t12 -96.5q0 -53 -11 -117t-33.5 -127t-56.5 -119.5t-81 -93.5q-31 -24 -69.5 -39t-81.5 -22v-4l53 -25l106 -175h-124l-103 197q-8 -1 -15 -1.5t-14 -0.5q-52 0 -91.5 6.5t-68.5 18t-49.5 27.5t-34.5 35
q-18 23 -30.5 61.5t-12.5 96.5q0 54 10 117.5t32 126t56 117.5t82 91q47 35 108 54.5t143 19.5zM366 85q60 -1 102.5 12t72.5 35q34 26 60 71.5t43.5 98t26.5 106t9 95.5q0 70 -25 104q-17 26 -59 41.5t-101 15.5t-101 -12.5t-75 -37.5q-35 -27 -60.5 -71.5t-42.5 -95.5
t-25.5 -103.5t-8.5 -96.5q0 -36 6.5 -61.5t18.5 -42.5q20 -29 62.5 -43.5t96.5 -14.5z" />
    <glyph glyph-name="R" unicode="R" horiz-adv-x="700" 
d="M669 604q0 -57 -21 -114t-65 -99q-23 -14 -59 -27t-70 -24v-3q18 -8 37 -21t28 -26q8 -12 18 -40t21 -67t23 -86t23 -97h-116q-27 126 -49 198.5t-45 91.5q-14 11 -46.5 15t-71.5 4h-70l-65 -309h-105l159 750h265q64 0 104.5 -10t62.5 -29q20 -16 31 -42.5t11 -64.5z
M468 418q21 10 38 27.5t28 40t17 48t6 50.5q0 39 -20 57q-23 24 -111 24h-144l-56 -265h122q45 0 74 5t46 13z" />
    <glyph glyph-name="S" unicode="S" horiz-adv-x="635" 
d="M546 230q-1 -28 -6.5 -55.5t-16.5 -53t-27.5 -47.5t-38.5 -38q-37 -26 -91.5 -37t-123.5 -11q-35 0 -70 3t-67 7.5t-58.5 10.5t-44.5 12l14 89q36 -8 94 -18t129 -10q60 0 96 7.5t54 21.5q22 17 33.5 46t13.5 60q1 38 -14 55q-13 12 -36 23t-51.5 22t-59.5 22t-59 24
t-51 28.5t-35 35.5q-11 17 -14.5 42t-2.5 50q2 53 22.5 104t65.5 86q32 25 86.5 39.5t133.5 14.5q74 0 129.5 -8t88.5 -15l-14 -89q-40 6 -94.5 12.5t-114.5 6.5t-95 -9t-53 -24q-21 -17 -32 -46.5t-13 -60.5q-2 -33 9 -48q8 -12 30 -24t51.5 -24t62.5 -24t63.5 -25.5
t54.5 -28t35 -31.5q9 -16 14 -39.5t3 -55.5z" />
    <glyph glyph-name="T" unicode="T" horiz-adv-x="646" 
d="M677 656h-237l-139 -656h-107l139 656h-246l39 94h587z" />
    <glyph glyph-name="U" unicode="U" horiz-adv-x="782" 
d="M776 750l-99 -465q-10 -47 -21.5 -83t-25 -64t-30 -49.5t-35.5 -37.5q-32 -26 -89.5 -45t-141.5 -19q-58 0 -98 8t-67 20.5t-43.5 28t-25.5 30.5q-11 17 -18 40.5t-7 56.5q0 26 4 57.5t14 76.5l94 445h106l-94 -442q-10 -42 -13.5 -70t-3.5 -50q0 -35 13 -54
q13 -20 48 -35t98 -15q60 0 97.5 11.5t60.5 31.5q11 9 21 22t19 32.5t17.5 47t16.5 66.5l97 455h106z" />
    <glyph glyph-name="V" unicode="V" horiz-adv-x="745" 
d="M376 0h-172l-91 750h112l71 -646h28l354 646h127z" />
    <glyph glyph-name="W" unicode="W" horiz-adv-x="1126" 
d="M828 0h-169l-21 646h-14l-318 -646h-168l-12 750h108l3 -646h20l316 646h160l21 -646h21l293 646h115z" />
    <glyph glyph-name="X" unicode="X" horiz-adv-x="728" 
d="M343 329l-245 -329h-127l297 388l-120 362h117l98 -319h39l245 319h124l-291 -379l130 -371h-120l-108 329h-39z" />
    <glyph glyph-name="Y" unicode="Y" horiz-adv-x="693" 
d="M319 0h-105l55 262l-160 488h111l117 -376h10l283 376h130l-385 -488z" />
    <glyph glyph-name="Z" unicode="Z" horiz-adv-x="688" 
d="M696 638l-565 -534l-3 -12h474l-39 -92h-583l24 112l560 533l3 13h-416l38 92h531z" />
    <glyph glyph-name="bracketleft" unicode="[" horiz-adv-x="344" 
d="M196 840h215l-15 -68h-130l-169 -794h131l-14 -68h-214z" />
    <glyph glyph-name="backslash" unicode="\" horiz-adv-x="476" 
d="M422 0h-78l-275 750h79z" />
    <glyph glyph-name="bracketright" unicode="]" horiz-adv-x="344" 
d="M158 -90h-214l15 68h130l168 794h-130l13 68h215z" />
    <glyph glyph-name="asciicircum" unicode="^" horiz-adv-x="663" 
d="M617 288h-92l-193 365l-191 -365h-92l247 457h74z" />
    <glyph glyph-name="underscore" unicode="_" horiz-adv-x="555" 
d="M-70 -102h564l-1 -68h-564z" />
    <glyph glyph-name="grave" unicode="`" horiz-adv-x="370" 
d="M173 763l133 -138h-85l-162 138h114z" />
    <glyph glyph-name="a" unicode="a" horiz-adv-x="618" 
d="M395 0l-12 78h-6l-57 -60q-20 -11 -56.5 -19t-78.5 -8q-57 0 -88 11.5t-47 33.5q-20 28 -20 78q0 25 5.5 51.5t17 50.5t28.5 43.5t40 31.5q45 22 127.5 32t186.5 18q5 23 8 41.5t3 33.5q0 26 -10 40q-11 17 -37.5 22.5t-66.5 5.5q-25 0 -52.5 -2.5t-53.5 -6t-50 -7.5
t-41 -7l21 82q39 11 95 21t119 10q61 0 99 -10.5t57 -30.5q15 -16 21.5 -37.5t6.5 -50.5q0 -25 -4.5 -55.5t-12.5 -72.5l-67 -317h-75zM420 268q-35 -2 -74 -5t-74 -7t-61.5 -9.5t-35.5 -11.5q-20 -17 -31 -46.5t-11 -57.5q0 -23 9 -36q18 -21 81 -21q51 0 94.5 12t66.5 21z
" />
    <glyph glyph-name="b" unicode="b" horiz-adv-x="675" 
d="M619 411q0 -45 -8.5 -97.5t-26 -102.5t-44 -93.5t-62.5 -70.5q-35 -27 -84 -41t-116 -14q-49 0 -96.5 9t-80.5 20l-48 -21h-20l173 810h107l-69 -326h6q2 2 12.5 12t22.5 21.5t22 21t11 10.5q19 8 53.5 16.5t81.5 8.5q42 0 75.5 -9.5t55.5 -33.5q17 -18 26 -47.5t9 -72.5
zM405 109q24 18 43 52t32.5 73.5t20.5 80.5t7 72q0 53 -21 76q-24 23 -88 23q-48 0 -89 -11t-74 -25l-78 -362q20 -3 50.5 -6.5t68.5 -3.5q42 0 73.5 7t54.5 24z" />
    <glyph glyph-name="c" unicode="c" horiz-adv-x="553" 
d="M396 487q-44 0 -76 -8t-57 -27q-24 -18 -42.5 -48.5t-31 -66.5t-19 -73.5t-6.5 -68.5q0 -59 27 -86q30 -30 103 -30q51 0 94.5 8t75.5 13l-21 -82q-35 -11 -78 -20t-100 -9q-58 0 -97.5 13.5t-65.5 39.5q-22 23 -33 57t-11 82t9.5 99t27.5 97.5t44.5 85.5t60.5 63
q38 26 82.5 37.5t98.5 11.5q55 0 99.5 -6.5t67.5 -11.5l-10 -84q-26 4 -60 9t-82 5z" />
    <glyph glyph-name="d" unicode="d" horiz-adv-x="671" 
d="M582 817h107l-174 -817h-84l-4 78h-6q-1 -1 -11.5 -11t-23 -21t-23 -20.5t-11.5 -9.5q-18 -9 -52 -17t-83 -8q-40 0 -72 10t-55 34q-17 17 -26.5 46.5t-9.5 74.5q0 49 10 103.5t29.5 105t47 92.5t62.5 68q37 26 81.5 36.5t94.5 10.5q41 0 79.5 -6t67.5 -13zM267 454
q-24 -17 -43 -50t-32.5 -72.5t-20.5 -80.5t-7 -74q0 -54 21 -73q24 -24 84 -24q51 0 91.5 12.5t73.5 26.5l78 359q-20 3 -49 7t-64 4q-46 0 -76 -8.5t-56 -26.5z" />
    <glyph glyph-name="e" unicode="e" horiz-adv-x="606" 
d="M55 183q0 52 10 104t29 98.5t45 83.5t59 59q36 24 79 36t100 12q104 0 149.5 -39.5t45.5 -109.5q0 -91 -68 -132t-208 -41q-32 0 -66.5 2t-60.5 4q-3 -20 -5 -37t-2 -33q0 -25 5 -44t17 -32q30 -34 112 -34q29 0 57.5 3t54 7.5t47.5 9.5t38 8l-26 -84
q-38 -13 -89.5 -23.5t-111.5 -10.5q-115 0 -166 55q-45 47 -45 138zM363 495q-65 0 -105 -31q-47 -37 -72 -129q10 -1 26.5 -1.5t35 -1.5t36.5 -1h32q67 0 108 19.5t41 70.5q0 32 -22.5 53t-79.5 21z" />
    <glyph glyph-name="f" unicode="f" horiz-adv-x="403" 
d="M435 480h-168l-103 -480h-107l101 480h-98l21 81h95l15 69q10 45 27 80t43 58t63 35t87 12q37 0 72.5 -4t56.5 -7l-19 -78q-17 2 -41.5 5.5t-57.5 3.5t-54.5 -8t-35.5 -23t-22 -36.5t-14 -48.5l-13 -58h179z" />
    <glyph glyph-name="g" unicode="g" horiz-adv-x="670" 
d="M526 56q-13 -60 -27 -104t-30 -77t-34.5 -56t-39.5 -40q-35 -26 -86 -39t-128 -13q-28 0 -57 2.5t-56 7t-50.5 10t-39.5 10.5l12 84q15 -3 37.5 -7t49.5 -7t56 -5.5t56 -2.5q45 0 86 7.5t65 27.5q23 19 41 64.5t37 130.5l7 29h-6q-1 -1 -11.5 -11t-23 -21t-22.5 -20.5
t-11 -9.5q-19 -9 -53.5 -17t-82.5 -8q-42 0 -73 10t-54 34q-17 18 -27 47.5t-10 73.5q0 46 9 99.5t27.5 103.5t46.5 93.5t66 70.5q37 26 84 37.5t99 11.5q54 0 103 -9t82 -19l46 20h21zM509 478q-20 2 -48 5t-68 3q-42 0 -72.5 -6.5t-55.5 -25.5q-26 -20 -45.5 -54
t-32.5 -73.5t-19.5 -79t-6.5 -69.5q0 -55 21 -74q25 -24 84 -24q47 0 90 12.5t76 26.5z" />
    <glyph glyph-name="h" unicode="h" horiz-adv-x="665" 
d="M407 0l70 327q11 55 11 83q0 31 -12 46q-11 15 -34 19.5t-53 4.5q-48 0 -86 -10.5t-70 -24.5l-95 -445h-107l174 810h105l-72 -332h7l60 60q20 11 57.5 21t88.5 10q94 0 127 -46q22 -29 22 -81q0 -22 -3.5 -48.5t-10.5 -59.5l-71 -334h-108z" />
    <glyph glyph-name="i" unicode="i" horiz-adv-x="292" 
d="M33 0l119 561h107l-119 -561h-107zM282 695q-9 -7 -23 -9.5t-30 -2.5q-33 0 -45 14q-5 6 -6 17.5t1 25.5q6 40 27 55q16 11 48 11q34 0 44 -13q7 -6 8.5 -18.5t-0.5 -26.5q-3 -17 -9 -31t-15 -22z" />
    <glyph glyph-name="j" unicode="j" horiz-adv-x="291" 
d="M124 -81q-10 -47 -27 -83.5t-43.5 -61t-64 -37t-88.5 -12.5q-34 0 -62 4l-42 6l3 77q14 -2 39 -4t52 -2q58 0 85.5 27t41.5 90l134 638h108zM282 695q-9 -7 -23 -9.5t-30 -2.5q-33 0 -45 14q-5 6 -6 17.5t1 25.5q6 40 27 55q16 11 48 11q34 0 44 -13q7 -6 8.5 -18.5
t-0.5 -26.5q-5 -37 -24 -53z" />
    <glyph glyph-name="k" unicode="k" horiz-adv-x="593" 
d="M529 0h-131l-157 264h-44l-57 -264h-107l173 810h107l-111 -519l298 270h145l-309 -263z" />
    <glyph glyph-name="l" unicode="l" horiz-adv-x="344" 
d="M311 811l-137 -641q-6 -30 -6 -48q0 -26 13.5 -36t39.5 -10q21 0 40 2.5t34 5.5l-17 -79q-21 -5 -49 -9t-52 -4q-59 0 -89 24.5t-30 80.5q0 15 2.5 34t7.5 41l136 639h107z" />
    <glyph glyph-name="m" unicode="m" horiz-adv-x="1006" 
d="M390 0l71 333q5 25 8.5 45t3.5 34q0 28 -12 43t-34.5 20t-43.5 5q-47 0 -82.5 -11t-65.5 -25l-95 -444h-107l119 561h84l2 -83h7l60 61q21 10 55.5 20t82.5 10q57 0 93 -21t50 -72h7l62 61q21 11 56.5 21.5t85.5 10.5q44 0 75 -12t47 -34q11 -16 17 -35t6 -47
q0 -40 -15 -109l-70 -332h-108l69 330q12 51 12 80q0 30 -12 45t-34.5 20t-46.5 5q-38 0 -75 -10t-69 -24l-95 -446h-108z" />
    <glyph glyph-name="n" unicode="n" horiz-adv-x="667" 
d="M409 0l71 334q11 49 11 76q0 28 -12 45q-12 15 -34.5 20t-50.5 5q-48 0 -87.5 -10.5t-71.5 -24.5l-95 -445h-107l119 561h83l3 -83h7l60 60q21 11 59.5 21t89.5 10q92 0 126 -46q11 -15 17 -34.5t6 -46.5q0 -22 -4 -48.5t-11 -59.5l-71 -334h-108z" />
    <glyph glyph-name="o" unicode="o" horiz-adv-x="672" 
d="M616 387q0 -43 -8 -91.5t-24.5 -94.5t-41.5 -86.5t-58 -67.5q-37 -30 -86.5 -44t-122.5 -14q-75 0 -119.5 19.5t-66.5 48.5q-15 20 -23.5 49.5t-8.5 73.5q0 42 7.5 89.5t24 94t42 87t61.5 67.5q36 28 84.5 42.5t118.5 14.5q69 0 114 -16.5t67 -42.5q18 -21 29 -52.5
t11 -76.5zM414 109q22 17 39.5 48.5t30.5 68.5t20 75.5t7 71.5q0 28 -5.5 47t-15.5 31q-14 17 -40.5 26.5t-66.5 9.5q-45 0 -75 -10.5t-50 -25.5q-23 -17 -41 -47.5t-30.5 -66.5t-19.5 -74t-7 -71q0 -25 5 -45.5t14 -31.5q14 -19 40.5 -30t72.5 -11q37 0 68.5 8.5t53.5 26.5
z" />
    <glyph glyph-name="p" unicode="p" horiz-adv-x="673" 
d="M85 -275h-107l178 836h83l3 -78h6q2 2 13 11.5t23.5 21t22.5 20.5t11 9q19 9 52 17.5t80 8.5q90 0 131 -44q35 -37 35 -125q0 -45 -9 -98t-27 -103.5t-46 -94t-66 -70.5q-36 -26 -81 -36t-94 -10q-41 0 -79.5 5.5t-67.5 12.5zM404 106q24 17 43 49.5t32.5 71t20.5 79
t7 73.5q0 54 -21 77q-12 14 -34 20t-60 6q-44 0 -83 -11t-70 -25l-79 -363q20 -2 49 -6t64 -4q46 0 75.5 7.5t55.5 25.5z" />
    <glyph glyph-name="q" unicode="q" horiz-adv-x="670" 
d="M55 155q0 46 9.5 99.5t28 104.5t46 95t64.5 70q38 26 84 38t97 12q54 0 102 -9.5t82 -19.5l48 21h21l-173 -811h-107l69 323h-6q-1 -1 -11.5 -11t-23 -21.5t-22.5 -21t-11 -9.5q-19 -8 -52 -16t-76 -8q-42 0 -77 9.5t-58 34.5q-34 37 -34 120zM268 455q-25 -18 -44 -52
t-32.5 -74t-20.5 -81t-7 -72q0 -50 20 -72q24 -25 85 -25q48 0 90 12.5t75 26.5l77 360q-20 4 -50 7.5t-69 3.5q-41 0 -70 -8t-54 -26z" />
    <glyph glyph-name="r" unicode="r" horiz-adv-x="444" 
d="M230 561l7 -80h7l54 60q23 13 53 21.5t69 8.5q18 0 33 -1t29 -3l-18 -105q-14 4 -36.5 9t-55.5 5q-42 0 -76 -11.5t-64 -30.5l-92 -434h-107l119 561h78z" />
    <glyph glyph-name="s" unicode="s" horiz-adv-x="519" 
d="M431 183q0 -20 -4 -42t-13 -43t-22.5 -39.5t-32.5 -31.5q-28 -19 -70.5 -27t-103.5 -8q-51 0 -98 7t-77 15l5 82q30 -7 76.5 -14.5t95.5 -7.5q42 0 67 5t39 14q15 10 24.5 30.5t9.5 43.5q0 11 -2 19.5t-10 15.5q-12 12 -39 22.5t-58 21.5t-60 24t-45 31q-24 25 -24 72
q0 24 5 48t15 46.5t25 42t35 32.5q29 19 69 26t92 7q55 0 100 -7t70 -12l-15 -79q-30 5 -72.5 9.5t-86.5 4.5q-41 0 -65 -4.5t-39 -16.5q-14 -12 -22.5 -34.5t-8.5 -45.5q0 -10 2 -18t9 -16q14 -14 41.5 -24.5t58.5 -21t59 -21.5t42 -25q26 -28 28 -81z" />
    <glyph glyph-name="t" unicode="t" horiz-adv-x="446" 
d="M443 480h-181l-63 -297q-8 -35 -8 -54q0 -29 17.5 -39t52.5 -10q29 0 61.5 4.5t50.5 7.5l-22 -82q-27 -6 -59 -12.5t-77 -6.5q-72 0 -104 26.5t-32 81.5q0 17 2.5 35.5t6.5 38.5l66 307h-94l20 81h91l22 105l113 21l-27 -126h196z" />
    <glyph glyph-name="u" unicode="u" horiz-adv-x="669" 
d="M257 561l-71 -334q-5 -23 -7.5 -42.5t-2.5 -33.5q0 -31 11 -45q12 -14 34.5 -19.5t50.5 -5.5q48 0 87.5 10.5t71.5 24.5l95 445h107l-119 -561h-84l-3 83h-7l-59 -60q-21 -11 -59 -21t-90 -10q-45 0 -77 11.5t-49 34.5q-11 15 -17 34.5t-6 46.5q0 22 4 48.5t11 59.5
l71 334h108z" />
    <glyph glyph-name="v" unicode="v" horiz-adv-x="596" 
d="M310 0h-165l-72 561h107l52 -464h24l254 464h120z" />
    <glyph glyph-name="w" unicode="w" horiz-adv-x="950" 
d="M690 0h-153l-30 464h-14l-234 -464h-156l-17 561h101l9 -464h18l233 464h151l27 -464h17l216 464h113z" />
    <glyph glyph-name="x" unicode="x" horiz-adv-x="595" 
d="M274 237l-188 -237h-129l241 291l-105 270h114l81 -228h32l184 228h125l-233 -282l111 -279h-114l-88 237h-31z" />
    <glyph glyph-name="y" unicode="y" horiz-adv-x="596" 
d="M147 -275h-112l162 275h-54l-77 561h109l54 -464h23l260 464h119z" />
    <glyph glyph-name="z" unicode="z" horiz-adv-x="544" 
d="M531 453l-394 -352l-3 -14h346l-41 -87h-455l19 97l403 364l3 13h-310l41 87h413z" />
    <glyph glyph-name="braceleft" unicode="{" horiz-adv-x="405" 
d="M54 425q48 6 76.5 20t40.5 33q12 17 20.5 44t17.5 57.5t19.5 61.5t25.5 56q12 19 29.5 35.5t35.5 29.5t34.5 23t27.5 16h99q-41 -26 -80.5 -58t-64.5 -67q-16 -24 -27.5 -57t-22 -66t-21 -62t-23.5 -46q-14 -17 -44 -32.5t-63 -23.5l-1 -6q35 -14 59.5 -36.5t24.5 -57.5
q0 -18 -2.5 -42.5t-5.5 -50.5t-5.5 -51.5t-2.5 -44.5q0 -24 8 -45.5t21.5 -41t30 -38t34.5 -34.5h-89q-38 27 -61.5 66t-23.5 87q0 22 2.5 48t6 51t6 48t2.5 39q0 35 -29.5 53.5t-68.5 24.5z" />
    <glyph glyph-name="bar" unicode="|" horiz-adv-x="242" 
d="M93 853h58v-1126h-58v1126z" />
    <glyph glyph-name="braceright" unicode="}" horiz-adv-x="405" 
d="M363 317q-48 -6 -76.5 -20t-40.5 -33q-12 -17 -20.5 -44t-17.5 -57.5t-19.5 -61.5t-26.5 -56q-12 -19 -29 -35.5t-35 -29.5t-34.5 -23t-28.5 -16h-97q41 26 80.5 58t62.5 67q16 24 28 57t22.5 66t21 62t24.5 46t43.5 32.5t62.5 23.5l1 6q-35 14 -59 36.5t-24 57.5
q0 18 2.5 42.5t5.5 50.5t5.5 51t2.5 45q0 24 -8 45.5t-21.5 41t-30.5 37.5t-35 35h89q38 -27 61.5 -66t23.5 -87q0 -22 -2.5 -48t-6 -51t-6 -48t-2.5 -39q0 -35 29.5 -53.5t68.5 -24.5z" />
    <glyph glyph-name="asciitilde" unicode="~" horiz-adv-x="667" 
d="M448 247q-39 0 -70.5 14t-59 31.5t-52.5 31.5t-52 14q-35 0 -74.5 -27t-81.5 -62v94q15 15 34.5 29.5t41 26t44.5 18.5t45 7q38 0 69 -14t58 -31.5t51 -31.5t50 -14q21 0 41.5 8t40.5 20.5t38.5 28t36.5 31.5v-94q-37 -35 -78 -57.5t-82 -22.5z" />
    <glyph glyph-name="uni00A0" unicode="&#xa0;" horiz-adv-x="267" 
 />
    <glyph glyph-name="exclamdown" unicode="&#xa1;" horiz-adv-x="324" 
d="M211 348l-103 -534h-111l123 534h91zM155 561q10 7 23 9t31 2q41 0 52 -14q8 -11 8 -28q0 -22 -7.5 -42t-20.5 -30q-10 -7 -23.5 -9.5t-28.5 -2.5q-38 0 -51 13q-9 10 -9 31t7 40.5t19 30.5z" />
    <glyph glyph-name="cent" unicode="&#xa2;" horiz-adv-x="667" 
d="M270 0l19 91q-103 3 -150 54q-43 45 -43 137q0 46 9.5 96t27.5 96t44.5 85t59.5 63q36 26 80 37t96 13l16 78h53l-18 -81q39 -2 70 -7t50 -10l-10 -84q-23 4 -54.5 8.5t-73.5 6.5l-85 -401q42 3 77.5 9.5t63.5 11.5l-22 -83q-29 -10 -62.5 -17.5t-75.5 -10.5l-19 -92h-53
zM393 582q-30 -3 -53 -11t-43 -23q-23 -17 -41 -47t-30.5 -65.5t-19 -72.5t-6.5 -67q0 -56 26 -84q14 -15 34 -21.5t48 -8.5z" />
    <glyph glyph-name="sterling" unicode="&#xa3;" horiz-adv-x="688" 
d="M3 0l29 92h99l51 234h-101l33 66h82l26 121q14 65 33.5 112t49.5 73q32 29 76.5 44.5t117.5 15.5q66 0 111 -7.5t77 -15.5l-16 -84q-26 8 -68 14.5t-90 6.5q-50 0 -82 -9t-53 -30t-32.5 -52t-24.5 -88l-22 -101h226l-33 -66h-206l-38 -172l-71 -53l-2 -9h422l-29 -92
h-565z" />
    <glyph glyph-name="currency" unicode="&#xa4;" horiz-adv-x="667" 
d="M127 603l79 -79q28 19 61 30t69 11q35 0 68 -10.5t60 -30.5l81 79l54 -55l-80 -81q20 -26 31.5 -59t11.5 -69t-11 -69t-31 -60l79 -79l-54 -56l-81 80q-26 -20 -59 -30.5t-69 -10.5q-37 0 -70 10.5t-60 30.5l-79 -80l-55 56l79 79q-19 27 -30 60t-11 69q0 37 10.5 70
t30.5 59l-79 80zM187 339q0 -31 11.5 -58t32 -47.5t47.5 -32t58 -11.5q30 0 57.5 11.5t47.5 32t32 47.5t12 58t-12 58t-32 47t-47.5 32t-57.5 12q-31 0 -58 -12t-47.5 -32t-32 -47t-11.5 -58z" />
    <glyph glyph-name="yen" unicode="&#xa5;" horiz-adv-x="705" 
d="M413 312h215l-29 -55h-213l-19 -92h230l-29 -55h-213l-23 -110h-104l22 110h-226l29 55h210l18 92h-225l28 55h195l-148 438h109l115 -358h12l274 358h125z" />
    <glyph glyph-name="brokenbar" unicode="&#xa6;" horiz-adv-x="245" 
d="M95 178h54v-301h-54v301zM95 728h54v-301h-54v301z" />
    <glyph glyph-name="section" unicode="&#xa7;" horiz-adv-x="593" 
d="M449 45q-9 -39 -24 -68.5t-44 -48.5t-75.5 -28.5t-116.5 -9.5q-23 0 -47.5 1.5t-48 4t-44.5 6t-37 7.5l16 76q28 -5 70.5 -9.5t90.5 -4.5q40 0 67.5 5t45 15t26.5 25t13 35q2 5 2 10v10q0 7 -1.5 13.5t-6.5 11.5q-6 6 -19 11.5t-30.5 11t-38 10t-41.5 9.5
q-65 14 -98.5 31.5t-49.5 40.5q-15 18 -15 55q0 14 2.5 33.5t7.5 40.5q12 55 44.5 89t93.5 51q-18 9 -28 25q-12 18 -12 51q0 11 1.5 23t5.5 23q8 38 24 66.5t44.5 47t72 28t106.5 9.5q54 0 96 -5.5t72 -11.5l-17 -76q-33 5 -70 9.5t-77 4.5t-66.5 -5.5t-43 -16t-24.5 -25
t-12 -33.5q-2 -5 -2 -10v-10q0 -14 7 -22q11 -11 45.5 -20.5t87.5 -20.5q67 -14 98.5 -30.5t44.5 -33.5q8 -10 12.5 -25t4.5 -36q0 -13 -2.5 -30.5t-5.5 -35.5q-14 -67 -49 -100t-89 -48q19 -10 29 -23q12 -17 12 -52q0 -11 -2 -24.5t-5 -26.5zM330 439q-25 6 -37.5 8
t-21.5 2q-47 0 -76.5 -32t-41.5 -84q-2 -15 -3.5 -25.5t-1.5 -18.5q0 -12 3.5 -20.5t8.5 -14.5q10 -11 38.5 -22.5t79.5 -22.5q9 -2 23 -5t27 -3q48 0 80 32t43 85q2 12 3.5 22t1.5 18q0 24 -17 39q-11 12 -37.5 22t-71.5 20z" />
    <glyph glyph-name="dieresis" unicode="&#xa8;" horiz-adv-x="370" 
d="M161 637q-27 0 -38 11q-5 6 -5 21q0 14 6 29t18 23q5 3 14.5 5.5t23.5 2.5q26 0 35 -9q7 -7 7 -20q0 -15 -5.5 -30.5t-17.5 -23.5q-5 -4 -15.5 -6.5t-22.5 -2.5zM355 637q-28 0 -37 11q-6 7 -6 20q0 15 6.5 30t18.5 23q5 3 14.5 5.5t23.5 2.5q26 0 35 -9q4 -4 5 -9.5
t1 -10.5q0 -15 -5 -30.5t-16 -23.5q-14 -9 -40 -9z" />
    <glyph glyph-name="copyright" unicode="&#xa9;" horiz-adv-x="807" 
d="M444 540q-42 0 -71.5 -9.5t-48 -30t-26.5 -52.5t-8 -78q0 -44 7.5 -74.5t25 -50t46 -28t70.5 -8.5t73 5.5t53 10.5v-63q-25 -8 -61 -16t-89 -8q-113 0 -161 58t-48 166q0 129 54.5 189.5t171.5 60.5q43 0 76 -5.5t58 -11.5v-67q-22 4 -51 8t-71 4zM395 35q79 0 131.5 16
t90.5 48q20 18 38 45.5t31.5 63.5t21 78.5t7.5 89.5q0 100 -20.5 165t-55.5 102q-32 34 -89 52.5t-129 18.5q-74 0 -129 -17.5t-95 -50.5q-16 -14 -33.5 -39.5t-31.5 -61t-23.5 -80t-9.5 -96.5q0 -94 23 -159.5t59 -102.5q31 -32 83 -52t131 -20zM421 760q95 0 156 -24.5
t97 -59.5q17 -18 33.5 -44t29 -62t20.5 -83t8 -106q0 -112 -34 -192t-82 -125q-39 -36 -105 -56.5t-151 -20.5q-48 0 -85.5 6.5t-67 18.5t-53 28t-42.5 35q-17 17 -34 42.5t-30.5 61t-22 81t-8.5 101.5q0 60 9.5 109.5t26 89t37.5 69.5t45 50q41 35 103 58t150 23z" />
    <glyph glyph-name="ordfeminine" unicode="&#xaa;" horiz-adv-x="441" 
d="M320 382l-3 48q-9 -10 -22 -22t-14 -13q-15 -7 -46 -13t-59 -6q-50 0 -74 18t-24 60q0 10 2 24t7.5 28.5t14 28t20.5 22.5t29.5 15.5t44.5 12t65 10.5t91 10q6 30 6 47q0 9 -1.5 16t-9 12t-22 8t-39.5 3q-33 0 -70.5 -4.5t-66.5 -9.5l12 56q13 4 31 7.5t38 6.5t41 4.5
t40 1.5q39 0 64.5 -6t40.5 -17t21 -27.5t6 -38.5q0 -17 -8 -60l-47 -222h-68zM341 552q-27 -1 -53 -3.5t-48 -6t-38 -8t-23 -9.5q-7 -4 -13 -21t-6 -38q0 -6 0.5 -11.5t4.5 -8.5q5 -6 18.5 -9t33.5 -3q32 0 61.5 6t42.5 11z" />
    <glyph glyph-name="guillemotleft" unicode="&#xab;" horiz-adv-x="541" 
d="M195 38l-169 210l14 68l259 211l-22 -105l-161 -132l-5 -24l105 -131zM433 38l-169 210l14 68l259 211l-22 -105l-161 -132l-5 -24l105 -131z" />
    <glyph glyph-name="logicalnot" unicode="&#xac;" horiz-adv-x="667" 
d="M605 152h-84v245h-459v84h543v-329z" />
    <glyph glyph-name="uni00AD" unicode="&#xad;" horiz-adv-x="423" 
d="M99 361h281l-20 -98h-281z" />
    <glyph glyph-name="registered" unicode="&#xae;" horiz-adv-x="809" 
d="M398 34q80 0 132 16.5t90 48.5q20 18 38 45.5t31.5 63.5t21.5 78.5t8 89.5q0 100 -21 165t-56 102q-32 34 -89 53t-130 19q-74 0 -128 -18t-94 -51q-17 -14 -34.5 -39.5t-32 -61t-24 -80t-9.5 -96.5q0 -94 23 -159.5t59 -103.5q32 -32 83.5 -52t131.5 -20zM424 760
q95 0 156 -24.5t97 -59.5q18 -18 34 -44t28.5 -62t20 -83t7.5 -106q0 -112 -33.5 -192t-81.5 -125q-39 -36 -105 -56.5t-151 -20.5q-95 0 -153 25t-96 63q-17 17 -33.5 42.5t-30 61t-22 81t-8.5 101.5q0 60 9.5 109.5t26 89t37.5 69.5t45 50q42 35 103 58t150 23zM426 604
q42 0 73.5 -5t49.5 -18q20 -13 32 -38.5t12 -65.5q0 -33 -13.5 -63t-32.5 -43q-5 -3 -23 -9t-41 -13v-1q10 -5 26.5 -12t21.5 -12q19 -17 43 -66.5t56 -111.5h-91l-48 100q-14 28 -25 44.5t-23.5 24.5t-30.5 10.5t-46 2.5h-41v-182h-80v458h181zM325 386h68q19 0 37.5 1
t30.5 6q22 6 34.5 27t12.5 50q0 46 -22 61q-11 8 -30.5 10.5t-45.5 2.5h-85v-158z" />
    <glyph glyph-name="macron" unicode="&#xaf;" horiz-adv-x="370" 
d="M121 709h284l-15 -66h-284z" />
    <glyph glyph-name="degree" unicode="&#xb0;" horiz-adv-x="418" 
d="M77 588q0 36 13.5 67t37 54.5t55 37t67.5 13.5t67.5 -13.5t55 -37t37 -54.5t13.5 -67t-13.5 -68t-37 -55.5t-55 -37t-67.5 -13.5t-67.5 13.5t-55 37t-37 55.5t-13.5 68zM128 588q0 -26 9.5 -48.5t26 -39.5t38.5 -26.5t48 -9.5t48.5 9.5t39 26.5t26 39.5t9.5 48.5
q0 25 -9.5 47.5t-26 39t-39 26t-48.5 9.5t-48 -9.5t-38.5 -26t-26 -39t-9.5 -47.5z" />
    <glyph glyph-name="plusminus" unicode="&#xb1;" horiz-adv-x="667" 
d="M62 464h229v208h84v-208h230v-84h-230v-209h-84v209h-229v84zM605 0h-543v84h543v-84z" />
    <glyph glyph-name="twosuperior" unicode="&#xb2;" 
d="M437 396h-358l8 42q8 30 22 54.5t36.5 45.5t55.5 40.5t81 39.5l49 21t35.5 16.5t24.5 14t16 13.5q14 14 21.5 36.5t7.5 41.5q0 26 -20.5 37.5t-73.5 11.5q-44 0 -86 -6.5t-70 -11.5l13 63q33 8 78 15t86 7q87 0 124.5 -23.5t37.5 -78.5q0 -12 -2.5 -28.5t-8.5 -34.5
t-15.5 -35t-22.5 -30q-25 -23 -62 -41t-97 -41q-39 -16 -64.5 -29.5t-41 -25.5t-23.5 -23.5t-11 -23.5h291z" />
    <glyph glyph-name="threesuperior" unicode="&#xb3;" 
d="M502 741q-7 -25 -21.5 -46t-28.5 -32l-55 -22l48 -19q10 -10 16 -28.5t6 -38.5q0 -19 -5 -42q-8 -32 -23 -55.5t-41.5 -38.5t-65 -22.5t-92.5 -7.5q-48 0 -85 6t-61 12l12 63q27 -5 62 -10t73 -5q35 0 59 4t40 12t24.5 20t13.5 28q2 8 3 16.5t1 15.5q0 33 -29 43t-83 10
h-85l13 63h83q57 0 89.5 13t43.5 54q3 13 3 29q0 26 -20.5 37.5t-70.5 11.5q-39 0 -76 -5t-63 -10l14 61q27 7 68.5 13t81.5 6q86 0 121 -24t35 -70q0 -10 -1 -20.5t-4 -21.5z" />
    <glyph glyph-name="acute" unicode="&#xb4;" horiz-adv-x="370" 
d="M308 763h124l-204 -139h-92z" />
    <glyph glyph-name="mu" unicode="&#xb5;" horiz-adv-x="669" 
d="M232 -7q-70 0 -94 45l-67 -310h-108l179 833h108l-74 -346q-4 -18 -5.5 -33.5t-1.5 -27.5q0 -31 15 -49q12 -14 34 -19.5t45 -5.5q53 0 93.5 14t80.5 33l92 434h109l-121 -561h-80l-4 86h-5l-48 -56q-10 -6 -25.5 -12.5t-35 -12t-42 -9t-45.5 -3.5z" />
    <glyph glyph-name="paragraph" unicode="&#xb6;" horiz-adv-x="592" 
d="M520 682q-17 3 -37 5t-44 3l-170 -800h-59l90 425q-48 -12 -102 -12q-42 0 -66.5 11t-38.5 29q-12 16 -17.5 43t-2.5 70q1 35 9.5 71.5t22.5 70t34 62t46 46.5q27 21 72.5 33.5t120.5 12.5q29 0 63 -2.5t68 -6.5t66.5 -9.5t58.5 -11.5l-12 -58q-9 2 -21 4.5t-23 4.5
l-167 -783h-58z" />
    <glyph glyph-name="periodcentered" unicode="&#xb7;" horiz-adv-x="287" 
d="M189 264q-16 -12 -54 -12q-40 0 -52 15q-8 10 -8 28q0 22 7.5 42t20.5 30q10 7 23.5 9.5t29.5 2.5q39 0 50 -14q9 -9 9 -30q0 -22 -7 -41.5t-19 -29.5z" />
    <glyph glyph-name="cedilla" unicode="&#xb8;" horiz-adv-x="370" 
d="M102 0h46l-21 -51q56 -2 77 -20q14 -14 14 -46q0 -31 -12 -55.5t-31 -36.5q-33 -23 -107 -23q-32 0 -57 4.5t-42 10.5l9 51q19 -5 41 -9t51 -4q27 0 41.5 2.5t20.5 7.5q8 5 13.5 17.5t5.5 26.5q0 13 -6 19q-5 5 -18 8t-41 3h-25z" />
    <glyph glyph-name="onesuperior" unicode="&#xb9;" 
d="M104 396l14 65h136l72 344q-5 0 -26 -3.5l-45 -7.5l-45 -7.5t-25 -3.5l14 66l225 35l-90 -423h123l-13 -65h-340z" />
    <glyph glyph-name="ordmasculine" unicode="&#xba;" horiz-adv-x="467" 
d="M482 630q0 -29 -6 -60.5t-17 -61t-28 -54.5t-39 -41q-26 -20 -61 -29.5t-83 -9.5q-51 0 -82 12t-47 33q-10 13 -17 34t-7 48q0 28 5.5 59t16.5 59.5t28 53.5t40 42q26 18 61 28.5t80 10.5q54 0 84.5 -12.5t45.5 -31.5q11 -13 18.5 -32t7.5 -48zM338 459q13 10 24.5 28.5
t19 41t12 46.5t4.5 47q0 17 -3.5 27.5t-8.5 16.5q-10 11 -26.5 17t-42.5 6t-46 -7t-33 -15q-15 -12 -26.5 -30.5t-19 -40t-11 -44t-3.5 -43.5q0 -29 10 -47q8 -11 24 -18t43 -7q28 0 49 6t34 16z" />
    <glyph glyph-name="guillemotright" unicode="&#xbb;" horiz-adv-x="541" 
d="M109 527l169 -210l-15 -68l-259 -211l22 105l161 132l6 24l-106 131zM346 527l169 -210l-15 -68l-259 -211l22 105l161 132l6 24l-106 131z" />
    <glyph glyph-name="onequarter" unicode="&#xbc;" horiz-adv-x="1166" 
d="M945 0h-74l25 121h-248l13 66l266 289h119l-62 -290h106l-33 -65h-86zM957 408h-13l-199 -218l-1 -4h166zM74 275l14 65h136l72 344q-5 0 -26 -3.5l-45 -7.5l-45 -7.5t-25 -3.5l14 66l225 35l-90 -423h123l-13 -65h-340zM886 750h75l-654 -750h-75z" />
    <glyph glyph-name="onehalf" unicode="&#xbd;" horiz-adv-x="1178" 
d="M1021 0h-358l8 42q8 30 22 54.5t36.5 45.5t56 40.5t81.5 39.5q28 12 48.5 21t35 16.5t24.5 14t16 13.5q14 14 22 36.5t8 41.5q0 26 -20.5 37.5t-74.5 11.5q-43 0 -85.5 -6.5t-70.5 -11.5l13 63q33 8 78.5 15t86.5 7q87 0 124.5 -23.5t37.5 -78.5q0 -12 -2.5 -28.5
t-8.5 -34.5t-15.5 -35t-23.5 -30q-24 -23 -61.5 -40.5t-97.5 -41.5q-39 -15 -64.5 -28.5t-41 -26t-23.5 -24t-11 -23.5h291zM74 275l14 65h136l72 344q-5 0 -26 -3.5l-45 -7.5l-45 -7.5t-25 -3.5l14 66l225 35l-90 -423h123l-13 -65h-340zM886 750h75l-654 -750h-75z" />
    <glyph glyph-name="threequarters" unicode="&#xbe;" horiz-adv-x="1163" 
d="M473 620q-7 -25 -21.5 -46t-28.5 -32l-55 -22l48 -19q10 -10 16 -28.5t6 -38.5q0 -19 -5 -42q-8 -32 -23 -55.5t-41.5 -38.5t-65 -22.5t-92.5 -7.5q-48 0 -85 6t-61 12l12 63q27 -5 62 -10t73 -5q35 0 59 4t40 12t24.5 20t13.5 28q2 8 3 16.5t1 15.5q0 33 -29 43t-83 10
h-85l13 63h83q57 0 89.5 13t43.5 54q3 13 3 29q0 26 -20.5 37.5t-70.5 11.5q-39 0 -76 -5t-63 -10l14 61q27 7 68.5 13t81.5 6q86 0 121 -24t35 -70q0 -10 -1 -20.5t-4 -21.5zM942 0h-74l25 121h-248l13 66l266 289h119l-62 -290h106l-33 -65h-86zM954 408h-13l-199 -218
l-1 -4h166zM884 750h75l-654 -750h-75z" />
    <glyph glyph-name="questiondown" unicode="&#xbf;" horiz-adv-x="549" 
d="M411 347l-7 -32q-7 -32 -15 -55.5t-23 -43t-41.5 -37.5t-69.5 -39q-41 -20 -65.5 -34.5t-38.5 -31.5q-17 -18 -24.5 -44.5t-7.5 -54.5q0 -34 21 -51q27 -23 113 -23q66 0 122 9t88 17l-19 -89q-38 -11 -94.5 -20.5t-120.5 -9.5q-131 0 -181 45q-37 34 -37 105
q0 21 3.5 44t10 44.5t16 40t22.5 32.5q23 26 59 47t92 47q26 12 42.5 24t26 24t14.5 25t8 28l6 33h100zM345 564q16 12 54 12q41 0 51 -14q8 -10 8 -28q0 -22 -7.5 -42.5t-21.5 -30.5q-9 -6 -22.5 -8.5t-28.5 -2.5q-40 0 -50 13q-10 10 -10 29q0 23 7.5 43t19.5 29z" />
    <glyph glyph-name="Agrave" unicode="&#xc0;" horiz-adv-x="756" 
d="M549 0l-30 239h-310l-137 -239h-117l435 749l170 1l101 -750h-112zM468 647h-30l-180 -318h250zM418 952l133 -138h-85l-162 138h114z" />
    <glyph glyph-name="Aacute" unicode="&#xc1;" horiz-adv-x="756" 
d="M549 0l-30 239h-310l-137 -239h-117l435 749l170 1l101 -750h-112zM468 647h-30l-180 -318h250zM582 952h124l-204 -139h-92z" />
    <glyph glyph-name="Acircumflex" unicode="&#xc2;" horiz-adv-x="756" 
d="M549 0l-30 239h-310l-137 -239h-117l435 749l170 1l101 -750h-112zM468 647h-30l-180 -318h250zM645 816h-74l-72 80l-107 -80h-83l157 130h78z" />
    <glyph glyph-name="Atilde" unicode="&#xc3;" horiz-adv-x="756" 
d="M549 0l-30 239h-310l-137 -239h-117l435 749l170 1l101 -750h-112zM468 647h-30l-180 -318h250zM309 828q12 48 39.5 76.5t72.5 28.5q24 0 42 -9t32.5 -19.5t28 -19.5t29.5 -9q19 0 31.5 11.5t21.5 39.5h53q-13 -55 -42 -81t-70 -26q-25 0 -42.5 9t-32.5 20t-28 20t-29 9
q-37 0 -53 -50h-53z" />
    <glyph glyph-name="Adieresis" unicode="&#xc4;" horiz-adv-x="756" 
d="M549 0l-30 239h-310l-137 -239h-117l435 749l170 1l101 -750h-112zM468 647h-30l-180 -318h250zM380 826q-27 0 -38 11q-5 6 -5 21q0 14 6 29t18 23q5 3 14.5 5.5t23.5 2.5q26 0 35 -9q7 -7 7 -20q0 -15 -5.5 -30.5t-17.5 -23.5q-5 -4 -15.5 -6.5t-22.5 -2.5zM574 826
q-28 0 -37 11q-6 7 -6 20q0 15 6.5 30t18.5 23q5 3 14.5 5.5t23.5 2.5q26 0 35 -9q4 -4 5 -9.5t1 -10.5q0 -15 -5 -30.5t-16 -23.5q-14 -9 -40 -9z" />
    <glyph glyph-name="Aring" unicode="&#xc5;" horiz-adv-x="756" 
d="M549 0l-30 239h-310l-137 -239h-117l435 749l170 1l101 -750h-112zM468 647h-30l-180 -318h250zM479 809q-42 0 -62 18t-20 50q0 20 7 47.5t27 44.5q28 25 80 25q46 0 64.5 -18.5t18.5 -47.5q0 -20 -8 -48t-28 -46q-14 -11 -33 -18t-46 -7zM485 850q14 0 25.5 3.5
t18.5 12.5q8 11 12.5 27t4.5 31q0 14 -8.5 21.5t-31.5 7.5q-31 0 -45 -15q-8 -11 -12.5 -25.5t-4.5 -31.5q0 -15 8.5 -23t32.5 -8z" />
    <glyph glyph-name="AE" unicode="&#xc6;" horiz-adv-x="1028" 
d="M1071 750l-38 -93h-356l-48 -228h314l-38 -91h-295l-52 -244h389l-42 -94h-474l51 238h-249l-170 -238h-119l549 750h578zM570 655h-38l-235 -327h204z" />
    <glyph glyph-name="Ccedilla" unicode="&#xc7;" horiz-adv-x="699" 
d="M318 -9q-73 3 -122 22.5t-78 57.5q-23 29 -35.5 74t-12.5 99q0 61 11.5 125.5t35.5 125t59.5 112t83.5 86.5q47 33 110 49.5t140 16.5q67 0 123.5 -8.5t95.5 -17.5l-17 -88q-36 7 -84 13.5t-108 6.5q-37 0 -65.5 -3.5t-52 -9.5t-42 -14.5t-34.5 -19.5q-35 -25 -62 -66
t-46 -90t-28.5 -102.5t-9.5 -102.5q0 -40 7.5 -71t24.5 -50q43 -49 167 -49q63 0 119.5 8.5t101.5 18.5l-20 -92q-45 -12 -99 -21t-117 -11l-17 -41q56 -2 77 -20q14 -14 14 -46q0 -31 -12 -55.5t-31 -36.5q-33 -23 -107 -23q-32 0 -57 4.5t-42 10.5l9 51q19 -5 41 -9t51 -4
q27 0 41.5 2.5t20.5 7.5q8 5 13.5 17.5t5.5 26.5q0 13 -6 19q-5 5 -18 8t-41 3h-25z" />
    <glyph glyph-name="Egrave" unicode="&#xc8;" horiz-adv-x="632" 
d="M509 0h-474l159 750h481l-37 -93h-357l-48 -228h314l-38 -91h-295l-52 -244h390zM374 952l133 -138h-85l-162 138h114z" />
    <glyph glyph-name="Eacute" unicode="&#xc9;" horiz-adv-x="632" 
d="M509 0h-474l159 750h481l-37 -93h-357l-48 -228h314l-38 -91h-295l-52 -244h390zM512 952h124l-204 -139h-92z" />
    <glyph glyph-name="Ecircumflex" unicode="&#xca;" horiz-adv-x="632" 
d="M509 0h-474l159 750h481l-37 -93h-357l-48 -228h314l-38 -91h-295l-52 -244h390zM612 816h-74l-72 80l-107 -80h-83l157 130h78z" />
    <glyph glyph-name="Edieresis" unicode="&#xcb;" horiz-adv-x="632" 
d="M509 0h-474l159 750h481l-37 -93h-357l-48 -228h314l-38 -91h-295l-52 -244h390zM344 826q-27 0 -38 11q-5 6 -5 21q0 14 6 29t18 23q5 3 14.5 5.5t23.5 2.5q26 0 35 -9q7 -7 7 -20q0 -15 -5.5 -30.5t-17.5 -23.5q-5 -4 -15.5 -6.5t-22.5 -2.5zM538 826q-28 0 -37 11
q-6 7 -6 20q0 15 6.5 30t18.5 23q5 3 14.5 5.5t23.5 2.5q26 0 35 -9q4 -4 5 -9.5t1 -10.5q0 -15 -5 -30.5t-16 -23.5q-14 -9 -40 -9z" />
    <glyph glyph-name="Igrave" unicode="&#xcc;" horiz-adv-x="306" 
d="M36 0l159 750h105l-159 -750h-105zM194 952l133 -138h-85l-162 138h114z" />
    <glyph glyph-name="Iacute" unicode="&#xcd;" horiz-adv-x="306" 
d="M36 0l159 750h105l-159 -750h-105zM355 952h124l-204 -139h-92z" />
    <glyph glyph-name="Icircumflex" unicode="&#xce;" horiz-adv-x="306" 
d="M36 0l159 750h105l-159 -750h-105zM424 816h-74l-72 80l-107 -80h-83l157 130h78z" />
    <glyph glyph-name="Idieresis" unicode="&#xcf;" horiz-adv-x="306" 
d="M36 0l159 750h105l-159 -750h-105zM162 826q-27 0 -38 11q-5 6 -5 21q0 14 6 29t18 23q5 3 14.5 5.5t23.5 2.5q26 0 35 -9q7 -7 7 -20q0 -15 -5.5 -30.5t-17.5 -23.5q-5 -4 -15.5 -6.5t-22.5 -2.5zM356 826q-28 0 -37 11q-6 7 -6 20q0 15 6.5 30t18.5 23q5 3 14.5 5.5
t23.5 2.5q26 0 35 -9q4 -4 5 -9.5t1 -10.5q0 -15 -5 -30.5t-16 -23.5q-14 -9 -40 -9z" />
    <glyph glyph-name="Eth" unicode="&#xd0;" horiz-adv-x="800" 
d="M441 750q61 0 105 -5t76 -14t54 -22.5t37 -31.5q19 -23 30.5 -62.5t11.5 -97.5q0 -56 -12 -121.5t-36 -128.5t-58.5 -116.5t-79.5 -86.5q-46 -32 -112.5 -48t-172.5 -16h-249l72 342h-93l25 70h83l72 338h247zM228 412h202l-24 -70h-192l-53 -246h116q48 0 83.5 2.5
t62.5 7.5t47 13t36 20q33 25 58.5 69.5t43.5 96t27 104.5t9 95q0 36 -6.5 63t-20.5 43q-21 24 -67.5 35.5t-126.5 11.5h-143z" />
    <glyph glyph-name="Ntilde" unicode="&#xd1;" horiz-adv-x="847" 
d="M528 0l-239 643h-18l-136 -643h-97l158 750h158l237 -636h16l135 636h99l-159 -750h-154zM360 828q12 48 39.5 76.5t72.5 28.5q24 0 42 -9t32.5 -19.5t28 -19.5t29.5 -9q19 0 31.5 11.5t21.5 39.5h53q-13 -55 -42 -81t-70 -26q-25 0 -42.5 9t-32.5 20t-28 20t-29 9
q-37 0 -53 -50h-53z" />
    <glyph glyph-name="Ograve" unicode="&#xd2;" horiz-adv-x="835" 
d="M366 85q60 -1 102.5 12t72.5 35q33 26 59 71.5t44 98t27 106t9 95.5q0 70 -25 104q-17 26 -59 41.5t-101 15.5t-101 -12.5t-75 -37.5q-34 -27 -59.5 -71t-43 -94.5t-26 -103.5t-8.5 -98q0 -36 6.5 -61.5t18.5 -42.5q20 -29 62.5 -43.5t96.5 -14.5zM504 760
q96 0 153.5 -22.5t88.5 -61.5q20 -24 32 -63.5t12 -96.5q0 -54 -11 -118.5t-33.5 -127.5t-57 -118.5t-80.5 -92.5q-25 -20 -56 -33.5t-64 -21.5t-66 -11.5t-62 -3.5q-52 0 -91.5 6.5t-68.5 18t-49.5 27.5t-34.5 35q-18 23 -30.5 61.5t-12.5 96.5q0 55 10 119.5t32 126
t56 116t82 90.5q47 35 108 54.5t143 19.5zM478 952l133 -138h-85l-162 138h114z" />
    <glyph glyph-name="Oacute" unicode="&#xd3;" horiz-adv-x="835" 
d="M366 85q60 -1 102.5 12t72.5 35q33 26 59 71.5t44 98t27 106t9 95.5q0 70 -25 104q-17 26 -59 41.5t-101 15.5t-101 -12.5t-75 -37.5q-34 -27 -59.5 -71t-43 -94.5t-26 -103.5t-8.5 -98q0 -36 6.5 -61.5t18.5 -42.5q20 -29 62.5 -43.5t96.5 -14.5zM504 760
q96 0 153.5 -22.5t88.5 -61.5q20 -24 32 -63.5t12 -96.5q0 -54 -11 -118.5t-33.5 -127.5t-57 -118.5t-80.5 -92.5q-25 -20 -56 -33.5t-64 -21.5t-66 -11.5t-62 -3.5q-52 0 -91.5 6.5t-68.5 18t-49.5 27.5t-34.5 35q-18 23 -30.5 61.5t-12.5 96.5q0 55 10 119.5t32 126
t56 116t82 90.5q47 35 108 54.5t143 19.5zM607 952h124l-204 -139h-92z" />
    <glyph glyph-name="Ocircumflex" unicode="&#xd4;" horiz-adv-x="835" 
d="M366 85q60 -1 102.5 12t72.5 35q33 26 59 71.5t44 98t27 106t9 95.5q0 70 -25 104q-17 26 -59 41.5t-101 15.5t-101 -12.5t-75 -37.5q-34 -27 -59.5 -71t-43 -94.5t-26 -103.5t-8.5 -98q0 -36 6.5 -61.5t18.5 -42.5q20 -29 62.5 -43.5t96.5 -14.5zM504 760
q96 0 153.5 -22.5t88.5 -61.5q20 -24 32 -63.5t12 -96.5q0 -54 -11 -118.5t-33.5 -127.5t-57 -118.5t-80.5 -92.5q-25 -20 -56 -33.5t-64 -21.5t-66 -11.5t-62 -3.5q-52 0 -91.5 6.5t-68.5 18t-49.5 27.5t-34.5 35q-18 23 -30.5 61.5t-12.5 96.5q0 55 10 119.5t32 126
t56 116t82 90.5q47 35 108 54.5t143 19.5zM693 816h-74l-72 80l-107 -80h-83l157 130h78z" />
    <glyph glyph-name="Otilde" unicode="&#xd5;" horiz-adv-x="835" 
d="M366 85q60 -1 102.5 12t72.5 35q33 26 59 71.5t44 98t27 106t9 95.5q0 70 -25 104q-17 26 -59 41.5t-101 15.5t-101 -12.5t-75 -37.5q-34 -27 -59.5 -71t-43 -94.5t-26 -103.5t-8.5 -98q0 -36 6.5 -61.5t18.5 -42.5q20 -29 62.5 -43.5t96.5 -14.5zM504 760
q96 0 153.5 -22.5t88.5 -61.5q20 -24 32 -63.5t12 -96.5q0 -54 -11 -118.5t-33.5 -127.5t-57 -118.5t-80.5 -92.5q-25 -20 -56 -33.5t-64 -21.5t-66 -11.5t-62 -3.5q-52 0 -91.5 6.5t-68.5 18t-49.5 27.5t-34.5 35q-18 23 -30.5 61.5t-12.5 96.5q0 55 10 119.5t32 126
t56 116t82 90.5q47 35 108 54.5t143 19.5zM346 828q12 48 39.5 76.5t72.5 28.5q24 0 42 -9t32.5 -19.5t28 -19.5t29.5 -9q19 0 31.5 11.5t21.5 39.5h53q-13 -55 -42 -81t-70 -26q-25 0 -42.5 9t-32.5 20t-28 20t-29 9q-37 0 -53 -50h-53z" />
    <glyph glyph-name="Odieresis" unicode="&#xd6;" horiz-adv-x="835" 
d="M366 85q60 -1 102.5 12t72.5 35q33 26 59 71.5t44 98t27 106t9 95.5q0 70 -25 104q-17 26 -59 41.5t-101 15.5t-101 -12.5t-75 -37.5q-34 -27 -59.5 -71t-43 -94.5t-26 -103.5t-8.5 -98q0 -36 6.5 -61.5t18.5 -42.5q20 -29 62.5 -43.5t96.5 -14.5zM504 760
q96 0 153.5 -22.5t88.5 -61.5q20 -24 32 -63.5t12 -96.5q0 -54 -11 -118.5t-33.5 -127.5t-57 -118.5t-80.5 -92.5q-25 -20 -56 -33.5t-64 -21.5t-66 -11.5t-62 -3.5q-52 0 -91.5 6.5t-68.5 18t-49.5 27.5t-34.5 35q-18 23 -30.5 61.5t-12.5 96.5q0 55 10 119.5t32 126
t56 116t82 90.5q47 35 108 54.5t143 19.5zM421 826q-27 0 -38 11q-5 6 -5 21q0 14 6 29t18 23q5 3 14.5 5.5t23.5 2.5q26 0 35 -9q7 -7 7 -20q0 -15 -5.5 -30.5t-17.5 -23.5q-5 -4 -15.5 -6.5t-22.5 -2.5zM615 826q-28 0 -37 11q-6 7 -6 20q0 15 6.5 30t18.5 23
q5 3 14.5 5.5t23.5 2.5q26 0 35 -9q4 -4 5 -9.5t1 -10.5q0 -15 -5 -30.5t-16 -23.5q-14 -9 -40 -9z" />
    <glyph glyph-name="multiply" unicode="&#xd7;" horiz-adv-x="667" 
d="M138 595l195 -197l196 197l60 -60l-197 -197l197 -195l-60 -60l-196 196l-195 -196l-60 60l196 195l-196 197z" />
    <glyph glyph-name="Oslash" unicode="&#xd8;" horiz-adv-x="835" 
d="M7 -3l97 96q-14 23 -22.5 58t-8.5 86q0 54 10 117.5t32 125t56 116t82 90.5q47 35 108 54.5t143 19.5q80 0 132 -16t84 -43l55 53h80l-97 -95q14 -25 23 -61t9 -84q0 -54 -11 -118t-33.5 -126.5t-57 -118t-80.5 -92.5q-25 -20 -56 -33.5t-64 -21.5t-66 -11.5t-62 -3.5
q-86 0 -137.5 16.5t-82.5 44.5l-53 -53h-80zM366 85q60 -1 102.5 12t72.5 35q33 26 59 71.5t44 97.5t27 104t9 91q0 43 -11 73l-449 -440q24 -23 62 -33.5t84 -10.5zM182 251q0 -43 10 -70l449 441q-47 42 -146 42q-59 0 -101 -12.5t-75 -37.5q-34 -27 -59.5 -71t-43 -94
t-26 -102.5t-8.5 -95.5z" />
    <glyph glyph-name="Ugrave" unicode="&#xd9;" horiz-adv-x="782" 
d="M776 750l-99 -465q-10 -47 -21.5 -83t-25 -64t-30 -49.5t-35.5 -37.5q-32 -26 -89.5 -45t-141.5 -19q-58 0 -98 8t-67 20.5t-43.5 28t-25.5 30.5q-11 17 -18 40.5t-7 56.5q0 26 4 57.5t14 76.5l94 445h106l-94 -442q-10 -42 -13.5 -70t-3.5 -50q0 -35 13 -54
q13 -20 48 -35t98 -15q60 0 97.5 11.5t60.5 31.5q11 9 21 22t19 32.5t17.5 47t16.5 66.5l97 455h106zM417 952l133 -138h-85l-162 138h114z" />
    <glyph glyph-name="Uacute" unicode="&#xda;" horiz-adv-x="782" 
d="M776 750l-99 -465q-10 -47 -21.5 -83t-25 -64t-30 -49.5t-35.5 -37.5q-32 -26 -89.5 -45t-141.5 -19q-58 0 -98 8t-67 20.5t-43.5 28t-25.5 30.5q-11 17 -18 40.5t-7 56.5q0 26 4 57.5t14 76.5l94 445h106l-94 -442q-10 -42 -13.5 -70t-3.5 -50q0 -35 13 -54
q13 -20 48 -35t98 -15q60 0 97.5 11.5t60.5 31.5q11 9 21 22t19 32.5t17.5 47t16.5 66.5l97 455h106zM590 952h124l-204 -139h-92z" />
    <glyph glyph-name="Ucircumflex" unicode="&#xdb;" horiz-adv-x="782" 
d="M776 750l-99 -465q-10 -47 -21.5 -83t-25 -64t-30 -49.5t-35.5 -37.5q-32 -26 -89.5 -45t-141.5 -19q-58 0 -98 8t-67 20.5t-43.5 28t-25.5 30.5q-11 17 -18 40.5t-7 56.5q0 26 4 57.5t14 76.5l94 445h106l-94 -442q-10 -42 -13.5 -70t-3.5 -50q0 -35 13 -54
q13 -20 48 -35t98 -15q60 0 97.5 11.5t60.5 31.5q11 9 21 22t19 32.5t17.5 47t16.5 66.5l97 455h106zM656 816h-74l-72 80l-107 -80h-83l157 130h78z" />
    <glyph glyph-name="Udieresis" unicode="&#xdc;" horiz-adv-x="782" 
d="M776 750l-99 -465q-10 -47 -21.5 -83t-25 -64t-30 -49.5t-35.5 -37.5q-32 -26 -89.5 -45t-141.5 -19q-58 0 -98 8t-67 20.5t-43.5 28t-25.5 30.5q-11 17 -18 40.5t-7 56.5q0 26 4 57.5t14 76.5l94 445h106l-94 -442q-10 -42 -13.5 -70t-3.5 -50q0 -35 13 -54
q13 -20 48 -35t98 -15q60 0 97.5 11.5t60.5 31.5q11 9 21 22t19 32.5t17.5 47t16.5 66.5l97 455h106zM391 826q-27 0 -38 11q-5 6 -5 21q0 14 6 29t18 23q5 3 14.5 5.5t23.5 2.5q26 0 35 -9q7 -7 7 -20q0 -15 -5.5 -30.5t-17.5 -23.5q-5 -4 -15.5 -6.5t-22.5 -2.5zM585 826
q-28 0 -37 11q-6 7 -6 20q0 15 6.5 30t18.5 23q5 3 14.5 5.5t23.5 2.5q26 0 35 -9q4 -4 5 -9.5t1 -10.5q0 -15 -5 -30.5t-16 -23.5q-14 -9 -40 -9z" />
    <glyph glyph-name="Yacute" unicode="&#xdd;" horiz-adv-x="693" 
d="M319 0h-105l55 262l-160 488h111l117 -376h10l283 376h130l-385 -488zM517 952h124l-204 -139h-92z" />
    <glyph glyph-name="Thorn" unicode="&#xde;" horiz-adv-x="673" 
d="M176 154l-32 -154h-107l159 750h108l-28 -129h166q57 0 98 -9t65 -32q20 -19 31 -49.5t11 -75.5q0 -31 -6 -66.5t-19.5 -69.5t-35.5 -64.5t-53 -52.5q-20 -14 -41.5 -23.5t-50 -15t-67.5 -7.5t-93 -2h-105zM452 265q24 12 40.5 32.5t27 45.5t15 52t4.5 51q0 44 -20 66
q-13 14 -39 19t-61 5h-161l-62 -290h123q102 0 133 19z" />
    <glyph glyph-name="germandbls" unicode="&#xdf;" horiz-adv-x="727" 
d="M562 494q-32 0 -54.5 -4t-37.5 -12.5t-23.5 -22t-12.5 -32.5q-4 -13 -4 -27q0 -20 8 -31q9 -11 28 -20.5t59 -20.5q48 -14 74.5 -28t38.5 -30q15 -22 15 -58q0 -12 -1.5 -26t-5.5 -29q-9 -40 -23.5 -68t-40.5 -48q-26 -22 -71.5 -33.5t-115.5 -11.5q-47 0 -90 6t-73 15
l15 75q12 -3 29.5 -6t37 -5t40.5 -3.5t39 -1.5q45 0 73.5 6t46.5 24q11 11 17 24t10 30q3 8 3.5 15t0.5 13q0 20 -7 31q-10 12 -30 21.5t-55 20.5q-49 14 -76 30t-40 38q-11 18 -11 49q0 28 7 59q8 33 21 58t34.5 41.5t52 24.5t73.5 8h29q3 8 7 20t8 26q2 8 3 19t1 19
q0 38 -26 57.5t-89 19.5q-40 0 -69.5 -7t-51 -26t-36.5 -52t-26 -85l-117 -556h-107l117 556q14 68 36 115.5t56.5 77.5t85 43.5t122.5 13.5q58 0 98.5 -10t65.5 -28.5t36 -46t11 -62.5q0 -14 -2 -29t-6 -32q-7 -30 -16.5 -56.5t-19.5 -47.5h-61z" />
    <glyph glyph-name="agrave" unicode="&#xe0;" horiz-adv-x="618" 
d="M395 0l-12 78h-6l-57 -60q-20 -11 -56.5 -19t-78.5 -8q-57 0 -88 11.5t-47 33.5q-20 28 -20 78q0 25 5.5 51.5t17 50.5t28.5 43.5t40 31.5q45 22 127.5 32t186.5 18q5 23 8 41.5t3 33.5q0 26 -10 40q-11 17 -37.5 22.5t-66.5 5.5q-25 0 -52.5 -2.5t-53.5 -6t-50 -7.5
t-41 -7l21 82q39 11 95 21t119 10q61 0 99 -10.5t57 -30.5q15 -16 21.5 -37.5t6.5 -50.5q0 -25 -4.5 -55.5t-12.5 -72.5l-67 -317h-75zM420 268q-35 -2 -74 -5t-74 -7t-61.5 -9.5t-35.5 -11.5q-20 -17 -31 -46.5t-11 -57.5q0 -23 9 -36q18 -21 81 -21q51 0 94.5 12t66.5 21z
M320 763l133 -138h-85l-162 138h114z" />
    <glyph glyph-name="aacute" unicode="&#xe1;" horiz-adv-x="618" 
d="M395 0l-12 78h-6l-57 -60q-20 -11 -56.5 -19t-78.5 -8q-57 0 -88 11.5t-47 33.5q-20 28 -20 78q0 25 5.5 51.5t17 50.5t28.5 43.5t40 31.5q45 22 127.5 32t186.5 18q5 23 8 41.5t3 33.5q0 26 -10 40q-11 17 -37.5 22.5t-66.5 5.5q-25 0 -52.5 -2.5t-53.5 -6t-50 -7.5
t-41 -7l21 82q39 11 95 21t119 10q61 0 99 -10.5t57 -30.5q15 -16 21.5 -37.5t6.5 -50.5q0 -25 -4.5 -55.5t-12.5 -72.5l-67 -317h-75zM420 268q-35 -2 -74 -5t-74 -7t-61.5 -9.5t-35.5 -11.5q-20 -17 -31 -46.5t-11 -57.5q0 -23 9 -36q18 -21 81 -21q51 0 94.5 12t66.5 21z
M452 763h124l-204 -139h-92z" />
    <glyph glyph-name="acircumflex" unicode="&#xe2;" horiz-adv-x="618" 
d="M395 0l-12 78h-6l-57 -60q-20 -11 -56.5 -19t-78.5 -8q-57 0 -88 11.5t-47 33.5q-20 28 -20 78q0 25 5.5 51.5t17 50.5t28.5 43.5t40 31.5q45 22 127.5 32t186.5 18q5 23 8 41.5t3 33.5q0 26 -10 40q-11 17 -37.5 22.5t-66.5 5.5q-25 0 -52.5 -2.5t-53.5 -6t-50 -7.5
t-41 -7l21 82q39 11 95 21t119 10q61 0 99 -10.5t57 -30.5q15 -16 21.5 -37.5t6.5 -50.5q0 -25 -4.5 -55.5t-12.5 -72.5l-67 -317h-75zM420 268q-35 -2 -74 -5t-74 -7t-61.5 -9.5t-35.5 -11.5q-20 -17 -31 -46.5t-11 -57.5q0 -23 9 -36q18 -21 81 -21q51 0 94.5 12t66.5 21z
M539 627h-74l-72 80l-107 -80h-83l157 130h78z" />
    <glyph glyph-name="atilde" unicode="&#xe3;" horiz-adv-x="618" 
d="M395 0l-12 78h-6l-57 -60q-20 -11 -56.5 -19t-78.5 -8q-57 0 -88 11.5t-47 33.5q-20 28 -20 78q0 25 5.5 51.5t17 50.5t28.5 43.5t40 31.5q45 22 127.5 32t186.5 18q5 23 8 41.5t3 33.5q0 26 -10 40q-11 17 -37.5 22.5t-66.5 5.5q-25 0 -52.5 -2.5t-53.5 -6t-50 -7.5
t-41 -7l21 82q39 11 95 21t119 10q61 0 99 -10.5t57 -30.5q15 -16 21.5 -37.5t6.5 -50.5q0 -25 -4.5 -55.5t-12.5 -72.5l-67 -317h-75zM420 268q-35 -2 -74 -5t-74 -7t-61.5 -9.5t-35.5 -11.5q-20 -17 -31 -46.5t-11 -57.5q0 -23 9 -36q18 -21 81 -21q51 0 94.5 12t66.5 21z
M204 639q12 48 39.5 76.5t72.5 28.5q24 0 42 -9t32.5 -19.5t28 -19.5t29.5 -9q19 0 31.5 11.5t21.5 39.5h53q-13 -55 -42 -81t-70 -26q-25 0 -42.5 9t-32.5 20t-28 20t-29 9q-37 0 -53 -50h-53z" />
    <glyph glyph-name="adieresis" unicode="&#xe4;" horiz-adv-x="618" 
d="M395 0l-12 78h-6l-57 -60q-20 -11 -56.5 -19t-78.5 -8q-57 0 -88 11.5t-47 33.5q-20 28 -20 78q0 25 5.5 51.5t17 50.5t28.5 43.5t40 31.5q45 22 127.5 32t186.5 18q5 23 8 41.5t3 33.5q0 26 -10 40q-11 17 -37.5 22.5t-66.5 5.5q-25 0 -52.5 -2.5t-53.5 -6t-50 -7.5
t-41 -7l21 82q39 11 95 21t119 10q61 0 99 -10.5t57 -30.5q15 -16 21.5 -37.5t6.5 -50.5q0 -25 -4.5 -55.5t-12.5 -72.5l-67 -317h-75zM420 268q-35 -2 -74 -5t-74 -7t-61.5 -9.5t-35.5 -11.5q-20 -17 -31 -46.5t-11 -57.5q0 -23 9 -36q18 -21 81 -21q51 0 94.5 12t66.5 21z
M277 637q-27 0 -38 11q-5 6 -5 21q0 14 6 29t18 23q5 3 14.5 5.5t23.5 2.5q26 0 35 -9q7 -7 7 -20q0 -15 -5.5 -30.5t-17.5 -23.5q-5 -4 -15.5 -6.5t-22.5 -2.5zM471 637q-28 0 -37 11q-6 7 -6 20q0 15 6.5 30t18.5 23q5 3 14.5 5.5t23.5 2.5q26 0 35 -9q4 -4 5 -9.5
t1 -10.5q0 -15 -5 -30.5t-16 -23.5q-14 -9 -40 -9z" />
    <glyph glyph-name="aring" unicode="&#xe5;" horiz-adv-x="618" 
d="M395 0l-12 78h-6l-57 -60q-20 -11 -56.5 -19t-78.5 -8q-57 0 -88 11.5t-47 33.5q-20 28 -20 78q0 25 5.5 51.5t17 50.5t28.5 43.5t40 31.5q45 22 127.5 32t186.5 18q5 23 8 41.5t3 33.5q0 26 -10 40q-11 17 -37.5 22.5t-66.5 5.5q-25 0 -52.5 -2.5t-53.5 -6t-50 -7.5
t-41 -7l21 82q39 11 95 21t119 10q61 0 99 -10.5t57 -30.5q15 -16 21.5 -37.5t6.5 -50.5q0 -25 -4.5 -55.5t-12.5 -72.5l-67 -317h-75zM420 268q-35 -2 -74 -5t-74 -7t-61.5 -9.5t-35.5 -11.5q-20 -17 -31 -46.5t-11 -57.5q0 -23 9 -36q18 -21 81 -21q51 0 94.5 12t66.5 21z
M376 616q-42 0 -62 18t-20 50q0 20 7 47.5t27 44.5q28 25 80 25q46 0 64.5 -18.5t18.5 -47.5q0 -20 -8 -48t-28 -46q-14 -11 -33 -18t-46 -7zM382 657q14 0 25.5 3.5t18.5 12.5q8 11 12.5 27t4.5 31q0 14 -8.5 21.5t-31.5 7.5q-31 0 -45 -15q-8 -11 -12.5 -25.5t-4.5 -31.5
q0 -15 8.5 -23t32.5 -8z" />
    <glyph glyph-name="ae" unicode="&#xe6;" horiz-adv-x="951" 
d="M823 23q-38 -13 -89.5 -23t-108.5 -10q-78 0 -125.5 23t-71.5 73h-5l-53 -59q-29 -16 -76.5 -26t-101.5 -10q-63 0 -94.5 12t-47.5 33q-20 28 -20 77q0 25 5.5 52t16.5 51.5t27.5 44t39.5 31.5q22 11 54.5 18.5t73.5 12.5t88.5 8t98.5 5q5 23 8.5 42t3.5 36q0 24 -9 38
t-25 21t-36.5 9t-42.5 2q-25 0 -52.5 -2.5t-54 -6t-50.5 -7.5t-41 -7l21 82q38 11 96 21t120 10q73 0 110 -19t51 -56q28 32 77.5 54.5t121.5 22.5q103 0 149 -39t46 -110q0 -47 -18.5 -78t-52.5 -50.5t-82 -27.5t-107 -8h-142q-3 -20 -5 -38.5t-2 -35.5q0 -24 5 -43t17 -32
q30 -34 112 -34q29 0 57 3t53.5 7.5t47.5 9.5t38 8zM418 263q-36 -1 -75 -3t-73.5 -5.5t-60 -8.5t-34.5 -12q-20 -17 -30.5 -46.5t-10.5 -57.5q0 -23 9 -35q16 -21 79 -21q51 0 103.5 12.5t93.5 29.5q-4 14 -5.5 31t-1.5 34q0 23 1.5 42.5t4.5 39.5zM820 423q0 31 -23 51.5
t-80 20.5q-65 0 -105 -31q-26 -19 -43 -48.5t-29 -79.5h131q34 0 61.5 4t47 13.5t30 26.5t10.5 43z" />
    <glyph glyph-name="ccedilla" unicode="&#xe7;" horiz-adv-x="553" 
d="M230 -9q-85 7 -127 51q-22 23 -33 57t-11 82t9.5 99t27.5 97.5t44.5 85.5t60.5 63q38 26 82.5 37.5t98.5 11.5q55 0 99.5 -6.5t67.5 -11.5l-10 -84q-26 4 -60 9t-82 5q-44 0 -76 -8t-57 -27q-24 -18 -42.5 -48.5t-31 -66.5t-19 -73.5t-6.5 -68.5q0 -59 27 -86
q30 -30 103 -30q51 0 94.5 8t75.5 13l-21 -82q-34 -11 -74.5 -19.5t-94.5 -9.5l-16 -40q56 -2 77 -20q14 -14 14 -46q0 -31 -12 -55.5t-31 -36.5q-33 -23 -107 -23q-32 0 -57 4.5t-42 10.5l9 51q19 -5 41 -9t51 -4q27 0 41.5 2.5t20.5 7.5q8 5 13.5 17.5t5.5 26.5
q0 13 -6 19q-5 5 -18 8t-41 3h-25z" />
    <glyph glyph-name="egrave" unicode="&#xe8;" horiz-adv-x="606" 
d="M55 183q0 52 10 104t29 98.5t45 83.5t59 59q36 24 79 36t100 12q104 0 149.5 -39.5t45.5 -109.5q0 -91 -68 -132t-208 -41q-32 0 -66.5 2t-60.5 4q-3 -20 -5 -37t-2 -33q0 -25 5 -44t17 -32q30 -34 112 -34q29 0 57.5 3t54 7.5t47.5 9.5t38 8l-26 -84
q-38 -13 -89.5 -23.5t-111.5 -10.5q-115 0 -166 55q-45 47 -45 138zM363 495q-65 0 -105 -31q-47 -37 -72 -129q10 -1 26.5 -1.5t35 -1.5t36.5 -1h32q67 0 108 19.5t41 70.5q0 32 -22.5 53t-79.5 21zM324 763l133 -138h-85l-162 138h114z" />
    <glyph glyph-name="eacute" unicode="&#xe9;" horiz-adv-x="606" 
d="M55 183q0 52 10 104t29 98.5t45 83.5t59 59q36 24 79 36t100 12q104 0 149.5 -39.5t45.5 -109.5q0 -91 -68 -132t-208 -41q-32 0 -66.5 2t-60.5 4q-3 -20 -5 -37t-2 -33q0 -25 5 -44t17 -32q30 -34 112 -34q29 0 57.5 3t54 7.5t47.5 9.5t38 8l-26 -84
q-38 -13 -89.5 -23.5t-111.5 -10.5q-115 0 -166 55q-45 47 -45 138zM363 495q-65 0 -105 -31q-47 -37 -72 -129q10 -1 26.5 -1.5t35 -1.5t36.5 -1h32q67 0 108 19.5t41 70.5q0 32 -22.5 53t-79.5 21zM455 763h124l-204 -139h-92z" />
    <glyph glyph-name="ecircumflex" unicode="&#xea;" horiz-adv-x="606" 
d="M55 183q0 52 10 104t29 98.5t45 83.5t59 59q36 24 79 36t100 12q104 0 149.5 -39.5t45.5 -109.5q0 -91 -68 -132t-208 -41q-32 0 -66.5 2t-60.5 4q-3 -20 -5 -37t-2 -33q0 -25 5 -44t17 -32q30 -34 112 -34q29 0 57.5 3t54 7.5t47.5 9.5t38 8l-26 -84
q-38 -13 -89.5 -23.5t-111.5 -10.5q-115 0 -166 55q-45 47 -45 138zM363 495q-65 0 -105 -31q-47 -37 -72 -129q10 -1 26.5 -1.5t35 -1.5t36.5 -1h32q67 0 108 19.5t41 70.5q0 32 -22.5 53t-79.5 21zM550 627h-74l-72 80l-107 -80h-83l157 130h78z" />
    <glyph glyph-name="edieresis" unicode="&#xeb;" horiz-adv-x="606" 
d="M55 183q0 52 10 104t29 98.5t45 83.5t59 59q36 24 79 36t100 12q104 0 149.5 -39.5t45.5 -109.5q0 -91 -68 -132t-208 -41q-32 0 -66.5 2t-60.5 4q-3 -20 -5 -37t-2 -33q0 -25 5 -44t17 -32q30 -34 112 -34q29 0 57.5 3t54 7.5t47.5 9.5t38 8l-26 -84
q-38 -13 -89.5 -23.5t-111.5 -10.5q-115 0 -166 55q-45 47 -45 138zM363 495q-65 0 -105 -31q-47 -37 -72 -129q10 -1 26.5 -1.5t35 -1.5t36.5 -1h32q67 0 108 19.5t41 70.5q0 32 -22.5 53t-79.5 21zM282 637q-27 0 -38 11q-5 6 -5 21q0 14 6 29t18 23q5 3 14.5 5.5
t23.5 2.5q26 0 35 -9q7 -7 7 -20q0 -15 -5.5 -30.5t-17.5 -23.5q-5 -4 -15.5 -6.5t-22.5 -2.5zM476 637q-28 0 -37 11q-6 7 -6 20q0 15 6.5 30t18.5 23q5 3 14.5 5.5t23.5 2.5q26 0 35 -9q4 -4 5 -9.5t1 -10.5q0 -15 -5 -30.5t-16 -23.5q-14 -9 -40 -9z" />
    <glyph glyph-name="igrave" unicode="&#xec;" horiz-adv-x="286" 
d="M31 0l119 561h108l-119 -561h-108zM142 763l133 -138h-85l-162 138h114z" />
    <glyph glyph-name="iacute" unicode="&#xed;" horiz-adv-x="286" 
d="M31 0l119 561h108l-119 -561h-108zM313 763h124l-204 -139h-92z" />
    <glyph glyph-name="icircumflex" unicode="&#xee;" horiz-adv-x="286" 
d="M31 0l119 561h108l-119 -561h-108zM381 627h-74l-72 80l-107 -80h-83l157 130h78z" />
    <glyph glyph-name="idieresis" unicode="&#xef;" horiz-adv-x="286" 
d="M31 0l119 561h108l-119 -561h-108zM120 637q-27 0 -38 11q-5 6 -5 21q0 14 6 29t18 23q5 3 14.5 5.5t23.5 2.5q26 0 35 -9q7 -7 7 -20q0 -15 -5.5 -30.5t-17.5 -23.5q-5 -4 -15.5 -6.5t-22.5 -2.5zM314 637q-28 0 -37 11q-6 7 -6 20q0 15 6.5 30t18.5 23q5 3 14.5 5.5
t23.5 2.5q26 0 35 -9q4 -4 5 -9.5t1 -10.5q0 -15 -5 -30.5t-16 -23.5q-14 -9 -40 -9z" />
    <glyph glyph-name="eth" unicode="&#xf0;" horiz-adv-x="665" 
d="M414 693q-36 20 -86.5 30t-113.5 12l48 74q80 -3 140 -18.5t104 -45.5l134 72l21 -50l-110 -59q34 -38 54.5 -96.5t20.5 -135.5q0 -43 -4.5 -90t-15.5 -97q-20 -89 -54.5 -152.5t-74.5 -93.5q-19 -14 -39 -24.5t-44 -17t-53 -9.5t-66 -3q-41 0 -72 5t-54 13.5t-39 20
t-27 25.5q-16 20 -25 51t-9 71q0 39 10 88q14 70 46.5 124t74.5 85q35 25 84.5 37.5t103.5 12.5q55 0 92 -9t63 -20q-2 51 -16 94t-43 72l-162 -86l-21 51zM496 273q8 32 13 69.5t7 71.5q-20 13 -59.5 22.5t-82.5 9.5q-42 0 -73.5 -9t-51.5 -25q-26 -19 -49.5 -61.5
t-34.5 -94.5q-5 -20 -6.5 -38t-1.5 -33q0 -25 4.5 -44.5t13.5 -30.5q13 -17 39.5 -28t73.5 -11q40 0 70.5 9.5t50.5 24.5q26 20 49 59.5t38 108.5z" />
    <glyph glyph-name="ntilde" unicode="&#xf1;" horiz-adv-x="667" 
d="M409 0l71 334q11 49 11 76q0 28 -12 45q-12 15 -34.5 20t-50.5 5q-48 0 -87.5 -10.5t-71.5 -24.5l-95 -445h-107l119 561h83l3 -83h7l60 60q21 11 59.5 21t89.5 10q92 0 126 -46q11 -15 17 -34.5t6 -46.5q0 -22 -4 -48.5t-11 -59.5l-71 -334h-108zM237 639
q12 48 39.5 76.5t72.5 28.5q24 0 42 -9t32.5 -19.5t28 -19.5t29.5 -9q19 0 31.5 11.5t21.5 39.5h53q-13 -55 -42 -81t-70 -26q-25 0 -42.5 9t-32.5 20t-28 20t-29 9q-37 0 -53 -50h-53z" />
    <glyph glyph-name="ograve" unicode="&#xf2;" horiz-adv-x="672" 
d="M616 387q0 -43 -8 -91.5t-24.5 -94.5t-41.5 -86.5t-58 -67.5q-37 -30 -86.5 -44t-122.5 -14q-75 0 -119.5 19.5t-66.5 48.5q-15 20 -23.5 49.5t-8.5 73.5q0 42 7.5 89.5t24 94t42 87t61.5 67.5q36 28 84.5 42.5t118.5 14.5q69 0 114 -16.5t67 -42.5q18 -21 29 -52.5
t11 -76.5zM414 109q22 17 39.5 48.5t30.5 68.5t20 75.5t7 71.5q0 28 -5.5 47t-15.5 31q-14 17 -40.5 26.5t-66.5 9.5q-45 0 -75 -10.5t-50 -25.5q-23 -17 -41 -47.5t-30.5 -66.5t-19.5 -74t-7 -71q0 -25 5 -45.5t14 -31.5q14 -19 40.5 -30t72.5 -11q37 0 68.5 8.5t53.5 26.5
zM344 763l133 -138h-85l-162 138h114z" />
    <glyph glyph-name="oacute" unicode="&#xf3;" horiz-adv-x="672" 
d="M616 387q0 -43 -8 -91.5t-24.5 -94.5t-41.5 -86.5t-58 -67.5q-37 -30 -86.5 -44t-122.5 -14q-75 0 -119.5 19.5t-66.5 48.5q-15 20 -23.5 49.5t-8.5 73.5q0 42 7.5 89.5t24 94t42 87t61.5 67.5q36 28 84.5 42.5t118.5 14.5q69 0 114 -16.5t67 -42.5q18 -21 29 -52.5
t11 -76.5zM414 109q22 17 39.5 48.5t30.5 68.5t20 75.5t7 71.5q0 28 -5.5 47t-15.5 31q-14 17 -40.5 26.5t-66.5 9.5q-45 0 -75 -10.5t-50 -25.5q-23 -17 -41 -47.5t-30.5 -66.5t-19.5 -74t-7 -71q0 -25 5 -45.5t14 -31.5q14 -19 40.5 -30t72.5 -11q37 0 68.5 8.5t53.5 26.5
zM490 763h124l-204 -139h-92z" />
    <glyph glyph-name="ocircumflex" unicode="&#xf4;" horiz-adv-x="672" 
d="M616 387q0 -43 -8 -91.5t-24.5 -94.5t-41.5 -86.5t-58 -67.5q-37 -30 -86.5 -44t-122.5 -14q-75 0 -119.5 19.5t-66.5 48.5q-15 20 -23.5 49.5t-8.5 73.5q0 42 7.5 89.5t24 94t42 87t61.5 67.5q36 28 84.5 42.5t118.5 14.5q69 0 114 -16.5t67 -42.5q18 -21 29 -52.5
t11 -76.5zM414 109q22 17 39.5 48.5t30.5 68.5t20 75.5t7 71.5q0 28 -5.5 47t-15.5 31q-14 17 -40.5 26.5t-66.5 9.5q-45 0 -75 -10.5t-50 -25.5q-23 -17 -41 -47.5t-30.5 -66.5t-19.5 -74t-7 -71q0 -25 5 -45.5t14 -31.5q14 -19 40.5 -30t72.5 -11q37 0 68.5 8.5t53.5 26.5
zM569 627h-74l-72 80l-107 -80h-83l157 130h78z" />
    <glyph glyph-name="otilde" unicode="&#xf5;" horiz-adv-x="672" 
d="M616 387q0 -43 -8 -91.5t-24.5 -94.5t-41.5 -86.5t-58 -67.5q-37 -30 -86.5 -44t-122.5 -14q-75 0 -119.5 19.5t-66.5 48.5q-15 20 -23.5 49.5t-8.5 73.5q0 42 7.5 89.5t24 94t42 87t61.5 67.5q36 28 84.5 42.5t118.5 14.5q69 0 114 -16.5t67 -42.5q18 -21 29 -52.5
t11 -76.5zM414 109q22 17 39.5 48.5t30.5 68.5t20 75.5t7 71.5q0 28 -5.5 47t-15.5 31q-14 17 -40.5 26.5t-66.5 9.5q-45 0 -75 -10.5t-50 -25.5q-23 -17 -41 -47.5t-30.5 -66.5t-19.5 -74t-7 -71q0 -25 5 -45.5t14 -31.5q14 -19 40.5 -30t72.5 -11q37 0 68.5 8.5t53.5 26.5
zM231 639q12 48 39.5 76.5t72.5 28.5q24 0 42 -9t32.5 -19.5t28 -19.5t29.5 -9q19 0 31.5 11.5t21.5 39.5h53q-13 -55 -42 -81t-70 -26q-25 0 -42.5 9t-32.5 20t-28 20t-29 9q-37 0 -53 -50h-53z" />
    <glyph glyph-name="odieresis" unicode="&#xf6;" horiz-adv-x="672" 
d="M616 387q0 -43 -8 -91.5t-24.5 -94.5t-41.5 -86.5t-58 -67.5q-37 -30 -86.5 -44t-122.5 -14q-75 0 -119.5 19.5t-66.5 48.5q-15 20 -23.5 49.5t-8.5 73.5q0 42 7.5 89.5t24 94t42 87t61.5 67.5q36 28 84.5 42.5t118.5 14.5q69 0 114 -16.5t67 -42.5q18 -21 29 -52.5
t11 -76.5zM414 109q22 17 39.5 48.5t30.5 68.5t20 75.5t7 71.5q0 28 -5.5 47t-15.5 31q-14 17 -40.5 26.5t-66.5 9.5q-45 0 -75 -10.5t-50 -25.5q-23 -17 -41 -47.5t-30.5 -66.5t-19.5 -74t-7 -71q0 -25 5 -45.5t14 -31.5q14 -19 40.5 -30t72.5 -11q37 0 68.5 8.5t53.5 26.5
zM305 637q-27 0 -38 11q-5 6 -5 21q0 14 6 29t18 23q5 3 14.5 5.5t23.5 2.5q26 0 35 -9q7 -7 7 -20q0 -15 -5.5 -30.5t-17.5 -23.5q-5 -4 -15.5 -6.5t-22.5 -2.5zM499 637q-28 0 -37 11q-6 7 -6 20q0 15 6.5 30t18.5 23q5 3 14.5 5.5t23.5 2.5q26 0 35 -9q4 -4 5 -9.5
t1 -10.5q0 -15 -5 -30.5t-16 -23.5q-14 -9 -40 -9z" />
    <glyph glyph-name="divide" unicode="&#xf7;" horiz-adv-x="667" 
d="M384 557q0 -14 -3 -26t-9 -17t-17.5 -7t-23.5 -2q-29 0 -41 11q-10 10 -10 40q0 32 16 42q5 3 14 5.5t23 2.5q29 0 39 -9q6 -5 9 -16t3 -24zM384 123q0 -14 -3 -25.5t-9 -16.5q-6 -6 -17.5 -8t-23.5 -2q-29 0 -41 11q-10 11 -10 40q0 32 16 42q5 3 14 5.5t23 2.5
q28 0 39 -8q6 -5 9 -16t3 -25zM605 297h-543v84h543v-84z" />
    <glyph glyph-name="oslash" unicode="&#xf8;" horiz-adv-x="672" 
d="M84 64q-14 22 -20.5 50t-6.5 69q0 40 7.5 87.5t24 93.5t42 86.5t61.5 67.5q36 28 84.5 42.5t118.5 14.5q51 0 89 -9.5t63 -26.5l30 29h75l-65 -67q13 -20 21 -48t8 -66q0 -43 -8 -91.5t-24.5 -94.5t-41.5 -86.5t-58 -67.5q-37 -30 -86.5 -44t-122.5 -14q-54 0 -91 10
t-61 26l-30 -31h-76zM416 109q22 17 39.5 48t30.5 67.5t20 74t7 67.5q0 15 -2 27.5t-5 22.5l-312 -317q15 -11 38.5 -18t59.5 -7q37 0 69 8.5t55 26.5zM159 198q0 -26 5 -49l312 315q-34 23 -93 23q-45 0 -76 -10.5t-51 -25.5q-22 -17 -40 -47t-30.5 -65.5t-19.5 -72.5
t-7 -68z" />
    <glyph glyph-name="ugrave" unicode="&#xf9;" horiz-adv-x="669" 
d="M257 561l-71 -334q-5 -23 -7.5 -42.5t-2.5 -33.5q0 -31 11 -45q12 -14 34.5 -19.5t50.5 -5.5q48 0 87.5 10.5t71.5 24.5l95 445h107l-119 -561h-84l-3 83h-7l-59 -60q-21 -11 -59 -21t-90 -10q-45 0 -77 11.5t-49 34.5q-11 15 -17 34.5t-6 46.5q0 22 4 48.5t11 59.5
l71 334h108zM341 763l133 -138h-85l-162 138h114z" />
    <glyph glyph-name="uacute" unicode="&#xfa;" horiz-adv-x="669" 
d="M257 561l-71 -334q-5 -23 -7.5 -42.5t-2.5 -33.5q0 -31 11 -45q12 -14 34.5 -19.5t50.5 -5.5q48 0 87.5 10.5t71.5 24.5l95 445h107l-119 -561h-84l-3 83h-7l-59 -60q-21 -11 -59 -21t-90 -10q-45 0 -77 11.5t-49 34.5q-11 15 -17 34.5t-6 46.5q0 22 4 48.5t11 59.5
l71 334h108zM504 763h124l-204 -139h-92z" />
    <glyph glyph-name="ucircumflex" unicode="&#xfb;" horiz-adv-x="669" 
d="M257 561l-71 -334q-5 -23 -7.5 -42.5t-2.5 -33.5q0 -31 11 -45q12 -14 34.5 -19.5t50.5 -5.5q48 0 87.5 10.5t71.5 24.5l95 445h107l-119 -561h-84l-3 83h-7l-59 -60q-21 -11 -59 -21t-90 -10q-45 0 -77 11.5t-49 34.5q-11 15 -17 34.5t-6 46.5q0 22 4 48.5t11 59.5
l71 334h108zM563 627h-74l-72 80l-107 -80h-83l157 130h78z" />
    <glyph glyph-name="udieresis" unicode="&#xfc;" horiz-adv-x="669" 
d="M257 561l-71 -334q-5 -23 -7.5 -42.5t-2.5 -33.5q0 -31 11 -45q12 -14 34.5 -19.5t50.5 -5.5q48 0 87.5 10.5t71.5 24.5l95 445h107l-119 -561h-84l-3 83h-7l-59 -60q-21 -11 -59 -21t-90 -10q-45 0 -77 11.5t-49 34.5q-11 15 -17 34.5t-6 46.5q0 22 4 48.5t11 59.5
l71 334h108zM307 637q-27 0 -38 11q-5 6 -5 21q0 14 6 29t18 23q5 3 14.5 5.5t23.5 2.5q26 0 35 -9q7 -7 7 -20q0 -15 -5.5 -30.5t-17.5 -23.5q-5 -4 -15.5 -6.5t-22.5 -2.5zM501 637q-28 0 -37 11q-6 7 -6 20q0 15 6.5 30t18.5 23q5 3 14.5 5.5t23.5 2.5q26 0 35 -9
q4 -4 5 -9.5t1 -10.5q0 -15 -5 -30.5t-16 -23.5q-14 -9 -40 -9z" />
    <glyph glyph-name="yacute" unicode="&#xfd;" horiz-adv-x="596" 
d="M147 -275h-112l162 275h-54l-77 561h109l54 -464h23l260 464h119zM443 763h124l-204 -139h-92z" />
    <glyph glyph-name="thorn" unicode="&#xfe;" horiz-adv-x="673" 
d="M85 -275h-107l231 1085h108l-71 -327h6q2 2 12 11.5t22 21t21.5 20.5t10.5 9q19 9 52 17.5t80 8.5q90 0 131 -44q35 -37 35 -125q0 -45 -9 -98t-27 -103.5t-46 -94t-66 -70.5q-36 -26 -81 -36t-94 -10q-41 0 -79.5 5.5t-67.5 12.5zM404 106q24 17 43 49.5t32.5 71
t20.5 79t7 73.5q0 54 -21 77q-12 14 -34 20t-60 6q-44 0 -83 -11t-70 -25l-79 -363q20 -2 49 -6t64 -4q46 0 75.5 7.5t55.5 25.5z" />
    <glyph glyph-name="ydieresis" unicode="&#xff;" horiz-adv-x="596" 
d="M147 -275h-112l162 275h-54l-77 561h109l54 -464h23l260 464h119zM245 637q-27 0 -38 11q-5 6 -5 21q0 14 6 29t18 23q5 3 14.5 5.5t23.5 2.5q26 0 35 -9q7 -7 7 -20q0 -15 -5.5 -30.5t-17.5 -23.5q-5 -4 -15.5 -6.5t-22.5 -2.5zM439 637q-28 0 -37 11q-6 7 -6 20
q0 15 6.5 30t18.5 23q5 3 14.5 5.5t23.5 2.5q26 0 35 -9q4 -4 5 -9.5t1 -10.5q0 -15 -5 -30.5t-16 -23.5q-14 -9 -40 -9z" />
    <glyph glyph-name="Amacron" unicode="&#x100;" horiz-adv-x="756" 
d="M549 0l-30 239h-310l-137 -239h-117l435 749l170 1l101 -750h-112zM468 647h-30l-180 -318h250zM353 898h284l-15 -66h-284z" />
    <glyph glyph-name="amacron" unicode="&#x101;" horiz-adv-x="618" 
d="M395 0l-12 78h-6l-57 -60q-20 -11 -56.5 -19t-78.5 -8q-57 0 -88 11.5t-47 33.5q-20 28 -20 78q0 25 5.5 51.5t17 50.5t28.5 43.5t40 31.5q45 22 127.5 32t186.5 18q5 23 8 41.5t3 33.5q0 26 -10 40q-11 17 -37.5 22.5t-66.5 5.5q-25 0 -52.5 -2.5t-53.5 -6t-50 -7.5
t-41 -7l21 82q39 11 95 21t119 10q61 0 99 -10.5t57 -30.5q15 -16 21.5 -37.5t6.5 -50.5q0 -25 -4.5 -55.5t-12.5 -72.5l-67 -317h-75zM420 268q-35 -2 -74 -5t-74 -7t-61.5 -9.5t-35.5 -11.5q-20 -17 -31 -46.5t-11 -57.5q0 -23 9 -36q18 -21 81 -21q51 0 94.5 12t66.5 21z
M253 709h284l-15 -66h-284z" />
    <glyph glyph-name="Abreve" unicode="&#x102;" horiz-adv-x="756" 
d="M549 0l-30 239h-310l-137 -239h-117l435 749l170 1l101 -750h-112zM468 647h-30l-180 -318h250zM407 949q-2 -7 -3 -14.5t-1 -12.5q0 -53 79 -53q51 0 74.5 20.5t29.5 59.5h59q-3 -27 -13.5 -51t-30 -42t-50 -28.5t-73.5 -10.5q-61 0 -96.5 24t-35.5 73q0 7 1 17t3 18h57
z" />
    <glyph glyph-name="abreve" unicode="&#x103;" horiz-adv-x="618" 
d="M395 0l-12 78h-6l-57 -60q-20 -11 -56.5 -19t-78.5 -8q-57 0 -88 11.5t-47 33.5q-20 28 -20 78q0 25 5.5 51.5t17 50.5t28.5 43.5t40 31.5q45 22 127.5 32t186.5 18q5 23 8 41.5t3 33.5q0 26 -10 40q-11 17 -37.5 22.5t-66.5 5.5q-25 0 -52.5 -2.5t-53.5 -6t-50 -7.5
t-41 -7l21 82q39 11 95 21t119 10q61 0 99 -10.5t57 -30.5q15 -16 21.5 -37.5t6.5 -50.5q0 -25 -4.5 -55.5t-12.5 -72.5l-67 -317h-75zM420 268q-35 -2 -74 -5t-74 -7t-61.5 -9.5t-35.5 -11.5q-20 -17 -31 -46.5t-11 -57.5q0 -23 9 -36q18 -21 81 -21q51 0 94.5 12t66.5 21z
M305 760q-2 -7 -3 -14.5t-1 -12.5q0 -53 79 -53q51 0 74.5 20.5t29.5 59.5h59q-3 -27 -13.5 -51t-30 -42t-50 -28.5t-73.5 -10.5q-61 0 -96.5 24t-35.5 73q0 7 1 17t3 18h57z" />
    <glyph glyph-name="Aogonek" unicode="&#x104;" horiz-adv-x="756" 
d="M468 647h-30l-180 -318h250zM519 239h-310l-137 -239h-117l435 749l170 1l101 -750h-43l-58 -36q-29 -18 -49.5 -33t-26.5 -23q-5 -6 -9.5 -18t-4.5 -27q0 -17 6 -24q12 -10 49 -10q25 0 44.5 2t33.5 4l-6 -49q-12 -3 -35.5 -6.5t-49.5 -3.5q-39 0 -58 6t-28 15
q-16 14 -16 49q0 28 7.5 48t21.5 35q12 14 43 33t67 38z" />
    <glyph glyph-name="aogonek" unicode="&#x105;" horiz-adv-x="618" 
d="M420 268q-35 -2 -74 -5t-74 -7t-61.5 -9.5t-35.5 -11.5q-20 -17 -31 -46.5t-11 -57.5q0 -23 9 -36q18 -21 81 -21q51 0 94.5 12t66.5 21zM460 0l-55 -35q-29 -19 -49.5 -34t-26.5 -22q-5 -7 -9.5 -19.5t-4.5 -26.5q0 -18 6 -24q5 -5 16.5 -7.5t31.5 -2.5q26 0 45 2t33 4
l-7 -49q-11 -3 -34.5 -6.5t-49.5 -3.5q-39 0 -58 6t-27 15q-8 7 -12 18t-4 30q0 29 7.5 49t21.5 35q13 14 44.5 34t66.5 39l-12 76h-6l-57 -60q-20 -11 -56.5 -19t-78.5 -8q-57 0 -88 11.5t-47 33.5q-20 28 -20 78q0 25 5.5 51.5t17 50.5t28.5 43.5t40 31.5q45 22 127.5 32
t186.5 18q5 23 8 41.5t3 33.5q0 26 -10 40q-11 17 -37.5 22.5t-66.5 5.5q-25 0 -52.5 -2.5t-53.5 -6t-50 -7.5t-41 -7l21 82q39 11 95 21t119 10q61 0 99 -10.5t57 -30.5q15 -16 21.5 -37.5t6.5 -50.5q0 -25 -4.5 -55.5t-12.5 -72.5l-67 -317h-10z" />
    <glyph glyph-name="Cacute" unicode="&#x106;" horiz-adv-x="699" 
d="M712 645q-36 7 -84 13.5t-108 6.5q-37 0 -65.5 -3.5t-52 -9.5t-42 -14.5t-34.5 -19.5q-35 -25 -62 -66t-46 -90t-28.5 -102.5t-9.5 -102.5q0 -40 7.5 -71t24.5 -50q43 -49 167 -49q63 0 119.5 8.5t101.5 18.5l-20 -92q-48 -13 -107 -22.5t-129 -9.5q-85 0 -139.5 19.5
t-86.5 61.5q-23 29 -35.5 74t-12.5 99q0 61 11.5 125.5t35.5 125t59.5 112t83.5 86.5q47 33 110 49.5t140 16.5q67 0 123.5 -8.5t95.5 -17.5zM575 952h124l-204 -139h-92z" />
    <glyph glyph-name="cacute" unicode="&#x107;" horiz-adv-x="553" 
d="M396 487q-44 0 -76 -8t-57 -27q-24 -18 -42.5 -48.5t-31 -66.5t-19 -73.5t-6.5 -68.5q0 -59 27 -86q30 -30 103 -30q51 0 94.5 8t75.5 13l-21 -82q-35 -11 -78 -20t-100 -9q-58 0 -97.5 13.5t-65.5 39.5q-22 23 -33 57t-11 82t9.5 99t27.5 97.5t44.5 85.5t60.5 63
q38 26 82.5 37.5t98.5 11.5q55 0 99.5 -6.5t67.5 -11.5l-10 -84q-26 4 -60 9t-82 5zM435 763h124l-204 -139h-92z" />
    <glyph glyph-name="Ccircumflex" unicode="&#x108;" horiz-adv-x="699" 
d="M712 645q-36 7 -84 13.5t-108 6.5q-37 0 -65.5 -3.5t-52 -9.5t-42 -14.5t-34.5 -19.5q-35 -25 -62 -66t-46 -90t-28.5 -102.5t-9.5 -102.5q0 -40 7.5 -71t24.5 -50q43 -49 167 -49q63 0 119.5 8.5t101.5 18.5l-20 -92q-48 -13 -107 -22.5t-129 -9.5q-85 0 -139.5 19.5
t-86.5 61.5q-23 29 -35.5 74t-12.5 99q0 61 11.5 125.5t35.5 125t59.5 112t83.5 86.5q47 33 110 49.5t140 16.5q67 0 123.5 -8.5t95.5 -17.5zM664 816h-74l-72 80l-107 -80h-83l157 130h78z" />
    <glyph glyph-name="ccircumflex" unicode="&#x109;" horiz-adv-x="553" 
d="M396 487q-44 0 -76 -8t-57 -27q-24 -18 -42.5 -48.5t-31 -66.5t-19 -73.5t-6.5 -68.5q0 -59 27 -86q30 -30 103 -30q51 0 94.5 8t75.5 13l-21 -82q-35 -11 -78 -20t-100 -9q-58 0 -97.5 13.5t-65.5 39.5q-22 23 -33 57t-11 82t9.5 99t27.5 97.5t44.5 85.5t60.5 63
q38 26 82.5 37.5t98.5 11.5q55 0 99.5 -6.5t67.5 -11.5l-10 -84q-26 4 -60 9t-82 5zM550 627h-74l-72 80l-107 -80h-83l157 130h78z" />
    <glyph glyph-name="Cdotaccent" unicode="&#x10a;" horiz-adv-x="699" 
d="M712 645q-36 7 -84 13.5t-108 6.5q-37 0 -65.5 -3.5t-52 -9.5t-42 -14.5t-34.5 -19.5q-35 -25 -62 -66t-46 -90t-28.5 -102.5t-9.5 -102.5q0 -40 7.5 -71t24.5 -50q43 -49 167 -49q63 0 119.5 8.5t101.5 18.5l-20 -92q-48 -13 -107 -22.5t-129 -9.5q-85 0 -139.5 19.5
t-86.5 61.5q-23 29 -35.5 74t-12.5 99q0 61 11.5 125.5t35.5 125t59.5 112t83.5 86.5q47 33 110 49.5t140 16.5q67 0 123.5 -8.5t95.5 -17.5zM506 825q-32 0 -42 13q-6 9 -6 25q0 20 6.5 38t19.5 27q14 10 44 10q32 0 41 -12q8 -9 8 -28t-6 -36.5t-17 -26.5q-8 -5 -21 -7.5
t-27 -2.5z" />
    <glyph glyph-name="cdotaccent" unicode="&#x10b;" horiz-adv-x="553" 
d="M396 487q-44 0 -76 -8t-57 -27q-24 -18 -42.5 -48.5t-31 -66.5t-19 -73.5t-6.5 -68.5q0 -59 27 -86q30 -30 103 -30q51 0 94.5 8t75.5 13l-21 -82q-35 -11 -78 -20t-100 -9q-58 0 -97.5 13.5t-65.5 39.5q-22 23 -33 57t-11 82t9.5 99t27.5 97.5t44.5 85.5t60.5 63
q38 26 82.5 37.5t98.5 11.5q55 0 99.5 -6.5t67.5 -11.5l-10 -84q-26 4 -60 9t-82 5zM392 636q-32 0 -42 13q-6 9 -6 25q0 20 6.5 38t19.5 27q14 10 44 10q32 0 41 -12q8 -9 8 -28t-6 -36.5t-17 -26.5q-8 -5 -21 -7.5t-27 -2.5z" />
    <glyph glyph-name="Ccaron" unicode="&#x10c;" horiz-adv-x="699" 
d="M712 645q-36 7 -84 13.5t-108 6.5q-37 0 -65.5 -3.5t-52 -9.5t-42 -14.5t-34.5 -19.5q-35 -25 -62 -66t-46 -90t-28.5 -102.5t-9.5 -102.5q0 -40 7.5 -71t24.5 -50q43 -49 167 -49q63 0 119.5 8.5t101.5 18.5l-20 -92q-48 -13 -107 -22.5t-129 -9.5q-85 0 -139.5 19.5
t-86.5 61.5q-23 29 -35.5 74t-12.5 99q0 61 11.5 125.5t35.5 125t59.5 112t83.5 86.5q47 33 110 49.5t140 16.5q67 0 123.5 -8.5t95.5 -17.5zM357 946h74l72 -79l108 79h82l-157 -130h-78z" />
    <glyph glyph-name="ccaron" unicode="&#x10d;" horiz-adv-x="553" 
d="M396 487q-44 0 -76 -8t-57 -27q-24 -18 -42.5 -48.5t-31 -66.5t-19 -73.5t-6.5 -68.5q0 -59 27 -86q30 -30 103 -30q51 0 94.5 8t75.5 13l-21 -82q-35 -11 -78 -20t-100 -9q-58 0 -97.5 13.5t-65.5 39.5q-22 23 -33 57t-11 82t9.5 99t27.5 97.5t44.5 85.5t60.5 63
q38 26 82.5 37.5t98.5 11.5q55 0 99.5 -6.5t67.5 -11.5l-10 -84q-26 4 -60 9t-82 5zM234 757h74l72 -79l108 79h82l-157 -130h-78z" />
    <glyph glyph-name="Dcaron" unicode="&#x10e;" horiz-adv-x="801" 
d="M441 750q61 0 105 -5t76 -14t54 -22.5t37 -31.5q19 -23 30.5 -62.5t11.5 -97.5q0 -56 -12 -121.5t-36 -128.5t-58.5 -116.5t-79.5 -86.5q-46 -32 -112.5 -48t-172.5 -16h-249l159 750h247zM280 657l-119 -561h116q48 0 83.5 2.5t62.5 7.5t47 13t36 20q33 25 58.5 69.5
t43.5 96t27 104.5t9 95q0 36 -6.5 63t-20.5 43q-21 24 -67.5 35.5t-126.5 11.5h-143zM342 946h74l72 -79l108 79h82l-157 -130h-78z" />
    <glyph glyph-name="dcaron" unicode="&#x10f;" horiz-adv-x="671" 
d="M582 817h107l-174 -817h-84l-4 78h-6q-1 -1 -11.5 -11t-23 -21t-23 -20.5t-11.5 -9.5q-18 -9 -52 -17t-83 -8q-40 0 -72 10t-55 34q-17 17 -26.5 46.5t-9.5 74.5q0 49 10 103.5t29.5 105t47 92.5t62.5 68q37 26 81.5 36.5t94.5 10.5q41 0 79.5 -6t67.5 -13zM267 454
q-24 -17 -43 -50t-32.5 -72.5t-20.5 -80.5t-7 -74q0 -54 21 -73q24 -24 84 -24q51 0 91.5 12.5t73.5 26.5l78 359q-20 3 -49 7t-64 4q-46 0 -76 -8.5t-56 -26.5zM814 816h84l-105 -237h-71z" />
    <glyph glyph-name="Dcroat" unicode="&#x110;" horiz-adv-x="800" 
d="M441 750q61 0 105 -5t76 -14t54 -22.5t37 -31.5q19 -23 30.5 -62.5t11.5 -97.5q0 -56 -12 -121.5t-36 -128.5t-58.5 -116.5t-79.5 -86.5q-46 -32 -112.5 -48t-172.5 -16h-249l72 342h-93l25 70h83l72 338h247zM228 412h202l-24 -70h-192l-53 -246h116q48 0 83.5 2.5
t62.5 7.5t47 13t36 20q33 25 58.5 69.5t43.5 96t27 104.5t9 95q0 36 -6.5 63t-20.5 43q-21 24 -67.5 35.5t-126.5 11.5h-143z" />
    <glyph glyph-name="dcroat" unicode="&#x111;" horiz-adv-x="671" 
d="M382 735h183l20 97h107l-20 -97h90l-16 -74h-90l-141 -661h-84l-4 78h-6q-1 -1 -11.5 -11t-23 -21t-23 -20.5t-11.5 -9.5q-18 -9 -52 -17t-83 -8q-40 0 -72 10t-55 34q-17 17 -26.5 46.5t-9.5 74.5q0 49 10 103.5t29.5 105t47 92.5t62.5 68q37 26 81.5 36.5t94.5 10.5
q41 0 79.5 -6t67.5 -13l23 108h-183zM267 454q-24 -17 -43 -50t-32.5 -72.5t-20.5 -80.5t-7 -74q0 -54 21 -73q24 -24 84 -24q51 0 91.5 12.5t73.5 26.5l78 359q-20 3 -49 7t-64 4q-46 0 -76 -8.5t-56 -26.5z" />
    <glyph glyph-name="Emacron" unicode="&#x112;" horiz-adv-x="632" 
d="M509 0h-474l159 750h481l-37 -93h-357l-48 -228h314l-38 -91h-295l-52 -244h390zM314 898h284l-15 -66h-284z" />
    <glyph glyph-name="emacron" unicode="&#x113;" horiz-adv-x="606" 
d="M55 183q0 52 10 104t29 98.5t45 83.5t59 59q36 24 79 36t100 12q104 0 149.5 -39.5t45.5 -109.5q0 -91 -68 -132t-208 -41q-32 0 -66.5 2t-60.5 4q-3 -20 -5 -37t-2 -33q0 -25 5 -44t17 -32q30 -34 112 -34q29 0 57.5 3t54 7.5t47.5 9.5t38 8l-26 -84
q-38 -13 -89.5 -23.5t-111.5 -10.5q-115 0 -166 55q-45 47 -45 138zM363 495q-65 0 -105 -31q-47 -37 -72 -129q10 -1 26.5 -1.5t35 -1.5t36.5 -1h32q67 0 108 19.5t41 70.5q0 32 -22.5 53t-79.5 21zM251 709h284l-15 -66h-284z" />
    <glyph glyph-name="Ebreve" unicode="&#x114;" horiz-adv-x="632" 
d="M509 0h-474l159 750h481l-37 -93h-357l-48 -228h314l-38 -91h-295l-52 -244h390zM364 949q-2 -7 -3 -14.5t-1 -12.5q0 -53 79 -53q51 0 74.5 20.5t29.5 59.5h59q-3 -27 -13.5 -51t-30 -42t-50 -28.5t-73.5 -10.5q-61 0 -96.5 24t-35.5 73q0 7 1 17t3 18h57z" />
    <glyph glyph-name="ebreve" unicode="&#x115;" horiz-adv-x="606" 
d="M55 183q0 52 10 104t29 98.5t45 83.5t59 59q36 24 79 36t100 12q104 0 149.5 -39.5t45.5 -109.5q0 -91 -68 -132t-208 -41q-32 0 -66.5 2t-60.5 4q-3 -20 -5 -37t-2 -33q0 -25 5 -44t17 -32q30 -34 112 -34q29 0 57.5 3t54 7.5t47.5 9.5t38 8l-26 -84
q-38 -13 -89.5 -23.5t-111.5 -10.5q-115 0 -166 55q-45 47 -45 138zM363 495q-65 0 -105 -31q-47 -37 -72 -129q10 -1 26.5 -1.5t35 -1.5t36.5 -1h32q67 0 108 19.5t41 70.5q0 32 -22.5 53t-79.5 21zM296 760q-2 -7 -3 -14.5t-1 -12.5q0 -53 79 -53q51 0 74.5 20.5
t29.5 59.5h59q-3 -27 -13.5 -51t-30 -42t-50 -28.5t-73.5 -10.5q-61 0 -96.5 24t-35.5 73q0 7 1 17t3 18h57z" />
    <glyph glyph-name="Edotaccent" unicode="&#x116;" horiz-adv-x="632" 
d="M509 0h-474l159 750h481l-37 -93h-357l-48 -228h314l-38 -91h-295l-52 -244h390zM441 825q-32 0 -42 13q-6 9 -6 25q0 20 6.5 38t19.5 27q14 10 44 10q32 0 41 -12q8 -9 8 -28t-6 -36.5t-17 -26.5q-8 -5 -21 -7.5t-27 -2.5z" />
    <glyph glyph-name="edotaccent" unicode="&#x117;" horiz-adv-x="606" 
d="M55 183q0 52 10 104t29 98.5t45 83.5t59 59q36 24 79 36t100 12q104 0 149.5 -39.5t45.5 -109.5q0 -91 -68 -132t-208 -41q-32 0 -66.5 2t-60.5 4q-3 -20 -5 -37t-2 -33q0 -25 5 -44t17 -32q30 -34 112 -34q29 0 57.5 3t54 7.5t47.5 9.5t38 8l-26 -84
q-38 -13 -89.5 -23.5t-111.5 -10.5q-115 0 -166 55q-45 47 -45 138zM363 495q-65 0 -105 -31q-47 -37 -72 -129q10 -1 26.5 -1.5t35 -1.5t36.5 -1h32q67 0 108 19.5t41 70.5q0 32 -22.5 53t-79.5 21zM376 636q-32 0 -42 13q-6 9 -6 25q0 20 6.5 38t19.5 27q14 10 44 10
q32 0 41 -12q8 -9 8 -28t-6 -36.5t-17 -26.5q-8 -5 -21 -7.5t-27 -2.5z" />
    <glyph glyph-name="Eogonek" unicode="&#x118;" horiz-adv-x="632" 
d="M35 0l159 750h481l-37 -93h-357l-48 -228h314l-38 -91h-295l-52 -244h390l-43 -94h-46l-62 -37q-30 -18 -50 -32.5t-26 -22.5q-5 -6 -9.5 -18t-4.5 -27q0 -17 6 -24q12 -10 48 -10q26 0 45.5 2t33.5 4l-8 -49q-11 -3 -34.5 -6.5t-49.5 -3.5q-38 0 -57 6t-28 15
q-16 14 -16 49q0 28 7.5 48t21.5 35q13 14 43.5 33t68.5 38h-357z" />
    <glyph glyph-name="eogonek" unicode="&#x119;" horiz-adv-x="606" 
d="M363 495q-65 0 -105 -31q-47 -37 -72 -129q10 -1 26.5 -1.5t35 -1.5t36.5 -1h32q67 0 108 19.5t41 70.5q0 32 -22.5 53t-79.5 21zM403 -214q-11 -3 -34.5 -6.5t-49.5 -3.5q-38 0 -57 6t-28 15q-16 14 -16 49q0 28 7.5 48t21.5 35q11 12 39 30.5t63 36.5q-41 -6 -83 -6
q-115 0 -166 55q-45 47 -45 138q0 52 10 104t29 98.5t45 83.5t59 59q36 24 79 36t100 12q104 0 149.5 -39.5t45.5 -109.5q0 -91 -68 -132t-208 -41q-32 0 -66.5 2t-60.5 4q-3 -20 -5 -37t-2 -33q0 -25 5 -44t17 -32q30 -34 112 -34q29 0 57.5 3t54 7.5t47.5 9.5t38 8
l-26 -84q-9 -4 -19.5 -7t-22.5 -6l-51 -35q-31 -21 -53.5 -40.5t-28.5 -27.5q-5 -7 -9.5 -18.5t-4.5 -26.5q0 -17 6 -24q12 -10 48 -10q26 0 45.5 2t33.5 4z" />
    <glyph glyph-name="Ecaron" unicode="&#x11a;" horiz-adv-x="632" 
d="M509 0h-474l159 750h481l-37 -93h-357l-48 -228h314l-38 -91h-295l-52 -244h390zM298 946h74l72 -79l108 79h82l-157 -130h-78z" />
    <glyph glyph-name="ecaron" unicode="&#x11b;" horiz-adv-x="606" 
d="M55 183q0 52 10 104t29 98.5t45 83.5t59 59q36 24 79 36t100 12q104 0 149.5 -39.5t45.5 -109.5q0 -91 -68 -132t-208 -41q-32 0 -66.5 2t-60.5 4q-3 -20 -5 -37t-2 -33q0 -25 5 -44t17 -32q30 -34 112 -34q29 0 57.5 3t54 7.5t47.5 9.5t38 8l-26 -84
q-38 -13 -89.5 -23.5t-111.5 -10.5q-115 0 -166 55q-45 47 -45 138zM363 495q-65 0 -105 -31q-47 -37 -72 -129q10 -1 26.5 -1.5t35 -1.5t36.5 -1h32q67 0 108 19.5t41 70.5q0 32 -22.5 53t-79.5 21zM236 757h74l72 -79l108 79h82l-157 -130h-78z" />
    <glyph glyph-name="Gcircumflex" unicode="&#x11c;" horiz-adv-x="775" 
d="M748 644q-37 6 -92.5 13t-120.5 7q-76 0 -122.5 -11.5t-79.5 -33.5q-38 -26 -65.5 -69t-46.5 -94t-28 -104.5t-9 -99.5q0 -41 8 -72t25 -49q22 -25 62.5 -36.5t99.5 -11.5q51 0 86 4t66 9l48 221h-191l36 86h278l-79 -369q-51 -17 -114 -30.5t-147 -13.5
q-93 0 -149.5 20.5t-91.5 61.5q-21 25 -35 66t-14 100q0 60 11.5 125t35 126.5t60 114.5t86.5 88q23 16 49.5 28.5t59 21t72.5 13t90 4.5q66 0 124 -8.5t100 -16.5zM675 816h-74l-72 80l-107 -80h-83l157 130h78z" />
    <glyph glyph-name="gcircumflex" unicode="&#x11d;" horiz-adv-x="670" 
d="M526 56q-13 -60 -27 -104t-30 -77t-34.5 -56t-39.5 -40q-35 -26 -86 -39t-128 -13q-28 0 -57 2.5t-56 7t-50.5 10t-39.5 10.5l12 84q15 -3 37.5 -7t49.5 -7t56 -5.5t56 -2.5q45 0 86 7.5t65 27.5q23 19 41 64.5t37 130.5l7 29h-6q-1 -1 -11.5 -11t-23 -21t-22.5 -20.5
t-11 -9.5q-19 -9 -53.5 -17t-82.5 -8q-42 0 -73 10t-54 34q-17 18 -27 47.5t-10 73.5q0 46 9 99.5t27.5 103.5t46.5 93.5t66 70.5q37 26 84 37.5t99 11.5q54 0 103 -9t82 -19l46 20h21zM509 478q-20 2 -48 5t-68 3q-42 0 -72.5 -6.5t-55.5 -25.5q-26 -20 -45.5 -54
t-32.5 -73.5t-19.5 -79t-6.5 -69.5q0 -55 21 -74q25 -24 84 -24q47 0 90 12.5t76 26.5zM568 627h-74l-72 80l-107 -80h-83l157 130h78z" />
    <glyph glyph-name="Gbreve" unicode="&#x11e;" horiz-adv-x="775" 
d="M748 644q-37 6 -92.5 13t-120.5 7q-76 0 -122.5 -11.5t-79.5 -33.5q-38 -26 -65.5 -69t-46.5 -94t-28 -104.5t-9 -99.5q0 -41 8 -72t25 -49q22 -25 62.5 -36.5t99.5 -11.5q51 0 86 4t66 9l48 221h-191l36 86h278l-79 -369q-51 -17 -114 -30.5t-147 -13.5
q-93 0 -149.5 20.5t-91.5 61.5q-21 25 -35 66t-14 100q0 60 11.5 125t35 126.5t60 114.5t86.5 88q23 16 49.5 28.5t59 21t72.5 13t90 4.5q66 0 124 -8.5t100 -16.5zM439 949q-2 -7 -3 -14.5t-1 -12.5q0 -53 79 -53q51 0 74.5 20.5t29.5 59.5h59q-3 -27 -13.5 -51t-30 -42
t-50 -28.5t-73.5 -10.5q-61 0 -96.5 24t-35.5 73q0 7 1 17t3 18h57z" />
    <glyph glyph-name="gbreve" unicode="&#x11f;" horiz-adv-x="670" 
d="M526 56q-13 -60 -27 -104t-30 -77t-34.5 -56t-39.5 -40q-35 -26 -86 -39t-128 -13q-28 0 -57 2.5t-56 7t-50.5 10t-39.5 10.5l12 84q15 -3 37.5 -7t49.5 -7t56 -5.5t56 -2.5q45 0 86 7.5t65 27.5q23 19 41 64.5t37 130.5l7 29h-6q-1 -1 -11.5 -11t-23 -21t-22.5 -20.5
t-11 -9.5q-19 -9 -53.5 -17t-82.5 -8q-42 0 -73 10t-54 34q-17 18 -27 47.5t-10 73.5q0 46 9 99.5t27.5 103.5t46.5 93.5t66 70.5q37 26 84 37.5t99 11.5q54 0 103 -9t82 -19l46 20h21zM509 478q-20 2 -48 5t-68 3q-42 0 -72.5 -6.5t-55.5 -25.5q-26 -20 -45.5 -54
t-32.5 -73.5t-19.5 -79t-6.5 -69.5q0 -55 21 -74q25 -24 84 -24q47 0 90 12.5t76 26.5zM334 760q-2 -7 -3 -14.5t-1 -12.5q0 -53 79 -53q51 0 74.5 20.5t29.5 59.5h59q-3 -27 -13.5 -51t-30 -42t-50 -28.5t-73.5 -10.5q-61 0 -96.5 24t-35.5 73q0 7 1 17t3 18h57z" />
    <glyph glyph-name="Gdotaccent" unicode="&#x120;" horiz-adv-x="775" 
d="M748 644q-37 6 -92.5 13t-120.5 7q-76 0 -122.5 -11.5t-79.5 -33.5q-38 -26 -65.5 -69t-46.5 -94t-28 -104.5t-9 -99.5q0 -41 8 -72t25 -49q22 -25 62.5 -36.5t99.5 -11.5q51 0 86 4t66 9l48 221h-191l36 86h278l-79 -369q-51 -17 -114 -30.5t-147 -13.5
q-93 0 -149.5 20.5t-91.5 61.5q-21 25 -35 66t-14 100q0 60 11.5 125t35 126.5t60 114.5t86.5 88q23 16 49.5 28.5t59 21t72.5 13t90 4.5q66 0 124 -8.5t100 -16.5zM516 825q-32 0 -42 13q-6 9 -6 25q0 20 6.5 38t19.5 27q14 10 44 10q32 0 41 -12q8 -9 8 -28t-6 -36.5
t-17 -26.5q-8 -5 -21 -7.5t-27 -2.5z" />
    <glyph glyph-name="gdotaccent" unicode="&#x121;" horiz-adv-x="670" 
d="M526 56q-13 -60 -27 -104t-30 -77t-34.5 -56t-39.5 -40q-35 -26 -86 -39t-128 -13q-28 0 -57 2.5t-56 7t-50.5 10t-39.5 10.5l12 84q15 -3 37.5 -7t49.5 -7t56 -5.5t56 -2.5q45 0 86 7.5t65 27.5q23 19 41 64.5t37 130.5l7 29h-6q-1 -1 -11.5 -11t-23 -21t-22.5 -20.5
t-11 -9.5q-19 -9 -53.5 -17t-82.5 -8q-42 0 -73 10t-54 34q-17 18 -27 47.5t-10 73.5q0 46 9 99.5t27.5 103.5t46.5 93.5t66 70.5q37 26 84 37.5t99 11.5q54 0 103 -9t82 -19l46 20h21zM509 478q-20 2 -48 5t-68 3q-42 0 -72.5 -6.5t-55.5 -25.5q-26 -20 -45.5 -54
t-32.5 -73.5t-19.5 -79t-6.5 -69.5q0 -55 21 -74q25 -24 84 -24q47 0 90 12.5t76 26.5zM411 636q-32 0 -42 13q-6 9 -6 25q0 20 6.5 38t19.5 27q14 10 44 10q32 0 41 -12q8 -9 8 -28t-6 -36.5t-17 -26.5q-8 -5 -21 -7.5t-27 -2.5z" />
    <glyph glyph-name="Gcommaaccent" unicode="&#x122;" horiz-adv-x="775" 
d="M748 644q-37 6 -92.5 13t-120.5 7q-76 0 -122.5 -11.5t-79.5 -33.5q-38 -26 -65.5 -69t-46.5 -94t-28 -104.5t-9 -99.5q0 -41 8 -72t25 -49q22 -25 62.5 -36.5t99.5 -11.5q51 0 86 4t66 9l48 221h-191l36 86h278l-79 -369q-51 -17 -114 -30.5t-147 -13.5
q-93 0 -149.5 20.5t-91.5 61.5q-21 25 -35 66t-14 100q0 60 11.5 125t35 126.5t60 114.5t86.5 88q23 16 49.5 28.5t59 21t72.5 13t90 4.5q66 0 124 -8.5t100 -16.5zM316 -85h96l-109 -138h-76z" />
    <glyph glyph-name="gcommaaccent" unicode="&#x123;" horiz-adv-x="670" 
d="M526 56q-13 -60 -27 -104t-30 -77t-34.5 -56t-39.5 -40q-35 -26 -86 -39t-128 -13q-28 0 -57 2.5t-56 7t-50.5 10t-39.5 10.5l12 84q15 -3 37.5 -7t49.5 -7t56 -5.5t56 -2.5q45 0 86 7.5t65 27.5q23 19 41 64.5t37 130.5l7 29h-6q-1 -1 -11.5 -11t-23 -21t-22.5 -20.5
t-11 -9.5q-19 -9 -53.5 -17t-82.5 -8q-42 0 -73 10t-54 34q-17 18 -27 47.5t-10 73.5q0 46 9 99.5t27.5 103.5t46.5 93.5t66 70.5q37 26 84 37.5t99 11.5q54 0 103 -9t82 -19l46 20h21zM509 478q-20 2 -48 5t-68 3q-42 0 -72.5 -6.5t-55.5 -25.5q-26 -20 -45.5 -54
t-32.5 -73.5t-19.5 -79t-6.5 -69.5q0 -55 21 -74q25 -24 84 -24q47 0 90 12.5t76 26.5zM442 633h-98l110 138h78z" />
    <glyph glyph-name="Hcircumflex" unicode="&#x124;" horiz-adv-x="803" 
d="M532 0l70 332h-390l-71 -332h-105l159 750h105l-68 -323h391l68 323h106l-159 -750h-106zM672 816h-74l-72 80l-107 -80h-83l157 130h78z" />
    <glyph glyph-name="hcircumflex" unicode="&#x125;" horiz-adv-x="665" 
d="M407 0l70 327q11 55 11 83q0 31 -12 46q-11 15 -34 19.5t-53 4.5q-48 0 -86 -10.5t-70 -24.5l-95 -445h-107l174 810h105l-72 -332h7l60 60q20 11 57.5 21t88.5 10q94 0 127 -46q22 -29 22 -81q0 -22 -3.5 -48.5t-10.5 -59.5l-71 -334h-108zM426 858h-74l-72 80l-107 -80
h-83l157 130h78z" />
    <glyph glyph-name="Hbar" unicode="&#x126;" horiz-adv-x="803" 
d="M63 625h93l26 125h107l-26 -125h390l26 125h106l-27 -125h95l-14 -70h-95l-118 -555h-106l70 331h-390l-70 -331h-106l117 555h-93zM611 427l27 128h-391l-27 -128h391z" />
    <glyph glyph-name="hbar" unicode="&#x127;" horiz-adv-x="652" 
d="M98 735h90l17 75h105l-16 -75h185l-16 -74h-185l-40 -183h7l60 60q20 11 57.5 21t88.5 10q45 0 77.5 -11.5t49.5 -34.5q22 -29 22 -81q0 -22 -3.5 -48.5t-10.5 -59.5l-71 -334h-108l69 327q12 52 12 83t-12 46q-11 15 -34 19.5t-54 4.5q-48 0 -85.5 -10.5t-69.5 -24.5
l-95 -445h-107l141 661h-90z" />
    <glyph glyph-name="Itilde" unicode="&#x128;" horiz-adv-x="306" 
d="M36 0l159 750h105l-159 -750h-105zM92 828q12 48 39.5 76.5t72.5 28.5q24 0 42 -9t32.5 -19.5t28 -19.5t29.5 -9q19 0 31.5 11.5t21.5 39.5h53q-13 -55 -42 -81t-70 -26q-25 0 -42.5 9t-32.5 20t-28 20t-29 9q-37 0 -53 -50h-53z" />
    <glyph glyph-name="itilde" unicode="&#x129;" horiz-adv-x="286" 
d="M31 0l119 561h108l-119 -561h-108zM54 639q12 48 39.5 76.5t72.5 28.5q24 0 42 -9t32.5 -19.5t28 -19.5t29.5 -9q19 0 31.5 11.5t21.5 39.5h53q-13 -55 -42 -81t-70 -26q-25 0 -42.5 9t-32.5 20t-28 20t-29 9q-37 0 -53 -50h-53z" />
    <glyph glyph-name="Imacron" unicode="&#x12a;" horiz-adv-x="306" 
d="M36 0l159 750h105l-159 -750h-105zM134 898h284l-15 -66h-284z" />
    <glyph glyph-name="imacron" unicode="&#x12b;" horiz-adv-x="286" 
d="M31 0l119 561h108l-119 -561h-108zM89 709h284l-15 -66h-284z" />
    <glyph glyph-name="Ibreve" unicode="&#x12c;" horiz-adv-x="306" 
d="M36 0l159 750h105l-159 -750h-105zM188 949q-2 -7 -3 -14.5t-1 -12.5q0 -53 79 -53q51 0 74.5 20.5t29.5 59.5h59q-3 -27 -13.5 -51t-30 -42t-50 -28.5t-73.5 -10.5q-61 0 -96.5 24t-35.5 73q0 7 1 17t3 18h57z" />
    <glyph glyph-name="ibreve" unicode="&#x12d;" horiz-adv-x="286" 
d="M31 0l119 561h108l-119 -561h-108zM142 760q-2 -7 -3 -14.5t-1 -12.5q0 -53 79 -53q51 0 74.5 20.5t29.5 59.5h59q-3 -27 -13.5 -51t-30 -42t-50 -28.5t-73.5 -10.5q-61 0 -96.5 24t-35.5 73q0 7 1 17t3 18h57z" />
    <glyph glyph-name="Iogonek" unicode="&#x12e;" horiz-adv-x="306" 
d="M36 0l159 750h105l-159 -750h-8l-36 -28q-28 -22 -44 -37t-23 -24q-5 -8 -9.5 -20.5t-4.5 -27.5q0 -8 1 -14t5 -10q5 -5 16.5 -7.5t31.5 -2.5q26 0 45 2t33 4l-7 -49q-11 -3 -34.5 -6.5t-49.5 -3.5q-39 0 -58 6t-27 15q-16 14 -16 49q0 54 29 86q12 14 38 34t47 34h-34z
" />
    <glyph glyph-name="iogonek" unicode="&#x12f;" horiz-adv-x="292" 
d="M306 748q-3 -17 -9 -31t-15 -22q-9 -7 -23 -9.5t-30 -2.5q-33 0 -45 14q-5 6 -6 17.5t1 25.5q6 40 27 55q16 11 48 11q34 0 44 -13q7 -6 8.5 -18.5t-0.5 -26.5zM33 0l119 561h107l-119 -561h-10l-27 -20q-29 -22 -50 -41t-27 -28q-6 -8 -10 -20.5t-4 -27.5q0 -8 1 -14
t5 -10q10 -10 47 -10q26 0 45.5 2t33.5 4l-7 -49q-12 -3 -35 -6.5t-49 -3.5q-39 0 -58 6t-28 15q-7 7 -11 18.5t-4 30.5q0 28 7.5 48t20.5 36q12 14 36.5 33t50.5 37h-34z" />
    <glyph glyph-name="Idotaccent" unicode="&#x130;" horiz-adv-x="306" 
d="M36 0l159 750h105l-159 -750h-105zM261 825q-32 0 -42 13q-6 9 -6 25q0 20 6.5 38t19.5 27q14 10 44 10q32 0 41 -12q8 -9 8 -28t-6 -36.5t-17 -26.5q-8 -5 -21 -7.5t-27 -2.5z" />
    <glyph glyph-name="dotlessi" unicode="&#x131;" horiz-adv-x="286" 
d="M31 0l119 561h108l-119 -561h-108z" />
    <glyph glyph-name="Jcircumflex" unicode="&#x134;" horiz-adv-x="588" 
d="M161 -11q-52 0 -106 8t-88 17l9 90q15 -3 34.5 -6.5t43 -6.5t48.5 -5t51 -2q57 0 95 12.5t62 33.5q11 10 21.5 25.5t20.5 37.5t19.5 52.5t18.5 71.5l92 433h105l-95 -446q-11 -50 -22.5 -89.5t-25 -69.5t-30 -53t-35.5 -40q-17 -14 -37.5 -26t-47 -20t-59 -12.5
t-74.5 -4.5zM702 816h-74l-72 80l-107 -80h-83l157 130h78z" />
    <glyph glyph-name="jcircumflex" unicode="&#x135;" horiz-adv-x="291" 
d="M124 -81q-10 -47 -27 -83.5t-43.5 -61t-64 -37t-88.5 -12.5q-34 0 -62 4l-42 6l3 77q14 -2 39 -4t52 -2q29 0 49.5 6.5t35.5 20.5t25 36t17 54l134 638h108zM382 627h-74l-72 80l-107 -80h-83l157 130h78z" />
    <glyph glyph-name="Kcommaaccent" unicode="&#x136;" horiz-adv-x="696" 
d="M254 -86h96l-109 -138h-76zM613 0h-132l-213 349h-53l-74 -349h-105l159 750h105l-80 -380l402 380h147l-401 -365z" />
    <glyph glyph-name="kcommaaccent" unicode="&#x137;" horiz-adv-x="593" 
d="M529 0h-131l-157 264h-44l-57 -264h-107l173 810h107l-111 -519l298 270h145l-309 -263zM214 -85h96l-109 -138h-76z" />
    <glyph glyph-name="kgreenlandic" unicode="&#x138;" horiz-adv-x="593" 
d="M530 0h-131l-156 264h-46l-56 -264h-106l119 561h107l-57 -270l298 270h144l-309 -263z" />
    <glyph glyph-name="Lacute" unicode="&#x139;" horiz-adv-x="609" 
d="M164 94h381l-42 -94h-466l159 750h106zM373 952h124l-204 -139h-92z" />
    <glyph glyph-name="lacute" unicode="&#x13a;" horiz-adv-x="344" 
d="M311 811l-137 -641q-6 -30 -6 -48q0 -26 13.5 -36t39.5 -10q21 0 40 2.5t34 5.5l-17 -79q-21 -5 -49 -9t-52 -4q-59 0 -89 24.5t-30 80.5q0 15 2.5 34t7.5 41l136 639h107zM372 1002h124l-204 -139h-92z" />
    <glyph glyph-name="Lcommaaccent" unicode="&#x13b;" horiz-adv-x="609" 
d="M164 94h381l-42 -94h-466l159 750h106zM240 -86h96l-109 -138h-76z" />
    <glyph glyph-name="lcommaaccent" unicode="&#x13c;" horiz-adv-x="344" 
d="M311 811l-137 -641q-6 -30 -6 -48q0 -26 13.5 -36t39.5 -10q21 0 40 2.5t34 5.5l-17 -79q-21 -5 -49 -9t-52 -4q-59 0 -89 24.5t-30 80.5q0 15 2.5 34t7.5 41l136 639h107zM106 -86h96l-109 -138h-76z" />
    <glyph glyph-name="Lcaron" unicode="&#x13d;" horiz-adv-x="609" 
d="M164 94h381l-42 -94h-466l159 750h106zM524 750h84l-105 -237h-71z" />
    <glyph glyph-name="lcaron" unicode="&#x13e;" horiz-adv-x="344" 
d="M311 811l-137 -641q-6 -30 -6 -48q0 -26 13.5 -36t39.5 -10q21 0 40 2.5t34 5.5l-17 -79q-21 -5 -49 -9t-52 -4q-59 0 -89 24.5t-30 80.5q0 15 2.5 34t7.5 41l136 639h107zM442 815h84l-105 -237h-71z" />
    <glyph glyph-name="Ldot" unicode="&#x13f;" horiz-adv-x="609" 
d="M164 94h381l-42 -94h-466l159 750h106zM532 362q-16 -12 -54 -12q-40 0 -52 15q-8 10 -8 28q0 22 7.5 42t20.5 30q10 7 23.5 9.5t29.5 2.5q39 0 50 -14q9 -9 9 -30q0 -22 -7 -41.5t-19 -29.5z" />
    <glyph glyph-name="ldot" unicode="&#x140;" horiz-adv-x="377" 
d="M311 811l-137 -641q-6 -30 -6 -48q0 -26 13.5 -36t39.5 -10q21 0 40 2.5t34 5.5l-17 -79q-21 -5 -49 -9t-52 -4q-59 0 -89 24.5t-30 80.5q0 15 2.5 34t7.5 41l136 639h107zM340 358q-32 0 -42 13q-6 9 -6 25q0 20 6.5 38t19.5 27q14 10 44 10q32 0 41 -12q8 -9 8 -28
t-6 -36.5t-17 -26.5q-8 -5 -21 -7.5t-27 -2.5z" />
    <glyph glyph-name="Lslash" unicode="&#x141;" horiz-adv-x="609" 
d="M410 460l-205 -116l-52 -249h383l-43 -95h-466l58 276l-108 -62l20 98l109 62l80 376h106l-66 -308l204 115z" />
    <glyph glyph-name="lslash" unicode="&#x142;" horiz-adv-x="345" 
d="M311 811l-72 -338l144 73l-18 -93l-146 -75l-46 -212q-3 -14 -4 -25t-1 -19q0 -26 13.5 -36t40.5 -10q20 0 39 2.5t34 5.5l-17 -79q-21 -5 -48.5 -9t-50.5 -4q-60 0 -90.5 24.5t-30.5 79.5q0 31 9 73l32 152l-103 -52l18 93l105 54l85 395h107z" />
    <glyph glyph-name="Nacute" unicode="&#x143;" horiz-adv-x="847" 
d="M528 0l-239 643h-18l-136 -643h-97l158 750h158l237 -636h16l135 636h99l-159 -750h-154zM610 952h124l-204 -139h-92z" />
    <glyph glyph-name="nacute" unicode="&#x144;" horiz-adv-x="667" 
d="M409 0l71 334q11 49 11 76q0 28 -12 45q-12 15 -34.5 20t-50.5 5q-48 0 -87.5 -10.5t-71.5 -24.5l-95 -445h-107l119 561h83l3 -83h7l60 60q21 11 59.5 21t89.5 10q92 0 126 -46q11 -15 17 -34.5t6 -46.5q0 -22 -4 -48.5t-11 -59.5l-71 -334h-108zM460 763h124l-204 -139
h-92z" />
    <glyph glyph-name="Ncommaaccent" unicode="&#x145;" horiz-adv-x="847" 
d="M528 0l-239 643h-18l-136 -643h-97l158 750h158l237 -636h16l135 636h99l-159 -750h-154zM317 -86h96l-109 -138h-76z" />
    <glyph glyph-name="ncommaaccent" unicode="&#x146;" horiz-adv-x="667" 
d="M409 0l71 334q11 49 11 76q0 28 -12 45q-12 15 -34.5 20t-50.5 5q-48 0 -87.5 -10.5t-71.5 -24.5l-95 -445h-107l119 561h83l3 -83h7l60 60q21 11 59.5 21t89.5 10q92 0 126 -46q11 -15 17 -34.5t6 -46.5q0 -22 -4 -48.5t-11 -59.5l-71 -334h-108zM233 -86h96l-109 -138
h-76z" />
    <glyph glyph-name="Ncaron" unicode="&#x147;" horiz-adv-x="847" 
d="M528 0l-239 643h-18l-136 -643h-97l158 750h158l237 -636h16l135 636h99l-159 -750h-154zM390 946h74l72 -79l108 79h82l-157 -130h-78z" />
    <glyph glyph-name="ncaron" unicode="&#x148;" horiz-adv-x="667" 
d="M409 0l71 334q11 49 11 76q0 28 -12 45q-12 15 -34.5 20t-50.5 5q-48 0 -87.5 -10.5t-71.5 -24.5l-95 -445h-107l119 561h83l3 -83h7l60 60q21 11 59.5 21t89.5 10q92 0 126 -46q11 -15 17 -34.5t6 -46.5q0 -22 -4 -48.5t-11 -59.5l-71 -334h-108zM241 757h74l72 -79
l108 79h82l-157 -130h-78z" />
    <glyph glyph-name="Eng" unicode="&#x14a;" horiz-adv-x="850" 
d="M364 -239q-26 0 -53 2t-52.5 6t-48 8t-38.5 9l8 90q15 -3 35 -6.5t43.5 -6.5t49 -5t51.5 -2q59 0 99 12.5t63 33.5q15 14 30 37t27 61h-51l-239 643h-17l-137 -643h-97l158 750h158l237 -636h16l135 636h99l-145 -681q-20 -96 -46 -153t-66 -90q-34 -30 -84.5 -47.5
t-134.5 -17.5z" />
    <glyph glyph-name="eng" unicode="&#x14b;" horiz-adv-x="667" 
d="M499 -82q-10 -47 -27 -83t-43.5 -60.5t-64 -37t-88.5 -12.5q-34 0 -62 4t-43 6l4 77q14 -2 39 -4t52 -2q58 0 85.5 27t40.5 90l88 411q11 49 11 76q0 28 -12 45q-12 15 -34.5 20t-50.5 5q-48 0 -87.5 -10.5t-71.5 -24.5l-95 -445h-107l119 561h83l3 -83h7l60 60
q21 11 59.5 21t89.5 10q92 0 126 -46q11 -15 17 -34.5t6 -46.5q0 -22 -4 -48.5t-11 -59.5z" />
    <glyph glyph-name="Omacron" unicode="&#x14c;" horiz-adv-x="835" 
d="M366 85q60 -1 102.5 12t72.5 35q33 26 59 71.5t44 98t27 106t9 95.5q0 70 -25 104q-17 26 -59 41.5t-101 15.5t-101 -12.5t-75 -37.5q-34 -27 -59.5 -71t-43 -94.5t-26 -103.5t-8.5 -98q0 -36 6.5 -61.5t18.5 -42.5q20 -29 62.5 -43.5t96.5 -14.5zM504 760
q96 0 153.5 -22.5t88.5 -61.5q20 -24 32 -63.5t12 -96.5q0 -54 -11 -118.5t-33.5 -127.5t-57 -118.5t-80.5 -92.5q-25 -20 -56 -33.5t-64 -21.5t-66 -11.5t-62 -3.5q-52 0 -91.5 6.5t-68.5 18t-49.5 27.5t-34.5 35q-18 23 -30.5 61.5t-12.5 96.5q0 55 10 119.5t32 126
t56 116t82 90.5q47 35 108 54.5t143 19.5zM393 898h284l-15 -66h-284z" />
    <glyph glyph-name="omacron" unicode="&#x14d;" horiz-adv-x="672" 
d="M616 387q0 -43 -8 -91.5t-24.5 -94.5t-41.5 -86.5t-58 -67.5q-37 -30 -86.5 -44t-122.5 -14q-75 0 -119.5 19.5t-66.5 48.5q-15 20 -23.5 49.5t-8.5 73.5q0 42 7.5 89.5t24 94t42 87t61.5 67.5q36 28 84.5 42.5t118.5 14.5q69 0 114 -16.5t67 -42.5q18 -21 29 -52.5
t11 -76.5zM414 109q22 17 39.5 48.5t30.5 68.5t20 75.5t7 71.5q0 28 -5.5 47t-15.5 31q-14 17 -40.5 26.5t-66.5 9.5q-45 0 -75 -10.5t-50 -25.5q-23 -17 -41 -47.5t-30.5 -66.5t-19.5 -74t-7 -71q0 -25 5 -45.5t14 -31.5q14 -19 40.5 -30t72.5 -11q37 0 68.5 8.5t53.5 26.5
zM274 709h284l-15 -66h-284z" />
    <glyph glyph-name="Obreve" unicode="&#x14e;" horiz-adv-x="835" 
d="M366 85q60 -1 102.5 12t72.5 35q33 26 59 71.5t44 98t27 106t9 95.5q0 70 -25 104q-17 26 -59 41.5t-101 15.5t-101 -12.5t-75 -37.5q-34 -27 -59.5 -71t-43 -94.5t-26 -103.5t-8.5 -98q0 -36 6.5 -61.5t18.5 -42.5q20 -29 62.5 -43.5t96.5 -14.5zM504 760
q96 0 153.5 -22.5t88.5 -61.5q20 -24 32 -63.5t12 -96.5q0 -54 -11 -118.5t-33.5 -127.5t-57 -118.5t-80.5 -92.5q-25 -20 -56 -33.5t-64 -21.5t-66 -11.5t-62 -3.5q-52 0 -91.5 6.5t-68.5 18t-49.5 27.5t-34.5 35q-18 23 -30.5 61.5t-12.5 96.5q0 55 10 119.5t32 126
t56 116t82 90.5q47 35 108 54.5t143 19.5zM439 949q-2 -7 -3 -14.5t-1 -12.5q0 -53 79 -53q51 0 74.5 20.5t29.5 59.5h59q-3 -27 -13.5 -51t-30 -42t-50 -28.5t-73.5 -10.5q-61 0 -96.5 24t-35.5 73q0 7 1 17t3 18h57z" />
    <glyph glyph-name="obreve" unicode="&#x14f;" horiz-adv-x="672" 
d="M616 387q0 -43 -8 -91.5t-24.5 -94.5t-41.5 -86.5t-58 -67.5q-37 -30 -86.5 -44t-122.5 -14q-75 0 -119.5 19.5t-66.5 48.5q-15 20 -23.5 49.5t-8.5 73.5q0 42 7.5 89.5t24 94t42 87t61.5 67.5q36 28 84.5 42.5t118.5 14.5q69 0 114 -16.5t67 -42.5q18 -21 29 -52.5
t11 -76.5zM414 109q22 17 39.5 48.5t30.5 68.5t20 75.5t7 71.5q0 28 -5.5 47t-15.5 31q-14 17 -40.5 26.5t-66.5 9.5q-45 0 -75 -10.5t-50 -25.5q-23 -17 -41 -47.5t-30.5 -66.5t-19.5 -74t-7 -71q0 -25 5 -45.5t14 -31.5q14 -19 40.5 -30t72.5 -11q37 0 68.5 8.5t53.5 26.5
zM330 760q-2 -7 -3 -14.5t-1 -12.5q0 -53 79 -53q51 0 74.5 20.5t29.5 59.5h59q-3 -27 -13.5 -51t-30 -42t-50 -28.5t-73.5 -10.5q-61 0 -96.5 24t-35.5 73q0 7 1 17t3 18h57z" />
    <glyph glyph-name="Ohungarumlaut" unicode="&#x150;" horiz-adv-x="835" 
d="M366 85q60 -1 102.5 12t72.5 35q33 26 59 71.5t44 98t27 106t9 95.5q0 70 -25 104q-17 26 -59 41.5t-101 15.5t-101 -12.5t-75 -37.5q-34 -27 -59.5 -71t-43 -94.5t-26 -103.5t-8.5 -98q0 -36 6.5 -61.5t18.5 -42.5q20 -29 62.5 -43.5t96.5 -14.5zM504 760
q96 0 153.5 -22.5t88.5 -61.5q20 -24 32 -63.5t12 -96.5q0 -54 -11 -118.5t-33.5 -127.5t-57 -118.5t-80.5 -92.5q-25 -20 -56 -33.5t-64 -21.5t-66 -11.5t-62 -3.5q-52 0 -91.5 6.5t-68.5 18t-49.5 27.5t-34.5 35q-18 23 -30.5 61.5t-12.5 96.5q0 55 10 119.5t32 126
t56 116t82 90.5q47 35 108 54.5t143 19.5zM483 946h105l-158 -132h-77zM664 946h105l-158 -132h-77z" />
    <glyph glyph-name="ohungarumlaut" unicode="&#x151;" horiz-adv-x="672" 
d="M616 387q0 -43 -8 -91.5t-24.5 -94.5t-41.5 -86.5t-58 -67.5q-37 -30 -86.5 -44t-122.5 -14q-75 0 -119.5 19.5t-66.5 48.5q-15 20 -23.5 49.5t-8.5 73.5q0 42 7.5 89.5t24 94t42 87t61.5 67.5q36 28 84.5 42.5t118.5 14.5q69 0 114 -16.5t67 -42.5q18 -21 29 -52.5
t11 -76.5zM414 109q22 17 39.5 48.5t30.5 68.5t20 75.5t7 71.5q0 28 -5.5 47t-15.5 31q-14 17 -40.5 26.5t-66.5 9.5q-45 0 -75 -10.5t-50 -25.5q-23 -17 -41 -47.5t-30.5 -66.5t-19.5 -74t-7 -71q0 -25 5 -45.5t14 -31.5q14 -19 40.5 -30t72.5 -11q37 0 68.5 8.5t53.5 26.5
zM366 757h105l-158 -132h-77zM547 757h105l-158 -132h-77z" />
    <glyph glyph-name="OE" unicode="&#x152;" horiz-adv-x="1113" 
d="M365 84q62 0 101 7t74 20l111 527q-30 14 -69.5 20t-84.5 6q-61 0 -105.5 -14t-72.5 -36q-35 -27 -60.5 -71.5t-42.5 -95.5t-25.5 -103.5t-8.5 -96.5q0 -36 7 -62.5t19 -42.5q20 -26 60 -42t97 -16zM338 -11q-81 0 -135.5 22.5t-84.5 61.5q-20 26 -32.5 63.5t-12.5 97.5
q0 56 10.5 120t32 126t55.5 116t82 90q45 34 106.5 54t145.5 20q38 0 73 -5t62 -15l19 -35h6l10 45h481l-38 -93h-356l-48 -227h314l-38 -92h-295l-52 -243h390l-43 -95h-474l10 47h-6l-37 -37q-32 -10 -69 -15.5t-76 -5.5z" />
    <glyph glyph-name="oe" unicode="&#x153;" horiz-adv-x="1032" 
d="M543 533q30 -26 43 -67q25 38 63 65q64 43 162 43q55 0 93 -10.5t61.5 -29.5t34 -46t10.5 -60q0 -53 -22.5 -87t-60 -53t-86 -26t-101.5 -7q-36 0 -75 2t-65 4q-5 -20 -7.5 -38.5t-2.5 -36.5q0 -23 5 -42t18 -33q30 -38 120 -38q27 0 55 3t54.5 7.5t49 9.5t37.5 9
l-27 -82q-35 -11 -88 -20.5t-120 -9.5q-54 0 -89.5 12t-58.5 35q-13 11 -21.5 27.5t-13.5 34.5q-11 -17 -27.5 -34t-33.5 -30q-32 -23 -74.5 -34.5t-101.5 -11.5q-75 1 -117 18.5t-65 47.5q-16 21 -25 53t-9 89q0 44 9 90.5t25.5 89t41 79t56.5 60.5q37 29 87.5 44t116.5 15
q57 0 93 -12t56 -30zM414 109q22 18 40.5 49.5t31 68t19.5 74.5t6 69q-1 58 -18 81q-14 18 -40.5 28t-69.5 10q-41 0 -71.5 -10t-50.5 -26q-21 -15 -38.5 -44t-30.5 -65t-20.5 -76t-7.5 -78q0 -23 4 -41.5t13 -32.5q12 -19 37 -30.5t73 -11.5q40 0 71.5 9t51.5 26zM796 496
q-71 0 -113 -36q-24 -20 -40.5 -51.5t-28.5 -76.5q12 -1 29.5 -2t36.5 -1.5t36 -1t26 -0.5q75 0 117.5 20.5t42.5 73.5q0 75 -106 75z" />
    <glyph glyph-name="Racute" unicode="&#x154;" horiz-adv-x="700" 
d="M669 604q0 -57 -21 -114t-65 -99q-23 -14 -59 -27t-70 -24v-3q18 -8 37 -21t28 -26q8 -12 18 -40t21 -67t23 -86t23 -97h-116q-27 126 -49 198.5t-45 91.5q-14 11 -46.5 15t-71.5 4h-70l-65 -309h-105l159 750h265q64 0 104.5 -10t62.5 -29q20 -16 31 -42.5t11 -64.5z
M468 418q21 10 38 27.5t28 40t17 48t6 50.5q0 39 -20 57q-23 24 -111 24h-144l-56 -265h122q45 0 74 5t46 13zM526 952h124l-204 -139h-92z" />
    <glyph glyph-name="racute" unicode="&#x155;" horiz-adv-x="444" 
d="M230 561l7 -80h7l54 60q23 13 53 21.5t69 8.5q18 0 33 -1t29 -3l-18 -105q-14 4 -36.5 9t-55.5 5q-42 0 -76 -11.5t-64 -30.5l-92 -434h-107l119 561h78zM380 763h124l-204 -139h-92z" />
    <glyph glyph-name="Rcommaaccent" unicode="&#x156;" horiz-adv-x="700" 
d="M669 604q0 -57 -21 -114t-65 -99q-23 -14 -59 -27t-70 -24v-3q18 -8 37 -21t28 -26q8 -12 18 -40t21 -67t23 -86t23 -97h-116q-27 126 -49 198.5t-45 91.5q-14 11 -46.5 15t-71.5 4h-70l-65 -309h-105l159 750h265q64 0 104.5 -10t62.5 -29q20 -16 31 -42.5t11 -64.5z
M468 418q21 10 38 27.5t28 40t17 48t6 50.5q0 39 -20 57q-23 24 -111 24h-144l-56 -265h122q45 0 74 5t46 13zM263 -86h96l-109 -138h-76z" />
    <glyph glyph-name="rcommaaccent" unicode="&#x157;" horiz-adv-x="444" 
d="M230 561l7 -80h7l54 60q23 13 53 21.5t69 8.5q18 0 33 -1t29 -3l-18 -105q-14 4 -36.5 9t-55.5 5q-42 0 -76 -11.5t-64 -30.5l-92 -434h-107l119 561h78zM65 -86h96l-109 -138h-76z" />
    <glyph glyph-name="Rcaron" unicode="&#x158;" horiz-adv-x="700" 
d="M669 604q0 -57 -21 -114t-65 -99q-23 -14 -59 -27t-70 -24v-3q18 -8 37 -21t28 -26q8 -12 18 -40t21 -67t23 -86t23 -97h-116q-27 126 -49 198.5t-45 91.5q-14 11 -46.5 15t-71.5 4h-70l-65 -309h-105l159 750h265q64 0 104.5 -10t62.5 -29q20 -16 31 -42.5t11 -64.5z
M468 418q21 10 38 27.5t28 40t17 48t6 50.5q0 39 -20 57q-23 24 -111 24h-144l-56 -265h122q45 0 74 5t46 13zM288 946h74l72 -79l108 79h82l-157 -130h-78z" />
    <glyph glyph-name="rcaron" unicode="&#x159;" horiz-adv-x="444" 
d="M230 561l7 -80h7l54 60q23 13 53 21.5t69 8.5q18 0 33 -1t29 -3l-18 -105q-14 4 -36.5 9t-55.5 5q-42 0 -76 -11.5t-64 -30.5l-92 -434h-107l119 561h78zM174 757h74l72 -79l108 79h82l-157 -130h-78z" />
    <glyph glyph-name="Sacute" unicode="&#x15a;" horiz-adv-x="635" 
d="M546 230q-1 -28 -6.5 -55.5t-16.5 -53t-27.5 -47.5t-38.5 -38q-37 -26 -91.5 -37t-123.5 -11q-35 0 -70 3t-67 7.5t-58.5 10.5t-44.5 12l14 89q36 -8 94 -18t129 -10q60 0 96 7.5t54 21.5q22 17 33.5 46t13.5 60q1 38 -14 55q-13 12 -36 23t-51.5 22t-59.5 22t-59 24
t-51 28.5t-35 35.5q-11 17 -14.5 42t-2.5 50q2 53 22.5 104t65.5 86q32 25 86.5 39.5t133.5 14.5q74 0 129.5 -8t88.5 -15l-14 -89q-40 6 -94.5 12.5t-114.5 6.5t-95 -9t-53 -24q-21 -17 -32 -46.5t-13 -60.5q-2 -33 9 -48q8 -12 30 -24t51.5 -24t62.5 -24t63.5 -25.5
t54.5 -28t35 -31.5q9 -16 14 -39.5t3 -55.5zM495 952h124l-204 -139h-92z" />
    <glyph glyph-name="sacute" unicode="&#x15b;" horiz-adv-x="519" 
d="M431 183q0 -20 -4 -42t-13 -43t-22.5 -39.5t-32.5 -31.5q-28 -19 -70.5 -27t-103.5 -8q-51 0 -98 7t-77 15l5 82q30 -7 76.5 -14.5t95.5 -7.5q42 0 67 5t39 14q15 10 24.5 30.5t9.5 43.5q0 11 -2 19.5t-10 15.5q-12 12 -39 22.5t-58 21.5t-60 24t-45 31q-24 25 -24 72
q0 24 5 48t15 46.5t25 42t35 32.5q29 19 69 26t92 7q55 0 100 -7t70 -12l-15 -79q-30 5 -72.5 9.5t-86.5 4.5q-41 0 -65 -4.5t-39 -16.5q-14 -12 -22.5 -34.5t-8.5 -45.5q0 -10 2 -18t9 -16q14 -14 41.5 -24.5t58.5 -21t59 -21.5t42 -25q26 -28 28 -81zM393 763h124
l-204 -139h-92z" />
    <glyph glyph-name="Scircumflex" unicode="&#x15c;" horiz-adv-x="635" 
d="M546 230q-1 -28 -6.5 -55.5t-16.5 -53t-27.5 -47.5t-38.5 -38q-37 -26 -91.5 -37t-123.5 -11q-35 0 -70 3t-67 7.5t-58.5 10.5t-44.5 12l14 89q36 -8 94 -18t129 -10q60 0 96 7.5t54 21.5q22 17 33.5 46t13.5 60q1 38 -14 55q-13 12 -36 23t-51.5 22t-59.5 22t-59 24
t-51 28.5t-35 35.5q-11 17 -14.5 42t-2.5 50q2 53 22.5 104t65.5 86q32 25 86.5 39.5t133.5 14.5q74 0 129.5 -8t88.5 -15l-14 -89q-40 6 -94.5 12.5t-114.5 6.5t-95 -9t-53 -24q-21 -17 -32 -46.5t-13 -60.5q-2 -33 9 -48q8 -12 30 -24t51.5 -24t62.5 -24t63.5 -25.5
t54.5 -28t35 -31.5q9 -16 14 -39.5t3 -55.5zM576 816h-74l-72 80l-107 -80h-83l157 130h78z" />
    <glyph glyph-name="scircumflex" unicode="&#x15d;" horiz-adv-x="519" 
d="M431 183q0 -20 -4 -42t-13 -43t-22.5 -39.5t-32.5 -31.5q-28 -19 -70.5 -27t-103.5 -8q-51 0 -98 7t-77 15l5 82q30 -7 76.5 -14.5t95.5 -7.5q42 0 67 5t39 14q15 10 24.5 30.5t9.5 43.5q0 11 -2 19.5t-10 15.5q-12 12 -39 22.5t-58 21.5t-60 24t-45 31q-24 25 -24 72
q0 24 5 48t15 46.5t25 42t35 32.5q29 19 69 26t92 7q55 0 100 -7t70 -12l-15 -79q-30 5 -72.5 9.5t-86.5 4.5q-41 0 -65 -4.5t-39 -16.5q-14 -12 -22.5 -34.5t-8.5 -45.5q0 -10 2 -18t9 -16q14 -14 41.5 -24.5t58.5 -21t59 -21.5t42 -25q26 -28 28 -81zM493 627h-74l-72 80
l-107 -80h-83l157 130h78z" />
    <glyph glyph-name="Scedilla" unicode="&#x15e;" horiz-adv-x="635" 
d="M221 -11q-33 1 -65 4t-60.5 7.5t-53 9.5t-40.5 11l14 89q36 -8 94 -18t129 -10q60 0 96 7.5t54 21.5q22 17 33.5 46t13.5 60q1 38 -14 55q-13 12 -36 23t-51.5 22t-59.5 22t-59 24t-51 28.5t-35 35.5q-11 17 -14.5 42t-2.5 50q2 53 22.5 104t65.5 86q32 25 86.5 39.5
t133.5 14.5q74 0 129.5 -8t88.5 -15l-14 -89q-40 6 -94.5 12.5t-114.5 6.5t-95 -9t-53 -24q-21 -17 -32 -46.5t-13 -60.5q-2 -33 9 -48q8 -12 30 -24t51.5 -24t62.5 -24t63.5 -25.5t54.5 -28t35 -31.5q9 -16 14 -39.5t3 -55.5q-1 -28 -6.5 -55.5t-16.5 -53t-27.5 -47.5
t-38.5 -38q-34 -23 -82 -34.5t-108 -13.5l-16 -39q56 -2 77 -20q14 -14 14 -46q0 -31 -12 -55.5t-31 -36.5q-33 -23 -107 -23q-32 0 -57 4.5t-42 10.5l9 51q19 -5 41 -9t51 -4q27 0 41.5 2.5t20.5 7.5q8 5 13.5 17.5t5.5 26.5q0 13 -6 19q-5 5 -18 8t-41 3h-25z" />
    <glyph glyph-name="scedilla" unicode="&#x15f;" horiz-adv-x="519" 
d="M167 -8q-47 2 -88.5 8.5t-68.5 13.5l5 82q30 -7 76.5 -14.5t95.5 -7.5q42 0 67 5t39 14q15 10 24.5 30.5t9.5 43.5q0 11 -2 19.5t-10 15.5q-12 12 -39 22.5t-58 21.5t-60 24t-45 31q-24 25 -24 72q0 24 5 48t15 46.5t25 42t35 32.5q29 19 69 26t92 7q55 0 100 -7t70 -12
l-15 -79q-30 5 -72.5 9.5t-86.5 4.5q-41 0 -65 -4.5t-39 -16.5q-14 -12 -22.5 -34.5t-8.5 -45.5q0 -10 2 -18t9 -16q14 -14 41.5 -24.5t58.5 -21t59 -21.5t42 -25q26 -28 28 -81q0 -20 -4 -42t-13 -43t-22.5 -39.5t-32.5 -31.5q-25 -17 -60.5 -24.5t-84.5 -9.5l-18 -44
q56 -2 77 -20q14 -14 14 -46q0 -31 -12 -55.5t-31 -36.5q-33 -23 -107 -23q-32 0 -57 4.5t-42 10.5l9 51q19 -5 41 -9t51 -4q27 0 41.5 2.5t20.5 7.5q8 5 13.5 17.5t5.5 26.5q0 13 -6 19q-5 5 -18 8t-41 3h-25z" />
    <glyph glyph-name="Scaron" unicode="&#x160;" horiz-adv-x="635" 
d="M546 230q-1 -28 -6.5 -55.5t-16.5 -53t-27.5 -47.5t-38.5 -38q-37 -26 -91.5 -37t-123.5 -11q-35 0 -70 3t-67 7.5t-58.5 10.5t-44.5 12l14 89q36 -8 94 -18t129 -10q60 0 96 7.5t54 21.5q22 17 33.5 46t13.5 60q1 38 -14 55q-13 12 -36 23t-51.5 22t-59.5 22t-59 24
t-51 28.5t-35 35.5q-11 17 -14.5 42t-2.5 50q2 53 22.5 104t65.5 86q32 25 86.5 39.5t133.5 14.5q74 0 129.5 -8t88.5 -15l-14 -89q-40 6 -94.5 12.5t-114.5 6.5t-95 -9t-53 -24q-21 -17 -32 -46.5t-13 -60.5q-2 -33 9 -48q8 -12 30 -24t51.5 -24t62.5 -24t63.5 -25.5
t54.5 -28t35 -31.5q9 -16 14 -39.5t3 -55.5zM285 946h74l72 -79l108 79h82l-157 -130h-78z" />
    <glyph glyph-name="scaron" unicode="&#x161;" horiz-adv-x="519" 
d="M431 183q0 -20 -4 -42t-13 -43t-22.5 -39.5t-32.5 -31.5q-28 -19 -70.5 -27t-103.5 -8q-51 0 -98 7t-77 15l5 82q30 -7 76.5 -14.5t95.5 -7.5q42 0 67 5t39 14q15 10 24.5 30.5t9.5 43.5q0 11 -2 19.5t-10 15.5q-12 12 -39 22.5t-58 21.5t-60 24t-45 31q-24 25 -24 72
q0 24 5 48t15 46.5t25 42t35 32.5q29 19 69 26t92 7q55 0 100 -7t70 -12l-15 -79q-30 5 -72.5 9.5t-86.5 4.5q-41 0 -65 -4.5t-39 -16.5q-14 -12 -22.5 -34.5t-8.5 -45.5q0 -10 2 -18t9 -16q14 -14 41.5 -24.5t58.5 -21t59 -21.5t42 -25q26 -28 28 -81zM189 757h74l72 -79
l108 79h82l-157 -130h-78z" />
    <glyph glyph-name="uni0162" unicode="&#x162;" horiz-adv-x="646" 
d="M677 656h-237l-139 -656h-107l139 656h-246l39 94h587zM192 -86h96l-109 -138h-76z" />
    <glyph glyph-name="uni0163" unicode="&#x163;" horiz-adv-x="446" 
d="M443 480h-181l-63 -297q-8 -35 -8 -54q0 -29 17.5 -39t52.5 -10q29 0 61.5 4.5t50.5 7.5l-22 -82q-27 -6 -59 -12.5t-77 -6.5q-72 0 -104 26.5t-32 81.5q0 17 2.5 35.5t6.5 38.5l66 307h-94l20 81h91l22 105l113 21l-27 -126h196zM146 -86h96l-109 -138h-76z" />
    <glyph glyph-name="Tcaron" unicode="&#x164;" horiz-adv-x="646" 
d="M677 656h-237l-139 -656h-107l139 656h-246l39 94h587zM270 946h74l72 -79l108 79h82l-157 -130h-78z" />
    <glyph glyph-name="tcaron" unicode="&#x165;" horiz-adv-x="446" 
d="M443 480h-181l-63 -297q-8 -35 -8 -54q0 -29 17.5 -39t52.5 -10q29 0 61.5 4.5t50.5 7.5l-22 -82q-27 -6 -59 -12.5t-77 -6.5q-72 0 -104 26.5t-32 81.5q0 17 2.5 35.5t6.5 38.5l66 307h-94l20 81h91l22 105l113 21l-27 -126h196zM480 880h84l-105 -237h-71z" />
    <glyph glyph-name="Tbar" unicode="&#x166;" horiz-adv-x="633" 
d="M90 380h174l58 275h-246l38 95h588l-37 -95h-236l-58 -275h185l-16 -72h-185l-66 -308h-106l65 308h-175z" />
    <glyph glyph-name="tbar" unicode="&#x167;" horiz-adv-x="446" 
d="M32 331h90l32 149h-94l20 81h91l22 105l113 21l-27 -126h196l-32 -81h-181l-32 -149h188l-17 -71h-186l-16 -77q-8 -35 -8 -54q0 -29 17.5 -39t52.5 -10q29 0 61.5 4.5t50.5 7.5l-22 -82q-27 -6 -59 -12.5t-77 -6.5q-72 0 -104 26.5t-32 81.5q0 17 2.5 35.5t6.5 38.5
l18 87h-91z" />
    <glyph glyph-name="Utilde" unicode="&#x168;" horiz-adv-x="782" 
d="M776 750l-99 -465q-10 -47 -21.5 -83t-25 -64t-30 -49.5t-35.5 -37.5q-32 -26 -89.5 -45t-141.5 -19q-58 0 -98 8t-67 20.5t-43.5 28t-25.5 30.5q-11 17 -18 40.5t-7 56.5q0 26 4 57.5t14 76.5l94 445h106l-94 -442q-10 -42 -13.5 -70t-3.5 -50q0 -35 13 -54
q13 -20 48 -35t98 -15q60 0 97.5 11.5t60.5 31.5q11 9 21 22t19 32.5t17.5 47t16.5 66.5l97 455h106zM315 828q12 48 39.5 76.5t72.5 28.5q24 0 42 -9t32.5 -19.5t28 -19.5t29.5 -9q19 0 31.5 11.5t21.5 39.5h53q-13 -55 -42 -81t-70 -26q-25 0 -42.5 9t-32.5 20t-28 20
t-29 9q-37 0 -53 -50h-53z" />
    <glyph glyph-name="utilde" unicode="&#x169;" horiz-adv-x="669" 
d="M257 561l-71 -334q-5 -23 -7.5 -42.5t-2.5 -33.5q0 -31 11 -45q12 -14 34.5 -19.5t50.5 -5.5q48 0 87.5 10.5t71.5 24.5l95 445h107l-119 -561h-84l-3 83h-7l-59 -60q-21 -11 -59 -21t-90 -10q-45 0 -77 11.5t-49 34.5q-11 15 -17 34.5t-6 46.5q0 22 4 48.5t11 59.5
l71 334h108zM233 639q12 48 39.5 76.5t72.5 28.5q24 0 42 -9t32.5 -19.5t28 -19.5t29.5 -9q19 0 31.5 11.5t21.5 39.5h53q-13 -55 -42 -81t-70 -26q-25 0 -42.5 9t-32.5 20t-28 20t-29 9q-37 0 -53 -50h-53z" />
    <glyph glyph-name="Umacron" unicode="&#x16a;" horiz-adv-x="782" 
d="M776 750l-99 -465q-10 -47 -21.5 -83t-25 -64t-30 -49.5t-35.5 -37.5q-32 -26 -89.5 -45t-141.5 -19q-58 0 -98 8t-67 20.5t-43.5 28t-25.5 30.5q-11 17 -18 40.5t-7 56.5q0 26 4 57.5t14 76.5l94 445h106l-94 -442q-10 -42 -13.5 -70t-3.5 -50q0 -35 13 -54
q13 -20 48 -35t98 -15q60 0 97.5 11.5t60.5 31.5q11 9 21 22t19 32.5t17.5 47t16.5 66.5l97 455h106zM364 898h284l-15 -66h-284z" />
    <glyph glyph-name="umacron" unicode="&#x16b;" horiz-adv-x="669" 
d="M257 561l-71 -334q-5 -23 -7.5 -42.5t-2.5 -33.5q0 -31 11 -45q12 -14 34.5 -19.5t50.5 -5.5q48 0 87.5 10.5t71.5 24.5l95 445h107l-119 -561h-84l-3 83h-7l-59 -60q-21 -11 -59 -21t-90 -10q-45 0 -77 11.5t-49 34.5q-11 15 -17 34.5t-6 46.5q0 22 4 48.5t11 59.5
l71 334h108zM277 709h284l-15 -66h-284z" />
    <glyph glyph-name="Ubreve" unicode="&#x16c;" horiz-adv-x="782" 
d="M776 750l-99 -465q-10 -47 -21.5 -83t-25 -64t-30 -49.5t-35.5 -37.5q-32 -26 -89.5 -45t-141.5 -19q-58 0 -98 8t-67 20.5t-43.5 28t-25.5 30.5q-11 17 -18 40.5t-7 56.5q0 26 4 57.5t14 76.5l94 445h106l-94 -442q-10 -42 -13.5 -70t-3.5 -50q0 -35 13 -54
q13 -20 48 -35t98 -15q60 0 97.5 11.5t60.5 31.5q11 9 21 22t19 32.5t17.5 47t16.5 66.5l97 455h106zM415 949q-2 -7 -3 -14.5t-1 -12.5q0 -53 79 -53q51 0 74.5 20.5t29.5 59.5h59q-3 -27 -13.5 -51t-30 -42t-50 -28.5t-73.5 -10.5q-61 0 -96.5 24t-35.5 73q0 7 1 17t3 18
h57z" />
    <glyph glyph-name="ubreve" unicode="&#x16d;" horiz-adv-x="669" 
d="M257 561l-71 -334q-5 -23 -7.5 -42.5t-2.5 -33.5q0 -31 11 -45q12 -14 34.5 -19.5t50.5 -5.5q48 0 87.5 10.5t71.5 24.5l95 445h107l-119 -561h-84l-3 83h-7l-59 -60q-21 -11 -59 -21t-90 -10q-45 0 -77 11.5t-49 34.5q-11 15 -17 34.5t-6 46.5q0 22 4 48.5t11 59.5
l71 334h108zM330 760q-2 -7 -3 -14.5t-1 -12.5q0 -53 79 -53q51 0 74.5 20.5t29.5 59.5h59q-3 -27 -13.5 -51t-30 -42t-50 -28.5t-73.5 -10.5q-61 0 -96.5 24t-35.5 73q0 7 1 17t3 18h57z" />
    <glyph glyph-name="Uring" unicode="&#x16e;" horiz-adv-x="782" 
d="M776 750l-99 -465q-10 -47 -21.5 -83t-25 -64t-30 -49.5t-35.5 -37.5q-32 -26 -89.5 -45t-141.5 -19q-58 0 -98 8t-67 20.5t-43.5 28t-25.5 30.5q-11 17 -18 40.5t-7 56.5q0 26 4 57.5t14 76.5l94 445h106l-94 -442q-10 -42 -13.5 -70t-3.5 -50q0 -35 13 -54
q13 -20 48 -35t98 -15q60 0 97.5 11.5t60.5 31.5q11 9 21 22t19 32.5t17.5 47t16.5 66.5l97 455h106zM486 806q-42 0 -62 18t-20 50q0 20 7 47.5t27 44.5q28 25 80 25q46 0 64.5 -18.5t18.5 -47.5q0 -20 -8 -48t-28 -46q-14 -11 -33 -18t-46 -7zM492 847q14 0 25.5 3.5
t18.5 12.5q8 11 12.5 27t4.5 31q0 14 -8.5 21.5t-31.5 7.5q-31 0 -45 -15q-8 -11 -12.5 -25.5t-4.5 -31.5q0 -15 8.5 -23t32.5 -8z" />
    <glyph glyph-name="uring" unicode="&#x16f;" horiz-adv-x="669" 
d="M257 561l-71 -334q-5 -23 -7.5 -42.5t-2.5 -33.5q0 -31 11 -45q12 -14 34.5 -19.5t50.5 -5.5q48 0 87.5 10.5t71.5 24.5l95 445h107l-119 -561h-84l-3 83h-7l-59 -60q-21 -11 -59 -21t-90 -10q-45 0 -77 11.5t-49 34.5q-11 15 -17 34.5t-6 46.5q0 22 4 48.5t11 59.5
l71 334h108zM396 616q-42 0 -62 18t-20 50q0 20 7 47.5t27 44.5q28 25 80 25q46 0 64.5 -18.5t18.5 -47.5q0 -20 -8 -48t-28 -46q-14 -11 -33 -18t-46 -7zM402 657q14 0 25.5 3.5t18.5 12.5q8 11 12.5 27t4.5 31q0 14 -8.5 21.5t-31.5 7.5q-31 0 -45 -15q-8 -11 -12.5 -25.5
t-4.5 -31.5q0 -15 8.5 -23t32.5 -8z" />
    <glyph glyph-name="Uhungarumlaut" unicode="&#x170;" horiz-adv-x="782" 
d="M776 750l-99 -465q-10 -47 -21.5 -83t-25 -64t-30 -49.5t-35.5 -37.5q-32 -26 -89.5 -45t-141.5 -19q-58 0 -98 8t-67 20.5t-43.5 28t-25.5 30.5q-11 17 -18 40.5t-7 56.5q0 26 4 57.5t14 76.5l94 445h106l-94 -442q-10 -42 -13.5 -70t-3.5 -50q0 -35 13 -54
q13 -20 48 -35t98 -15q60 0 97.5 11.5t60.5 31.5q11 9 21 22t19 32.5t17.5 47t16.5 66.5l97 455h106zM464 946h105l-158 -132h-77zM645 946h105l-158 -132h-77z" />
    <glyph glyph-name="uhungarumlaut" unicode="&#x171;" horiz-adv-x="669" 
d="M257 561l-71 -334q-5 -23 -7.5 -42.5t-2.5 -33.5q0 -31 11 -45q12 -14 34.5 -19.5t50.5 -5.5q48 0 87.5 10.5t71.5 24.5l95 445h107l-119 -561h-84l-3 83h-7l-59 -60q-21 -11 -59 -21t-90 -10q-45 0 -77 11.5t-49 34.5q-11 15 -17 34.5t-6 46.5q0 22 4 48.5t11 59.5
l71 334h108zM385 757h105l-158 -132h-77zM566 757h105l-158 -132h-77z" />
    <glyph glyph-name="Uogonek" unicode="&#x172;" horiz-adv-x="782" 
d="M394 -224q-38 0 -57 6t-28 15q-16 14 -16 49q0 28 7.5 48t21.5 35q11 11 37 29t59 35q-38 -6 -84 -6q-58 0 -98 8t-67 20.5t-43.5 28t-25.5 30.5q-11 17 -18 40.5t-7 56.5q0 26 4 57.5t14 76.5l94 445h106l-94 -442q-10 -42 -13.5 -70t-3.5 -50q0 -35 13 -54
q13 -20 48 -35t98 -15q60 0 97.5 11.5t60.5 31.5q11 9 21 22t19 32.5t17.5 47t16.5 66.5l97 455h106l-99 -465q-10 -47 -21.5 -83.5t-25 -64.5t-30 -49t-35.5 -37q-30 -25 -58 -43t-66 -41q-29 -19 -48 -34.5t-26 -24.5q-5 -7 -9.5 -18.5t-4.5 -26.5q0 -17 6 -24
q12 -10 48 -10q26 0 45.5 2t33.5 4l-8 -49q-11 -3 -34.5 -6.5t-49.5 -3.5z" />
    <glyph glyph-name="uogonek" unicode="&#x173;" horiz-adv-x="669" 
d="M427 83h-7l-59 -60q-21 -11 -59 -21t-90 -10q-45 0 -77 11.5t-49 34.5q-11 15 -17 34.5t-6 46.5q0 22 4 48.5t11 59.5l71 334h108l-71 -334q-5 -23 -7.5 -42.5t-2.5 -33.5q0 -31 11 -45q12 -14 34.5 -19.5t50.5 -5.5q48 0 87.5 10.5t71.5 24.5l95 445h107l-119 -561h-19
l-55 -34q-29 -18 -50.5 -34t-27.5 -24q-5 -6 -9 -18.5t-4 -26.5q0 -8 1 -14t5 -10q10 -10 47 -10q26 0 45.5 2t33.5 4l-8 -49q-11 -3 -34 -6.5t-49 -3.5q-39 0 -58 6t-28 15q-7 7 -11 18t-4 30q0 29 7.5 49t21.5 35q12 13 43 33t69 40z" />
    <glyph glyph-name="Wcircumflex" unicode="&#x174;" horiz-adv-x="1126" 
d="M828 0h-169l-21 646h-14l-318 -646h-168l-12 750h108l3 -646h20l316 646h160l21 -646h21l293 646h115zM819 816h-74l-72 80l-107 -80h-83l157 130h78z" />
    <glyph glyph-name="wcircumflex" unicode="&#x175;" horiz-adv-x="950" 
d="M690 0h-153l-30 464h-14l-234 -464h-156l-17 561h101l9 -464h18l233 464h151l27 -464h17l216 464h113zM690 627h-74l-72 80l-107 -80h-83l157 130h78z" />
    <glyph glyph-name="Ycircumflex" unicode="&#x176;" horiz-adv-x="693" 
d="M319 0h-105l55 262l-160 488h111l117 -376h10l283 376h130l-385 -488zM586 816h-74l-72 80l-107 -80h-83l157 130h78z" />
    <glyph glyph-name="ycircumflex" unicode="&#x177;" horiz-adv-x="596" 
d="M147 -275h-112l162 275h-54l-77 561h109l54 -464h23l260 464h119zM514 627h-74l-72 80l-107 -80h-83l157 130h78z" />
    <glyph glyph-name="Ydieresis" unicode="&#x178;" horiz-adv-x="693" 
d="M319 0h-105l55 262l-160 488h111l117 -376h10l283 376h130l-385 -488zM318 826q-27 0 -38 11q-5 6 -5 21q0 14 6 29t18 23q5 3 14.5 5.5t23.5 2.5q26 0 35 -9q7 -7 7 -20q0 -15 -5.5 -30.5t-17.5 -23.5q-5 -4 -15.5 -6.5t-22.5 -2.5zM512 826q-28 0 -37 11q-6 7 -6 20
q0 15 6.5 30t18.5 23q5 3 14.5 5.5t23.5 2.5q26 0 35 -9q4 -4 5 -9.5t1 -10.5q0 -15 -5 -30.5t-16 -23.5q-14 -9 -40 -9z" />
    <glyph glyph-name="Zacute" unicode="&#x179;" horiz-adv-x="688" 
d="M696 638l-565 -534l-3 -12h474l-39 -92h-583l24 112l560 533l3 13h-416l38 92h531zM518 952h124l-204 -139h-92z" />
    <glyph glyph-name="zacute" unicode="&#x17a;" horiz-adv-x="544" 
d="M531 453l-394 -352l-3 -14h346l-41 -87h-455l19 97l403 364l3 13h-310l41 87h413zM431 763h124l-204 -139h-92z" />
    <glyph glyph-name="Zdotaccent" unicode="&#x17b;" horiz-adv-x="688" 
d="M696 638l-565 -534l-3 -12h474l-39 -92h-583l24 112l560 533l3 13h-416l38 92h531zM447 825q-32 0 -42 13q-6 9 -6 25q0 20 6.5 38t19.5 27q14 10 44 10q32 0 41 -12q8 -9 8 -28t-6 -36.5t-17 -26.5q-8 -5 -21 -7.5t-27 -2.5z" />
    <glyph glyph-name="zdotaccent" unicode="&#x17c;" horiz-adv-x="544" 
d="M531 453l-394 -352l-3 -14h346l-41 -87h-455l19 97l403 364l3 13h-310l41 87h413zM349 636q-32 0 -42 13q-6 9 -6 25q0 20 6.5 38t19.5 27q14 10 44 10q32 0 41 -12q8 -9 8 -28t-6 -36.5t-17 -26.5q-8 -5 -21 -7.5t-27 -2.5z" />
    <glyph glyph-name="Zcaron" unicode="&#x17d;" horiz-adv-x="688" 
d="M696 638l-565 -534l-3 -12h474l-39 -92h-583l24 112l560 533l3 13h-416l38 92h531zM300 946h74l72 -79l108 79h82l-157 -130h-78z" />
    <glyph glyph-name="zcaron" unicode="&#x17e;" horiz-adv-x="544" 
d="M531 453l-394 -352l-3 -14h346l-41 -87h-455l19 97l403 364l3 13h-310l41 87h413zM207 757h74l72 -79l108 79h82l-157 -130h-78z" />
    <glyph glyph-name="florin" unicode="&#x192;" horiz-adv-x="660" 
d="M414 440h160l-28 -81h-157l-79 -266q-17 -58 -37 -97t-46.5 -62.5t-62.5 -33.5t-86 -10q-43 0 -75 4t-47 6l17 76q15 -2 37.5 -4.5t52.5 -2.5q33 0 55 7t37.5 22.5t26 39.5t20.5 57l80 264h-153l25 81h151l35 117q18 60 38 99t47 62.5t62.5 32.5t84.5 9q43 0 75.5 -4.5
t46.5 -6.5l-16 -76q-17 2 -39.5 4.5t-51.5 2.5q-32 0 -53.5 -6.5t-37 -21.5t-27 -39t-21.5 -58z" />
    <glyph glyph-name="Scommaaccent" unicode="&#x218;" horiz-adv-x="635" 
d="M546 230q-1 -28 -6.5 -55.5t-16.5 -53t-27.5 -47.5t-38.5 -38q-37 -26 -91.5 -37t-123.5 -11q-35 0 -70 3t-67 7.5t-58.5 10.5t-44.5 12l14 89q36 -8 94 -18t129 -10q60 0 96 7.5t54 21.5q22 17 33.5 46t13.5 60q1 38 -14 55q-13 12 -36 23t-51.5 22t-59.5 22t-59 24
t-51 28.5t-35 35.5q-11 17 -14.5 42t-2.5 50q2 53 22.5 104t65.5 86q32 25 86.5 39.5t133.5 14.5q74 0 129.5 -8t88.5 -15l-14 -89q-40 6 -94.5 12.5t-114.5 6.5t-95 -9t-53 -24q-21 -17 -32 -46.5t-13 -60.5q-2 -33 9 -48q8 -12 30 -24t51.5 -24t62.5 -24t63.5 -25.5
t54.5 -28t35 -31.5q9 -16 14 -39.5t3 -55.5zM209 -86h96l-109 -138h-76z" />
    <glyph glyph-name="scommaaccent" unicode="&#x219;" horiz-adv-x="519" 
d="M431 183q0 -20 -4 -42t-13 -43t-22.5 -39.5t-32.5 -31.5q-28 -19 -70.5 -27t-103.5 -8q-51 0 -98 7t-77 15l5 82q30 -7 76.5 -14.5t95.5 -7.5q42 0 67 5t39 14q15 10 24.5 30.5t9.5 43.5q0 11 -2 19.5t-10 15.5q-12 12 -39 22.5t-58 21.5t-60 24t-45 31q-24 25 -24 72
q0 24 5 48t15 46.5t25 42t35 32.5q29 19 69 26t92 7q55 0 100 -7t70 -12l-15 -79q-30 5 -72.5 9.5t-86.5 4.5q-41 0 -65 -4.5t-39 -16.5q-14 -12 -22.5 -34.5t-8.5 -45.5q0 -10 2 -18t9 -16q14 -14 41.5 -24.5t58.5 -21t59 -21.5t42 -25q26 -28 28 -81zM157 -85h96
l-109 -138h-76z" />
    <glyph glyph-name="uni021A" unicode="&#x21a;" horiz-adv-x="646" 
d="M677 656h-237l-139 -656h-107l139 656h-246l39 94h587zM193 -86h96l-109 -138h-76z" />
    <glyph glyph-name="uni021B" unicode="&#x21b;" horiz-adv-x="446" 
d="M443 480h-181l-63 -297q-8 -35 -8 -54q0 -29 17.5 -39t52.5 -10q29 0 61.5 4.5t50.5 7.5l-22 -82q-27 -6 -59 -12.5t-77 -6.5q-72 0 -104 26.5t-32 81.5q0 17 2.5 35.5t6.5 38.5l66 307h-94l20 81h91l22 105l113 21l-27 -126h196zM146 -86h96l-109 -138h-76z" />
    <glyph glyph-name="dotlessj" unicode="&#x237;" horiz-adv-x="291" 
d="M124 -81q-10 -47 -27 -83.5t-43.5 -61t-64 -37t-88.5 -12.5q-34 0 -62 4l-42 6l3 77q14 -2 39 -4t52 -2q29 0 49.5 6.5t35.5 20.5t25 36t17 54l134 638h108z" />
    <glyph glyph-name="circumflex" unicode="&#x2c6;" horiz-adv-x="370" 
d="M417 627h-74l-72 80l-107 -80h-83l157 130h78z" />
    <glyph glyph-name="caron" unicode="&#x2c7;" horiz-adv-x="370" 
d="M111 757h74l72 -79l108 79h82l-157 -130h-78z" />
    <glyph glyph-name="uni02C9" unicode="&#x2c9;" horiz-adv-x="370" 
d="M123 709h284l-15 -66h-284z" />
    <glyph glyph-name="breve" unicode="&#x2d8;" horiz-adv-x="408" 
d="M176 760q-2 -7 -3 -14.5t-1 -12.5q0 -53 79 -53q51 0 74.5 20.5t29.5 59.5h59q-3 -27 -13.5 -51t-30 -42t-50 -28.5t-73.5 -10.5q-61 0 -96.5 24t-35.5 73q0 7 1 17t3 18h57z" />
    <glyph glyph-name="dotaccent" unicode="&#x2d9;" horiz-adv-x="371" 
d="M248 636q-32 0 -42 13q-6 9 -6 25q0 20 6.5 38t19.5 27q14 10 44 10q32 0 41 -12q8 -9 8 -28t-6 -36.5t-17 -26.5q-8 -5 -21 -7.5t-27 -2.5z" />
    <glyph glyph-name="ring" unicode="&#x2da;" horiz-adv-x="370" 
d="M258 616q-42 0 -62 18t-20 50q0 20 7 47.5t27 44.5q28 25 80 25q46 0 64.5 -18.5t18.5 -47.5q0 -20 -8 -48t-28 -46q-14 -11 -33 -18t-46 -7zM264 657q14 0 25.5 3.5t18.5 12.5q8 11 12.5 27t4.5 31q0 14 -8.5 21.5t-31.5 7.5q-31 0 -45 -15q-8 -11 -12.5 -25.5
t-4.5 -31.5q0 -15 8.5 -23t32.5 -8z" />
    <glyph glyph-name="ogonek" unicode="&#x2db;" horiz-adv-x="321" 
d="M150 -37q-29 -18 -49 -32.5t-26 -22.5q-6 -6 -10 -18t-4 -27q0 -8 1 -14t5 -10q5 -5 16.5 -7.5t31.5 -2.5q25 0 44.5 2t33.5 4l-7 -49q-11 -3 -34.5 -6.5t-49.5 -3.5q-39 0 -58 6t-27 15q-16 14 -16 49q0 28 7.5 48t21.5 35q12 14 43 33t68 38h71z" />
    <glyph glyph-name="tilde" unicode="&#x2dc;" horiz-adv-x="370" 
d="M83 639q12 48 39.5 76.5t72.5 28.5q24 0 42 -9t32.5 -19.5t28 -19.5t29.5 -9q19 0 31.5 11.5t21.5 39.5h53q-13 -55 -42 -81t-70 -26q-25 0 -42.5 9t-32.5 20t-28 20t-29 9q-37 0 -53 -50h-53z" />
    <glyph glyph-name="hungarumlaut" unicode="&#x2dd;" horiz-adv-x="483" 
d="M244 757h105l-158 -132h-77zM425 757h105l-158 -132h-77z" />
    <glyph glyph-name="uni0394" unicode="&#x394;" horiz-adv-x="745" 
d="M382 750h173l88 -675l-15 -75h-652l14 75zM127 99h399l-64 547h-27z" />
    <glyph glyph-name="uni03A9" unicode="&#x3a9;" horiz-adv-x="814" 
d="M680 0h-313l37 177q44 5 84 15t71 33q33 24 62 74.5t45 126.5q12 58 11.5 109.5t-27.5 82.5q-20 22 -59 33.5t-102 11.5t-106 -11t-73 -32q-33 -24 -64 -74.5t-46 -122.5q-13 -60 -12 -109t24 -80q10 -13 25 -23t32.5 -17t36 -11.5t35.5 -6.5l-37 -176h-312l41 96h208
l4 18q-31 8 -62.5 23t-54.5 39q-38 39 -44.5 111t13.5 158q20 83 58.5 149t94.5 104q46 32 106.5 47t142.5 15q100 0 159 -22t88 -54q38 -43 42 -114t-16 -162q-41 -179 -149 -247q-32 -20 -72 -30.5t-78 -17.5l-3 -17h249z" />
    <glyph glyph-name="uni03BC" unicode="&#x3bc;" horiz-adv-x="669" 
d="M232 -7q-70 0 -94 45l-67 -310h-108l179 833h108l-74 -346q-4 -18 -5.5 -33.5t-1.5 -27.5q0 -31 15 -49q12 -14 34 -19.5t45 -5.5q53 0 93.5 14t80.5 33l92 434h109l-121 -561h-80l-4 86h-5l-48 -56q-10 -6 -25.5 -12.5t-35 -12t-42 -9t-45.5 -3.5z" />
    <glyph glyph-name="pi" unicode="&#x3c0;" horiz-adv-x="688" 
d="M190 480h-127l31 81h619l-33 -81h-121l-58 -279q-5 -25 -8.5 -44t-3.5 -32q0 -45 47 -45q23 0 39.5 2.5t27.5 5.5l-20 -82q-18 -6 -41.5 -10t-49.5 -4q-55 0 -84.5 24.5t-29.5 78.5q0 22 4.5 47.5t9.5 51.5l61 286h-162l-142 -480h-105z" />
    <glyph glyph-name="Wgrave" unicode="&#x1e80;" horiz-adv-x="1126" 
d="M828 0h-169l-21 646h-14l-318 -646h-168l-12 750h108l3 -646h20l316 646h160l21 -646h21l293 646h115zM598 952l133 -138h-85l-162 138h114z" />
    <glyph glyph-name="wgrave" unicode="&#x1e81;" horiz-adv-x="950" 
d="M690 0h-153l-30 464h-14l-234 -464h-156l-17 561h101l9 -464h18l233 464h151l27 -464h17l216 464h113zM467 763l133 -138h-85l-162 138h114z" />
    <glyph glyph-name="Wacute" unicode="&#x1e82;" horiz-adv-x="1126" 
d="M828 0h-169l-21 646h-14l-318 -646h-168l-12 750h108l3 -646h20l316 646h160l21 -646h21l293 646h115zM754 952h124l-204 -139h-92z" />
    <glyph glyph-name="wacute" unicode="&#x1e83;" horiz-adv-x="950" 
d="M690 0h-153l-30 464h-14l-234 -464h-156l-17 561h101l9 -464h18l233 464h151l27 -464h17l216 464h113zM626 763h124l-204 -139h-92z" />
    <glyph glyph-name="Wdieresis" unicode="&#x1e84;" horiz-adv-x="1126" 
d="M828 0h-169l-21 646h-14l-318 -646h-168l-12 750h108l3 -646h20l316 646h160l21 -646h21l293 646h115zM562 826q-27 0 -38 11q-5 6 -5 21q0 14 6 29t18 23q5 3 14.5 5.5t23.5 2.5q26 0 35 -9q7 -7 7 -20q0 -15 -5.5 -30.5t-17.5 -23.5q-5 -4 -15.5 -6.5t-22.5 -2.5z
M756 826q-28 0 -37 11q-6 7 -6 20q0 15 6.5 30t18.5 23q5 3 14.5 5.5t23.5 2.5q26 0 35 -9q4 -4 5 -9.5t1 -10.5q0 -15 -5 -30.5t-16 -23.5q-14 -9 -40 -9z" />
    <glyph glyph-name="wdieresis" unicode="&#x1e85;" horiz-adv-x="950" 
d="M690 0h-153l-30 464h-14l-234 -464h-156l-17 561h101l9 -464h18l233 464h151l27 -464h17l216 464h113zM439 637q-27 0 -38 11q-5 6 -5 21q0 14 6 29t18 23q5 3 14.5 5.5t23.5 2.5q26 0 35 -9q7 -7 7 -20q0 -15 -5.5 -30.5t-17.5 -23.5q-5 -4 -15.5 -6.5t-22.5 -2.5z
M633 637q-28 0 -37 11q-6 7 -6 20q0 15 6.5 30t18.5 23q5 3 14.5 5.5t23.5 2.5q26 0 35 -9q4 -4 5 -9.5t1 -10.5q0 -15 -5 -30.5t-16 -23.5q-14 -9 -40 -9z" />
    <glyph glyph-name="Ygrave" unicode="&#x1ef2;" horiz-adv-x="693" 
d="M319 0h-105l55 262l-160 488h111l117 -376h10l283 376h130l-385 -488zM350 952l133 -138h-85l-162 138h114z" />
    <glyph glyph-name="ygrave" unicode="&#x1ef3;" horiz-adv-x="596" 
d="M147 -275h-112l162 275h-54l-77 561h109l54 -464h23l260 464h119zM270 763l133 -138h-85l-162 138h114z" />
    <glyph glyph-name="endash" unicode="&#x2013;" horiz-adv-x="612" 
d="M529 263h-469l21 98h469z" />
    <glyph glyph-name="emdash" unicode="&#x2014;" horiz-adv-x="819" 
d="M737 263h-677l21 98h677z" />
    <glyph glyph-name="quoteleft" unicode="&#x2018;" horiz-adv-x="321" 
d="M206 494h-123l160 256h100z" />
    <glyph glyph-name="quoteright" unicode="&#x2019;" horiz-adv-x="321" 
d="M238 750h123l-160 -256h-100z" />
    <glyph glyph-name="quotesinglbase" unicode="&#x201a;" horiz-adv-x="321" 
d="M92 138h123l-160 -256h-99z" />
    <glyph glyph-name="quotedblleft" unicode="&#x201c;" horiz-adv-x="536" 
d="M422 494h-123l160 256h100zM205 494h-122l159 256h100z" />
    <glyph glyph-name="quotedblright" unicode="&#x201d;" horiz-adv-x="536" 
d="M454 750h123l-160 -256h-100zM237 750h123l-160 -256h-99z" />
    <glyph glyph-name="quotedblbase" unicode="&#x201e;" horiz-adv-x="536" 
d="M92 138h123l-160 -256h-100zM308 138h123l-159 -256h-100z" />
    <glyph glyph-name="dagger" unicode="&#x2020;" horiz-adv-x="599" 
d="M576 442h-195l-114 -532l-107 -20l118 552h-213l39 88h192l47 220h103l-47 -220h214z" />
    <glyph glyph-name="daggerdbl" unicode="&#x2021;" horiz-adv-x="599" 
d="M577 472h-195l-57 -266h215l-38 -88h-195l-45 -208l-107 -20l49 228h-213l39 88h193l57 266h-213l38 88h193l40 190h103l-41 -190h215z" />
    <glyph glyph-name="bullet" unicode="&#x2022;" horiz-adv-x="487" 
d="M126 311q0 25 9 46.5t25 37.5t37.5 25.5t46.5 9.5t46.5 -9.5t37.5 -25.5t25.5 -37.5t9.5 -46.5t-9.5 -46.5t-25.5 -37.5t-37.5 -25t-46.5 -9t-46.5 9t-37.5 25t-25 37.5t-9 46.5z" />
    <glyph glyph-name="ellipsis" unicode="&#x2026;" horiz-adv-x="901" 
d="M149 4q-16 -12 -54 -12q-40 0 -52 15q-8 10 -8 28q0 22 7.5 42t20.5 30q10 7 23.5 9.5t29.5 2.5q39 0 50 -14q9 -9 9 -30q0 -22 -7 -41.5t-19 -29.5zM446 4q-16 -12 -54 -12q-40 0 -52 15q-8 10 -8 28q0 22 7.5 42t20.5 30q10 7 23.5 9.5t29.5 2.5q39 0 50 -14
q9 -9 9 -30q0 -22 -7 -41.5t-19 -29.5zM745 4q-16 -12 -54 -12q-40 0 -52 15q-8 10 -8 28q0 22 7.5 42t20.5 30q10 7 23.5 9.5t29.5 2.5q39 0 50 -14q9 -9 9 -30q0 -22 -7 -41.5t-19 -29.5z" />
    <glyph glyph-name="perthousand" unicode="&#x2030;" horiz-adv-x="1440" 
d="M1400 291q0 -35 -7 -73t-19.5 -73.5t-31 -65.5t-42.5 -49q-26 -21 -59.5 -30t-78.5 -9t-77 14t-49 37q-23 29 -23 91q0 38 7 77t20 73.5t31 63t41 46.5q26 20 59 28.5t78 8.5q48 0 79 -12t46 -32q12 -15 19 -39t7 -56zM1248 80q13 11 25.5 34t22 51.5t15 60t5.5 59.5
q0 32 -11 48q-9 14 -26.5 20.5t-40.5 6.5t-41 -4.5t-34 -17.5q-14 -12 -26.5 -34.5t-21.5 -50.5t-14 -57.5t-5 -56.5q0 -34 9 -49q20 -29 68 -29q23 0 40.5 3.5t34.5 15.5zM717 750h82l-491 -750h-83zM452 618q0 -36 -7 -75t-20 -74.5t-31.5 -64.5t-40.5 -47
q-27 -21 -60 -30t-78 -9q-46 0 -78 14t-49 37q-10 14 -16.5 36t-6.5 54q0 38 7 76.5t20 73.5t31.5 63.5t41.5 46.5q26 21 58.5 29.5t77.5 8.5q48 0 79 -12t47 -32q25 -31 25 -95zM300 408q13 10 25.5 33t22 51.5t15 60t5.5 59.5q0 32 -11 48q-8 14 -26 20.5t-40 6.5
q-23 0 -41 -5t-34 -18q-14 -11 -26.5 -33.5t-21.5 -50t-14.5 -58t-5.5 -57.5q0 -32 10 -49q19 -28 68 -28q23 0 40.5 4t33.5 16zM959 291q0 -35 -7 -73t-19.5 -73.5t-31 -65.5t-41.5 -49q-27 -21 -60 -30t-78 -9q-46 0 -78 14t-49 37q-11 14 -17 36.5t-6 54.5q0 38 7 77
t20 73.5t31.5 63t41.5 46.5q26 20 58.5 28.5t77.5 8.5q48 0 79 -12t47 -32q25 -31 25 -95zM807 80q13 11 25.5 34t22 51.5t15 60t5.5 59.5q0 32 -11 48q-8 14 -25.5 20.5t-40.5 6.5t-41.5 -4.5t-33.5 -17.5q-15 -12 -27.5 -34.5t-21.5 -50.5t-14 -57.5t-5 -56.5
q0 -32 10 -49q18 -29 67 -29q23 0 41 3.5t34 15.5z" />
    <glyph glyph-name="guilsinglleft" unicode="&#x2039;" horiz-adv-x="317" 
d="M195 38l-169 210l14 68l259 211l-22 -105l-161 -132l-5 -24l105 -131z" />
    <glyph glyph-name="guilsinglright" unicode="&#x203a;" horiz-adv-x="317" 
d="M114 527l169 -210l-15 -68l-259 -211l22 105l161 132l6 24l-106 131z" />
    <glyph glyph-name="fraction" unicode="&#x2044;" horiz-adv-x="181" 
d="M396 750h75l-654 -750h-75z" />
    <glyph glyph-name="zero.superior" unicode="&#x2070;" 
d="M374 879q60 0 96.5 -15.5t53.5 -38.5q9 -14 15.5 -37t6.5 -57q0 -35 -6.5 -77.5t-20 -83.5t-34 -77.5t-48.5 -60.5q-29 -24 -67.5 -33.5t-86.5 -9.5q-60 0 -94.5 16t-51.5 40q-11 14 -17.5 39t-6.5 63q0 35 6.5 76t20 80.5t33.5 74t48 57.5t64.5 33.5t88.5 10.5zM293 459
q33 0 55.5 6.5t38.5 20.5t30 42.5t24.5 62.5t16.5 69.5t6 64.5q0 34 -11 51q-9 15 -32.5 23.5t-55.5 8.5q-28 0 -53 -6.5t-43 -22.5q-17 -16 -30.5 -43t-23.5 -59.5t-15.5 -66t-5.5 -62.5q0 -38 13 -57q21 -32 86 -32z" />
    <glyph glyph-name="four.superior" unicode="&#x2074;" 
d="M381 396h-75l26 121h-248l13 66l266 289h119l-61 -290h105l-33 -65h-86zM393 804h-13l-200 -218v-4h165z" />
    <glyph glyph-name="five.superior" unicode="&#x2075;" 
d="M471 527q-9 -36 -24.5 -62t-42 -42.5t-65.5 -24t-96 -7.5q-44 0 -81 4.5t-63 11.5l12 62q26 -5 61 -9.5t73 -4.5q37 0 62 4.5t41.5 13.5t25.5 23.5t14 34.5q2 10 4 19.5t2 20.5q0 27 -21.5 38.5t-78.5 11.5q-18 0 -37 -1t-37.5 -3t-35 -4t-29.5 -3l55 262h317l-19 -68
h-238l-26 -129q16 3 40.5 5.5t53.5 2.5q77 0 109.5 -23.5t32.5 -73.5q0 -13 -2.5 -29t-6.5 -30z" />
    <glyph glyph-name="six.superior" unicode="&#x2076;" 
d="M405 534q3 9 4 19t1 18q0 28 -19.5 41t-69.5 13q-32 0 -64 -5.5t-56 -13.5q-3 -17 -5 -32.5t-2 -31.5q0 -42 20 -65.5t70 -23.5q55 0 83 19.5t38 61.5zM518 819q-98 -1 -153.5 -16.5t-83.5 -39.5q-25 -21 -45 -54.5t-30 -74.5l44 34q20 7 47 12t62 5q74 0 105 -27.5
t31 -75.5q0 -12 -1.5 -25.5t-5.5 -27.5q-16 -69 -65 -104t-147 -35q-89 0 -127 39t-38 113q0 33 7 70t21.5 73t36.5 69t53 58q41 34 105.5 51.5t169.5 19.5z" />
    <glyph glyph-name="seven.superior" unicode="&#x2077;" 
d="M439 796l2 6h-276l29 70h350l-14 -74l-302 -402h-97z" />
    <glyph glyph-name="eight.superior" unicode="&#x2078;" 
d="M226 640l-42 26q-7 9 -13 25.5t-6 40.5q0 72 48 110t148 38q32 0 62 -5t53 -17t36.5 -33t13.5 -52q0 -34 -15.5 -64t-37.5 -47l-56 -20l48 -25q9 -11 16.5 -27.5t7.5 -42.5q0 -43 -16 -73t-44 -49t-66.5 -27.5t-83.5 -8.5q-32 0 -63.5 5.5t-56 18.5t-40 35.5t-15.5 56.5
q0 32 15 64t45 52zM352 818q-61 0 -84 -22t-23 -59q0 -33 36 -48t107 -28q24 18 41 42.5t17 54.5q0 33 -27 46.5t-67 13.5zM255 622q-29 -18 -49 -44t-20 -60q0 -18 8 -30.5t22.5 -20t33.5 -11t41 -3.5q48 0 82 19.5t34 66.5q0 19 -10.5 31.5t-30 21.5t-48 16t-63.5 14z" />
    <glyph glyph-name="nine.superior" unicode="&#x2079;" 
d="M228 735q-3 -10 -4 -18.5t-1 -18.5q0 -29 19.5 -43t70.5 -14q31 0 62.5 5.5t55.5 13.5q4 17 5.5 33t1.5 29q0 44 -19 67.5t-70 23.5q-55 0 -83.5 -18.5t-37.5 -59.5zM115 448q98 2 152.5 17t83.5 39q25 21 44.5 54t30.5 75l-44 -35q-20 -7 -46.5 -12t-60.5 -5
q-75 0 -106.5 28.5t-31.5 76.5q0 14 2 27.5t5 29.5q17 65 65 99.5t145 34.5q47 0 79 -10.5t51.5 -30t28 -47.5t8.5 -64q0 -33 -7 -70t-21 -73t-36 -69t-53 -58q-42 -33 -106.5 -51t-169.5 -21z" />
    <glyph glyph-name="zero.inferior" unicode="&#x2080;" 
d="M248 364q60 0 96.5 -15.5t53.5 -38.5q9 -14 15.5 -37t6.5 -57q0 -35 -6.5 -77.5t-20 -83.5t-34 -77.5t-48.5 -60.5q-29 -24 -67.5 -33.5t-86.5 -9.5q-60 0 -94.5 16t-51.5 40q-11 14 -17.5 39t-6.5 63q0 35 6.5 76t20 80.5t33.5 74t48 57.5t64.5 33.5t88.5 10.5zM167 -56
q33 0 55.5 6.5t38.5 20.5t30 42.5t24.5 62.5t16.5 69.5t6 64.5q0 34 -11 51q-9 15 -32.5 23.5t-55.5 8.5q-28 0 -53 -6.5t-43 -22.5q-17 -16 -30.5 -43t-23.5 -59.5t-15.5 -66t-5.5 -62.5q0 -38 13 -57q21 -32 86 -32z" />
    <glyph glyph-name="one.inferior" unicode="&#x2081;" 
d="M-13 -119l14 65h136l72 344q-5 0 -26 -3.5l-45 -7.5l-45 -7.5t-25 -3.5l14 66l225 35l-90 -423h123l-13 -65h-340z" />
    <glyph glyph-name="two.inferior" unicode="&#x2082;" 
d="M321 -119h-358l8 42q8 30 22 54.5t36.5 45.5t55.5 40.5t81 39.5l49 21t35.5 16.5t24.5 14t16 13.5q14 14 21.5 36.5t7.5 41.5q0 26 -20.5 37.5t-73.5 11.5q-44 0 -86 -6.5t-70 -11.5l13 63q33 8 78 15t86 7q87 0 124.5 -23.5t37.5 -78.5q0 -12 -2.5 -28.5t-8.5 -34.5
t-15.5 -35t-22.5 -30q-25 -23 -62 -41t-97 -41q-39 -16 -64.5 -29.5t-41 -25.5t-23.5 -23.5t-11 -23.5h291z" />
    <glyph glyph-name="three.inferior" unicode="&#x2083;" 
d="M387 226q-7 -25 -21.5 -46t-28.5 -32l-55 -22l48 -19q10 -10 16 -28.5t6 -38.5q0 -19 -5 -42q-8 -32 -23 -55.5t-41.5 -38.5t-65 -22.5t-92.5 -7.5q-48 0 -85 6t-61 12l12 63q27 -5 62 -10t73 -5q35 0 59 4t40 12t24.5 20t13.5 28q2 8 3 16.5t1 15.5q0 33 -29 43t-83 10
h-85l13 63h83q57 0 89.5 13t43.5 54q3 13 3 29q0 26 -20.5 37.5t-70.5 11.5q-39 0 -76 -5t-63 -10l14 61q27 7 68.5 13t81.5 6q86 0 121 -24t35 -70q0 -10 -1 -20.5t-4 -21.5z" />
    <glyph glyph-name="four.inferior" unicode="&#x2084;" 
d="M264 -119h-75l26 121h-248l13 66l266 289h119l-61 -290h105l-33 -65h-86zM276 289h-13l-200 -218v-4h165z" />
    <glyph glyph-name="five.inferior" unicode="&#x2085;" 
d="M354 12q-9 -36 -24.5 -62t-42 -42.5t-65.5 -24t-96 -7.5q-44 0 -81 4.5t-63 11.5l12 62q26 -5 61 -9.5t73 -4.5q37 0 62 4.5t41.5 13.5t25.5 23.5t14 34.5q2 10 4 19.5t2 20.5q0 27 -21.5 38.5t-78.5 11.5q-18 0 -37 -1t-37.5 -3t-35 -4t-29.5 -3l55 262h317l-19 -68
h-238l-26 -129q16 3 40.5 5.5t53.5 2.5q77 0 109.5 -23.5t32.5 -73.5q0 -13 -2.5 -29t-6.5 -30z" />
    <glyph glyph-name="six.inferior" unicode="&#x2086;" 
d="M289 19q3 9 4 19t1 18q0 28 -19.5 41t-69.5 13q-32 0 -64 -5.5t-56 -13.5q-3 -17 -5 -32.5t-2 -31.5q0 -42 20 -65.5t70 -23.5q55 0 83 19.5t38 61.5zM402 304q-98 -1 -153.5 -16.5t-83.5 -39.5q-25 -21 -45 -54.5t-30 -74.5l44 34q20 7 47 12t62 5q74 0 105 -27.5
t31 -75.5q0 -12 -1.5 -25.5t-5.5 -27.5q-16 -69 -65 -104t-147 -35q-89 0 -127 39t-38 113q0 33 7 70t21.5 73t36.5 69t53 58q41 34 105.5 51.5t169.5 19.5z" />
    <glyph glyph-name="seven.inferior" unicode="&#x2087;" 
d="M322 281l2 6h-276l29 70h350l-14 -74l-302 -402h-97z" />
    <glyph glyph-name="eight.inferior" unicode="&#x2088;" 
d="M107 125l-42 26q-7 9 -13 25.5t-6 40.5q0 72 48 110t148 38q32 0 62 -5t53 -17t36.5 -33t13.5 -52q0 -34 -15.5 -64t-37.5 -47l-56 -20l48 -25q9 -11 16.5 -27.5t7.5 -42.5q0 -43 -16 -73t-44 -49t-66.5 -27.5t-83.5 -8.5q-32 0 -63.5 5.5t-56 18.5t-40 35.5t-15.5 56.5
q0 32 15 64t45 52zM233 303q-61 0 -84 -22t-23 -59q0 -33 36 -48t107 -28q24 18 41 42.5t17 54.5q0 33 -27 46.5t-67 13.5zM136 107q-29 -18 -49 -44t-20 -60q0 -18 8 -30.5t22.5 -20t33.5 -11t41 -3.5q48 0 82 19.5t34 66.5q0 19 -10.5 31.5t-30 21.5t-48 16t-63.5 14z" />
    <glyph glyph-name="nine.inferior" unicode="&#x2089;" 
d="M112 220q-3 -10 -4 -18.5t-1 -18.5q0 -29 19.5 -43t70.5 -14q31 0 62.5 5.5t55.5 13.5q4 17 5.5 33t1.5 29q0 44 -19 67.5t-70 23.5q-55 0 -83.5 -18.5t-37.5 -59.5zM-1 -67q98 2 152.5 17t83.5 39q25 21 44.5 54t30.5 75l-44 -35q-20 -7 -46.5 -12t-60.5 -5
q-75 0 -106.5 28.5t-31.5 76.5q0 14 2 27.5t5 29.5q17 65 65 99.5t145 34.5q47 0 79 -10.5t51.5 -30t28 -47.5t8.5 -64q0 -33 -7 -70t-21 -73t-36 -69t-53 -58q-42 -33 -106.5 -51t-169.5 -21z" />
    <glyph glyph-name="Euro" unicode="&#x20ac;" horiz-adv-x="667" 
d="M360 -11q-80 0 -127 22t-73 58q-18 25 -28 63t-10 88v27.5t2 28.5h-110l29 56h86q2 15 6 36t12 55h-103l28 56h92q23 73 55 125.5t70 84.5q40 33 98.5 51.5t136.5 18.5q64 0 109.5 -7t77.5 -14l-17 -85q-33 5 -76.5 10t-106.5 5q-49 0 -89 -11.5t-69 -37.5
q-20 -19 -41.5 -52.5t-39.5 -87.5h299l-28 -56h-289q-5 -19 -10 -41.5t-10 -49.5h267l-28 -56h-246q-1 -11 -1.5 -22.5t-0.5 -23.5q0 -28 5 -53.5t16 -42.5q17 -25 49.5 -39t84.5 -14q61 0 110.5 6.5t88.5 13.5l-19 -81q-39 -11 -86.5 -21t-113.5 -10z" />
    <glyph glyph-name="uni20B9" unicode="&#x20b9;" horiz-adv-x="667" 
d="M108 554h299q3 30 -7.5 51t-23.5 32q-16 13 -43.5 19.5t-70.5 6.5h-140l27 87h549l-25 -87h-218l-1 -4q24 -11 41.5 -39t17.5 -66h144l-26 -86h-128q-11 -38 -32.5 -69t-45.5 -48q-20 -14 -55 -25.5t-67 -21.5l-1 -5q17 -9 35 -22t27 -25q7 -11 18.5 -34.5t25 -56.5
t28 -74.5t28.5 -86.5h-121q-18 58 -33 100.5t-27.5 73t-24 49t-22.5 28.5q-12 11 -42 16t-69 5h-87l27 86h135q44 0 69.5 4t45.5 12q20 9 43.5 32t34.5 62h-312z" />
    <glyph glyph-name="uni20BA" unicode="&#x20ba;" horiz-adv-x="667" 
d="M5 245l104 56l26 121l-105 -56l18 85l105 56l51 243h103l-38 -183l201 107l-17 -85l-203 -107l-25 -122l201 107l-18 -84l-201 -108l-40 -184q14 -2 26.5 -3t28.5 -1q107 0 188 59.5t125 191.5l96 -31q-26 -78 -63 -137t-89.5 -99.5t-121.5 -61t-158 -20.5q-40 0 -83 4.5
t-70 9.5l45 213l-104 -56z" />
    <glyph glyph-name="afii61289" unicode="&#x2113;" horiz-adv-x="438" 
d="M137 242l-57 -63l-33 38l90 100v260q0 39 11 67.5t29.5 47t43.5 27.5t52 9q57 0 84.5 -33t27.5 -87q0 -67 -36 -127.5t-93 -122.5l-45 -50v-177q0 -43 17.5 -59t45.5 -16q25 0 47.5 12t39.5 26l33 -51q-20 -17 -52.5 -35.5t-82.5 -18.5q-57 0 -89.5 33t-32.5 91v129z
M211 397l22 27q14 17 28 36.5t25.5 40t18.5 42.5t7 44q0 31 -8.5 52t-36.5 21q-11 0 -21.5 -4t-18 -14.5t-12 -30.5t-4.5 -51v-163z" />
    <glyph glyph-name="trademark" unicode="&#x2122;" horiz-adv-x="914" 
d="M824 400v268h-11l-98 -244h-71l-95 244h-12v-268h-69v350h115l91 -237h13l94 237h112v-350h-69zM415 689h-128v-289h-69v289h-137l16 61h332z" />
    <glyph glyph-name="Omega" unicode="&#x2126;" horiz-adv-x="814" 
d="M680 0h-313l37 177q44 5 84 15t71 33q33 24 62 74.5t45 126.5q12 58 11.5 109.5t-27.5 82.5q-20 22 -59 33.5t-102 11.5t-106 -11t-73 -32q-33 -24 -64 -74.5t-46 -122.5q-13 -60 -12 -109t24 -80q10 -13 25 -23t32.5 -17t36 -11.5t35.5 -6.5l-37 -176h-312l41 96h208
l4 18q-31 8 -62.5 23t-54.5 39q-38 39 -44.5 111t13.5 158q20 83 58.5 149t94.5 104q46 32 106.5 47t142.5 15q100 0 159 -22t88 -54q38 -43 42 -114t-16 -162q-41 -179 -149 -247q-32 -20 -72 -30.5t-78 -17.5l-3 -17h249z" />
    <glyph glyph-name="estimated" unicode="&#x212e;" horiz-adv-x="649" 
d="M167 284v-196q65 -63 155 -63q72 0 122.5 34t86.5 95q10 -5 18.5 -11t17.5 -11q-22 -33 -46.5 -59.5t-54 -45.5t-65 -29t-79.5 -10q-64 0 -115 23t-87 63.5t-55.5 94t-19.5 115.5q0 61 19 115t55 94.5t87 63.5t116 23q66 0 118 -23t87.5 -63t55 -94t21.5 -116h-437z
M479 478q-65 65 -157 65q-94 0 -155 -64v-158h312v157z" />
    <glyph glyph-name="partialdiff" unicode="&#x2202;" horiz-adv-x="561" 
d="M511 486q0 -41 -6.5 -91t-18.5 -101q-37 -151 -106.5 -227.5t-162.5 -76.5q-81 0 -124.5 47.5t-43.5 141.5q0 68 18.5 127.5t52.5 103.5t80.5 69.5t103.5 25.5q42 0 71.5 -16.5t47.5 -41.5q2 10 2 21v24q0 80 -31.5 120t-86.5 40q-23 0 -48.5 -7.5t-48.5 -21.5l-26 68
q22 14 58 25.5t74 11.5q91 0 143 -61t52 -181zM411 358q-10 29 -38 51.5t-70 22.5q-45 0 -77 -25.5t-52.5 -64t-30.5 -83t-10 -83.5q0 -60 24.5 -87t60.5 -27q62 0 113.5 72.5t79.5 223.5z" />
    <glyph glyph-name="Delta" unicode="&#x2206;" horiz-adv-x="745" 
d="M382 750h173l88 -675l-15 -75h-652l14 75zM127 99h399l-64 547h-27z" />
    <glyph glyph-name="product" unicode="&#x220f;" horiz-adv-x="758" 
d="M564 -230v841h-371v-841h-102v930h575v-930h-102z" />
    <glyph glyph-name="summation" unicode="&#x2211;" horiz-adv-x="634" 
d="M38 -230v82l354 387l-332 374v87h524v-89h-404l335 -370l-354 -383h442v-88h-565z" />
    <glyph glyph-name="minus" unicode="&#x2212;" horiz-adv-x="667" 
d="M64 383h532v-87h-532v87z" />
    <glyph glyph-name="uni2215" unicode="&#x2215;" horiz-adv-x="181" 
d="M396 750h75l-654 -750h-75z" />
    <glyph glyph-name="uni2219" unicode="&#x2219;" horiz-adv-x="288" 
d="M188 263q-16 -12 -54 -12q-40 0 -52 15q-8 10 -8 28q0 22 7.5 42t20.5 30q10 7 23.5 9.5t29.5 2.5q39 0 50 -14q9 -9 9 -30q0 -22 -7 -41.5t-19 -29.5z" />
    <glyph glyph-name="radical" unicode="&#x221a;" horiz-adv-x="566" 
d="M21 318l157 62l88 -256l195 616l82 -21l-235 -719h-85l-96 280l-80 -33z" />
    <glyph glyph-name="infinity" unicode="&#x221e;" horiz-adv-x="681" 
d="M360 234q-32 -44 -73 -72.5t-93 -28.5q-35 0 -64 11.5t-50 32t-33 49.5t-12 64q0 36 11.5 65t32.5 50t49.5 32.5t62.5 11.5q31 0 56.5 -9t46.5 -23t37.5 -32t29.5 -37h2q12 18 28 36t37 32.5t46.5 23.5t55.5 9q34 0 63 -11t50 -31.5t33 -49t12 -63.5q0 -34 -11.5 -63.5
t-31.5 -51t-48.5 -34t-62.5 -12.5q-57 0 -100 28.5t-72 72.5h-2zM401 292q23 -44 57 -67.5t69 -23.5q45 0 65.5 27.5t20.5 63.5q0 37 -21 63t-65 26q-38 0 -69.5 -24t-56.5 -65zM321 292q-22 38 -57 63.5t-69 25.5q-44 0 -64.5 -27t-20.5 -64q0 -40 24 -64.5t61 -24.5
q39 0 72 27.5t54 63.5z" />
    <glyph glyph-name="integral" unicode="&#x222b;" horiz-adv-x="438" 
d="M369 682q-6 3 -18 5.5t-24 2.5q-78 0 -78 -97v-653q0 -75 -32 -120t-104 -45q-17 0 -37 3t-31 8q5 15 8.5 27.5t7.5 27.5q9 -3 19 -5.5t24 -2.5q40 0 59.5 24.5t19.5 71.5v655q0 74 31.5 119.5t105.5 45.5q20 0 39 -4t28 -9q-5 -15 -9 -27.5t-9 -26.5z" />
    <glyph glyph-name="approxequal" unicode="&#x2248;" horiz-adv-x="667" 
d="M448 361q-39 0 -70.5 14t-59 31.5t-52.5 31.5t-52 14q-35 0 -74.5 -27t-81.5 -62v94q15 15 34.5 29.5t41 26t44.5 18.5t45 7q38 0 69 -14t58 -31.5t51 -31.5t50 -14q21 0 41.5 8t40.5 20.5t38.5 28t36.5 31.5v-94q-37 -35 -78 -57.5t-82 -22.5zM448 133q-39 0 -70.5 14
t-59 31.5t-52.5 31.5t-52 14q-35 0 -74.5 -27t-81.5 -62v94q15 15 34.5 29.5t41 26t44.5 18.5t45 7q38 0 69 -14t58 -31.5t51 -31.5t50 -14q21 0 41.5 8t40.5 20.5t38.5 28t36.5 31.5v-94q-37 -35 -78 -57.5t-82 -22.5z" />
    <glyph glyph-name="notequal" unicode="&#x2260;" horiz-adv-x="667" 
d="M62 500h316l61 105h93l-60 -105h133v-87h-184l-86 -149h270v-86h-320l-63 -109h-94l63 109h-129v86h180l85 149h-265v87z" />
    <glyph glyph-name="lessequal" unicode="&#x2264;" horiz-adv-x="667" 
d="M605 731v-96l-443 -205l443 -203v-96l-543 259v83zM605 0h-543v87h543v-87z" />
    <glyph glyph-name="greaterequal" unicode="&#x2265;" horiz-adv-x="667" 
d="M605 473v-83l-543 -259v96l443 203l-443 205v96zM62 87h543v-87h-543v87z" />
    <glyph glyph-name="lozenge" unicode="&#x25ca;" horiz-adv-x="537" 
d="M248 728h42l180 -365l-180 -363h-43l-180 363zM129 364l136 -290h4l139 289l-139 288h-4z" />
    <glyph glyph-name="uniF8FF" unicode="&#xf8ff;" horiz-adv-x="512" 
d="M222 117v67h56v-67h-56zM225 234l-2 17q0 56 13 81q7 13 18 27.5t28 31.5q16 15 26 26.5t15 21t7 18t2 17.5q0 36 -22.5 60.5t-53.5 24.5t-53.5 -22t-28.5 -73l-50 8q7 72 44 104.5t91 32.5t89 -35.5t35 -95.5q0 -32 -12.5 -58.5t-50.5 -61.5q-37 -33 -43 -52
q-6 -20 -6 -72h-46zM462 50v617h-412v-617h412zM512 718v-718h-512v718h512z" />
    <glyph glyph-name="fi" unicode="&#xfb01;" horiz-adv-x="695" 
d="M436 0l119 561h107l-119 -561h-107zM685 695q-9 -7 -23 -9.5t-30 -2.5q-33 0 -45 14q-5 6 -6 17.5t1 25.5q6 40 27 55q16 11 48 11q34 0 44 -13q7 -6 8.5 -18.5t-0.5 -26.5q-3 -17 -9 -31t-15 -22zM435 480h-168l-103 -480h-107l101 480h-98l21 81h95l15 69q10 45 27 80
t43 58t63 35t87 12q37 0 72.5 -4t56.5 -7l-19 -78q-17 2 -41.5 5.5t-57.5 3.5t-54.5 -8t-35.5 -23t-22 -36.5t-14 -48.5l-13 -58h179z" />
    <glyph glyph-name="fl" unicode="&#xfb02;" horiz-adv-x="747" 
d="M714 811l-137 -641q-6 -30 -6 -48q0 -26 13.5 -36t39.5 -10q21 0 40 2.5t34 5.5l-17 -79q-21 -5 -49 -9t-52 -4q-59 0 -89 24.5t-30 80.5q0 15 2.5 34t7.5 41l136 639h107zM435 480h-168l-103 -480h-107l101 480h-98l21 81h95l15 69q10 45 27 80t43 58t63 35t87 12
q37 0 72.5 -4t56.5 -7l-19 -78q-17 2 -41.5 5.5t-57.5 3.5t-54.5 -8t-35.5 -23t-22 -36.5t-14 -48.5l-13 -58h179z" />
    <glyph glyph-name="commaaccent" horiz-adv-x="256" 
d="M60 -86h96l-109 -138h-76z" />
    <glyph glyph-name="zero.denominator" 
d="M278 484q60 0 96.5 -15.5t53.5 -38.5q9 -14 15.5 -37t6.5 -57q0 -35 -6.5 -77.5t-20 -83.5t-34 -77.5t-48.5 -60.5q-29 -24 -67.5 -33.5t-86.5 -9.5q-60 0 -94.5 16t-51.5 40q-11 14 -17.5 39t-6.5 63q0 35 6.5 76t20 80.5t33.5 74t48 57.5t64.5 33.5t88.5 10.5zM197 64
q33 0 55.5 6.5t38.5 20.5t30 42.5t24.5 62.5t16.5 69.5t6 64.5q0 34 -11 51q-9 15 -32.5 23.5t-55.5 8.5q-28 0 -53 -6.5t-43 -22.5q-17 -16 -30.5 -43t-23.5 -59.5t-15.5 -66t-5.5 -62.5q0 -38 13 -57q21 -32 86 -32z" />
    <glyph glyph-name="one.denominator" 
d="M17 1l14 65h136l72 344q-5 0 -26 -3.5l-45 -7.5l-45 -7.5t-25 -3.5l14 66l225 35l-90 -423h123l-13 -65h-340z" />
    <glyph glyph-name="two.denominator" 
d="M352 2h-358l8 42q8 30 22 54.5t36.5 45.5t55.5 40.5t81 39.5l49 21t35.5 16.5t24.5 14t16 13.5q14 14 21.5 36.5t7.5 41.5q0 26 -20.5 37.5t-73.5 11.5q-44 0 -86 -6.5t-70 -11.5l13 63q33 8 78 15t86 7q87 0 124.5 -23.5t37.5 -78.5q0 -12 -2.5 -28.5t-8.5 -34.5
t-15.5 -35t-22.5 -30q-25 -23 -62 -41t-97 -41q-39 -16 -64.5 -29.5t-41 -25.5t-23.5 -23.5t-11 -23.5h291z" />
    <glyph glyph-name="three.denominator" 
d="M417 346q-7 -25 -21.5 -46t-28.5 -32l-55 -22l48 -19q10 -10 16 -28.5t6 -38.5q0 -19 -5 -42q-8 -32 -23 -55.5t-41.5 -38.5t-65 -22.5t-92.5 -7.5q-48 0 -85 6t-61 12l12 63q27 -5 62 -10t73 -5q35 0 59 4t40 12t24.5 20t13.5 28q2 8 3 16.5t1 15.5q0 33 -29 43t-83 10
h-85l13 63h83q57 0 89.5 13t43.5 54q3 13 3 29q0 26 -20.5 37.5t-70.5 11.5q-39 0 -76 -5t-63 -10l14 61q27 7 68.5 13t81.5 6q86 0 121 -24t35 -70q0 -10 -1 -20.5t-4 -21.5z" />
    <glyph glyph-name="four.denominator" 
d="M294 1h-75l26 121h-248l13 66l266 289h119l-61 -290h105l-33 -65h-86zM306 409h-13l-200 -218v-4h165z" />
    <glyph glyph-name="five.denominator" 
d="M384 132q-9 -36 -24.5 -62t-42 -42.5t-65.5 -24t-96 -7.5q-44 0 -81 4.5t-63 11.5l12 62q26 -5 61 -9.5t73 -4.5q37 0 62 4.5t41.5 13.5t25.5 23.5t14 34.5q2 10 4 19.5t2 20.5q0 27 -21.5 38.5t-78.5 11.5q-18 0 -37 -1t-37.5 -3t-35 -4t-29.5 -3l55 262h317l-19 -68
h-238l-26 -129q16 3 40.5 5.5t53.5 2.5q77 0 109.5 -23.5t32.5 -73.5q0 -13 -2.5 -29t-6.5 -30z" />
    <glyph glyph-name="six.denominator" 
d="M318 139q3 9 4 19t1 18q0 28 -19.5 41t-69.5 13q-32 0 -64 -5.5t-56 -13.5q-3 -17 -5 -32.5t-2 -31.5q0 -42 20 -65.5t70 -23.5q55 0 83 19.5t38 61.5zM431 424q-98 -1 -153.5 -16.5t-83.5 -39.5q-25 -21 -45 -54.5t-30 -74.5l44 34q20 7 47 12t62 5q74 0 105 -27.5
t31 -75.5q0 -12 -1.5 -25.5t-5.5 -27.5q-16 -69 -65 -104t-147 -35q-89 0 -127 39t-38 113q0 33 7 70t21.5 73t36.5 69t53 58q41 34 105.5 51.5t169.5 19.5z" />
    <glyph glyph-name="seven.denominator" 
d="M353 402l2 6h-276l29 70h350l-14 -74l-302 -402h-97z" />
    <glyph glyph-name="eight.denominator" 
d="M140 245l-42 26q-7 9 -13 25.5t-6 40.5q0 72 48 110t148 38q32 0 62 -5t53 -17t36.5 -33t13.5 -52q0 -34 -15.5 -64t-37.5 -47l-56 -20l48 -25q9 -11 16.5 -27.5t7.5 -42.5q0 -43 -16 -73t-44 -49t-66.5 -27.5t-83.5 -8.5q-32 0 -63.5 5.5t-56 18.5t-40 35.5t-15.5 56.5
q0 32 15 64t45 52zM266 423q-61 0 -84 -22t-23 -59q0 -33 36 -48t107 -28q24 18 41 42.5t17 54.5q0 33 -27 46.5t-67 13.5zM169 227q-29 -18 -49 -44t-20 -60q0 -18 8 -30.5t22.5 -20t33.5 -11t41 -3.5q48 0 82 19.5t34 66.5q0 19 -10.5 31.5t-30 21.5t-48 16t-63.5 14z" />
    <glyph glyph-name="nine.denominator" 
d="M142 340q-3 -10 -4 -18.5t-1 -18.5q0 -29 19.5 -43t70.5 -14q31 0 62.5 5.5t55.5 13.5q4 17 5.5 33t1.5 29q0 44 -19 67.5t-70 23.5q-55 0 -83.5 -18.5t-37.5 -59.5zM29 53q98 2 152.5 17t83.5 39q25 21 44.5 54t30.5 75l-44 -35q-20 -7 -46.5 -12t-60.5 -5
q-75 0 -106.5 28.5t-31.5 76.5q0 14 2 27.5t5 29.5q17 65 65 99.5t145 34.5q47 0 79 -10.5t51.5 -30t28 -47.5t8.5 -64q0 -33 -7 -70t-21 -73t-36 -69t-53 -58q-42 -33 -106.5 -51t-169.5 -21z" />
    <glyph glyph-name="zero.numerator" 
d="M345 760q60 0 96.5 -15.5t53.5 -38.5q9 -14 15.5 -37t6.5 -57q0 -35 -6.5 -77.5t-20 -83.5t-34 -77.5t-48.5 -60.5q-29 -24 -67.5 -33.5t-86.5 -9.5q-60 0 -94.5 16t-51.5 40q-11 14 -17.5 39t-6.5 63q0 35 6.5 76t20 80.5t33.5 74t48 57.5t64.5 33.5t88.5 10.5zM264 340
q33 0 55.5 6.5t38.5 20.5t30 42.5t24.5 62.5t16.5 69.5t6 64.5q0 34 -11 51q-9 15 -32.5 23.5t-55.5 8.5q-28 0 -53 -6.5t-43 -22.5q-17 -16 -30.5 -43t-23.5 -59.5t-15.5 -66t-5.5 -62.5q0 -38 13 -57q21 -32 86 -32z" />
    <glyph glyph-name="one.numerator" 
d="M75 275l14 65h136l72 344q-5 0 -26 -3.5l-45 -7.5l-45 -7.5t-25 -3.5l14 66l225 35l-90 -423h123l-13 -65h-340z" />
    <glyph glyph-name="two.numerator" 
d="M409 276h-358l8 42q8 30 22 54.5t36.5 45.5t55.5 40.5t81 39.5l49 21t35.5 16.5t24.5 14t16 13.5q14 14 21.5 36.5t7.5 41.5q0 26 -20.5 37.5t-73.5 11.5q-44 0 -86 -6.5t-70 -11.5l13 63q33 8 78 15t86 7q87 0 124.5 -23.5t37.5 -78.5q0 -12 -2.5 -28.5t-8.5 -34.5
t-15.5 -35t-22.5 -30q-25 -23 -62 -41t-97 -41q-39 -16 -64.5 -29.5t-41 -25.5t-23.5 -23.5t-11 -23.5h291z" />
    <glyph glyph-name="three.numerator" 
d="M475 621q-7 -25 -21.5 -46t-28.5 -32l-55 -22l48 -19q10 -10 16 -28.5t6 -38.5q0 -19 -5 -42q-8 -32 -23 -55.5t-41.5 -38.5t-65 -22.5t-92.5 -7.5q-48 0 -85 6t-61 12l12 63q27 -5 62 -10t73 -5q35 0 59 4t40 12t24.5 20t13.5 28q2 8 3 16.5t1 15.5q0 33 -29 43t-83 10
h-85l13 63h83q57 0 89.5 13t43.5 54q3 13 3 29q0 26 -20.5 37.5t-70.5 11.5q-39 0 -76 -5t-63 -10l14 61q27 7 68.5 13t81.5 6q86 0 121 -24t35 -70q0 -10 -1 -20.5t-4 -21.5z" />
    <glyph glyph-name="four.numerator" 
d="M351 276h-75l26 121h-248l13 66l266 289h119l-61 -290h105l-33 -65h-86zM363 684h-13l-200 -218v-4h165z" />
    <glyph glyph-name="five.numerator" 
d="M443 407q-9 -36 -24.5 -62t-42 -42.5t-65.5 -24t-96 -7.5q-44 0 -81 4.5t-63 11.5l12 62q26 -5 61 -9.5t73 -4.5q37 0 62 4.5t41.5 13.5t25.5 23.5t14 34.5q2 10 4 19.5t2 20.5q0 27 -21.5 38.5t-78.5 11.5q-18 0 -37 -1t-37.5 -3t-35 -4t-29.5 -3l55 262h317l-19 -68
h-238l-26 -129q16 3 40.5 5.5t53.5 2.5q77 0 109.5 -23.5t32.5 -73.5q0 -13 -2.5 -29t-6.5 -30z" />
    <glyph glyph-name="six.numerator" 
d="M376 414q3 9 4 19t1 18q0 28 -19.5 41t-69.5 13q-32 0 -64 -5.5t-56 -13.5q-3 -17 -5 -32.5t-2 -31.5q0 -42 20 -65.5t70 -23.5q55 0 83 19.5t38 61.5zM489 699q-98 -1 -153.5 -16.5t-83.5 -39.5q-25 -21 -45 -54.5t-30 -74.5l44 34q20 7 47 12t62 5q74 0 105 -27.5
t31 -75.5q0 -12 -1.5 -25.5t-5.5 -27.5q-16 -69 -65 -104t-147 -35q-89 0 -127 39t-38 113q0 33 7 70t21.5 73t36.5 69t53 58q41 34 105.5 51.5t169.5 19.5z" />
    <glyph glyph-name="seven.numerator" 
d="M410 675l2 6h-276l29 70h350l-14 -74l-302 -402h-97z" />
    <glyph glyph-name="eight.numerator" 
d="M197 520l-42 26q-7 9 -13 25.5t-6 40.5q0 72 48 110t148 38q32 0 62 -5t53 -17t36.5 -33t13.5 -52q0 -34 -15.5 -64t-37.5 -47l-56 -20l48 -25q9 -11 16.5 -27.5t7.5 -42.5q0 -43 -16 -73t-44 -49t-66.5 -27.5t-83.5 -8.5q-32 0 -63.5 5.5t-56 18.5t-40 35.5t-15.5 56.5
q0 32 15 64t45 52zM323 698q-61 0 -84 -22t-23 -59q0 -33 36 -48t107 -28q24 18 41 42.5t17 54.5q0 33 -27 46.5t-67 13.5zM226 502q-29 -18 -49 -44t-20 -60q0 -18 8 -30.5t22.5 -20t33.5 -11t41 -3.5q48 0 82 19.5t34 66.5q0 19 -10.5 31.5t-30 21.5t-48 16t-63.5 14z" />
    <glyph glyph-name="nine.numerator" 
d="M199 615q-3 -10 -4 -18.5t-1 -18.5q0 -29 19.5 -43t70.5 -14q31 0 62.5 5.5t55.5 13.5q4 17 5.5 33t1.5 29q0 44 -19 67.5t-70 23.5q-55 0 -83.5 -18.5t-37.5 -59.5zM86 328q98 2 152.5 17t83.5 39q25 21 44.5 54t30.5 75l-44 -35q-20 -7 -46.5 -12t-60.5 -5
q-75 0 -106.5 28.5t-31.5 76.5q0 14 2 27.5t5 29.5q17 65 65 99.5t145 34.5q47 0 79 -10.5t51.5 -30t28 -47.5t8.5 -64q0 -33 -7 -70t-21 -73t-36 -69t-53 -58q-42 -33 -106.5 -51t-169.5 -21z" />
    <glyph glyph-name="acute.cap" horiz-adv-x="370" 
d="M336 950h124l-204 -139h-92z" />
    <glyph glyph-name="breve.cap" horiz-adv-x="408" 
d="M151 949q-2 -7 -3 -14.5t-1 -12.5q0 -53 79 -53q51 0 74.5 20.5t29.5 59.5h59q-3 -27 -13.5 -51t-30 -42t-50 -28.5t-73.5 -10.5q-61 0 -96.5 24t-35.5 73q0 7 1 17t3 18h57z" />
    <glyph glyph-name="caron.alt" horiz-adv-x="210" 
d="M119 750h84l-105 -237h-71z" />
    <glyph glyph-name="caron.cap" horiz-adv-x="370" 
d="M118 944h74l72 -79l108 79h82l-157 -130h-78z" />
    <glyph glyph-name="circumflex.cap" horiz-adv-x="370" 
d="M421 814h-74l-72 80l-107 -80h-83l157 130h78z" />
    <glyph glyph-name="commaaccent.alt" horiz-adv-x="261" 
d="M154 633h-98l110 138h78z" />
    <glyph glyph-name="dieresis.cap" horiz-adv-x="370" 
d="M159 818q-27 0 -38 11q-5 6 -5 21q0 14 6 29t18 23q5 3 14.5 5.5t23.5 2.5q26 0 35 -9q7 -7 7 -20q0 -15 -5.5 -30.5t-17.5 -23.5q-5 -4 -15.5 -6.5t-22.5 -2.5zM353 818q-28 0 -37 11q-6 7 -6 20q0 15 6.5 30t18.5 23q5 3 14.5 5.5t23.5 2.5q26 0 35 -9q4 -4 5 -9.5
t1 -10.5q0 -15 -5 -30.5t-16 -23.5q-14 -9 -40 -9z" />
    <glyph glyph-name="dotaccent.cap" horiz-adv-x="370" 
d="M226 815q-32 0 -42 13q-6 9 -6 25q0 20 6.5 38t19.5 27q14 10 44 10q32 0 41 -12q8 -9 8 -28t-6 -36.5t-17 -26.5q-8 -5 -21 -7.5t-27 -2.5z" />
    <glyph glyph-name="grave.cap" horiz-adv-x="370" 
d="M173 950l133 -138h-85l-162 138h114z" />
    <glyph glyph-name="hungarumlaut.cap" horiz-adv-x="483" 
d="M221 944h105l-158 -132h-77zM402 944h105l-158 -132h-77z" />
    <glyph glyph-name="macron.cap" horiz-adv-x="370" 
d="M128 891h284l-15 -66h-284z" />
    <glyph glyph-name="ring.cap" horiz-adv-x="370" 
d="M251 810q-42 0 -62 18t-20 50q0 20 7 47.5t27 44.5q28 25 80 25q46 0 64.5 -18.5t18.5 -47.5q0 -20 -8 -48t-28 -46q-14 -11 -33 -18t-46 -7zM257 851q14 0 25.5 3.5t18.5 12.5q8 11 12.5 27t4.5 31q0 14 -8.5 21.5t-31.5 7.5q-31 0 -45 -15q-8 -11 -12.5 -25.5
t-4.5 -31.5q0 -15 8.5 -23t32.5 -8z" />
    <glyph glyph-name="tilde.cap" horiz-adv-x="370" 
d="M91 822q12 48 39.5 76.5t72.5 28.5q24 0 42 -9t32.5 -19.5t28 -19.5t29.5 -9q19 0 31.5 11.5t21.5 39.5h53q-13 -55 -42 -81t-70 -26q-25 0 -42.5 9t-32.5 20t-28 20t-29 9q-37 0 -53 -50h-53z" />
    <glyph glyph-name="cent.alt" horiz-adv-x="667" 
d="M575 569q-24 4 -59 9t-83 5q-43 0 -74.5 -8t-56.5 -26q-24 -18 -42.5 -48.5t-30.5 -65.5t-18.5 -72t-6.5 -68q0 -56 26 -84q30 -30 103 -30q51 0 94 8t75 13l-20 -82q-29 -10 -63.5 -17.5t-75.5 -10.5l-19 -92h-53l19 91q-53 2 -89 15t-60 39q-21 22 -32.5 55.5
t-11.5 81.5q0 46 9.5 96t28 96.5t44.5 85t59 62.5q36 26 80 37t95 13l17 78h53l-17 -81q38 -2 69.5 -7t50.5 -10z" />
    <glyph glyph-name="oslash.alt" horiz-adv-x="672" 
d="M616 387q0 -45 -8.5 -93.5t-25 -94.5t-41 -85.5t-57.5 -66.5q-37 -30 -86.5 -44t-122.5 -14q-54 0 -91 10t-61 26l-31 -31h-75l67 70q-14 21 -20.5 49t-6.5 69t8 88.5t24.5 93.5t42 86.5t60.5 67.5q36 28 85 42.5t118 14.5q52 0 89.5 -9.5t63.5 -26.5l29 29h75l-65 -67
q13 -20 21 -48t8 -66zM414 109q21 16 39 46.5t30.5 67.5t20 76t7.5 74q0 28 -6 47t-16 31q-13 17 -39.5 26.5t-66.5 9.5q-45 0 -75 -10.5t-50 -25.5q-22 -17 -40 -47.5t-31 -67t-20 -74.5t-7 -70q0 -25 5 -45.5t14 -31.5q14 -19 40.5 -30t72.5 -11q37 0 68.5 8.5t53.5 26.5z
" />
    </font>
</defs>
</svg>
