<?xml version="1.0" standalone="no"?>
<!DOCTYPE svg PUBLIC "-//W3C//DTD SVG 1.1//EN" "http://www.w3.org/Graphics/SVG/1.1/DTD/svg11.dtd" >
<svg xmlns="http://www.w3.org/2000/svg" xmlns:xlink="http://www.w3.org/1999/xlink" version="1.1">
<metadata>
Created by FontForge 20170731 at Tue Sep 10 17:18:19 2013
 By Aleksey,,,
Copyright (c) 2013 Monotype Imaging Inc. All rights reserved.
</metadata>
<defs>
<font id="BurlingamePro-XBoldIt" horiz-adv-x="485" >
  <font-face 
    font-family="Burlingame Pro Medium"
    font-weight="750"
    font-style="italic"
    font-stretch="normal"
    units-per-em="1000"
    panose-1="2 11 9 4 4 5 4 9 2 4"
    ascent="745"
    descent="-255"
    x-height="561"
    cap-height="750"
    bbox="-261 -275 1431 1008"
    underline-thickness="50"
    underline-position="-150"
    slope="-8"
    unicode-range="U+0020-FB04"
  />
<missing-glyph horiz-adv-x="417" 
 />
    <glyph glyph-name="IJ" unicode="IJ" horiz-adv-x="930" 
d="M19 0l158 750h192l-159 -750h-191zM525 -11q-30 0 -60 2.5t-56.5 6t-49 7.5t-37.5 8l20 148q26 -5 66 -10t82 -5q51 0 79.5 9t45.5 23q16 14 30 45.5t29 97.5l90 429h191l-93 -440q-20 -97 -45.5 -158t-67.5 -99q-39 -34 -94.5 -49t-129.5 -15z" />
    <glyph glyph-name="ij" unicode="ij" horiz-adv-x="664" 
d="M10 0l118 561h190l-119 -561h-189zM327 662q-14 -10 -36 -14t-48 -4q-59 0 -78 22q-12 13 -10 44q2 30 13.5 57t32.5 39q12 7 30 10.5t47 3.5q27 0 47 -4t29 -14q8 -8 11 -20.5t3 -28.5q-2 -27 -11.5 -52t-29.5 -39zM521 -52q-25 -118 -87.5 -170.5t-174.5 -52.5
q-38 0 -71.5 4.5t-53.5 8.5l19 126q14 -2 34.5 -4t43.5 -2q22 0 38.5 5t28.5 16t20 29.5t13 44.5l129 608h191zM659 662q-14 -10 -36 -14t-48 -4q-59 0 -78 22q-12 13 -10 44q2 30 13.5 57t32.5 39q12 7 30 10.5t47 3.5q27 0 47 -4t29 -14q8 -8 11 -20.5t3 -28.5
q-2 -27 -11.5 -52t-29.5 -39z" />
    <glyph glyph-name="napostrophe" unicode="&#x22;n" horiz-adv-x="840" 
d="M161 750h188l-194 -270h-153zM517 -1l68 323q8 38 8 60q0 8 -1.5 15t-5.5 12q-8 10 -22 13t-31 3q-30 0 -56.5 -8t-48.5 -16l-85 -402h-191l119 561h152l12 -102h7l71 83q24 11 60 19.5t80 8.5q86 0 119 -43q10 -14 16 -33.5t6 -45.5q0 -20 -3.5 -46.5t-12.5 -68.5
l-70 -333h-191z" />
    <glyph glyph-name="f_f" unicode="ff" horiz-adv-x="821" 
d="M433 424h-133l-91 -424h-190l90 424h-72l38 137h63l10 46q12 52 30.5 89t46.5 61t68 35.5t94 11.5q49 0 88 -5t60 -9l-27 -126q-16 2 -37.5 5t-44.5 3q-44 0 -62.5 -17.5t-26.5 -54.5l-9 -39h148zM844 424h-133l-91 -424h-190l90 424h-72l38 137h63l10 46q12 52 30.5 89
t46.5 61t68 35.5t94 11.5q49 0 88 -5t60 -9l-27 -126q-16 2 -37.5 5t-44.5 3q-44 0 -62.5 -17.5t-26.5 -54.5l-9 -39h148z" />
    <glyph glyph-name="f_f_i" unicode="ffi" horiz-adv-x="1153" 
d="M831 0l118 561h190l-119 -561h-189zM1148 662q-14 -10 -36 -14t-48 -4q-59 0 -78 22q-12 13 -10 44q2 30 13.5 57t32.5 39q12 7 30 10.5t47 3.5q27 0 47 -4t29 -14q8 -8 11 -20.5t3 -28.5q-2 -27 -11.5 -52t-29.5 -39zM433 424h-133l-91 -424h-190l90 424h-72l38 137h63
l10 46q12 52 30.5 89t46.5 61t68 35.5t94 11.5q49 0 88 -5t60 -9l-27 -126q-16 2 -37.5 5t-44.5 3q-44 0 -62.5 -17.5t-26.5 -54.5l-9 -39h148zM844 424h-133l-91 -424h-190l90 424h-72l38 137h63l10 46q12 52 30.5 89t46.5 61t68 35.5t94 11.5q49 0 88 -5t60 -9l-27 -126
q-16 2 -37.5 5t-44.5 3q-44 0 -62.5 -17.5t-26.5 -54.5l-9 -39h148z" />
    <glyph glyph-name="f_f_l" unicode="ffl" horiz-adv-x="1209" 
d="M1184 799l-127 -596q-5 -25 -5 -38q0 -20 10.5 -27.5t31.5 -7.5q17 0 35 2.5t32 4.5l-26 -125q-23 -5 -59 -12t-81 -7q-72 0 -106 28t-34 87q0 23 4 48t9 53l126 590h190zM433 424h-133l-91 -424h-190l90 424h-72l38 137h63l10 46q12 52 30.5 89t46.5 61t68 35.5t94 11.5
q49 0 88 -5t60 -9l-27 -126q-16 2 -37.5 5t-44.5 3q-44 0 -62.5 -17.5t-26.5 -54.5l-9 -39h148zM844 424h-133l-91 -424h-190l90 424h-72l38 137h63l10 46q12 52 30.5 89t46.5 61t68 35.5t94 11.5q49 0 88 -5t60 -9l-27 -126q-16 2 -37.5 5t-44.5 3q-44 0 -62.5 -17.5
t-26.5 -54.5l-9 -39h148z" />
    <glyph glyph-name="f_i" unicode="fi" horiz-adv-x="743" 
d="M421 0l118 561h190l-119 -561h-189zM738 662q-14 -10 -36 -14t-48 -4q-59 0 -78 22q-12 13 -10 44q2 30 13.5 57t32.5 39q12 7 30 10.5t47 3.5q27 0 47 -4t29 -14q8 -8 11 -20.5t3 -28.5q-2 -27 -11.5 -52t-29.5 -39zM433 424h-133l-91 -424h-190l90 424h-72l38 137h63
l10 46q12 52 30.5 89t46.5 61t68 35.5t94 11.5q49 0 88 -5t60 -9l-27 -126q-16 2 -37.5 5t-44.5 3q-44 0 -62.5 -17.5t-26.5 -54.5l-9 -39h148z" />
    <glyph glyph-name="f_l" unicode="fl" horiz-adv-x="798" 
d="M774 799l-127 -596q-5 -25 -5 -38q0 -20 10.5 -27.5t31.5 -7.5q17 0 35 2.5t32 4.5l-26 -125q-23 -5 -59 -12t-81 -7q-72 0 -106 28t-34 87q0 23 4 48t9 53l126 590h190zM433 424h-133l-91 -424h-190l90 424h-72l38 137h63l10 46q12 52 30.5 89t46.5 61t68 35.5t94 11.5
q49 0 88 -5t60 -9l-27 -126q-16 2 -37.5 5t-44.5 3q-44 0 -62.5 -17.5t-26.5 -54.5l-9 -39h148z" />
    <glyph glyph-name=".notdef" horiz-adv-x="417" 
 />
    <glyph glyph-name=".null" horiz-adv-x="0" 
 />
    <glyph glyph-name="nonmarkingreturn" horiz-adv-x="0" 
 />
    <glyph glyph-name="space" unicode=" " horiz-adv-x="230" 
 />
    <glyph glyph-name="exclam" unicode="!" horiz-adv-x="369" 
d="M91 250l89 500h194l-125 -500h-158zM205 5q-26 -19 -84 -19q-65 0 -83 23q-11 14 -11 42q0 35 12 65t35 44q13 9 33.5 13t46.5 4q62 0 79 -20q14 -16 14 -45q0 -30 -10.5 -60t-31.5 -47z" />
    <glyph glyph-name="quotedbl" unicode="&#x22;" 
d="M146 750h155l-76 -283h-128zM363 750h155l-77 -283h-127z" />
    <glyph glyph-name="numbersign" unicode="#" horiz-adv-x="629" 
d="M138 575h111l49 175h90l-50 -175h95l49 175h91l-50 -175h111l-35 -121h-111l-44 -158h111l-36 -121h-110l-51 -175h-89l50 175h-95l-50 -175h-90l50 175h-111l35 121h112l43 158h-111zM259 296h95l44 158h-94z" />
    <glyph glyph-name="dollar" unicode="$" horiz-adv-x="675" 
d="M637 592q-31 5 -83.5 10.5t-115.5 7.5l-37 -173q60 -17 107 -35t65 -44q25 -33 22 -96q-1 -31 -7 -62.5t-18 -60.5t-31 -53t-45 -39q-32 -20 -77.5 -29.5t-107.5 -11.5l-24 -116h-81l24 116q-59 3 -113 12t-85 20l20 125q13 -3 35.5 -7t50.5 -8t59 -7t61 -3l38 178
q-62 17 -105 37t-63 47q-11 16 -16.5 42t-4.5 55q1 40 9.5 72.5t22 57t30 42.5t31.5 29q25 18 73 31t114 16l20 92h81l-19 -92q28 -1 56 -3.5t53.5 -5.5t47 -6.5t36.5 -6.5zM356 608q-27 -2 -43 -6t-25 -11q-14 -11 -22 -36t-8 -46q0 -18 11 -29q5 -6 20 -12t35 -12z
M338 140q25 1 43 4.5t27 11.5q12 10 20 33t8 47q0 12 -2 20.5t-8 14.5q-8 8 -21.5 12.5t-33.5 10.5z" />
    <glyph glyph-name="percent" unicode="%" horiz-adv-x="1012" 
d="M978 284q0 -34 -6.5 -71t-19 -72t-31.5 -65t-43 -48q-29 -22 -64 -30t-77 -8q-51 0 -84 14.5t-51 36.5q-14 16 -22 41t-8 62q0 34 6.5 70t18.5 69t29.5 61t40.5 47q52 42 145 42q58 -1 90 -14.5t48 -34.5q13 -16 20.5 -40.5t7.5 -59.5zM797 107q9 8 17.5 27t16 43
t12 50.5t4.5 50.5q0 13 -2 20.5t-5 12.5q-7 10 -17 13.5t-24 3.5q-30 0 -48 -15q-10 -9 -19 -28t-15.5 -42t-10.5 -48.5t-4 -46.5q0 -26 6 -36q13 -19 43 -19q28 0 46 14zM721 750h116l-518 -750h-117zM467 610q0 -34 -6.5 -71.5t-19 -72.5t-31 -65t-43.5 -48
q-28 -22 -63 -30t-77 -8q-51 0 -84.5 14t-51.5 37q-13 16 -21 41t-8 61q0 35 6 71t18 69t29.5 61t40.5 47q54 42 146 42q57 -1 89.5 -14.5t48.5 -33.5q12 -16 19.5 -41t7.5 -59zM286 433q9 8 18 26.5t16.5 42.5t12 51t4.5 51q0 12 -2.5 19.5t-5.5 12.5q-11 18 -40 18
q-31 0 -48 -16q-10 -9 -19 -28t-16 -42.5t-11 -48.5t-4 -47q0 -25 6 -35q14 -19 44 -19q29 0 45 15z" />
    <glyph glyph-name="ampersand" unicode="&#x26;" horiz-adv-x="888" 
d="M616 0l-60 116q-32 -33 -61 -56.5t-62 -38.5t-74 -22.5t-95 -7.5q-66 0 -109.5 12.5t-70.5 38.5q-45 43 -45 122q0 50 17.5 98.5t56.5 82.5l112 41v8q-29 17 -48.5 44.5t-19.5 74.5q0 58 22 111.5t71 87.5q35 23 83 35.5t115 12.5q131 0 183 -49q22 -20 31.5 -45t9.5 -56
q0 -51 -20.5 -90.5t-47.5 -65.5l-107 -37l-1 -7q41 -15 65.5 -32.5t38.5 -40.5l121 136h194l-239 -250l128 -223h-188zM485 223q-14 25 -25.5 41t-31.5 29t-54.5 26t-94.5 32q-29 -23 -50 -59.5t-21 -83.5q0 -36 18 -54q23 -25 87 -25q27 0 49 5.5t42 17t39 29.5t42 42z
M445 442q24 26 42.5 62t18.5 73q0 28 -14 42q-18 19 -65 19q-48 0 -72 -21q-16 -14 -23.5 -37.5t-7.5 -46.5q0 -32 26.5 -52.5t94.5 -38.5z" />
    <glyph glyph-name="quotesingle" unicode="'" horiz-adv-x="288" 
d="M156 750h156l-76 -283h-128z" />
    <glyph glyph-name="parenleft" unicode="(" horiz-adv-x="390" 
d="M84 391q21 103 52.5 183t68.5 128q15 19 32.5 35t35.5 28.5t34 21.5t27 14h153q-19 -13 -39.5 -28.5t-40.5 -32.5t-38 -34.5t-31 -33.5q-32 -40 -61.5 -112.5t-53.5 -187.5q-14 -65 -19 -114.5t-5 -87.5q0 -32 4 -56.5t11 -41.5q13 -35 36 -68.5t49 -62.5h-134
q-20 17 -46 51.5t-42 76.5q-8 20 -12 50t-4 67q0 45 5.5 96t17.5 109z" />
    <glyph glyph-name="parenright" unicode=")" horiz-adv-x="389" 
d="M342 351q-21 -103 -53 -183t-69 -128q-15 -19 -32.5 -35t-35 -28.5t-33.5 -21.5t-27 -14h-154q19 13 39.5 28.5t40.5 32t38 34t31 34.5q32 39 61.5 112t53.5 188q14 65 19 114.5t5 87.5q0 32 -4 56.5t-11 41.5q-13 35 -35.5 68.5t-48.5 62.5h134q10 -8 22 -21.5t24 -30
t22.5 -36t18.5 -40.5q8 -20 12.5 -50t4.5 -67q0 -87 -23 -205z" />
    <glyph glyph-name="asterisk" unicode="*" horiz-adv-x="542" 
d="M257 783h113l-1 -66l-44 -142l102 108l59 33l55 -97l-58 -33l-143 -32l144 -35l56 -32l-56 -98l-56 34l-102 109l43 -142v-68h-112l1 66l42 143l-99 -109l-58 -34l-56 98l58 33l144 34l-145 33l-57 33l56 97l57 -33l100 -105l-43 137v68z" />
    <glyph glyph-name="plus" unicode="+" horiz-adv-x="675" 
d="M64 410h202v203h142v-203h202v-142h-202v-203h-142v203h-202v142z" />
    <glyph glyph-name="comma" unicode="," horiz-adv-x="357" 
d="M83 146h199l-206 -276h-163z" />
    <glyph glyph-name="hyphen" unicode="-" horiz-adv-x="471" 
d="M93 395h328l-36 -172h-329z" />
    <glyph glyph-name="period" unicode="." horiz-adv-x="365" 
d="M200 6q-14 -11 -35 -15t-49 -4q-65 0 -83 23q-11 13 -11 41q0 35 12 65.5t34 44.5q26 16 82 16q61 0 78 -20q14 -14 14 -44q0 -31 -10.5 -61t-31.5 -46z" />
    <glyph glyph-name="slash" unicode="/" horiz-adv-x="484" 
d="M416 750h125l-461 -750h-125z" />
    <glyph glyph-name="zero" unicode="0" horiz-adv-x="675" 
d="M299 144q32 0 53.5 7.5t37.5 21.5q17 17 38 66.5t39 130.5q21 94 21 149q0 31 -8 47q-8 19 -30 28t-53 9q-29 0 -53 -7.5t-41 -24.5q-17 -18 -38 -69t-37 -125q-10 -45 -15.5 -81.5t-5.5 -63.5q0 -37 12 -56q10 -17 32 -24.5t48 -7.5zM420 760q88 0 138.5 -22.5
t76.5 -60.5q17 -24 26 -59.5t9 -83.5q0 -34 -5 -75.5t-15 -91.5q-20 -105 -58.5 -185.5t-86.5 -123.5q-46 -41 -102 -55t-128 -14q-83 0 -132.5 23.5t-76.5 58.5q-37 49 -37 162q0 32 4 68.5t12 78.5q20 109 59 190.5t90 123.5q42 35 96.5 51t129.5 15z" />
    <glyph glyph-name="one" unicode="1" horiz-adv-x="675" 
d="M28 0l31 142h175l95 453l-180 -26l31 146l366 57l-135 -630h160l-30 -142h-513z" />
    <glyph glyph-name="two" unicode="2" horiz-adv-x="675" 
d="M524 0h-534l19 93q16 53 35 90.5t49.5 68.5t77 59t118.5 63q59 30 92 48t50 35q17 16 26 41.5t9 52.5q0 25 -12 37q-20 21 -91 21q-32 0 -63.5 -3.5t-60 -8t-51.5 -9t-37 -7.5l31 145q19 5 46 11t59.5 11t68.5 8.5t72 3.5q146 0 198 -55q19 -20 27.5 -50t8.5 -62
q0 -28 -5.5 -58.5t-15.5 -59.5t-25 -55t-34 -45q-15 -15 -33.5 -28t-44 -26.5t-60 -28.5t-81.5 -34q-45 -19 -74.5 -34t-47.5 -27t-26 -22.5t-11 -20.5h383z" />
    <glyph glyph-name="three" unicode="3" horiz-adv-x="675" 
d="M644 603q0 -49 -20 -99.5t-59 -83.5l-94 -34l-1 -8l87 -36q11 -13 18 -37.5t7 -53.5q0 -63 -23 -115t-68 -85q-79 -61 -244 -61q-38 0 -74 3t-67.5 8t-57.5 10.5t-43 11.5l24 136l37.5 -7.5t48.5 -8t54.5 -6t57.5 -2.5q43 0 74.5 5.5t49.5 16.5q23 15 33 41t10 51t-15 39
q-10 10 -37.5 13.5t-70.5 3.5h-138l30 141h118q45 0 75 5t47 16q21 14 30 38.5t9 46.5q0 15 -3 24t-10 17q-19 18 -102 18q-25 0 -51.5 -2t-52 -5t-48 -7t-38.5 -7l31 138q20 5 46.5 11t58 10.5t66.5 7.5t71 3q81 0 126.5 -12t70.5 -38q37 -37 37 -107z" />
    <glyph glyph-name="four" unicode="4" horiz-adv-x="675" 
d="M466 0h-167l36 167h-345l31 152l335 431h269l-92 -436h134l-68 -147h-97zM366 314l59 279h-25l-199 -265l-2 -14h167z" />
    <glyph glyph-name="five" unicode="5" horiz-adv-x="675" 
d="M605 311q0 -38 -7.5 -75t-21.5 -71t-34.5 -62.5t-46.5 -48.5q-41 -31 -100 -46.5t-142 -15.5t-142.5 10t-94.5 21l28 138q13 -3 34 -7t46.5 -7t54 -5.5t57.5 -2.5q45 0 75.5 5.5t50.5 19.5q23 16 34.5 45.5t11.5 58.5q0 27 -16 40q-22 18 -95 18q-27 0 -55 -1t-54 -2.5
t-49 -3t-40 -2.5l92 433h488l-50 -155h-305l-29 -134q15 2 46 4t62 2q59 0 98.5 -9.5t63.5 -32.5q20 -19 30 -49t10 -65z" />
    <glyph glyph-name="six" unicode="6" horiz-adv-x="675" 
d="M657 626q-68 -1 -119 -6.5t-88.5 -14.5t-63.5 -21.5t-45 -26.5q-29 -23 -53.5 -65t-38.5 -99h7l79 62q20 7 47 12t59 5q52 0 88 -11.5t59 -33.5q40 -39 40 -125q0 -36 -7.5 -74t-23 -73.5t-38 -65.5t-52.5 -50q-40 -26 -89.5 -37t-109.5 -11q-143 0 -206 59
q-31 29 -46 73.5t-15 109.5q0 57 10.5 119.5t32.5 121.5t55.5 110.5t79.5 86.5q34 26 72 44.5t87 30.5t111 18.5t143 9.5zM393 162q22 18 32 51.5t10 64.5q0 14 -2.5 24.5t-10.5 17.5q-19 20 -77 20q-31 0 -60 -3.5t-46 -7.5q-11 -58 -11 -98q0 -50 21 -71t67 -21
q24 0 43.5 5t33.5 18z" />
    <glyph glyph-name="seven" unicode="7" horiz-adv-x="675" 
d="M669 595l-410 -595h-219l416 573l3 15h-352l61 162h534z" />
    <glyph glyph-name="eight" unicode="8" horiz-adv-x="675" 
d="M391 624q-26 0 -44.5 -5t-32.5 -14q-17 -13 -25 -35.5t-8 -41.5q0 -17 7 -30.5t24 -24t45.5 -19.5t70.5 -16q23 27 41 57.5t18 64.5q0 24 -13 38q-21 26 -83 26zM263 329q-28 -24 -48 -56t-20 -72q0 -27 13 -43q11 -14 33 -21t58 -7q25 0 46 5t37 16q20 13 28.5 37
t8.5 46q0 18 -8.5 31.5t-27.5 24t-48.5 20t-71.5 19.5zM201 368l1 9l-70 40q-11 14 -21 39.5t-10 62.5q0 57 23.5 105.5t66.5 79.5q38 28 91 42t131 14q85 0 137 -15.5t80 -43.5q20 -20 29 -47.5t9 -56.5q0 -55 -24.5 -98.5t-59.5 -69.5l-91 -30l-2 -8l78 -37q16 -17 28 -42
t12 -65q0 -63 -26.5 -116.5t-77.5 -87.5q-40 -26 -95.5 -39t-130.5 -13q-87 0 -142.5 18t-86.5 50q-19 20 -29 48.5t-10 60.5q0 53 22 98t65 74z" />
    <glyph glyph-name="nine" unicode="9" horiz-adv-x="675" 
d="M307 592q-11 -9 -19 -23t-13.5 -30t-8 -33t-2.5 -31q0 -32 15 -47q21 -20 81 -20q26 0 54.5 4t46.5 9q5 27 8 53.5t3 46.5q0 49 -20 70q-22 22 -68 22q-50 0 -77 -21zM359 194q30 23 54.5 67t37.5 101h-8l-77 -66q-20 -7 -47 -12t-59 -5q-51 0 -86 11.5t-58 33.5
q-22 21 -33 51.5t-11 75.5q0 31 5 65.5t17 68.5t31 64.5t48 52.5q39 31 93.5 44.5t123.5 13.5q138 0 201 -53q35 -29 51.5 -74.5t16.5 -113.5q0 -57 -10.5 -120t-32.5 -122t-55 -111t-79 -87q-34 -26 -72.5 -44t-87.5 -30t-111 -18.5t-143 -9.5l-25 148q68 1 119 6.5
t88.5 14.5t64 21t44.5 27z" />
    <glyph glyph-name="colon" unicode=":" horiz-adv-x="370" 
d="M292 406q-14 -10 -35 -14t-50 -4q-62 0 -81 22q-12 13 -12 42q0 35 12.5 65t34.5 44q13 9 33.5 13t47.5 4q61 0 78 -20q15 -15 15 -45q0 -31 -10.5 -60.5t-32.5 -46.5zM200 5q-26 -19 -84 -19q-64 0 -82 23q-12 13 -12 42q0 35 12.5 65t34.5 44q13 9 33.5 13t47.5 4
q60 0 79 -20q14 -16 14 -45q0 -30 -10.5 -60t-32.5 -47z" />
    <glyph glyph-name="semicolon" unicode=";" horiz-adv-x="373" 
d="M82 146h198l-206 -276h-163zM289 406q-14 -10 -35 -14t-50 -4q-62 0 -82 22q-11 14 -11 42q0 35 12.5 65t33.5 44q24 17 82 17q61 0 78 -20q14 -14 14 -45t-10 -60.5t-32 -46.5z" />
    <glyph glyph-name="less" unicode="&#x3c;" horiz-adv-x="675" 
d="M610 659v-159l-375 -162l375 -162v-158l-546 250v140z" />
    <glyph glyph-name="equal" unicode="=" horiz-adv-x="675" 
d="M64 548h546v-141h-546v141zM64 271h546v-142h-546v142z" />
    <glyph glyph-name="greater" unicode="&#x3e;" horiz-adv-x="675" 
d="M64 18v158l374 162l-374 162v159l546 -251v-140z" />
    <glyph glyph-name="question" unicode="?" horiz-adv-x="552" 
d="M135 248l8 36q8 33 16 58t22 44.5t36 35.5t58 33q33 16 53 26.5t31 21.5t17.5 28.5t6.5 35.5q0 11 -2.5 17t-9.5 13q-17 17 -88 17q-57 0 -109 -7.5t-82 -13.5l29 140q36 9 91.5 18t124.5 9q66 0 113.5 -9.5t74.5 -31.5q45 -35 45 -111q0 -23 -4 -48t-11.5 -49t-18.5 -45
t-26 -35q-24 -23 -58 -40t-82 -40q-24 -11 -39 -20.5t-24 -19t-13 -19.5t-6 -22l-4 -22h-149zM250 5q-13 -10 -34.5 -14.5t-49.5 -4.5q-64 0 -82 23q-11 14 -11 42q0 35 12 65t35 44q13 9 33.5 13t46.5 4q29 0 49.5 -4.5t29.5 -15.5q14 -16 14 -45q0 -30 -10.5 -60
t-32.5 -47z" />
    <glyph glyph-name="at" unicode="@" horiz-adv-x="945" 
d="M435 415q-10 -8 -18.5 -23.5t-15 -35t-10.5 -41.5t-4 -43q0 -18 3.5 -33t9.5 -21q13 -13 44 -13q24 0 44 6t38 14l31 204q-10 1 -23.5 3t-33.5 2q-22 0 -37 -4t-28 -15zM662 85q-34 0 -68 8.5t-50 23.5l-12 58h-5l-59 -72q-15 -7 -32.5 -11.5t-47.5 -4.5t-54.5 8
t-43.5 28q-17 18 -26.5 51.5t-9.5 78.5q0 81 25.5 148.5t73.5 102.5q29 20 65 28.5t73 8.5q34 0 71.5 -8.5t61.5 -17.5l39 20h34l-41 -254q-2 -14 -3 -25.5t-1 -19.5q0 -22 10 -31t31 -9q15 0 27.5 5.5t20.5 13.5q13 12 25 46t12 101q0 59 -11 112t-41 85q-29 32 -90.5 49
t-143.5 17q-81 0 -136 -16t-91 -48q-15 -14 -30.5 -36.5t-28 -54.5t-20.5 -73t-8 -90q0 -93 18.5 -151t53.5 -94q32 -33 94.5 -50.5t149.5 -17.5q80 0 149 9.5t112 18.5v-109q-46 -15 -115.5 -28.5t-168.5 -13.5q-121 0 -200 29.5t-124 72.5q-21 21 -39.5 49t-32.5 66.5
t-22 89.5t-8 118q0 66 11 121.5t29.5 100.5t43 78.5t51.5 56.5q54 44 134.5 67t183.5 23q116 0 197 -23t129 -72q42 -44 65 -112t23 -157q0 -80 -20 -142t-49 -91q-30 -29 -74 -45t-107 -16z" />
    <glyph glyph-name="A" unicode="A" horiz-adv-x="789" 
d="M515 0l-17 205h-240l-108 -205h-206l413 750h276l78 -750h-196zM471 587h-23l-117 -235h156z" />
    <glyph glyph-name="B" unicode="B" horiz-adv-x="742" 
d="M684 263q0 -25 -6.5 -56.5t-20 -63t-34 -60t-49.5 -46.5q-37 -23 -92 -30t-110 -7h-357l158 750h314q91 0 137.5 -9t68.5 -27q17 -14 26.5 -38t9.5 -59q0 -57 -19 -102.5t-52 -74.5l-94 -42l-1 -7q26 -7 54 -18t42 -28q25 -28 25 -82zM473 456q12 6 21 17t15 24.5t9 28.5
t3 29q0 24 -13 37q-8 8 -25.5 10.5t-37.5 2.5h-111l-33 -159h110q17 0 34.5 2.5t27.5 7.5zM446 156q19 13 31 41.5t12 55.5q0 28 -15 42q-10 9 -30 11.5t-46 2.5h-126l-36 -168h122q26 0 50.5 3.5t37.5 11.5z" />
    <glyph glyph-name="C" unicode="C" horiz-adv-x="692" 
d="M714 588q-32 5 -79 10t-102 5q-68 0 -105.5 -10t-62.5 -29q-26 -20 -46 -53.5t-34 -74t-21.5 -84t-7.5 -82.5q0 -27 5 -50t16 -36q32 -35 126 -35q63 0 122.5 9t99.5 17l-30 -146q-42 -14 -105.5 -26t-145.5 -12q-91 0 -148.5 19.5t-89.5 60.5q-22 27 -34.5 69.5
t-12.5 100.5q0 66 12.5 132.5t36 126.5t58 109.5t78.5 81.5q51 36 118 52.5t158 16.5q74 0 127.5 -8t95.5 -18z" />
    <glyph glyph-name="D" unicode="D" horiz-adv-x="808" 
d="M469 750q57 0 101 -5t77 -15t56 -24.5t39 -33.5q20 -26 32.5 -66t12.5 -103q0 -60 -13 -125t-37 -125t-57.5 -110t-74.5 -79q-51 -38 -125.5 -51t-166.5 -13h-300l158 750h298zM330 593l-93 -436h95q59 0 95.5 7t58.5 24q25 18 44.5 54.5t33 79t21 85t7.5 72.5
q0 29 -4.5 47.5t-15.5 32.5q-28 34 -136 34h-106z" />
    <glyph glyph-name="E" unicode="E" horiz-adv-x="648" 
d="M522 0h-518l158 750h541l-61 -157h-321l-29 -137h290l-59 -151h-263l-31 -146h359z" />
    <glyph glyph-name="F" unicode="F" horiz-adv-x="613" 
d="M4 0l158 750h532l-61 -156h-312l-34 -161h279l-61 -153h-250l-60 -280h-191z" />
    <glyph glyph-name="G" unicode="G" horiz-adv-x="772" 
d="M754 588q-39 5 -90.5 10t-113.5 5q-73 0 -116.5 -9t-69.5 -28q-28 -21 -49 -58t-35 -80.5t-21 -89t-7 -82.5q0 -59 22 -84q30 -33 112 -33q35 0 57 2t40 4l33 146h-146l51 138h306l-84 -394q-20 -6 -48.5 -13.5t-63.5 -14.5t-76 -11.5t-85 -4.5q-103 0 -164.5 20.5
t-96.5 61.5q-22 26 -36.5 67t-14.5 105q0 67 12 133t35 125t58 107t80 80q50 36 118.5 53t165.5 17q78 0 144 -8.5t110 -17.5z" />
    <glyph glyph-name="H" unicode="H" horiz-adv-x="813" 
d="M482 0l63 299h-275l-64 -299h-191l158 750h192l-62 -292h276l62 292h192l-159 -750h-192z" />
    <glyph glyph-name="I" unicode="I" horiz-adv-x="345" 
d="M15 0l158 750h192l-159 -750h-191z" />
    <glyph glyph-name="J" unicode="J" horiz-adv-x="584" 
d="M175 -11q-30 0 -60 2.5t-56.5 6t-49 7.5t-37.5 8l20 148q26 -5 66 -10t82 -5q51 0 79.5 9t45.5 23q16 14 30 45.5t29 97.5l90 429h191l-93 -440q-20 -97 -45.5 -158t-67.5 -99q-39 -34 -94.5 -49t-129.5 -15z" />
    <glyph glyph-name="K" unicode="K" horiz-adv-x="777" 
d="M706 0h-227l-156 357h-42l-76 -357h-190l159 750h190l-78 -367l336 367h251l-356 -368z" />
    <glyph glyph-name="L" unicode="L" horiz-adv-x="629" 
d="M241 159h347l-68 -159h-504l158 750h192z" />
    <glyph glyph-name="M" unicode="M" horiz-adv-x="1028" 
d="M711 0l124 585h-12l-245 -490h-231l-26 488h-12l-124 -583h-170l158 750h294l22 -492h16l231 492h311l-159 -750h-177z" />
    <glyph glyph-name="N" unicode="N" horiz-adv-x="884" 
d="M452 0l-124 585h-16l-124 -585h-172l158 750h299l118 -584h15l124 584h174l-159 -750h-293z" />
    <glyph glyph-name="O" unicode="O" horiz-adv-x="829" 
d="M384 149q44 -1 74 8.5t52 26.5t40.5 51.5t32.5 76.5t22 86.5t8 82.5q0 50 -18 76q-11 18 -40.5 29.5t-74.5 11.5q-43 0 -73 -9t-54 -28q-24 -21 -43 -56t-32 -76t-20 -83.5t-7 -77.5q0 -30 4.5 -48t13.5 -30q14 -19 43.5 -30t71.5 -11zM499 760q102 0 163 -23.5t93 -61.5
q26 -32 38.5 -78t12.5 -100q0 -56 -11 -118.5t-33.5 -122t-55.5 -111.5t-78 -87q-48 -37 -118 -53t-142 -16q-52 0 -92 6t-71 17.5t-53.5 27t-38.5 33.5q-23 26 -38 70t-15 112q0 60 11 123t33 121t55 107t77 82q48 35 110.5 53.5t152.5 18.5z" />
    <glyph glyph-name="P" unicode="P" horiz-adv-x="698" 
d="M260 251l-53 -251h-191l158 750h302q78 0 122.5 -12.5t67.5 -34.5q20 -20 32 -51t12 -77q0 -39 -7 -79.5t-22 -78t-37 -69t-52 -51.5q-20 -14 -43 -22.5t-52 -14t-64.5 -7.5t-80.5 -2h-92zM465 409q15 8 26 23t17.5 33t10 37.5t3.5 36.5t-3.5 27.5t-10.5 18.5
q-8 10 -29 14.5t-51 4.5h-93l-44 -208h81q37 0 59 3t34 10z" />
    <glyph glyph-name="Q" unicode="Q" horiz-adv-x="829" 
d="M499 760q102 0 163 -23.5t93 -61.5q26 -32 38.5 -78t12.5 -100q0 -55 -10.5 -117.5t-32.5 -122.5t-55.5 -112.5t-79.5 -86.5q-62 -46 -154 -60v-6l89 -31l95 -167h-219l-86 197h-7q-90 0 -147 24.5t-86 57.5q-23 26 -38 70t-15 112q0 59 11 121.5t33 121t55 108t77 82.5
q48 35 110.5 53.5t152.5 18.5zM269 190q19 -26 53.5 -33.5t67.5 -7.5q42 0 70.5 9.5t49.5 25.5q22 17 41 51.5t32.5 76.5t21.5 86.5t8 82.5q0 50 -18 76q-11 18 -40.5 29.5t-74.5 11.5q-43 0 -73.5 -8.5t-53.5 -28.5q-25 -21 -44 -56t-32 -76.5t-19.5 -84t-6.5 -76.5
q0 -30 4.5 -48t13.5 -30z" />
    <glyph glyph-name="R" unicode="R" horiz-adv-x="733" 
d="M725 601q0 -29 -5 -59.5t-15.5 -60t-25.5 -56t-35 -45.5q-9 -5 -25 -12t-35.5 -14t-40.5 -13.5t-38 -12.5v-6q8 -5 19.5 -12t22.5 -14.5t20 -15t12 -12.5q7 -11 17 -40t21 -67t22 -80.5t19 -80.5h-207q-18 102 -35.5 170t-31.5 82q-9 9 -35 12t-52 3h-34l-57 -267h-191
l158 750h300q45 0 78.5 -3t58.5 -8t42 -12t28 -16q45 -34 45 -110zM469 433q25 14 40 47t15 67q0 26 -13 42q-16 17 -76 17h-100l-41 -189h79q38 0 60 4t36 12z" />
    <glyph glyph-name="S" unicode="S" horiz-adv-x="649" 
d="M588 256q-1 -32 -7.5 -63.5t-19 -60.5t-30.5 -53.5t-41 -40.5q-68 -51 -234 -51q-41 0 -79.5 3t-72 8t-61.5 10.5t-47 11.5l22 143q16 -3 41.5 -7.5t55.5 -8t61.5 -6t57.5 -2.5q51 0 78.5 5t38.5 13q14 10 22 27.5t10 38.5q2 26 -12 40q-9 8 -27.5 16.5t-42 18
t-49.5 20.5t-50 23t-44.5 25.5t-31.5 28.5q-14 18 -22 45t-7 65q1 27 7 56t18.5 57.5t31.5 53t45 42.5q32 23 88 36.5t151 13.5q35 0 69.5 -2t65.5 -5.5t56.5 -7.5t43.5 -7l-24 -149q-36 5 -92 11t-122 6q-48 0 -74 -6t-37 -14q-12 -10 -19 -27.5t-8 -36.5q-2 -20 8 -31
q11 -14 45.5 -28.5t75 -30t78 -33.5t55.5 -39q14 -16 22.5 -43.5t6.5 -64.5z" />
    <glyph glyph-name="T" unicode="T" horiz-adv-x="660" 
d="M680 595h-202l-127 -595h-191l126 595h-215l57 155h606z" />
    <glyph glyph-name="U" unicode="U" horiz-adv-x="785" 
d="M803 750l-95 -446q-19 -92 -44 -150t-62 -92q-37 -35 -102.5 -54.5t-162.5 -19.5q-57 0 -99 7t-71.5 19t-49 28t-31.5 34q-14 20 -22 47.5t-8 61.5q0 26 3.5 58.5t14.5 80.5l90 426h192l-92 -437q-8 -32 -11 -55t-3 -38q0 -23 10 -36q9 -13 32.5 -22t66.5 -9q39 0 66 8.5
t42 21.5q14 12 26 39t23 81l96 447h191z" />
    <glyph glyph-name="V" unicode="V" horiz-adv-x="772" 
d="M460 0h-300l-57 750h202l26 -571h25l276 571h220z" />
    <glyph glyph-name="W" unicode="W" horiz-adv-x="1180" 
d="M916 0h-278l8 569h-17l-242 -569h-287l10 750h194l-24 -569h21l246 569h266l-11 -569h21l224 569h208z" />
    <glyph glyph-name="X" unicode="X" horiz-adv-x="751" 
d="M354 283l-184 -283h-221l272 383l-97 367h205l60 -281h29l185 281h220l-268 -382l108 -368h-206l-73 283h-30z" />
    <glyph glyph-name="Y" unicode="Y" horiz-adv-x="721" 
d="M385 0h-202l50 236l-132 514h195l66 -325h15l207 325h228l-377 -514z" />
    <glyph glyph-name="Z" unicode="Z" horiz-adv-x="708" 
d="M711 575l-446 -399l-4 -16h392l-62 -160h-607l36 176l441 401l4 16h-330l60 157h554z" />
    <glyph glyph-name="bracketleft" unicode="[" horiz-adv-x="366" 
d="M197 854h259l-23 -108h-115l-158 -742h115l-23 -108h-258z" />
    <glyph glyph-name="backslash" unicode="\" horiz-adv-x="480" 
d="M408 0h-119l-206 750h119z" />
    <glyph glyph-name="bracketright" unicode="]" horiz-adv-x="366" 
d="M194 -104h-258l23 108h114l158 742h-115l23 108h259z" />
    <glyph glyph-name="asciicircum" unicode="^" horiz-adv-x="659" 
d="M627 287h-150l-149 309l-146 -309h-149l235 458h123z" />
    <glyph glyph-name="underscore" unicode="_" horiz-adv-x="558" 
d="M-28 -96h558l-9 -80h-558z" />
    <glyph glyph-name="grave" unicode="`" horiz-adv-x="389" 
d="M233 765l119 -144h-117l-169 144h167z" />
    <glyph glyph-name="a" unicode="a" horiz-adv-x="641" 
d="M359 0l-17 92h-7l-79 -84q-17 -8 -43.5 -12t-56.5 -4q-51 0 -80.5 10t-46.5 30q-13 15 -18 36.5t-5 45.5q0 25 5 51.5t15 50.5t25 44.5t35 33.5q18 12 44 20.5t63 15.5t85.5 12t113.5 9q6 21 6 43q0 15 -6 24q-14 19 -86 19q-26 0 -54 -2t-55 -4.5t-50.5 -5.5t-41.5 -6
l29 125q40 10 106.5 20t142.5 10q77 0 119 -12.5t62 -37.5q27 -32 27 -89q0 -23 -3.5 -54t-11.5 -67l-68 -314h-149zM370 244q-20 0 -43.5 -1.5t-45 -3.5t-38 -5.5t-23.5 -7.5q-15 -11 -23.5 -33.5t-8.5 -41.5q0 -9 1 -15t6 -11q6 -7 19.5 -9.5t32.5 -2.5q29 0 56 6t41 11z
" />
    <glyph glyph-name="b" unicode="b" horiz-adv-x="696" 
d="M662 423q0 -44 -9.5 -98t-28 -107t-47 -99t-65.5 -73q-37 -26 -85 -40t-125 -14q-67 0 -120.5 11.5t-83.5 22.5l-56 -26h-37l169 798h191l-69 -325h8q2 3 15.5 15.5t29 27t28 26.5t13.5 13q17 8 46.5 14.5t66.5 6.5q44 0 75.5 -9.5t50.5 -30.5q33 -36 33 -113zM384 153
q16 11 30 37.5t24.5 58.5t16.5 64.5t6 56.5q0 32 -11 45q-15 19 -60 19q-31 0 -58.5 -6t-47.5 -14l-60 -277q11 -2 29.5 -3.5t41.5 -1.5q29 0 50.5 4t38.5 17z" />
    <glyph glyph-name="c" unicode="c" horiz-adv-x="540" 
d="M401 433q-32 0 -58 -6t-44 -20q-17 -13 -30.5 -36t-23 -50t-14.5 -55t-5 -51q0 -40 20 -60q22 -22 81 -22q39 0 79 6t69 12l-33 -134q-35 -11 -80 -19t-102 -8q-60 0 -102.5 11.5t-72.5 38.5q-25 23 -38.5 58.5t-13.5 83.5q0 46 8.5 95.5t26.5 96t45 86t64 65.5
q38 26 84.5 37.5t103.5 11.5q67 0 111 -6.5t75 -13.5l-22 -133q-28 5 -58 8.5t-70 3.5z" />
    <glyph glyph-name="d" unicode="d" horiz-adv-x="698" 
d="M539 802h191l-171 -802h-153l-11 99h-8l-17 -17t-29.5 -30.5t-29 -30l-14.5 -14.5q-16 -7 -42.5 -11.5t-61.5 -4.5q-40 0 -72.5 11.5t-54.5 34.5q-36 39 -36 125q0 45 8.5 96.5t26 100t44.5 91t64 69.5q70 51 183 51q34 0 71 -4t60 -10zM301 412q-18 -14 -32 -40
t-24 -56.5t-15 -61.5t-5 -55q0 -37 11 -49q16 -17 61 -17q30 0 57.5 8t47.5 16l59 272q-14 2 -31.5 4t-38.5 2q-29 0 -50.5 -5t-39.5 -18z" />
    <glyph glyph-name="e" unicode="e" horiz-adv-x="620" 
d="M32 190q0 46 8 92t24 88.5t40 78.5t55 62q40 33 93.5 49.5t128.5 16.5q118 0 169.5 -42t51.5 -117q0 -101 -70 -145t-194 -44q-67 0 -112 6q-2 -11 -3 -20t-1 -18q0 -17 3.5 -29t14.5 -21q23 -20 95 -20q28 0 56 2.5t54 6.5t48.5 8t38.5 7l-41 -130q-43 -12 -96.5 -21
t-131.5 -9q-67 0 -111 14t-72 43q-23 24 -35.5 59t-12.5 83zM358 454q-21 0 -36.5 -6t-28.5 -17q-14 -12 -25.5 -34.5t-19.5 -51.5q14 -2 33.5 -3t38.5 0q49 0 74 18t25 48q0 20 -14.5 33t-46.5 13z" />
    <glyph glyph-name="f" unicode="f" horiz-adv-x="411" 
d="M433 424h-133l-91 -424h-190l90 424h-72l38 137h63l10 46q12 52 30.5 89t46.5 61t68 35.5t94 11.5q49 0 88 -5t60 -9l-27 -126q-16 2 -37.5 5t-44.5 3q-44 0 -62.5 -17.5t-26.5 -54.5l-9 -39h148z" />
    <glyph glyph-name="g" unicode="g" horiz-adv-x="692" 
d="M573 79q-22 -101 -50.5 -166t-72.5 -107q-45 -42 -105.5 -60t-148.5 -18q-35 0 -69.5 3t-65.5 8t-56 10t-41 10l23 143q15 -3 38 -7t50 -7.5t56.5 -6t58.5 -2.5q46 0 79 6.5t51 21.5q17 14 30.5 50.5t26.5 92.5l8 41h-6l-85 -77q-17 -7 -44.5 -12t-65.5 -5q-78 0 -119 41
q-17 18 -27 49t-10 77q0 47 8.5 98.5t26.5 99t45 88.5t64 67q37 27 85.5 40t119.5 13q31 0 61 -3t56 -7.5t46.5 -9.5t33.5 -9l63 22h39zM457 428q-11 2 -30 4t-43 2q-26 0 -46.5 -4.5t-38.5 -18.5q-19 -14 -33.5 -40t-24.5 -56.5t-15 -61.5t-5 -56q0 -16 3 -28.5t10 -20.5
q16 -18 63 -18q30 0 55.5 6t44.5 13z" />
    <glyph glyph-name="h" unicode="h" horiz-adv-x="696" 
d="M370 0l68 318q4 19 6.5 34t2.5 26q0 9 -1.5 17t-6.5 13q-7 9 -21 12t-32 3q-32 0 -58 -7t-46 -15l-86 -401h-190l170 798h190l-73 -339h8l73 79q20 11 56 20t80 9q41 0 70.5 -10.5t44.5 -31.5q23 -29 23 -81q0 -20 -4 -47t-11 -59l-71 -338h-192z" />
    <glyph glyph-name="i" unicode="i" horiz-adv-x="332" 
d="M10 0l118 561h190l-119 -561h-189zM327 662q-14 -10 -36 -14t-48 -4q-59 0 -78 22q-12 13 -10 44q2 30 13.5 57t32.5 39q12 7 30 10.5t47 3.5q27 0 47 -4t29 -14q8 -8 11 -20.5t3 -28.5q-2 -27 -11.5 -52t-29.5 -39z" />
    <glyph glyph-name="j" unicode="j" horiz-adv-x="332" 
d="M189 -52q-25 -118 -87.5 -170.5t-174.5 -52.5q-38 0 -71.5 4.5t-53.5 8.5l19 126q14 -2 34.5 -4t43.5 -2q22 0 38.5 5t28.5 16t20 29.5t13 44.5l129 608h191zM327 662q-14 -10 -36 -14t-48 -4q-59 0 -78 22q-12 13 -10 44q2 30 13.5 57t32.5 39q12 7 30 10.5t47 3.5
q27 0 47 -4t29 -14q8 -8 11 -20.5t3 -28.5q-2 -27 -11.5 -52t-29.5 -39z" />
    <glyph glyph-name="k" unicode="k" horiz-adv-x="647" 
d="M584 0h-210l-88 259h-34l-55 -259h-190l170 798h190l-109 -510l221 273h227l-246 -270z" />
    <glyph glyph-name="l" unicode="l" horiz-adv-x="388" 
d="M363 799l-127 -596q-5 -25 -5 -38q0 -20 10.5 -27.5t31.5 -7.5q17 0 35 2.5t32 4.5l-26 -125q-23 -5 -59 -12t-81 -7q-72 0 -106 28t-34 87q0 23 4 48t9 53l126 590h190z" />
    <glyph glyph-name="m" unicode="m" horiz-adv-x="1030" 
d="M358 0l69 321q8 38 8 59q0 16 -6 27q-8 9 -20.5 12.5t-26.5 3.5q-27 0 -51.5 -7.5t-44.5 -15.5l-85 -400h-191l119 561h150l14 -102h7l67 81q21 10 53 18.5t77 8.5q57 0 93 -24.5t44 -83.5h8l71 81q21 10 52.5 18.5t76.5 8.5q42 0 72.5 -10.5t47.5 -32.5q11 -15 16.5 -34
t5.5 -45q0 -20 -3.5 -49t-11.5 -67l-71 -329h-191l68 321q9 36 9 59q0 16 -6 27q-8 9 -21 12.5t-27 3.5q-24 0 -49.5 -7.5t-47.5 -15.5l-83 -400h-192z" />
    <glyph glyph-name="n" unicode="n" horiz-adv-x="698" 
d="M375 0l68 323q8 38 8 60q0 8 -1.5 15t-5.5 12q-8 10 -22 13t-31 3q-30 0 -56.5 -8t-48.5 -16l-85 -402h-191l119 561h152l12 -102h7l71 83q24 11 60 19.5t80 8.5q86 0 119 -43q10 -14 16 -33.5t6 -45.5q0 -20 -3.5 -46.5t-12.5 -68.5l-70 -333h-191z" />
    <glyph glyph-name="o" unicode="o" horiz-adv-x="667" 
d="M634 373q0 -45 -9 -93.5t-27 -93.5t-44 -82.5t-60 -61.5q-42 -29 -94 -40.5t-121 -11.5q-80 0 -128 18t-74 47q-20 23 -31 57.5t-11 82.5q0 41 7.5 86.5t24 89t41.5 81.5t60 65q39 29 92 44t127 15q86 -1 133.5 -20t70.5 -45q18 -21 30.5 -54.5t12.5 -83.5zM380 153
q14 12 26.5 36t22 53t15 59.5t5.5 56.5q0 20 -3 32t-10 20q-18 23 -67 23q-30 0 -49 -6.5t-33 -17.5q-15 -12 -28 -36t-22 -52.5t-14 -58.5t-5 -55q0 -37 12 -52q10 -12 27 -18.5t45 -6.5q52 0 78 23z" />
    <glyph glyph-name="p" unicode="p" horiz-adv-x="692" 
d="M143 -264h-190l175 825h155l9 -100h7l87 90q18 9 46 14.5t64 5.5q84 0 125 -44q17 -18 26.5 -50.5t9.5 -77.5q0 -47 -8.5 -98.5t-26 -100t-44.5 -91t-65 -69.5q-35 -26 -79.5 -37t-101.5 -11q-34 0 -71.5 4t-59.5 9zM386 147q17 12 31.5 36t24.5 53.5t15.5 60.5t5.5 57
q0 38 -14 54q-14 18 -61 18q-30 0 -55.5 -5.5t-46.5 -13.5l-60 -276q13 -2 31.5 -4t39.5 -2q29 0 50 5t39 17z" />
    <glyph glyph-name="q" unicode="q" horiz-adv-x="702" 
d="M32 154q0 46 9 99.5t27 103.5t46 93.5t67 70.5q37 26 84.5 38.5t118.5 12.5q66 0 121.5 -9.5t86.5 -20.5l50 24h42l-174 -823h-191l74 351h-8l-15.5 -15.5t-29 -28.5t-28.5 -27t-14 -13q-17 -8 -44.5 -13t-60.5 -5q-89 0 -128 44q-33 37 -33 118zM306 413
q-18 -13 -32.5 -40.5t-24.5 -59.5t-15.5 -64t-5.5 -53q0 -33 12 -46q16 -16 61 -16q29 0 58.5 6.5t46.5 13.5l59 276q-13 2 -30.5 3.5t-40.5 1.5q-29 0 -50 -4.5t-38 -17.5z" />
    <glyph glyph-name="r" unicode="r" horiz-adv-x="489" 
d="M273 561l16 -104h7l68 87q20 11 48.5 17.5t60.5 6.5q17 0 30.5 -1t26.5 -3l-33 -168q-20 4 -44 8t-58 4q-35 0 -63.5 -6t-49.5 -17l-82 -385h-190l119 561h144z" />
    <glyph glyph-name="s" unicode="s" horiz-adv-x="526" 
d="M465 207q0 -21 -5 -46.5t-15 -50.5t-25.5 -46.5t-37.5 -35.5q-30 -19 -74 -27.5t-116 -8.5q-65 0 -116.5 9t-84.5 17l14 126q25 -6 72.5 -13.5t102.5 -7.5q32 0 50.5 3.5t26.5 8.5t13.5 16.5t5.5 24.5q0 7 -1 11.5t-6 9.5q-7 7 -31.5 15.5t-53.5 18t-56.5 21.5t-41.5 26
q-26 27 -26 83q0 21 5 45.5t15.5 48.5t27 45.5t39.5 36.5q32 20 78 28t106 8q63 0 113 -6t81 -11l-22 -125q-30 4 -74.5 8t-93.5 4q-30 0 -48 -3t-28 -11q-7 -6 -11.5 -18t-4.5 -23q0 -12 6 -19q9 -9 34.5 -18t55 -18t57 -19.5t41.5 -23.5q28 -27 28 -83z" />
    <glyph glyph-name="t" unicode="t" horiz-adv-x="446" 
d="M442 423h-142l-45 -206q-3 -14 -5 -27t-2 -24q0 -20 12.5 -28.5t38.5 -8.5q25 0 53.5 4t43.5 6l-35 -129q-26 -6 -66.5 -12.5t-87.5 -6.5q-83 0 -120 29t-37 91q0 34 9 76l50 236h-74l42 137h61l19 86l198 35l-26 -121h162z" />
    <glyph glyph-name="u" unicode="u" horiz-adv-x="699" 
d="M316 561l-68 -319q-4 -20 -6.5 -35.5t-2.5 -26.5q0 -18 7 -26q8 -9 22 -12.5t32 -3.5q30 0 56.5 7.5t48.5 15.5l85 400h191l-120 -561h-150l-12 104h-7l-73 -86q-21 -10 -54 -17.5t-76 -7.5q-92 0 -126 46q-23 31 -23 81q0 20 2.5 42.5t9.5 52.5l73 346h191z" />
    <glyph glyph-name="v" unicode="v" horiz-adv-x="645" 
d="M386 0h-276l-51 561h190l21 -400h19l190 400h212z" />
    <glyph glyph-name="w" unicode="w" horiz-adv-x="985" 
d="M768 0h-254v403h-12l-178 -403h-265l14 561h182l-24 -400h15l181 400h238l-5 -400h14l153 400h194z" />
    <glyph glyph-name="x" unicode="x" horiz-adv-x="630" 
d="M281 205l-134 -205h-214l219 295l-82 266h189l51 -198h22l127 198h207l-204 -283l95 -278h-196l-57 205h-23z" />
    <glyph glyph-name="y" unicode="y" horiz-adv-x="646" 
d="M239 -270h-197l153 270h-88l-51 561h190l21 -400h17l197 400h210z" />
    <glyph glyph-name="z" unicode="z" horiz-adv-x="579" 
d="M550 407l-300 -249l-3 -16h275l-55 -142h-489l31 149l301 256l3 15h-234l56 141h447z" />
    <glyph glyph-name="braceleft" unicode="{" horiz-adv-x="439" 
d="M57 444q47 2 76 16.5t43 37.5q11 17 19.5 42.5t17 53.5t18.5 55.5t24 49.5q13 19 30.5 35.5t35.5 29t35 22t28 15.5h153q-19 -13 -39 -28.5t-39 -32.5t-36.5 -35t-30.5 -36q-16 -23 -28 -53.5t-23 -61.5t-22.5 -59t-24.5 -45q-7 -9 -21 -19t-31.5 -19t-36.5 -16.5
t-37 -11.5l-1 -7q19 -7 37 -17.5t31.5 -24t21.5 -30t8 -35.5q0 -16 -1.5 -36.5t-3 -42.5t-3 -43t-1.5 -37q0 -45 26.5 -86.5t68.5 -83.5h-142q-38 26 -61.5 66.5t-23.5 88.5q0 20 1.5 42.5t4 44.5t4 41.5t1.5 33.5q0 30 -27.5 50.5t-73.5 26.5z" />
    <glyph glyph-name="bar" unicode="|" horiz-adv-x="256" 
d="M96 853h64v-1126h-64v1126z" />
    <glyph glyph-name="braceright" unicode="}" horiz-adv-x="439" 
d="M405 298q-47 -2 -76.5 -16.5t-43.5 -37.5q-11 -17 -19 -42.5t-16.5 -53.5t-18.5 -55.5t-24 -49.5q-13 -19 -30.5 -35.5t-35.5 -29t-35 -22t-28 -15.5h-153q38 26 78.5 61t65.5 71q16 22 28 53t23.5 62t22.5 59t25 45q7 9 21 18.5t31.5 18.5t36.5 16.5t37 12.5l1 7
q-19 7 -37 17.5t-31.5 24t-21.5 30t-8 35.5q0 16 1.5 36.5t3.5 42t3.5 42.5t1.5 38q0 45 -27 86.5t-69 83.5h142q38 -26 61.5 -66.5t23.5 -88.5q0 -20 -1.5 -42.5t-4 -44.5t-4 -41.5t-1.5 -33.5q0 -30 27.5 -50.5t73.5 -26.5z" />
    <glyph glyph-name="asciitilde" unicode="~" horiz-adv-x="675" 
d="M451 224q-40 0 -72 14t-59.5 31.5t-52.5 31.5t-50 14q-35 0 -73.5 -27t-80.5 -62v147q15 15 34.5 29.5t41 25.5t44.5 18t45 7q39 0 70.5 -14t58.5 -30.5t51 -30.5t47 -14q42 0 80 26t76 61v-148q-36 -35 -77.5 -57t-82.5 -22z" />
    <glyph glyph-name="uni00A0" unicode="&#xa0;" horiz-adv-x="246" 
 />
    <glyph glyph-name="exclamdown" unicode="&#xa1;" horiz-adv-x="369" 
d="M265 312l-89 -500h-194l126 500h157zM158 560q15 10 35.5 12.5t45.5 2.5q68 0 85 -25q9 -14 9 -39q0 -40 -14.5 -69.5t-33.5 -40.5q-12 -8 -30.5 -12t-49.5 -4q-60 0 -79 19q-14 15 -14 46q0 18 4 35.5t10.5 32t14.5 25.5t17 17z" />
    <glyph glyph-name="cent" unicode="&#xa2;" horiz-adv-x="675" 
d="M281 0l19 91q-54 1 -91.5 11.5t-65.5 35.5q-26 23 -41 61t-15 93q0 43 8.5 91t26.5 93.5t45.5 84.5t65.5 64q40 26 85.5 37t105.5 13l16 75h79l-17 -78q36 -3 66 -8t51 -10l-22 -131q-27 4 -56 7.5t-68 4.5l-63 -302q37 1 71 7t62 11l-34 -133q-28 -8 -59 -14.5
t-70 -10.5l-20 -93h-79zM393 532q-36 -3 -59 -20q-18 -13 -31.5 -37.5t-23 -53t-14 -58t-4.5 -51.5q0 -21 4.5 -37t14.5 -24q16 -15 50 -18z" />
    <glyph glyph-name="sterling" unicode="&#xa3;" horiz-adv-x="682" 
d="M-16 0l55 154h84l33 158h-100l46 96h74l26 120q12 54 31.5 98t48.5 70q33 30 80 45.5t121 15.5q73 0 124.5 -9t82.5 -17l-28 -142q-21 7 -62 14.5t-86 7.5q-35 0 -60 -6t-41 -21q-24 -24 -36 -85l-20 -91h185l-46 -96h-158l-18 -80l-99 -69l-2 -9h393l-54 -154h-574z" />
    <glyph glyph-name="currency" unicode="&#xa4;" horiz-adv-x="675" 
d="M151 626l79 -78q50 28 111 28q59 0 110 -28l79 78l93 -93l-79 -79q29 -50 29 -110q0 -62 -29 -111l79 -79l-93 -93l-79 79q-51 -28 -110 -28q-61 0 -111 28l-79 -79l-93 93l79 79q-13 24 -20.5 52.5t-7.5 58.5q0 29 7.5 57.5t20.5 52.5l-79 79zM235 344q0 -22 8.5 -41
t23 -33.5t33.5 -23t41 -8.5q21 0 40.5 8.5t33.5 23t22.5 33.5t8.5 41q0 21 -8.5 40.5t-22.5 33.5t-33.5 22.5t-40.5 8.5q-22 0 -41 -8.5t-33.5 -22.5t-23 -33.5t-8.5 -40.5z" />
    <glyph glyph-name="yen" unicode="&#xa5;" horiz-adv-x="721" 
d="M477 336h175l-41 -78h-175l-15 -72h200l-41 -78h-176l-23 -108h-183l22 108h-193l41 78h168l15 72h-192l41 78h144l-117 414h188l64 -290h17l181 290h214z" />
    <glyph glyph-name="brokenbar" unicode="&#xa6;" horiz-adv-x="254" 
d="M95 178h64v-301h-64v301zM95 728h64v-301h-64v301z" />
    <glyph glyph-name="section" unicode="&#xa7;" horiz-adv-x="650" 
d="M510 61q-10 -44 -26.5 -76t-48 -53t-81.5 -31.5t-126 -10.5q-61 0 -115 6.5t-92 15.5l25 120q28 -4 71.5 -7.5t92.5 -3.5q31 0 51.5 2.5t33 7.5t19 13t8.5 20q2 5 2 15t-9 15q-7 3 -21 7.5t-31.5 9t-36 9t-33.5 7.5q-62 13 -91 29t-40 31q-8 9 -13 23t-5 37q0 12 3 31.5
t6 36.5q7 31 18 53.5t27 38.5t37.5 26.5t49.5 17.5q-5 5 -9.5 10t-9.5 13q-6 11 -9.5 24t-3.5 33q0 12 2 29.5t6 32.5q9 38 25.5 67.5t46.5 50t76.5 31t115.5 10.5q65 0 116.5 -5.5t86.5 -11.5l-26 -122q-38 4 -76.5 7t-76.5 3q-32 0 -51.5 -3t-30.5 -8.5t-16 -13.5t-7 -18
q-2 -5 -2 -9v-7q0 -8 7 -14q11 -7 45 -14t81 -16q61 -12 89 -27.5t39 -29.5q8 -10 12.5 -24.5t4.5 -37.5q0 -12 -2 -31.5t-6 -36.5q-15 -63 -45.5 -93t-81.5 -42l10 -8t10 -11q6 -8 10.5 -20.5t4.5 -35.5q0 -11 -3 -29t-7 -33zM349 402q-17 3 -27 4.5t-18 1.5q-35 0 -53 -20
t-29 -65q-2 -8 -2.5 -16t-0.5 -12q0 -18 11 -25q8 -6 31.5 -12.5t54.5 -12.5q11 -2 22 -3.5t21 -1.5q32 0 51 20t29 64q2 6 3 13t1 12q0 12 -6 19t-15 12q-11 7 -31 12t-42 10z" />
    <glyph glyph-name="dieresis" unicode="&#xa8;" horiz-adv-x="386" 
d="M147 626q-43 0 -58 17q-8 8 -8 30q0 20 8.5 41t25.5 32q9 5 23 8.5t34 3.5q41 0 55 -14q10 -10 10 -30t-7.5 -41.5t-23.5 -33.5q-10 -7 -26 -10t-33 -3zM377 626q-44 0 -59 17q-9 9 -9 29t8.5 41.5t26.5 32.5q10 5 24.5 8.5t34.5 3.5q41 0 53 -14q5 -6 7 -14t2 -17
q0 -20 -7 -41t-23 -33q-10 -7 -25.5 -10t-32.5 -3z" />
    <glyph glyph-name="copyright" unicode="&#xa9;" horiz-adv-x="839" 
d="M484 504q-39 0 -64 -7t-39 -22.5t-19 -41t-5 -61.5q0 -37 4.5 -61t18 -38.5t37.5 -20t62 -5.5q33 0 60.5 4t47.5 9v-101q-25 -8 -62.5 -17t-91.5 -9q-59 0 -100 15t-66.5 44.5t-37 72t-11.5 98.5q0 132 55 193.5t176 61.5q45 0 78.5 -5.5t59.5 -11.5v-107q-18 3 -43 6.5
t-60 3.5zM412 47q79 0 130.5 16t89.5 49q19 18 36.5 44.5t30 61t20 75t7.5 85.5q0 91 -19.5 152.5t-51.5 97.5q-32 34 -88 53t-130 19t-128 -18t-94 -51q-16 -14 -32.5 -39t-30 -58.5t-22.5 -75.5t-9 -90q0 -86 21 -149.5t56 -98.5q30 -32 81 -52.5t133 -20.5zM438 760
q99 0 162 -25.5t101 -60.5q18 -18 34.5 -43.5t29 -61.5t20.5 -82t8 -104q0 -113 -34.5 -192.5t-84.5 -124.5q-40 -38 -106.5 -58t-157.5 -20q-50 0 -89 6.5t-70 18.5t-55 28t-43 34q-18 17 -35.5 43.5t-31.5 62t-22.5 80.5t-8.5 100q0 59 10 108.5t26.5 89t39 69.5t46.5 50
q42 35 105 58.5t156 23.5z" />
    <glyph glyph-name="ordfeminine" unicode="&#xaa;" horiz-adv-x="457" 
d="M308 378l-8 59q-3 -3 -12 -11.5t-18.5 -17t-17 -15.5l-7.5 -7q-11 -5 -35.5 -9.5t-48.5 -4.5q-49 0 -71.5 20.5t-22.5 58.5q0 13 2.5 29t8.5 31.5t15.5 29.5t23.5 24q10 7 24 13t38 11t60 10t92 11q3 15 3 27q0 6 -1.5 10.5t-7 7.5t-17.5 5t-33 2q-39 0 -75 -4t-66 -8
l17 82q33 9 81 16t93 7q44 0 73 -6.5t46.5 -19.5t24.5 -31t7 -41q0 -11 -2 -24.5t-5 -30.5l-48 -224h-113zM317 539q-32 -2 -61.5 -6t-39.5 -10q-6 -4 -10.5 -16.5t-4.5 -28.5q0 -5 1 -9.5t3 -6.5q8 -8 36 -8q19 0 36 3t25 6z" />
    <glyph glyph-name="guillemotleft" unicode="&#xab;" horiz-adv-x="623" 
d="M230 27l-200 213l18 88l290 209l-35 -163l-126 -86l-4 -21l88 -92zM508 27l-200 213l18 88l290 209l-35 -163l-126 -86l-4 -21l88 -92z" />
    <glyph glyph-name="logicalnot" unicode="&#xac;" horiz-adv-x="672" 
d="M609 145h-141v218h-405v141h546v-359z" />
    <glyph glyph-name="uni00AD" unicode="&#xad;" horiz-adv-x="468" 
d="M98 395h328l-36 -172h-329z" />
    <glyph glyph-name="registered" unicode="&#xae;" horiz-adv-x="840" 
d="M412 47q79 0 130.5 16t89.5 49q19 18 36.5 44.5t30.5 61t20.5 75t7.5 85.5q0 91 -20 152.5t-52 97.5q-32 34 -87.5 53t-130.5 19q-74 0 -127.5 -18t-93.5 -51q-16 -14 -32.5 -39t-30.5 -58.5t-23 -75.5t-9 -90q0 -86 21 -149.5t56 -98.5q31 -32 81.5 -52.5t132.5 -20.5z
M438 760q99 0 162.5 -25.5t100.5 -60.5q18 -18 34.5 -44t29.5 -61.5t20.5 -81.5t7.5 -104q0 -113 -34.5 -192.5t-83.5 -124.5q-40 -38 -107 -58t-157 -20q-50 0 -89.5 6.5t-70.5 18.5t-55 28t-43 34q-18 17 -35.5 43.5t-31.5 62t-22.5 80.5t-8.5 100q0 59 10 108.5t26.5 89
t39 69.5t46.5 50q42 35 105 58.5t156 23.5zM449 608q42 0 73 -5t50 -18q20 -12 33 -38.5t13 -68.5q0 -38 -13 -67t-35 -45q-5 -2 -24 -8.5t-42 -12.5v-1q6 -2 14.5 -5.5t16.5 -7t15 -7.5t10 -7q9 -8 19 -25.5t21 -41t23 -51.5t24 -57h-145l-38 110q-9 21 -16 33.5
t-14.5 19.5t-18 9t-26.5 2h-15v-174h-134v466h209zM374 403h33q11 0 23 0.5t20 3.5q14 5 21 19.5t7 36.5q0 37 -15 48q-8 5 -20.5 6.5t-26.5 1.5h-42v-116z" />
    <glyph glyph-name="macron" unicode="&#xaf;" horiz-adv-x="386" 
d="M122 736h319l-23 -104h-318z" />
    <glyph glyph-name="degree" unicode="&#xb0;" horiz-adv-x="439" 
d="M82 578q0 38 14 71t39 58t58.5 39t71.5 14t71 -14t58 -39t39 -58t14 -71t-14 -71.5t-39 -58.5t-58 -39t-71 -14t-71.5 14t-58.5 39t-39 58.5t-14 71.5zM149 578q0 -24 9 -45.5t24.5 -37.5t37 -25t45.5 -9t45.5 9t37 25t24.5 37.5t9 45.5t-9 45t-24.5 37t-37 25t-45.5 9
t-45.5 -9t-37 -25t-24.5 -37t-9 -45z" />
    <glyph glyph-name="plusminus" unicode="&#xb1;" horiz-adv-x="675" 
d="M64 509h203v163h140v-163h203v-141h-203v-163h-140v163h-203v141zM610 0h-546v141h546v-141z" />
    <glyph glyph-name="twosuperior" unicode="&#xb2;" 
d="M426 393h-369l8 42q9 37 22 64.5t34.5 50t53.5 42t79 40.5q23 10 39.5 17.5t28 13.5t19.5 11t13 10q8 8 14 22.5t6 29.5q0 18 -14.5 27t-55.5 9t-76.5 -4.5t-66.5 -9.5l20 95q16 4 36.5 8.5t43 7.5t45 5t42.5 2q94 0 132.5 -25t38.5 -86q0 -11 -2.5 -28t-9 -36
t-16.5 -37.5t-25 -32.5q-23 -20 -56.5 -35.5t-90.5 -34.5q-28 -10 -46 -18.5t-29 -16t-16.5 -14.5t-8.5 -14h253z" />
    <glyph glyph-name="threesuperior" unicode="&#xb3;" 
d="M503 733q-5 -17 -17 -36.5t-29 -34.5l-65 -24l59 -20q9 -9 14.5 -27t5.5 -38q0 -10 -1 -19.5t-4 -19.5q-8 -35 -24.5 -59t-44.5 -39.5t-70 -22.5t-101 -7q-54 0 -94 7.5t-63 14.5l17 94q31 -5 64.5 -10.5t73.5 -5.5q53 0 74.5 10t27.5 33q2 5 2.5 10.5t0.5 8.5
q0 24 -24 30t-66 6h-86l21 96h86q45 0 67 8.5t29 32.5q2 5 2 10v9q0 19 -15.5 26.5t-50.5 7.5q-41 0 -78 -4.5t-59 -8.5l20 92q26 8 70 15.5t91 7.5q93 0 133 -26t40 -76q0 -20 -6 -41z" />
    <glyph glyph-name="acute" unicode="&#xb4;" horiz-adv-x="386" 
d="M304 765h176l-216 -145h-125z" />
    <glyph glyph-name="mu" unicode="&#xb5;" horiz-adv-x="699" 
d="M235 -5q-28 0 -41 13l-58 -277h-190l176 830h191l-70 -329q-3 -15 -5 -27.5t-2 -22.5q0 -17 8 -28q7 -9 21 -12.5t31 -3.5q32 0 58.5 8t51.5 18l85 397h191l-120 -561h-148l-13 104h-6l-64 -83q-19 -11 -46.5 -18.5t-49.5 -7.5z" />
    <glyph glyph-name="paragraph" unicode="&#xb6;" horiz-adv-x="662" 
d="M561 659q-20 4 -38.5 5.5t-43.5 3.5l-166 -778h-87l86 403q-26 -6 -49.5 -9.5t-46.5 -3.5q-45 0 -71.5 12t-40.5 30q-27 35 -24 111q1 40 10 80.5t24.5 76.5t36.5 65.5t47 47.5q14 11 34 20t47 15.5t63.5 10t83.5 3.5q27 0 63.5 -2.5t75.5 -7t76.5 -11t66.5 -13.5
l-18 -81q-9 2 -21 4.5t-24 4.5l-161 -756h-87z" />
    <glyph glyph-name="periodcentered" unicode="&#xb7;" horiz-adv-x="356" 
d="M245 236q-14 -11 -35 -15t-49 -4q-65 0 -83 23q-11 13 -11 41q0 35 12 65.5t34 44.5q26 16 82 16q61 0 78 -20q14 -14 14 -44q0 -31 -10.5 -61t-31.5 -46z" />
    <glyph glyph-name="cedilla" unicode="&#xb8;" horiz-adv-x="386" 
d="M96 0h63l-20 -47q29 -1 48 -5t30 -15q7 -8 10 -19t3 -25q0 -35 -14.5 -64.5t-35.5 -42.5q-39 -24 -123 -24q-32 0 -60 4.5t-45 12.5l12 74q19 -5 43 -9t53 -4q39 0 49 8q6 4 10 12.5t4 17.5q0 11 -5 14q-4 4 -12.5 5.5t-28.5 1.5h-28z" />
    <glyph glyph-name="onesuperior" unicode="&#xb9;" 
d="M79 393l21 98h119l57 273q-10 -1 -26.5 -3t-34.5 -4.5t-34.5 -5t-26.5 -3.5l21 99l258 38l-84 -394h109l-22 -98h-357z" />
    <glyph glyph-name="ordmasculine" unicode="&#xba;" horiz-adv-x="478" 
d="M505 623q0 -66 -24.5 -125t-66.5 -88q-29 -20 -68 -29.5t-88 -9.5q-59 0 -93.5 13.5t-51.5 33.5q-13 15 -21 38t-8 55q0 28 5.5 57.5t16.5 57t28 50.5t40 40q28 20 65.5 30t91.5 10q57 0 92.5 -13t53.5 -33q13 -14 20.5 -36t7.5 -51zM324 483q9 7 17 21t14 32t9.5 38
t3.5 39q0 18 -8 29q-11 15 -45 15q-35 0 -53 -15q-11 -9 -18.5 -24t-13 -32.5t-8 -35.5t-2.5 -34q0 -22 7 -32q13 -15 44 -15q36 0 53 14z" />
    <glyph glyph-name="guillemotright" unicode="&#xbb;" horiz-adv-x="623" 
d="M107 537l200 -213l-18 -88l-290 -209l34 163l125 86l5 21l-88 93zM390 537l200 -213l-18 -88l-290 -209l34 163l125 86l5 21l-88 93z" />
    <glyph glyph-name="onequarter" unicode="&#xbc;" horiz-adv-x="1163" 
d="M988 0h-122l21 104h-231l20 99l221 275h192l-58 -274h91l-49 -100h-63zM945 374h-15l-128 -164v-6h107zM49 273l21 98h119l57 273q-10 -1 -26.5 -3t-34.5 -4.5t-34.5 -5t-26.5 -3.5l21 99l258 38l-84 -394h109l-22 -98h-357zM842 750h113l-629 -750h-112z" />
    <glyph glyph-name="onehalf" unicode="&#xbd;" horiz-adv-x="1163" 
d="M1023 0h-370l9 42q9 37 22 64.5t34 50t53 42t79 40.5q46 20 68 30.5t32 21.5q9 8 14.5 22.5t5.5 29.5q0 18 -14 27t-55 9q-42 0 -77.5 -4.5t-66.5 -9.5l20 96q16 4 37 8t43.5 7t45 5t42.5 2q94 0 132.5 -25t38.5 -86q0 -11 -2.5 -28t-9 -36t-16.5 -37.5t-25 -32.5
q-23 -20 -57 -35.5t-90 -34.5q-28 -10 -46 -18.5t-29.5 -16t-17 -14.5t-7.5 -14h253zM49 273l21 98h119l57 273q-10 -1 -26.5 -3t-34.5 -4.5t-34.5 -5t-26.5 -3.5l21 99l258 38l-84 -394h109l-22 -98h-357zM853 750h113l-629 -750h-112z" />
    <glyph glyph-name="threequarters" unicode="&#xbe;" horiz-adv-x="1158" 
d="M474 613q-5 -17 -17 -36.5t-29 -34.5l-65 -24l59 -20q9 -9 14.5 -27t5.5 -38q0 -10 -1 -19.5t-4 -19.5q-8 -35 -24.5 -59t-44.5 -39.5t-70 -22.5t-101 -7q-54 0 -94 7.5t-63 14.5l17 94q31 -5 64.5 -10.5t73.5 -5.5q53 0 74.5 10t27.5 33q2 5 2.5 10.5t0.5 8.5
q0 24 -24 30t-66 6h-86l21 96h86q45 0 67 8.5t29 32.5q2 5 2 10v9q0 19 -15.5 26.5t-50.5 7.5q-41 0 -78 -4.5t-59 -8.5l20 92q26 8 70 15.5t91 7.5q93 0 133 -26t40 -76q0 -20 -6 -41zM984 0h-122l21 104h-231l20 99l221 275h192l-58 -274h91l-49 -100h-63zM941 374h-15
l-128 -164v-6h107zM849 750h113l-629 -750h-112z" />
    <glyph glyph-name="questiondown" unicode="&#xbf;" horiz-adv-x="552" 
d="M433 313l-8 -35q-8 -34 -16 -58.5t-21.5 -44t-36 -36t-58.5 -32.5q-33 -16 -53 -27t-31 -22t-17.5 -28t-6.5 -36q0 -18 12 -30q17 -16 88 -16q57 0 109 7.5t83 13.5l-29 -140q-36 -10 -91.5 -18.5t-124.5 -8.5q-67 0 -114 9.5t-75 31.5q-45 35 -45 110q0 22 4 47.5
t11.5 49.5t19 45.5t26.5 35.5q23 23 57 40t82 39q24 11 39.5 21t24.5 19.5t13 19.5t6 22l4 21h148zM318 556q26 19 84 19q64 0 82 -23q11 -13 11 -41q0 -35 -12 -65.5t-34 -44.5q-25 -16 -81 -16q-29 0 -49.5 4.5t-29.5 15.5q-14 16 -14 44q0 31 10.5 61t32.5 46z" />
    <glyph glyph-name="Agrave" unicode="&#xc0;" horiz-adv-x="789" 
d="M515 0l-17 205h-240l-108 -205h-206l413 750h276l78 -750h-196zM471 587h-23l-117 -235h156zM474 955l119 -144h-117l-169 144h167z" />
    <glyph glyph-name="Aacute" unicode="&#xc1;" horiz-adv-x="789" 
d="M515 0l-17 205h-240l-108 -205h-206l413 750h276l78 -750h-196zM471 587h-23l-117 -235h156zM570 955h176l-216 -145h-125z" />
    <glyph glyph-name="Acircumflex" unicode="&#xc2;" horiz-adv-x="789" 
d="M515 0l-17 205h-240l-108 -205h-206l413 750h276l78 -750h-196zM471 587h-23l-117 -235h156zM688 810h-112l-67 65l-94 -65h-123l162 139h131z" />
    <glyph glyph-name="Atilde" unicode="&#xc3;" horiz-adv-x="789" 
d="M515 0l-17 205h-240l-108 -205h-206l413 750h276l78 -750h-196zM471 587h-23l-117 -235h156zM313 821q14 59 45 95t87 36q25 0 44 -8.5t35 -19t30.5 -19t29.5 -8.5q21 0 32.5 12.5t17.5 35.5h74q-14 -66 -49.5 -99t-83.5 -33q-25 0 -44 8.5t-35 18.5t-31 18.5t-31 8.5
q-21 0 -31.5 -13t-15.5 -33h-74z" />
    <glyph glyph-name="Adieresis" unicode="&#xc4;" horiz-adv-x="789" 
d="M515 0l-17 205h-240l-108 -205h-206l413 750h276l78 -750h-196zM471 587h-23l-117 -235h156zM380 815q-43 0 -58 17q-8 8 -8 30q0 20 8.5 41t25.5 32q9 5 23 8.5t34 3.5q41 0 55 -14q10 -10 10 -30t-7.5 -41.5t-23.5 -33.5q-10 -7 -26 -10t-33 -3zM610 815q-44 0 -59 17
q-9 9 -9 29t8.5 41.5t26.5 32.5q10 5 24.5 8.5t34.5 3.5q41 0 53 -14q5 -6 7 -14t2 -17q0 -20 -7 -41t-23 -33q-10 -7 -25.5 -10t-32.5 -3z" />
    <glyph glyph-name="Aring" unicode="&#xc5;" horiz-adv-x="789" 
d="M515 0l-17 205h-240l-108 -205h-206l413 750h276l78 -750h-196zM471 587h-23l-117 -235h156zM493 806q-18 0 -35.5 3.5t-31 11.5t-21.5 22t-8 34q0 29 12.5 59t35.5 47q20 14 42.5 18t51.5 4q36 0 64 -15.5t28 -52.5q0 -14 -2 -29t-7.5 -29.5t-14 -27t-20.5 -21.5
q-16 -11 -39 -17.5t-55 -6.5zM504 860q24 0 35 10q10 7 15 22.5t5 30.5q0 14 -9 19.5t-26 5.5q-24 0 -34 -9q-9 -7 -15 -21t-6 -29q0 -28 35 -29z" />
    <glyph glyph-name="AE" unicode="&#xc6;" horiz-adv-x="1075" 
d="M1131 750l-61 -157h-321l-29 -137h289l-59 -151h-262l-31 -146h359l-67 -159h-512l43 205h-203l-137 -205h-216l511 750h696zM562 591h-43l-151 -239h143z" />
    <glyph glyph-name="Ccedilla" unicode="&#xc7;" horiz-adv-x="692" 
d="M313 -8q-78 3 -128 22.5t-79 56.5q-22 27 -34.5 69.5t-12.5 100.5q0 66 12.5 132.5t36 126.5t58 109.5t78.5 81.5q51 36 118 52.5t158 16.5q74 0 127.5 -8t95.5 -18l-29 -146q-32 5 -79 10t-102 5q-68 0 -105.5 -10t-62.5 -29q-26 -20 -46 -53.5t-34 -74t-21.5 -84
t-7.5 -82.5q0 -27 5 -50t16 -36q32 -35 126 -35q63 0 122.5 9t99.5 17l-30 -146q-38 -12 -93 -23.5t-126 -13.5l-16 -39q29 -1 48 -5t30 -15q7 -8 10 -19t3 -25q0 -35 -14.5 -64.5t-35.5 -42.5q-39 -24 -123 -24q-32 0 -60 4.5t-45 12.5l12 74q19 -5 43 -9t53 -4q39 0 49 8
q6 4 10 12.5t4 17.5q0 11 -5 14q-4 4 -12.5 5.5t-28.5 1.5h-28z" />
    <glyph glyph-name="Egrave" unicode="&#xc8;" horiz-adv-x="648" 
d="M522 0h-518l158 750h541l-61 -157h-321l-29 -137h290l-59 -151h-263l-31 -146h359zM407 955l119 -144h-117l-169 144h167z" />
    <glyph glyph-name="Eacute" unicode="&#xc9;" horiz-adv-x="648" 
d="M522 0h-518l158 750h541l-61 -157h-321l-29 -137h290l-59 -151h-263l-31 -146h359zM480 955h176l-216 -145h-125z" />
    <glyph glyph-name="Ecircumflex" unicode="&#xca;" horiz-adv-x="648" 
d="M522 0h-518l158 750h541l-61 -157h-321l-29 -137h290l-59 -151h-263l-31 -146h359zM638 810h-112l-67 65l-94 -65h-123l162 139h131z" />
    <glyph glyph-name="Edieresis" unicode="&#xcb;" horiz-adv-x="648" 
d="M522 0h-518l158 750h541l-61 -157h-321l-29 -137h290l-59 -151h-263l-31 -146h359zM319 815q-43 0 -58 17q-8 8 -8 30q0 20 8.5 41t25.5 32q9 5 23 8.5t34 3.5q41 0 55 -14q10 -10 10 -30t-7.5 -41.5t-23.5 -33.5q-10 -7 -26 -10t-33 -3zM549 815q-44 0 -59 17
q-9 9 -9 29t8.5 41.5t26.5 32.5q10 5 24.5 8.5t34.5 3.5q41 0 53 -14q5 -6 7 -14t2 -17q0 -20 -7 -41t-23 -33q-10 -7 -25.5 -10t-32.5 -3z" />
    <glyph glyph-name="Igrave" unicode="&#xcc;" horiz-adv-x="345" 
d="M15 0l158 750h192l-159 -750h-191zM249 955l119 -144h-117l-169 144h167z" />
    <glyph glyph-name="Iacute" unicode="&#xcd;" horiz-adv-x="345" 
d="M15 0l158 750h192l-159 -750h-191zM352 955h176l-216 -145h-125z" />
    <glyph glyph-name="Icircumflex" unicode="&#xce;" horiz-adv-x="345" 
d="M15 0l158 750h192l-159 -750h-191zM474 810h-112l-67 65l-94 -65h-123l162 139h131z" />
    <glyph glyph-name="Idieresis" unicode="&#xcf;" horiz-adv-x="345" 
d="M15 0l158 750h192l-159 -750h-191zM163 815q-43 0 -58 17q-8 8 -8 30q0 20 8.5 41t25.5 32q9 5 23 8.5t34 3.5q41 0 55 -14q10 -10 10 -30t-7.5 -41.5t-23.5 -33.5q-10 -7 -26 -10t-33 -3zM393 815q-44 0 -59 17q-9 9 -9 29t8.5 41.5t26.5 32.5q10 5 24.5 8.5t34.5 3.5
q41 0 53 -14q5 -6 7 -14t2 -17q0 -20 -7 -41t-23 -33q-10 -7 -25.5 -10t-32.5 -3z" />
    <glyph glyph-name="Eth" unicode="&#xd0;" horiz-adv-x="807" 
d="M469 750q57 0 101 -5t77 -15t56 -24.5t39 -33.5q20 -26 32.5 -66t12.5 -103q0 -60 -13 -125t-37 -125t-57.5 -110t-74.5 -79q-51 -38 -125.5 -51t-166.5 -13h-300l67 319h-77l40 107h59l69 324h298zM294 426h156l-40 -107h-139l-34 -162h95q59 0 95.5 7t58.5 24
q25 18 44.5 54.5t33 79t21 85t7.5 72.5q0 29 -4.5 47.5t-15.5 32.5q-28 34 -136 34h-106z" />
    <glyph glyph-name="Ntilde" unicode="&#xd1;" horiz-adv-x="884" 
d="M452 0l-124 585h-16l-124 -585h-172l158 750h299l118 -584h15l124 584h174l-159 -750h-293zM362 824q14 59 45 95t87 36q25 0 44 -8.5t35 -19t30.5 -19t29.5 -8.5q21 0 32.5 12.5t17.5 35.5h74q-14 -66 -49.5 -99t-83.5 -33q-25 0 -44 8.5t-35 18.5t-31 18.5t-31 8.5
q-21 0 -31.5 -13t-15.5 -33h-74z" />
    <glyph glyph-name="Ograve" unicode="&#xd2;" horiz-adv-x="829" 
d="M384 149q44 -1 74 8.5t52 26.5t40.5 51.5t32.5 76.5t22 86.5t8 82.5q0 50 -18 76q-11 18 -40.5 29.5t-74.5 11.5q-43 0 -73 -9t-54 -28q-24 -21 -43 -56t-32 -76t-20 -83.5t-7 -77.5q0 -30 4.5 -48t13.5 -30q14 -19 43.5 -30t71.5 -11zM499 760q102 0 163 -23.5t93 -61.5
q26 -32 38.5 -78t12.5 -100q0 -56 -11 -118.5t-33.5 -122t-55.5 -111.5t-78 -87q-48 -37 -118 -53t-142 -16q-52 0 -92 6t-71 17.5t-53.5 27t-38.5 33.5q-23 26 -38 70t-15 112q0 60 11 123t33 121t55 107t77 82q48 35 110.5 53.5t152.5 18.5zM500 955l119 -144h-117
l-169 144h167z" />
    <glyph glyph-name="Oacute" unicode="&#xd3;" horiz-adv-x="829" 
d="M384 149q44 -1 74 8.5t52 26.5t40.5 51.5t32.5 76.5t22 86.5t8 82.5q0 50 -18 76q-11 18 -40.5 29.5t-74.5 11.5q-43 0 -73 -9t-54 -28q-24 -21 -43 -56t-32 -76t-20 -83.5t-7 -77.5q0 -30 4.5 -48t13.5 -30q14 -19 43.5 -30t71.5 -11zM499 760q102 0 163 -23.5t93 -61.5
q26 -32 38.5 -78t12.5 -100q0 -56 -11 -118.5t-33.5 -122t-55.5 -111.5t-78 -87q-48 -37 -118 -53t-142 -16q-52 0 -92 6t-71 17.5t-53.5 27t-38.5 33.5q-23 26 -38 70t-15 112q0 60 11 123t33 121t55 107t77 82q48 35 110.5 53.5t152.5 18.5zM576 955h176l-216 -145h-125z
" />
    <glyph glyph-name="Ocircumflex" unicode="&#xd4;" horiz-adv-x="829" 
d="M384 149q44 -1 74 8.5t52 26.5t40.5 51.5t32.5 76.5t22 86.5t8 82.5q0 50 -18 76q-11 18 -40.5 29.5t-74.5 11.5q-43 0 -73 -9t-54 -28q-24 -21 -43 -56t-32 -76t-20 -83.5t-7 -77.5q0 -30 4.5 -48t13.5 -30q14 -19 43.5 -30t71.5 -11zM499 760q102 0 163 -23.5t93 -61.5
q26 -32 38.5 -78t12.5 -100q0 -56 -11 -118.5t-33.5 -122t-55.5 -111.5t-78 -87q-48 -37 -118 -53t-142 -16q-52 0 -92 6t-71 17.5t-53.5 27t-38.5 33.5q-23 26 -38 70t-15 112q0 60 11 123t33 121t55 107t77 82q48 35 110.5 53.5t152.5 18.5zM714 810h-112l-67 65l-94 -65
h-123l162 139h131z" />
    <glyph glyph-name="Otilde" unicode="&#xd5;" horiz-adv-x="829" 
d="M384 149q44 -1 74 8.5t52 26.5t40.5 51.5t32.5 76.5t22 86.5t8 82.5q0 50 -18 76q-11 18 -40.5 29.5t-74.5 11.5q-43 0 -73 -9t-54 -28q-24 -21 -43 -56t-32 -76t-20 -83.5t-7 -77.5q0 -30 4.5 -48t13.5 -30q14 -19 43.5 -30t71.5 -11zM499 760q102 0 163 -23.5t93 -61.5
q26 -32 38.5 -78t12.5 -100q0 -56 -11 -118.5t-33.5 -122t-55.5 -111.5t-78 -87q-48 -37 -118 -53t-142 -16q-52 0 -92 6t-71 17.5t-53.5 27t-38.5 33.5q-23 26 -38 70t-15 112q0 60 11 123t33 121t55 107t77 82q48 35 110.5 53.5t152.5 18.5zM318 824q14 59 45 95t87 36
q25 0 44 -8.5t35 -19t30.5 -19t29.5 -8.5q21 0 32.5 12.5t17.5 35.5h74q-14 -66 -49.5 -99t-83.5 -33q-25 0 -44 8.5t-35 18.5t-31 18.5t-31 8.5q-21 0 -31.5 -13t-15.5 -33h-74z" />
    <glyph glyph-name="Odieresis" unicode="&#xd6;" horiz-adv-x="829" 
d="M384 149q44 -1 74 8.5t52 26.5t40.5 51.5t32.5 76.5t22 86.5t8 82.5q0 50 -18 76q-11 18 -40.5 29.5t-74.5 11.5q-43 0 -73 -9t-54 -28q-24 -21 -43 -56t-32 -76t-20 -83.5t-7 -77.5q0 -30 4.5 -48t13.5 -30q14 -19 43.5 -30t71.5 -11zM499 760q102 0 163 -23.5t93 -61.5
q26 -32 38.5 -78t12.5 -100q0 -56 -11 -118.5t-33.5 -122t-55.5 -111.5t-78 -87q-48 -37 -118 -53t-142 -16q-52 0 -92 6t-71 17.5t-53.5 27t-38.5 33.5q-23 26 -38 70t-15 112q0 60 11 123t33 121t55 107t77 82q48 35 110.5 53.5t152.5 18.5zM393 815q-43 0 -58 17
q-8 8 -8 30q0 20 8.5 41t25.5 32q9 5 23 8.5t34 3.5q41 0 55 -14q10 -10 10 -30t-7.5 -41.5t-23.5 -33.5q-10 -7 -26 -10t-33 -3zM623 815q-44 0 -59 17q-9 9 -9 29t8.5 41.5t26.5 32.5q10 5 24.5 8.5t34.5 3.5q41 0 53 -14q5 -6 7 -14t2 -17q0 -20 -7 -41t-23 -33
q-10 -7 -25.5 -10t-32.5 -3z" />
    <glyph glyph-name="multiply" unicode="&#xd7;" horiz-adv-x="675" 
d="M171 605l166 -167l166 167l100 -100l-167 -166l167 -166l-100 -100l-166 166l-166 -166l-99 100l165 166l-165 166z" />
    <glyph glyph-name="Oslash" unicode="&#xd8;" horiz-adv-x="829" 
d="M-12 -3l105 105q-16 26 -24.5 63.5t-8.5 90.5q0 60 11 122.5t33 120.5t55.5 107t77.5 82q47 35 108 53.5t147 18.5q55 0 111 -8t107 -39l43 40h117l-101 -99q17 -26 27 -67t10 -92q0 -59 -11 -121.5t-33.5 -121t-55.5 -109t-78 -85.5q-48 -36 -115 -52.5t-138 -16.5
q-57 0 -116.5 9t-110.5 44l-43 -45h-117zM383 144q45 0 76 10t51 25q22 16 41 49.5t33 73.5t22.5 81t8.5 74q0 12 -1.5 21.5t-3.5 18.5l-329 -326q15 -13 42.5 -20t59.5 -7zM250 296q0 -22 4 -37l322 321q-14 11 -39 16.5t-55 5.5q-42 0 -71.5 -7.5t-55.5 -26.5
q-24 -18 -43.5 -49.5t-33 -69.5t-21 -78t-7.5 -75z" />
    <glyph glyph-name="Ugrave" unicode="&#xd9;" horiz-adv-x="785" 
d="M803 750l-95 -446q-19 -92 -44 -150t-62 -92q-37 -35 -102.5 -54.5t-162.5 -19.5q-57 0 -99 7t-71.5 19t-49 28t-31.5 34q-14 20 -22 47.5t-8 61.5q0 26 3.5 58.5t14.5 80.5l90 426h192l-92 -437q-8 -32 -11 -55t-3 -38q0 -23 10 -36q9 -13 32.5 -22t66.5 -9q39 0 66 8.5
t42 21.5q14 12 26 39t23 81l96 447h191zM453 955l119 -144h-117l-169 144h167z" />
    <glyph glyph-name="Uacute" unicode="&#xda;" horiz-adv-x="785" 
d="M803 750l-95 -446q-19 -92 -44 -150t-62 -92q-37 -35 -102.5 -54.5t-162.5 -19.5q-57 0 -99 7t-71.5 19t-49 28t-31.5 34q-14 20 -22 47.5t-8 61.5q0 26 3.5 58.5t14.5 80.5l90 426h192l-92 -437q-8 -32 -11 -55t-3 -38q0 -23 10 -36q9 -13 32.5 -22t66.5 -9q39 0 66 8.5
t42 21.5q14 12 26 39t23 81l96 447h191zM570 955h176l-216 -145h-125z" />
    <glyph glyph-name="Ucircumflex" unicode="&#xdb;" horiz-adv-x="785" 
d="M803 750l-95 -446q-19 -92 -44 -150t-62 -92q-37 -35 -102.5 -54.5t-162.5 -19.5q-57 0 -99 7t-71.5 19t-49 28t-31.5 34q-14 20 -22 47.5t-8 61.5q0 26 3.5 58.5t14.5 80.5l90 426h192l-92 -437q-8 -32 -11 -55t-3 -38q0 -23 10 -36q9 -13 32.5 -22t66.5 -9q39 0 66 8.5
t42 21.5q14 12 26 39t23 81l96 447h191zM681 810h-112l-67 65l-94 -65h-123l162 139h131z" />
    <glyph glyph-name="Udieresis" unicode="&#xdc;" horiz-adv-x="785" 
d="M803 750l-95 -446q-19 -92 -44 -150t-62 -92q-37 -35 -102.5 -54.5t-162.5 -19.5q-57 0 -99 7t-71.5 19t-49 28t-31.5 34q-14 20 -22 47.5t-8 61.5q0 26 3.5 58.5t14.5 80.5l90 426h192l-92 -437q-8 -32 -11 -55t-3 -38q0 -23 10 -36q9 -13 32.5 -22t66.5 -9q39 0 66 8.5
t42 21.5q14 12 26 39t23 81l96 447h191zM376 815q-43 0 -58 17q-8 8 -8 30q0 20 8.5 41t25.5 32q9 5 23 8.5t34 3.5q41 0 55 -14q10 -10 10 -30t-7.5 -41.5t-23.5 -33.5q-10 -7 -26 -10t-33 -3zM606 815q-44 0 -59 17q-9 9 -9 29t8.5 41.5t26.5 32.5q10 5 24.5 8.5t34.5 3.5
q41 0 53 -14q5 -6 7 -14t2 -17q0 -20 -7 -41t-23 -33q-10 -7 -25.5 -10t-32.5 -3z" />
    <glyph glyph-name="Yacute" unicode="&#xdd;" horiz-adv-x="721" 
d="M385 0h-202l50 236l-132 514h195l66 -325h15l207 325h228l-377 -514zM517 955h176l-216 -145h-125z" />
    <glyph glyph-name="Thorn" unicode="&#xde;" horiz-adv-x="698" 
d="M236 139l-29 -139h-191l158 750h193l-24 -112h109q78 0 123 -12.5t68 -34.5q20 -20 31.5 -51t11.5 -77q0 -39 -7 -80t-22 -78.5t-37 -68.5t-52 -51q-20 -14 -43 -22.5t-52 -14t-64.5 -7.5t-80.5 -2h-92zM441 296q15 8 26 23t17.5 33.5t10 38t3.5 36.5q0 30 -14 46
q-8 10 -29 14t-51 4h-92l-45 -208h81q71 0 93 13z" />
    <glyph glyph-name="germandbls" unicode="&#xdf;" horiz-adv-x="777" 
d="M637 444q-49 0 -71.5 -8.5t-29.5 -28.5q-2 -5 -3 -10.5t-1 -10.5q0 -6 1.5 -11t7.5 -10q8 -7 23.5 -14t44.5 -15q80 -26 103 -55q9 -11 12 -26t3 -33q0 -26 -7 -58q-10 -48 -27.5 -79t-47.5 -53q-29 -21 -75.5 -30.5t-115.5 -9.5q-51 0 -97.5 6.5t-79.5 16.5l24 119
q21 -4 59 -8t76 -4q34 0 53.5 3.5t29.5 12.5q10 10 14 27q3 9 3 18q0 13 -5 19q-6 8 -22 14t-42 14q-46 14 -70.5 30t-35.5 37t-11 54q0 12 2 26.5t6 31.5q16 76 49.5 109t98.5 33h15q2 5 4 12.5t4 15.5q1 7 2 14.5t1 14.5q0 34 -21.5 47t-64.5 13q-30 0 -51 -5.5t-36 -20.5
t-25 -41t-19 -67l-112 -534h-188l109 520q16 77 38 130.5t59.5 87.5t95.5 49t146 15q72 0 121 -11.5t79.5 -33.5t43.5 -54t13 -74q0 -21 -2.5 -40.5t-7.5 -39.5q-12 -58 -35 -105h-38z" />
    <glyph glyph-name="agrave" unicode="&#xe0;" horiz-adv-x="641" 
d="M359 0l-17 92h-7l-79 -84q-17 -8 -43.5 -12t-56.5 -4q-51 0 -80.5 10t-46.5 30q-13 15 -18 36.5t-5 45.5q0 25 5 51.5t15 50.5t25 44.5t35 33.5q18 12 44 20.5t63 15.5t85.5 12t113.5 9q6 21 6 43q0 15 -6 24q-14 19 -86 19q-26 0 -54 -2t-55 -4.5t-50.5 -5.5t-41.5 -6
l29 125q40 10 106.5 20t142.5 10q77 0 119 -12.5t62 -37.5q27 -32 27 -89q0 -23 -3.5 -54t-11.5 -67l-68 -314h-149zM370 244q-20 0 -43.5 -1.5t-45 -3.5t-38 -5.5t-23.5 -7.5q-15 -11 -23.5 -33.5t-8.5 -41.5q0 -9 1 -15t6 -11q6 -7 19.5 -9.5t32.5 -2.5q29 0 56 6t41 11z
M358 765l119 -144h-117l-169 144h167z" />
    <glyph glyph-name="aacute" unicode="&#xe1;" horiz-adv-x="641" 
d="M359 0l-17 92h-7l-79 -84q-17 -8 -43.5 -12t-56.5 -4q-51 0 -80.5 10t-46.5 30q-13 15 -18 36.5t-5 45.5q0 25 5 51.5t15 50.5t25 44.5t35 33.5q18 12 44 20.5t63 15.5t85.5 12t113.5 9q6 21 6 43q0 15 -6 24q-14 19 -86 19q-26 0 -54 -2t-55 -4.5t-50.5 -5.5t-41.5 -6
l29 125q40 10 106.5 20t142.5 10q77 0 119 -12.5t62 -37.5q27 -32 27 -89q0 -23 -3.5 -54t-11.5 -67l-68 -314h-149zM370 244q-20 0 -43.5 -1.5t-45 -3.5t-38 -5.5t-23.5 -7.5q-15 -11 -23.5 -33.5t-8.5 -41.5q0 -9 1 -15t6 -11q6 -7 19.5 -9.5t32.5 -2.5q29 0 56 6t41 11z
M434 765h176l-216 -145h-125z" />
    <glyph glyph-name="acircumflex" unicode="&#xe2;" horiz-adv-x="641" 
d="M359 0l-17 92h-7l-79 -84q-17 -8 -43.5 -12t-56.5 -4q-51 0 -80.5 10t-46.5 30q-13 15 -18 36.5t-5 45.5q0 25 5 51.5t15 50.5t25 44.5t35 33.5q18 12 44 20.5t63 15.5t85.5 12t113.5 9q6 21 6 43q0 15 -6 24q-14 19 -86 19q-26 0 -54 -2t-55 -4.5t-50.5 -5.5t-41.5 -6
l29 125q40 10 106.5 20t142.5 10q77 0 119 -12.5t62 -37.5q27 -32 27 -89q0 -23 -3.5 -54t-11.5 -67l-68 -314h-149zM370 244q-20 0 -43.5 -1.5t-45 -3.5t-38 -5.5t-23.5 -7.5q-15 -11 -23.5 -33.5t-8.5 -41.5q0 -9 1 -15t6 -11q6 -7 19.5 -9.5t32.5 -2.5q29 0 56 6t41 11z
M573 621h-112l-67 65l-94 -65h-123l162 139h131z" />
    <glyph glyph-name="atilde" unicode="&#xe3;" horiz-adv-x="641" 
d="M359 0l-17 92h-7l-79 -84q-17 -8 -43.5 -12t-56.5 -4q-51 0 -80.5 10t-46.5 30q-13 15 -18 36.5t-5 45.5q0 25 5 51.5t15 50.5t25 44.5t35 33.5q18 12 44 20.5t63 15.5t85.5 12t113.5 9q6 21 6 43q0 15 -6 24q-14 19 -86 19q-26 0 -54 -2t-55 -4.5t-50.5 -5.5t-41.5 -6
l29 125q40 10 106.5 20t142.5 10q77 0 119 -12.5t62 -37.5q27 -32 27 -89q0 -23 -3.5 -54t-11.5 -67l-68 -314h-149zM370 244q-20 0 -43.5 -1.5t-45 -3.5t-38 -5.5t-23.5 -7.5q-15 -11 -23.5 -33.5t-8.5 -41.5q0 -9 1 -15t6 -11q6 -7 19.5 -9.5t32.5 -2.5q29 0 56 6t41 11z
M190 635q14 59 45 95t87 36q25 0 44 -8.5t35 -19t30.5 -19t29.5 -8.5q21 0 32.5 12.5t17.5 35.5h74q-14 -66 -49.5 -99t-83.5 -33q-25 0 -44 8.5t-35 18.5t-31 18.5t-31 8.5q-21 0 -31.5 -13t-15.5 -33h-74z" />
    <glyph glyph-name="adieresis" unicode="&#xe4;" horiz-adv-x="641" 
d="M359 0l-17 92h-7l-79 -84q-17 -8 -43.5 -12t-56.5 -4q-51 0 -80.5 10t-46.5 30q-13 15 -18 36.5t-5 45.5q0 25 5 51.5t15 50.5t25 44.5t35 33.5q18 12 44 20.5t63 15.5t85.5 12t113.5 9q6 21 6 43q0 15 -6 24q-14 19 -86 19q-26 0 -54 -2t-55 -4.5t-50.5 -5.5t-41.5 -6
l29 125q40 10 106.5 20t142.5 10q77 0 119 -12.5t62 -37.5q27 -32 27 -89q0 -23 -3.5 -54t-11.5 -67l-68 -314h-149zM370 244q-20 0 -43.5 -1.5t-45 -3.5t-38 -5.5t-23.5 -7.5q-15 -11 -23.5 -33.5t-8.5 -41.5q0 -9 1 -15t6 -11q6 -7 19.5 -9.5t32.5 -2.5q29 0 56 6t41 11z
M259 626q-43 0 -58 17q-8 8 -8 30q0 20 8.5 41t25.5 32q9 5 23 8.5t34 3.5q41 0 55 -14q10 -10 10 -30t-7.5 -41.5t-23.5 -33.5q-10 -7 -26 -10t-33 -3zM489 626q-44 0 -59 17q-9 9 -9 29t8.5 41.5t26.5 32.5q10 5 24.5 8.5t34.5 3.5q41 0 53 -14q5 -6 7 -14t2 -17
q0 -20 -7 -41t-23 -33q-10 -7 -25.5 -10t-32.5 -3z" />
    <glyph glyph-name="aring" unicode="&#xe5;" horiz-adv-x="641" 
d="M359 0l-17 92h-7l-79 -84q-17 -8 -43.5 -12t-56.5 -4q-51 0 -80.5 10t-46.5 30q-13 15 -18 36.5t-5 45.5q0 25 5 51.5t15 50.5t25 44.5t35 33.5q18 12 44 20.5t63 15.5t85.5 12t113.5 9q6 21 6 43q0 15 -6 24q-14 19 -86 19q-26 0 -54 -2t-55 -4.5t-50.5 -5.5t-41.5 -6
l29 125q40 10 106.5 20t142.5 10q77 0 119 -12.5t62 -37.5q27 -32 27 -89q0 -23 -3.5 -54t-11.5 -67l-68 -314h-149zM370 244q-20 0 -43.5 -1.5t-45 -3.5t-38 -5.5t-23.5 -7.5q-15 -11 -23.5 -33.5t-8.5 -41.5q0 -9 1 -15t6 -11q6 -7 19.5 -9.5t32.5 -2.5q29 0 56 6t41 11z
M376 614q-18 0 -35.5 3.5t-31 11.5t-21.5 22t-8 34q0 29 12.5 59t35.5 47q20 14 42.5 18t51.5 4q36 0 64 -15.5t28 -52.5q0 -14 -2 -29t-7.5 -29.5t-14 -27t-20.5 -21.5q-16 -11 -39 -17.5t-55 -6.5zM387 668q24 0 35 10q10 7 15 22.5t5 30.5q0 14 -9 19.5t-26 5.5
q-24 0 -34 -9q-9 -7 -15 -21t-6 -29q0 -28 35 -29z" />
    <glyph glyph-name="ae" unicode="&#xe6;" horiz-adv-x="937" 
d="M816 21q-43 -12 -96 -21t-128 -9q-76 0 -132 22t-82 80h-7l-77 -82q-17 -8 -52.5 -13.5t-76.5 -5.5q-54 0 -86.5 10t-49.5 30q-13 15 -18 36.5t-5 45.5q0 25 4.5 51.5t14.5 51t25 45t35 33.5q18 11 44 19t63 14t85.5 10t112.5 7q3 11 5.5 23.5t2.5 22.5q0 29 -23.5 37.5
t-68.5 8.5q-26 0 -54 -2t-55 -4.5t-50.5 -5.5t-41.5 -6l29 125q40 10 101 20t128 10q64 0 101.5 -13.5t57.5 -39.5q31 25 78.5 40.5t114.5 15.5q57 0 97.5 -11.5t66 -32.5t37.5 -50t12 -65q0 -51 -18 -85t-51.5 -54.5t-81 -29t-106.5 -8.5h-120q-2 -11 -3 -23t-1 -20
q0 -34 18 -51q23 -20 96 -20q27 0 55.5 2.5t54.5 6t48.5 8t38.5 7.5zM369 241q-21 0 -44.5 -1t-44.5 -2.5t-37.5 -5t-22.5 -7.5q-15 -11 -23.5 -33t-8.5 -41q0 -9 1 -15t6 -11q6 -7 19.5 -9.5t33.5 -2.5q29 0 63 8t57 16q-2 9 -3 20.5t-1 24.5q0 31 5 59zM744 408
q0 20 -14.5 33t-46.5 13q-38 0 -66 -23q-15 -12 -27 -34t-19 -52h75q98 0 98 63z" />
    <glyph glyph-name="ccedilla" unicode="&#xe7;" horiz-adv-x="540" 
d="M209 -8q-79 7 -124 48q-25 23 -38.5 58.5t-13.5 83.5q0 46 8.5 95.5t26.5 96t45 86t64 65.5q38 26 84.5 37.5t103.5 11.5q67 0 111 -6.5t75 -13.5l-22 -133q-28 5 -58 8.5t-70 3.5q-32 0 -58 -6t-44 -20q-17 -13 -30.5 -36t-23 -50t-14.5 -55t-5 -51q0 -40 20 -60
q22 -22 81 -22q39 0 79 6t69 12l-33 -134q-34 -11 -75.5 -18.5t-95.5 -8.5l-15 -37q29 -1 48 -5t30 -15q7 -8 10 -19t3 -25q0 -35 -14.5 -64.5t-35.5 -42.5q-39 -24 -123 -24q-32 0 -60 4.5t-45 12.5l12 74q19 -5 43 -9t53 -4q39 0 49 8q6 4 10 12.5t4 17.5q0 11 -5 14
q-4 4 -12.5 5.5t-28.5 1.5h-28z" />
    <glyph glyph-name="egrave" unicode="&#xe8;" horiz-adv-x="620" 
d="M32 190q0 46 8 92t24 88.5t40 78.5t55 62q40 33 93.5 49.5t128.5 16.5q118 0 169.5 -42t51.5 -117q0 -101 -70 -145t-194 -44q-67 0 -112 6q-2 -11 -3 -20t-1 -18q0 -17 3.5 -29t14.5 -21q23 -20 95 -20q28 0 56 2.5t54 6.5t48.5 8t38.5 7l-41 -130q-43 -12 -96.5 -21
t-131.5 -9q-67 0 -111 14t-72 43q-23 24 -35.5 59t-12.5 83zM358 454q-21 0 -36.5 -6t-28.5 -17q-14 -12 -25.5 -34.5t-19.5 -51.5q14 -2 33.5 -3t38.5 0q49 0 74 18t25 48q0 20 -14.5 33t-46.5 13zM358 765l119 -144h-117l-169 144h167z" />
    <glyph glyph-name="eacute" unicode="&#xe9;" horiz-adv-x="620" 
d="M32 190q0 46 8 92t24 88.5t40 78.5t55 62q40 33 93.5 49.5t128.5 16.5q118 0 169.5 -42t51.5 -117q0 -101 -70 -145t-194 -44q-67 0 -112 6q-2 -11 -3 -20t-1 -18q0 -17 3.5 -29t14.5 -21q23 -20 95 -20q28 0 56 2.5t54 6.5t48.5 8t38.5 7l-41 -130q-43 -12 -96.5 -21
t-131.5 -9q-67 0 -111 14t-72 43q-23 24 -35.5 59t-12.5 83zM358 454q-21 0 -36.5 -6t-28.5 -17q-14 -12 -25.5 -34.5t-19.5 -51.5q14 -2 33.5 -3t38.5 0q49 0 74 18t25 48q0 20 -14.5 33t-46.5 13zM428 765h176l-216 -145h-125z" />
    <glyph glyph-name="ecircumflex" unicode="&#xea;" horiz-adv-x="620" 
d="M32 190q0 46 8 92t24 88.5t40 78.5t55 62q40 33 93.5 49.5t128.5 16.5q118 0 169.5 -42t51.5 -117q0 -101 -70 -145t-194 -44q-67 0 -112 6q-2 -11 -3 -20t-1 -18q0 -17 3.5 -29t14.5 -21q23 -20 95 -20q28 0 56 2.5t54 6.5t48.5 8t38.5 7l-41 -130q-43 -12 -96.5 -21
t-131.5 -9q-67 0 -111 14t-72 43q-23 24 -35.5 59t-12.5 83zM358 454q-21 0 -36.5 -6t-28.5 -17q-14 -12 -25.5 -34.5t-19.5 -51.5q14 -2 33.5 -3t38.5 0q49 0 74 18t25 48q0 20 -14.5 33t-46.5 13zM578 621h-112l-67 65l-94 -65h-123l162 139h131z" />
    <glyph glyph-name="edieresis" unicode="&#xeb;" horiz-adv-x="620" 
d="M32 190q0 46 8 92t24 88.5t40 78.5t55 62q40 33 93.5 49.5t128.5 16.5q118 0 169.5 -42t51.5 -117q0 -101 -70 -145t-194 -44q-67 0 -112 6q-2 -11 -3 -20t-1 -18q0 -17 3.5 -29t14.5 -21q23 -20 95 -20q28 0 56 2.5t54 6.5t48.5 8t38.5 7l-41 -130q-43 -12 -96.5 -21
t-131.5 -9q-67 0 -111 14t-72 43q-23 24 -35.5 59t-12.5 83zM358 454q-21 0 -36.5 -6t-28.5 -17q-14 -12 -25.5 -34.5t-19.5 -51.5q14 -2 33.5 -3t38.5 0q49 0 74 18t25 48q0 20 -14.5 33t-46.5 13zM262 626q-43 0 -58 17q-8 8 -8 30q0 20 8.5 41t25.5 32q9 5 23 8.5t34 3.5
q41 0 55 -14q10 -10 10 -30t-7.5 -41.5t-23.5 -33.5q-10 -7 -26 -10t-33 -3zM492 626q-44 0 -59 17q-9 9 -9 29t8.5 41.5t26.5 32.5q10 5 24.5 8.5t34.5 3.5q41 0 53 -14q5 -6 7 -14t2 -17q0 -20 -7 -41t-23 -33q-10 -7 -25.5 -10t-32.5 -3z" />
    <glyph glyph-name="igrave" unicode="&#xec;" horiz-adv-x="328" 
d="M9 0l118 561h191l-119 -561h-190zM211 765l119 -144h-117l-169 144h167z" />
    <glyph glyph-name="iacute" unicode="&#xed;" horiz-adv-x="328" 
d="M9 0l118 561h191l-119 -561h-190zM295 765h176l-216 -145h-125z" />
    <glyph glyph-name="icircumflex" unicode="&#xee;" horiz-adv-x="328" 
d="M9 0l118 561h191l-119 -561h-190zM422 621h-112l-67 65l-94 -65h-123l162 139h131z" />
    <glyph glyph-name="idieresis" unicode="&#xef;" horiz-adv-x="328" 
d="M9 0l118 561h191l-119 -561h-190zM118 626q-43 0 -58 17q-8 8 -8 30q0 20 8.5 41t25.5 32q9 5 23 8.5t34 3.5q41 0 55 -14q10 -10 10 -30t-7.5 -41.5t-23.5 -33.5q-10 -7 -26 -10t-33 -3zM348 626q-44 0 -59 17q-9 9 -9 29t8.5 41.5t26.5 32.5q10 5 24.5 8.5t34.5 3.5
q41 0 53 -14q5 -6 7 -14t2 -17q0 -20 -7 -41t-23 -33q-10 -7 -25.5 -10t-32.5 -3z" />
    <glyph glyph-name="eth" unicode="&#xf0;" horiz-adv-x="672" 
d="M349 667q-32 13 -74 20t-91 9l70 113q80 -2 142.5 -15.5t108.5 -36.5l123 67l35 -66l-94 -53q38 -38 59.5 -98.5t21.5 -132.5q0 -39 -3.5 -81.5t-13.5 -87.5q-20 -96 -57 -163t-75 -94q-41 -31 -91 -44.5t-126 -13.5q-48 0 -82.5 5t-59 14t-41.5 20.5t-29 24.5
q-38 41 -38 127q0 36 9 84q14 65 45 118t73 81q40 26 93.5 34.5t107.5 8.5q43 0 69 -5.5t43 -10.5q-1 41 -13.5 74.5t-38.5 56.5l-145 -79l-35 67zM438 257q6 22 12 52.5t8 57.5q-13 7 -39 12.5t-54 5.5q-52 0 -81 -23q-8 -6 -16.5 -17.5t-15.5 -26.5t-13 -31t-9 -31
q-4 -18 -5.5 -34t-1.5 -27q0 -33 12 -46q15 -23 67 -23q29 0 48 5.5t30 15.5q14 10 29.5 35.5t28.5 74.5z" />
    <glyph glyph-name="ntilde" unicode="&#xf1;" horiz-adv-x="698" 
d="M375 0l68 323q8 38 8 60q0 8 -1.5 15t-5.5 12q-8 10 -22 13t-31 3q-30 0 -56.5 -8t-48.5 -16l-85 -402h-191l119 561h152l12 -102h7l71 83q24 11 60 19.5t80 8.5q86 0 119 -43q10 -14 16 -33.5t6 -45.5q0 -20 -3.5 -46.5t-12.5 -68.5l-70 -333h-191zM224 635q14 59 45 95
t87 36q25 0 44 -8.5t35 -19t30.5 -19t29.5 -8.5q21 0 32.5 12.5t17.5 35.5h74q-14 -66 -49.5 -99t-83.5 -33q-25 0 -44 8.5t-35 18.5t-31 18.5t-31 8.5q-21 0 -31.5 -13t-15.5 -33h-74z" />
    <glyph glyph-name="ograve" unicode="&#xf2;" horiz-adv-x="667" 
d="M634 373q0 -45 -9 -93.5t-27 -93.5t-44 -82.5t-60 -61.5q-42 -29 -94 -40.5t-121 -11.5q-80 0 -128 18t-74 47q-20 23 -31 57.5t-11 82.5q0 41 7.5 86.5t24 89t41.5 81.5t60 65q39 29 92 44t127 15q86 -1 133.5 -20t70.5 -45q18 -21 30.5 -54.5t12.5 -83.5zM380 153
q14 12 26.5 36t22 53t15 59.5t5.5 56.5q0 20 -3 32t-10 20q-18 23 -67 23q-30 0 -49 -6.5t-33 -17.5q-15 -12 -28 -36t-22 -52.5t-14 -58.5t-5 -55q0 -37 12 -52q10 -12 27 -18.5t45 -6.5q52 0 78 23zM375 765l119 -144h-117l-169 144h167z" />
    <glyph glyph-name="oacute" unicode="&#xf3;" horiz-adv-x="667" 
d="M634 373q0 -45 -9 -93.5t-27 -93.5t-44 -82.5t-60 -61.5q-42 -29 -94 -40.5t-121 -11.5q-80 0 -128 18t-74 47q-20 23 -31 57.5t-11 82.5q0 41 7.5 86.5t24 89t41.5 81.5t60 65q39 29 92 44t127 15q86 -1 133.5 -20t70.5 -45q18 -21 30.5 -54.5t12.5 -83.5zM380 153
q14 12 26.5 36t22 53t15 59.5t5.5 56.5q0 20 -3 32t-10 20q-18 23 -67 23q-30 0 -49 -6.5t-33 -17.5q-15 -12 -28 -36t-22 -52.5t-14 -58.5t-5 -55q0 -37 12 -52q10 -12 27 -18.5t45 -6.5q52 0 78 23zM446 765h176l-216 -145h-125z" />
    <glyph glyph-name="ocircumflex" unicode="&#xf4;" horiz-adv-x="667" 
d="M634 373q0 -45 -9 -93.5t-27 -93.5t-44 -82.5t-60 -61.5q-42 -29 -94 -40.5t-121 -11.5q-80 0 -128 18t-74 47q-20 23 -31 57.5t-11 82.5q0 41 7.5 86.5t24 89t41.5 81.5t60 65q39 29 92 44t127 15q86 -1 133.5 -20t70.5 -45q18 -21 30.5 -54.5t12.5 -83.5zM380 153
q14 12 26.5 36t22 53t15 59.5t5.5 56.5q0 20 -3 32t-10 20q-18 23 -67 23q-30 0 -49 -6.5t-33 -17.5q-15 -12 -28 -36t-22 -52.5t-14 -58.5t-5 -55q0 -37 12 -52q10 -12 27 -18.5t45 -6.5q52 0 78 23zM590 621h-112l-67 65l-94 -65h-123l162 139h131z" />
    <glyph glyph-name="otilde" unicode="&#xf5;" horiz-adv-x="667" 
d="M634 373q0 -45 -9 -93.5t-27 -93.5t-44 -82.5t-60 -61.5q-42 -29 -94 -40.5t-121 -11.5q-80 0 -128 18t-74 47q-20 23 -31 57.5t-11 82.5q0 41 7.5 86.5t24 89t41.5 81.5t60 65q39 29 92 44t127 15q86 -1 133.5 -20t70.5 -45q18 -21 30.5 -54.5t12.5 -83.5zM380 153
q14 12 26.5 36t22 53t15 59.5t5.5 56.5q0 20 -3 32t-10 20q-18 23 -67 23q-30 0 -49 -6.5t-33 -17.5q-15 -12 -28 -36t-22 -52.5t-14 -58.5t-5 -55q0 -37 12 -52q10 -12 27 -18.5t45 -6.5q52 0 78 23zM204 635q14 59 45 95t87 36q25 0 44 -8.5t35 -19t30.5 -19t29.5 -8.5
q21 0 32.5 12.5t17.5 35.5h74q-14 -66 -49.5 -99t-83.5 -33q-25 0 -44 8.5t-35 18.5t-31 18.5t-31 8.5q-21 0 -31.5 -13t-15.5 -33h-74z" />
    <glyph glyph-name="odieresis" unicode="&#xf6;" horiz-adv-x="667" 
d="M634 373q0 -45 -9 -93.5t-27 -93.5t-44 -82.5t-60 -61.5q-42 -29 -94 -40.5t-121 -11.5q-80 0 -128 18t-74 47q-20 23 -31 57.5t-11 82.5q0 41 7.5 86.5t24 89t41.5 81.5t60 65q39 29 92 44t127 15q86 -1 133.5 -20t70.5 -45q18 -21 30.5 -54.5t12.5 -83.5zM380 153
q14 12 26.5 36t22 53t15 59.5t5.5 56.5q0 20 -3 32t-10 20q-18 23 -67 23q-30 0 -49 -6.5t-33 -17.5q-15 -12 -28 -36t-22 -52.5t-14 -58.5t-5 -55q0 -37 12 -52q10 -12 27 -18.5t45 -6.5q52 0 78 23zM279 626q-43 0 -58 17q-8 8 -8 30q0 20 8.5 41t25.5 32q9 5 23 8.5
t34 3.5q41 0 55 -14q10 -10 10 -30t-7.5 -41.5t-23.5 -33.5q-10 -7 -26 -10t-33 -3zM509 626q-44 0 -59 17q-9 9 -9 29t8.5 41.5t26.5 32.5q10 5 24.5 8.5t34.5 3.5q41 0 53 -14q5 -6 7 -14t2 -17q0 -20 -7 -41t-23 -33q-10 -7 -25.5 -10t-32.5 -3z" />
    <glyph glyph-name="divide" unicode="&#xf7;" horiz-adv-x="675" 
d="M418 559q0 -21 -5 -38.5t-15 -25.5q-8 -8 -25 -11t-37 -3q-46 0 -64 17q-8 8 -12.5 22.5t-4.5 35.5q0 25 7 41.5t18 23.5q15 12 59 12q41 0 59 -13q9 -8 14.5 -24.5t5.5 -36.5zM418 122q0 -21 -5 -38t-15 -26q-8 -8 -25 -11t-37 -3q-45 0 -64 18q-8 8 -12.5 22.5
t-4.5 35.5q0 25 7 41.5t18 23.5q15 12 59 12q41 0 59 -13q9 -8 14.5 -25t5.5 -37zM610 269h-546v140h546v-140z" />
    <glyph glyph-name="oslash" unicode="&#xf8;" horiz-adv-x="667" 
d="M63 74q-13 22 -20.5 52t-7.5 71q0 44 8.5 90t25 89t41.5 79.5t58 61.5q39 29 90 44t129 15q54 -1 95.5 -9t67.5 -24l32 30h105l-84 -79q14 -20 22.5 -52t8.5 -69q0 -44 -9.5 -92t-27.5 -93t-44 -83.5t-59 -62.5q-42 -29 -95.5 -41t-119.5 -11q-57 0 -96.5 9t-65.5 23
l-34 -32h-106zM386 146q12 9 23 28.5t20.5 43.5t16 50.5t9.5 51.5q1 9 0.5 17.5t-1.5 16.5l-221 -217q11 -8 28.5 -11.5t38.5 -3.5q57 0 86 24zM214 246q-2 -17 0 -31l218 213q-11 6 -27.5 9t-34.5 3q-58 0 -89 -25q-13 -10 -24 -28.5t-19.5 -41.5t-14.5 -49t-9 -50z" />
    <glyph glyph-name="ugrave" unicode="&#xf9;" horiz-adv-x="699" 
d="M316 561l-68 -319q-4 -20 -6.5 -35.5t-2.5 -26.5q0 -18 7 -26q8 -9 22 -12.5t32 -3.5q30 0 56.5 7.5t48.5 15.5l85 400h191l-120 -561h-150l-12 104h-7l-73 -86q-21 -10 -54 -17.5t-76 -7.5q-92 0 -126 46q-23 31 -23 81q0 20 2.5 42.5t9.5 52.5l73 346h191zM380 765
l119 -144h-117l-169 144h167z" />
    <glyph glyph-name="uacute" unicode="&#xfa;" horiz-adv-x="699" 
d="M316 561l-68 -319q-4 -20 -6.5 -35.5t-2.5 -26.5q0 -18 7 -26q8 -9 22 -12.5t32 -3.5q30 0 56.5 7.5t48.5 15.5l85 400h191l-120 -561h-150l-12 104h-7l-73 -86q-21 -10 -54 -17.5t-76 -7.5q-92 0 -126 46q-23 31 -23 81q0 20 2.5 42.5t9.5 52.5l73 346h191zM489 765h176
l-216 -145h-125z" />
    <glyph glyph-name="ucircumflex" unicode="&#xfb;" horiz-adv-x="699" 
d="M316 561l-68 -319q-4 -20 -6.5 -35.5t-2.5 -26.5q0 -18 7 -26q8 -9 22 -12.5t32 -3.5q30 0 56.5 7.5t48.5 15.5l85 400h191l-120 -561h-150l-12 104h-7l-73 -86q-21 -10 -54 -17.5t-76 -7.5q-92 0 -126 46q-23 31 -23 81q0 20 2.5 42.5t9.5 52.5l73 346h191zM604 621
h-112l-67 65l-94 -65h-123l162 139h131z" />
    <glyph glyph-name="udieresis" unicode="&#xfc;" horiz-adv-x="699" 
d="M316 561l-68 -319q-4 -20 -6.5 -35.5t-2.5 -26.5q0 -18 7 -26q8 -9 22 -12.5t32 -3.5q30 0 56.5 7.5t48.5 15.5l85 400h191l-120 -561h-150l-12 104h-7l-73 -86q-21 -10 -54 -17.5t-76 -7.5q-92 0 -126 46q-23 31 -23 81q0 20 2.5 42.5t9.5 52.5l73 346h191zM300 626
q-43 0 -58 17q-8 8 -8 30q0 20 8.5 41t25.5 32q9 5 23 8.5t34 3.5q41 0 55 -14q10 -10 10 -30t-7.5 -41.5t-23.5 -33.5q-10 -7 -26 -10t-33 -3zM530 626q-44 0 -59 17q-9 9 -9 29t8.5 41.5t26.5 32.5q10 5 24.5 8.5t34.5 3.5q41 0 53 -14q5 -6 7 -14t2 -17q0 -20 -7 -41
t-23 -33q-10 -7 -25.5 -10t-32.5 -3z" />
    <glyph glyph-name="yacute" unicode="&#xfd;" horiz-adv-x="646" 
d="M239 -270h-197l153 270h-88l-51 561h190l21 -400h17l197 400h210zM446 765h176l-216 -145h-125z" />
    <glyph glyph-name="thorn" unicode="&#xfe;" horiz-adv-x="692" 
d="M143 -264h-190l225 1062h191l-73 -337h7q3 3 16 16.5t28 29.5t27.5 29t14.5 15q18 9 44.5 14.5t62.5 5.5q84 0 125 -44q36 -38 36 -128q0 -47 -8.5 -98.5t-26 -100t-44.5 -91t-65 -69.5q-35 -26 -79.5 -37t-101.5 -11q-34 0 -71.5 4t-59.5 9zM386 147q17 12 31.5 36
t24.5 53.5t15.5 60.5t5.5 57q0 38 -14 54q-14 18 -61 18q-30 0 -56 -5.5t-46 -13.5l-60 -276q13 -2 31.5 -4t39.5 -2q29 0 50 5t39 17z" />
    <glyph glyph-name="ydieresis" unicode="&#xff;" horiz-adv-x="646" 
d="M239 -270h-197l153 270h-88l-51 561h190l21 -400h17l197 400h210zM250 626q-43 0 -58 17q-8 8 -8 30q0 20 8.5 41t25.5 32q9 5 23 8.5t34 3.5q41 0 55 -14q10 -10 10 -30t-7.5 -41.5t-23.5 -33.5q-10 -7 -26 -10t-33 -3zM480 626q-44 0 -59 17q-9 9 -9 29t8.5 41.5
t26.5 32.5q10 5 24.5 8.5t34.5 3.5q41 0 53 -14q5 -6 7 -14t2 -17q0 -20 -7 -41t-23 -33q-10 -7 -25.5 -10t-32.5 -3z" />
    <glyph glyph-name="Amacron" unicode="&#x100;" horiz-adv-x="789" 
d="M515 0l-17 205h-240l-108 -205h-206l413 750h276l78 -750h-196zM471 587h-23l-117 -235h156zM365 926h319l-23 -104h-318z" />
    <glyph glyph-name="amacron" unicode="&#x101;" horiz-adv-x="641" 
d="M359 0l-17 92h-7l-79 -84q-17 -8 -43.5 -12t-56.5 -4q-51 0 -80.5 10t-46.5 30q-13 15 -18 36.5t-5 45.5q0 25 5 51.5t15 50.5t25 44.5t35 33.5q18 12 44 20.5t63 15.5t85.5 12t113.5 9q6 21 6 43q0 15 -6 24q-14 19 -86 19q-26 0 -54 -2t-55 -4.5t-50.5 -5.5t-41.5 -6
l29 125q40 10 106.5 20t142.5 10q77 0 119 -12.5t62 -37.5q27 -32 27 -89q0 -23 -3.5 -54t-11.5 -67l-68 -314h-149zM370 244q-20 0 -43.5 -1.5t-45 -3.5t-38 -5.5t-23.5 -7.5q-15 -11 -23.5 -33.5t-8.5 -41.5q0 -9 1 -15t6 -11q6 -7 19.5 -9.5t32.5 -2.5q29 0 56 6t41 11z
M253 736h319l-23 -104h-318z" />
    <glyph glyph-name="Abreve" unicode="&#x102;" horiz-adv-x="789" 
d="M515 0l-17 205h-240l-108 -205h-206l413 750h276l78 -750h-196zM471 587h-23l-117 -235h156zM447 961q-3 -12 -3 -22q0 -23 18.5 -34t47.5 -11q41 0 61 17t25 50h103q-3 -31 -15 -59t-36 -49t-60.5 -33t-88.5 -12q-73 0 -113.5 29.5t-40.5 86.5q0 8 1.5 18.5t3.5 18.5h97
z" />
    <glyph glyph-name="abreve" unicode="&#x103;" horiz-adv-x="641" 
d="M359 0l-17 92h-7l-79 -84q-17 -8 -43.5 -12t-56.5 -4q-51 0 -80.5 10t-46.5 30q-13 15 -18 36.5t-5 45.5q0 25 5 51.5t15 50.5t25 44.5t35 33.5q18 12 44 20.5t63 15.5t85.5 12t113.5 9q6 21 6 43q0 15 -6 24q-14 19 -86 19q-26 0 -54 -2t-55 -4.5t-50.5 -5.5t-41.5 -6
l29 125q40 10 106.5 20t142.5 10q77 0 119 -12.5t62 -37.5q27 -32 27 -89q0 -23 -3.5 -54t-11.5 -67l-68 -314h-149zM370 244q-20 0 -43.5 -1.5t-45 -3.5t-38 -5.5t-23.5 -7.5q-15 -11 -23.5 -33.5t-8.5 -41.5q0 -9 1 -15t6 -11q6 -7 19.5 -9.5t32.5 -2.5q29 0 56 6t41 11z
M328 771q-3 -12 -3 -22q0 -23 18.5 -34t47.5 -11q41 0 61 17t25 50h103q-3 -31 -15 -59t-36 -49t-60.5 -33t-88.5 -12q-73 0 -113.5 29.5t-40.5 86.5q0 8 1.5 18.5t3.5 18.5h97z" />
    <glyph glyph-name="Aogonek" unicode="&#x104;" horiz-adv-x="789" 
d="M471 587h-23l-117 -235h156zM498 205h-240l-108 -205h-206l413 750h276l78 -750h-105l-57 -37q-24 -15 -40 -27t-23 -20q-12 -14 -12 -35q0 -12 5 -17q9 -9 41 -9q20 0 36 1.5t27 3.5l-13 -73q-14 -3 -35.5 -7t-50.5 -4q-34 0 -55.5 4.5t-33.5 15.5q-18 16 -18 54
q0 22 8.5 46t22.5 38q13 13 41.5 31t65.5 35z" />
    <glyph glyph-name="aogonek" unicode="&#x105;" horiz-adv-x="641" 
d="M370 244q-20 0 -43.5 -1.5t-45 -3.5t-38 -5.5t-23.5 -7.5q-15 -11 -23.5 -33.5t-8.5 -41.5q0 -9 1 -15t6 -11q6 -7 19.5 -9.5t32.5 -2.5q29 0 56 6t41 11zM450 0l-57 -37q-24 -15 -40 -27t-24 -20q-11 -13 -11 -35q0 -12 5 -17q9 -9 40 -9q20 0 36.5 1.5t27.5 3.5
l-13 -73q-14 -3 -35.5 -7t-50.5 -4q-34 0 -55.5 4.5t-33.5 15.5q-18 16 -18 54q0 22 8.5 46t22.5 38q13 13 41.5 31t65.5 35l-17 92h-7q-3 -3 -15.5 -16.5t-26.5 -28.5t-25.5 -27l-11.5 -12q-17 -8 -43.5 -12t-56.5 -4q-51 0 -80.5 10t-46.5 30q-13 15 -18 36.5t-5 45.5
q0 25 5 51.5t15 50.5t25 44.5t35 33.5q18 12 44 20.5t63 15.5t85.5 12t113.5 9q6 21 6 43q0 15 -6 24q-14 19 -86 19q-26 0 -54 -2t-55 -4.5t-50.5 -5.5t-41.5 -6l29 125q40 10 106.5 20t142.5 10q77 0 119 -12.5t62 -37.5q27 -32 27 -89q0 -23 -3.5 -54t-11.5 -67l-68 -314
h-58z" />
    <glyph glyph-name="Cacute" unicode="&#x106;" horiz-adv-x="692" 
d="M714 588q-32 5 -79 10t-102 5q-68 0 -105.5 -10t-62.5 -29q-26 -20 -46 -53.5t-34 -74t-21.5 -84t-7.5 -82.5q0 -27 5 -50t16 -36q32 -35 126 -35q63 0 122.5 9t99.5 17l-30 -146q-42 -14 -105.5 -26t-145.5 -12q-91 0 -148.5 19.5t-89.5 60.5q-22 27 -34.5 69.5
t-12.5 100.5q0 66 12.5 132.5t36 126.5t58 109.5t78.5 81.5q51 36 118 52.5t158 16.5q74 0 127.5 -8t95.5 -18zM550 956h176l-216 -145h-125z" />
    <glyph glyph-name="cacute" unicode="&#x107;" horiz-adv-x="540" 
d="M401 433q-32 0 -58 -6t-44 -20q-17 -13 -30.5 -36t-23 -50t-14.5 -55t-5 -51q0 -40 20 -60q22 -22 81 -22q39 0 79 6t69 12l-33 -134q-35 -11 -80 -19t-102 -8q-60 0 -102.5 11.5t-72.5 38.5q-25 23 -38.5 58.5t-13.5 83.5q0 46 8.5 95.5t26.5 96t45 86t64 65.5
q38 26 84.5 37.5t103.5 11.5q67 0 111 -6.5t75 -13.5l-22 -133q-28 5 -58 8.5t-70 3.5zM408 765h176l-216 -145h-125z" />
    <glyph glyph-name="Ccircumflex" unicode="&#x108;" horiz-adv-x="692" 
d="M714 588q-32 5 -79 10t-102 5q-68 0 -105.5 -10t-62.5 -29q-26 -20 -46 -53.5t-34 -74t-21.5 -84t-7.5 -82.5q0 -27 5 -50t16 -36q32 -35 126 -35q63 0 122.5 9t99.5 17l-30 -146q-42 -14 -105.5 -26t-145.5 -12q-91 0 -148.5 19.5t-89.5 60.5q-22 27 -34.5 69.5
t-12.5 100.5q0 66 12.5 132.5t36 126.5t58 109.5t78.5 81.5q51 36 118 52.5t158 16.5q74 0 127.5 -8t95.5 -18zM686 810h-112l-67 65l-94 -65h-123l162 139h131z" />
    <glyph glyph-name="ccircumflex" unicode="&#x109;" horiz-adv-x="540" 
d="M401 433q-32 0 -58 -6t-44 -20q-17 -13 -30.5 -36t-23 -50t-14.5 -55t-5 -51q0 -40 20 -60q22 -22 81 -22q39 0 79 6t69 12l-33 -134q-35 -11 -80 -19t-102 -8q-60 0 -102.5 11.5t-72.5 38.5q-25 23 -38.5 58.5t-13.5 83.5q0 46 8.5 95.5t26.5 96t45 86t64 65.5
q38 26 84.5 37.5t103.5 11.5q67 0 111 -6.5t75 -13.5l-22 -133q-28 5 -58 8.5t-70 3.5zM564 621h-112l-67 65l-94 -65h-123l162 139h131z" />
    <glyph glyph-name="Cdotaccent" unicode="&#x10a;" horiz-adv-x="692" 
d="M714 588q-32 5 -79 10t-102 5q-68 0 -105.5 -10t-62.5 -29q-26 -20 -46 -53.5t-34 -74t-21.5 -84t-7.5 -82.5q0 -27 5 -50t16 -36q32 -35 126 -35q63 0 122.5 9t99.5 17l-30 -146q-42 -14 -105.5 -26t-145.5 -12q-91 0 -148.5 19.5t-89.5 60.5q-22 27 -34.5 69.5
t-12.5 100.5q0 66 12.5 132.5t36 126.5t58 109.5t78.5 81.5q51 36 118 52.5t158 16.5q74 0 127.5 -8t95.5 -18zM501 820q-54 0 -67 18q-10 10 -10 35q0 26 10 51t30 36q11 7 26 10t41 3q50 0 66 -16q12 -14 12 -38t-9.5 -47.5t-26.5 -36.5q-11 -8 -30 -11.5t-42 -3.5z" />
    <glyph glyph-name="cdotaccent" unicode="&#x10b;" horiz-adv-x="540" 
d="M401 433q-32 0 -58 -6t-44 -20q-17 -13 -30.5 -36t-23 -50t-14.5 -55t-5 -51q0 -40 20 -60q22 -22 81 -22q39 0 79 6t69 12l-33 -134q-35 -11 -80 -19t-102 -8q-60 0 -102.5 11.5t-72.5 38.5q-25 23 -38.5 58.5t-13.5 83.5q0 46 8.5 95.5t26.5 96t45 86t64 65.5
q38 26 84.5 37.5t103.5 11.5q67 0 111 -6.5t75 -13.5l-22 -133q-28 5 -58 8.5t-70 3.5zM379 631q-54 0 -67 18q-10 10 -10 35q0 26 10 51t30 36q11 7 26 10t41 3q50 0 66 -16q12 -14 12 -38t-9.5 -47.5t-26.5 -36.5q-11 -8 -30 -11.5t-42 -3.5z" />
    <glyph glyph-name="Ccaron" unicode="&#x10c;" horiz-adv-x="692" 
d="M714 588q-32 5 -79 10t-102 5q-68 0 -105.5 -10t-62.5 -29q-26 -20 -46 -53.5t-34 -74t-21.5 -84t-7.5 -82.5q0 -27 5 -50t16 -36q32 -35 126 -35q63 0 122.5 9t99.5 17l-30 -146q-42 -14 -105.5 -26t-145.5 -12q-91 0 -148.5 19.5t-89.5 60.5q-22 27 -34.5 69.5
t-12.5 100.5q0 66 12.5 132.5t36 126.5t58 109.5t78.5 81.5q51 36 118 52.5t158 16.5q74 0 127.5 -8t95.5 -18zM324 949h112l66 -65l94 65h123l-161 -139h-131z" />
    <glyph glyph-name="ccaron" unicode="&#x10d;" horiz-adv-x="540" 
d="M401 433q-32 0 -58 -6t-44 -20q-17 -13 -30.5 -36t-23 -50t-14.5 -55t-5 -51q0 -40 20 -60q22 -22 81 -22q39 0 79 6t69 12l-33 -134q-35 -11 -80 -19t-102 -8q-60 0 -102.5 11.5t-72.5 38.5q-25 23 -38.5 58.5t-13.5 83.5q0 46 8.5 95.5t26.5 96t45 86t64 65.5
q38 26 84.5 37.5t103.5 11.5q67 0 111 -6.5t75 -13.5l-22 -133q-28 5 -58 8.5t-70 3.5zM195 760h112l66 -65l94 65h123l-161 -139h-131z" />
    <glyph glyph-name="Dcaron" unicode="&#x10e;" horiz-adv-x="808" 
d="M469 750q57 0 101 -5t77 -15t56 -24.5t39 -33.5q20 -26 32.5 -66t12.5 -103q0 -60 -13 -125t-37 -125t-57.5 -110t-74.5 -79q-51 -38 -125.5 -51t-166.5 -13h-300l158 750h298zM330 593l-93 -436h95q59 0 95.5 7t58.5 24q25 18 44.5 54.5t33 79t21 85t7.5 72.5
q0 29 -4.5 47.5t-15.5 32.5q-28 34 -136 34h-106zM312 949h112l66 -65l94 65h123l-161 -139h-131z" />
    <glyph glyph-name="dcaron" unicode="&#x10f;" horiz-adv-x="698" 
d="M539 802h191l-171 -802h-153l-11 99h-8l-17 -17t-29.5 -30.5t-29 -30l-14.5 -14.5q-16 -7 -42.5 -11.5t-61.5 -4.5q-40 0 -72.5 11.5t-54.5 34.5q-36 39 -36 125q0 45 8.5 96.5t26 100t44.5 91t64 69.5q70 51 183 51q34 0 71 -4t60 -10zM301 412q-18 -14 -32 -40
t-24 -56.5t-15 -61.5t-5 -55q0 -37 11 -49q16 -17 61 -17q30 0 57.5 8t47.5 16l59 272q-14 2 -31.5 4t-38.5 2q-29 0 -50.5 -5t-39.5 -18zM830 800h149l-121 -255h-120z" />
    <glyph glyph-name="Dcroat" unicode="&#x110;" horiz-adv-x="807" 
d="M469 750q57 0 101 -5t77 -15t56 -24.5t39 -33.5q20 -26 32.5 -66t12.5 -103q0 -60 -13 -125t-37 -125t-57.5 -110t-74.5 -79q-51 -38 -125.5 -51t-166.5 -13h-300l67 319h-77l40 107h59l69 324h298zM294 426h156l-40 -107h-139l-34 -162h95q59 0 95.5 7t58.5 24
q25 18 44.5 54.5t33 79t21 85t7.5 72.5q0 29 -4.5 47.5t-15.5 32.5q-28 34 -136 34h-106z" />
    <glyph glyph-name="dcroat" unicode="&#x111;" horiz-adv-x="698" 
d="M340 727h183l18 84h191l-18 -84h70l-25 -118h-70l-130 -609h-156l-8 101h-8q-3 -3 -17 -17.5t-30 -31.5t-29.5 -30.5l-14.5 -14.5q-16 -7 -45 -12t-65 -5q-37 0 -69 10.5t-53 33.5q-16 17 -25.5 48t-9.5 77q0 45 7.5 93t24 92.5t42.5 83.5t63 66q35 26 81 38t103 12
q35 0 70.5 -5t60.5 -10l17 80h-183zM296 391q-17 -13 -30.5 -36t-22.5 -50t-14 -55t-5 -52q0 -34 13 -47q8 -10 21.5 -14t36.5 -4q30 0 59 8.5t48 15.5l54 250q-14 2 -32 3.5t-39 1.5q-29 0 -50.5 -4t-38.5 -17z" />
    <glyph glyph-name="Emacron" unicode="&#x112;" horiz-adv-x="648" 
d="M522 0h-518l158 750h541l-61 -157h-321l-29 -137h290l-59 -151h-263l-31 -146h359zM296 925h319l-23 -104h-318z" />
    <glyph glyph-name="emacron" unicode="&#x113;" horiz-adv-x="620" 
d="M32 190q0 46 8 92t24 88.5t40 78.5t55 62q40 33 93.5 49.5t128.5 16.5q118 0 169.5 -42t51.5 -117q0 -101 -70 -145t-194 -44q-67 0 -112 6q-2 -11 -3 -20t-1 -18q0 -17 3.5 -29t14.5 -21q23 -20 95 -20q28 0 56 2.5t54 6.5t48.5 8t38.5 7l-41 -130q-43 -12 -96.5 -21
t-131.5 -9q-67 0 -111 14t-72 43q-23 24 -35.5 59t-12.5 83zM358 454q-21 0 -36.5 -6t-28.5 -17q-14 -12 -25.5 -34.5t-19.5 -51.5q14 -2 33.5 -3t38.5 0q49 0 74 18t25 48q0 20 -14.5 33t-46.5 13zM238 736h319l-23 -104h-318z" />
    <glyph glyph-name="Ebreve" unicode="&#x114;" horiz-adv-x="648" 
d="M522 0h-518l158 750h541l-61 -157h-321l-29 -137h290l-59 -151h-263l-31 -146h359zM371 961q-3 -12 -3 -22q0 -23 18.5 -34t47.5 -11q41 0 61 17t25 50h103q-3 -31 -15 -59t-36 -49t-60.5 -33t-88.5 -12q-73 0 -113.5 29.5t-40.5 86.5q0 8 1.5 18.5t3.5 18.5h97z" />
    <glyph glyph-name="ebreve" unicode="&#x115;" horiz-adv-x="620" 
d="M32 190q0 46 8 92t24 88.5t40 78.5t55 62q40 33 93.5 49.5t128.5 16.5q118 0 169.5 -42t51.5 -117q0 -101 -70 -145t-194 -44q-67 0 -112 6q-2 -11 -3 -20t-1 -18q0 -17 3.5 -29t14.5 -21q23 -20 95 -20q28 0 56 2.5t54 6.5t48.5 8t38.5 7l-41 -130q-43 -12 -96.5 -21
t-131.5 -9q-67 0 -111 14t-72 43q-23 24 -35.5 59t-12.5 83zM358 454q-21 0 -36.5 -6t-28.5 -17q-14 -12 -25.5 -34.5t-19.5 -51.5q14 -2 33.5 -3t38.5 0q49 0 74 18t25 48q0 20 -14.5 33t-46.5 13zM313 771q-3 -12 -3 -22q0 -23 18.5 -34t47.5 -11q41 0 61 17t25 50h103
q-3 -31 -15 -59t-36 -49t-60.5 -33t-88.5 -12q-73 0 -113.5 29.5t-40.5 86.5q0 8 1.5 18.5t3.5 18.5h97z" />
    <glyph glyph-name="Edotaccent" unicode="&#x116;" horiz-adv-x="648" 
d="M522 0h-518l158 750h541l-61 -157h-321l-29 -137h290l-59 -151h-263l-31 -146h359zM432 820q-54 0 -67 18q-10 10 -10 35q0 26 10 51t30 36q11 7 26 10t41 3q50 0 66 -16q12 -14 12 -38t-9.5 -47.5t-26.5 -36.5q-11 -8 -30 -11.5t-42 -3.5z" />
    <glyph glyph-name="edotaccent" unicode="&#x117;" horiz-adv-x="620" 
d="M32 190q0 46 8 92t24 88.5t40 78.5t55 62q40 33 93.5 49.5t128.5 16.5q118 0 169.5 -42t51.5 -117q0 -101 -70 -145t-194 -44q-67 0 -112 6q-2 -11 -3 -20t-1 -18q0 -17 3.5 -29t14.5 -21q23 -20 95 -20q28 0 56 2.5t54 6.5t48.5 8t38.5 7l-41 -130q-43 -12 -96.5 -21
t-131.5 -9q-67 0 -111 14t-72 43q-23 24 -35.5 59t-12.5 83zM358 454q-21 0 -36.5 -6t-28.5 -17q-14 -12 -25.5 -34.5t-19.5 -51.5q14 -2 33.5 -3t38.5 0q49 0 74 18t25 48q0 20 -14.5 33t-46.5 13zM378 631q-54 0 -67 18q-10 10 -10 35q0 26 10 51t30 36q11 7 26 10t41 3
q50 0 66 -16q12 -14 12 -38t-9.5 -47.5t-26.5 -36.5q-11 -8 -30 -11.5t-42 -3.5z" />
    <glyph glyph-name="Eogonek" unicode="&#x118;" horiz-adv-x="648" 
d="M4 0l158 750h541l-61 -157h-321l-29 -137h290l-59 -151h-263l-31 -146h359l-66 -159h-49l-58 -37q-24 -15 -40 -27t-23 -20q-12 -14 -12 -35q0 -12 5 -17q9 -9 41 -9q20 0 36 1.5t28 3.5l-14 -73q-14 -3 -35 -7t-50 -4q-35 0 -56.5 4.5t-33.5 15.5q-18 16 -18 54
q0 22 8.5 46t22.5 38q13 13 41.5 31t65.5 35h-377z" />
    <glyph glyph-name="eogonek" unicode="&#x119;" horiz-adv-x="620" 
d="M358 454q-21 0 -36.5 -6t-28.5 -17q-14 -12 -25.5 -34.5t-19.5 -51.5q14 -2 33.5 -3t38.5 0q49 0 74 18t25 48q0 20 -14.5 33t-46.5 13zM414 -213q-14 -3 -35.5 -7t-50.5 -4q-34 0 -55.5 4.5t-33.5 15.5q-18 16 -18 54q0 22 8.5 46t22.5 38q11 12 37 28t58 32
q-38 -3 -84 -3q-67 0 -111 14t-72 43q-23 24 -35.5 59t-12.5 83q0 46 8 92t24 88.5t40 78.5t55 62q40 33 93.5 49.5t128.5 16.5q118 0 169.5 -42t51.5 -117q0 -101 -70 -145t-194 -44q-67 0 -112 6q-2 -11 -3 -20t-1 -18q0 -17 3.5 -29t14.5 -21q23 -20 95 -20q28 0 56 2.5
t54 6.5t48.5 8t38.5 7l-41 -130q-10 -2 -19.5 -5t-20.5 -5l-57 -41q-24 -17 -41 -31.5t-24 -22.5q-5 -6 -8.5 -15.5t-3.5 -19.5q0 -12 5 -17q9 -9 41 -9q20 0 36.5 1.5t27.5 3.5z" />
    <glyph glyph-name="Ecaron" unicode="&#x11a;" horiz-adv-x="648" 
d="M522 0h-518l158 750h541l-61 -157h-321l-29 -137h290l-59 -151h-263l-31 -146h359zM264 949h112l66 -65l94 65h123l-161 -139h-131z" />
    <glyph glyph-name="ecaron" unicode="&#x11b;" horiz-adv-x="620" 
d="M32 190q0 46 8 92t24 88.5t40 78.5t55 62q40 33 93.5 49.5t128.5 16.5q118 0 169.5 -42t51.5 -117q0 -101 -70 -145t-194 -44q-67 0 -112 6q-2 -11 -3 -20t-1 -18q0 -17 3.5 -29t14.5 -21q23 -20 95 -20q28 0 56 2.5t54 6.5t48.5 8t38.5 7l-41 -130q-43 -12 -96.5 -21
t-131.5 -9q-67 0 -111 14t-72 43q-23 24 -35.5 59t-12.5 83zM358 454q-21 0 -36.5 -6t-28.5 -17q-14 -12 -25.5 -34.5t-19.5 -51.5q14 -2 33.5 -3t38.5 0q49 0 74 18t25 48q0 20 -14.5 33t-46.5 13zM209 760h112l66 -65l94 65h123l-161 -139h-131z" />
    <glyph glyph-name="Gcircumflex" unicode="&#x11c;" horiz-adv-x="772" 
d="M754 588q-39 5 -90.5 10t-113.5 5q-73 0 -116.5 -9t-69.5 -28q-28 -21 -49 -58t-35 -80.5t-21 -89t-7 -82.5q0 -59 22 -84q30 -33 112 -33q35 0 57 2t40 4l33 146h-146l51 138h306l-84 -394q-20 -6 -48.5 -13.5t-63.5 -14.5t-76 -11.5t-85 -4.5q-103 0 -164.5 20.5
t-96.5 61.5q-22 26 -36.5 67t-14.5 105q0 67 12 133t35 125t58 107t80 80q50 36 118.5 53t165.5 17q78 0 144 -8.5t110 -17.5zM699 810h-112l-67 65l-94 -65h-123l162 139h131z" />
    <glyph glyph-name="gcircumflex" unicode="&#x11d;" horiz-adv-x="692" 
d="M573 79q-22 -101 -50.5 -166t-72.5 -107q-45 -42 -105.5 -60t-148.5 -18q-35 0 -69.5 3t-65.5 8t-56 10t-41 10l23 143q15 -3 38 -7t50 -7.5t56.5 -6t58.5 -2.5q46 0 79 6.5t51 21.5q17 14 30.5 50.5t26.5 92.5l8 41h-6l-85 -77q-17 -7 -44.5 -12t-65.5 -5q-78 0 -119 41
q-17 18 -27 49t-10 77q0 47 8.5 98.5t26.5 99t45 88.5t64 67q37 27 85.5 40t119.5 13q31 0 61 -3t56 -7.5t46.5 -9.5t33.5 -9l63 22h39zM457 428q-11 2 -30 4t-43 2q-26 0 -46.5 -4.5t-38.5 -18.5q-19 -14 -33.5 -40t-24.5 -56.5t-15 -61.5t-5 -56q0 -16 3 -28.5t10 -20.5
q16 -18 63 -18q30 0 55.5 6t44.5 13zM600 621h-112l-67 65l-94 -65h-123l162 139h131z" />
    <glyph glyph-name="Gbreve" unicode="&#x11e;" horiz-adv-x="772" 
d="M754 588q-39 5 -90.5 10t-113.5 5q-73 0 -116.5 -9t-69.5 -28q-28 -21 -49 -58t-35 -80.5t-21 -89t-7 -82.5q0 -59 22 -84q30 -33 112 -33q35 0 57 2t40 4l33 146h-146l51 138h306l-84 -394q-20 -6 -48.5 -13.5t-63.5 -14.5t-76 -11.5t-85 -4.5q-103 0 -164.5 20.5
t-96.5 61.5q-22 26 -36.5 67t-14.5 105q0 67 12 133t35 125t58 107t80 80q50 36 118.5 53t165.5 17q78 0 144 -8.5t110 -17.5zM450 961q-3 -12 -3 -22q0 -23 18.5 -34t47.5 -11q41 0 61 17t25 50h103q-3 -31 -15 -59t-36 -49t-60.5 -33t-88.5 -12q-73 0 -113.5 29.5
t-40.5 86.5q0 8 1.5 18.5t3.5 18.5h97z" />
    <glyph glyph-name="gbreve" unicode="&#x11f;" horiz-adv-x="692" 
d="M573 79q-22 -101 -50.5 -166t-72.5 -107q-45 -42 -105.5 -60t-148.5 -18q-35 0 -69.5 3t-65.5 8t-56 10t-41 10l23 143q15 -3 38 -7t50 -7.5t56.5 -6t58.5 -2.5q46 0 79 6.5t51 21.5q17 14 30.5 50.5t26.5 92.5l8 41h-6l-85 -77q-17 -7 -44.5 -12t-65.5 -5q-78 0 -119 41
q-17 18 -27 49t-10 77q0 47 8.5 98.5t26.5 99t45 88.5t64 67q37 27 85.5 40t119.5 13q31 0 61 -3t56 -7.5t46.5 -9.5t33.5 -9l63 22h39zM457 428q-11 2 -30 4t-43 2q-26 0 -46.5 -4.5t-38.5 -18.5q-19 -14 -33.5 -40t-24.5 -56.5t-15 -61.5t-5 -56q0 -16 3 -28.5t10 -20.5
q16 -18 63 -18q30 0 55.5 6t44.5 13zM354 771q-3 -12 -3 -22q0 -23 18.5 -34t47.5 -11q41 0 61 17t25 50h103q-3 -31 -15 -59t-36 -49t-60.5 -33t-88.5 -12q-73 0 -113.5 29.5t-40.5 86.5q0 8 1.5 18.5t3.5 18.5h97z" />
    <glyph glyph-name="Gdotaccent" unicode="&#x120;" horiz-adv-x="772" 
d="M754 588q-39 5 -90.5 10t-113.5 5q-73 0 -116.5 -9t-69.5 -28q-28 -21 -49 -58t-35 -80.5t-21 -89t-7 -82.5q0 -59 22 -84q30 -33 112 -33q35 0 57 2t40 4l33 146h-146l51 138h306l-84 -394q-20 -6 -48.5 -13.5t-63.5 -14.5t-76 -11.5t-85 -4.5q-103 0 -164.5 20.5
t-96.5 61.5q-22 26 -36.5 67t-14.5 105q0 67 12 133t35 125t58 107t80 80q50 36 118.5 53t165.5 17q78 0 144 -8.5t110 -17.5zM515 820q-54 0 -67 18q-10 10 -10 35q0 26 10 51t30 36q11 7 26 10t41 3q50 0 66 -16q12 -14 12 -38t-9.5 -47.5t-26.5 -36.5q-11 -8 -30 -11.5
t-42 -3.5z" />
    <glyph glyph-name="gdotaccent" unicode="&#x121;" horiz-adv-x="692" 
d="M573 79q-22 -101 -50.5 -166t-72.5 -107q-45 -42 -105.5 -60t-148.5 -18q-35 0 -69.5 3t-65.5 8t-56 10t-41 10l23 143q15 -3 38 -7t50 -7.5t56.5 -6t58.5 -2.5q46 0 79 6.5t51 21.5q17 14 30.5 50.5t26.5 92.5l8 41h-6l-85 -77q-17 -7 -44.5 -12t-65.5 -5q-78 0 -119 41
q-17 18 -27 49t-10 77q0 47 8.5 98.5t26.5 99t45 88.5t64 67q37 27 85.5 40t119.5 13q31 0 61 -3t56 -7.5t46.5 -9.5t33.5 -9l63 22h39zM457 428q-11 2 -30 4t-43 2q-26 0 -46.5 -4.5t-38.5 -18.5q-19 -14 -33.5 -40t-24.5 -56.5t-15 -61.5t-5 -56q0 -16 3 -28.5t10 -20.5
q16 -18 63 -18q30 0 55.5 6t44.5 13zM419 631q-54 0 -67 18q-10 10 -10 35q0 26 10 51t30 36q11 7 26 10t41 3q50 0 66 -16q12 -14 12 -38t-9.5 -47.5t-26.5 -36.5q-11 -8 -30 -11.5t-42 -3.5z" />
    <glyph glyph-name="Gcommaaccent" unicode="&#x122;" horiz-adv-x="772" 
d="M754 588q-39 5 -90.5 10t-113.5 5q-73 0 -116.5 -9t-69.5 -28q-28 -21 -49 -58t-35 -80.5t-21 -89t-7 -82.5q0 -59 22 -84q30 -33 112 -33q35 0 57 2t40 4l33 146h-146l51 138h306l-84 -394q-20 -6 -48.5 -13.5t-63.5 -14.5t-76 -11.5t-85 -4.5q-103 0 -164.5 20.5
t-96.5 61.5q-22 26 -36.5 67t-14.5 105q0 67 12 133t35 125t58 107t80 80q50 36 118.5 53t165.5 17q78 0 144 -8.5t110 -17.5zM273 -78h176l-143 -169h-139z" />
    <glyph glyph-name="gcommaaccent" unicode="&#x123;" horiz-adv-x="692" 
d="M573 79q-22 -101 -50.5 -166t-72.5 -107q-45 -42 -105.5 -60t-148.5 -18q-35 0 -69.5 3t-65.5 8t-56 10t-41 10l23 143q15 -3 38 -7t50 -7.5t56.5 -6t58.5 -2.5q46 0 79 6.5t51 21.5q17 14 30.5 50.5t26.5 92.5l8 41h-6l-85 -77q-17 -7 -44.5 -12t-65.5 -5q-78 0 -119 41
q-17 18 -27 49t-10 77q0 47 8.5 98.5t26.5 99t45 88.5t64 67q37 27 85.5 40t119.5 13q31 0 61 -3t56 -7.5t46.5 -9.5t33.5 -9l63 22h39zM457 428q-11 2 -30 4t-43 2q-26 0 -46.5 -4.5t-38.5 -18.5q-19 -14 -33.5 -40t-24.5 -56.5t-15 -61.5t-5 -56q0 -16 3 -28.5t10 -20.5
q16 -18 63 -18q30 0 55.5 6t44.5 13zM466 632h-173l144 168h138z" />
    <glyph glyph-name="Hcircumflex" unicode="&#x124;" horiz-adv-x="813" 
d="M482 0l63 299h-275l-64 -299h-191l158 750h192l-62 -292h276l62 292h192l-159 -750h-192zM705 810h-112l-67 65l-94 -65h-123l162 139h131z" />
    <glyph glyph-name="hcircumflex" unicode="&#x125;" horiz-adv-x="696" 
d="M370 0l68 318q4 19 6.5 34t2.5 26q0 9 -1.5 17t-6.5 13q-7 9 -21 12t-32 3q-32 0 -58 -7t-46 -15l-86 -401h-190l170 798h190l-73 -339h8l73 79q20 11 56 20t80 9q41 0 70.5 -10.5t44.5 -31.5q23 -29 23 -81q0 -20 -4 -47t-11 -59l-71 -338h-192zM469 848h-112l-67 65
l-94 -65h-123l162 139h131z" />
    <glyph glyph-name="Hbar" unicode="&#x126;" horiz-adv-x="810" 
d="M70 650h67l21 100h192l-21 -100h276l20 100h193l-22 -100h69l-23 -108h-68l-115 -542h-193l62 293h-275l-62 -293h-191l114 542h-67zM560 439l22 103h-276l-22 -103h276z" />
    <glyph glyph-name="hbar" unicode="&#x127;" horiz-adv-x="691" 
d="M86 727h75l15 71h190l-15 -71h180l-26 -118h-181l-37 -176h8l72 81q21 10 55.5 18t77.5 8t73.5 -10t46.5 -33q11 -14 16.5 -33.5t5.5 -45.5q0 -40 -13 -98l-67 -320h-192l62 292q4 20 6.5 36t2.5 27q0 17 -6 26q-8 10 -22.5 12.5t-32.5 2.5q-32 0 -58.5 -7.5t-45.5 -15.5
l-80 -373h-190l129 609h-76z" />
    <glyph glyph-name="Itilde" unicode="&#x128;" horiz-adv-x="345" 
d="M15 0l158 750h192l-159 -750h-191zM93 824q14 59 45 95t87 36q25 0 44 -8.5t35 -19t30.5 -19t29.5 -8.5q21 0 32.5 12.5t17.5 35.5h74q-14 -66 -49.5 -99t-83.5 -33q-25 0 -44 8.5t-35 18.5t-31 18.5t-31 8.5q-21 0 -31.5 -13t-15.5 -33h-74z" />
    <glyph glyph-name="itilde" unicode="&#x129;" horiz-adv-x="328" 
d="M9 0l118 561h191l-119 -561h-190zM48 635q14 59 45 95t87 36q25 0 44 -8.5t35 -19t30.5 -19t29.5 -8.5q21 0 32.5 12.5t17.5 35.5h74q-14 -66 -49.5 -99t-83.5 -33q-25 0 -44 8.5t-35 18.5t-31 18.5t-31 8.5q-21 0 -31.5 -13t-15.5 -33h-74z" />
    <glyph glyph-name="Imacron" unicode="&#x12a;" horiz-adv-x="345" 
d="M15 0l158 750h192l-159 -750h-191zM143 925h319l-23 -104h-318z" />
    <glyph glyph-name="imacron" unicode="&#x12b;" horiz-adv-x="328" 
d="M9 0l118 561h191l-119 -561h-190zM98 736h319l-23 -104h-318z" />
    <glyph glyph-name="Ibreve" unicode="&#x12c;" horiz-adv-x="345" 
d="M15 0l158 750h192l-159 -750h-191zM226 961q-3 -12 -3 -22q0 -23 18.5 -34t47.5 -11q41 0 61 17t25 50h103q-3 -31 -15 -59t-36 -49t-60.5 -33t-88.5 -12q-73 0 -113.5 29.5t-40.5 86.5q0 8 1.5 18.5t3.5 18.5h97z" />
    <glyph glyph-name="ibreve" unicode="&#x12d;" horiz-adv-x="328" 
d="M9 0l118 561h191l-119 -561h-190zM182 771q-3 -12 -3 -22q0 -23 18.5 -34t47.5 -11q41 0 61 17t25 50h103q-3 -31 -15 -59t-36 -49t-60.5 -33t-88.5 -12q-73 0 -113.5 29.5t-40.5 86.5q0 8 1.5 18.5t3.5 18.5h97z" />
    <glyph glyph-name="Iogonek" unicode="&#x12e;" horiz-adv-x="345" 
d="M15 0l158 750h192l-159 -750h-18l-48 -34q-23 -17 -36.5 -28t-21.5 -20q-12 -15 -12 -37q0 -12 5 -17q9 -9 41 -9q20 0 36 1.5t28 3.5l-14 -73q-14 -3 -35 -7t-50 -4q-35 0 -56.5 4.5t-33.5 15.5q-17 15 -17 54q0 22 8.5 47t22.5 39q13 13 39.5 31t55.5 33h-85z" />
    <glyph glyph-name="iogonek" unicode="&#x12f;" horiz-adv-x="332" 
d="M368 753q-2 -27 -11.5 -52t-29.5 -39q-14 -10 -36 -14t-48 -4q-59 0 -78 22q-12 13 -10 44q2 30 13.5 57t32.5 39q12 7 30 10.5t47 3.5q27 0 47 -4t29 -14q8 -8 11 -20.5t3 -28.5zM10 0l118 561h190l-119 -561h-15l-43 -30q-26 -18 -41.5 -31t-22.5 -21q-12 -15 -12 -37
q0 -12 5 -17q9 -9 41 -9q20 0 36.5 1.5t27.5 3.5l-13 -73q-14 -3 -35.5 -7t-50.5 -4q-34 0 -55.5 4.5t-33.5 15.5q-18 16 -18 54q0 22 8.5 46t22.5 39q13 13 38.5 30.5t56.5 34.5h-85z" />
    <glyph glyph-name="Idotaccent" unicode="&#x130;" horiz-adv-x="345" 
d="M15 0l158 750h192l-159 -750h-191zM282 820q-54 0 -67 18q-10 10 -10 35q0 26 10 51t30 36q11 7 26 10t41 3q50 0 66 -16q12 -14 12 -38t-9.5 -47.5t-26.5 -36.5q-11 -8 -30 -11.5t-42 -3.5z" />
    <glyph glyph-name="dotlessi" unicode="&#x131;" horiz-adv-x="328" 
d="M9 0l118 561h191l-119 -561h-190z" />
    <glyph glyph-name="Jcircumflex" unicode="&#x134;" horiz-adv-x="584" 
d="M175 -11q-30 0 -60 2.5t-56.5 6t-49 7.5t-37.5 8l20 148q26 -5 66 -10t82 -5q51 0 79.5 9t45.5 23q16 14 30 45.5t29 97.5l90 429h191l-93 -440q-20 -97 -45.5 -158t-67.5 -99q-39 -34 -94.5 -49t-129.5 -15zM701 810h-112l-67 65l-94 -65h-123l162 139h131z" />
    <glyph glyph-name="jcircumflex" unicode="&#x135;" horiz-adv-x="332" 
d="M189 -52q-25 -118 -87.5 -170.5t-174.5 -52.5q-38 0 -71.5 4.5t-53.5 8.5l19 126q14 -2 34.5 -4t43.5 -2q22 0 38.5 5t28.5 16t20 29.5t13 44.5l129 608h191zM435 621h-112l-67 65l-94 -65h-123l162 139h131z" />
    <glyph glyph-name="Kcommaaccent" unicode="&#x136;" horiz-adv-x="777" 
d="M706 0h-227l-156 357h-42l-76 -357h-190l159 750h190l-78 -367l336 367h251l-356 -368zM254 -78h176l-143 -169h-139z" />
    <glyph glyph-name="kcommaaccent" unicode="&#x137;" horiz-adv-x="647" 
d="M584 0h-210l-88 259h-34l-55 -259h-190l170 798h190l-109 -510l221 273h227l-246 -270zM203 -78h176l-143 -169h-139z" />
    <glyph glyph-name="kgreenlandic" unicode="&#x138;" horiz-adv-x="647" 
d="M584 0h-209l-88 259h-34l-56 -259h-189l119 561h190l-58 -273l221 273h227l-246 -270z" />
    <glyph glyph-name="Lacute" unicode="&#x139;" horiz-adv-x="629" 
d="M241 159h347l-68 -159h-504l158 750h192zM359 955h176l-216 -145h-125z" />
    <glyph glyph-name="lacute" unicode="&#x13a;" horiz-adv-x="388" 
d="M363 799l-127 -596q-5 -25 -5 -38q0 -20 10.5 -27.5t31.5 -7.5q17 0 35 2.5t32 4.5l-26 -125q-23 -5 -59 -12t-81 -7q-72 0 -106 28t-34 87q0 23 4 48t9 53l126 590h190zM349 997h176l-216 -145h-125z" />
    <glyph glyph-name="Lcommaaccent" unicode="&#x13b;" horiz-adv-x="629" 
d="M241 159h347l-68 -159h-504l158 750h192zM194 -78h176l-143 -169h-139z" />
    <glyph glyph-name="lcommaaccent" unicode="&#x13c;" horiz-adv-x="388" 
d="M363 799l-127 -596q-5 -25 -5 -38q0 -20 10.5 -27.5t31.5 -7.5q17 0 35 2.5t32 4.5l-26 -125q-23 -5 -59 -12t-81 -7q-72 0 -106 28t-34 87q0 23 4 48t9 53l126 590h190zM75 -78h176l-143 -169h-139z" />
    <glyph glyph-name="Lcaron" unicode="&#x13d;" horiz-adv-x="629" 
d="M241 159h347l-68 -159h-504l158 750h192zM528 750h149l-121 -255h-120z" />
    <glyph glyph-name="lcaron" unicode="&#x13e;" horiz-adv-x="388" 
d="M363 799l-127 -596q-5 -25 -5 -38q0 -20 10.5 -27.5t31.5 -7.5q17 0 35 2.5t32 4.5l-26 -125q-23 -5 -59 -12t-81 -7q-72 0 -106 28t-34 87q0 23 4 48t9 53l126 590h190zM468 802h149l-121 -255h-120z" />
    <glyph glyph-name="Ldot" unicode="&#x13f;" horiz-adv-x="629" 
d="M241 159h347l-68 -159h-504l158 750h192zM583 353q-14 -11 -35 -15t-49 -4q-65 0 -83 23q-11 13 -11 41q0 35 12 65.5t34 44.5q26 16 82 16q61 0 78 -20q14 -14 14 -44q0 -31 -10.5 -61t-31.5 -46z" />
    <glyph glyph-name="ldot" unicode="&#x140;" horiz-adv-x="452" 
d="M363 799l-127 -596q-5 -25 -5 -38q0 -20 10.5 -27.5t31.5 -7.5q17 0 35 2.5t32 4.5l-26 -125q-23 -5 -59 -12t-81 -7q-72 0 -106 28t-34 87q0 23 4 48t9 53l126 590h190zM394 344q-54 0 -67 18q-10 10 -10 35q0 26 10 51t30 36q11 7 26 10t41 3q50 0 66 -16
q12 -14 12 -38t-9.5 -47.5t-26.5 -36.5q-11 -8 -30 -11.5t-42 -3.5z" />
    <glyph glyph-name="Lslash" unicode="&#x141;" horiz-adv-x="629" 
d="M460 412l-186 -78l-37 -175h349l-70 -159h-504l53 249l-89 -38l31 148l89 38l74 353h192l-57 -268l186 77z" />
    <glyph glyph-name="lslash" unicode="&#x142;" horiz-adv-x="390" 
d="M364 799l-59 -275l118 46l-31 -148l-118 -46l-36 -163q-2 -12 -4.5 -26.5t-2.5 -21.5q0 -20 10.5 -27.5t29.5 -7.5q23 0 39 2t30 4l-26 -124q-23 -5 -61.5 -12t-83.5 -7q-72 0 -103.5 29t-31.5 86q0 18 2.5 38t7.5 42l23 111l-81 -34l32 148l80 33l75 353h191z" />
    <glyph glyph-name="Nacute" unicode="&#x143;" horiz-adv-x="884" 
d="M452 0l-124 585h-16l-124 -585h-172l158 750h299l118 -584h15l124 584h174l-159 -750h-293zM595 955h176l-216 -145h-125z" />
    <glyph glyph-name="nacute" unicode="&#x144;" horiz-adv-x="698" 
d="M375 0l68 323q8 38 8 60q0 8 -1.5 15t-5.5 12q-8 10 -22 13t-31 3q-30 0 -56.5 -8t-48.5 -16l-85 -402h-191l119 561h152l12 -102h7l71 83q24 11 60 19.5t80 8.5q86 0 119 -43q10 -14 16 -33.5t6 -45.5q0 -20 -3.5 -46.5t-12.5 -68.5l-70 -333h-191zM445 765h176
l-216 -145h-125z" />
    <glyph glyph-name="Ncommaaccent" unicode="&#x145;" horiz-adv-x="884" 
d="M452 0l-124 585h-16l-124 -585h-172l158 750h299l118 -584h15l124 584h174l-159 -750h-293zM312 -78h176l-143 -169h-139z" />
    <glyph glyph-name="ncommaaccent" unicode="&#x146;" horiz-adv-x="698" 
d="M375 0l68 323q8 38 8 60q0 8 -1.5 15t-5.5 12q-8 10 -22 13t-31 3q-30 0 -56.5 -8t-48.5 -16l-85 -402h-191l119 561h152l12 -102h7l71 83q24 11 60 19.5t80 8.5q86 0 119 -43q10 -14 16 -33.5t6 -45.5q0 -20 -3.5 -46.5t-12.5 -68.5l-70 -333h-191zM217 -78h176
l-143 -169h-139z" />
    <glyph glyph-name="Ncaron" unicode="&#x147;" horiz-adv-x="884" 
d="M452 0l-124 585h-16l-124 -585h-172l158 750h299l118 -584h15l124 584h174l-159 -750h-293zM374 949h112l66 -65l94 65h123l-161 -139h-131z" />
    <glyph glyph-name="ncaron" unicode="&#x148;" horiz-adv-x="698" 
d="M375 0l68 323q8 38 8 60q0 8 -1.5 15t-5.5 12q-8 10 -22 13t-31 3q-30 0 -56.5 -8t-48.5 -16l-85 -402h-191l119 561h152l12 -102h7l71 83q24 11 60 19.5t80 8.5q86 0 119 -43q10 -14 16 -33.5t6 -45.5q0 -20 -3.5 -46.5t-12.5 -68.5l-70 -333h-191zM231 760h112l66 -65
l94 65h123l-161 -139h-131z" />
    <glyph glyph-name="Eng" unicode="&#x14a;" horiz-adv-x="885" 
d="M420 -257q-32 0 -63 2.5t-57.5 6t-47.5 7.5t-34 8l19 150q13 -2 31.5 -4.5t39.5 -4.5t43 -3.5t42 -1.5q55 0 87 9t49 23q10 8 19 23.5t18 41.5h-116l-122 585h-16l-124 -585h-172l158 750h301l115 -584h16l124 584h174l-146 -686q-20 -95 -45 -156.5t-67 -98.5
q-39 -35 -95 -50.5t-131 -15.5z" />
    <glyph glyph-name="eng" unicode="&#x14b;" horiz-adv-x="698" 
d="M554 -53q-24 -118 -87 -170t-175 -52q-38 0 -71 4.5t-54 8.5l19 126q14 -2 35 -4t44 -2q45 0 67 21t33 74l78 368q8 40 8 59q0 16 -6 27q-7 9 -21.5 12.5t-31.5 3.5q-31 0 -57 -7.5t-49 -15.5l-85 -400h-191l119 561h153l12 -102h7l73 81q21 10 57 18.5t80 8.5
q85 0 119 -43q10 -14 16 -33.5t6 -45.5q0 -40 -13 -98z" />
    <glyph glyph-name="Omacron" unicode="&#x14c;" horiz-adv-x="829" 
d="M384 149q44 -1 74 8.5t52 26.5t40.5 51.5t32.5 76.5t22 86.5t8 82.5q0 50 -18 76q-11 18 -40.5 29.5t-74.5 11.5q-43 0 -73 -9t-54 -28q-24 -21 -43 -56t-32 -76t-20 -83.5t-7 -77.5q0 -30 4.5 -48t13.5 -30q14 -19 43.5 -30t71.5 -11zM499 760q102 0 163 -23.5t93 -61.5
q26 -32 38.5 -78t12.5 -100q0 -56 -11 -118.5t-33.5 -122t-55.5 -111.5t-78 -87q-48 -37 -118 -53t-142 -16q-52 0 -92 6t-71 17.5t-53.5 27t-38.5 33.5q-23 26 -38 70t-15 112q0 60 11 123t33 121t55 107t77 82q48 35 110.5 53.5t152.5 18.5zM381 925h319l-23 -104h-318z
" />
    <glyph glyph-name="omacron" unicode="&#x14d;" horiz-adv-x="667" 
d="M634 373q0 -45 -9 -93.5t-27 -93.5t-44 -82.5t-60 -61.5q-42 -29 -94 -40.5t-121 -11.5q-80 0 -128 18t-74 47q-20 23 -31 57.5t-11 82.5q0 41 7.5 86.5t24 89t41.5 81.5t60 65q39 29 92 44t127 15q86 -1 133.5 -20t70.5 -45q18 -21 30.5 -54.5t12.5 -83.5zM380 153
q14 12 26.5 36t22 53t15 59.5t5.5 56.5q0 20 -3 32t-10 20q-18 23 -67 23q-30 0 -49 -6.5t-33 -17.5q-15 -12 -28 -36t-22 -52.5t-14 -58.5t-5 -55q0 -37 12 -52q10 -12 27 -18.5t45 -6.5q52 0 78 23zM254 736h319l-23 -104h-318z" />
    <glyph glyph-name="Obreve" unicode="&#x14e;" horiz-adv-x="829" 
d="M384 149q44 -1 74 8.5t52 26.5t40.5 51.5t32.5 76.5t22 86.5t8 82.5q0 50 -18 76q-11 18 -40.5 29.5t-74.5 11.5q-43 0 -73 -9t-54 -28q-24 -21 -43 -56t-32 -76t-20 -83.5t-7 -77.5q0 -30 4.5 -48t13.5 -30q14 -19 43.5 -30t71.5 -11zM499 760q102 0 163 -23.5t93 -61.5
q26 -32 38.5 -78t12.5 -100q0 -56 -11 -118.5t-33.5 -122t-55.5 -111.5t-78 -87q-48 -37 -118 -53t-142 -16q-52 0 -92 6t-71 17.5t-53.5 27t-38.5 33.5q-23 26 -38 70t-15 112q0 60 11 123t33 121t55 107t77 82q48 35 110.5 53.5t152.5 18.5zM450 961q-3 -12 -3 -22
q0 -23 18.5 -34t47.5 -11q41 0 61 17t25 50h103q-3 -31 -15 -59t-36 -49t-60.5 -33t-88.5 -12q-73 0 -113.5 29.5t-40.5 86.5q0 8 1.5 18.5t3.5 18.5h97z" />
    <glyph glyph-name="obreve" unicode="&#x14f;" horiz-adv-x="667" 
d="M634 373q0 -45 -9 -93.5t-27 -93.5t-44 -82.5t-60 -61.5q-42 -29 -94 -40.5t-121 -11.5q-80 0 -128 18t-74 47q-20 23 -31 57.5t-11 82.5q0 41 7.5 86.5t24 89t41.5 81.5t60 65q39 29 92 44t127 15q86 -1 133.5 -20t70.5 -45q18 -21 30.5 -54.5t12.5 -83.5zM380 153
q14 12 26.5 36t22 53t15 59.5t5.5 56.5q0 20 -3 32t-10 20q-18 23 -67 23q-30 0 -49 -6.5t-33 -17.5q-15 -12 -28 -36t-22 -52.5t-14 -58.5t-5 -55q0 -37 12 -52q10 -12 27 -18.5t45 -6.5q52 0 78 23zM335 771q-3 -12 -3 -22q0 -23 18.5 -34t47.5 -11q41 0 61 17t25 50h103
q-3 -31 -15 -59t-36 -49t-60.5 -33t-88.5 -12q-73 0 -113.5 29.5t-40.5 86.5q0 8 1.5 18.5t3.5 18.5h97z" />
    <glyph glyph-name="Ohungarumlaut" unicode="&#x150;" horiz-adv-x="829" 
d="M384 149q44 -1 74 8.5t52 26.5t40.5 51.5t32.5 76.5t22 86.5t8 82.5q0 50 -18 76q-11 18 -40.5 29.5t-74.5 11.5q-43 0 -73 -9t-54 -28q-24 -21 -43 -56t-32 -76t-20 -83.5t-7 -77.5q0 -30 4.5 -48t13.5 -30q14 -19 43.5 -30t71.5 -11zM499 760q102 0 163 -23.5t93 -61.5
q26 -32 38.5 -78t12.5 -100q0 -56 -11 -118.5t-33.5 -122t-55.5 -111.5t-78 -87q-48 -37 -118 -53t-142 -16q-52 0 -92 6t-71 17.5t-53.5 27t-38.5 33.5q-23 26 -38 70t-15 112q0 60 11 123t33 121t55 107t77 82q48 35 110.5 53.5t152.5 18.5zM433 952h151l-169 -142h-108z
M645 952h152l-169 -142h-109z" />
    <glyph glyph-name="ohungarumlaut" unicode="&#x151;" horiz-adv-x="667" 
d="M634 373q0 -45 -9 -93.5t-27 -93.5t-44 -82.5t-60 -61.5q-42 -29 -94 -40.5t-121 -11.5q-80 0 -128 18t-74 47q-20 23 -31 57.5t-11 82.5q0 41 7.5 86.5t24 89t41.5 81.5t60 65q39 29 92 44t127 15q86 -1 133.5 -20t70.5 -45q18 -21 30.5 -54.5t12.5 -83.5zM380 153
q14 12 26.5 36t22 53t15 59.5t5.5 56.5q0 20 -3 32t-10 20q-18 23 -67 23q-30 0 -49 -6.5t-33 -17.5q-15 -12 -28 -36t-22 -52.5t-14 -58.5t-5 -55q0 -37 12 -52q10 -12 27 -18.5t45 -6.5q52 0 78 23zM315 763h151l-169 -142h-108zM527 763h152l-169 -142h-109z" />
    <glyph glyph-name="OE" unicode="&#x152;" horiz-adv-x="1115" 
d="M386 149q45 0 76.5 6t52.5 15l86 405q-17 9 -50 15t-68 6q-86 0 -128 -33q-24 -18 -43.5 -53.5t-33 -77.5t-20.5 -86t-7 -81q0 -29 5 -47.5t13 -29.5q14 -17 43 -28t74 -11zM322 -9q-75 0 -126 21t-84 59q-24 28 -38 73t-14 111q0 59 11 122t33 121t55 107.5t77 82.5
q46 35 108 53t141 18q32 0 61.5 -3t52.5 -10l22 -43h8l10 47h531l-63 -157h-318l-29 -137h289l-61 -151h-260l-31 -146h359l-69 -159h-507l11 52h-9l-43 -46q-26 -8 -57.5 -11.5t-59.5 -3.5z" />
    <glyph glyph-name="oe" unicode="&#x153;" horiz-adv-x="1005" 
d="M529 540q25 -17 39 -42q12 14 26 24.5t29 18.5q64 35 160 35q61 0 104 -11t70 -32t39 -50t12 -65q0 -55 -21 -91t-56.5 -57.5t-82.5 -30.5t-100 -9q-35 0 -67.5 1.5t-55.5 4.5q-2 -11 -3.5 -21t-1.5 -20q0 -17 4 -29t15 -21q22 -22 100 -22q26 0 54.5 2.5t54.5 6.5t49 8
t39 7l-43 -128q-40 -11 -95 -19.5t-136 -8.5q-51 0 -85 9t-57 27q-20 15 -32 38q-21 -23 -51 -40q-61 -35 -165 -35q-75 0 -121 17.5t-72 46.5q-20 23 -31.5 59.5t-11.5 93.5q0 43 8.5 87t25 85.5t41 76.5t56.5 60q76 59 211 60q55 0 91.5 -10.5t59.5 -25.5zM380 153
q15 12 27.5 36t22 52.5t14.5 58.5t5 55q0 39 -11 56q-19 24 -69 24q-27 0 -46.5 -6.5t-33.5 -17.5t-26.5 -33.5t-22 -51t-15 -60t-5.5 -59.5q0 -17 2 -29t9 -22q8 -13 24.5 -20t45.5 -7q53 0 79 24zM760 454q-46 0 -71 -26q-14 -13 -24.5 -35t-18.5 -50q16 -2 36.5 -3
t34.5 -1q55 0 81 18t26 50q0 47 -64 47z" />
    <glyph glyph-name="Racute" unicode="&#x154;" horiz-adv-x="733" 
d="M725 601q0 -29 -5 -59.5t-15.5 -60t-25.5 -56t-35 -45.5q-9 -5 -25 -12t-35.5 -14t-40.5 -13.5t-38 -12.5v-6q8 -5 19.5 -12t22.5 -14.5t20 -15t12 -12.5q7 -11 17 -40t21 -67t22 -80.5t19 -80.5h-207q-18 102 -35.5 170t-31.5 82q-9 9 -35 12t-52 3h-34l-57 -267h-191
l158 750h300q45 0 78.5 -3t58.5 -8t42 -12t28 -16q45 -34 45 -110zM469 433q25 14 40 47t15 67q0 26 -13 42q-16 17 -76 17h-100l-41 -189h79q38 0 60 4t36 12zM521 960h176l-216 -145h-125z" />
    <glyph glyph-name="racute" unicode="&#x155;" horiz-adv-x="489" 
d="M273 561l16 -104h7l68 87q20 11 48.5 17.5t60.5 6.5q17 0 30.5 -1t26.5 -3l-33 -168q-20 4 -44 8t-58 4q-35 0 -63.5 -6t-49.5 -17l-82 -385h-190l119 561h144zM369 765h176l-216 -145h-125z" />
    <glyph glyph-name="Rcommaaccent" unicode="&#x156;" horiz-adv-x="733" 
d="M725 601q0 -29 -5 -59.5t-15.5 -60t-25.5 -56t-35 -45.5q-9 -5 -25 -12t-35.5 -14t-40.5 -13.5t-38 -12.5v-6q8 -5 19.5 -12t22.5 -14.5t20 -15t12 -12.5q7 -11 17 -40t21 -67t22 -80.5t19 -80.5h-207q-18 102 -35.5 170t-31.5 82q-9 9 -35 12t-52 3h-34l-57 -267h-191
l158 750h300q45 0 78.5 -3t58.5 -8t42 -12t28 -16q45 -34 45 -110zM469 433q25 14 40 47t15 67q0 26 -13 42q-16 17 -76 17h-100l-41 -189h79q38 0 60 4t36 12zM244 -78h176l-143 -169h-139z" />
    <glyph glyph-name="rcommaaccent" unicode="&#x157;" horiz-adv-x="489" 
d="M273 561l16 -104h7l68 87q20 11 48.5 17.5t60.5 6.5q17 0 30.5 -1t26.5 -3l-33 -168q-20 4 -44 8t-58 4q-35 0 -63.5 -6t-49.5 -17l-82 -385h-190l119 561h144zM50 -78h176l-143 -169h-139z" />
    <glyph glyph-name="Rcaron" unicode="&#x158;" horiz-adv-x="733" 
d="M725 601q0 -29 -5 -59.5t-15.5 -60t-25.5 -56t-35 -45.5q-9 -5 -25 -12t-35.5 -14t-40.5 -13.5t-38 -12.5v-6q8 -5 19.5 -12t22.5 -14.5t20 -15t12 -12.5q7 -11 17 -40t21 -67t22 -80.5t19 -80.5h-207q-18 102 -35.5 170t-31.5 82q-9 9 -35 12t-52 3h-34l-57 -267h-191
l158 750h300q45 0 78.5 -3t58.5 -8t42 -12t28 -16q45 -34 45 -110zM469 433q25 14 40 47t15 67q0 26 -13 42q-16 17 -76 17h-100l-41 -189h79q38 0 60 4t36 12zM281 955h112l66 -65l94 65h123l-161 -139h-131z" />
    <glyph glyph-name="rcaron" unicode="&#x159;" horiz-adv-x="489" 
d="M273 561l16 -104h7l68 87q20 11 48.5 17.5t60.5 6.5q17 0 30.5 -1t26.5 -3l-33 -168q-20 4 -44 8t-58 4q-35 0 -63.5 -6t-49.5 -17l-82 -385h-190l119 561h144zM158 760h112l66 -65l94 65h123l-161 -139h-131z" />
    <glyph glyph-name="Sacute" unicode="&#x15a;" horiz-adv-x="649" 
d="M588 256q-1 -32 -7.5 -63.5t-19 -60.5t-30.5 -53.5t-41 -40.5q-68 -51 -234 -51q-41 0 -79.5 3t-72 8t-61.5 10.5t-47 11.5l22 143q16 -3 41.5 -7.5t55.5 -8t61.5 -6t57.5 -2.5q51 0 78.5 5t38.5 13q14 10 22 27.5t10 38.5q2 26 -12 40q-9 8 -27.5 16.5t-42 18
t-49.5 20.5t-50 23t-44.5 25.5t-31.5 28.5q-14 18 -22 45t-7 65q1 27 7 56t18.5 57.5t31.5 53t45 42.5q32 23 88 36.5t151 13.5q35 0 69.5 -2t65.5 -5.5t56.5 -7.5t43.5 -7l-24 -149q-36 5 -92 11t-122 6q-48 0 -74 -6t-37 -14q-12 -10 -19 -27.5t-8 -36.5q-2 -20 8 -31
q11 -14 45.5 -28.5t75 -30t78 -33.5t55.5 -39q14 -16 22.5 -43.5t6.5 -64.5zM477 960h176l-216 -145h-125z" />
    <glyph glyph-name="sacute" unicode="&#x15b;" horiz-adv-x="526" 
d="M465 207q0 -21 -5 -46.5t-15 -50.5t-25.5 -46.5t-37.5 -35.5q-30 -19 -74 -27.5t-116 -8.5q-65 0 -116.5 9t-84.5 17l14 126q25 -6 72.5 -13.5t102.5 -7.5q32 0 50.5 3.5t26.5 8.5t13.5 16.5t5.5 24.5q0 7 -1 11.5t-6 9.5q-7 7 -31.5 15.5t-53.5 18t-56.5 21.5t-41.5 26
q-26 27 -26 83q0 21 5 45.5t15.5 48.5t27 45.5t39.5 36.5q32 20 78 28t106 8q63 0 113 -6t81 -11l-22 -125q-30 4 -74.5 8t-93.5 4q-30 0 -48 -3t-28 -11q-7 -6 -11.5 -18t-4.5 -23q0 -12 6 -19q9 -9 34.5 -18t55 -18t57 -19.5t41.5 -23.5q28 -27 28 -83zM374 765h176
l-216 -145h-125z" />
    <glyph glyph-name="Scircumflex" unicode="&#x15c;" horiz-adv-x="649" 
d="M588 256q-1 -32 -7.5 -63.5t-19 -60.5t-30.5 -53.5t-41 -40.5q-68 -51 -234 -51q-41 0 -79.5 3t-72 8t-61.5 10.5t-47 11.5l22 143q16 -3 41.5 -7.5t55.5 -8t61.5 -6t57.5 -2.5q51 0 78.5 5t38.5 13q14 10 22 27.5t10 38.5q2 26 -12 40q-9 8 -27.5 16.5t-42 18
t-49.5 20.5t-50 23t-44.5 25.5t-31.5 28.5q-14 18 -22 45t-7 65q1 27 7 56t18.5 57.5t31.5 53t45 42.5q32 23 88 36.5t151 13.5q35 0 69.5 -2t65.5 -5.5t56.5 -7.5t43.5 -7l-24 -149q-36 5 -92 11t-122 6q-48 0 -74 -6t-37 -14q-12 -10 -19 -27.5t-8 -36.5q-2 -20 8 -31
q11 -14 45.5 -28.5t75 -30t78 -33.5t55.5 -39q14 -16 22.5 -43.5t6.5 -64.5zM609 810h-112l-67 65l-94 -65h-123l162 139h131z" />
    <glyph glyph-name="scircumflex" unicode="&#x15d;" horiz-adv-x="526" 
d="M465 207q0 -21 -5 -46.5t-15 -50.5t-25.5 -46.5t-37.5 -35.5q-30 -19 -74 -27.5t-116 -8.5q-65 0 -116.5 9t-84.5 17l14 126q25 -6 72.5 -13.5t102.5 -7.5q32 0 50.5 3.5t26.5 8.5t13.5 16.5t5.5 24.5q0 7 -1 11.5t-6 9.5q-7 7 -31.5 15.5t-53.5 18t-56.5 21.5t-41.5 26
q-26 27 -26 83q0 21 5 45.5t15.5 48.5t27 45.5t39.5 36.5q32 20 78 28t106 8q63 0 113 -6t81 -11l-22 -125q-30 4 -74.5 8t-93.5 4q-30 0 -48 -3t-28 -11q-7 -6 -11.5 -18t-4.5 -23q0 -12 6 -19q9 -9 34.5 -18t55 -18t57 -19.5t41.5 -23.5q28 -27 28 -83zM525 621h-112
l-67 65l-94 -65h-123l162 139h131z" />
    <glyph glyph-name="Scedilla" unicode="&#x15e;" horiz-adv-x="649" 
d="M223 -12q-72 2 -132 11.5t-95 20.5l22 143q16 -3 41.5 -7.5t55.5 -8t61.5 -6t57.5 -2.5q51 0 78.5 5t38.5 13q14 10 22 27.5t10 38.5q2 26 -12 40q-9 8 -27.5 16.5t-42 18t-49.5 20.5t-50 23t-44.5 25.5t-31.5 28.5q-14 18 -22 45t-7 65q1 27 7 56t18.5 57.5t31.5 53
t45 42.5q32 23 88 36.5t151 13.5q35 0 69.5 -2t65.5 -5.5t56.5 -7.5t43.5 -7l-24 -149q-36 5 -92 11t-122 6q-48 0 -74 -6t-37 -14q-12 -10 -19 -27.5t-8 -36.5q-2 -20 8 -31q11 -14 45.5 -28.5t75 -30t78 -33.5t55.5 -39q14 -16 22.5 -43.5t6.5 -64.5q-1 -32 -7.5 -63.5
t-19 -60.5t-30.5 -53.5t-41 -40.5q-31 -23 -82 -35.5t-122 -14.5l-14 -35q29 -1 48 -5t30 -15q7 -8 10 -19t3 -25q0 -35 -14.5 -64.5t-35.5 -42.5q-39 -24 -123 -24q-32 0 -60 4.5t-45 12.5l12 74q19 -5 43 -9t53 -4q39 0 49 8q6 4 10 12.5t4 17.5q0 11 -5 14
q-4 4 -12.5 5.5t-28.5 1.5h-28z" />
    <glyph glyph-name="scedilla" unicode="&#x15f;" horiz-adv-x="526" 
d="M164 -7q-55 2 -99.5 9.5t-73.5 15.5l14 126q25 -6 72.5 -13.5t102.5 -7.5q32 0 50.5 3.5t26.5 8.5t13.5 16.5t5.5 24.5q0 7 -1 11.5t-6 9.5q-7 7 -31.5 15.5t-53.5 18t-56.5 21.5t-41.5 26q-26 27 -26 83q0 21 5 45.5t15.5 48.5t27 45.5t39.5 36.5q32 20 78 28t106 8
q63 0 113 -6t81 -11l-22 -125q-30 4 -74.5 8t-93.5 4q-30 0 -48 -3t-28 -11q-7 -6 -11.5 -18t-4.5 -23q0 -12 6 -19q9 -9 34.5 -18t55 -18t57 -19.5t41.5 -23.5q28 -27 28 -83q0 -21 -5 -46.5t-15 -50.5t-25.5 -46.5t-37.5 -35.5q-26 -17 -62.5 -25t-91.5 -10l-17 -40
q29 -1 48 -5t30 -15q7 -8 10 -19t3 -25q0 -35 -14.5 -64.5t-35.5 -42.5q-39 -24 -123 -24q-32 0 -60 4.5t-45 12.5l12 74q19 -5 43 -9t53 -4q39 0 49 8q6 4 10 12.5t4 17.5q0 11 -5 14q-4 4 -12.5 5.5t-28.5 1.5h-28z" />
    <glyph glyph-name="Scaron" unicode="&#x160;" horiz-adv-x="649" 
d="M588 256q-1 -32 -7.5 -63.5t-19 -60.5t-30.5 -53.5t-41 -40.5q-68 -51 -234 -51q-41 0 -79.5 3t-72 8t-61.5 10.5t-47 11.5l22 143q16 -3 41.5 -7.5t55.5 -8t61.5 -6t57.5 -2.5q51 0 78.5 5t38.5 13q14 10 22 27.5t10 38.5q2 26 -12 40q-9 8 -27.5 16.5t-42 18
t-49.5 20.5t-50 23t-44.5 25.5t-31.5 28.5q-14 18 -22 45t-7 65q1 27 7 56t18.5 57.5t31.5 53t45 42.5q32 23 88 36.5t151 13.5q35 0 69.5 -2t65.5 -5.5t56.5 -7.5t43.5 -7l-24 -149q-36 5 -92 11t-122 6q-48 0 -74 -6t-37 -14q-12 -10 -19 -27.5t-8 -36.5q-2 -20 8 -31
q11 -14 45.5 -28.5t75 -30t78 -33.5t55.5 -39q14 -16 22.5 -43.5t6.5 -64.5zM263 949h112l66 -65l94 65h123l-161 -139h-131z" />
    <glyph glyph-name="scaron" unicode="&#x161;" horiz-adv-x="526" 
d="M465 207q0 -21 -5 -46.5t-15 -50.5t-25.5 -46.5t-37.5 -35.5q-30 -19 -74 -27.5t-116 -8.5q-65 0 -116.5 9t-84.5 17l14 126q25 -6 72.5 -13.5t102.5 -7.5q32 0 50.5 3.5t26.5 8.5t13.5 16.5t5.5 24.5q0 7 -1 11.5t-6 9.5q-7 7 -31.5 15.5t-53.5 18t-56.5 21.5t-41.5 26
q-26 27 -26 83q0 21 5 45.5t15.5 48.5t27 45.5t39.5 36.5q32 20 78 28t106 8q63 0 113 -6t81 -11l-22 -125q-30 4 -74.5 8t-93.5 4q-30 0 -48 -3t-28 -11q-7 -6 -11.5 -18t-4.5 -23q0 -12 6 -19q9 -9 34.5 -18t55 -18t57 -19.5t41.5 -23.5q28 -27 28 -83zM153 760h112
l66 -65l94 65h123l-161 -139h-131z" />
    <glyph glyph-name="uni0162" unicode="&#x162;" horiz-adv-x="660" 
d="M680 595h-202l-127 -595h-191l126 595h-215l57 155h606zM174 -78h176l-143 -169h-139z" />
    <glyph glyph-name="uni0163" unicode="&#x163;" horiz-adv-x="446" 
d="M442 423h-142l-45 -206q-3 -14 -5 -27t-2 -24q0 -20 12.5 -28.5t38.5 -8.5q25 0 53.5 4t43.5 6l-35 -129q-26 -6 -66.5 -12.5t-87.5 -6.5q-83 0 -120 29t-37 91q0 34 9 76l50 236h-74l42 137h61l19 86l198 35l-26 -121h162zM109 -78h176l-143 -169h-139z" />
    <glyph glyph-name="Tcaron" unicode="&#x164;" horiz-adv-x="660" 
d="M680 595h-202l-127 -595h-191l126 595h-215l57 155h606zM243 949h112l66 -65l94 65h123l-161 -139h-131z" />
    <glyph glyph-name="tcaron" unicode="&#x165;" horiz-adv-x="446" 
d="M442 423h-142l-45 -206q-3 -14 -5 -27t-2 -24q0 -20 12.5 -28.5t38.5 -8.5q25 0 53.5 4t43.5 6l-35 -129q-26 -6 -66.5 -12.5t-87.5 -6.5q-83 0 -120 29t-37 91q0 34 9 76l50 236h-74l42 137h61l19 86l198 35l-26 -121h162zM497 884h149l-121 -255h-120z" />
    <glyph glyph-name="Tbar" unicode="&#x166;" horiz-adv-x="649" 
d="M63 371h163l48 224h-218l63 155h606l-60 -155h-200l-47 -224h175l-23 -110h-175l-56 -261h-191l55 261h-164z" />
    <glyph glyph-name="tbar" unicode="&#x167;" horiz-adv-x="446" 
d="M21 337h69l19 87h-74l42 137h61l19 86l198 35l-26 -121h162l-49 -137h-142l-19 -87h150l-23 -108h-151l-4 -24l-4 -20t-2 -18q0 -20 13 -28.5t40 -8.5q28 0 55 4t41 6l-37 -129q-26 -5 -66.5 -12t-85.5 -7q-83 0 -120 29t-37 91q0 34 9 76l8 41h-69z" />
    <glyph glyph-name="Utilde" unicode="&#x168;" horiz-adv-x="785" 
d="M803 750l-95 -446q-19 -92 -44 -150t-62 -92q-37 -35 -102.5 -54.5t-162.5 -19.5q-57 0 -99 7t-71.5 19t-49 28t-31.5 34q-14 20 -22 47.5t-8 61.5q0 26 3.5 58.5t14.5 80.5l90 426h192l-92 -437q-8 -32 -11 -55t-3 -38q0 -23 10 -36q9 -13 32.5 -22t66.5 -9q39 0 66 8.5
t42 21.5q14 12 26 39t23 81l96 447h191zM298 824q14 59 45 95t87 36q25 0 44 -8.5t35 -19t30.5 -19t29.5 -8.5q21 0 32.5 12.5t17.5 35.5h74q-14 -66 -49.5 -99t-83.5 -33q-25 0 -44 8.5t-35 18.5t-31 18.5t-31 8.5q-21 0 -31.5 -13t-15.5 -33h-74z" />
    <glyph glyph-name="utilde" unicode="&#x169;" horiz-adv-x="699" 
d="M316 561l-68 -319q-4 -20 -6.5 -35.5t-2.5 -26.5q0 -18 7 -26q8 -9 22 -12.5t32 -3.5q30 0 56.5 7.5t48.5 15.5l85 400h191l-120 -561h-150l-12 104h-7l-73 -86q-21 -10 -54 -17.5t-76 -7.5q-92 0 -126 46q-23 31 -23 81q0 20 2.5 42.5t9.5 52.5l73 346h191zM225 635
q14 59 45 95t87 36q25 0 44 -8.5t35 -19t30.5 -19t29.5 -8.5q21 0 32.5 12.5t17.5 35.5h74q-14 -66 -49.5 -99t-83.5 -33q-25 0 -44 8.5t-35 18.5t-31 18.5t-31 8.5q-21 0 -31.5 -13t-15.5 -33h-74z" />
    <glyph glyph-name="Umacron" unicode="&#x16a;" horiz-adv-x="785" 
d="M803 750l-95 -446q-19 -92 -44 -150t-62 -92q-37 -35 -102.5 -54.5t-162.5 -19.5q-57 0 -99 7t-71.5 19t-49 28t-31.5 34q-14 20 -22 47.5t-8 61.5q0 26 3.5 58.5t14.5 80.5l90 426h192l-92 -437q-8 -32 -11 -55t-3 -38q0 -23 10 -36q9 -13 32.5 -22t66.5 -9q39 0 66 8.5
t42 21.5q14 12 26 39t23 81l96 447h191zM358 925h319l-23 -104h-318z" />
    <glyph glyph-name="umacron" unicode="&#x16b;" horiz-adv-x="699" 
d="M316 561l-68 -319q-4 -20 -6.5 -35.5t-2.5 -26.5q0 -18 7 -26q8 -9 22 -12.5t32 -3.5q30 0 56.5 7.5t48.5 15.5l85 400h191l-120 -561h-150l-12 104h-7l-73 -86q-21 -10 -54 -17.5t-76 -7.5q-92 0 -126 46q-23 31 -23 81q0 20 2.5 42.5t9.5 52.5l73 346h191zM276 736h319
l-23 -104h-318z" />
    <glyph glyph-name="Ubreve" unicode="&#x16c;" horiz-adv-x="785" 
d="M803 750l-95 -446q-19 -92 -44 -150t-62 -92q-37 -35 -102.5 -54.5t-162.5 -19.5q-57 0 -99 7t-71.5 19t-49 28t-31.5 34q-14 20 -22 47.5t-8 61.5q0 26 3.5 58.5t14.5 80.5l90 426h192l-92 -437q-8 -32 -11 -55t-3 -38q0 -23 10 -36q9 -13 32.5 -22t66.5 -9q39 0 66 8.5
t42 21.5q14 12 26 39t23 81l96 447h191zM437 961q-3 -12 -3 -22q0 -23 18.5 -34t47.5 -11q41 0 61 17t25 50h103q-3 -31 -15 -59t-36 -49t-60.5 -33t-88.5 -12q-73 0 -113.5 29.5t-40.5 86.5q0 8 1.5 18.5t3.5 18.5h97z" />
    <glyph glyph-name="ubreve" unicode="&#x16d;" horiz-adv-x="699" 
d="M316 561l-68 -319q-4 -20 -6.5 -35.5t-2.5 -26.5q0 -18 7 -26q8 -9 22 -12.5t32 -3.5q30 0 56.5 7.5t48.5 15.5l85 400h191l-120 -561h-150l-12 104h-7l-73 -86q-21 -10 -54 -17.5t-76 -7.5q-92 0 -126 46q-23 31 -23 81q0 20 2.5 42.5t9.5 52.5l73 346h191zM360 771
q-3 -12 -3 -22q0 -23 18.5 -34t47.5 -11q41 0 61 17t25 50h103q-3 -31 -15 -59t-36 -49t-60.5 -33t-88.5 -12q-73 0 -113.5 29.5t-40.5 86.5q0 8 1.5 18.5t3.5 18.5h97z" />
    <glyph glyph-name="Uring" unicode="&#x16e;" horiz-adv-x="785" 
d="M803 750l-95 -446q-19 -92 -44 -150t-62 -92q-37 -35 -102.5 -54.5t-162.5 -19.5q-57 0 -99 7t-71.5 19t-49 28t-31.5 34q-14 20 -22 47.5t-8 61.5q0 26 3.5 58.5t14.5 80.5l90 426h192l-92 -437q-8 -32 -11 -55t-3 -38q0 -23 10 -36q9 -13 32.5 -22t66.5 -9q39 0 66 8.5
t42 21.5q14 12 26 39t23 81l96 447h191zM488 804q-18 0 -35.5 3.5t-31 11.5t-21.5 22t-8 34q0 29 12.5 59t35.5 47q20 14 42.5 18t51.5 4q36 0 64 -15.5t28 -52.5q0 -14 -2 -29t-7.5 -29.5t-14 -27t-20.5 -21.5q-16 -11 -39 -17.5t-55 -6.5zM499 858q24 0 35 10
q10 7 15 22.5t5 30.5q0 14 -9 19.5t-26 5.5q-24 0 -34 -9q-9 -7 -15 -21t-6 -29q0 -28 35 -29z" />
    <glyph glyph-name="uring" unicode="&#x16f;" horiz-adv-x="699" 
d="M316 561l-68 -319q-4 -20 -6.5 -35.5t-2.5 -26.5q0 -18 7 -26q8 -9 22 -12.5t32 -3.5q30 0 56.5 7.5t48.5 15.5l85 400h191l-120 -561h-150l-12 104h-7l-73 -86q-21 -10 -54 -17.5t-76 -7.5q-92 0 -126 46q-23 31 -23 81q0 20 2.5 42.5t9.5 52.5l73 346h191zM408 614
q-18 0 -35.5 3.5t-31 11.5t-21.5 22t-8 34q0 29 12.5 59t35.5 47q20 14 42.5 18t51.5 4q36 0 64 -15.5t28 -52.5q0 -14 -2 -29t-7.5 -29.5t-14 -27t-20.5 -21.5q-16 -11 -39 -17.5t-55 -6.5zM419 668q24 0 35 10q10 7 15 22.5t5 30.5q0 14 -9 19.5t-26 5.5q-24 0 -34 -9
q-9 -7 -15 -21t-6 -29q0 -28 35 -29z" />
    <glyph glyph-name="Uhungarumlaut" unicode="&#x170;" horiz-adv-x="785" 
d="M803 750l-95 -446q-19 -92 -44 -150t-62 -92q-37 -35 -102.5 -54.5t-162.5 -19.5q-57 0 -99 7t-71.5 19t-49 28t-31.5 34q-14 20 -22 47.5t-8 61.5q0 26 3.5 58.5t14.5 80.5l90 426h192l-92 -437q-8 -32 -11 -55t-3 -38q0 -23 10 -36q9 -13 32.5 -22t66.5 -9q39 0 66 8.5
t42 21.5q14 12 26 39t23 81l96 447h191zM427 952h151l-169 -142h-108zM639 952h152l-169 -142h-109z" />
    <glyph glyph-name="uhungarumlaut" unicode="&#x171;" horiz-adv-x="699" 
d="M316 561l-68 -319q-4 -20 -6.5 -35.5t-2.5 -26.5q0 -18 7 -26q8 -9 22 -12.5t32 -3.5q30 0 56.5 7.5t48.5 15.5l85 400h191l-120 -561h-150l-12 104h-7l-73 -86q-21 -10 -54 -17.5t-76 -7.5q-92 0 -126 46q-23 31 -23 81q0 20 2.5 42.5t9.5 52.5l73 346h191zM350 763h151
l-169 -142h-108zM562 763h152l-169 -142h-109z" />
    <glyph glyph-name="Uogonek" unicode="&#x172;" horiz-adv-x="785" 
d="M403 -224q-34 0 -55.5 4.5t-33.5 15.5q-18 16 -18 54q0 22 8.5 46t22.5 38q11 11 35 26.5t56 31.5q-19 -2 -39 -3t-42 -1q-57 0 -99 7t-71.5 19t-49 28t-31.5 34q-14 20 -22 47.5t-8 61.5q0 26 3.5 58.5t14.5 80.5l90 426h192l-92 -437q-8 -32 -11 -55t-3 -38
q0 -23 10 -36q9 -13 32.5 -22t66.5 -9q39 0 66 8.5t42 21.5q14 12 26 39t23 81l96 447h191l-95 -446q-19 -92 -44 -150t-62 -92q-32 -30 -61.5 -49t-65.5 -42q-57 -37 -71 -55q-12 -14 -12 -35q0 -12 5 -17q9 -9 41 -9q20 0 36.5 1.5t27.5 3.5l-13 -73q-14 -3 -35.5 -7
t-50.5 -4z" />
    <glyph glyph-name="uogonek" unicode="&#x173;" horiz-adv-x="699" 
d="M399 104h-7l-73 -86q-21 -10 -54 -17.5t-76 -7.5q-92 0 -126 46q-23 31 -23 81q0 20 2.5 42.5t9.5 52.5l73 346h191l-68 -319q-4 -20 -6.5 -35.5t-2.5 -26.5q0 -18 7 -26q8 -9 22 -12.5t32 -3.5q30 0 56.5 7.5t48.5 15.5l85 400h191l-120 -561h-58l-58 -37
q-24 -15 -40 -27t-23 -20q-12 -14 -12 -35q0 -12 5 -17q9 -9 41 -9q20 0 36 1.5t28 3.5l-14 -73q-14 -3 -35.5 -7t-50.5 -4q-34 0 -55.5 4.5t-33.5 15.5q-18 16 -18 54q0 22 8.5 46t22.5 38q13 13 41.5 31t65.5 35z" />
    <glyph glyph-name="Wcircumflex" unicode="&#x174;" horiz-adv-x="1180" 
d="M916 0h-278l8 569h-17l-242 -569h-287l10 750h194l-24 -569h21l246 569h266l-11 -569h21l224 569h208zM869 810h-112l-67 65l-94 -65h-123l162 139h131z" />
    <glyph glyph-name="wcircumflex" unicode="&#x175;" horiz-adv-x="985" 
d="M768 0h-254v403h-12l-178 -403h-265l14 561h182l-24 -400h15l181 400h238l-5 -400h14l153 400h194zM743 621h-112l-67 65l-94 -65h-123l162 139h131z" />
    <glyph glyph-name="Ycircumflex" unicode="&#x176;" horiz-adv-x="721" 
d="M385 0h-202l50 236l-132 514h195l66 -325h15l207 325h228l-377 -514zM633 810h-112l-67 65l-94 -65h-123l162 139h131z" />
    <glyph glyph-name="ycircumflex" unicode="&#x177;" horiz-adv-x="646" 
d="M239 -270h-197l153 270h-88l-51 561h190l21 -400h17l197 400h210zM561 621h-112l-67 65l-94 -65h-123l162 139h131z" />
    <glyph glyph-name="Ydieresis" unicode="&#x178;" horiz-adv-x="721" 
d="M385 0h-202l50 236l-132 514h195l66 -325h15l207 325h228l-377 -514zM321 815q-43 0 -58 17q-8 8 -8 30q0 20 8.5 41t25.5 32q9 5 23 8.5t34 3.5q41 0 55 -14q10 -10 10 -30t-7.5 -41.5t-23.5 -33.5q-10 -7 -26 -10t-33 -3zM551 815q-44 0 -59 17q-9 9 -9 29t8.5 41.5
t26.5 32.5q10 5 24.5 8.5t34.5 3.5q41 0 53 -14q5 -6 7 -14t2 -17q0 -20 -7 -41t-23 -33q-10 -7 -25.5 -10t-32.5 -3z" />
    <glyph glyph-name="Zacute" unicode="&#x179;" horiz-adv-x="708" 
d="M711 575l-446 -399l-4 -16h392l-62 -160h-607l36 176l441 401l4 16h-330l60 157h554zM519 955h176l-216 -145h-125z" />
    <glyph glyph-name="zacute" unicode="&#x17a;" horiz-adv-x="579" 
d="M550 407l-300 -249l-3 -16h275l-55 -142h-489l31 149l301 256l3 15h-234l56 141h447zM422 765h176l-216 -145h-125z" />
    <glyph glyph-name="Zdotaccent" unicode="&#x17b;" horiz-adv-x="708" 
d="M711 575l-446 -399l-4 -16h392l-62 -160h-607l36 176l441 401l4 16h-330l60 157h554zM467 820q-54 0 -67 18q-10 10 -10 35q0 26 10 51t30 36q11 7 26 10t41 3q50 0 66 -16q12 -14 12 -38t-9.5 -47.5t-26.5 -36.5q-11 -8 -30 -11.5t-42 -3.5z" />
    <glyph glyph-name="zdotaccent" unicode="&#x17c;" horiz-adv-x="579" 
d="M550 407l-300 -249l-3 -16h275l-55 -142h-489l31 149l301 256l3 15h-234l56 141h447zM362 631q-54 0 -67 18q-10 10 -10 35q0 26 10 51t30 36q11 7 26 10t41 3q50 0 66 -16q12 -14 12 -38t-9.5 -47.5t-26.5 -36.5q-11 -8 -30 -11.5t-42 -3.5z" />
    <glyph glyph-name="Zcaron" unicode="&#x17d;" horiz-adv-x="708" 
d="M711 575l-446 -399l-4 -16h392l-62 -160h-607l36 176l441 401l4 16h-330l60 157h554zM293 949h112l66 -65l94 65h123l-161 -139h-131z" />
    <glyph glyph-name="zcaron" unicode="&#x17e;" horiz-adv-x="579" 
d="M550 407l-300 -249l-3 -16h275l-55 -142h-489l31 149l301 256l3 15h-234l56 141h447zM196 760h112l66 -65l94 65h123l-161 -139h-131z" />
    <glyph glyph-name="florin" unicode="&#x192;" horiz-adv-x="672" 
d="M460 443h137l-42 -137h-135l-61 -211q-17 -56 -37 -95t-48.5 -63.5t-68 -35.5t-93.5 -11q-52 0 -89 5t-57 9l26 124q16 -2 36.5 -4t43.5 -2q44 0 64 17.5t32 59.5l62 207h-130l39 137h130l33 111q18 61 39 101t49.5 63t66.5 32.5t91 9.5q52 0 89.5 -5t57.5 -9l-25 -125
q-17 2 -37.5 4.5t-43.5 2.5q-44 0 -64 -17.5t-33 -59.5z" />
    <glyph glyph-name="Scommaaccent" unicode="&#x218;" horiz-adv-x="649" 
d="M588 256q-1 -32 -7.5 -63.5t-19 -60.5t-30.5 -53.5t-41 -40.5q-68 -51 -234 -51q-41 0 -79.5 3t-72 8t-61.5 10.5t-47 11.5l22 143q16 -3 41.5 -7.5t55.5 -8t61.5 -6t57.5 -2.5q51 0 78.5 5t38.5 13q14 10 22 27.5t10 38.5q2 26 -12 40q-9 8 -27.5 16.5t-42 18
t-49.5 20.5t-50 23t-44.5 25.5t-31.5 28.5q-14 18 -22 45t-7 65q1 27 7 56t18.5 57.5t31.5 53t45 42.5q32 23 88 36.5t151 13.5q35 0 69.5 -2t65.5 -5.5t56.5 -7.5t43.5 -7l-24 -149q-36 5 -92 11t-122 6q-48 0 -74 -6t-37 -14q-12 -10 -19 -27.5t-8 -36.5q-2 -20 8 -31
q11 -14 45.5 -28.5t75 -30t78 -33.5t55.5 -39q14 -16 22.5 -43.5t6.5 -64.5zM187 -78h176l-143 -169h-139z" />
    <glyph glyph-name="scommaaccent" unicode="&#x219;" horiz-adv-x="526" 
d="M465 207q0 -21 -5 -46.5t-15 -50.5t-25.5 -46.5t-37.5 -35.5q-30 -19 -74 -27.5t-116 -8.5q-65 0 -116.5 9t-84.5 17l14 126q25 -6 72.5 -13.5t102.5 -7.5q32 0 50.5 3.5t26.5 8.5t13.5 16.5t5.5 24.5q0 7 -1 11.5t-6 9.5q-7 7 -31.5 15.5t-53.5 18t-56.5 21.5t-41.5 26
q-26 27 -26 83q0 21 5 45.5t15.5 48.5t27 45.5t39.5 36.5q32 20 78 28t106 8q63 0 113 -6t81 -11l-22 -125q-30 4 -74.5 8t-93.5 4q-30 0 -48 -3t-28 -11q-7 -6 -11.5 -18t-4.5 -23q0 -12 6 -19q9 -9 34.5 -18t55 -18t57 -19.5t41.5 -23.5q28 -27 28 -83zM123 -78h176
l-143 -169h-139z" />
    <glyph glyph-name="uni021A" unicode="&#x21a;" horiz-adv-x="660" 
d="M680 595h-202l-127 -595h-191l126 595h-215l57 155h606zM174 -78h176l-143 -169h-139z" />
    <glyph glyph-name="uni021B" unicode="&#x21b;" horiz-adv-x="446" 
d="M442 423h-142l-45 -206q-3 -14 -5 -27t-2 -24q0 -20 12.5 -28.5t38.5 -8.5q25 0 53.5 4t43.5 6l-35 -129q-26 -6 -66.5 -12.5t-87.5 -6.5q-83 0 -120 29t-37 91q0 34 9 76l50 236h-74l42 137h61l19 86l198 35l-26 -121h162zM109 -78h176l-143 -169h-139z" />
    <glyph glyph-name="dotlessj" unicode="&#x237;" horiz-adv-x="332" 
d="M189 -52q-25 -118 -87.5 -170.5t-174.5 -52.5q-38 0 -71.5 4.5t-53.5 8.5l19 126q14 -2 34.5 -4t43.5 -2q22 0 38.5 5t28.5 16t20 29.5t13 44.5l129 608h191z" />
    <glyph glyph-name="circumflex" unicode="&#x2c6;" horiz-adv-x="386" 
d="M452 621h-112l-67 65l-94 -65h-123l162 139h131z" />
    <glyph glyph-name="caron" unicode="&#x2c7;" horiz-adv-x="386" 
d="M82 760h112l66 -65l94 65h123l-161 -139h-131z" />
    <glyph glyph-name="uni02C9" unicode="&#x2c9;" horiz-adv-x="386" 
d="M126 751h319l-23 -104h-318z" />
    <glyph glyph-name="breve" unicode="&#x2d8;" horiz-adv-x="414" 
d="M195 771q-3 -12 -3 -22q0 -23 18.5 -34t47.5 -11q41 0 61 17t25 50h103q-3 -31 -15 -59t-36 -49t-60.5 -33t-88.5 -12q-73 0 -113.5 29.5t-40.5 86.5q0 8 1.5 18.5t3.5 18.5h97z" />
    <glyph glyph-name="dotaccent" unicode="&#x2d9;" horiz-adv-x="386" 
d="M250 631q-54 0 -67 18q-10 10 -10 35q0 26 10 51t30 36q11 7 26 10t41 3q50 0 66 -16q12 -14 12 -38t-9.5 -47.5t-26.5 -36.5q-11 -8 -30 -11.5t-42 -3.5z" />
    <glyph glyph-name="ring" unicode="&#x2da;" horiz-adv-x="386" 
d="M259 614q-18 0 -35.5 3.5t-31 11.5t-21.5 22t-8 34q0 29 12.5 59t35.5 47q20 14 42.5 18t51.5 4q36 0 64 -15.5t28 -52.5q0 -14 -2 -29t-7.5 -29.5t-14 -27t-20.5 -21.5q-16 -11 -39 -17.5t-55 -6.5zM270 668q24 0 35 10q10 7 15 22.5t5 30.5q0 14 -9 19.5t-26 5.5
q-24 0 -34 -9q-9 -7 -15 -21t-6 -29q0 -28 35 -29z" />
    <glyph glyph-name="ogonek" unicode="&#x2db;" horiz-adv-x="323" 
d="M154 -37q-50 -31 -64 -47q-12 -14 -12 -35q0 -12 5 -17q9 -9 41 -9q20 0 36.5 1.5t27.5 3.5l-13 -73q-14 -3 -35.5 -7t-50.5 -4q-34 0 -55.5 4.5t-34.5 15.5q-17 15 -17 54q0 22 8 46t22 38q13 13 42 31t65 35h92z" />
    <glyph glyph-name="tilde" unicode="&#x2dc;" horiz-adv-x="386" 
d="M70 635q14 59 45 95t87 36q25 0 44 -8.5t35 -19t30.5 -19t29.5 -8.5q21 0 32.5 12.5t17.5 35.5h74q-14 -66 -49.5 -99t-83.5 -33q-25 0 -44 8.5t-35 18.5t-31 18.5t-31 8.5q-21 0 -31.5 -13t-15.5 -33h-74z" />
    <glyph glyph-name="hungarumlaut" unicode="&#x2dd;" horiz-adv-x="517" 
d="M188 763h151l-169 -142h-108zM400 763h152l-169 -142h-109z" />
    <glyph glyph-name="uni0394" unicode="&#x394;" horiz-adv-x="753" 
d="M323 750h298l52 -640l-23 -110h-693l23 109zM213 159h260l-25 424h-22z" />
    <glyph glyph-name="uni03A9" unicode="&#x3a9;" horiz-adv-x="806" 
d="M671 0h-321l53 247q30 4 58.5 12.5t48.5 23.5q22 16 44 52.5t34 92.5q10 47 9 83t-19 56q-27 32 -118 32q-48 0 -78.5 -7t-54.5 -24q-23 -16 -44.5 -52.5t-33.5 -90.5q-10 -47 -9 -83t17 -56q14 -18 40.5 -27t48.5 -12l-53 -247h-324l60 174h181l2 11q-26 8 -56 22.5
t-48 37.5q-29 34 -37.5 93.5t10.5 140.5q17 71 54 129t88 93q47 32 108.5 45.5t151.5 13.5q57 0 99.5 -6t74 -15.5t52.5 -22.5t35 -28q31 -32 41.5 -91.5t-8.5 -149.5q-16 -75 -48 -130t-78 -84q-31 -20 -70 -30.5t-72 -17.5l-3 -11h223z" />
    <glyph glyph-name="uni03BC" unicode="&#x3bc;" horiz-adv-x="699" 
d="M235 -5q-28 0 -41 13l-58 -277h-190l176 830h191l-70 -329q-3 -15 -5 -27.5t-2 -22.5q0 -17 8 -28q7 -9 21 -12.5t31 -3.5q32 0 58.5 8t51.5 18l85 397h191l-120 -561h-148l-13 104h-6l-64 -83q-19 -11 -46.5 -18.5t-49.5 -7.5z" />
    <glyph glyph-name="pi" unicode="&#x3c0;" horiz-adv-x="690" 
d="M139 424h-101l47 137h649l-44 -137h-95l-40 -189q-11 -47 -11 -66q0 -21 9.5 -29.5t29.5 -8.5q15 0 27 1t23 3l-34 -128q-20 -5 -51 -9.5t-68 -4.5q-68 0 -101.5 27.5t-33.5 88.5q0 22 5 50t11 57l44 208h-92l-127 -424h-179z" />
    <glyph glyph-name="Wgrave" unicode="&#x1e80;" horiz-adv-x="1180" 
d="M916 0h-278l8 569h-17l-242 -569h-287l10 750h194l-24 -569h21l246 569h266l-11 -569h21l224 569h208zM654 955l119 -144h-117l-169 144h167z" />
    <glyph glyph-name="wgrave" unicode="&#x1e81;" horiz-adv-x="985" 
d="M768 0h-254v403h-12l-178 -403h-265l14 561h182l-24 -400h15l181 400h238l-5 -400h14l153 400h194zM515 765l119 -144h-117l-169 144h167z" />
    <glyph glyph-name="Wacute" unicode="&#x1e82;" horiz-adv-x="1180" 
d="M916 0h-278l8 569h-17l-242 -569h-287l10 750h194l-24 -569h21l246 569h266l-11 -569h21l224 569h208zM753 955h176l-216 -145h-125z" />
    <glyph glyph-name="wacute" unicode="&#x1e83;" horiz-adv-x="985" 
d="M768 0h-254v403h-12l-178 -403h-265l14 561h182l-24 -400h15l181 400h238l-5 -400h14l153 400h194zM627 765h176l-216 -145h-125z" />
    <glyph glyph-name="Wdieresis" unicode="&#x1e84;" horiz-adv-x="1180" 
d="M916 0h-278l8 569h-17l-242 -569h-287l10 750h194l-24 -569h21l246 569h266l-11 -569h21l224 569h208zM567 815q-43 0 -58 17q-8 8 -8 30q0 20 8.5 41t25.5 32q9 5 23 8.5t34 3.5q41 0 55 -14q10 -10 10 -30t-7.5 -41.5t-23.5 -33.5q-10 -7 -26 -10t-33 -3zM797 815
q-44 0 -59 17q-9 9 -9 29t8.5 41.5t26.5 32.5q10 5 24.5 8.5t34.5 3.5q41 0 53 -14q5 -6 7 -14t2 -17q0 -20 -7 -41t-23 -33q-10 -7 -25.5 -10t-32.5 -3z" />
    <glyph glyph-name="wdieresis" unicode="&#x1e85;" horiz-adv-x="985" 
d="M768 0h-254v403h-12l-178 -403h-265l14 561h182l-24 -400h15l181 400h238l-5 -400h14l153 400h194zM442 626q-43 0 -58 17q-8 8 -8 30q0 20 8.5 41t25.5 32q9 5 23 8.5t34 3.5q41 0 55 -14q10 -10 10 -30t-7.5 -41.5t-23.5 -33.5q-10 -7 -26 -10t-33 -3zM672 626
q-44 0 -59 17q-9 9 -9 29t8.5 41.5t26.5 32.5q10 5 24.5 8.5t34.5 3.5q41 0 53 -14q5 -6 7 -14t2 -17q0 -20 -7 -41t-23 -33q-10 -7 -25.5 -10t-32.5 -3z" />
    <glyph glyph-name="Ygrave" unicode="&#x1ef2;" horiz-adv-x="721" 
d="M385 0h-202l50 236l-132 514h195l66 -325h15l207 325h228l-377 -514zM401 955l119 -144h-117l-169 144h167z" />
    <glyph glyph-name="ygrave" unicode="&#x1ef3;" horiz-adv-x="646" 
d="M239 -270h-197l153 270h-88l-51 561h190l21 -400h17l197 400h210zM323 765l119 -144h-117l-169 144h167z" />
    <glyph glyph-name="endash" unicode="&#x2013;" horiz-adv-x="640" 
d="M551 223h-499l37 172h498z" />
    <glyph glyph-name="emdash" unicode="&#x2014;" horiz-adv-x="949" 
d="M860 223h-808l37 172h807z" />
    <glyph glyph-name="quoteleft" unicode="&#x2018;" horiz-adv-x="320" 
d="M224 480h-185l193 270h152z" />
    <glyph glyph-name="quoteright" unicode="&#x2019;" horiz-adv-x="320" 
d="M213 750h188l-194 -270h-153z" />
    <glyph glyph-name="quotesinglbase" unicode="&#x201a;" horiz-adv-x="320" 
d="M70 142h188l-194 -270h-153z" />
    <glyph glyph-name="quotedblleft" unicode="&#x201c;" horiz-adv-x="591" 
d="M495 480h-186l193 270h152zM224 480h-185l193 270h152z" />
    <glyph glyph-name="quotedblright" unicode="&#x201d;" horiz-adv-x="591" 
d="M484 750h188l-193 -270h-154zM214 750h188l-194 -270h-153z" />
    <glyph glyph-name="quotedblbase" unicode="&#x201e;" horiz-adv-x="590" 
d="M70 142h188l-194 -270h-153zM340 142h188l-193 -270h-154z" />
    <glyph glyph-name="dagger" unicode="&#x2020;" horiz-adv-x="673" 
d="M628 381h-180l-97 -459l-194 -32l104 491h-210l64 149h178l47 220h187l-47 -220h211z" />
    <glyph glyph-name="daggerdbl" unicode="&#x2021;" horiz-adv-x="673" 
d="M640 440h-180l-43 -201h212l-64 -149h-180l-35 -168l-193 -32l43 200h-211l63 149h179l43 201h-211l63 149h180l34 161h186l-35 -161h212z" />
    <glyph glyph-name="bullet" unicode="&#x2022;" horiz-adv-x="552" 
d="M136 311q0 29 11 55t30 45t44.5 30t54.5 11t55 -11t45 -30t30 -45t11 -55t-11 -54.5t-30 -44.5t-45 -30t-55 -11t-54.5 11t-44.5 30t-30 44.5t-11 54.5z" />
    <glyph glyph-name="ellipsis" unicode="&#x2026;" horiz-adv-x="1088" 
d="M200 6q-14 -11 -35 -15t-49 -4q-65 0 -83 23q-11 13 -11 41q0 35 12 65.5t34 44.5q26 16 82 16q61 0 78 -20q14 -14 14 -44q0 -31 -10.5 -61t-31.5 -46zM560 6q-14 -11 -35 -15t-49 -4q-65 0 -83 23q-11 13 -11 41q0 35 12 65.5t34 44.5q26 16 82 16q61 0 78 -20
q14 -14 14 -44q0 -31 -10.5 -61t-31.5 -46zM923 6q-14 -11 -35 -15t-49 -4q-65 0 -83 23q-11 13 -11 41q0 35 12 65.5t34 44.5q26 16 82 16q61 0 78 -20q14 -14 14 -44q0 -31 -10.5 -61t-31.5 -46z" />
    <glyph glyph-name="perthousand" unicode="&#x2030;" horiz-adv-x="1455" 
d="M1431 284q0 -34 -6.5 -71t-19 -72t-31.5 -65t-43 -48q-29 -22 -64 -30t-77 -8q-51 0 -84 14.5t-51 36.5q-14 16 -21.5 41t-7.5 62q0 34 6 70t18 69t29.5 61t40.5 47q52 42 145 42q58 -1 90 -14.5t48 -34.5q13 -16 20.5 -40.5t7.5 -59.5zM1250 107q9 8 17.5 27t16 43
t12 50.5t4.5 50.5q0 13 -2 20.5t-5 12.5q-7 10 -17 13.5t-24 3.5q-30 0 -48 -15q-10 -9 -19 -28t-15.5 -42t-10.5 -48.5t-4 -46.5q0 -26 6 -36q13 -19 43 -19q29 0 46 14zM731 750h116l-517 -750h-118zM477 610q0 -34 -6.5 -71.5t-19 -72.5t-31 -65t-43.5 -48
q-28 -22 -63 -30t-77 -8q-51 0 -84.5 14t-51.5 37q-13 16 -21 41t-8 61q0 35 6.5 71t18.5 69t29.5 61t40.5 47q52 42 145 42q57 -1 89.5 -14.5t48.5 -33.5q12 -16 19.5 -41t7.5 -59zM297 433q9 8 17.5 26.5t16 42.5t12 51t4.5 51q0 12 -2.5 19.5t-5.5 12.5q-11 18 -40 18
q-31 0 -48 -16q-10 -9 -19 -28t-16 -42.5t-11 -48.5t-4 -47q0 -25 6 -35q14 -19 44 -19q28 0 46 15zM988 284q0 -34 -6.5 -71t-19 -72t-31.5 -65t-43 -48q-29 -22 -64 -30t-77 -8q-51 0 -84 14.5t-51 36.5q-14 16 -21.5 41t-7.5 62q0 34 6 70t18 69t29.5 61t40.5 47
q52 42 145 42q58 -1 90 -14.5t48 -34.5q13 -16 20.5 -40.5t7.5 -59.5zM807 107q9 8 17.5 27t16 43t12 50.5t4.5 50.5q0 13 -2 20.5t-5 12.5q-7 10 -17 13.5t-24 3.5q-30 0 -48 -15q-10 -9 -19 -28t-15.5 -42t-10.5 -48.5t-4 -46.5q0 -26 6 -36q13 -19 43 -19q29 0 46 14z
" />
    <glyph glyph-name="guilsinglleft" unicode="&#x2039;" horiz-adv-x="341" 
d="M230 27l-200 213l18 88l290 209l-35 -163l-126 -86l-4 -21l88 -92z" />
    <glyph glyph-name="guilsinglright" unicode="&#x203a;" horiz-adv-x="341" 
d="M109 537l200 -213l-18 -88l-290 -209l34 163l125 86l5 21l-88 93z" />
    <glyph glyph-name="fraction" unicode="&#x2044;" horiz-adv-x="186" 
d="M367 750h113l-629 -750h-112z" />
    <glyph glyph-name="zero.superior" unicode="&#x2070;" 
d="M350 879q64 -1 101 -17.5t54 -40.5q11 -16 18 -41t7 -61q0 -35 -6 -76t-19 -81t-33.5 -75t-48.5 -58q-30 -25 -69.5 -33.5t-83.5 -8.5q-61 0 -97.5 16t-54.5 39q-14 17 -22 44.5t-8 69.5q0 35 6 74t18.5 76t31.5 69.5t45 55.5q57 48 161 48zM282 497q21 0 35 5.5t23 14.5
q10 10 20 33t18 51t13 57.5t5 54.5q0 12 -2 20t-4 13q-13 22 -54 22q-38 0 -60 -20q-11 -12 -21 -34.5t-17.5 -49.5t-11.5 -55t-4 -52q0 -28 7 -39q13 -21 53 -21z" />
    <glyph glyph-name="four.superior" unicode="&#x2074;" 
d="M389 393h-122l21 104h-231l20 99l221 274h192l-58 -273h90l-48 -100h-64zM346 767h-15l-128 -164v-6h107z" />
    <glyph glyph-name="five.superior" unicode="&#x2075;" 
d="M470 524q-9 -33 -24.5 -58.5t-42 -43t-67 -26t-98.5 -8.5q-56 0 -97 7t-66 14l19 94q22 -4 57.5 -9.5t75.5 -5.5q28 0 47 3t31 9t18 15t10 21q2 6 3.5 12.5t1.5 13.5q0 20 -17 28t-67 8q-36 0 -71 -2.5t-55 -4.5l59 279h339l-37 -106h-202l-16 -75q14 2 32.5 3t41.5 1
q72 0 104 -24t32 -75q0 -29 -11 -70z" />
    <glyph glyph-name="six.superior" unicode="&#x2076;" 
d="M352 539q4 15 4 32q0 20 -12 29t-44 9q-19 0 -37 -3t-31 -6q-2 -13 -4 -24.5t-2 -25.5q0 -29 12 -45t41 -16q59 0 73 50zM513 785q-48 0 -82.5 -3.5t-59.5 -9t-42 -13t-30 -16.5q-43 -34 -61 -103l55 44q14 5 34 9t47 4q63 0 94 -27.5t31 -79.5q0 -12 -1.5 -26t-5.5 -28
q-18 -72 -69.5 -110.5t-152.5 -38.5q-51 0 -86 12t-56.5 34t-31 52.5t-9.5 66.5q0 34 6.5 70.5t20.5 72t37 67t56 57.5q21 16 46.5 28t60 20.5t78.5 13t101 4.5z" />
    <glyph glyph-name="seven.superior" unicode="&#x2077;" 
d="M368 751l2 8h-237l42 111h370l-22 -108l-268 -369h-164z" />
    <glyph glyph-name="eight.superior" unicode="&#x2078;" 
d="M204 625l-49 30q-8 9 -15 26.5t-7 40.5q0 40 15 69.5t42.5 48.5t66 28t86.5 9q84 0 134.5 -24t50.5 -81q0 -32 -15.5 -59.5t-38.5 -44.5l-66 -18l55 -27q10 -11 19 -29t9 -45q0 -44 -16 -75t-45.5 -50.5t-70.5 -28.5t-91 -9q-95 0 -144 29.5t-49 86.5q0 34 15.5 61.5
t46.5 45.5zM332 782q-37 0 -52.5 -13.5t-15.5 -37.5q0 -21 23 -33.5t77 -24.5q12 14 21.5 31t9.5 36q0 23 -18 32.5t-45 9.5zM248 603q-14 -14 -26.5 -32.5t-12.5 -41.5q0 -26 21 -36t48 -10q32 0 54.5 13t22.5 44q0 25 -28.5 37.5t-78.5 25.5z" />
    <glyph glyph-name="nine.superior" unicode="&#x2079;" 
d="M257 727q-5 -18 -5 -35q0 -20 12.5 -30t43.5 -10q20 0 38 3.5t31 6.5q5 28 5 51q0 29 -11.5 45.5t-41.5 16.5q-59 0 -72 -48zM95 477q48 0 82.5 3.5t59.5 9t42.5 13.5t29.5 17q22 16 37.5 41t23.5 61l-54 -43q-14 -5 -34 -8.5t-45 -3.5q-63 0 -94.5 28t-31.5 81
q0 12 2 26t5 28q18 71 69 108t150 37q52 0 87 -11.5t57 -33.5t31.5 -52.5t9.5 -67.5q0 -35 -6.5 -71t-20.5 -71.5t-37 -67.5t-56 -57q-21 -15 -46.5 -27.5t-60 -21t-79 -13t-101.5 -5.5z" />
    <glyph glyph-name="zero.inferior" unicode="&#x2080;" 
d="M246 366q64 -1 101 -17.5t54 -40.5q11 -16 18 -41t7 -61q0 -35 -6 -76t-19 -81t-33.5 -75t-48.5 -58q-30 -25 -69.5 -33.5t-83.5 -8.5q-61 0 -97.5 16t-54.5 39q-14 17 -22 44.5t-8 69.5q0 35 6 74t18.5 76t31.5 69.5t45 55.5q57 48 161 48zM178 -16q21 0 35 5.5t23 14.5
q10 10 20 33t18 51t13 57.5t5 54.5q0 12 -2 20t-4 13q-13 22 -54 22q-38 0 -60 -20q-11 -12 -21 -34.5t-17.5 -49.5t-11.5 -55t-4 -52q0 -28 7 -39q13 -21 53 -21z" />
    <glyph glyph-name="one.inferior" unicode="&#x2081;" 
d="M-22 -119l21 98h119l57 273q-10 -1 -26.5 -3t-34.5 -4.5t-34.5 -5t-26.5 -3.5l21 99l258 38l-84 -394h109l-22 -98h-357z" />
    <glyph glyph-name="two.inferior" unicode="&#x2082;" 
d="M324 -119h-369l8 42q9 37 22 64.5t34.5 50t53.5 42t79 40.5q23 10 39.5 17.5t28 13.5t19.5 11t13 10q8 8 14 22.5t6 29.5q0 18 -14.5 27t-55.5 9t-76.5 -4.5t-66.5 -9.5l20 95q16 4 36.5 8.5t43 7.5t45 5t42.5 2q94 0 132.5 -25t38.5 -86q0 -11 -2.5 -28t-9 -36
t-16.5 -37.5t-25 -32.5q-23 -20 -56.5 -35.5t-90.5 -34.5q-28 -10 -46 -18.5t-29 -16t-16.5 -14.5t-8.5 -14h253z" />
    <glyph glyph-name="three.inferior" unicode="&#x2083;" 
d="M401 221q-5 -17 -17 -36.5t-29 -34.5l-65 -24l59 -20q9 -9 14.5 -27t5.5 -38q0 -10 -1 -19.5t-4 -19.5q-8 -35 -24.5 -59t-44.5 -39.5t-70 -22.5t-101 -7q-54 0 -94 7.5t-63 14.5l17 94q31 -5 64.5 -10.5t73.5 -5.5q53 0 74.5 10t27.5 33q2 5 2.5 10.5t0.5 8.5
q0 24 -24 30t-66 6h-86l21 96h86q45 0 67 8.5t29 32.5q2 5 2 10v9q0 19 -15.5 26.5t-50.5 7.5q-41 0 -78 -4.5t-59 -8.5l20 92q26 8 70 15.5t91 7.5q93 0 133 -26t40 -76q0 -20 -6 -41z" />
    <glyph glyph-name="four.inferior" unicode="&#x2084;" 
d="M290 -119h-122l21 104h-231l20 99l221 274h192l-58 -273h90l-48 -100h-64zM247 255h-15l-128 -164v-6h107z" />
    <glyph glyph-name="five.inferior" unicode="&#x2085;" 
d="M370 12q-9 -33 -24.5 -58.5t-42 -43t-67 -26t-98.5 -8.5q-56 0 -97 7t-66 14l19 94q22 -4 57.5 -9.5t75.5 -5.5q28 0 47 3t31 9t18 15t10 21q2 6 3.5 12.5t1.5 13.5q0 20 -17 28t-67 8q-36 0 -71 -2.5t-55 -4.5l59 279h339l-37 -106h-202l-16 -75q14 2 32.5 3t41.5 1
q72 0 104 -24t32 -75q0 -29 -11 -70z" />
    <glyph glyph-name="six.inferior" unicode="&#x2086;" 
d="M251 27q4 15 4 32q0 20 -12 29t-44 9q-19 0 -37 -3t-31 -6q-2 -13 -4 -24.5t-2 -25.5q0 -29 12 -45t41 -16q59 0 73 50zM412 273q-48 0 -82.5 -3.5t-59.5 -9t-42 -13t-30 -16.5q-43 -34 -61 -103l55 44q14 5 34 9t47 4q63 0 94 -27.5t31 -79.5q0 -12 -1.5 -26t-5.5 -28
q-18 -72 -69.5 -110.5t-152.5 -38.5q-51 0 -86 12t-56.5 34t-31 52.5t-9.5 66.5q0 34 6.5 70.5t20.5 72t37 67t56 57.5q21 16 46.5 28t60 20.5t78.5 13t101 4.5z" />
    <glyph glyph-name="seven.inferior" unicode="&#x2087;" 
d="M266 239l2 8h-237l42 111h370l-22 -108l-268 -369h-164z" />
    <glyph glyph-name="eight.inferior" unicode="&#x2088;" 
d="M101 113l-49 30q-8 9 -15 26.5t-7 40.5q0 40 15 69.5t42.5 48.5t66 28t86.5 9q84 0 134.5 -24t50.5 -81q0 -32 -15.5 -59.5t-38.5 -44.5l-66 -18l55 -27q10 -11 19 -29t9 -45q0 -44 -16 -75t-45.5 -50.5t-70.5 -28.5t-91 -9q-95 0 -144 29.5t-49 86.5q0 34 15.5 61.5
t46.5 45.5zM229 270q-37 0 -52.5 -13.5t-15.5 -37.5q0 -21 23 -33.5t77 -24.5q12 14 21.5 31t9.5 36q0 23 -18 32.5t-45 9.5zM145 91q-14 -14 -26.5 -32.5t-12.5 -41.5q0 -26 21 -36t48 -10q32 0 54.5 13t22.5 44q0 25 -28.5 37.5t-78.5 25.5z" />
    <glyph glyph-name="nine.inferior" unicode="&#x2089;" 
d="M156 216q-5 -18 -5 -35q0 -20 12.5 -30t43.5 -10q20 0 38 3.5t31 6.5q5 28 5 51q0 29 -11.5 45.5t-41.5 16.5q-59 0 -72 -48zM-6 -34q48 0 82.5 3.5t59.5 9t42.5 13.5t29.5 17q22 16 37.5 41t23.5 61l-54 -43q-14 -5 -34 -8.5t-45 -3.5q-63 0 -94.5 28t-31.5 81
q0 12 2 26t5 28q18 71 69 108t150 37q52 0 87 -11.5t57 -33.5t31.5 -52.5t9.5 -67.5q0 -35 -6.5 -71t-20.5 -71.5t-37 -67.5t-56 -57q-21 -15 -46.5 -27.5t-60 -21t-79 -13t-101.5 -5.5z" />
    <glyph glyph-name="Euro" unicode="&#x20ac;" horiz-adv-x="675" 
d="M351 -10q-77 0 -124.5 22t-72.5 57q-19 26 -29 66t-10 88v18t1 19h-106l39 78h73q3 17 6.5 35.5t7.5 39.5h-97l39 77h81q22 66 53.5 117.5t69.5 82.5q41 34 101 52t138 18q61 0 109 -9t82 -18l-29 -141q-29 4 -75 10t-101 6q-44 0 -72.5 -10t-45.5 -27q-26 -27 -46 -81
h263l-38 -77h-247q-4 -14 -7.5 -30t-9.5 -45h229l-37 -78h-201q-1 -7 -1 -14.5v-14.5q0 -13 3 -30t11 -28q11 -15 34 -23.5t61 -8.5q52 0 102 7t89 13l-31 -133q-36 -13 -88.5 -25.5t-123.5 -12.5z" />
    <glyph glyph-name="uni20B9" unicode="&#x20b9;" horiz-adv-x="675" 
d="M100 550h253q-1 18 -9 31t-16 19q-14 11 -40 16t-71 5h-114l40 129h585l-42 -129h-207l-1 -6q19 -8 34 -26t20 -39h153l-42 -129h-122q-10 -27 -27 -52t-34 -39q-17 -11 -49.5 -24t-64.5 -26l-2 -7q9 -4 21 -10.5t24 -14.5t22 -16t15 -15q7 -9 17 -29.5t22 -49t25 -64
t25 -74.5h-212q-29 96 -49.5 142.5t-36.5 60.5q-23 18 -104 18h-90l40 129h97q51 0 80.5 3t46.5 13q10 5 23.5 18.5t21.5 36.5h-272z" />
    <glyph glyph-name="uni20BA" unicode="&#x20ba;" horiz-adv-x="675" 
d="M-2 274l85 42l21 96l-86 -41l24 114l86 41l47 224h190l-27 -130l162 76l-24 -116l-163 -76l-20 -96l162 78l-24 -116l-163 -77l-28 -130q8 -2 17 -2h16q79 0 140 50t99 152l163 -64q-34 -84 -76.5 -143t-97.5 -96.5t-126 -54.5t-162 -17q-57 0 -107.5 6t-87.5 15l41 192
l-85 -41z" />
    <glyph glyph-name="afii61289" unicode="&#x2113;" horiz-adv-x="438" 
d="M137 242l-57 -63l-33 38l90 100v260q0 39 11 67.5t29.5 47t43.5 27.5t52 9q57 0 84.5 -33t27.5 -87q0 -67 -36 -127.5t-93 -122.5l-45 -50v-177q0 -43 17.5 -59t45.5 -16q25 0 47.5 12t39.5 26l33 -51q-20 -17 -52.5 -35.5t-82.5 -18.5q-57 0 -89.5 33t-32.5 91v129z
M211 397l22 27q14 17 28 36.5t25.5 40t18.5 42.5t7 44q0 31 -8.5 52t-36.5 21q-11 0 -21.5 -4t-18 -14.5t-12 -30.5t-4.5 -51v-163z" />
    <glyph glyph-name="trademark" unicode="&#x2122;" horiz-adv-x="890" 
d="M762 400v208h-8l-74 -182h-72l-72 182h-9v-208h-106v350h150l69 -171h10l68 171h150v-350h-106zM375 659h-108v-259h-108v259h-122l22 91h334z" />
    <glyph glyph-name="Omega" unicode="&#x2126;" horiz-adv-x="806" 
d="M671 0h-321l53 247q30 4 58.5 12.5t48.5 23.5q22 16 44 52.5t34 92.5q10 47 9 83t-19 56q-27 32 -118 32q-48 0 -78.5 -7t-54.5 -24q-23 -16 -44.5 -52.5t-33.5 -90.5q-10 -47 -9 -83t17 -56q14 -18 40.5 -27t48.5 -12l-53 -247h-324l60 174h181l2 11q-26 8 -56 22.5
t-48 37.5q-29 34 -37.5 93.5t10.5 140.5q17 71 54 129t88 93q47 32 108.5 45.5t151.5 13.5q57 0 99.5 -6t74 -15.5t52.5 -22.5t35 -28q31 -32 41.5 -91.5t-8.5 -149.5q-16 -75 -48 -130t-78 -84q-31 -20 -70 -30.5t-72 -17.5l-3 -11h223z" />
    <glyph glyph-name="estimated" unicode="&#x212e;" horiz-adv-x="652" 
d="M167 284v-196q65 -63 155 -63q72 0 122.5 34t86.5 95q10 -5 18.5 -11t17.5 -11q-22 -33 -46.5 -59.5t-54 -45.5t-65 -29t-79.5 -10q-64 0 -115 23t-87 63.5t-55.5 94t-19.5 115.5q0 61 19 115t55 94.5t87 63.5t116 23q66 0 118 -23t87.5 -63t55 -94t21.5 -116h-437z
M479 478q-65 65 -157 65q-94 0 -155 -64v-158h312v157z" />
    <glyph glyph-name="partialdiff" unicode="&#x2202;" horiz-adv-x="567" 
d="M519 483q0 -39 -6.5 -88.5t-18.5 -100.5q-37 -149 -108 -226.5t-165 -77.5q-84 0 -128.5 48.5t-44.5 144.5q0 64 17.5 123.5t51 104.5t81.5 72t108 27q71 0 111 -49v31q0 72 -27.5 109.5t-79.5 37.5q-23 0 -48 -7.5t-51 -23.5l-31 79q24 15 62 28t76 13q93 0 147 -61.5
t54 -183.5zM403 361q-10 24 -33.5 43.5t-64.5 19.5q-45 0 -75.5 -26t-48.5 -64t-26 -80t-8 -74q0 -55 21.5 -79.5t53.5 -24.5q58 0 105.5 68t75.5 217z" />
    <glyph glyph-name="Delta" unicode="&#x2206;" horiz-adv-x="753" 
d="M323 750h298l52 -640l-23 -110h-693l23 109zM213 159h260l-25 424h-22z" />
    <glyph glyph-name="product" unicode="&#x220f;" horiz-adv-x="809" 
d="M570 -230v809h-331v-809h-140v930h611v-930h-140z" />
    <glyph glyph-name="summation" unicode="&#x2211;" horiz-adv-x="655" 
d="M44 -230v113l334 356l-312 343v118h543v-121h-380l317 -338l-336 -351h414v-120h-580z" />
    <glyph glyph-name="minus" unicode="&#x2212;" horiz-adv-x="675" 
d="M65 410h542v-142h-542v142z" />
    <glyph glyph-name="uni2215" unicode="&#x2215;" horiz-adv-x="186" 
d="M367 750h113l-629 -750h-112z" />
    <glyph glyph-name="uni2219" unicode="&#x2219;" horiz-adv-x="356" 
d="M254 247q-14 -11 -35 -15t-49 -4q-65 0 -83 23q-11 13 -11 41q0 35 12 65.5t34 44.5q26 16 82 16q61 0 78 -20q14 -14 14 -44q0 -31 -10.5 -61t-31.5 -46z" />
    <glyph glyph-name="radical" unicode="&#x221a;" horiz-adv-x="619" 
d="M17 348l182 66l94 -256l195 582l114 -29l-252 -711h-119l-100 279l-80 -29z" />
    <glyph glyph-name="infinity" unicode="&#x221e;" horiz-adv-x="690" 
d="M352 230q-34 -44 -74 -70.5t-92 -26.5q-35 0 -64 11.5t-50 32t-33 49.5t-12 64q0 36 11.5 65t32.5 50t49.5 32.5t62.5 11.5q31 0 56 -8t45.5 -21.5t37.5 -31t31 -36.5h2q13 18 29 35t36.5 31t46 22.5t55.5 8.5q34 0 63 -11t50 -31.5t33 -49t12 -63.5q0 -34 -11.5 -63.5
t-31.5 -51t-48.5 -34t-62.5 -12.5q-57 0 -99.5 26.5t-72.5 70.5h-2zM401 292q20 -38 52 -58t61 -20q38 0 56 23t18 55t-18 54t-56 22q-33 0 -62.5 -20.5t-50.5 -55.5zM304 292q-10 16 -23.5 30t-28.5 24t-31 16t-31 6q-38 0 -56 -23t-18 -55q0 -34 21 -55t53 -21q33 0 64 23
t50 55z" />
    <glyph glyph-name="integral" unicode="&#x222b;" horiz-adv-x="413" 
d="M359 682q-6 3 -18 5.5t-24 2.5q-78 0 -78 -97v-653q0 -75 -32 -120t-104 -45q-17 0 -37 3t-31 8q5 15 8.5 27.5t7.5 27.5q9 -3 19 -5.5t24 -2.5q40 0 59.5 24.5t19.5 71.5v655q0 74 31.5 119.5t105.5 45.5q20 0 39 -4t28 -9q-5 -15 -9 -27.5t-9 -26.5z" />
    <glyph glyph-name="approxequal" unicode="&#x2248;" horiz-adv-x="675" 
d="M451 363q-40 0 -72 14t-59.5 31.5t-52.5 31.5t-50 14q-35 0 -73.5 -27t-80.5 -62v147q15 15 34.5 29.5t41 25.5t44.5 18t45 7q39 0 70.5 -14t58.5 -30.5t51 -30.5t47 -14q42 0 80 26t76 61v-148q-36 -35 -77.5 -57t-82.5 -22zM451 85q-40 0 -72 14t-59.5 31.5t-52.5 31.5
t-50 14q-35 0 -73.5 -27t-80.5 -62v147q15 15 34.5 29.5t41 25.5t44.5 18t45 7q39 0 70.5 -14t58.5 -30.5t51 -30.5t47 -14q42 0 80 26t76 61v-148q-36 -35 -77.5 -57t-82.5 -22z" />
    <glyph glyph-name="notequal" unicode="&#x2260;" horiz-adv-x="675" 
d="M64 548h316l49 90h133l-48 -90h96v-141h-172l-75 -136h247v-142h-322l-48 -89h-134l48 89h-90v142h166l74 136h-240v141z" />
    <glyph glyph-name="lessequal" unicode="&#x2264;" horiz-adv-x="675" 
d="M610 797v-158l-375 -156l375 -155v-158l-546 244v139zM610 0h-546v141h546v-141z" />
    <glyph glyph-name="greaterequal" unicode="&#x2265;" horiz-adv-x="675" 
d="M610 553v-139l-546 -244v158l374 155l-374 156v158zM64 141h546v-141h-546v141z" />
    <glyph glyph-name="lozenge" unicode="&#x25ca;" horiz-adv-x="533" 
d="M246 728h42l180 -365l-180 -363h-43l-180 363zM127 364l136 -290h4l139 289l-139 288h-4z" />
    <glyph glyph-name="uniF8FF" unicode="&#xf8ff;" horiz-adv-x="512" 
d="M222 117v67h56v-67h-56zM225 234l-2 17q0 56 13 81q7 13 18 27.5t28 31.5q16 15 26 26.5t15 21t7 18t2 17.5q0 36 -22.5 60.5t-53.5 24.5t-53.5 -22t-28.5 -73l-50 8q7 72 44 104.5t91 32.5t89 -35.5t35 -95.5q0 -32 -12.5 -58.5t-50.5 -61.5q-37 -33 -43 -52
q-6 -20 -6 -72h-46zM462 50v617h-412v-617h412zM512 718v-718h-512v718h512z" />
    <glyph glyph-name="fi" unicode="&#xfb01;" horiz-adv-x="743" 
d="M421 0l118 561h190l-119 -561h-189zM738 662q-14 -10 -36 -14t-48 -4q-59 0 -78 22q-12 13 -10 44q2 30 13.5 57t32.5 39q12 7 30 10.5t47 3.5q27 0 47 -4t29 -14q8 -8 11 -20.5t3 -28.5q-2 -27 -11.5 -52t-29.5 -39zM433 424h-133l-91 -424h-190l90 424h-72l38 137h63
l10 46q12 52 30.5 89t46.5 61t68 35.5t94 11.5q49 0 88 -5t60 -9l-27 -126q-16 2 -37.5 5t-44.5 3q-44 0 -62.5 -17.5t-26.5 -54.5l-9 -39h148z" />
    <glyph glyph-name="fl" unicode="&#xfb02;" horiz-adv-x="798" 
d="M774 799l-127 -596q-5 -25 -5 -38q0 -20 10.5 -27.5t31.5 -7.5q17 0 35 2.5t32 4.5l-26 -125q-23 -5 -59 -12t-81 -7q-72 0 -106 28t-34 87q0 23 4 48t9 53l126 590h190zM433 424h-133l-91 -424h-190l90 424h-72l38 137h63l10 46q12 52 30.5 89t46.5 61t68 35.5t94 11.5
q49 0 88 -5t60 -9l-27 -126q-16 2 -37.5 5t-44.5 3q-44 0 -62.5 -17.5t-26.5 -54.5l-9 -39h148z" />
    <glyph glyph-name="commaaccent" horiz-adv-x="284" 
d="M37 -78h176l-143 -169h-139z" />
    <glyph glyph-name="zero.denominator" 
d="M276 486q64 -1 101 -17.5t54 -40.5q11 -16 18 -41t7 -61q0 -35 -6 -76t-19 -81t-33.5 -75t-48.5 -58q-30 -25 -69.5 -33.5t-83.5 -8.5q-61 0 -97.5 16t-54.5 39q-14 17 -22 44.5t-8 69.5q0 35 6 74t18.5 76t31.5 69.5t45 55.5q57 48 161 48zM208 104q21 0 35 5.5t23 14.5
q10 10 20 33t18 51t13 57.5t5 54.5q0 12 -2 20t-4 13q-13 22 -54 22q-38 0 -60 -20q-11 -12 -21 -34.5t-17.5 -49.5t-11.5 -55t-4 -52q0 -28 7 -39q13 -21 53 -21z" />
    <glyph glyph-name="one.denominator" 
d="M7 1l21 98h119l57 273q-10 -1 -26.5 -3t-34.5 -4.5t-34.5 -5t-26.5 -3.5l21 99l258 38l-84 -394h109l-22 -98h-357z" />
    <glyph glyph-name="two.denominator" 
d="M355 1h-369l8 42q9 37 22 64.5t34.5 50t53.5 42t79 40.5q23 10 39.5 17.5t28 13.5t19.5 11t13 10q8 8 14 22.5t6 29.5q0 18 -14.5 27t-55.5 9t-76.5 -4.5t-66.5 -9.5l20 95q16 4 36.5 8.5t43 7.5t45 5t42.5 2q94 0 132.5 -25t38.5 -86q0 -11 -2.5 -28t-9 -36t-16.5 -37.5
t-25 -32.5q-23 -20 -56.5 -35.5t-90.5 -34.5q-28 -10 -46 -18.5t-29 -16t-16.5 -14.5t-8.5 -14h253z" />
    <glyph glyph-name="three.denominator" 
d="M431 341q-5 -17 -17 -36.5t-29 -34.5l-65 -24l59 -20q9 -9 14.5 -27t5.5 -38q0 -10 -1 -19.5t-4 -19.5q-8 -35 -24.5 -59t-44.5 -39.5t-70 -22.5t-101 -7q-54 0 -94 7.5t-63 14.5l17 94q31 -5 64.5 -10.5t73.5 -5.5q53 0 74.5 10t27.5 33q2 5 2.5 10.5t0.5 8.5
q0 24 -24 30t-66 6h-86l21 96h86q45 0 67 8.5t29 32.5q2 5 2 10v9q0 19 -15.5 26.5t-50.5 7.5q-41 0 -78 -4.5t-59 -8.5l20 92q26 8 70 15.5t91 7.5q93 0 133 -26t40 -76q0 -20 -6 -41z" />
    <glyph glyph-name="four.denominator" 
d="M320 1h-122l21 104h-231l20 99l221 274h192l-58 -273h90l-48 -100h-64zM277 375h-15l-128 -164v-6h107z" />
    <glyph glyph-name="five.denominator" 
d="M398 132q-9 -33 -24.5 -58.5t-42 -43t-67 -26t-98.5 -8.5q-56 0 -97 7t-66 14l19 94q22 -4 57.5 -9.5t75.5 -5.5q28 0 47 3t31 9t18 15t10 21q2 6 3.5 12.5t1.5 13.5q0 20 -17 28t-67 8q-36 0 -71 -2.5t-55 -4.5l59 279h339l-37 -106h-202l-16 -75q14 2 32.5 3t41.5 1
q72 0 104 -24t32 -75q0 -29 -11 -70z" />
    <glyph glyph-name="six.denominator" 
d="M279 147q4 15 4 32q0 20 -12 29t-44 9q-19 0 -37 -3t-31 -6q-2 -13 -4 -24.5t-2 -25.5q0 -29 12 -45t41 -16q59 0 73 50zM440 393q-48 0 -82.5 -3.5t-59.5 -9t-42 -13t-30 -16.5q-43 -34 -61 -103l55 44q14 5 34 9t47 4q63 0 94 -27.5t31 -79.5q0 -12 -1.5 -26t-5.5 -28
q-18 -72 -69.5 -110.5t-152.5 -38.5q-51 0 -86 12t-56.5 34t-31 52.5t-9.5 66.5q0 34 6.5 70.5t20.5 72t37 67t56 57.5q21 16 46.5 28t60 20.5t78.5 13t101 4.5z" />
    <glyph glyph-name="seven.denominator" 
d="M297 360l2 8h-237l42 111h370l-22 -108l-268 -369h-164z" />
    <glyph glyph-name="eight.denominator" 
d="M132 233l-49 30q-8 9 -15 26.5t-7 40.5q0 40 15 69.5t42.5 48.5t66 28t86.5 9q84 0 134.5 -24t50.5 -81q0 -32 -15.5 -59.5t-38.5 -44.5l-66 -18l55 -27q10 -11 19 -29t9 -45q0 -44 -16 -75t-45.5 -50.5t-70.5 -28.5t-91 -9q-95 0 -144 29.5t-49 86.5q0 34 15.5 61.5
t46.5 45.5zM260 390q-37 0 -52.5 -13.5t-15.5 -37.5q0 -21 23 -33.5t77 -24.5q12 14 21.5 31t9.5 36q0 23 -18 32.5t-45 9.5zM176 211q-14 -14 -26.5 -32.5t-12.5 -41.5q0 -26 21 -36t48 -10q32 0 54.5 13t22.5 44q0 25 -28.5 37.5t-78.5 25.5z" />
    <glyph glyph-name="nine.denominator" 
d="M186 336q-5 -18 -5 -35q0 -20 12.5 -30t43.5 -10q20 0 38 3.5t31 6.5q5 28 5 51q0 29 -11.5 45.5t-41.5 16.5q-59 0 -72 -48zM24 86q48 0 82.5 3.5t59.5 9t42.5 13.5t29.5 17q22 16 37.5 41t23.5 61l-54 -43q-14 -5 -34 -8.5t-45 -3.5q-63 0 -94.5 28t-31.5 81q0 12 2 26
t5 28q18 71 69 108t150 37q52 0 87 -11.5t57 -33.5t31.5 -52.5t9.5 -67.5q0 -35 -6.5 -71t-20.5 -71.5t-37 -67.5t-56 -57q-21 -15 -46.5 -27.5t-60 -21t-79 -13t-101.5 -5.5z" />
    <glyph glyph-name="zero.numerator" 
d="M320 759q64 -1 101 -17.5t54 -40.5q11 -16 18 -41t7 -61q0 -35 -6 -76t-19 -81t-33.5 -75t-48.5 -58q-30 -25 -69.5 -33.5t-83.5 -8.5q-61 0 -97.5 16t-54.5 39q-14 17 -22 44.5t-8 69.5q0 35 6 74t18.5 76t31.5 69.5t45 55.5q57 48 161 48zM252 377q21 0 35 5.5t23 14.5
q10 10 20 33t18 51t13 57.5t5 54.5q0 12 -2 20t-4 13q-13 22 -54 22q-38 0 -60 -20q-11 -12 -21 -34.5t-17.5 -49.5t-11.5 -55t-4 -52q0 -28 7 -39q13 -21 53 -21z" />
    <glyph glyph-name="one.numerator" 
d="M50 274l21 98h119l57 273q-10 -1 -26.5 -3t-34.5 -4.5t-34.5 -5t-26.5 -3.5l21 99l258 38l-84 -394h109l-22 -98h-357z" />
    <glyph glyph-name="two.numerator" 
d="M397 274h-369l8 42q9 37 22 64.5t34.5 50t53.5 42t79 40.5q23 10 39.5 17.5t28 13.5t19.5 11t13 10q8 8 14 22.5t6 29.5q0 18 -14.5 27t-55.5 9t-76.5 -4.5t-66.5 -9.5l20 95q16 4 36.5 8.5t43 7.5t45 5t42.5 2q94 0 132.5 -25t38.5 -86q0 -11 -2.5 -28t-9 -36
t-16.5 -37.5t-25 -32.5q-23 -20 -56.5 -35.5t-90.5 -34.5q-28 -10 -46 -18.5t-29 -16t-16.5 -14.5t-8.5 -14h253z" />
    <glyph glyph-name="three.numerator" 
d="M474 614q-5 -17 -17 -36.5t-29 -34.5l-65 -24l59 -20q9 -9 14.5 -27t5.5 -38q0 -10 -1 -19.5t-4 -19.5q-8 -35 -24.5 -59t-44.5 -39.5t-70 -22.5t-101 -7q-54 0 -94 7.5t-63 14.5l17 94q31 -5 64.5 -10.5t73.5 -5.5q53 0 74.5 10t27.5 33q2 5 2.5 10.5t0.5 8.5
q0 24 -24 30t-66 6h-86l21 96h86q45 0 67 8.5t29 32.5q2 5 2 10v9q0 19 -15.5 26.5t-50.5 7.5q-41 0 -78 -4.5t-59 -8.5l20 92q26 8 70 15.5t91 7.5q93 0 133 -26t40 -76q0 -20 -6 -41z" />
    <glyph glyph-name="four.numerator" 
d="M360 274h-122l21 104h-231l20 99l221 274h192l-58 -273h90l-48 -100h-64zM317 648h-15l-128 -164v-6h107z" />
    <glyph glyph-name="five.numerator" 
d="M441 405q-9 -33 -24.5 -58.5t-42 -43t-67 -26t-98.5 -8.5q-56 0 -97 7t-66 14l19 94q22 -4 57.5 -9.5t75.5 -5.5q28 0 47 3t31 9t18 15t10 21q2 6 3.5 12.5t1.5 13.5q0 20 -17 28t-67 8q-36 0 -71 -2.5t-55 -4.5l59 279h339l-37 -106h-202l-16 -75q14 2 32.5 3t41.5 1
q72 0 104 -24t32 -75q0 -29 -11 -70z" />
    <glyph glyph-name="six.numerator" 
d="M323 421q4 15 4 32q0 20 -12 29t-44 9q-19 0 -37 -3t-31 -6q-2 -13 -4 -24.5t-2 -25.5q0 -29 12 -45t41 -16q59 0 73 50zM484 667q-48 0 -82.5 -3.5t-59.5 -9t-42 -13t-30 -16.5q-43 -34 -61 -103l55 44q14 5 34 9t47 4q63 0 94 -27.5t31 -79.5q0 -12 -1.5 -26t-5.5 -28
q-18 -72 -69.5 -110.5t-152.5 -38.5q-51 0 -86 12t-56.5 34t-31 52.5t-9.5 66.5q0 34 6.5 70.5t20.5 72t37 67t56 57.5q21 16 46.5 28t60 20.5t78.5 13t101 4.5z" />
    <glyph glyph-name="seven.numerator" 
d="M339 632l2 8h-237l42 111h370l-22 -108l-268 -369h-164z" />
    <glyph glyph-name="eight.numerator" 
d="M175 506l-49 30q-8 9 -15 26.5t-7 40.5q0 40 15 69.5t42.5 48.5t66 28t86.5 9q84 0 134.5 -24t50.5 -81q0 -32 -15.5 -59.5t-38.5 -44.5l-66 -18l55 -27q10 -11 19 -29t9 -45q0 -44 -16 -75t-45.5 -50.5t-70.5 -28.5t-91 -9q-95 0 -144 29.5t-49 86.5q0 34 15.5 61.5
t46.5 45.5zM303 663q-37 0 -52.5 -13.5t-15.5 -37.5q0 -21 23 -33.5t77 -24.5q12 14 21.5 31t9.5 36q0 23 -18 32.5t-45 9.5zM219 484q-14 -14 -26.5 -32.5t-12.5 -41.5q0 -26 21 -36t48 -10q32 0 54.5 13t22.5 44q0 25 -28.5 37.5t-78.5 25.5z" />
    <glyph glyph-name="nine.numerator" 
d="M228 608q-5 -18 -5 -35q0 -20 12.5 -30t43.5 -10q20 0 38 3.5t31 6.5q5 28 5 51q0 29 -11.5 45.5t-41.5 16.5q-59 0 -72 -48zM66 358q48 0 82.5 3.5t59.5 9t42.5 13.5t29.5 17q22 16 37.5 41t23.5 61l-54 -43q-14 -5 -34 -8.5t-45 -3.5q-63 0 -94.5 28t-31.5 81
q0 12 2 26t5 28q18 71 69 108t150 37q52 0 87 -11.5t57 -33.5t31.5 -52.5t9.5 -67.5q0 -35 -6.5 -71t-20.5 -71.5t-37 -67.5t-56 -57q-21 -15 -46.5 -27.5t-60 -21t-79 -13t-101.5 -5.5z" />
    <glyph glyph-name="acute.cap" horiz-adv-x="386" 
d="M316 960h176l-216 -145h-125z" />
    <glyph glyph-name="breve.cap" horiz-adv-x="414" 
d="M186 963q-3 -12 -3 -22q0 -23 18.5 -34t47.5 -11q41 0 61 17t25 50h103q-3 -31 -15 -59t-36 -49t-60.5 -33t-88.5 -12q-73 0 -113.5 29.5t-40.5 86.5q0 8 1.5 18.5t3.5 18.5h97z" />
    <glyph glyph-name="caron.alt" horiz-adv-x="275" 
d="M111 750h149l-121 -255h-120z" />
    <glyph glyph-name="caron.cap" horiz-adv-x="386" 
d="M84 945h112l66 -65l94 65h123l-161 -139h-131z" />
    <glyph glyph-name="circumflex.cap" horiz-adv-x="386" 
d="M454 806h-112l-67 65l-94 -65h-123l162 139h131z" />
    <glyph glyph-name="commaaccent.alt" horiz-adv-x="267" 
d="M183 632h-173l144 168h138z" />
    <glyph glyph-name="dieresis.cap" horiz-adv-x="386" 
d="M147 811q-43 0 -58 17q-8 8 -8 30q0 20 8.5 41t25.5 32q9 5 23 8.5t34 3.5q41 0 55 -14q10 -10 10 -30t-7.5 -41.5t-23.5 -33.5q-10 -7 -26 -10t-33 -3zM377 811q-44 0 -59 17q-9 9 -9 29t8.5 41.5t26.5 32.5q10 5 24.5 8.5t34.5 3.5q41 0 53 -14q5 -6 7 -14t2 -17
q0 -20 -7 -41t-23 -33q-10 -7 -25.5 -10t-32.5 -3z" />
    <glyph glyph-name="dotaccent.cap" horiz-adv-x="386" 
d="M242 811q-54 0 -67 18q-10 10 -10 35q0 26 10 51t30 36q11 7 26 10t41 3q50 0 66 -16q12 -14 12 -38t-9.5 -47.5t-26.5 -36.5q-11 -8 -30 -11.5t-42 -3.5z" />
    <glyph glyph-name="grave.cap" horiz-adv-x="389" 
d="M233 959l119 -144h-117l-169 144h167z" />
    <glyph glyph-name="hungarumlaut.cap" horiz-adv-x="517" 
d="M179 950h151l-169 -142h-108zM391 950h152l-169 -142h-109z" />
    <glyph glyph-name="macron.cap" horiz-adv-x="386" 
d="M123 923h319l-23 -104h-318z" />
    <glyph glyph-name="ring.cap" horiz-adv-x="386" 
d="M257 809q-18 0 -35.5 3.5t-31 11.5t-21.5 22t-8 34q0 29 12.5 59t35.5 47q20 14 42.5 18t51.5 4q36 0 64 -15.5t28 -52.5q0 -14 -2 -29t-7.5 -29.5t-14 -27t-20.5 -21.5q-16 -11 -39 -17.5t-55 -6.5zM268 863q24 0 35 10q10 7 15 22.5t5 30.5q0 14 -9 19.5t-26 5.5
q-24 0 -34 -9q-9 -7 -15 -21t-6 -29q0 -28 35 -29z" />
    <glyph glyph-name="tilde.cap" horiz-adv-x="386" 
d="M75 815q14 59 45 95t87 36q25 0 44 -8.5t35 -19t30.5 -19t29.5 -8.5q21 0 32.5 12.5t17.5 35.5h74q-14 -66 -49.5 -99t-83.5 -33q-25 0 -44 8.5t-35 18.5t-31 18.5t-31 8.5q-21 0 -31.5 -13t-15.5 -33h-74z" />
    <glyph glyph-name="cent.alt" horiz-adv-x="675" 
d="M595 520l-58 8t-68 4q-37 0 -62 -6t-43 -18q-18 -13 -31.5 -36t-23 -50t-14.5 -55t-5 -50q0 -42 19 -61q12 -13 32.5 -17.5t47.5 -4.5q41 0 82 6.5t70 11.5l-34 -133q-29 -8 -60 -15t-69 -11l-19 -93h-80l19 91q-51 1 -91.5 13t-68.5 38q-25 23 -39.5 60t-14.5 95
q0 40 8.5 87t26 92t45 84.5t65.5 64.5q40 26 86.5 37t106.5 13l16 75h80l-17 -78q34 -3 63.5 -8t52.5 -10z" />
    <glyph glyph-name="oslash.alt" horiz-adv-x="667" 
d="M634 373q0 -45 -9.5 -93.5t-27.5 -93.5t-44 -82.5t-59 -61.5q-42 -30 -95.5 -41t-119.5 -11q-57 0 -96.5 9t-65.5 23l-34 -32h-106l86 84q-13 22 -20.5 51.5t-7.5 70.5q0 45 8.5 91t25.5 89t41.5 79.5t57.5 61.5q39 29 90.5 44t128.5 15q54 0 95.5 -8.5t67.5 -24.5l32 30
h105l-83 -79q13 -20 21.5 -52t8.5 -69zM380 153q13 11 25.5 34.5t22.5 52.5t15.5 60t5.5 58q0 20 -3.5 32t-9.5 20q-18 23 -67 23q-30 0 -49 -6.5t-33 -17.5q-15 -12 -28 -36t-22 -52.5t-14 -58.5t-5 -55q0 -37 12 -52q10 -12 27 -18.5t45 -6.5q52 0 78 23z" />
    </font>
</defs>
</svg>
